<svg width="23" height="33" viewBox="0 0 23 33" fill="none" xmlns="http://www.w3.org/2000/svg">
<path d="M22.1997 22.3391L20.9672 15.4235C20.8988 15.0812 20.6591 14.8073 20.3168 14.7046C20.0771 14.6361 19.8032 14.7046 19.5636 14.8415C19.3582 15.0127 19.2212 15.2524 19.187 15.492L18.8789 19.4975C19.0843 19.566 19.2212 19.7029 19.3924 19.8399C19.9744 20.4219 20.0429 21.3462 19.5294 21.9967L17.5437 24.5301C17.3725 24.7355 17.0302 24.804 16.8248 24.5986C16.6194 24.3932 16.5509 24.0851 16.7221 23.8796L18.7077 21.3462C18.8789 21.1066 18.8789 20.7642 18.6393 20.5588C18.5365 20.4561 18.3654 20.3876 18.2284 20.3876C18.1257 20.3876 17.9888 20.4219 17.8861 20.4904L14.9761 22.6129C14.4283 23.0238 14.0517 23.64 13.949 24.3247L13.4697 28.1933H18.8447L21.3781 25.1463C22.097 24.4616 22.4051 23.4003 22.1997 22.3391Z" fill="url(#paint0_linear)"/>
<path d="M18.9134 29.3223H13.3331C12.9907 29.3223 12.6826 29.5961 12.6826 29.9727V31.8557C12.6826 32.198 12.9565 32.5061 13.3331 32.5061H18.9134C19.2558 32.5061 19.5639 32.2323 19.5639 31.8557V29.9727C19.5297 29.6304 19.2558 29.3223 18.9134 29.3223Z" fill="url(#paint1_linear)"/>
<path d="M3.43891 28.2954H8.81385L8.30032 24.3926C8.19761 23.7079 7.82102 23.0916 7.27326 22.6808L4.36327 20.5582C4.12362 20.387 3.8155 20.4213 3.61009 20.6267C3.40468 20.8321 3.37044 21.1745 3.54162 21.4141L5.52726 23.9475C5.69844 24.1872 5.66421 24.4953 5.42456 24.6665C5.18491 24.8376 4.87679 24.8034 4.70562 24.598L2.71997 22.0646C2.20644 21.4141 2.27492 20.4898 2.85691 19.9078C2.99386 19.7366 3.16503 19.6339 3.37044 19.5654L3.06233 15.5599C3.02809 15.286 2.89115 15.0463 2.68574 14.9094C2.48033 14.7725 2.20644 14.704 1.93256 14.7725C1.59021 14.8752 1.35056 15.1491 1.28209 15.4914L0.049624 22.4069C-0.121552 23.434 0.15233 24.5295 0.837034 25.3169L3.43891 28.2954Z" fill="url(#paint2_linear)"/>
<path d="M9.0189 29.3223H3.43856C3.0962 29.3223 2.78809 29.5961 2.78809 29.9727V31.8557C2.78809 32.198 3.06197 32.5061 3.43856 32.5061H9.0189C9.36125 32.5061 9.66937 32.2323 9.66937 31.8557V29.9727C9.66937 29.6304 9.39549 29.3223 9.0189 29.3223Z" fill="url(#paint3_linear)"/>
<path d="M17.5436 14.8741C17.5436 11.3479 14.7021 8.50635 11.1759 8.50635C7.64963 8.50635 4.80811 11.3479 4.80811 14.8741C4.80811 18.4003 7.64963 21.2419 11.1759 21.2419C14.7021 21.2419 17.5436 18.3661 17.5436 14.8741ZM10.7308 14.3948H11.6209C12.5795 14.3948 13.4012 15.1822 13.4012 16.175C13.4012 17.1336 12.6137 17.921 11.6894 17.921V18.9823H10.6966V17.8868C9.73798 17.8526 8.98481 17.0994 8.98481 16.1408H9.97763C9.97763 16.5859 10.32 16.9282 10.765 16.9282H11.6552C12.1002 16.9282 12.4426 16.5859 12.4426 16.1408C12.4426 15.6958 12.1002 15.3534 11.6552 15.3534H10.765C9.80645 15.3534 8.98481 14.566 8.98481 13.5732C8.98481 12.6146 9.77222 11.8272 10.6966 11.8272V10.7316H11.6894V11.8272C12.648 11.8614 13.4012 12.6146 13.4012 13.5732H12.4083C12.4083 13.1281 12.066 12.7858 11.6209 12.7858H10.7308C10.2857 12.7858 9.94339 13.1281 9.94339 13.5732C9.94339 14.0182 10.2857 14.3948 10.7308 14.3948Z" fill="url(#paint4_linear)"/>
<path d="M9.08788 3.50911H10.2861V6.55605C10.2861 6.82993 10.4915 7.03534 10.7654 7.03534H11.5871C11.8609 7.03534 12.0663 6.82993 12.0663 6.55605V3.50911H13.2646C13.6412 3.50911 13.8123 3.09829 13.6069 2.82441L11.5186 0.154059C11.3474 -0.0513529 11.0051 -0.0513529 10.8339 0.154059L8.74553 2.82441C8.54012 3.09829 8.74553 3.50911 9.08788 3.50911Z" fill="url(#paint5_linear)"/>
<path d="M16.5511 9.12391C16.7566 9.29508 17.0647 9.26085 17.2358 9.05544L19.1873 6.72744L20.1116 7.51485C20.3855 7.7545 20.7963 7.54909 20.8305 7.20673L20.9333 3.81744C20.9333 3.54356 20.6936 3.33815 20.4197 3.37239L17.0989 4.05709C16.7566 4.12556 16.6196 4.57062 16.8935 4.81027L17.8178 5.59768L15.8664 7.92567C15.6953 8.13109 15.7295 8.4392 15.9349 8.61038L16.5511 9.12391Z" fill="url(#paint6_linear)"/>
<path d="M2.24102 7.48002L3.16538 6.69261L5.11678 9.02061C5.28796 9.22602 5.59608 9.26026 5.80149 9.08908L6.45196 8.54132C6.65737 8.37014 6.69161 8.06202 6.52043 7.85661L4.56902 5.52861L5.49337 4.7412C5.76726 4.50156 5.66455 4.0565 5.28796 3.98803L1.96714 3.30332C1.69326 3.23485 1.45361 3.4745 1.45361 3.74838L1.55632 7.13767C1.55632 7.51426 1.96714 7.68543 2.24102 7.48002Z" fill="url(#paint7_linear)"/>
<defs>
<linearGradient id="paint0_linear" x1="13.5792" y1="16.8741" x2="23.6582" y2="21.9283" gradientUnits="userSpaceOnUse">
<stop stop-color="#06B5E9"/>
<stop offset="1" stop-color="#2682F4"/>
</linearGradient>
<linearGradient id="paint1_linear" x1="12.7683" y1="29.8397" x2="15.383" y2="34.1957" gradientUnits="userSpaceOnUse">
<stop stop-color="#06B5E9"/>
<stop offset="1" stop-color="#2682F4"/>
</linearGradient>
<linearGradient id="paint2_linear" x1="0.109729" y1="16.9475" x2="10.2137" y2="22.0137" gradientUnits="userSpaceOnUse">
<stop stop-color="#06B5E9"/>
<stop offset="1" stop-color="#2682F4"/>
</linearGradient>
<linearGradient id="paint3_linear" x1="2.87376" y1="29.8397" x2="5.48843" y2="34.1957" gradientUnits="userSpaceOnUse">
<stop stop-color="#06B5E9"/>
<stop offset="1" stop-color="#2682F4"/>
</linearGradient>
<linearGradient id="paint4_linear" x1="4.96666" y1="10.5759" x2="16.4272" y2="19.4101" gradientUnits="userSpaceOnUse">
<stop stop-color="#06B5E9"/>
<stop offset="1" stop-color="#2682F4"/>
</linearGradient>
<linearGradient id="paint5_linear" x1="8.72621" y1="1.14327" x2="14.2618" y2="4.19478" gradientUnits="userSpaceOnUse">
<stop stop-color="#06B5E9"/>
<stop offset="1" stop-color="#2682F4"/>
</linearGradient>
<linearGradient id="paint6_linear" x1="15.8213" y1="4.32172" x2="20.8976" y2="7.77539" gradientUnits="userSpaceOnUse">
<stop stop-color="#06B5E9"/>
<stop offset="1" stop-color="#2682F4"/>
</linearGradient>
<linearGradient id="paint7_linear" x1="1.51806" y1="4.25144" x2="6.61741" y2="7.69593" gradientUnits="userSpaceOnUse">
<stop stop-color="#06B5E9"/>
<stop offset="1" stop-color="#2682F4"/>
</linearGradient>
</defs>
</svg>
