<svg width="27" height="26" viewBox="0 0 27 26" fill="none" xmlns="http://www.w3.org/2000/svg">
<path d="M21.5935 1.28873C21.5935 0.576592 21.0165 -0.000488281 20.3043 -0.000488281H6.09421C5.38616 -0.000488281 4.80908 0.576592 4.80908 1.28873V4.01043H21.5935V1.28873ZM6.81863 2.72939C6.41754 2.72939 6.09421 2.40606 6.09421 2.00497C6.09421 1.60388 6.41754 1.28055 6.81863 1.28055C7.21972 1.28055 7.54305 1.60388 7.54305 2.00497C7.54305 2.40606 7.21972 2.72939 6.81863 2.72939ZM9.09831 2.72939C8.69721 2.72939 8.37388 2.40606 8.37388 2.00497C8.37388 1.60388 8.69721 1.28055 9.09831 1.28055C9.4953 1.28055 9.81863 1.60388 9.81863 2.00497C9.81867 2.40606 9.4953 2.72939 9.09831 2.72939ZM11.3739 2.72939C10.9769 2.72939 10.6536 2.40606 10.6536 2.00497C10.6536 1.60388 10.9769 1.28055 11.3739 1.28055C11.775 1.28055 12.0983 1.60388 12.0983 2.00497C12.0983 2.40606 11.775 2.72939 11.3739 2.72939Z" fill="url(#paint0_linear)"/>
<path d="M13.2007 14.1783C14.3601 14.1783 15.3 13.2373 15.3 12.0765C15.3 10.9156 14.3601 9.97461 13.2007 9.97461C12.0412 9.97461 11.1013 10.9156 11.1013 12.0765C11.1013 13.2373 12.0412 14.1783 13.2007 14.1783Z" fill="url(#paint1_linear)"/>
<path d="M23.861 12.4861C24.0329 13.0018 24.524 13.3784 25.097 13.3784C25.8132 13.3784 26.3985 12.7931 26.3985 12.0769C26.3985 11.3566 25.8132 10.7713 25.097 10.7713C24.524 10.7713 24.0329 11.1478 23.861 11.6676H21.5936V9.44931H23.1202C23.2348 9.44931 23.3453 9.4002 23.423 9.31425L24.5731 8.03325C24.7327 8.10692 24.9128 8.14785 25.097 8.14785C25.8132 8.14785 26.3985 7.56258 26.3985 6.84226C26.3985 6.12602 25.8132 5.54076 25.097 5.54076C24.3807 5.54076 23.7955 6.12602 23.7955 6.84226C23.7955 7.07554 23.8569 7.29655 23.9674 7.48482L22.936 8.6308H21.5936V4.82861H4.80913V8.6308H3.4626L2.43123 7.48891C2.54582 7.30065 2.60722 7.07964 2.60722 6.84226C2.60722 6.12602 2.02195 5.54076 1.30162 5.54076C0.585388 5.54076 0.00012207 6.12602 0.00012207 6.84226C0.00012207 7.56258 0.585388 8.14785 1.30162 8.14785C1.48989 8.14785 1.66997 8.10692 1.82959 8.03735L2.97966 9.31429C3.05742 9.40024 3.16793 9.44935 3.28252 9.44935H4.80913V11.6676H2.54173C2.36984 11.1478 1.8787 10.7713 1.30162 10.7713C0.585388 10.7713 0.00012207 11.3566 0.00012207 12.0769C0.00012207 12.7931 0.585388 13.3785 1.30162 13.3785C1.8787 13.3785 2.36984 13.0019 2.54173 12.4862H4.80913V14.7004H3.28252C3.16793 14.7004 3.05742 14.7495 2.97966 14.8354L1.8255 16.1165C1.66588 16.0469 1.48989 16.006 1.30162 16.006C0.585388 16.006 0.00012207 16.5871 0.00012207 17.3075C0.00012207 18.0278 0.585388 18.609 1.30162 18.609C2.02195 18.609 2.60722 18.0278 2.60722 17.3075C2.60722 17.0701 2.54582 16.8491 2.43123 16.6608L3.4626 15.5189H4.80913V18.8545C4.80913 19.5667 5.38621 20.1438 6.09426 20.1438H9.75728V21.6335L8.61131 22.6649C8.42304 22.5544 8.20203 22.493 7.96874 22.493C7.24842 22.493 6.66315 23.0783 6.66315 23.7945C6.66315 24.5107 7.24842 25.096 7.96874 25.096C8.68907 25.096 9.27024 24.5107 9.27024 23.7945C9.27024 23.6103 9.22932 23.4343 9.15974 23.2747L10.4408 22.1206C10.5267 22.0428 10.5758 21.9323 10.5758 21.8177V20.1438H12.79V22.5585C12.2744 22.7304 11.8978 23.2215 11.8978 23.7945C11.8978 24.5107 12.4831 25.096 13.1993 25.096C13.9196 25.096 14.5049 24.5107 14.5049 23.7945C14.5049 23.2215 14.1284 22.7304 13.6086 22.5585V20.1438H15.8269V21.8177C15.8269 21.9323 15.876 22.0428 15.9619 22.1206L17.243 23.2706C17.1693 23.4303 17.1284 23.6103 17.1284 23.7945C17.1284 24.5107 17.7136 25.096 18.434 25.096C19.1502 25.096 19.7355 24.5107 19.7355 23.7945C19.7355 23.0783 19.1502 22.493 18.434 22.493C18.2007 22.493 17.9797 22.5544 17.7914 22.6649L16.6454 21.6335V20.1438H20.3044C21.0165 20.1438 21.5936 19.5667 21.5936 18.8545V15.5189H22.936L23.9674 16.6649C23.8569 16.8532 23.7955 17.0742 23.7955 17.3075C23.7955 18.0278 24.3807 18.609 25.097 18.609C25.8132 18.609 26.3985 18.0278 26.3985 17.3075C26.3985 16.5871 25.8132 16.006 25.097 16.006C24.9128 16.006 24.7368 16.0469 24.5772 16.1165L23.423 14.8354C23.3453 14.7495 23.2348 14.7004 23.1202 14.7004H21.5936V12.4862H23.861V12.4861ZM18.7082 12.4329L17.0588 12.6703C17.0179 12.9568 16.9442 13.231 16.8419 13.493L18.1475 14.5203L17.7914 15.1424L16.2443 14.5243C16.0683 14.7454 15.8637 14.9459 15.6427 15.1219L16.2648 16.669L15.6427 17.0291L14.6154 15.7194C14.3535 15.8218 14.0792 15.8954 13.7968 15.9404C13.7968 15.9404 13.7968 15.9404 13.7928 15.9404L13.5595 17.5898H12.8432L12.6059 15.9404C12.3194 15.8954 12.0451 15.8218 11.7832 15.7194L10.7559 17.0291L10.1379 16.669L10.7559 15.1219C10.5349 14.9459 10.3344 14.7454 10.1543 14.5243L8.61131 15.1424L8.25115 14.5203L9.56083 13.493C9.45851 13.231 9.38484 12.9568 9.33982 12.6703L7.69453 12.4329V11.7167L9.33982 11.4793C9.38484 11.1969 9.45851 10.9186 9.56083 10.6608L8.25115 9.62939L8.61131 9.00729L10.1543 9.62939C10.3344 9.40838 10.535 9.20374 10.7559 9.02366L10.1379 7.48069L10.7559 7.12052L11.7832 8.43021C12.0451 8.32789 12.3194 8.25422 12.6059 8.2092L12.8432 6.55981H13.5595L13.7928 8.2092C14.0792 8.25422 14.3535 8.32789 14.6154 8.43021L15.6427 7.12052L16.2648 7.48069L15.6427 9.02366C15.8678 9.20374 16.0683 9.40838 16.2443 9.62939L17.7914 9.00729L18.1475 9.62939L16.8419 10.6567C16.9442 10.9186 17.0179 11.1928 17.0588 11.4793C17.0588 11.4834 18.7082 11.7167 18.7082 11.7167V12.4329Z" fill="url(#paint2_linear)"/>
<defs>
<linearGradient id="paint0_linear" x1="5.01804" y1="0.651302" x2="7.12926" y2="7.46146" gradientUnits="userSpaceOnUse">
<stop stop-color="#06B5E9"/>
<stop offset="1" stop-color="#2682F4"/>
</linearGradient>
<linearGradient id="paint1_linear" x1="11.1536" y1="10.6577" x2="14.9353" y2="13.5693" gradientUnits="userSpaceOnUse">
<stop stop-color="#06B5E9"/>
<stop offset="1" stop-color="#2682F4"/>
</linearGradient>
<linearGradient id="paint2_linear" x1="0.328771" y1="8.12215" x2="19.1883" y2="27.0574" gradientUnits="userSpaceOnUse">
<stop stop-color="#06B5E9"/>
<stop offset="1" stop-color="#2682F4"/>
</linearGradient>
</defs>
</svg>
