<svg width="52" height="52" viewBox="0 0 52 52" fill="none" xmlns="http://www.w3.org/2000/svg">
<circle r="13.9535" transform="matrix(0.999481 0.0322198 0.0322198 -0.999481 26.4967 25.5389)" fill="#0254D7"/>
<circle cx="25.2286" cy="25.4962" r="13.9535" transform="rotate(-178.154 25.2286 25.4962)" fill="#0254D7"/>
<path d="M0.797487 24.7385C0.357049 38.4012 11.0759 49.8341 24.7386 50.2745C38.4013 50.715 49.8342 39.9961 50.2747 26.3334C50.7151 12.6707 39.9963 1.23781 26.3336 0.797368C12.6709 0.35693 1.23793 11.0758 0.797487 24.7385ZM22.8528 18.5115C23.2778 18.8613 23.3405 19.4927 22.9876 19.9186L19.3577 24.3182L32.0659 24.7279C32.6176 24.7456 33.051 25.2069 33.0332 25.7596C33.0154 26.3124 32.5532 26.7447 32.0014 26.7269L19.3633 26.3195L23.1621 31.2958C23.3071 31.4866 23.3738 31.7119 23.3667 31.9338C23.3574 32.2236 23.2231 32.5075 22.9739 32.6975C22.5348 33.0326 21.9072 32.9473 21.5722 32.5083L16.4954 25.8589C16.2132 25.4906 16.2237 24.9756 16.5185 24.6159L21.4447 18.6462C21.7966 18.2203 22.4269 18.1605 22.8528 18.5115Z" fill="#E8F0FF"/>
</svg>
