<svg width="32" height="30" viewBox="0 0 32 30" fill="none" xmlns="http://www.w3.org/2000/svg">
<path d="M3.8623 18.7324H7.53021V15.3394H3.8623V18.7324ZM4.79496 16.6361C4.99599 16.5643 5.22464 16.6262 5.37174 16.7731L5.388 16.7893L6.00426 16.198C6.20581 16.0046 6.5382 15.9643 6.76375 16.1327C7.02311 16.3265 7.04195 16.6815 6.81588 16.8985L5.75187 17.9197C5.54748 18.116 5.20993 18.1138 5.00812 17.9151L4.57147 17.485C4.30953 17.2267 4.3885 16.7811 4.79496 16.6361Z" fill="url(#paint0_linear)"/>
<path d="M3.8623 26.4951H7.53021V23.1016H3.8623V26.4951ZM4.71186 24.4342C4.93122 24.3206 5.20838 24.3748 5.38129 24.5449L5.388 24.5515L6.00375 23.9605C6.2053 23.7669 6.53769 23.7266 6.76324 23.8953C7.02259 24.0891 7.04143 24.4444 6.81562 24.6612L5.75161 25.6823C5.54722 25.8786 5.20967 25.8764 5.00812 25.6777L4.57147 25.2475C4.32863 25.0078 4.37896 24.6068 4.71186 24.4342Z" fill="url(#paint1_linear)"/>
<path d="M28.8668 24.3567L29.0157 24.5034L29.0074 8.45068L27.2152 8.45141L27.209 24.4732C27.6418 24.0798 28.3695 23.8666 28.8668 24.3567Z" fill="url(#paint2_linear)"/>
<path d="M29.558 7.41773H29.5583C29.5583 7.41773 29.5583 7.41773 29.5586 7.41773H29.6022L31.9996 7.41676V6.84704C31.9991 5.46855 30.8053 4.62158 29.6035 4.62158C28.2868 4.62207 27.2156 5.6172 27.2151 6.84003L27.2148 7.41846L29.558 7.41773Z" fill="url(#paint3_linear)"/>
<path d="M30.1104 8.4497L30.1186 24.3296C30.7586 23.8625 31.5715 24.1646 31.9927 24.6211L31.9991 8.44922L30.1104 8.4497Z" fill="url(#paint4_linear)"/>
<path d="M30.9308 25.1334C30.8766 25.1056 30.8085 25.1187 30.7713 25.1641L30.241 25.8117C29.9158 26.2087 29.2666 26.2505 28.8893 25.8781L28.0986 25.0996L27.3623 25.8027L29.6199 29.0215L31.8183 25.8371L30.9308 25.1334Z" fill="url(#paint5_linear)"/>
<path d="M0.862193 2.06348C0.394581 2.06348 0 2.42503 0 2.85279V29.1794C0 29.6074 0.394581 29.9688 0.862193 29.9688H21.6524C22.1197 29.9688 22.5148 29.6074 22.5148 29.1797V2.85279C22.5148 2.42503 22.12 2.06348 21.6524 2.06348H17.6895V2.42237C17.6895 3.36201 16.8655 4.12643 15.8526 4.12643H6.66219C5.64929 4.12643 4.82529 3.36201 4.82529 2.42237V2.06348H0.862193ZM8.63303 27.0116C8.63303 27.297 8.38606 27.5283 8.08129 27.5283H3.31019C3.00542 27.5283 2.75845 27.297 2.75845 27.0116V22.5848C2.75845 22.2994 3.00542 22.0681 3.31019 22.0681H8.08155C8.38632 22.0681 8.63329 22.2994 8.63329 22.5848V27.0116H8.63303ZM8.63303 19.2501C8.63303 19.5355 8.38606 19.7668 8.08129 19.7668H3.31019C3.00542 19.7668 2.75845 19.5355 2.75845 19.2501V14.8233C2.75845 14.5379 3.00542 14.3066 3.31019 14.3066H8.08155C8.38632 14.3066 8.63329 14.5379 8.63329 14.8233V19.2501H8.63303ZM11.1801 7.11381H19.2044C19.5092 7.11381 19.7561 7.34509 19.7561 7.63051C19.7561 7.91594 19.5092 8.14722 19.2044 8.14722H11.1801C10.8754 8.14722 10.6284 7.91594 10.6284 7.63051C10.6284 7.34509 10.8754 7.11381 11.1801 7.11381ZM11.1801 10.4608H19.2044C19.5092 10.4608 19.7561 10.6921 19.7561 10.9775C19.7561 11.2629 19.5092 11.4942 19.2044 11.4942H11.1801C10.8754 11.4942 10.6284 11.2629 10.6284 10.9775C10.6284 10.6921 10.8754 10.4608 11.1801 10.4608ZM11.1801 14.9287H19.2044C19.5092 14.9287 19.7561 15.16 19.7561 15.4454C19.7561 15.7308 19.5092 15.9621 19.2044 15.9621H11.1801C10.8754 15.9621 10.6284 15.7308 10.6284 15.4454C10.6284 15.16 10.8754 14.9287 11.1801 14.9287ZM11.1801 18.2759H19.2044C19.5092 18.2759 19.7561 18.5072 19.7561 18.7926C19.7561 19.078 19.5092 19.3093 19.2044 19.3093H11.1801C10.8754 19.3093 10.6284 19.078 10.6284 18.7926C10.6284 18.5072 10.8754 18.2759 11.1801 18.2759ZM11.1801 22.6902H19.2044C19.5092 22.6902 19.7561 22.9214 19.7561 23.2069C19.7561 23.4923 19.5092 23.7236 19.2044 23.7236H11.1801C10.8754 23.7236 10.6284 23.4923 10.6284 23.2069C10.6284 22.9214 10.8754 22.6902 11.1801 22.6902ZM11.1801 26.0374H19.2044C19.5092 26.0374 19.7561 26.2687 19.7561 26.5541C19.7561 26.8395 19.5092 27.0708 19.2044 27.0708H11.1801C10.8754 27.0708 10.6284 26.8395 10.6284 26.5541C10.6284 26.2687 10.8754 26.0374 11.1801 26.0374ZM8.08155 6.57366C8.38632 6.57366 8.63329 6.80494 8.63329 7.09036V11.5174C8.63329 11.8028 8.38632 12.0341 8.08155 12.0341H3.31019C3.00542 12.0341 2.75845 11.8028 2.75845 11.5174V7.09036C2.75845 6.80494 3.00542 6.57366 3.31019 6.57366H8.08155Z" fill="#2781F4"/>
<path d="M7.53021 7.60693H3.8623V11H7.53021V7.60693Z" fill="url(#paint6_linear)"/>
<path d="M15.8526 0H6.66239C6.258 0 5.92871 0.300625 5.92871 0.670607V2.42168C5.92871 2.79142 6.258 3.09229 6.66239 3.09229H15.8526C16.257 3.09229 16.5862 2.79166 16.5862 2.42168V0.670607C16.5862 0.300625 16.257 0 15.8526 0Z" fill="url(#paint7_linear)"/>
<defs>
<linearGradient id="paint0_linear" x1="7.53021" y1="15.3394" x2="2.42119" y2="15.8386" gradientUnits="userSpaceOnUse">
<stop stop-color="#2C78F6"/>
<stop offset="1" stop-color="#00BFE7"/>
</linearGradient>
<linearGradient id="paint1_linear" x1="7.53021" y1="23.1016" x2="2.42117" y2="23.6007" gradientUnits="userSpaceOnUse">
<stop stop-color="#2C78F6"/>
<stop offset="1" stop-color="#00BFE7"/>
</linearGradient>
<linearGradient id="paint2_linear" x1="29.0157" y1="8.45069" x2="26.4754" y2="8.47653" gradientUnits="userSpaceOnUse">
<stop stop-color="#2C78F6"/>
<stop offset="1" stop-color="#00BFE7"/>
</linearGradient>
<linearGradient id="paint3_linear" x1="31.9996" y1="4.62158" x2="25.4284" y2="5.63773" gradientUnits="userSpaceOnUse">
<stop stop-color="#2C78F6"/>
<stop offset="1" stop-color="#00BFE7"/>
</linearGradient>
<linearGradient id="paint4_linear" x1="31.9991" y1="8.44922" x2="29.3434" y2="8.47726" gradientUnits="userSpaceOnUse">
<stop stop-color="#2C78F6"/>
<stop offset="1" stop-color="#00BFE7"/>
</linearGradient>
<linearGradient id="paint5_linear" x1="31.8183" y1="25.0996" x2="25.6177" y2="25.7364" gradientUnits="userSpaceOnUse">
<stop stop-color="#2C78F6"/>
<stop offset="1" stop-color="#00BFE7"/>
</linearGradient>
<linearGradient id="paint6_linear" x1="7.53021" y1="7.60693" x2="2.42119" y2="8.10616" gradientUnits="userSpaceOnUse">
<stop stop-color="#2C78F6"/>
<stop offset="1" stop-color="#00BFE7"/>
</linearGradient>
<linearGradient id="paint7_linear" x1="16.5862" y1="1.06826e-06" x2="2.92547" y2="4.25581" gradientUnits="userSpaceOnUse">
<stop stop-color="#2C78F6"/>
<stop offset="1" stop-color="#00BFE7"/>
</linearGradient>
</defs>
</svg>
