<svg width="22" height="22" viewBox="0 0 22 22" fill="none" xmlns="http://www.w3.org/2000/svg">
<path d="M2.64819 13.7523H5.16322V11.2612H2.64819V13.7523ZM3.2877 12.2132C3.42555 12.1606 3.58233 12.206 3.68319 12.3138L3.69434 12.3257L4.1169 11.8916C4.2551 11.7497 4.48302 11.72 4.63767 11.8437C4.81551 11.986 4.82843 12.2466 4.67342 12.4059L3.94384 13.1557C3.8037 13.2997 3.57224 13.2981 3.43386 13.1523L3.13446 12.8365C2.95485 12.6469 3.009 12.3197 3.2877 12.2132Z" fill="url(#paint0_linear)"/>
<path d="M2.64819 19.4501H5.16322V16.959H2.64819V19.4501ZM3.23072 17.9373C3.38113 17.8539 3.57118 17.8936 3.68974 18.0185L3.69434 18.0233L4.11655 17.5895C4.25475 17.4474 4.48266 17.4178 4.63732 17.5416C4.81516 17.6839 4.82808 17.9447 4.67324 18.1039L3.94366 18.8534C3.80352 18.9975 3.57206 18.9959 3.43386 18.8501L3.13446 18.5343C2.96795 18.3583 3.00245 18.0639 3.23072 17.9373Z" fill="url(#paint1_linear)"/>
<path d="M19.794 17.8786L19.8961 17.9863L19.8904 6.20215L18.6615 6.20268L18.6572 17.9642C18.954 17.6753 19.453 17.5188 19.794 17.8786Z" fill="url(#paint2_linear)"/>
<path d="M20.2679 5.44493H20.268C20.268 5.44493 20.268 5.44493 20.2682 5.44493H20.2981L21.942 5.44422V5.02605C21.9417 4.01425 21.1231 3.39258 20.299 3.39258C19.3962 3.39293 18.6617 4.12336 18.6613 5.02091L18.6611 5.44546L20.2679 5.44493Z" fill="url(#paint3_linear)"/>
<path d="M20.647 6.2025L20.6526 17.8598C21.0915 17.5169 21.6489 17.7387 21.9377 18.0738L21.9421 6.20215L20.647 6.2025Z" fill="url(#paint4_linear)"/>
<path d="M21.2089 18.4521C21.1717 18.4317 21.125 18.4413 21.0995 18.4746L20.7359 18.9501C20.5129 19.2416 20.0677 19.2723 19.809 18.9989L19.2668 18.4272L18.762 18.9435L20.3099 21.3069L21.8174 18.9687L21.2089 18.4521Z" fill="url(#paint5_linear)"/>
<path d="M0.591199 1.51318C0.270561 1.51318 0 1.7786 0 2.09263V21.4191C0 21.7333 0.270561 21.9986 0.591199 21.9986H14.8469C15.1673 21.9986 15.4383 21.7333 15.4383 21.4193V2.09263C15.4383 1.7786 15.1675 1.51318 14.8469 1.51318H12.1296V1.77665C12.1296 2.46644 11.5646 3.02761 10.87 3.02761H4.56821C3.87367 3.02761 3.30866 2.46644 3.30866 1.77665V1.51318H0.591199ZM5.9196 19.8277C5.9196 20.0372 5.75026 20.207 5.54128 20.207H2.26977C2.06079 20.207 1.89145 20.0372 1.89145 19.8277V16.578C1.89145 16.3684 2.06079 16.1987 2.26977 16.1987H5.54146C5.75044 16.1987 5.91978 16.3684 5.91978 16.578V19.8277H5.9196ZM5.9196 14.13C5.9196 14.3395 5.75026 14.5093 5.54128 14.5093H2.26977C2.06079 14.5093 1.89145 14.3395 1.89145 14.13V10.8802C1.89145 10.6707 2.06079 10.5009 2.26977 10.5009H5.54146C5.75044 10.5009 5.91978 10.6707 5.91978 10.8802V14.13H5.9196ZM7.66613 5.22066H13.1683C13.3773 5.22066 13.5466 5.39044 13.5466 5.59997C13.5466 5.8095 13.3773 5.97929 13.1683 5.97929H7.66613C7.45715 5.97929 7.2878 5.8095 7.2878 5.59997C7.2878 5.39044 7.45715 5.22066 7.66613 5.22066ZM7.66613 7.6777H13.1683C13.3773 7.6777 13.5466 7.84748 13.5466 8.05701C13.5466 8.26654 13.3773 8.43633 13.1683 8.43633H7.66613C7.45715 8.43633 7.2878 8.26654 7.2878 8.05701C7.2878 7.84748 7.45715 7.6777 7.66613 7.6777ZM7.66613 10.9576H13.1683C13.3773 10.9576 13.5466 11.1274 13.5466 11.3369C13.5466 11.5464 13.3773 11.7162 13.1683 11.7162H7.66613C7.45715 11.7162 7.2878 11.5464 7.2878 11.3369C7.2878 11.1274 7.45715 10.9576 7.66613 10.9576ZM7.66613 13.4148H13.1683C13.3773 13.4148 13.5466 13.5846 13.5466 13.7941C13.5466 14.0037 13.3773 14.1734 13.1683 14.1734H7.66613C7.45715 14.1734 7.2878 14.0037 7.2878 13.7941C7.2878 13.5846 7.45715 13.4148 7.66613 13.4148ZM7.66613 16.6553H13.1683C13.3773 16.6553 13.5466 16.8251 13.5466 17.0346C13.5466 17.2442 13.3773 17.414 13.1683 17.414H7.66613C7.45715 17.414 7.2878 17.2442 7.2878 17.0346C7.2878 16.8251 7.45715 16.6553 7.66613 16.6553ZM7.66613 19.1125H13.1683C13.3773 19.1125 13.5466 19.2823 13.5466 19.4919C13.5466 19.7014 13.3773 19.8712 13.1683 19.8712H7.66613C7.45715 19.8712 7.2878 19.7014 7.2878 19.4919C7.2878 19.2823 7.45715 19.1125 7.66613 19.1125ZM5.54146 4.82413C5.75044 4.82413 5.91978 4.99392 5.91978 5.20345V8.45336C5.91978 8.66289 5.75044 8.83268 5.54146 8.83268H2.26977C2.06079 8.83268 1.89145 8.66289 1.89145 8.45336V5.20345C1.89145 4.99392 2.06079 4.82413 2.26977 4.82413H5.54146Z" fill="url(#paint6_linear)"/>
<path d="M5.16322 5.58203H2.64819V8.07331H5.16322V5.58203Z" fill="url(#paint7_linear)"/>
<path d="M10.8699 0H4.56826C4.29098 0 4.06519 0.220706 4.06519 0.492331V1.77789C4.06519 2.04934 4.29098 2.27022 4.56826 2.27022H10.8699C11.1472 2.27022 11.373 2.04952 11.373 1.77789V0.492331C11.373 0.220706 11.1472 0 10.8699 0Z" fill="url(#paint8_linear)"/>
<defs>
<linearGradient id="paint0_linear" x1="5.16322" y1="11.2612" x2="1.6558" y2="11.5813" gradientUnits="userSpaceOnUse">
<stop stop-color="#2C78F6"/>
<stop offset="1" stop-color="#00BFE7"/>
</linearGradient>
<linearGradient id="paint1_linear" x1="5.16322" y1="16.959" x2="1.6558" y2="17.2791" gradientUnits="userSpaceOnUse">
<stop stop-color="#2C78F6"/>
<stop offset="1" stop-color="#00BFE7"/>
</linearGradient>
<linearGradient id="paint2_linear" x1="19.8961" y1="6.20215" x2="18.1542" y2="6.21871" gradientUnits="userSpaceOnUse">
<stop stop-color="#2C78F6"/>
<stop offset="1" stop-color="#00BFE7"/>
</linearGradient>
<linearGradient id="paint3_linear" x1="21.942" y1="3.39258" x2="17.4228" y2="4.04544" gradientUnits="userSpaceOnUse">
<stop stop-color="#2C78F6"/>
<stop offset="1" stop-color="#00BFE7"/>
</linearGradient>
<linearGradient id="paint4_linear" x1="21.9421" y1="6.20215" x2="20.1211" y2="6.22011" gradientUnits="userSpaceOnUse">
<stop stop-color="#2C78F6"/>
<stop offset="1" stop-color="#00BFE7"/>
</linearGradient>
<linearGradient id="paint5_linear" x1="21.8174" y1="18.4272" x2="17.56" y2="18.8356" gradientUnits="userSpaceOnUse">
<stop stop-color="#2C78F6"/>
<stop offset="1" stop-color="#00BFE7"/>
</linearGradient>
<linearGradient id="paint6_linear" x1="15.4383" y1="1.51319" x2="-6.17072" y2="2.98522" gradientUnits="userSpaceOnUse">
<stop stop-color="#2C78F6"/>
<stop offset="1" stop-color="#00BFE7"/>
</linearGradient>
<linearGradient id="paint7_linear" x1="5.16322" y1="5.58203" x2="1.6558" y2="5.9021" gradientUnits="userSpaceOnUse">
<stop stop-color="#2C78F6"/>
<stop offset="1" stop-color="#00BFE7"/>
</linearGradient>
<linearGradient id="paint8_linear" x1="11.373" y1="7.84268e-07" x2="1.89888" y2="2.75668" gradientUnits="userSpaceOnUse">
<stop stop-color="#2C78F6"/>
<stop offset="1" stop-color="#00BFE7"/>
</linearGradient>
</defs>
</svg>
