<svg width="11" height="15" viewBox="0 0 11 15" fill="none" xmlns="http://www.w3.org/2000/svg">
<g clip-path="url(#clip0)">
<path d="M1.46739 12.7174H10.7609V0H0.652174C0.293478 0 0 0.293478 0 0.652174V13.5326C0 13.5652 0 13.5978 0 13.6141C0 13.6304 0 13.663 0 13.6793C0 13.712 0 13.7446 0.0163043 13.7935C0.0326087 13.8424 0.0326087 13.8587 0.0326087 13.9076C0.0326087 13.9565 0.048913 13.9728 0.0652174 14.0217C0.0652174 14.038 0.0652174 14.038 0.0815217 14.0543C0.0978261 14.087 0.0978261 14.1196 0.11413 14.1522C0.130435 14.1848 0.146739 14.2174 0.163043 14.25C0.423913 14.7065 0.929348 15 1.46739 15H10.7609V14.3478H1.41848C1.20652 14.3478 1.01087 14.2663 0.86413 14.1033C0.684783 13.9239 0.603261 13.663 0.63587 13.4022C0.733696 13.0109 1.05978 12.7337 1.46739 12.7174ZM3.16304 1.79348H8.73913V4.07609H3.16304V1.79348Z" fill="#2C78F6"/>
</g>
<defs>
<clipPath id="clip0">
<rect width="10.7609" height="15" fill="white"/>
</clipPath>
</defs>
</svg>
