<svg width="20" height="30" viewBox="0 0 20 30" fill="none" xmlns="http://www.w3.org/2000/svg">
<path d="M7.4619 15.5356C6.48198 15.5355 5.51163 15.7162 4.60627 16.0673C3.70092 16.4185 2.87829 16.9332 2.18537 17.5821C1.49245 18.231 0.942809 19.0014 0.56784 19.8492C0.192871 20.6971 -8.17865e-05 21.6058 2.60056e-08 22.5235V28.2303C6.4152 30.5482 13.5217 30.5482 19.937 28.2303V22.5235C19.9371 20.6706 19.1514 18.8935 17.7526 17.583C16.3538 16.2726 14.4565 15.5362 12.478 15.5356H7.4619ZM9.24083 16.7183H10.7005L11.1667 17.986C11.185 18.0379 11.1886 18.0935 11.1772 18.1471C11.1657 18.2007 11.1395 18.2506 11.1012 18.292C10.9619 18.4466 10.7882 18.5708 10.5923 18.6561C10.3964 18.7413 10.183 18.7855 9.96702 18.7855C9.75101 18.7855 9.5376 18.7413 9.3417 18.6561C9.1458 18.5708 8.97213 18.4466 8.83282 18.292C8.79453 18.2506 8.76836 18.2007 8.75688 18.1471C8.74541 18.0935 8.74902 18.0379 8.76737 17.986L9.24083 16.7183ZM9.1441 19.15C9.40388 19.2571 9.68462 19.3124 9.96847 19.3124C10.2523 19.3124 10.5331 19.2571 10.7928 19.15L11.9521 26.9626L9.96956 29.1841L7.98772 26.9626L9.1441 19.15Z" fill="url(#paint0_linear)"/>
<path d="M12.5171 5.15815e-08H7.42196C6.932 -7.87921e-05 6.44683 0.0902292 5.99414 0.26577C5.54145 0.44131 5.13012 0.698583 4.78364 1.02301C4.43716 1.34744 4.16231 1.73264 3.97479 2.15656C3.78728 2.58047 3.69076 3.0348 3.69076 3.49365V5.23596H2.30126C2.20324 5.23591 2.10617 5.2539 2.01559 5.28899C1.92502 5.32408 1.84272 5.37557 1.77338 5.44046C1.70405 5.50535 1.64905 5.58238 1.61153 5.66718C1.574 5.75198 1.55469 5.84288 1.55469 5.93468V7.50384C1.55469 7.59564 1.574 7.68654 1.61153 7.77134C1.64905 7.85614 1.70405 7.93318 1.77338 7.99807C1.84272 8.06295 1.92502 8.11444 2.01559 8.14953C2.10617 8.18462 2.20324 8.20269 2.30126 8.20264H17.6378C17.8354 8.20227 18.0248 8.12844 18.1644 7.99744C18.304 7.86644 18.3824 7.68892 18.3824 7.50384V5.93468C18.3824 5.7496 18.304 5.57208 18.1644 5.44109C18.0248 5.31009 17.8354 5.23633 17.6378 5.23596H16.2483V3.49365C16.2483 3.0348 16.1518 2.58047 15.9643 2.15656C15.7767 1.73264 15.5019 1.34744 15.1554 1.02301C14.8089 0.698583 14.3976 0.44131 13.9449 0.26577C13.4922 0.0902292 13.0071 -7.87921e-05 12.5171 5.15815e-08Z" fill="url(#paint1_linear)"/>
<path d="M4.21289 8.97998C4.22102 10.4048 4.83108 11.7687 5.90972 12.7735C6.98836 13.7783 8.44787 14.3423 9.96924 14.3423C11.4906 14.3423 12.9501 13.7783 14.0288 12.7735C15.1074 11.7687 15.7175 10.4048 15.7256 8.97998H4.21289Z" fill="url(#paint2_linear)"/>
<defs>
<linearGradient id="paint0_linear" x1="19.937" y1="15.5356" x2="-7.66799" y2="18.9824" gradientUnits="userSpaceOnUse">
<stop stop-color="#2C78F6"/>
<stop offset="1" stop-color="#00BFE7"/>
</linearGradient>
<linearGradient id="paint1_linear" x1="18.3824" y1="2.83367e-06" x2="-4.49405" y2="4.24221" gradientUnits="userSpaceOnUse">
<stop stop-color="#2C78F6"/>
<stop offset="1" stop-color="#00BFE7"/>
</linearGradient>
<linearGradient id="paint2_linear" x1="15.7256" y1="8.97998" x2="0.124046" y2="12.0077" gradientUnits="userSpaceOnUse">
<stop stop-color="#2C78F6"/>
<stop offset="1" stop-color="#00BFE7"/>
</linearGradient>
</defs>
</svg>
