<svg width="30" height="29" viewBox="0 0 30 29" fill="none" xmlns="http://www.w3.org/2000/svg">
<path d="M8.84766 7.91016H6.21094V0H2.69531V7.91016H0L4.45312 14.0625L8.84766 7.91016Z" fill="url(#paint0_linear)"/>
<path d="M27.3047 6.15234H30L25.5469 0L21.1523 6.15234H23.7891V14.0625H27.3047V6.15234Z" fill="url(#paint1_linear)"/>
<path d="M10.6055 11.4258C10.6055 13.8488 12.577 15.8203 15 15.8203C17.423 15.8203 19.3945 13.8488 19.3945 11.4258V8.78906H10.6055V11.4258Z" fill="url(#paint2_linear)"/>
<path d="M15 3.51562H10.6055V7.03125H19.3056C18.8972 5.02787 17.122 3.51562 15 3.51562Z" fill="url(#paint3_linear)"/>
<path d="M4.45312 23.7305V28.125H8.84766V19.3359H11.9733C11.6705 18.8168 11.4844 18.2213 11.4844 17.5781H10.6055C7.21342 17.5781 4.45312 20.3384 4.45312 23.7305Z" fill="url(#paint4_linear)"/>
<path d="M25.5469 23.7305C25.5469 20.3384 22.7866 17.5781 19.3945 17.5781H18.5156C18.5156 18.2213 18.3295 18.8168 18.0267 19.3359H21.1524V28.125H25.5469V23.7305Z" fill="url(#paint5_linear)"/>
<path d="M10.6055 28.125H19.3945V21.0938H10.6055V28.125ZM14.1211 22.8516H15.8789V24.6094H14.1211V22.8516Z" fill="url(#paint6_linear)"/>
<path d="M16.7578 17.5779V17.291C16.1971 17.4598 15.6149 17.5779 15 17.5779C14.3851 17.5779 13.8029 17.4598 13.2422 17.291V17.5779C13.2422 18.5486 14.0292 19.3357 15 19.3357C15.9708 19.3357 16.7578 18.5486 16.7578 17.5779Z" fill="url(#paint7_linear)"/>
<defs>
<linearGradient id="paint0_linear" x1="0.11015" y1="2.28521" x2="10.3859" y2="7.26879" gradientUnits="userSpaceOnUse">
<stop stop-color="#06B5E9"/>
<stop offset="1" stop-color="#2682F4"/>
</linearGradient>
<linearGradient id="paint1_linear" x1="21.2625" y1="2.28521" x2="31.5383" y2="7.26879" gradientUnits="userSpaceOnUse">
<stop stop-color="#06B5E9"/>
<stop offset="1" stop-color="#2682F4"/>
</linearGradient>
<linearGradient id="paint2_linear" x1="10.7149" y1="9.93167" x2="17.2533" y2="16.2317" gradientUnits="userSpaceOnUse">
<stop stop-color="#06B5E9"/>
<stop offset="1" stop-color="#2682F4"/>
</linearGradient>
<linearGradient id="paint3_linear" x1="10.7138" y1="4.08693" x2="13.4043" y2="9.21936" gradientUnits="userSpaceOnUse">
<stop stop-color="#06B5E9"/>
<stop offset="1" stop-color="#2682F4"/>
</linearGradient>
<linearGradient id="paint4_linear" x1="4.54675" y1="19.292" x2="12.8322" y2="23.8459" gradientUnits="userSpaceOnUse">
<stop stop-color="#06B5E9"/>
<stop offset="1" stop-color="#2682F4"/>
</linearGradient>
<linearGradient id="paint5_linear" x1="18.1204" y1="19.292" x2="26.4058" y2="23.8459" gradientUnits="userSpaceOnUse">
<stop stop-color="#06B5E9"/>
<stop offset="1" stop-color="#2682F4"/>
</linearGradient>
<linearGradient id="paint6_linear" x1="10.7149" y1="22.2364" x2="17.2533" y2="28.5363" gradientUnits="userSpaceOnUse">
<stop stop-color="#06B5E9"/>
<stop offset="1" stop-color="#2682F4"/>
</linearGradient>
<linearGradient id="paint7_linear" x1="13.286" y1="17.6233" x2="15.1156" y2="20.0482" gradientUnits="userSpaceOnUse">
<stop stop-color="#06B5E9"/>
<stop offset="1" stop-color="#2682F4"/>
</linearGradient>
</defs>
</svg>
