<svg width="23" height="23" viewBox="0 0 23 23" fill="none" xmlns="http://www.w3.org/2000/svg">
<path d="M6.19331 21.7484C6.19331 22.2513 5.78149 22.6631 5.27885 22.6631H1.62073C1.11782 22.6631 0.705994 22.2513 0.705994 21.7484V18.0902C0.705994 17.5873 1.11782 17.1758 1.62073 17.1758H5.27885C5.78149 17.1758 6.19331 17.5873 6.19331 18.0902V21.7484Z" fill="url(#paint0_linear)"/>
<path d="M13.5098 21.7484C13.5098 22.2513 13.098 22.6631 12.5954 22.6631H8.93726C8.43434 22.6631 8.02252 22.2513 8.02252 21.7484V18.0902C8.02252 17.5873 8.43434 17.1758 8.93726 17.1758H12.5954C13.098 17.1758 13.5098 17.5873 13.5098 18.0902V21.7484Z" fill="url(#paint1_linear)"/>
<path d="M20.8256 21.7484C20.8256 22.2513 20.4137 22.6631 19.9111 22.6631H16.253C15.7501 22.6631 15.3383 22.2513 15.3383 21.7484V18.0902C15.3383 17.5873 15.7501 17.1758 16.253 17.1758H19.9111C20.4137 17.1758 20.8256 17.5873 20.8256 18.0902V21.7484Z" fill="url(#paint2_linear)"/>
<path d="M6.19331 14.432C6.19331 14.9349 5.78149 15.3464 5.27885 15.3464H1.62073C1.11782 15.3464 0.705994 14.9349 0.705994 14.432V10.7738C0.705994 10.2709 1.11782 9.85938 1.62073 9.85938H5.27885C5.78149 9.85938 6.19331 10.2709 6.19331 10.7738V14.432Z" fill="url(#paint3_linear)"/>
<path d="M13.5098 14.432C13.5098 14.9349 13.098 15.3464 12.5954 15.3464H8.93726C8.43434 15.3464 8.02252 14.9349 8.02252 14.432V10.7738C8.02252 10.2709 8.43434 9.85938 8.93726 9.85938H12.5954C13.098 9.85938 13.5098 10.2709 13.5098 10.7738V14.432Z" fill="url(#paint4_linear)"/>
<path d="M18.3572 15.8384C17.8919 16.0302 17.3544 15.8079 17.1623 15.3434L15.762 11.9641C15.5702 11.4999 15.7924 10.9621 16.2569 10.7692L19.6371 9.36859C20.1014 9.17571 20.6388 9.39904 20.8312 9.86354L22.2315 13.244C22.4233 13.7082 22.2011 14.2457 21.7366 14.438L18.3572 15.8384Z" fill="url(#paint5_linear)"/>
<path d="M6.19331 7.11561C6.19331 7.61852 5.78149 8.03007 5.27885 8.03007H1.62073C1.11782 8.03007 0.705994 7.61852 0.705994 7.11561V3.45749C0.705994 2.95458 1.11782 2.54303 1.62073 2.54303H5.27885C5.78149 2.54303 6.19331 2.95458 6.19331 3.45749V7.11561Z" fill="url(#paint6_linear)"/>
<path d="M12.6005 8.02691C12.4085 8.49114 11.8699 8.71447 11.4057 8.52187L8.02602 7.1215C7.56152 6.92945 7.33818 6.39087 7.53106 5.92664L8.9306 2.54728C9.12348 2.08305 9.66124 1.85945 10.1255 2.05233L13.5059 3.45269C13.9701 3.64474 14.1927 4.18332 14.0006 4.64755L12.6005 8.02691Z" fill="url(#paint7_linear)"/>
<path d="M22.3886 3.5674C22.7442 3.92298 22.7442 4.50518 22.3886 4.86076L19.8022 7.44803C19.4469 7.80361 18.8644 7.80361 18.5091 7.44803L15.9224 4.86076C15.5671 4.50518 15.5671 3.92298 15.9224 3.5674L18.5091 0.979857C18.8644 0.624553 19.4469 0.624553 19.8022 0.979857L22.3886 3.5674Z" fill="url(#paint8_linear)"/>
<defs>
<linearGradient id="paint0_linear" x1="0.774309" y1="18.0675" x2="5.71227" y2="21.8738" gradientUnits="userSpaceOnUse">
<stop stop-color="#06B5E9"/>
<stop offset="1" stop-color="#2682F4"/>
</linearGradient>
<linearGradient id="paint1_linear" x1="8.09084" y1="18.0675" x2="13.0288" y2="21.8738" gradientUnits="userSpaceOnUse">
<stop stop-color="#06B5E9"/>
<stop offset="1" stop-color="#2682F4"/>
</linearGradient>
<linearGradient id="paint2_linear" x1="15.4066" y1="18.0675" x2="20.3445" y2="21.8738" gradientUnits="userSpaceOnUse">
<stop stop-color="#06B5E9"/>
<stop offset="1" stop-color="#2682F4"/>
</linearGradient>
<linearGradient id="paint3_linear" x1="0.774309" y1="10.751" x2="5.71209" y2="14.5574" gradientUnits="userSpaceOnUse">
<stop stop-color="#06B5E9"/>
<stop offset="1" stop-color="#2682F4"/>
</linearGradient>
<linearGradient id="paint4_linear" x1="8.09084" y1="10.751" x2="13.0286" y2="14.5574" gradientUnits="userSpaceOnUse">
<stop stop-color="#06B5E9"/>
<stop offset="1" stop-color="#2682F4"/>
</linearGradient>
<linearGradient id="paint5_linear" x1="15.7753" y1="10.373" x2="21.7217" y2="14.9562" gradientUnits="userSpaceOnUse">
<stop stop-color="#06B5E9"/>
<stop offset="1" stop-color="#2682F4"/>
</linearGradient>
<linearGradient id="paint6_linear" x1="0.774309" y1="3.4347" x2="5.71209" y2="7.24109" gradientUnits="userSpaceOnUse">
<stop stop-color="#06B5E9"/>
<stop offset="1" stop-color="#2682F4"/>
</linearGradient>
<linearGradient id="paint7_linear" x1="7.54394" y1="3.05682" x2="13.4905" y2="7.64051" gradientUnits="userSpaceOnUse">
<stop stop-color="#06B5E9"/>
<stop offset="1" stop-color="#2682F4"/>
</linearGradient>
<linearGradient id="paint8_linear" x1="15.743" y1="1.85112" x2="22.043" y2="6.70602" gradientUnits="userSpaceOnUse">
<stop stop-color="#06B5E9"/>
<stop offset="1" stop-color="#2682F4"/>
</linearGradient>
</defs>
</svg>
