<svg width="15" height="14" viewBox="0 0 15 14" fill="none" xmlns="http://www.w3.org/2000/svg">
<path d="M13.3819 2.2071C13.3731 2.19132 13.3609 2.17554 13.3468 2.16327C13.2592 2.07562 13.1172 2.07562 13.0295 2.16327L10.009 5.18381L8.81866 3.99347L11.8409 0.971185C11.855 0.95716 11.8655 0.943136 11.876 0.927358C11.9391 0.820421 11.9041 0.683682 11.7971 0.620571C10.0756 -0.396208 7.82116 -0.16305 6.33982 1.31654C5.16526 2.49109 4.77608 4.15651 5.17403 5.65363L0.0375391 10.7901C-0.0150529 10.8427 -0.0115468 10.9286 0.0427983 10.983L3.01775 13.9579C3.0721 14.0123 3.15975 14.0158 3.21059 13.9632L8.34533 8.82844C9.8442 9.22814 11.5096 8.84071 12.6859 7.6644C14.1655 6.18306 14.3987 3.92861 13.3819 2.2071ZM11.7936 6.77033C10.7751 7.78887 9.2464 7.98521 8.03153 7.35936L7.87726 7.51364L7.87551 7.51188L3.0721 12.317L1.68367 10.9286L5.71748 6.8948C5.71748 6.8948 5.71748 6.89655 5.71923 6.89655L6.64485 5.97094C6.01901 4.75606 6.21535 3.22738 7.23388 2.20885C7.8983 1.54269 8.82041 1.20084 9.7583 1.27096L7.42847 3.59903C7.20934 3.81817 7.20934 4.17404 7.42847 4.39317L9.61104 6.57574C9.83018 6.79488 10.186 6.79488 10.4052 6.57574L12.7333 4.24767C12.7981 5.15576 12.4808 6.08488 11.7936 6.77033Z" fill="#2C78F6"/>
</svg>
