<svg width="28" height="28" viewBox="0 0 28 28" fill="none" xmlns="http://www.w3.org/2000/svg">
<path d="M26.2705 11.2624L25.3772 11.1981C25.2105 11.1873 25.0508 11.1268 24.9187 11.0245C24.7866 10.9222 24.6881 10.7828 24.6358 10.6241C24.4453 10.0263 24.2043 9.44582 23.9155 8.88887C23.8396 8.73958 23.8103 8.57099 23.8312 8.40486C23.8521 8.23872 23.9223 8.08265 24.0327 7.95678L24.6199 7.27832C24.8103 7.05855 24.9103 6.7748 24.8999 6.4842C24.8895 6.19361 24.7694 5.91775 24.5637 5.71217L22.3003 3.44873C22.0947 3.24311 21.8189 3.12296 21.5283 3.11249C21.2377 3.10201 20.954 3.20197 20.7341 3.39225L20.0553 3.97978C19.9295 4.09021 19.7734 4.1604 19.6073 4.18129C19.4411 4.20219 19.2725 4.17283 19.1232 4.097C18.5664 3.80812 17.986 3.56712 17.3884 3.37662C17.2297 3.32436 17.0902 3.22585 16.988 3.09375C16.8857 2.96166 16.8252 2.802 16.8143 2.63529L16.75 1.74192C16.7286 1.45227 16.5984 1.18145 16.3856 0.983796C16.1728 0.786142 15.8931 0.676285 15.6027 0.67627H12.4015C12.1111 0.676291 11.8314 0.786161 11.6187 0.983822C11.4059 1.18148 11.2758 1.4523 11.2545 1.74192L11.1898 2.63529C11.179 2.802 11.1185 2.96166 11.0162 3.09375C10.9139 3.22585 10.7745 3.32436 10.6158 3.37662C10.0181 3.56712 9.43775 3.80812 8.88093 4.097C8.73163 4.17283 8.56305 4.20219 8.39691 4.18129C8.23077 4.1604 8.07471 4.09021 7.94884 3.97978L7.27002 3.39225C7.05017 3.20197 6.76641 3.10201 6.47584 3.11249C6.18527 3.12296 5.90944 3.24311 5.70387 3.44873L3.44043 5.71217C3.23478 5.91775 3.11465 6.19361 3.10424 6.4842C3.09382 6.7748 3.1939 7.05855 3.38431 7.27832L3.97148 7.95714C4.08191 8.08301 4.1521 8.23907 4.17299 8.40521C4.19389 8.57135 4.16453 8.73993 4.0887 8.88923C3.79982 9.44605 3.55882 10.0264 3.36832 10.6241C3.31606 10.7828 3.21755 10.9222 3.08545 11.0245C2.95336 11.1268 2.7937 11.1873 2.62699 11.1981L1.73362 11.2624C1.44397 11.2839 1.17315 11.414 0.975495 11.6268C0.777841 11.8397 0.667984 12.1193 0.667969 12.4098V15.611C0.66799 15.9014 0.77786 16.181 0.975521 16.3938C1.17318 16.6065 1.444 16.7366 1.73362 16.758L2.62699 16.8226C2.7937 16.8335 2.95336 16.894 3.08545 16.9963C3.21755 17.0985 3.31606 17.238 3.36832 17.3967C3.55882 17.9943 3.79982 18.5747 4.0887 19.1315C4.16453 19.2808 4.19389 19.4494 4.17299 19.6156C4.1521 19.7817 4.08191 19.9378 3.97148 20.0636L3.38431 20.7424C3.1939 20.9622 3.09382 21.246 3.10424 21.5366C3.11465 21.8272 3.23478 22.103 3.44043 22.3086L5.70387 24.572C5.90945 24.7777 6.18531 24.8978 6.4759 24.9082C6.7665 24.9186 7.05025 24.8186 7.27002 24.6282L7.94884 24.041C8.07471 23.9306 8.23077 23.8604 8.39691 23.8395C8.56305 23.8186 8.73163 23.8479 8.88093 23.9238C9.43775 24.2126 10.0181 24.4536 10.6158 24.6441C10.7745 24.6964 10.9139 24.7949 11.0162 24.927C11.1185 25.0591 11.179 25.2188 11.1898 25.3855L11.2545 26.2788C11.2754 26.5688 11.4053 26.84 11.6181 27.0381C11.8309 27.2361 12.1108 27.3462 12.4015 27.3463H15.6027C15.8934 27.3462 16.1733 27.2361 16.3862 27.0381C16.599 26.8401 16.729 26.5688 16.75 26.2788L16.8143 25.3855C16.8252 25.2188 16.8857 25.0591 16.988 24.927C17.0902 24.7949 17.2297 24.6964 17.3884 24.6441C17.986 24.4536 18.5664 24.2126 19.1232 23.9238C19.2725 23.8479 19.4411 23.8186 19.6073 23.8395C19.7734 23.8604 19.9295 23.9306 20.0553 24.041L20.7341 24.6282C20.9539 24.8186 21.2377 24.9186 21.5283 24.9082C21.8189 24.8978 22.0947 24.7777 22.3003 24.572L24.5637 22.3086C24.7694 22.103 24.8895 21.8272 24.8999 21.5366C24.9103 21.246 24.8103 20.9622 24.6199 20.7424L24.0327 20.0636C23.9223 19.9378 23.8521 19.7817 23.8312 19.6156C23.8103 19.4494 23.8396 19.2808 23.9155 19.1315C24.2043 18.5747 24.4453 17.9943 24.6358 17.3967C24.6881 17.238 24.7866 17.0985 24.9187 16.9963C25.0508 16.894 25.2105 16.8335 25.3772 16.8226L26.2705 16.758C26.5605 16.7371 26.8317 16.6071 27.0298 16.3943C27.2278 16.1816 27.3379 15.9017 27.338 15.611V12.4098C27.3379 12.1191 27.2278 11.8391 27.0298 11.6263C26.8318 11.4134 26.5605 11.2834 26.2705 11.2624ZM14.5576 19.7166V21.9804H13.1723V19.6857C12.1912 19.4954 11.261 19.1011 10.4421 18.5284C10.301 18.4174 10.2085 18.256 10.184 18.0781C10.1596 17.9003 10.2051 17.7199 10.3109 17.5749C10.4168 17.43 10.5748 17.3317 10.7517 17.3009C10.9285 17.2701 11.1104 17.3092 11.2591 17.4098C11.2712 17.4183 12.5823 18.3589 13.8639 18.3589C16.474 18.3589 16.474 17.289 16.474 16.8862C16.474 15.5094 14.3427 15.0391 14.32 15.0327C14.2973 15.0263 14.2845 15.0245 14.2649 15.0192L13.4398 14.7798C13.0561 14.7006 10.1309 14.0175 10.1309 11.6539C10.1309 9.87424 11.5969 8.81215 13.1709 8.57237V6.25992H14.5562V8.57557C15.3663 8.69602 16.1501 8.95293 16.8744 9.33538C17.0273 9.42896 17.1381 9.57818 17.1833 9.75169C17.2285 9.9252 17.2048 10.1095 17.117 10.2658C17.0292 10.4222 16.8842 10.5384 16.7125 10.5901C16.5408 10.6418 16.3558 10.625 16.1962 10.5431C15.471 10.1617 14.6704 9.94531 13.8518 9.90941C12.9489 9.90941 11.5163 10.3836 11.5163 11.6567C11.5163 12.9621 13.7112 13.4221 13.7335 13.4264C13.7559 13.4307 13.7765 13.4356 13.7968 13.4417L14.6269 13.6825C14.9821 13.761 17.8594 14.4725 17.8594 16.8873C17.8608 17.8783 17.4093 19.4924 14.5576 19.7169V19.7166Z" fill="url(#paint0_linear)"/>
<defs>
<linearGradient id="paint0_linear" x1="1" y1="5.01025" x2="25" y2="23.5103" gradientUnits="userSpaceOnUse">
<stop stop-color="#06B5E9"/>
<stop offset="1" stop-color="#2682F4"/>
</linearGradient>
</defs>
</svg>
