<svg width="16" height="16" viewBox="0 0 16 16" fill="none" xmlns="http://www.w3.org/2000/svg">
<g clip-path="url(#clip0)">
<path d="M10.6248 5.60316C10.6248 2.83006 8.37675 0.582031 5.60365 0.582031C2.83055 0.582031 0.58252 2.83006 0.58252 5.60316C0.58252 6.65266 0.904701 7.62679 1.45527 8.4325L0.795766 10.411L2.77435 9.75154C3.58002 10.3021 4.55416 10.6243 5.60365 10.6243C8.37675 10.6243 10.6248 8.37626 10.6248 5.60316Z" fill="#2C78F6"/>
<path d="M15.088 10.066C15.088 7.81738 13.6097 5.91442 11.5721 5.2749C11.578 5.38374 11.5812 5.49303 11.5812 5.60276C11.5812 6.40929 11.423 7.19221 11.111 7.92976C10.8099 8.64167 10.379 9.28084 9.83036 9.8295C9.2817 10.3782 8.64254 10.809 7.93062 11.1101C7.19307 11.4221 6.41016 11.5803 5.60362 11.5803C5.49385 11.5803 5.38457 11.5767 5.27563 11.5708C5.91499 13.6086 7.81805 15.0871 10.0668 15.0871C11.1163 15.0871 12.0905 14.7649 12.8962 14.2144L14.8748 14.8739L14.2152 12.8953C14.7658 12.0896 15.088 11.1155 15.088 10.066Z" fill="#2C78F6"/>
</g>
<defs>
<clipPath id="clip0">
<rect width="14.5055" height="14.5055" fill="white" transform="translate(0.58252 0.582031)"/>
</clipPath>
</defs>
</svg>
