<svg width="16" height="15" viewBox="0 0 16 15" fill="none" xmlns="http://www.w3.org/2000/svg">
<path d="M10.8 14.3286C11.993 14.3273 13.1368 13.8829 13.9804 13.0928C14.824 12.3028 15.2986 11.2316 15.3 10.1143V4.2143C15.2986 3.097 14.824 2.02584 13.9804 1.23579C13.1368 0.445744 11.993 0.00131608 10.8 0H4.5C3.30695 0.00131608 2.16318 0.445744 1.31957 1.23579C0.475962 2.02584 0.0014053 3.097 0 4.2143V10.1143C0.0014053 11.2316 0.475962 12.3028 1.31957 13.0928C2.16318 13.8829 3.30695 14.3273 4.5 14.3286H10.8ZM5.229 6.24905L6.37946 7.73888L10.1886 4.43825C10.3639 4.28642 10.5964 4.20602 10.835 4.21475C11.0736 4.22347 11.2987 4.3206 11.4609 4.48477C11.623 4.64894 11.7088 4.8667 11.6995 5.09014C11.6902 5.31358 11.5865 5.52441 11.4112 5.67624L6.85682 9.62209C6.76335 9.70302 6.6526 9.76447 6.5319 9.80237C6.41119 9.84026 6.28327 9.85374 6.1566 9.84192C6.02992 9.8301 5.90735 9.79325 5.79701 9.73379C5.68666 9.67433 5.59104 9.59363 5.51646 9.49701L3.771 7.23671C3.63816 7.05538 3.58626 6.8326 3.62637 6.61593C3.66648 6.39926 3.79541 6.20585 3.98567 6.07697C4.17592 5.94809 4.41243 5.89395 4.64472 5.92609C4.877 5.95824 5.08668 6.07414 5.229 6.24905Z" fill="url(#paint0_linear)"/>
<defs>
<linearGradient id="paint0_linear" x1="15.3" y1="4.94995e-06" x2="-6.01625" y2="2.05744" gradientUnits="userSpaceOnUse">
<stop stop-color="#2C78F6"/>
<stop offset="1" stop-color="#00BFE7"/>
</linearGradient>
</defs>
</svg>
