<svg width="16" height="16" viewBox="0 0 16 16" fill="none" xmlns="http://www.w3.org/2000/svg">
<path d="M9.44092 6.79982C9.44965 6.91844 9.54863 7.00781 9.66562 7.00781H10.5516C10.6474 7.00781 10.725 6.93023 10.725 6.83437C10.725 5.41486 9.60136 4.43125 8.08281 4.43125C7.20042 4.43125 6.49404 4.73002 6.00964 5.28461C5.52687 5.83734 5.275 6.63222 5.275 7.60625V8.42344C5.275 9.39061 5.52696 10.1783 6.01 10.7254C6.49454 11.2742 7.20086 11.5688 8.08281 11.5688C9.5927 11.5688 10.725 10.6183 10.725 9.25937C10.725 9.16352 10.6474 9.08594 10.5516 9.08594H9.66406C9.54562 9.08594 9.45065 9.17636 9.43953 9.29029L9.43948 9.29093C9.4089 9.62651 9.26378 9.90576 9.03311 10.1017C8.80201 10.298 8.47912 10.4156 8.08594 10.4156C7.60288 10.4156 7.23512 10.24 6.98508 9.91325C6.732 9.58256 6.59062 9.08532 6.59062 8.42812V7.60636C6.59139 6.93877 6.73362 6.43387 6.98739 6.0982C7.23804 5.76664 7.60576 5.58906 8.0875 5.58906C8.47983 5.58906 8.80257 5.71382 9.03393 5.92401C9.26517 6.1341 9.41142 6.43523 9.44092 6.79982ZM9.44092 6.79982C9.4409 6.79965 9.44089 6.79948 9.44088 6.79931L9.54062 6.79219L9.44095 6.80023C9.44094 6.80009 9.44093 6.79996 9.44092 6.79982ZM8 0.9C4.07915 0.9 0.9 4.07915 0.9 8C0.9 11.9209 4.07915 15.1 8 15.1C11.9209 15.1 15.1 11.9209 15.1 8C15.1 4.07915 11.9209 0.9 8 0.9ZM8 13.7125C4.84585 13.7125 2.2875 11.1541 2.2875 8C2.2875 4.84585 4.84585 2.2875 8 2.2875C11.1541 2.2875 13.7125 4.84585 13.7125 8C13.7125 11.1541 11.1541 13.7125 8 13.7125Z" fill="#2C78F6" stroke="#2C78F6" stroke-width="0.2"/>
</svg>
