<svg width="19" height="17" viewBox="0 0 19 17" fill="none" xmlns="http://www.w3.org/2000/svg">
<path d="M9.58801 10.1162C10.9526 10.1162 12.0588 9.08021 12.0588 7.80225C12.0588 6.52428 10.9526 5.48828 9.58801 5.48828C8.22341 5.48828 7.11719 6.52428 7.11719 7.80225C7.11719 9.08021 8.22341 10.1162 9.58801 10.1162Z" fill="url(#paint0_linear)"/>
<path d="M13.1396 13.6874C13.0259 13.6874 12.9168 13.6315 12.8668 13.5293L11.485 10.7056C11.3884 10.5082 11.1472 10.4359 10.9462 10.525C10.732 10.62 10.6152 10.8727 10.7182 11.0831L11.6498 12.9868C11.952 13.6041 11.6748 14.3724 11.6748 15.0597C11.6748 15.8172 12.3309 16.4316 13.1396 16.4316C13.9484 16.4316 14.6044 15.8172 14.6044 15.0597C14.6044 14.3018 13.9489 13.6874 13.1396 13.6874Z" fill="url(#paint1_linear)"/>
<path d="M17.5348 8.07904C17.4858 8.07904 17.4373 8.08131 17.3895 8.08572C16.5726 8.16125 15.7265 8.66123 14.9232 8.49457L13.175 8.13187C12.9682 8.08897 12.7714 8.24028 12.7229 8.44584C12.6727 8.65877 12.7944 8.88254 13.0086 8.92697L14.7358 9.2852C15.5312 9.45017 16.0987 10.2669 16.8168 10.6466C17.0289 10.7588 17.2739 10.8228 17.5348 10.8228C18.3436 10.8228 18.9996 10.2089 18.9996 9.45113C18.9996 8.69334 18.3436 8.07904 17.5348 8.07904Z" fill="url(#paint2_linear)"/>
<path d="M6.74439 9.19376C6.6422 9.01057 6.41613 8.92199 6.22833 9.01544L4.48493 9.88302C3.87422 10.1869 3.11864 9.98913 2.43648 9.98913C1.6277 9.98913 0.97168 10.6035 0.97168 11.361C0.97168 12.1185 1.6277 12.7329 2.43648 12.7329C3.24575 12.7329 3.90178 12.1185 3.90178 11.361C3.90178 11.2083 3.97008 11.0568 4.10676 10.9888L6.59366 9.75121C6.79568 9.65068 6.85432 9.39082 6.74439 9.19376Z" fill="url(#paint3_linear)"/>
<path d="M11.504 5.39025C11.6798 5.51408 11.9253 5.49294 12.0576 5.3234L13.8319 3.04953C14.0106 2.82061 14.3146 2.74383 14.6049 2.74383C15.4142 2.74383 16.0697 2.12941 16.0697 1.37191C16.0697 0.614421 15.4137 0 14.6049 0C13.7962 0 13.1401 0.613958 13.1401 1.37191C13.1401 1.89104 13.2058 2.47852 12.8865 2.88783L11.3933 4.80188C11.2498 4.98582 11.3132 5.25591 11.504 5.39025Z" fill="url(#paint4_linear)"/>
<path d="M7.38274 5.62007C7.5565 5.46699 7.58782 5.19381 7.42464 5.0295L6.79486 4.39539C6.49714 4.09562 6.48332 3.62378 6.48332 3.20129C6.48332 2.44345 5.82729 1.82959 5.01851 1.82959C4.20973 1.82959 3.55371 2.44391 3.55371 3.20129C3.55371 3.95866 4.20973 4.57298 5.01851 4.57298C5.41261 4.57298 5.83833 4.62123 6.11609 4.90081L6.82822 5.61763C6.97842 5.76883 7.22282 5.76095 7.38274 5.62007Z" fill="url(#paint5_linear)"/>
<defs>
<linearGradient id="paint0_linear" x1="12.0588" y1="5.48828" x2="5.17404" y2="6.1528" gradientUnits="userSpaceOnUse">
<stop stop-color="#2C78F6"/>
<stop offset="1" stop-color="#00BFE7"/>
</linearGradient>
<linearGradient id="paint1_linear" x1="14.6044" y1="10.3389" x2="8.88263" y2="10.6855" gradientUnits="userSpaceOnUse">
<stop stop-color="#2C78F6"/>
<stop offset="1" stop-color="#00BFE7"/>
</linearGradient>
<linearGradient id="paint2_linear" x1="18.9996" y1="8.05127" x2="10.3745" y2="9.85193" gradientUnits="userSpaceOnUse">
<stop stop-color="#2C78F6"/>
<stop offset="1" stop-color="#00BFE7"/>
</linearGradient>
<linearGradient id="paint3_linear" x1="6.98364" y1="8.8418" x2="-1.30863" y2="9.9999" gradientUnits="userSpaceOnUse">
<stop stop-color="#2C78F6"/>
<stop offset="1" stop-color="#00BFE7"/>
</linearGradient>
<linearGradient id="paint4_linear" x1="16.0697" y1="1.94742e-06" x2="9.14777" y2="0.549807" gradientUnits="userSpaceOnUse">
<stop stop-color="#2C78F6"/>
<stop offset="1" stop-color="#00BFE7"/>
</linearGradient>
<linearGradient id="paint5_linear" x1="7.73999" y1="1.82959" x2="1.90375" y2="2.3725" gradientUnits="userSpaceOnUse">
<stop stop-color="#2C78F6"/>
<stop offset="1" stop-color="#00BFE7"/>
</linearGradient>
</defs>
</svg>
