<svg width="37" height="30" viewBox="0 0 37 30" fill="none" xmlns="http://www.w3.org/2000/svg">
<path d="M15.4998 9.54687C15.4998 12.8234 12.9729 15.501 9.88025 15.501C6.78763 15.501 4.26074 12.8234 4.26074 9.54687C4.26074 6.27036 6.78763 3.59277 9.88025 3.59277C12.9729 3.59277 15.4998 6.27036 15.4998 9.54687Z" fill="url(#paint0_linear)"/>
<path d="M26.6259 0C21.2704 0 16.9332 3.06524 16.9332 6.87036C16.9332 7.07115 16.9449 7.26921 16.9679 7.46456C17.1426 8.947 17.3347 10.5367 16.5922 11.8316L16.1035 12.6837C15.915 13.0008 16.2544 13.3884 16.6315 13.2475L18.2432 12.642C19.4138 12.2021 20.7087 12.3747 21.8696 12.8396C23.2829 13.4057 24.9096 13.7407 26.6259 13.7407C31.9814 13.7407 36.3186 10.6755 36.3186 6.87036C36.3186 3.06524 31.9814 0 26.6259 0ZM29.3037 9.54804H22.1002C21.6853 9.54804 21.3459 9.23095 21.3459 8.84339C21.3459 8.45583 21.6853 8.13873 22.1002 8.13873H29.3037C29.7185 8.13873 30.058 8.45583 30.058 8.84339C30.058 9.23095 29.7185 9.54804 29.3037 9.54804ZM31.1894 6.02478H22.1002C21.6853 6.02478 21.3459 5.70768 21.3459 5.32013C21.3459 4.93257 21.6853 4.61547 22.1002 4.61547H31.1894C31.6043 4.61547 31.9437 4.93257 31.9437 5.32013C31.9437 5.70768 31.6043 6.02478 31.1894 6.02478Z" fill="url(#paint1_linear)"/>
<path d="M19.9128 25.2602L19.1208 22.6883C18.5928 21.2438 17.9893 19.7993 17.0842 18.5662C16.2544 17.4388 14.595 15.642 12.9733 16.3818C12.2944 16.6989 11.2761 17.016 10.0315 17.0512C8.82465 17.016 7.80636 16.6989 7.12749 16.3818C4.0726 15.0078 1.508 20.821 0.904567 22.6883L0.112558 25.2602C-0.264589 26.4229 0.338846 27.7265 1.43257 28.114C4.37432 29.2414 7.27835 29.5938 9.91838 29.5938C9.95609 29.5938 9.99381 29.5938 10.0315 29.5938C10.0692 29.5938 10.107 29.5938 10.1447 29.5938C12.7847 29.5938 15.6887 29.2414 18.6305 28.1492C19.7242 27.7265 20.2899 26.4581 19.9128 25.2602Z" fill="url(#paint2_linear)"/>
<defs>
<linearGradient id="paint0_linear" x1="15.4998" y1="3.59278" x2="-0.190332" y2="4.93133" gradientUnits="userSpaceOnUse">
<stop stop-color="#2C78F6"/>
<stop offset="1" stop-color="#00BFE7"/>
</linearGradient>
<linearGradient id="paint1_linear" x1="36.3186" y1="4.74685e-06" x2="8.31452" y2="3.73396" gradientUnits="userSpaceOnUse">
<stop stop-color="#2C78F6"/>
<stop offset="1" stop-color="#00BFE7"/>
</linearGradient>
<linearGradient id="paint2_linear" x1="20.0295" y1="16.1738" x2="-7.63246" y2="19.9057" gradientUnits="userSpaceOnUse">
<stop stop-color="#2C78F6"/>
<stop offset="1" stop-color="#00BFE7"/>
</linearGradient>
</defs>
</svg>
