<svg width="28" height="28" viewBox="0 0 28 28" fill="none" xmlns="http://www.w3.org/2000/svg">
<path d="M26.1924 11.1838L25.299 11.1195C25.1323 11.1086 24.9727 11.0482 24.8406 10.9459C24.7085 10.8436 24.61 10.7042 24.5577 10.5455C24.3672 9.9477 24.1262 9.3672 23.8373 8.81026C23.7615 8.66097 23.7322 8.49238 23.753 8.32624C23.7739 8.16011 23.8441 8.00404 23.9546 7.87817L24.5417 7.19971C24.7321 6.97994 24.8322 6.69619 24.8218 6.40559C24.8114 6.11499 24.6913 5.83913 24.4856 5.63356L22.2222 3.37012C22.0166 3.16449 21.7408 3.04435 21.4502 3.03387C21.1596 3.02339 20.8759 3.12335 20.656 3.31364L19.9772 3.90117C19.8513 4.0116 19.6953 4.08179 19.5291 4.10268C19.363 4.12357 19.1944 4.09421 19.0451 4.01839C18.4883 3.72951 17.9079 3.48851 17.3102 3.29801C17.1516 3.24574 17.0121 3.14724 16.9098 3.01514C16.8075 2.88304 16.7471 2.72339 16.7362 2.55667L16.6719 1.66331C16.6505 1.37366 16.5203 1.10284 16.3075 0.905183C16.0947 0.707529 15.815 0.597672 15.5246 0.597656H12.3233C12.0329 0.597678 11.7533 0.707547 11.5406 0.905209C11.3278 1.10287 11.1977 1.37369 11.1764 1.66331L11.1117 2.55667C11.1008 2.72339 11.0404 2.88304 10.9381 3.01514C10.8358 3.14724 10.6964 3.24574 10.5377 3.29801C9.94001 3.48851 9.35962 3.72951 8.8028 4.01839C8.65351 4.09421 8.48492 4.12357 8.31879 4.10268C8.15265 4.08179 7.99658 4.0116 7.87071 3.90117L7.1919 3.31364C6.97205 3.12335 6.68829 3.02339 6.39771 3.03387C6.10714 3.04435 5.83132 3.16449 5.62575 3.37012L3.36231 5.63356C3.15665 5.83913 3.03653 6.11499 3.02611 6.40559C3.0157 6.69619 3.11577 6.97994 3.30618 7.19971L3.89336 7.87853C4.00379 8.0044 4.07397 8.16046 4.09487 8.3266C4.11576 8.49273 4.0864 8.66132 4.01058 8.81061C3.72169 9.36743 3.4807 9.94782 3.2902 10.5455C3.23793 10.7042 3.13943 10.8436 3.00733 10.9459C2.87523 11.0482 2.71558 11.1086 2.54886 11.1195L1.65549 11.1838C1.36585 11.2052 1.09502 11.3354 0.89737 11.5482C0.699716 11.761 0.589859 12.0407 0.589844 12.3312V15.5324C0.589865 15.8228 0.699735 16.1024 0.897396 16.3152C1.09506 16.5279 1.36588 16.658 1.65549 16.6794L2.54886 16.744C2.71558 16.7549 2.87523 16.8154 3.00733 16.9176C3.13943 17.0199 3.23793 17.1594 3.2902 17.318C3.4807 17.9157 3.72169 18.4961 4.01058 19.0529C4.0864 19.2022 4.11576 19.3708 4.09487 19.5369C4.07397 19.7031 4.00379 19.8591 3.89336 19.985L3.30618 20.6638C3.11577 20.8836 3.0157 21.1673 3.02611 21.4579C3.03653 21.7485 3.15665 22.0244 3.36231 22.23L5.62575 24.4934C5.83132 24.6991 6.10718 24.8192 6.39778 24.8296C6.68837 24.84 6.97213 24.74 7.1919 24.5495L7.87071 23.9624C7.99658 23.8519 8.15265 23.7817 8.31879 23.7609C8.48492 23.74 8.65351 23.7693 8.8028 23.8451C9.35962 24.134 9.94001 24.375 10.5377 24.5655C10.6964 24.6178 10.8358 24.7163 10.9381 24.8484C11.0404 24.9805 11.1008 25.1401 11.1117 25.3069L11.1764 26.2002C11.1973 26.4902 11.3272 26.7614 11.54 26.9595C11.7528 27.1575 12.0327 27.2676 12.3233 27.2677H15.5246C15.8153 27.2676 16.0952 27.1575 16.3081 26.9595C16.5209 26.7615 16.6509 26.4902 16.6719 26.2002L16.7362 25.3069C16.7471 25.1401 16.8075 24.9805 16.9098 24.8484C17.0121 24.7163 17.1516 24.6178 17.3102 24.5655C17.9079 24.375 18.4883 24.134 19.0451 23.8451C19.1944 23.7693 19.363 23.74 19.5291 23.7609C19.6953 23.7817 19.8513 23.8519 19.9772 23.9624L20.656 24.5495C20.8758 24.74 21.1595 24.84 21.4501 24.8296C21.7407 24.8192 22.0166 24.6991 22.2222 24.4934L24.4856 22.23C24.6913 22.0244 24.8114 21.7485 24.8218 21.4579C24.8322 21.1673 24.7321 20.8836 24.5417 20.6638L23.9546 19.985C23.8441 19.8591 23.7739 19.7031 23.753 19.5369C23.7322 19.3708 23.7615 19.2022 23.8373 19.0529C24.1262 18.4961 24.3672 17.9157 24.5577 17.318C24.61 17.1594 24.7085 17.0199 24.8406 16.9176C24.9727 16.8154 25.1323 16.7549 25.299 16.744L26.1924 16.6794C26.4824 16.6584 26.7536 16.5285 26.9516 16.3157C27.1497 16.1029 27.2598 15.8231 27.2598 15.5324V12.3312C27.2598 12.0404 27.1497 11.7605 26.9517 11.5477C26.7536 11.3348 26.4824 11.2048 26.1924 11.1838ZM14.4795 19.638V21.9018H13.0942V19.6071C12.1131 19.4168 11.1829 19.0225 10.364 18.4498C10.2229 18.3388 10.1304 18.1774 10.1059 17.9995C10.0814 17.8217 10.1269 17.6413 10.2328 17.4963C10.3387 17.3513 10.4967 17.2531 10.6736 17.2223C10.8504 17.1915 11.0323 17.2305 11.181 17.3312C11.1931 17.3397 12.5042 18.2803 13.7858 18.2803C16.3959 18.2803 16.3959 17.2104 16.3959 16.8076C16.3959 15.4308 14.2646 14.9605 14.2419 14.9541C14.2191 14.9477 14.2064 14.9459 14.1868 14.9406L13.3616 14.7012C12.978 14.622 10.0528 13.9389 10.0528 11.5753C10.0528 9.79563 11.5188 8.73353 13.0927 8.49376V6.1813H14.4781V8.49696C15.2882 8.61741 16.072 8.87432 16.7962 9.25677C16.9492 9.35034 17.0599 9.49956 17.1052 9.67307C17.1504 9.84658 17.1266 10.0309 17.0389 10.1872C16.9511 10.3436 16.8061 10.4598 16.6344 10.5115C16.4627 10.5632 16.2777 10.5464 16.1181 10.4645C15.3929 10.0831 14.5923 9.8667 13.7737 9.8308C12.8707 9.8308 11.4382 10.305 11.4382 11.5781C11.4382 12.8835 13.633 13.3435 13.6554 13.3478C13.6778 13.3521 13.6984 13.357 13.7186 13.3631L14.5488 13.6039C14.904 13.6824 17.7812 14.3939 17.7812 16.8087C17.7827 17.7997 17.3312 19.4138 14.4795 19.6383V19.638Z" fill="url(#paint0_linear)"/>
<circle cx="14.5744" cy="14.5732" r="9.33032" fill="#F8FAFD"/>
<path d="M14.2836 14.6045V19.4103H16.0007C16.6518 19.4103 17.2518 19.1607 17.6902 18.7071C18.1538 18.2588 18.4035 17.6587 18.4035 17.0076C18.4035 15.6826 17.3257 14.6045 16.0007 14.6045H14.2836Z" fill="#149FEE"/>
<path d="M16.0007 8.98291H14.2836V13.7799H16.0007C17.3557 13.7799 18.4034 12.6753 18.4034 11.3772C18.4034 10.057 17.3257 8.98291 16.0007 8.98291Z" fill="#149FEE"/>
<path d="M13.4616 14.6045H11.1035V19.4103H13.4616V14.6045Z" fill="#149FEE"/>
<path d="M13.4616 8.98291H11.1035V13.7799H13.4616V8.98291Z" fill="#149FEE"/>
<path d="M14.1933 4C8.57263 4 4 8.57464 4 14.1973C4 19.818 8.57263 24.3906 14.1933 24.3906C19.816 24.3906 24.3906 19.818 24.3906 14.1973C24.3906 8.57464 19.816 4 14.1933 4ZM19.2255 17.0062C19.2255 17.8821 18.8868 18.6921 18.2714 19.2869C17.6866 19.8922 16.8766 20.231 16.0008 20.231H14.2836V21.7972C14.2836 22.0244 14.0998 22.2082 13.8726 22.2082C13.6454 22.2082 13.4616 22.0244 13.4616 21.7972V20.231H10.6924C10.4652 20.231 10.2814 20.0472 10.2814 19.82V14.1921V8.57304C10.2814 8.34587 10.4652 8.16202 10.6924 8.16202H13.4616V6.5938C13.4616 6.36663 13.6454 6.18278 13.8726 6.18278C14.0998 6.18278 14.2836 6.36663 14.2836 6.5938V8.16202H16.0008C17.7789 8.16202 19.2255 9.60499 19.2255 11.3784C19.2255 12.645 18.516 13.6634 17.5753 14.1944C18.5587 14.7474 19.2255 15.7996 19.2255 17.0062Z" fill="url(#paint1_linear)"/>
<defs>
<linearGradient id="paint0_linear" x1="0.921875" y1="4.93164" x2="24.9219" y2="23.4316" gradientUnits="userSpaceOnUse">
<stop stop-color="#06B5E9"/>
<stop offset="1" stop-color="#2682F4"/>
</linearGradient>
<linearGradient id="paint1_linear" x1="4" y1="6" x2="24" y2="25.5" gradientUnits="userSpaceOnUse">
<stop stop-color="#06B5E9"/>
<stop offset="1" stop-color="#2682F4"/>
</linearGradient>
</defs>
</svg>
