<svg width="38" height="35" viewBox="0 0 38 35" fill="none" xmlns="http://www.w3.org/2000/svg">
<path d="M24.8125 22.7997C24.8125 24.6512 23.3113 26.1527 21.4596 26.1527C19.6077 26.1527 18.1064 24.6512 18.1064 22.7997C18.1064 20.9481 19.6077 19.4468 21.4596 19.4468C23.3113 19.4468 24.8125 20.9481 24.8125 22.7997Z" fill="url(#paint0_linear)"/>
<path d="M32.1886 4.0235V1.3411C32.1886 0.600306 31.5883 0 30.8475 0H1.3411C0.600306 0 0 0.600306 0 1.3411V28.1651C0 28.9057 0.600306 29.5062 1.3411 29.5062H4.0235V6.7059C4.0235 5.22474 5.22474 4.0235 6.7059 4.0235H32.1886ZM6.7059 1.3411H8.0472V2.6824H6.7059V1.3411ZM2.6824 2.6824H1.3411V1.3411H2.6824V2.6824ZM5.3648 2.6824H4.0235V1.3411H5.3648V2.6824Z" fill="url(#paint1_linear)"/>
<path d="M28.5927 20.9592C28.4211 20.2933 28.1572 19.655 27.8078 19.0627C27.6527 18.7993 27.6952 18.4641 27.9112 18.2481L29.0451 17.1133L27.1486 15.2162L26.014 16.3507C25.7977 16.5671 25.4624 16.6097 25.1988 16.4541C24.6069 16.1048 23.9684 15.8406 23.3029 15.6693C23.0069 15.5932 22.7999 15.3262 22.7999 15.0203V13.415H20.1175V15.0203C20.1175 15.3262 19.9106 15.5932 19.6145 15.6693C18.949 15.8406 18.3105 16.1048 17.7186 16.4541C17.455 16.6097 17.1198 16.5671 16.9034 16.3507L15.7688 15.2162L13.8723 17.1133L15.0064 18.2481C15.222 18.4641 15.2645 18.7987 15.1096 19.0619C14.9819 19.2793 14.8657 19.5032 14.7609 19.7324C14.5793 20.1283 14.4332 20.5401 14.3248 20.9617C14.2484 21.2578 13.9815 21.4648 13.6758 21.4648H12.0703V24.1472H13.6758C13.9815 24.1472 14.2484 24.3541 14.3248 24.6502C14.4963 25.3159 14.7603 25.9541 15.1096 26.5467C15.265 26.8098 15.2222 27.1451 15.0064 27.3613L13.8723 28.4959L15.7688 30.3928L16.9034 29.2584C17.1198 29.0421 17.455 28.9993 17.7186 29.1551C18.3105 29.5044 18.949 29.7686 19.6145 29.9397C19.9106 30.0162 20.1175 30.2833 20.1175 30.5888V32.1916H22.7999V30.5861C22.7999 30.2802 23.0069 30.0135 23.3029 29.9372C23.9684 29.7661 24.6069 29.5017 25.1988 29.1524C25.4624 28.9968 25.7977 29.0393 26.014 29.2557L27.1486 30.3903L29.0451 28.4931L27.9112 27.3588C27.6952 27.1426 27.6527 26.8073 27.8078 26.544C28.1572 25.9514 28.4211 25.3132 28.5927 24.6474C28.669 24.3516 28.9359 24.1446 29.2416 24.1446H30.8471V21.4622H29.2416C28.9359 21.4622 28.669 21.2553 28.5927 20.9592ZM21.4588 27.4976C18.8659 27.4976 16.7646 25.396 16.7646 22.8033C16.7646 20.2105 18.8659 18.1091 21.4588 18.1091C24.0515 18.1091 26.1529 20.2105 26.1529 22.8033C26.1501 25.3945 24.05 27.4944 21.4588 27.4976Z" fill="url(#paint2_linear)"/>
<path d="M37.465 6.59976C37.4598 5.85939 36.8555 5.26307 36.1151 5.2681L6.60889 5.46184C5.86811 5.46687 5.27157 6.07095 5.2764 6.81195L5.45253 33.636C5.45777 34.3761 6.06227 34.9724 6.80264 34.9674L36.309 34.7737C37.05 34.7688 37.6466 34.1639 37.6413 33.4229L37.465 6.59976ZM12.0708 6.70585H13.4121V8.04716H12.0708V6.70585ZM9.38838 6.70585H10.7297V8.04716H9.38838V6.70585ZM6.70598 6.70585H8.04728V8.04716H6.70598V6.70585ZM6.70598 12.7414H12.0708V14.0825H6.70598V12.7414ZM6.70598 16.7649V15.4236H10.7297V16.7649H6.70598ZM31.5181 25.4827H29.7457C29.6038 25.9232 29.4268 26.3516 29.2152 26.7636L30.4687 28.016C30.7302 28.2779 30.7302 28.7023 30.4687 28.9643L27.6232 31.8097C27.3613 32.0713 26.9369 32.0713 26.675 31.8097L25.4226 30.5568C25.0102 30.7676 24.582 30.9445 24.1417 31.0867V32.8593C24.1417 33.2294 23.8414 33.5299 23.4709 33.5299H19.4474C19.0769 33.5299 18.7769 33.2294 18.7769 32.8593V31.0867C18.3366 30.9445 17.9082 30.7676 17.496 30.5568L16.2436 31.8097C15.9815 32.0713 15.5571 32.0713 15.2952 31.8097L12.4497 28.9643C12.1882 28.7023 12.1882 28.2779 12.4497 28.016L13.7031 26.7636C13.4918 26.3516 13.3146 25.9232 13.1726 25.4827H11.4002C11.0299 25.4827 10.7297 25.1822 10.7297 24.8121V20.7884C10.7297 20.4181 11.0299 20.1179 11.4002 20.1179H13.1726C13.2768 19.7943 13.3999 19.4775 13.5415 19.1682C13.5926 19.0569 13.6463 18.947 13.7025 18.8369L12.4497 17.5843C12.1882 17.3222 12.1882 16.8981 12.4497 16.636L15.2952 13.7906C15.5571 13.529 15.9815 13.529 16.2436 13.7906L17.496 15.0433C17.9082 14.8329 18.3366 14.6556 18.7769 14.5136V12.7414C18.7769 12.3709 19.0769 12.0707 19.4474 12.0707H23.4709C23.8414 12.0707 24.1417 12.3709 24.1417 12.7414V14.5136C24.582 14.6556 25.0102 14.8329 25.4226 15.0433L26.675 13.7906C26.9369 13.529 27.3613 13.529 27.6232 13.7906L30.4687 16.636C30.7302 16.8981 30.7302 17.3222 30.4687 17.5843L29.2152 18.8369C29.4268 19.2487 29.6038 19.6771 29.7457 20.1179H31.5181C31.8886 20.1179 32.1887 20.4181 32.1887 20.7884V24.8121C32.1887 25.1822 31.8886 25.4827 31.5181 25.4827ZM36.2124 33.5299H32.1887V32.1886H36.2124V33.5299ZM36.2124 10.7296H6.70598V9.38826H36.2124V10.7296Z" fill="url(#paint3_linear)"/>
<defs>
<linearGradient id="paint0_linear" x1="24.8125" y1="19.4468" x2="15.4589" y2="20.2923" gradientUnits="userSpaceOnUse">
<stop stop-color="#2C78F6"/>
<stop offset="1" stop-color="#00BFE7"/>
</linearGradient>
<linearGradient id="paint1_linear" x1="32.1886" y1="1.01932e-05" x2="-12.6391" y2="4.42044" gradientUnits="userSpaceOnUse">
<stop stop-color="#2C78F6"/>
<stop offset="1" stop-color="#00BFE7"/>
</linearGradient>
<linearGradient id="paint2_linear" x1="30.8471" y1="13.415" x2="4.6572" y2="15.7824" gradientUnits="userSpaceOnUse">
<stop stop-color="#2C78F6"/>
<stop offset="1" stop-color="#00BFE7"/>
</linearGradient>
<linearGradient id="paint3_linear" x1="37.6414" y1="5.26808" x2="-7.43288" y2="9.70811" gradientUnits="userSpaceOnUse">
<stop stop-color="#2C78F6"/>
<stop offset="1" stop-color="#00BFE7"/>
</linearGradient>
</defs>
</svg>
