<svg width="27" height="17" viewBox="0 0 27 17" fill="none" xmlns="http://www.w3.org/2000/svg">
<path d="M23.9627 8.33813H21.0419C20.9067 8.33813 20.7771 8.38845 20.6815 8.478C20.5859 8.56756 20.5322 8.68902 20.5322 8.81567C20.5322 8.94233 20.5859 9.06379 20.6815 9.15334C20.7771 9.2429 20.9067 9.29321 21.0419 9.29321H23.9627C24.0978 9.29321 24.2275 9.2429 24.323 9.15334C24.4186 9.06379 24.4723 8.94233 24.4723 8.81567C24.4723 8.68902 24.4186 8.56756 24.323 8.478C24.2275 8.38845 24.0978 8.33813 23.9627 8.33813Z" fill="url(#paint0_linear)"/>
<path d="M25.0081 7.4541C24.7208 7.4541 24.44 7.53391 24.2012 7.68342C23.9623 7.83294 23.7762 8.04546 23.6662 8.29409C23.5563 8.54273 23.5275 8.81633 23.5836 9.08028C23.6396 9.34424 23.7779 9.58669 23.9811 9.77699C24.1842 9.96729 24.443 10.0969 24.7247 10.1494C25.0065 10.2019 25.2985 10.1749 25.5639 10.072C25.8293 9.96897 26.0561 9.79456 26.2157 9.57079C26.3753 9.34702 26.4605 9.08394 26.4605 8.81482C26.4601 8.45406 26.3069 8.10819 26.0346 7.8531C25.7623 7.598 25.3932 7.45451 25.0081 7.4541Z" fill="url(#paint1_linear)"/>
<path d="M19.6892 12.533C19.5885 12.533 19.4899 12.561 19.4061 12.6135C19.3224 12.6659 19.257 12.7405 19.2185 12.8277C19.1799 12.915 19.1698 13.011 19.1895 13.1036C19.2091 13.1962 19.2577 13.2813 19.3289 13.348L21.3943 15.283C21.4899 15.3726 21.6195 15.4229 21.7546 15.4229C21.8898 15.4229 22.0194 15.3726 22.115 15.283C22.2105 15.1935 22.2642 15.072 22.2642 14.9454C22.2642 14.8188 22.2105 14.6974 22.115 14.6078L20.0496 12.6728C20.0023 12.6284 19.9461 12.5932 19.8843 12.5692C19.8225 12.5452 19.7562 12.5329 19.6892 12.533Z" fill="url(#paint2_linear)"/>
<path d="M22.4941 14.2791C22.2553 14.2791 22.0202 14.3342 21.8096 14.4397C21.5989 14.5452 21.4193 14.6977 21.2867 14.8838C21.154 15.0698 21.0724 15.2836 21.049 15.5063C21.0256 15.7289 21.0612 15.9536 21.1526 16.1603C21.244 16.367 21.3884 16.5493 21.573 16.6913C21.7576 16.8332 21.9768 16.9303 22.211 16.9739C22.4452 17.0175 22.6873 17.0063 22.9159 16.9414C23.1444 16.8764 23.3523 16.7596 23.5211 16.6014V16.6013C23.7244 16.4111 23.8628 16.1687 23.9189 15.9047C23.975 15.6408 23.9462 15.3672 23.8363 15.1185C23.7263 14.8699 23.5401 14.6574 23.3012 14.508C23.0623 14.3585 22.7814 14.2789 22.4941 14.2791Z" fill="url(#paint3_linear)"/>
<path d="M21.9851 1.99121C21.9181 1.99114 21.8519 2.00346 21.79 2.02746C21.7282 2.05147 21.672 2.08669 21.6248 2.1311L19.5594 4.06609C19.4638 4.15562 19.4102 4.27706 19.4102 4.40368C19.4102 4.5303 19.4638 4.65173 19.5594 4.74127C19.655 4.8308 19.7846 4.8811 19.9197 4.8811C20.0549 4.8811 20.1845 4.8308 20.28 4.74127L22.3454 2.80628C22.4167 2.7395 22.4652 2.65443 22.4848 2.56182C22.5045 2.46921 22.4944 2.37321 22.4558 2.28597C22.4173 2.19874 22.352 2.12417 22.2682 2.0717C22.1844 2.01924 22.0859 1.99123 21.9851 1.99121H21.9851Z" fill="url(#paint4_linear)"/>
<path d="M22.7243 0.416506C22.3884 0.416711 22.063 0.525999 21.8035 0.725751C21.544 0.925503 21.3665 1.20336 21.3012 1.51198C21.2358 1.8206 21.2868 2.1409 21.4453 2.41829C21.6038 2.69568 21.86 2.91301 22.1704 3.03325C22.4808 3.15349 22.8261 3.16919 23.1474 3.0777C23.4688 2.9862 23.7464 2.79316 23.9328 2.53146C24.1193 2.26977 24.2031 1.9556 24.17 1.64251C24.1369 1.32941 23.989 1.03674 23.7513 0.814371V0.814277C23.6165 0.687888 23.4564 0.587685 23.2802 0.519424C23.1039 0.451162 22.915 0.416188 22.7243 0.416506Z" fill="url(#paint5_linear)"/>
<path d="M5.95589 8.33813H3.03501C2.89985 8.33813 2.77023 8.38845 2.67466 8.478C2.57908 8.56756 2.52539 8.68902 2.52539 8.81567C2.52539 8.94233 2.57908 9.06379 2.67466 9.15334C2.77023 9.2429 2.89985 9.29321 3.03501 9.29321H5.95589C6.09105 9.29321 6.22068 9.2429 6.31625 9.15334C6.41182 9.06379 6.46551 8.94233 6.46551 8.81567C6.46551 8.68902 6.41182 8.56756 6.31625 8.478C6.22068 8.38845 6.09105 8.33813 5.95589 8.33813Z" fill="url(#paint6_linear)"/>
<path d="M1.98953 7.4541C1.70227 7.4541 1.42146 7.53391 1.18261 7.68342C0.94376 7.83294 0.7576 8.04546 0.647669 8.29409C0.537739 8.54273 0.508976 8.81633 0.565018 9.08028C0.62106 9.34424 0.75939 9.58669 0.962515 9.77699C1.16564 9.96729 1.42444 10.0969 1.70618 10.1494C1.98792 10.2019 2.27996 10.1749 2.54535 10.072C2.81075 9.96897 3.03758 9.79456 3.19718 9.57079C3.35677 9.34702 3.44196 9.08394 3.44196 8.81482C3.44152 8.45406 3.28836 8.10819 3.01607 7.8531C2.74378 7.598 2.37461 7.45451 1.98953 7.4541Z" fill="url(#paint7_linear)"/>
<path d="M7.30826 12.533C7.24132 12.5329 7.17503 12.5452 7.11319 12.5692C7.05135 12.5932 6.99519 12.6284 6.94794 12.6729L4.88265 14.6078C4.78709 14.6974 4.7334 14.8188 4.7334 14.9454C4.7334 15.072 4.78709 15.1935 4.88265 15.283C4.97821 15.3726 5.10783 15.4229 5.24297 15.4229C5.37812 15.4229 5.50773 15.3726 5.6033 15.283L7.66858 13.348C7.73984 13.2812 7.78836 13.1962 7.80802 13.1036C7.82768 13.011 7.81759 12.915 7.77902 12.8277C7.74045 12.7405 7.67515 12.6659 7.59135 12.6135C7.50756 12.561 7.40904 12.533 7.30826 12.533V12.533Z" fill="url(#paint8_linear)"/>
<path d="M4.50373 14.2795C4.16785 14.2797 3.84243 14.389 3.58292 14.5888C3.3234 14.7885 3.14584 15.0664 3.08048 15.3751C3.01513 15.6838 3.06603 16.0041 3.22451 16.2816C3.38299 16.559 3.63924 16.7764 3.94961 16.8967C4.25998 17.017 4.60526 17.0327 4.92663 16.9412C5.24799 16.8498 5.52556 16.6567 5.71204 16.395C5.89852 16.1332 5.98237 15.819 5.94931 15.5059C5.91625 15.1927 5.76832 14.9 5.53072 14.6776C5.39596 14.5511 5.23586 14.4508 5.05961 14.3825C4.88337 14.3142 4.69445 14.2792 4.50373 14.2795Z" fill="url(#paint9_linear)"/>
<path d="M5.01248 1.99121C4.9117 1.99123 4.81318 2.01924 4.72939 2.0717C4.64559 2.12417 4.58029 2.19874 4.54172 2.28597C4.50315 2.37321 4.49306 2.46921 4.51272 2.56182C4.53238 2.65443 4.5809 2.7395 4.65216 2.80628L6.71756 4.74127C6.81312 4.8308 6.94274 4.8811 7.07789 4.8811C7.21303 4.8811 7.34265 4.8308 7.43821 4.74127C7.53378 4.65173 7.58746 4.5303 7.58746 4.40368C7.58746 4.27706 7.53378 4.15562 7.43821 4.06609L5.37281 2.1311C5.32555 2.08668 5.26939 2.05146 5.20755 2.02745C5.14572 2.00344 5.07942 1.99113 5.01248 1.99121Z" fill="url(#paint10_linear)"/>
<path d="M4.27304 0.416507C3.93717 0.416732 3.61177 0.526039 3.35229 0.725802C3.0928 0.925566 2.91529 1.20343 2.84998 1.51205C2.78467 1.82067 2.83561 2.14096 2.99413 2.41834C3.15264 2.69572 3.40892 2.91304 3.7193 3.03326C4.02968 3.15349 4.37496 3.16919 4.69631 3.07769C5.01766 2.98618 5.2952 2.79314 5.48165 2.53144C5.6681 2.26975 5.75192 1.95559 5.71882 1.64249C5.68573 1.3294 5.53778 1.03674 5.30017 0.814371C5.16539 0.687924 5.00527 0.587679 4.829 0.519399C4.65272 0.451119 4.46378 0.416152 4.27304 0.416507Z" fill="url(#paint11_linear)"/>
<path d="M13.4993 16.0969C11.9394 16.0969 10.4145 15.6636 9.11754 14.8517C7.82053 14.0398 6.80964 12.8858 6.21268 11.5356C5.61573 10.1854 5.45953 8.69974 5.76384 7.2664C6.06815 5.83307 6.8193 4.51646 7.9223 3.48308C9.0253 2.4497 10.4306 1.74596 11.9605 1.46084C13.4904 1.17572 15.0762 1.32204 16.5174 1.88129C17.9585 2.44054 19.1903 3.3876 20.057 4.60272C20.9236 5.81783 21.3862 7.24643 21.3862 8.70784C21.3838 10.6669 20.5521 12.545 19.0736 13.9302C17.595 15.3155 15.5903 16.0947 13.4993 16.0969ZM17.2532 6.35679L13.9593 4.79911C13.8108 4.66003 13.6095 4.58189 13.3995 4.58189C13.1896 4.58189 12.9883 4.66003 12.8398 4.79911L9.54594 6.35679C9.47243 6.42566 9.41412 6.50742 9.37434 6.59739C9.33455 6.68737 9.31408 6.78381 9.31408 6.88121C9.31408 6.9786 9.33455 7.07504 9.37434 7.16502C9.41412 7.255 9.47243 7.33675 9.54594 7.40562L10.0546 7.70516L12.6618 6.47229C12.8637 6.30043 13.1267 6.20521 13.3995 6.20521C13.6724 6.20521 13.9354 6.30043 14.1373 6.47229L16.7446 7.70511L17.2532 7.40562C17.3267 7.33675 17.385 7.255 17.4248 7.16502C17.4645 7.07504 17.485 6.9786 17.485 6.88121C17.485 6.78381 17.4645 6.68737 17.4248 6.59739C17.385 6.50742 17.3267 6.42566 17.2532 6.35679ZM17.2532 8.26661L13.9593 6.70893C13.8108 6.56985 13.6095 6.49171 13.3995 6.49171C13.1896 6.49171 12.9883 6.56985 12.8398 6.70893L9.54594 8.26661C9.47243 8.33548 9.41412 8.41724 9.37434 8.50722C9.33455 8.59719 9.31408 8.69363 9.31408 8.79103C9.31408 8.88842 9.33455 8.98486 9.37434 9.07484C9.41412 9.16482 9.47243 9.24657 9.54594 9.31544L10.0546 9.61498L12.6618 8.38211C12.8637 8.21025 13.1267 8.11503 13.3995 8.11503C13.6724 8.11503 13.9354 8.21025 14.1373 8.38211L16.7446 9.61494L17.2532 9.31544C17.3267 9.24657 17.385 9.16482 17.4248 9.07484C17.4645 8.98486 17.485 8.88842 17.485 8.79103C17.485 8.69363 17.4645 8.59719 17.4248 8.50722C17.385 8.41724 17.3267 8.33548 17.2532 8.26661ZM17.2532 10.1764L13.9593 8.61875C13.8108 8.47967 13.6095 8.40153 13.3995 8.40153C13.1896 8.40153 12.9883 8.47967 12.8398 8.61875L9.54594 10.1764C9.47243 10.2453 9.41412 10.3271 9.37434 10.417C9.33455 10.507 9.31408 10.6035 9.31408 10.7008C9.31408 10.7982 9.33455 10.8947 9.37434 10.9847C9.41412 11.0746 9.47243 11.1564 9.54594 11.2253L12.8398 12.592C12.9883 12.731 13.1896 12.8092 13.3995 12.8092C13.6095 12.8092 13.8108 12.731 13.9593 12.592L17.2532 11.2253C17.3267 11.1564 17.385 11.0746 17.4248 10.9847C17.4645 10.8947 17.485 10.7982 17.485 10.7008C17.485 10.6035 17.4645 10.507 17.4248 10.417C17.385 10.3271 17.3267 10.2453 17.2532 10.1764Z" fill="url(#paint12_linear)"/>
<defs>
<linearGradient id="paint0_linear" x1="24.4723" y1="9.29321" x2="19.6082" y2="7.47937" gradientUnits="userSpaceOnUse">
<stop stop-color="#2C78F6"/>
<stop offset="1" stop-color="#00BFE7"/>
</linearGradient>
<linearGradient id="paint1_linear" x1="26.4605" y1="10.1755" x2="22.4134" y2="9.78505" gradientUnits="userSpaceOnUse">
<stop stop-color="#2C78F6"/>
<stop offset="1" stop-color="#00BFE7"/>
</linearGradient>
<linearGradient id="paint2_linear" x1="22.2642" y1="15.4229" x2="17.9668" y2="15.0082" gradientUnits="userSpaceOnUse">
<stop stop-color="#2C78F6"/>
<stop offset="1" stop-color="#00BFE7"/>
</linearGradient>
<linearGradient id="paint3_linear" x1="23.9468" y1="17" x2="19.8997" y2="16.6094" gradientUnits="userSpaceOnUse">
<stop stop-color="#2C78F6"/>
<stop offset="1" stop-color="#00BFE7"/>
</linearGradient>
<linearGradient id="paint4_linear" x1="22.4946" y1="4.8811" x2="18.1972" y2="4.4665" gradientUnits="userSpaceOnUse">
<stop stop-color="#2C78F6"/>
<stop offset="1" stop-color="#00BFE7"/>
</linearGradient>
<linearGradient id="paint5_linear" x1="24.1771" y1="3.13647" x2="20.1317" y2="2.74611" gradientUnits="userSpaceOnUse">
<stop stop-color="#2C78F6"/>
<stop offset="1" stop-color="#00BFE7"/>
</linearGradient>
<linearGradient id="paint6_linear" x1="6.46552" y1="9.29321" x2="1.60133" y2="7.47932" gradientUnits="userSpaceOnUse">
<stop stop-color="#2C78F6"/>
<stop offset="1" stop-color="#00BFE7"/>
</linearGradient>
<linearGradient id="paint7_linear" x1="3.44196" y1="10.1755" x2="-0.605159" y2="9.78505" gradientUnits="userSpaceOnUse">
<stop stop-color="#2C78F6"/>
<stop offset="1" stop-color="#00BFE7"/>
</linearGradient>
<linearGradient id="paint8_linear" x1="7.81781" y1="15.4229" x2="3.52051" y2="15.0083" gradientUnits="userSpaceOnUse">
<stop stop-color="#2C78F6"/>
<stop offset="1" stop-color="#00BFE7"/>
</linearGradient>
<linearGradient id="paint9_linear" x1="5.95636" y1="17" x2="1.91094" y2="16.6097" gradientUnits="userSpaceOnUse">
<stop stop-color="#2C78F6"/>
<stop offset="1" stop-color="#00BFE7"/>
</linearGradient>
<linearGradient id="paint10_linear" x1="7.58746" y1="4.8811" x2="3.29" y2="4.46648" gradientUnits="userSpaceOnUse">
<stop stop-color="#2C78F6"/>
<stop offset="1" stop-color="#00BFE7"/>
</linearGradient>
<linearGradient id="paint11_linear" x1="5.72589" y1="3.13647" x2="1.68049" y2="2.74611" gradientUnits="userSpaceOnUse">
<stop stop-color="#2C78F6"/>
<stop offset="1" stop-color="#00BFE7"/>
</linearGradient>
<linearGradient id="paint12_linear" x1="21.3862" y1="16.0969" x2="-0.590436" y2="13.9766" gradientUnits="userSpaceOnUse">
<stop stop-color="#2C78F6"/>
<stop offset="1" stop-color="#00BFE7"/>
</linearGradient>
</defs>
</svg>
