<svg width="18" height="17" viewBox="0 0 18 17" fill="none" xmlns="http://www.w3.org/2000/svg">
<path d="M4.20469 2.11506L3.95438 2.91052L2.78719 3.23186C2.6775 3.26083 2.59313 3.34249 2.55938 3.44521L2.21625 4.5383L1.36406 4.77272L0.0759375 0.908714L4.20469 2.11506ZM3.00094 16.8573L0 14.0469L1.26281 12.8642L2.76187 14.2681C2.82656 14.3287 2.91375 14.3603 2.99813 14.3603C3.0825 14.3603 3.16969 14.3287 3.23438 14.2681C3.36656 14.1443 3.36656 13.9468 3.23438 13.8256L1.73531 12.4217L2.96438 11.2707L4.46344 12.6746C4.52812 12.7352 4.61531 12.7668 4.69969 12.7668C4.78406 12.7668 4.87125 12.7352 4.93594 12.6746C5.06812 12.5508 5.06812 12.3532 4.93594 12.2321L3.43688 10.8282L5.11312 9.25835L8.15625 12.0266L3.00094 16.8573ZM16.5234 16.0144C15.7725 16.7151 14.5884 16.7651 13.7784 16.1593L16.6781 13.4411C17.3222 14.2023 17.2716 15.3112 16.5234 16.0144ZM13.2384 15.7774L5.32406 8.57352L1.78594 5.31268L2.58188 5.09407C2.69156 5.06509 2.77594 4.98344 2.80969 4.88072L3.15281 3.78762L4.32 3.46628C4.42969 3.43731 4.51406 3.35566 4.54781 3.25293L4.78125 2.49962L11.8462 9.01075L16.2366 12.967L13.2384 15.7774ZM12.0853 8.34963L9.06188 5.56291L10.7803 3.95093L12.2794 5.35483C12.3441 5.41541 12.4312 5.44702 12.5156 5.44702C12.6 5.44702 12.6872 5.41541 12.7519 5.35483C12.8841 5.23366 12.8841 5.03348 12.7519 4.91232L11.2528 3.50843L12.6506 2.19935L14.1497 3.60325C14.2144 3.66383 14.3016 3.69544 14.3859 3.69544C14.4703 3.69544 14.5575 3.66383 14.6222 3.60325C14.7544 3.48209 14.7544 3.28191 14.6222 3.16074L13.1231 1.75685L14.9991 0L18 2.81043L12.0853 8.34963Z" fill="url(#paint0_linear)"/>
<defs>
<linearGradient id="paint0_linear" x1="18" y1="5.8235e-06" x2="-7.07795" y2="2.42051" gradientUnits="userSpaceOnUse">
<stop stop-color="#2C78F6"/>
<stop offset="1" stop-color="#00BFE7"/>
</linearGradient>
</defs>
</svg>
