<?xml version="1.0" encoding="utf-8"?>
<!-- Generator: Adobe Illustrator 24.3.0, SVG Export Plug-In . SVG Version: 6.00 Build 0)  -->
<svg version="1.1" id="Layer_1" xmlns="http://www.w3.org/2000/svg" xmlns:xlink="http://www.w3.org/1999/xlink" x="0px" y="0px"
	 viewBox="0 0 1066 826" style="enable-background:new 0 0 1066 826;" xml:space="preserve">
<style type="text/css">
	.st0{opacity:0.6;fill:none;stroke:#0254D7;stroke-width:0.7;stroke-dasharray:2,2;enable-background:new    ;}
	.st1{fill:#3AA0C7;}
	.st2{fill:#2C78F6;}
	.st3{opacity:0.5;fill:none;stroke:#0254D7;stroke-dasharray:2,2;enable-background:new    ;}
	.st4{opacity:0.31;}
	.st5{fill:#242993;}
	.st6{fill:url(#SVGID_1_);}
	.st7{fill:#EFF1FE;}
	.st8{fill:url(#SVGID_2_);}
	.st9{fill:#42FFFF;}
	.st10{opacity:0.67;}
	.st11{opacity:0.67;fill:#242993;enable-background:new    ;}
	.st12{fill:#F2B42A;}
	.st13{fill:#DD821F;}
	.st14{fill:#FFD85A;}
	.st15{fill:#162184;}
	.st16{fill:#485DCE;}
	.st17{fill:#FCE8EE;}
	.st18{fill:#4553C7;}
	.st19{fill:#F0FFFF;}
	.st20{fill:#AA9AAC;}
	.st21{fill:#C4E3FF;}
	.st22{fill:#E2C8CF;}
	.st23{fill:#1B4263;}
	.st24{fill:url(#SVGID_3_);}
	.st25{fill:#938496;}
	.st26{fill:#4380EC;}
	.st27{fill:#333A4D;}
	.st28{fill:#E9E5D9;}
	.st29{fill:#0C163F;}
	.st30{fill:#FFCDDC;}
	.st31{fill:url(#SVGID_4_);}
	.st32{fill:url(#SVGID_5_);}
	.st33{fill:url(#SVGID_6_);}
	.st34{fill:url(#SVGID_7_);}
	.st35{fill:#5778FF;}
	.st36{fill:#BCD5FF;}
	.st37{fill:#E9FFFF;}
	.st38{fill:#2DE8F7;}
	.st39{fill:#4CD1F5;}
	.st40{opacity:0.5;fill:#4553C7;enable-background:new    ;}
	.st41{fill:#31B4F4;}
	.st42{fill:url(#SVGID_8_);}
	.st43{fill:url(#SVGID_9_);}
	.st44{fill:url(#SVGID_10_);}
</style>
<g>
	<path class="st0" d="M266.5,523.5l45.2-24.2c1.5-0.8,3.4-0.8,4.9,0.1l53,31.2c1.5,0.9,3.3,0.9,4.9,0.1L437,498"/>
	<path class="st1" d="M341.9,511.8l-3,4.4l-2.3-4.8L341.9,511.8z"/>
	<path class="st1" d="M402.3,513.1l2.4,4.8l-5.4-0.3L402.3,513.1z"/>
	<path class="st1" d="M285.1,510.2l2.9,4.5l-5.4,0.2L285.1,510.2z"/>
	<path class="st2" d="M208.2,603.3c2.3-1.2,3.3-3.5,2.4-5.6l-1.8,0.9c0.3,1.2-0.2,2.5-1.5,3.1c-1.7,0.9-3.5,0.1-4.7-2.2
		c-1.2-2.2-0.9-4.2,0.8-5.1c1.3-0.7,2.6-0.4,3.5,0.7l1.8-0.9c-1.3-2-3.8-2.5-6.1-1.3c-2.8,1.5-3.5,4.4-1.8,7.7
		C202.6,603.7,205.4,604.8,208.2,603.3z M214.2,599.8l1.7-0.9l-5.5-10.5l-1.7,0.9L214.2,599.8z M218.1,597.8l1.7-0.9l-4-7.6
		l-1.7,0.9L218.1,597.8z M214.3,588.5c0.6-0.3,0.8-1,0.5-1.6c-0.3-0.6-1-0.8-1.6-0.5c-0.6,0.3-0.8,1-0.5,1.6
		C213,588.6,213.7,588.8,214.3,588.5z M221.7,587.7c1-0.5,2.1-0.2,2.7,0.9l-3.6,1.9C220.4,589.4,220.7,588.3,221.7,587.7z
		 M225.8,591.1c0,0.7-0.4,1.3-1.2,1.8c-1.1,0.6-2.3,0.2-3-1l0-0.1l5.3-2.8l-0.3-0.6c-1.3-2.4-3.3-3.1-5.5-2
		c-2.2,1.2-2.7,3.4-1.5,5.8c1.3,2.4,3.4,3.2,5.6,2c1.8-0.9,2.6-2.5,2.2-4L225.8,591.1z M230.3,591.4l1.7-0.9l-2.3-4.4
		c-0.6-1.1-0.3-2.2,0.7-2.7c1-0.6,1.8-0.2,2.4,0.9l2.4,4.5l1.7-0.9l-2.6-4.9c-1-1.8-2.4-2.3-4.1-1.4c-1.1,0.6-1.6,1.5-1.5,2.5
		l-0.1,0.1l-0.6-1.2l-1.7,0.9L230.3,591.4z M234.5,577.1l1,1.9l-1.2,0.6l0.7,1.4l1.2-0.6l2.2,4.1c0.8,1.5,1.8,1.7,3.5,0.8
		c0.3-0.2,0.6-0.4,0.9-0.6l-0.7-1.3c-0.2,0.1-0.3,0.2-0.6,0.3c-0.7,0.4-1.2,0.2-1.6-0.5l-2-3.7l1.6-0.9l-0.7-1.4l-1.6,0.9l-1-1.9
		L234.5,577.1z M241.4,578.6c0.6,1.1,1.6,1.4,3.3,1l1.5-0.4c0.8-0.2,1.3-0.1,1.5,0.3c0.3,0.6-0.1,1.3-1,1.7c-0.9,0.5-1.6,0.4-2-0.1
		L243,582c0.9,1.3,2.5,1.5,4.4,0.5c1.9-1,2.7-2.7,1.9-4.1c-0.6-1.1-1.6-1.4-3.2-0.9l-1.5,0.4c-0.9,0.2-1.3,0.2-1.6-0.3
		c-0.3-0.5,0.1-1.2,0.9-1.6c0.8-0.4,1.5-0.4,1.9,0.1l1.6-0.8c-0.8-1.3-2.4-1.5-4.2-0.6C241.4,575.6,240.7,577.2,241.4,578.6z"/>
	<path class="st3" d="M155.4,575.6l1.7,1l-0.2,0.4l-1.7-1L155.4,575.6z M159.4,577.9c-0.1,0-0.2,0-0.4,0l0.1-0.5c0.1,0,0.2,0,0.3,0
		L159.4,577.9z M160.6,577.9l-0.1-0.5c0.2,0,0.5-0.1,0.7-0.1l0.1,0.5C161.1,577.9,160.9,577.9,160.6,577.9z M165.2,575.8l-1.7,1
		l-0.2-0.4l1.7-1L165.2,575.8z M168.7,573.8l-1.7,1l-0.2-0.4l1.7-1L168.7,573.8z M172.2,571.7l-1.7,1l-0.2-0.4l1.7-1L172.2,571.7z
		 M175.7,569.7l-1.7,1l-0.2-0.4l1.7-1L175.7,569.7z M179.2,567.7l-1.7,1l-0.2-0.4l1.7-1L179.2,567.7z M182.8,565.7l-1.7,1l-0.2-0.4
		l1.7-1L182.8,565.7z M186.3,563.6l-1.7,1l-0.2-0.4l1.7-1L186.3,563.6z M189.8,561.6l-1.7,1l-0.2-0.4l1.7-1L189.8,561.6z
		 M193.3,559.6l-1.7,1l-0.2-0.4l1.7-1L193.3,559.6z M196.8,557.6l-1.7,1l-0.2-0.4l1.7-1L196.8,557.6z M200.3,555.5l-1.7,1l-0.2-0.4
		l1.7-1L200.3,555.5z M203.8,553.5l-1.7,1l-0.2-0.4l1.7-1L203.8,553.5z M207.3,551.5l-1.7,1l-0.2-0.4l1.7-1L207.3,551.5z
		 M210.9,549.4l-1.7,1l-0.2-0.4l1.7-1L210.9,549.4z M214.4,547.4l-1.7,1l-0.2-0.4l1.7-1L214.4,547.4z M217.9,545.4l-1.7,1l-0.2-0.4
		l1.7-1L217.9,545.4z M219.9,543.8c-0.1,0.3-0.3,0.5-0.6,0.8l-0.3-0.4c0.2-0.2,0.4-0.4,0.5-0.6L219.9,543.8z M219.9,542.7
		C219.9,542.7,219.9,542.7,219.9,542.7l-0.5,0.2c-0.1-0.1-0.2-0.3-0.3-0.4l0.3-0.4C219.7,542.3,219.8,542.5,219.9,542.7z
		 M216.5,540.4l1.7,1l-0.2,0.4l-1.7-1L216.5,540.4z M213,538.3l1.7,1l-0.2,0.4l-1.7-1L213,538.3z M209.5,536.3l1.7,1l-0.2,0.4
		l-1.7-1L209.5,536.3z M206,534.3l1.7,1l-0.2,0.4l-1.7-1L206,534.3z M202.6,532.3l1.7,1l-0.2,0.4l-1.7-1L202.6,532.3z M199.1,530.2
		l1.7,1l-0.2,0.4l-1.7-1L199.1,530.2z M195.6,528.2l1.7,1l-0.2,0.4l-1.7-1L195.6,528.2z M192.1,526.2l1.7,1l-0.2,0.4l-1.7-1
		L192.1,526.2z M188.6,524.2l1.7,1l-0.2,0.4l-1.7-1L188.6,524.2z M185.1,522.2l1.7,1l-0.2,0.4l-1.7-1L185.1,522.2z M181.7,520.1
		l1.7,1l-0.2,0.4l-1.7-1L181.7,520.1z M178.2,518.1l1.7,1l-0.2,0.4l-1.7-1L178.2,518.1z M174.7,516.1l1.7,1l-0.2,0.4l-1.7-1
		L174.7,516.1z M171.2,514.1l1.7,1l-0.2,0.4l-1.7-1L171.2,514.1z M167.7,512l1.7,1l-0.2,0.4l-1.7-1L167.7,512z M164.2,510l1.7,1
		l-0.2,0.4l-1.7-1L164.2,510z M160.8,508l1.7,1l-0.2,0.4l-1.7-1L160.8,508z M157.3,506l1.7,1l-0.2,0.4l-1.7-1L157.3,506z M153.8,504
		l1.7,1l-0.2,0.4l-1.7-1L153.8,504z M150.3,501.9l1.7,1l-0.2,0.4l-1.7-1L150.3,501.9z M146.8,499.9l1.7,1l-0.2,0.4l-1.7-1
		L146.8,499.9z M143.3,497.9l1.7,1l-0.2,0.4l-1.7-1L143.3,497.9z M139.9,495.9l1.7,1l-0.2,0.4l-1.7-1L139.9,495.9z M136.4,493.8
		l1.7,1l-0.2,0.4l-1.7-1L136.4,493.8z M131.9,493.1c0.8-0.2,1.6-0.3,2.4-0.1l-0.1,0.4c-0.7-0.1-1.5-0.1-2.2,0.1L131.9,493.1z
		 M128.1,495l1.7-1l0.2,0.4l-1.7,1L128.1,495z M124.6,497.1l1.7-1l0.2,0.4l-1.7,1L124.6,497.1z M121.1,499.1l1.7-1l0.2,0.4l-1.7,1
		L121.1,499.1z M117.6,501.1l1.7-1l0.2,0.4l-1.7,1L117.6,501.1z M114.1,503.2l1.7-1l0.2,0.4l-1.7,1L114.1,503.2z M110.6,505.2l1.7-1
		l0.2,0.4l-1.7,1L110.6,505.2z M107,507.2l1.7-1l0.2,0.4l-1.7,1L107,507.2z M103.5,509.2l1.7-1l0.2,0.4l-1.7,1L103.5,509.2z
		 M100,511.3l1.7-1l0.2,0.4l-1.7,1L100,511.3z M96.5,513.3l1.7-1l0.2,0.4l-1.7,1L96.5,513.3z M93,515.3l1.7-1l0.2,0.4l-1.7,1
		L93,515.3z M89.5,517.3l1.7-1l0.2,0.4l-1.7,1L89.5,517.3z M86,519.4l1.7-1l0.2,0.4l-1.7,1L86,519.4z M82.5,521.4l1.7-1l0.2,0.4
		l-1.7,1L82.5,521.4z M79,523.4l1.7-1l0.2,0.4l-1.7,1L79,523.4z M75.5,525.4l1.7-1l0.2,0.4l-1.7,1L75.5,525.4z M73.5,527
		c0.1-0.3,0.3-0.5,0.6-0.8l0.3,0.3c-0.2,0.2-0.4,0.4-0.5,0.6L73.5,527z M73.4,528.1l0.4-0.2c0.1,0.2,0.2,0.3,0.3,0.4l-0.3,0.4
		C73.7,528.5,73.5,528.3,73.4,528.1z M76.8,530.5l-1.7-1l0.2-0.4l1.7,1L76.8,530.5z M80.3,532.5l-1.7-1l0.2-0.4l1.7,1L80.3,532.5z
		 M83.8,534.5l-1.7-1l0.2-0.4l1.7,1L83.8,534.5z M87.3,536.5l-1.7-1l0.2-0.4l1.7,1L87.3,536.5z M90.8,538.5l-1.7-1l0.2-0.4l1.7,1
		L90.8,538.5z M94.3,540.6l-1.7-1l0.2-0.4l1.7,1L94.3,540.6z M97.7,542.6l-1.7-1l0.2-0.4l1.7,1L97.7,542.6z M101.2,544.6l-1.7-1
		l0.2-0.4l1.7,1L101.2,544.6z M104.7,546.6l-1.7-1l0.2-0.4l1.7,1L104.7,546.6z M108.2,548.7l-1.7-1l0.2-0.4l1.7,1L108.2,548.7z
		 M111.7,550.7l-1.7-1l0.2-0.4l1.7,1L111.7,550.7z M115.2,552.7l-1.7-1l0.2-0.4l1.7,1L115.2,552.7z M118.6,554.7l-1.7-1l0.2-0.4
		l1.7,1L118.6,554.7z M122.1,556.7l-1.7-1l0.2-0.4l1.7,1L122.1,556.7z M125.6,558.8l-1.7-1l0.2-0.4l1.7,1L125.6,558.8z M129.1,560.8
		l-1.7-1l0.2-0.4l1.7,1L129.1,560.8z M132.6,562.8l-1.7-1l0.2-0.4l1.7,1L132.6,562.8z M136,564.8l-1.7-1l0.2-0.4l1.7,1L136,564.8z
		 M139.5,566.9l-1.7-1l0.2-0.4l1.7,1L139.5,566.9z M143,568.9l-1.7-1l0.2-0.4l1.7,1L143,568.9z M146.5,570.9l-1.7-1l0.2-0.4l1.7,1
		L146.5,570.9z M150,572.9l-1.7-1l0.2-0.4l1.7,1L150,572.9z M153.5,574.9l-1.7-1l0.2-0.4l1.7,1L153.5,574.9z"/>
	<g class="st4">
		<path class="st5" d="M156.5,571.7l-72.9-42.3c-1-0.6-0.9-1.6,0.3-2.3l49-28.3c1.2-0.7,2.9-0.7,3.9-0.1l72.9,42.3
			c1,0.6,0.9,1.6-0.3,2.3l-49,28.3C159.3,572.2,157.5,572.3,156.5,571.7z"/>
	</g>
	
		<linearGradient id="SVGID_1_" gradientUnits="userSpaceOnUse" x1="125.1907" y1="341.48" x2="168.1003" y2="267.1609" gradientTransform="matrix(1 0 0 -1 0 828)">
		<stop  offset="0" style="stop-color:#C0D6FF"/>
		<stop  offset="0.2978" style="stop-color:#C5DBFF"/>
		<stop  offset="0.6488" style="stop-color:#D3E9FF"/>
		<stop  offset="1" style="stop-color:#E9FFFF"/>
	</linearGradient>
	<path class="st6" d="M157.8,564.4l-81.5-47.3c-1.1-0.6-1-1.8,0.3-2.6l54.5-25c1.3-0.7,3.2-7.3,4.4-6.6l81.5,47.3
		c1.1,0.6,1,1.8-0.3,2.6l-54.5,31.5C160.9,565,158.9,565.1,157.8,564.4z"/>
	<path class="st7" d="M219.8,526.7l-19.1-1.2l-65.2-37.9c-1.2-0.7-3.2-0.6-4.5,0.2l-42.2,24.3l-15.1-1v4.1c0,0.4,0.2,0.8,0.8,1.1
		l83.6,48.5c1.2,0.7,3.2,0.6,4.5-0.2l56.2-32.4c0.7-0.4,1.1-0.9,1.1-1.4V526.7z"/>
	
		<linearGradient id="SVGID_2_" gradientUnits="userSpaceOnUse" x1="146.7252" y1="287.5449" x2="146.4134" y2="372.2751" gradientTransform="matrix(1 0 0 -1 0 828)">
		<stop  offset="0" style="stop-color:#F1F4FE"/>
		<stop  offset="0.58" style="stop-color:#F7F9FE"/>
		<stop  offset="1" style="stop-color:#FFFFFF"/>
	</linearGradient>
	<path class="st8" d="M157.9,560.7l-83.6-48.5c-1.2-0.7-1-1.8,0.3-2.6l56.2-32.4c1.3-0.8,3.3-0.8,4.5-0.2l83.6,48.5
		c1.2,0.7,1,1.8-0.3,2.6l-56.2,32.4C161.1,561.3,159.1,561.3,157.9,560.7z"/>
	<path class="st3" d="M239.2,526.4l0.1-0.5c0.1,0,0.1,0,0.2,0l-0.1,0.5C239.3,526.4,239.2,526.4,239.2,526.4z M239.9,526.4l-0.1-0.5
		c0.1,0,0.2,0,0.3-0.1l0.1,0.5C240.1,526.4,240,526.4,239.9,526.4z M243.2,524.7l-1.6,0.9l-0.2-0.4l1.6-0.9L243.2,524.7z
		 M246.5,522.8l-1.6,0.9l-0.2-0.4l1.6-0.9L246.5,522.8z M249.8,520.9l-1.6,0.9l-0.2-0.4l1.6-0.9L249.8,520.9z M253.1,519l-1.6,0.9
		l-0.2-0.4l1.6-0.9L253.1,519z M256.4,517.1l-1.6,0.9l-0.2-0.4l1.6-0.9L256.4,517.1z M259.6,515.2l-1.6,0.9l-0.2-0.4l1.6-0.9
		L259.6,515.2z M262.9,513.3l-1.6,0.9l-0.2-0.4l1.6-0.9L262.9,513.3z M266.2,511.4l-1.6,0.9l-0.2-0.4l1.6-0.9L266.2,511.4z
		 M269.5,509.6l-1.6,0.9l-0.2-0.4l1.6-0.9L269.5,509.6z M270.8,508.6c-0.1,0.1-0.1,0.2-0.3,0.3l-0.3-0.4c0.1-0.1,0.1-0.1,0.2-0.2
		L270.8,508.6z M270.8,507.9l-0.4,0.2c0,0-0.1-0.1-0.1-0.1l0.3-0.3C270.7,507.7,270.8,507.8,270.8,507.9z M268,506.1l1.6,0.9
		l-0.2,0.4l-1.6-0.9L268,506.1z M264.7,504.2l1.6,0.9l-0.2,0.4l-1.6-0.9L264.7,504.2z M261.4,502.3l1.6,0.9l-0.2,0.4l-1.6-0.9
		L261.4,502.3z M258.1,500.4l1.6,0.9l-0.2,0.4l-1.6-0.9L258.1,500.4z M254.8,498.5l1.6,0.9l-0.2,0.4l-1.6-0.9L254.8,498.5z
		 M251.4,496.5l1.6,0.9l-0.2,0.4l-1.6-0.9L251.4,496.5z M248.1,494.6l1.6,0.9l-0.2,0.4l-1.6-0.9L248.1,494.6z M244.8,492.7l1.6,0.9
		l-0.2,0.4l-1.6-0.9L244.8,492.7z M241.5,490.8l1.6,0.9l-0.2,0.4l-1.6-0.9L241.5,490.8z M239.9,490.1c0.1,0,0.1,0,0.2,0l-0.1,0.5
		c-0.1,0-0.1,0-0.2,0L239.9,490.1z M239.4,490.1l0.1,0.5c-0.1,0-0.2,0-0.3,0.1l-0.1-0.5C239.1,490.2,239.3,490.1,239.4,490.1z
		 M236,491.9l1.6-0.9l0.2,0.4l-1.6,0.9L236,491.9z M232.8,493.7l1.6-0.9l0.2,0.4l-1.6,0.9L232.8,493.7z M229.5,495.6l1.6-0.9
		l0.2,0.4l-1.6,0.9L229.5,495.6z M226.2,497.5l1.6-0.9l0.2,0.4l-1.6,0.9L226.2,497.5z M222.9,499.4l1.6-0.9l0.2,0.4l-1.6,0.9
		L222.9,499.4z M219.6,501.3l1.6-0.9l0.2,0.4l-1.6,0.9L219.6,501.3z M216.4,503.2l1.6-0.9l0.2,0.4l-1.6,0.9L216.4,503.2z
		 M213.1,505.1l1.6-0.9l0.2,0.4l-1.6,0.9L213.1,505.1z M209.8,507l1.6-0.9l0.2,0.4l-1.6,0.9L209.8,507z M208.5,507.9
		c0.1-0.1,0.2-0.2,0.3-0.3l0.3,0.3c-0.1,0.1-0.2,0.1-0.2,0.2L208.5,507.9z M208.7,508.9c-0.1-0.1-0.2-0.2-0.2-0.3l0.4-0.2
		c0,0.1,0.1,0.1,0.1,0.1l0,0L208.7,508.9z M211.3,510.4l-1.6-0.9l0.2-0.4l1.6,0.9L211.3,510.4z M214.6,512.3l-1.6-0.9l0.2-0.4
		l1.6,0.9L214.6,512.3z M217.9,514.2l-1.6-0.9l0.2-0.4l1.6,0.9L217.9,514.2z M221.2,516.1l-1.6-0.9l0.2-0.4l1.6,0.9L221.2,516.1z
		 M224.5,518l-1.6-0.9l0.2-0.4l1.6,0.9L224.5,518z M227.8,520l-1.6-0.9l0.2-0.4l1.6,0.9L227.8,520z M231.1,521.9l-1.6-0.9l0.2-0.4
		l1.6,0.9L231.1,521.9z M234.4,523.8l-1.6-0.9l0.2-0.4l1.6,0.9L234.4,523.8z M237.7,525.7l-1.6-0.9l0.2-0.4l1.6,0.9L237.7,525.7z"/>
	<path class="st3" d="M209.9,573.1l-1.7-1l0.2-0.4l1.7,1L209.9,573.1z M211.5,573.9c-0.1,0-0.2,0-0.2,0l0.1-0.4c0.1,0,0.1,0,0.2,0
		L211.5,573.9z M212,573.9l-0.1-0.5c0.1,0,0.1,0,0.2,0l0.1,0.4C212.1,573.8,212.1,573.9,212,573.9z M215.3,572.2l-1.7,1l-0.2-0.4
		l1.7-1L215.3,572.2z M218.7,570.2l-1.7,1l-0.2-0.4l1.7-1L218.7,570.2z M222.1,568.3l-1.7,1l-0.2-0.4l1.7-1L222.1,568.3z
		 M225.5,566.3l-1.7,1l-0.2-0.4l1.7-1L225.5,566.3z M228.9,564.4l-1.7,1l-0.2-0.4l1.7-1L228.9,564.4z M232.3,562.4l-1.7,1l-0.2-0.4
		l1.7-1L232.3,562.4z M235.7,560.5l-1.7,1l-0.2-0.4l1.7-1L235.7,560.5z M239.1,558.5l-1.7,1l-0.2-0.4l1.7-1L239.1,558.5z
		 M242.5,556.5l-1.7,1l-0.2-0.4l1.7-1L242.5,556.5z M245.9,554.6l-1.7,1l-0.2-0.4l1.7-1L245.9,554.6z M249.3,552.6l-1.7,1l-0.2-0.4
		l1.7-1L249.3,552.6z M252.7,550.7l-1.7,1l-0.2-0.4l1.7-1L252.7,550.7z M256.1,548.7l-1.7,1l-0.2-0.4l1.7-1L256.1,548.7z
		 M259.5,546.8l-1.7,1l-0.2-0.4l1.7-1L259.5,546.8z M262.9,544.8l-1.7,1l-0.2-0.4l1.7-1L262.9,544.8z M266.3,542.9l-1.7,1l-0.2-0.4
		l1.7-1L266.3,542.9z M269.7,540.9l-1.7,1l-0.2-0.4l1.7-1L269.7,540.9z M273.1,539l-1.7,1l-0.2-0.4l1.7-1L273.1,539z M276.5,537
		l-1.7,1l-0.2-0.4l1.7-1L276.5,537z M279.9,535l-1.7,1l-0.2-0.4l1.7-1L279.9,535z M281.1,534.1c0,0.1-0.1,0.2-0.2,0.3l-0.3-0.3
		c0,0,0.1-0.1,0.1-0.1l0,0L281.1,534.1z M281.1,533.7l-0.4,0.1c0-0.1,0-0.1-0.1-0.2l0.3-0.3C281,533.4,281.1,533.5,281.1,533.7z
		 M278.3,531.7l1.6,0.9l-0.2,0.4l-1.6-0.9L278.3,531.7z M275,529.8l1.6,0.9l-0.2,0.4l-1.6-0.9L275,529.8z M271.7,527.9l1.6,0.9
		l-0.2,0.4l-1.6-0.9L271.7,527.9z M268.4,526l1.6,0.9l-0.2,0.4l-1.6-0.9L268.4,526z M265.1,524.1l1.6,0.9l-0.2,0.4l-1.6-0.9
		L265.1,524.1z M261.8,522.2l1.6,0.9l-0.2,0.4l-1.6-0.9L261.8,522.2z M258.5,520.3l1.6,0.9l-0.2,0.4l-1.6-0.9L258.5,520.3z
		 M255.1,518.4l1.6,0.9l-0.2,0.4l-1.6-0.9L255.1,518.4z M204.9,569.7l1.7,1l-0.2,0.4l-1.7-1L204.9,569.7z M201.4,567.7l1.7,1
		l-0.2,0.4l-1.7-1L201.4,567.7z M197.9,565.7l1.7,1l-0.2,0.4l-1.7-1L197.9,565.7z M194.4,563.6l1.7,1l-0.2,0.4l-1.7-1L194.4,563.6z
		 M190.9,561.6l1.7,1l-0.2,0.4l-1.7-1L190.9,561.6z"/>
	<path class="st3" d="M47.5,566.8l-0.2,0.4l-1.7-1l0.2-0.4L47.5,566.8z M42.4,563.8l1.7,1l-0.2,0.4l-1.7-1L42.4,563.8z M39,561.8
		l1.7,1l-0.2,0.4l-1.7-1L39,561.8z M35.5,559.8l1.7,1l-0.2,0.4l-1.7-1L35.5,559.8z M32,557.9l1.7,1l-0.2,0.4l-1.7-1L32,557.9z
		 M28.6,555.9l1.7,1l-0.2,0.4l-1.7-1L28.6,555.9z M25.1,553.9l1.7,1l-0.2,0.4l-1.7-1L25.1,553.9z M21.7,551.9l1.7,1l-0.2,0.4l-1.7-1
		L21.7,551.9z M18.2,549.9l1.7,1l-0.2,0.4l-1.7-1L18.2,549.9z M20,547.1l-1.7,1l-0.2-0.4l1.7-1L20,547.1z M16.7,548.7
		c0.1-0.1,0.2-0.2,0.3-0.4l0.3,0.3c-0.1,0.1-0.2,0.2-0.2,0.2L16.7,548.7z M16.9,549.7c-0.1-0.1-0.2-0.2-0.2-0.3l0.4-0.2
		c0,0.1,0.1,0.1,0.1,0.1l-0.1,0.1L16.9,549.7z M23.5,545.1l-1.7,1l-0.2-0.4l1.7-1L23.5,545.1z M26.9,543.1l-1.7,1l-0.2-0.4l1.7-1
		L26.9,543.1z M30.3,541.2l-1.7,1l-0.2-0.4l1.7-1L30.3,541.2z M33.7,539.2l-1.7,1l-0.2-0.4l1.7-1L33.7,539.2z M37.1,537.2l-1.7,1
		l-0.2-0.4l1.7-1L37.1,537.2z M40.6,535.2l-1.7,1l-0.2-0.4l1.7-1L40.6,535.2z M44,533.3l-1.7,1l-0.2-0.4l1.7-1L44,533.3z
		 M47.4,531.3l-1.7,1l-0.2-0.4l1.7-1L47.4,531.3z M48.7,530.6l-0.1-0.5c0.1,0,0.3-0.1,0.4-0.1l0.1,0.5
		C49,530.6,48.9,530.6,48.7,530.6z M49.5,530.6l0.1-0.5c0.1,0,0.1,0,0.2,0l-0.1,0.5C49.7,530.6,49.6,530.6,49.5,530.6z M52.7,532.2
		l-1.7-1l0.2-0.4l1.7,1L52.7,532.2z M56.1,534.2l-1.7-1l0.2-0.4l1.7,1L56.1,534.2z M59.6,536.2l-1.7-1l0.2-0.4l1.7,1L59.6,536.2z
		 M63,538.2l-1.7-1l0.2-0.4l1.7,1L63,538.2z M66.5,540.2l-1.7-1l0.2-0.4l1.7,1L66.5,540.2z M69.9,542.2l-1.7-1l0.2-0.4l1.7,1
		L69.9,542.2z M73.4,544.2l-1.7-1l0.2-0.4l1.7,1L73.4,544.2z M76.8,546.2l-1.7-1l0.2-0.4l1.7,1L76.8,546.2z M80.3,548.2l-1.7-1
		l0.2-0.4l1.7,1L80.3,548.2z M78.4,550.9l1.7-1l0.2,0.4l0,0l0,0l-1.7,1L78.4,550.9L78.4,550.9L78.4,550.9z M81.9,549.3
		c-0.1,0.2-0.2,0.3-0.4,0.4l-0.3-0.4c0,0,0,0-0.1,0l0,0c0.1-0.1,0.2-0.2,0.2-0.2L81.9,549.3C81.8,549.3,81.8,549.3,81.9,549.3
		L81.9,549.3z M81.8,548.6l-0.5,0.2c0,0,0-0.1-0.1-0.1l0.3-0.4c0.1,0.1,0.2,0.2,0.3,0.4l0,0C81.9,548.7,81.9,548.7,81.8,548.6z
		 M77,552.3L77,552.3l-1.7,1l-0.2-0.4l0,0l0,0l1.7-1L77,552.3L77,552.3z M73.6,554.3L73.6,554.3l-1.7,1l-0.2-0.4l0,0l0,0l1.7-1
		L73.6,554.3L73.6,554.3z M70.2,556.3L70.2,556.3l-1.7,1l-0.2-0.4l0,0l0,0l1.7-1L70.2,556.3L70.2,556.3z M66.8,558.2L66.8,558.2
		l-1.7,1l-0.2-0.4l0,0l0,0l1.7-1L66.8,558.2L66.8,558.2z M63.3,560.2L63.3,560.2l-1.7,1l-0.2-0.4l0,0l0,0l1.7-1L63.3,560.2
		L63.3,560.2z M59.9,562.2L59.9,562.2l-1.7,1l-0.2-0.4l0,0l0,0l1.7-1L59.9,562.2L59.9,562.2z M56.5,564.2L56.5,564.2l-1.7,1
		l-0.2-0.4l0,0l0,0l1.7-1L56.5,564.2L56.5,564.2z M53.1,566.1L53.1,566.1l-1.7,1l-0.2-0.4l0,0l0,0l1.7-1L53.1,566.1L53.1,566.1z
		 M50.2,567.8L50.2,567.8c-0.2,0.1-0.4,0.2-0.6,0.2l-0.1-0.5c-0.1,0-0.2,0-0.3,0c-0.1,0-0.1,0-0.2,0L49,568c-0.1,0-0.1,0-0.2,0
		c0,0,0,0,0,0l0.1-0.5c0.3,0,0.6,0,0.9-0.1l0.1,0.5C50,567.8,50.1,567.8,50.2,567.8z"/>
	<path class="st9" d="M48.9,535.6l-2-1.2l1.1-0.6L50,535L48.9,535.6z"/>
	<path class="st9" d="M52.7,535.4l-2.1,1.2l-1.1-0.6l2-1.2L52.7,535.4z"/>
	<path class="st9" d="M48.5,535.9l-1.1,0.6l-1.1-0.6l1.1-0.6L48.5,535.9z"/>
	<path class="st9" d="M52.2,538.1l-1.1,0.6l-3.2-1.8l1.1-0.6L52.2,538.1z"/>
	<path class="st3" d="M49.8,592.7l0.1-0.4c0.1,0,0.1,0,0.2,0l-0.1,0.4C50,592.7,49.9,592.7,49.8,592.7z M50.8,592.7l0-0.4
		c0.1,0,0.2,0,0.3,0l0.1,0.4C51,592.7,50.9,592.7,50.8,592.7z M54.3,590.9l-1.7,1l-0.2-0.4l1.7-1L54.3,590.9z M57.8,589l-1.7,1
		l-0.2-0.4l1.7-1L57.8,589z M61.4,587l-1.7,1l-0.2-0.4l1.7-1L61.4,587z M64.9,585l-1.7,1l-0.2-0.4l1.7-1L64.9,585z M68.4,583l-1.7,1
		l-0.2-0.4l1.7-1L68.4,583z M71.9,581l-1.7,1l-0.2-0.4l1.7-1L71.9,581z M75.4,579l-1.7,1l-0.2-0.4l1.7-1L75.4,579z M79,577l-1.7,1
		l-0.2-0.4l1.7-1L79,577z M82.5,575l-1.7,1l-0.2-0.4l1.7-1L82.5,575z M86,573l-1.7,1l-0.2-0.4l1.7-1L86,573z M89.5,571l-1.7,1
		l-0.2-0.4l1.7-1L89.5,571z M93,569.1l-1.7,1l-0.2-0.4l1.7-1L93,569.1z M96.6,567.1l-1.7,1l-0.2-0.4l1.7-1L96.6,567.1z M100.1,565.1
		l-1.7,1l-0.2-0.4l1.7-1L100.1,565.1z M103.6,563.1l-1.7,1l-0.2-0.4l1.7-1L103.6,563.1z M107.1,561.1l-1.7,1l-0.2-0.4l1.7-1
		L107.1,561.1z M110.7,559.1l-1.7,1l-0.2-0.4l1.7-1L110.7,559.1z M114.2,557.1l-1.7,1l-0.2-0.4l1.7-1L114.2,557.1z M117.7,555.1
		l-1.7,1l-0.2-0.4l1.7-1L117.7,555.1z M46.8,590.5l1.8,1l-0.2,0.4l-1.8-1L46.8,590.5z M43.2,588.4l1.8,1l-0.2,0.4l-1.8-1L43.2,588.4
		z M39.6,586.4l1.8,1l-0.2,0.4l-1.8-1L39.6,586.4z M36,584.3l1.8,1l-0.2,0.4l-1.8-1L36,584.3z M32.4,582.2l1.8,1l-0.2,0.4l-1.8-1
		L32.4,582.2z M28.8,580.2l1.8,1l-0.2,0.4l-1.8-1L28.8,580.2z M25.2,578.1l1.8,1l-0.2,0.4l-1.8-1L25.2,578.1z M21.7,576.1l1.8,1
		l-0.2,0.4l-1.8-1L21.7,576.1z M18.1,574l1.8,1l-0.2,0.4l-1.8-1L18.1,574z M14.5,571.9l1.8,1l-0.2,0.4l-1.8-1L14.5,571.9z
		 M16.1,569.5l-1.7,1l0,0l0,0l-0.2-0.4l1.7-1l0,0l0,0L16.1,569.5z M13,570.9c0-0.1,0.1-0.2,0.2-0.3l0.4,0.3c0,0,0,0.1-0.1,0.1
		L13,570.9z M13.2,571.7c-0.1-0.1-0.1-0.2-0.2-0.3l0.4-0.1c0,0,0,0.1,0.1,0.1L13.2,571.7z M17.6,568.1l1.7-1l0.1,0.2l0.1,0.2l-1.7,1
		L17.6,568.1z M22.9,565.6l-1.7,1l-0.2-0.4l1.7-1L22.9,565.6z M26.2,563.7l-1.7,1l-0.2-0.4l1.7-1L26.2,563.7z M29.6,561.7l-1.7,1
		l-0.2-0.4l1.7-1L29.6,561.7z M33,559.8l-1.7,1l-0.2-0.4l1.7-1L33,559.8z"/>
	<g class="st10">
		<path class="st11" d="M108.6,518.6c-2.9,1.6-7.4,1.6-10.2,0c-2.9-1.6-2.9-4.3,0-5.9c2.9-1.6,7.4-1.6,10.2,0
			C111.4,514.3,111.4,517,108.6,518.6z"/>
	</g>
	<path class="st12" d="M121,489l-15.1-16.3l-15.1-1.2c0,0-2.5,20.6,15.1,42.4C123.5,512.3,121,489,121,489z"/>
	<path class="st12" d="M90.7,471.4l-3.4,2l15.1,1.2l3.4-2L90.7,471.4z"/>
	<path class="st13" d="M117.6,490.9l-15.1-16.3l-6.2-0.6l-9-0.6c0,0-2.5,20.6,15.1,42.4C120.1,514.3,117.6,490.9,117.6,490.9z"/>
	<path class="st14" d="M115.8,491.2l-13.6-14.7l-5.6-0.6l-8-0.5c0,0-2.2,18.5,13.6,38.1C118,512.2,115.8,491.2,115.8,491.2z"/>
	<path class="st12" d="M117.6,490.9l-15.1-16.3l-15.1-1.2c0.4-0.2,0.4-0.2,0.4-0.2l15.4,1.2l15.1,16.3c0,0,2,19.5-11.1,24
		C119.6,509.8,117.6,490.9,117.6,490.9z"/>
	<path class="st1" d="M247,550.6h5.4l-2.7,4.7L247,550.6z"/>
	<path class="st15" d="M146.5,489.8l0,0.2L146.5,489.8c-0.1,0.1-0.4,1-0.1,1.5c0.2,0.5,0.6,1,1,1.7c0.5,0.6,1.3,1.9,1.5,2.2
		c0.2,0.2,1.4,1.2,2.9,1.4c1.5,0.1,1.9-0.7,1.8-1.1c-0.1-0.5-0.9-1.7-1.8-2.7c-0.9-1-1.5-2.3-1.5-2.3L146.5,489.8z"/>
	<path class="st15" d="M150.9,485.8c0,0,0,1,0,1.3s2.3,0.5,3,0.6c0.8,0.1,2.1,0.7,2.6,0.9c0.4,0.2,3.3,0.5,3.6-0.5
		c0.3-1-1.4-1.9-2.6-2.2c-1.2-0.3-3.1-0.9-3.1-0.9L150.9,485.8z"/>
	<path class="st5" d="M143.4,467c0,0-0.1,2.7,0.8,6.4c0.9,3.7,0.8,6.3,0.8,6.3s-0.9,4.2-0.1,7c0.8,2.8,1.5,3.7,1.5,3.7
		s1.6,2.2,3.8,0.2c0,0-1.2-3.9-1.3-7c0,0,1-2.3,1.4-4.3c0,0,0.3,3.2,0.5,4.6c0,0-0.2,1.9,0.3,2.7c0.5,0.8,2.8,1,3.6-0.3
		c0.8-1.3-0.6-0.7-0.2-6.9c0,0,2.1-2.7,2.4-7.6c0.3-4.9,0.3-6.8,0-7.8c-0.3-1-5-4.4-5-4.4l-2.7,3.4L143.4,467z"/>
	<path class="st15" d="M153.9,472.5c0.8-0.9,1.2-3.8,1.2-3.8s-1.2,2.4-2,3.1c-0.9,0.7-1.6,2.1-1.8,3c-0.1,0.9-1,4.3-1,4.3
		s0.3,3.2,0.5,4.6c0,0-0.2,1.9,0.3,2.7c0.1,0.1,0.3,0.3,0.5,0.4c0,0-0.1-4.3,0-6.1C151.7,478.9,153.1,473.4,153.9,472.5z"/>
	<path class="st16" d="M136.3,447.3c0,0-2,4-2.2,4.3s-4,5.2-4.4,8c0,0-0.3,1.1,1,2c1.3,0.9,7.9,5.2,8.3,5.2c0.4,0,2.8-1.1,2.9-3.7
		c0,0-5.2-2.4-6.3-3.6c0,0,2-3.4,3-4.4c0.2-0.2,0.4-0.7,0.5-1.2c0.3-2.2-0.6-4.5-2.2-6L136.3,447.3z"/>
	<path class="st5" d="M151.5,438c0,0,3.1,1.2,4.2,0.8c1.1-0.4,3.7-0.8,5.5-1.8c1.8-1,9.7-3,10.9-3.1c0,0,0,0-0.2,0.1
		c-0.2,0.1-1,0.1-1.2,1.1c-0.2,0.9,0.3,2,0.4,2.1c0.1,0.1,0.2-0.2,0.9-0.6c0.8-0.3,1.2-0.3,1.2-0.3l0.3,0.4l0.2,0.3
		c0,0-0.4,1.1-1.4,1.2c-1,0.1-7.5,2.8-7.9,2.9c-0.4,0.1-5.9,2.5-6.9,2.9c-1,0.4-1.8,0.9-1.8,0.9s-3.2-2.1-3.3-2.1
		S151.5,438,151.5,438z"/>
	<path class="st17" d="M180.3,431.8c-0.2-0.3-3.2,0.6-3.2,0.6s-0.5-0.1-1-0.1s-1.8,1-2.3,1.3c-0.5,0.2-1.6,0.3-1.6,0.3
		c-2.6,0.5-1.1,3.4-1,3.4c0.1,0,0.8-0.5,1-0.6s0.6-0.2,0.6-0.2c0.1,0,0.7,0.3,1,0.4c0.3,0.1,1.2,0,1.7-0.3c0.4-0.2,1.6-0.4,1.6-0.3
		c0,0,0.2,0.1,0.2,0.1s0.1,0.3,0.3,0.4c0.2,0.1,0.5-0.5,0.6-0.6c0.1,0,0.4-0.3,0.5-0.4c0-0.1,0.2-1.8,0.2-2.1c0-0.3-0.7-0.6-0.7-0.6
		s1.7-0.6,1.8-0.6C180.1,432.5,180.5,432.1,180.3,431.8z M177.3,434.9c-0.1,0-0.3,0-0.6,0.1c-0.2,0.1-0.5,0.2-0.7,0.2
		c0,0-0.3-0.5-0.1-0.7c0.2-0.2,0.4-0.3,0.4-0.3s0.4-0.1,0.4-0.1c0,0,0.2,0.2,0.5,0c0,0,0.2,0.4,0.6,0.4
		C177.8,434.5,177.5,434.8,177.3,434.9z"/>
	<path class="st15" d="M156.9,463.9c-0.3-0.9-5-4.4-5-4.4l-1.3,1.7l-1.1,4.4l-6,1.9c0,0,0.3,3,5.2,2.7c4.9-0.3,5.5-4.1,5.5-4.1
		s0.5,1.2,2.9,1.6C157.1,465.5,157.1,464.5,156.9,463.9z"/>
	<path class="st18" d="M142.3,440.4l-0.8,2.1c0,0-4,3.5-5.1,4.7c0,0,2,3.8,2.3,7.8c0,0,1.8,1.5,2.4,2.2c0.6,0.7,1.9,3.8,2.4,4.9
		c0.4,1-0.8,4.2-0.8,4.2s1.7,3.1,4.4,3c2.8-0.1,4.6-1.8,4.9-4.8c0.3-2.9,0.2-3.4,0.2-3.4s1.2,3.7,3.1,3.7c1.9,0,4.8-3.2,4.8-3.2
		s2-1.8,1.8-2.6c-0.2-0.8-4.7-7.9-4.9-9.1c-0.2-1.2-1.3-5.3-1.3-5.3l-4.3-6.7l-2.6,0.1L142.3,440.4z"/>
	<path class="st19" d="M142.3,440.4c0,0,0,1.3,0.5,2.5c0.5,1.3,2.1,8.4,5.8,10.8l1.4,0.9v-4.5c0,0,0-2.8-0.7-4.6
		c-0.6-1.8-0.6-3.9-0.6-3.9l-1-0.3C147.7,441.5,142.3,440.4,142.3,440.4z"/>
	<path class="st17" d="M146.9,443.8c0,0,0.7,0.3,0.9-0.1c0.3-0.4,0.6-1.3,0.5-1.7c0,0,1.8,0.1,2.1-0.9c0.3-0.9,0-1.1-0.1-1.4
		c0-0.3-0.1-1-0.3-1.6l0-0.2c0,0,0.4-0.3,0.2-0.6c-0.1-0.3-1.1-1.3-1.2-1.5c-0.1-0.2,0-1.4-0.3-2c-0.4-0.6-1.1-1.5-1.1-1.5
		s-3.8-2.9-6.7,0c-2.9,2.9,1.5,8.3,1.5,8.3s0.3,1.8,1.2,2.4C144.3,443.6,146.9,443.8,146.9,443.8z"/>
	<path class="st20" d="M144.2,436.6c0-0.1,0-0.2,0-0.3c-0.1-0.3-0.3-1.2,0.6-1.9c1.1-0.8,3.1-1.6,3-2.4c0-0.8-3.2-2.8-5.5-1.8
		c-2.3,1.1-4.5,3.8-2.9,6.7c1.6,2.9,2.9,3.4,2.9,3.4s0.5-0.1,0-0.6c-0.4-0.5-1.2-1.7-0.6-2.1s1.8,0.4,1.9,0.6c0,0,0.1,0.1,0.1,0.2
		c0.1,0.1,0.2,0.2,0.4,0.1l0,0c0.1,0,0.2-0.2,0.1-0.4l-0.3-0.8c0-0.1,0-0.2,0-0.3L144.2,436.6z"/>
	<path class="st21" d="M146.8,444.6c0,0-0.9,0.6-1.3,1.7c0,0,0.9-0.9,1.4-1.1c0,0,1,0.5,1,0.8s0.1,2.1,0.3,3.1
		c0.2,1,0.2,4.5,0.2,4.5l0.6,0.4l0.3-1.5l-0.1-3.3l-0.6-2.9c0,0-0.1-1.1-0.1-1.2C148.4,445,146.8,444.6,146.8,444.6z"/>
	<path class="st5" d="M146.8,444.6c0,0,0.9-1,1.4-1c0.5,0,0.8,0.2,0.8,0.3c0,0,0.5,1.7,0.5,1.7s0.9,2.8,0.8,6
		c-0.1,3.2-0.2,3.2-0.2,3.2l-1.2-0.8c0,0,0.3-2.3-0.3-5c-0.7-2.7-0.1-3.1-0.4-3.3C147.9,445.3,146.6,444.9,146.8,444.6z"/>
	<path class="st5" d="M141.1,457.3c0.6,0.7,1.9,3.8,2.4,4.9c0.1,0.2,0.1,0.4,0.1,0.7c0.1,0.1,0.2,0.1,0.2,0.1l0.6-0.6
		c0,0-0.5-1.9-1.4-4.3s-4.3-2.9-4.3-2.9S140.5,456.5,141.1,457.3z"/>
	<path class="st17" d="M142,463.1c0,0,0.9-1.4,1.3-1.6c0,0-0.1,0.4,0.5,0.7c0.6,0.2,3.5,1.4,3.6,1.5c0.1,0.1,0,0.3-0.2,0.3
		c0,0,0.6,0.2,0.9,0.2c0.2,0,0.6,0.3,0.4,0.6c-0.1,0.3-0.3,0.2-0.3,0.2s0.1,0.3-0.1,0.4c-0.2,0-0.6,0.1-0.6,0.1s0.1,0.3-0.1,0.4
		c-0.2,0.1-1.4,0.2-1.4,0.2s-0.9-0.1-1.2-0.1c-0.2,0-1.5,0.3-1.9,0.2c-0.5-0.1-2.2-0.7-2.3-0.8C140.1,465.4,142,463.1,142,463.1z"/>
	<path class="st5" d="M141.3,443.3l0.1,1.9l1,0.3l-0.7,0.6c0,0,2.8,6.3,6.4,8.4c0,0-3.4-1.2-6.6-8.3c0,0,0.3-0.4,0.4-0.5l-0.7-0.3
		L141.3,443.3z"/>
	<path class="st5" d="M150.4,443.1c0,0,1.3,6.5,0.2,11.4c0,0,1.3-2.3,0.1-11.4H150.4z"/>
	<path class="st22" d="M178.9,433.6c-0.2-0.2-0.7-0.5-0.7-0.5s-1.3,0.6-1.6,0.7C176.6,433.8,178,433.6,178.9,433.6z"/>
	<path class="st22" d="M171.1,437.3c0,0,0.3-0.1,0.5-0.3c-0.9-1.2,0.1-2.9,0.1-2.9C169.7,434.8,171,437.3,171.1,437.3z"/>
	<path class="st22" d="M140.3,465.5c0.1,0.1,1.1,0.4,1.8,0.6c0,0,0.4-1.8,0.3-2.3s-0.3-0.7-0.3-0.7c0,0,0,0.1,0,0.1
		S140.1,465.4,140.3,465.5z"/>
	<path class="st16" d="M142,463.1c0,0,0.3,1-0.4,1.8c-0.7,0.8-0.8,0.9-0.8,0.9h-0.8c0,0-0.4-1.2-0.3-1.3
		C139.7,464.5,142,463.1,142,463.1z"/>
	<path class="st5" d="M149.3,445c0,0,0.8,4.4,0.6,6.1c-0.2,1.6-0.1,3.4-0.1,3.4l0.2,0.2l0,0c0,0,0.1,0,0.2-3.2c0.1-3.2-0.8-6-0.8-6
		S149.3,445.2,149.3,445z"/>
	<path class="st15" d="M149.5,491c0.2-0.1,0.4-0.3,0.7-0.5c0,0-1.2-3.9-1.3-7c0,0,1-2.3,1.4-4.3c-0.1,0.4-1.3,2.6-1.9,4.8
		C147.8,486.2,149.5,491,149.5,491z"/>
	<path class="st22" d="M144,439.7c0,0.1,0.3,1.7,1,2.4c0.7,0.8,1.2,1.5,1.2,1.5c0.4,0,0.7,0.1,0.7,0.1s0.7,0.3,0.9-0.1
		c0.3-0.4,0.6-1.3,0.5-1.7c0,0-2.4-0.2-3.3-0.9C144.2,440.4,144.1,439.8,144,439.7z"/>
	<path class="st23" d="M143.2,461.6l0.1,0.3l0-0.2l-0.1-0.2L143.2,461.6z"/>
	<path class="st5" d="M150,454.7c0,0,1.7,5.3,2.2,6.6l0,1.3C152.2,462.5,150.1,455.9,150,454.7z"/>
	<path class="st5" d="M151.7,456.5c0.1,0.3,0,0.6-0.3,0.7c-0.3,0.1-0.6-0.1-0.7-0.4c-0.1-0.3,0-0.6,0.3-0.7
		C151.2,456.1,151.6,456.3,151.7,456.5z"/>
	<path class="st5" d="M152.5,458.8c0.1,0.3,0,0.6-0.3,0.7c-0.3,0.1-0.6-0.1-0.7-0.4c-0.1-0.3,0-0.6,0.3-0.7
		C152.1,458.3,152.4,458.5,152.5,458.8z"/>
	<path class="st15" d="M141.2,537.5c0,0,1.1,0.1,2.2,0.1c1,0,3.9,0.2,3.9,1.1c0,0.9-1.4,2.3-3.2,2.7c-1.9,0.3-4.3,0.1-5.5,0.2
		c-1.2,0.1-2.1-0.8-1.8-1.9C137.2,538.6,141.2,537.5,141.2,537.5z"/>
	<path class="st15" d="M134.6,535.6c0,0-0.3,0.6-0.1,0.9c0.2,0.3,0.9,1.1,2.5,0.1c1.6-0.9,4.8-2.4,4.8-2.4s1.9-1,1.7-2
		c-0.2-1-1.9-0.7-1.9-0.7L134.6,535.6z"/>
	<path class="st5" d="M144.6,519.5c0,0-0.2,7.2-1.6,9.9s-1.4,7.5-1.6,8.4c-0.2,0.9-1.1,2.2-2.7,2.7c-1.6,0.4-1.9-0.5-1.9-1
		c0-0.6,0.4-1.5,0.3-2.1c0-0.6-0.2-0.9-0.3-1.1c0,0-1.8,0.6-2.2-0.6c0,0,0.1-0.4,0.1-0.6s-0.7-4.7-0.8-5.2s-0.1-3.6,0.2-5.2
		c0.4-1.6-0.2-4.8-0.2-4.8l5.5-1.2L144.6,519.5z"/>
	<path class="st15" d="M135.7,520.3c0,0,0.1,1.1,0.8,2c0,0,0.4,3.8,1,5.6c0,0-0.3,3.8-0.6,4.9c-0.3,1.2,0,3.4,0,3.4
		s-0.2,0.1-0.5,0.1c-0.3,0-0.8-4.4-0.4-5.2c0.4-0.8,0.4-4.4,0-5.5c-0.3-1.1-0.6-4.3-0.9-4.8c-0.3-0.6,0.2-0.9,0.2-0.9L135.7,520.3z"
		/>
	<path class="st15" d="M137.7,491.5c0,0,1.9,1,1.9,3.1l-1.3-0.1C138.4,494.5,138.6,492.1,137.7,491.5z"/>
	<path class="st15" d="M139.8,521.4c-3.7,0.4-5.8-0.9-5.8-0.9c0-0.5-0.1-0.8-0.1-0.8l5.5-1.2l5.2,0.8c0,0,0,1.4-0.2,3.3
		c-0.9,0.1-1.9-1.7-1.9-1.7L139.8,521.4C140,521.4,143.5,521,139.8,521.4z"/>
	<path class="st18" d="M143.9,519.6c0,0-7.7,3.6-12.2-1.6c-0.1-0.1-0.2-0.3-0.2-0.5l-0.1-1.3c0-0.2,0-0.3-0.1-0.5
		c-0.1-0.3-0.2-0.7-0.2-1c0.1-1.5,0.5-5.7,0.6-6.9c0.1-1.4-1.4-7.2-3.1-9.6c-1.7-2.5,1.2-8.7,1.2-8.7s0.8-1.5,2.6-1.1
		c0,0-1.6,1.3-0.5,2.4c1,1.1,3.9,1.8,3.9,1.8s5.3,2,7.2,4.9c0,0,0.7,1.5,0.9,3.4c0.2,1.9,0.3,6.5,0.5,7.1c0.1,0.6,0.7,4.8,0.7,5
		C145,513.2,143.9,519.6,143.9,519.6z"/>
	
		<linearGradient id="SVGID_3_" gradientUnits="userSpaceOnUse" x1="132.351" y1="339.2056" x2="131.4816" y2="339.2056" gradientTransform="matrix(1 0 0 -1 0 828)">
		<stop  offset="0" style="stop-color:#5778FF"/>
		<stop  offset="7.257640e-02" style="stop-color:#5489FF"/>
		<stop  offset="0.2791" style="stop-color:#4EB3FF"/>
		<stop  offset="0.4801" style="stop-color:#49D4FF"/>
		<stop  offset="0.6715" style="stop-color:#45ECFF"/>
		<stop  offset="0.8493" style="stop-color:#43FAFF"/>
		<stop  offset="1" style="stop-color:#42FFFF"/>
	</linearGradient>
	<path class="st24" d="M131.6,489.3c-0.2-0.3-0.2-0.7-0.1-0.9c0.2,0,0.5,0,0.8,0C132.3,488.4,131.9,488.8,131.6,489.3z"/>
	<path class="st5" d="M141.5,520.4c0,0-5.9-11.2-6.1-15.6c-0.2-4.4,7.9,8,7.9,8l0.6,6.8C143.9,519.6,142.4,520.3,141.5,520.4z"/>
	<path class="st16" d="M143,506.4c-0.2-1-0.4-2-0.5-3c-0.1-1.8-0.9-4.7-4.4-3.9c-4.8,1.1-2.1,7.3-1.5,8.4c0.6,1,3.2,5.7,3.3,5.9
		c0.1,0.2,3.8,5.7,5.1,7c0.1,0.1,0.3,0.1,0.4,0c0.4-0.4,1.4-1.3,1.5-1.9c0.1-0.7-0.7-3.1-0.7-3.1s-2.3-6.2-2.5-6.6
		C143.6,509,143.4,508,143,506.4z"/>
	<path class="st17" d="M137.7,491.7c0,0,0.3-0.9,1.2-1.1c0.9-0.2,1.4-0.5,1.5-0.8c0-0.3,0-0.8,0.2-1.2c0.2-0.5,0.3-1.8,0.3-1.8
		c0,0,0.7-0.3,0.7-0.6c0-0.3-0.4-1.4-0.4-1.5c0-0.1,0.4-0.8,0.3-1.3c-0.1-0.5-0.2-1.3-0.6-1.9c-0.3-0.6-2.7-4.5-7.7-1.9
		c-5.1,2.5-0.6,6.5-0.8,9.3c0,0-0.4,0.6,0.5,1.5C133.8,491.2,136.2,491.2,137.7,491.7z"/>
	<path class="st22" d="M132.8,490.3c-0.9-0.9-0.5-1.5-0.5-1.5c0-0.4,0-0.8-0.1-1.2l2.1,0.2c0,0,2.8-2.9,2.7-1.5
		c-0.1,1.4,0.7,1.6,0.7,1.6l-0.5,0.8c-0.1,0.2,0,0.4,0.1,0.6c1,1.3,3,0.7,3,0.7c-0.2,0.2-0.7,0.3-1.2,0.4c-0.9,0.2-1.2,1.1-1.2,1.1
		C136.2,491.2,133.8,491.2,132.8,490.3z"/>
	<path class="st20" d="M141,479.9c0,0,0.4,1-0.1,1.5c-0.6,0.5-1,0.9-1,0.9l0.1,1.3c0,0.2,0,0.4-0.1,0.6l-0.6,1.2
		c-0.1,0.2-0.2,0.5-0.1,0.8l0,0.5c0,0.1-0.1,0.3-0.2,0.3l-0.2,0c-0.2,0-0.3-0.1-0.4-0.2l-0.1-0.7c0,0-0.4-0.6-1.2,0.2l-0.7,0.4
		c-0.2,0.1-0.3,0.3-0.4,0.5c-0.1,0.6-0.5,1.8-0.8,1.9c-0.4,0.3-2.3-0.4-2.6-0.8c-0.3-0.4-1.1-2.9-1.7-4.2c-0.5-1.2-0.7-4.5,3.2-5.6
		C137.7,477.4,140.3,478.8,141,479.9z"/>
	<path class="st25" d="M132.3,488.4c-0.3-0.4-1.1-2.9-1.7-4.2c0,0,1.6,0.9,3.6,0.9c1.9,0.1,5.6-2.4,5.6-2.4l0.1,1
		c0,0.2,0,0.4-0.1,0.6l-0.6,1.2c-0.1,0.2-0.2,0.5-0.1,0.8l0,0.5c0,0.1-0.1,0.3-0.2,0.3l-0.2,0c-0.2,0-0.3-0.1-0.4-0.2l-0.1-0.7
		c0,0-0.4-0.6-1.2,0.2l-1,0.5c0,0-0.5,2-0.9,2.3C134.5,489.5,132.6,488.7,132.3,488.4z"/>
	<path class="st19" d="M132.3,488.5c0,0-1.4,1-0.5,2.2c0.9,1.2,6.4,2.9,6.7,3.2c0,0,0-1.9-0.7-2.4c0,0-4.1-0.4-4.9-1.4
		C132.1,489.2,132.3,488.5,132.3,488.5z"/>
	<path class="st21" d="M132.3,488.5c0,0-0.2,0.7,0.6,1.6c0.6,0.7,3.1,1.1,4.3,1.3c0,0-0.4,0.3-1,1.5c-1.7-0.7-3.8-1.6-4.3-2.2
		C130.9,489.5,132.3,488.5,132.3,488.5z"/>
	<path class="st5" d="M131.7,492.6c0,0,2.5,1.1,3.7,1.6c1.2,0.5,2.5,1.1,2.5,1.1l0.4-0.5l0.6,1c0,0,1.9,0.9,2.8,1.7
		c0.9,0.8,1.6,1.8,1.8,2.1c0,0-2.5-2.6-4.3-3.2l-0.5-0.2l-0.3-0.9l-0.4,0.5C138,495.8,132.5,493.3,131.7,492.6z"/>
	<path class="st26" d="M196.4,501.2l-6.7,4.5l-4.3-3.9l6.5-4.2L196.4,501.2z"/>
	<path class="st27" d="M189.7,505.9c0,0-0.1,0-0.1,0l-4.3-3.9c0,0-0.1-0.1-0.1-0.2c0-0.1,0-0.1,0.1-0.2l6.5-4.2c0.1,0,0.2,0,0.2,0
		l4.5,3.6c0,0,0.1,0.1,0.1,0.2c0,0.1,0,0.1-0.1,0.2l-6.7,4.5C189.8,505.9,189.7,505.9,189.7,505.9z M185.7,501.8l4,3.6l6.3-4.3
		l-4.1-3.3L185.7,501.8z"/>
	<path class="st15" d="M168,547.2c0,0,0,2.1,0,2.2s1.3,0.9,2.5,0.6c1.2-0.3,1.2-1.3,1.3-1.5c0.1-0.2,0.9-0.5,1.6-1.3
		c0.6-0.7,1.1-1.8,1.1-2.5c0-0.2-0.1-0.3-0.2-0.4c-0.4-0.6-1.7,0.2-1.9,0.4l-0.1,0.6c-0.7,1.6-2,2.1-3,2.2
		C168.6,547.4,168,547.2,168,547.2z"/>
	<path class="st15" d="M175.3,550.8c0,0,0.1,1.8,0.1,1.9c0,0.1,1,1.3,2.1,1.2c1.1-0.1,1.6-1.4,1.6-1.4s1.7-0.1,3.3-1.3
		c1.6-1.2,2.2-1.7,1.8-2.5c-0.4-0.8-4.2,0.2-4.2,0.2s-1.3,1.6-2.8,2C176.5,551.2,175.9,551.2,175.3,550.8z"/>
	<path class="st5" d="M168.2,536.7c0.2-3.4,1.5-6,1.5-6l-0.1-12.3l4.2-7.4l1.4,6.7c0,2.3,0.1,7.9,0.2,12.1l-3,14.8l-0.1,0.6
		c-0.7,1.6-2,2.1-3,2.2c-0.8,0.1-1.4-0.1-1.4-0.1S168,540.1,168.2,536.7z"/>
	<path class="st5" d="M174.8,540.2c0.1-2.9,0.4-4.2,0.8-4.8c0,0,0-2.5-0.1-5.6c-0.1-4.1-0.2-9.8-0.2-12.1l2.5,0.4l0.2,0l4.7,0.7
		c0,0,0.7,3.8-0.3,8.9c-1,5.1-1.8,7.9-1.9,11.3c-0.2,3.4-0.4,10-0.4,10s-1.3,1.6-2.8,2c-0.6,0.2-1.3,0.2-1.9-0.2
		c0,0-0.2-3.2-0.4-6.2C174.8,542.9,174.7,541.2,174.8,540.2z"/>
	<path class="st17" d="M174,493.4l5,2.9l0.2-3.1v-0.1l0.1-1c0,0,1.8-0.2,2-0.4c0.7-0.5,1.1-6.7-0.4-7.5c0,0,0,0-0.1,0
		c0,0-0.2,0.2-0.5,0.3c-0.2,0.3-0.2,0.7,0,1.2c0.1,0.3,0.1,0.5,0,0.8c-0.1,0.3-0.2,0.4-0.4,0.6c-0.2,0.2-0.5,0.5-0.7,0.6
		c-0.2,0.2-1.5,0.2-1.7,0.5c-0.2,0.3-2.7,2.4-2.7,2.4L174,493.4z"/>
	<path class="st16" d="M170.2,493.1c0.8-1.6,3.2-1.6,3.8,0.1c0.3,0.7,0.4,1.5-0.1,2.5c-1.3,3.1-2.8,9.5-2.9,10.2c0,0.7,3,9.5,3,9.5
		s-2.5,1.8-2.9,1.3c-0.4-0.5-4.4-9.4-4.2-10.9C167.1,504.7,169,495.7,170.2,493.1z"/>
	<path class="st28" d="M174.3,491.7c0.2-0.4,0.4-0.4,0.4-0.4l-0.1,0.4c0,0.4,0.2,0.9,1.3,1.3c1.9,0.4,3.4,0,3.8,0.2
		c0.2,0.1,0.5,1.1,0.5,1.3c0,0-1.3,1.5-4.2,0.7c-1.2-0.4-1.7-1-1.8-1.7C173.8,492.8,174.1,492,174.3,491.7z"/>
	<path class="st29" d="M174.5,523.2c0,0,3.2,0.4,5.3,0c2.1-0.5,3.1-2,3.1-2l0-1.1l-6.5,1.1l-1.1,0.1L174.5,523.2z"/>
	<path class="st18" d="M169.3,495.7c0.4-2.9,2.2-4.9,5.1-4.2c0,0-1.4,1.5,1.3,2.5c1.6,0.6,4.3,0.1,4.3,0.1s0.5,0.3,1,0.6
		c1.1,0.7,3.3,2,3,5c-0.4,4.1-2.1,5.7-2,8.5c0.2,2.8,1.1,12.1,1.1,12.1s-0.8,1-2.3,1.6c-0.9,0.4-1.9,0.6-3.2,0.4
		c-3.5-0.4-3.9-1-3.9-1l-0.1-7.5l-0.4,7.4c0,0-3.4-2.4-3.7-2.9c-0.3-0.5,0.6-6.5,1.2-9.3C171.2,506.2,168.8,498.6,169.3,495.7z"/>
	<path class="st20" d="M173,486.1c-0.1-1.2,0.6-1.4,0.6-1.4s-0.4-1.1,0.8-1.8c1.6-0.8,4.2-1,6.3-0.9c0.7,0,0.7,2.1,0.4,3.6
		c-0.2,0.8-0.4,1.1-1.3,1.8c-0.4,0.3-0.1,2-0.3,2.1c-0.2,0.1-0.4-0.4-0.4-0.5c-0.1-0.3-0.1-0.6-0.4-0.7c-0.9-0.3-1.1,1.2-2,2.7
		c-0.4,0.6-1.9-0.2-1.9-0.2S173.1,488.5,173,486.1C173,486.1,173,486.1,173,486.1z"/>
	<path class="st30" d="M179.2,490.2c-0.1,0.6-0.9,0.5-1.1,0c-0.2-0.6-0.2-1.3-0.2-1.3s-0.2,1,0.1,1.5c0.2,0.5,0.3,0.7,0.7,0.6
		C179.2,490.8,179.2,490.2,179.2,490.2z"/>
	<path class="st30" d="M179,489.4c-0.1-0.1-0.2-0.8-0.5-0.5c-0.2,0.2-0.2,0.5-0.2,0.7c0,0.3,0.3,0.6,0.6,0.5c0.2-0.1,0.1-0.3,0-0.4
		C178.8,489.5,178.8,489.5,179,489.4z"/>
	<path class="st30" d="M179.2,492.2c0,0,1.8-0.2,2-0.4c-0.8,0.1-2.2,0.2-2.3,0.2S179.2,492.2,179.2,492.2z"/>
	<path class="st17" d="M194.8,502.5c0,0-1.8,1.1-2.2,1.3c-0.4,0.1,0.6-1.7-0.1-1.6c-0.1,0-0.6,0.4-0.9,0.8c-0.5,0.6-0.9,1.5-0.9,1.6
		s-0.8,0.4-0.8,0.5l0.7,1.8c0.6-0.5,2.1-0.6,3.6-1.5C194.9,504.8,194.8,502.5,194.8,502.5z"/>
	<path class="st16" d="M178.7,498.7c0.5-3.9,5.8-3.9,5.2,1.1c-0.4,3.3-0.6,6.3-0.4,6.9c0,0.2,6.4-2.3,6.4-2.3s0.6,0,1,0.7
		c0.5,0.8,0.1,2.2,0.1,2.2s-7.8,6.3-10.7,5C178,511.4,178.3,501.6,178.7,498.7z"/>
	
		<linearGradient id="SVGID_4_" gradientUnits="userSpaceOnUse" x1="217.765" y1="317.51" x2="217.765" y2="422.9924" gradientTransform="matrix(1 0 0 -1 0 828)">
		<stop  offset="0" style="stop-color:#5778FF"/>
		<stop  offset="0.1779" style="stop-color:#5C7DFF"/>
		<stop  offset="0.3876" style="stop-color:#6A8AFF"/>
		<stop  offset="0.6134" style="stop-color:#82A0FF"/>
		<stop  offset="0.849" style="stop-color:#A3BEFF"/>
		<stop  offset="1" style="stop-color:#BCD5FF"/>
	</linearGradient>
	<path class="st31" d="M197.3,407.4l4.1-2.4c0.2-0.1,0.4-0.1,0.6,0l35.2,20.3c0.5,0.3,1,1.1,1,1.8v80.1c0,0.4-0.1,0.7-0.3,0.8
		l-4.1,2.4l-0.1-4.4L202,487.8c-0.5-0.3-1-1.1-1-1.8v-76.5c-0.1,0.3-0.2,0.5-0.2,0.5C200.9,410,197.3,407.4,197.3,407.4z"/>
	
		<linearGradient id="SVGID_5_" gradientUnits="userSpaceOnUse" x1="232.0395" y1="394.873" x2="232.0395" y2="402.433" gradientTransform="matrix(1 0 0 -1 0 828)">
		<stop  offset="0" style="stop-color:#C0D6FF"/>
		<stop  offset="0.2978" style="stop-color:#C5DBFF"/>
		<stop  offset="0.6488" style="stop-color:#D3E9FF"/>
		<stop  offset="1" style="stop-color:#E9FFFF"/>
	</linearGradient>
	<path class="st32" d="M238.2,427l-10.7,6.1l-1.6-0.9l11.5-6.6C237.8,425.9,238.1,426.4,238.2,427z"/>
	
		<linearGradient id="SVGID_6_" gradientUnits="userSpaceOnUse" x1="197.6861" y1="338.0316" x2="233.4789" y2="400.0244" gradientTransform="matrix(1 0 0 -1 0 828)">
		<stop  offset="0" style="stop-color:#C0D6FF"/>
		<stop  offset="0.2978" style="stop-color:#C5DBFF"/>
		<stop  offset="0.6488" style="stop-color:#D3E9FF"/>
		<stop  offset="1" style="stop-color:#E9FFFF"/>
	</linearGradient>
	<path class="st33" d="M198,490.1l35.2,20.3c0.5,0.3,1,0,1-0.7v-80.1c0-0.7-0.4-1.5-1-1.8L198,407.5c-0.5-0.3-1,0-1,0.7v80.1
		C197,489,197.4,489.8,198,490.1z"/>
	<path class="st5" d="M197,483.9l37.1,21.4V434L197,412.6V483.9z"/>
	
		<linearGradient id="SVGID_7_" gradientUnits="userSpaceOnUse" x1="235.9612" y1="369.8669" x2="194.4382" y2="368.1949" gradientTransform="matrix(1 0 0 -1 0 828)">
		<stop  offset="0" style="stop-color:#2C78F6"/>
		<stop  offset="1" style="stop-color:#00BFE7"/>
	</linearGradient>
	<path class="st34" d="M197,483.9l37.1,21.4V434L197,412.6V483.9z"/>
	<path class="st35" d="M212.7,419.5l6.7,3.9c0.2,0.1,0.3,0.2,0.4,0c0-0.1,0-0.2,0-0.2c0-0.3-0.2-0.8-0.5-0.9l-6.8-3.9c0,0,0,0-0.1,0
		c-0.2,0.1-0.2,0.1-0.2,0.4l0,0.1C212.3,419.2,212.4,419.4,212.7,419.5z"/>
	<path class="st36" d="M212.5,418.3c0,0.1,0,0.2,0,0.2c0,0.3,0.2,0.8,0.5,0.9l6.8,3.9c0,0,0,0,0.1,0c-0.1,0.2-0.2,0.2-0.4,0.1
		l-6.8-3.9c-0.3-0.2-0.5-0.5-0.5-0.9C212.1,418.4,212.3,418.2,212.5,418.3z"/>
	<path class="st37" d="M236.3,436.3L236.3,436.3c0.2-0.1,0.3-0.1,0.4-0.1l0.3,0.2h-0.2c0,0.1,0,0.2,0,0.2v4.6c0,0.4-0.2,0.8-0.5,1
		l-0.1,0c0,0-0.1,0-0.1,0l0.1,0.2l-0.3-0.2c-0.1-0.1-0.2-0.2-0.2-0.4v-4.6C235.8,436.9,236,436.4,236.3,436.3z"/>
	<path class="st36" d="M236.6,442.5L236.6,442.5c0.3-0.2,0.6-0.7,0.6-1v-4.6c0-0.4-0.2-0.5-0.5-0.4l-0.1,0c-0.3,0.2-0.5,0.6-0.5,1
		v4.6C236.1,442.4,236.3,442.6,236.6,442.5z"/>
	<path class="st37" d="M236.3,443.3L236.3,443.3c0.2-0.1,0.3-0.1,0.4-0.1l0.3,0.2h-0.2c0,0.1,0,0.2,0,0.2v4.6c0,0.4-0.2,0.8-0.5,1
		l-0.1,0c0,0-0.1,0-0.1,0l0.1,0.2l-0.3-0.2c-0.1-0.1-0.2-0.2-0.2-0.4v-4.6C235.8,444,236,443.5,236.3,443.3z"/>
	<path class="st36" d="M236.6,449.5L236.6,449.5c0.3-0.2,0.6-0.7,0.6-1v-4.6c0-0.4-0.2-0.5-0.5-0.4l-0.1,0c-0.3,0.2-0.5,0.6-0.5,1
		v4.6C236.1,449.5,236.3,449.7,236.6,449.5z"/>
	<path class="st38" d="M223.9,460.1c4.7-2.7,4.7-11.4,0-19.5c-4.7-8.1-12.2-12.4-16.9-9.8c-4.7,2.7-4.7,11.4,0,19.5
		S219.3,462.8,223.9,460.1z"/>
	<path class="st39" d="M224.3,441.3c-2.2-4-5.3-7.6-8.8-9.6v13.9L224.3,441.3z"/>
	<path class="st40" d="M215.5,445.6v-13.9c-6.6-3.8-11.9-0.7-11.9,6.9L215.5,445.6z"/>
	<path class="st38" d="M211.6,485v-6.5l1.9,1.1v6.5L211.6,485z"/>
	<path class="st38" d="M207.9,482.8v-2.2l1.9,1.1v2.2L207.9,482.8z"/>
	<path class="st38" d="M215.4,487.1v-10.9l1.9,1.1v10.9L215.4,487.1z"/>
	<path class="st38" d="M219.2,489.3v-8.7l1.9,1.1v8.7L219.2,489.3z"/>
	<path class="st39" d="M213.5,479.6v-4.3l-1.9-1.1v4.3L213.5,479.6z"/>
	<path class="st39" d="M215.4,476.3v-2.2l1.9,1.1v2.2L215.4,476.3z"/>
	<path class="st39" d="M219.2,480.6v-4.3l1.9,1.1v4.3L219.2,480.6z"/>
	<path class="st39" d="M207.9,480.6v-4.3l1.9,1.1v4.3L207.9,480.6z"/>
	<path class="st41" d="M206,461.1V460l17.9,10.3l0,1.1L206,461.1z"/>
	<path class="st39" d="M206,463.3v-1.1l9.4,5.4v1.1L206,463.3z"/>
	<path class="st39" d="M206,465.5v-1.1l6.6,3.8v1.1L206,465.5z"/>
	<path class="st39" d="M216.3,469.2l0-1.1l2.8,1.6v1.1L216.3,469.2z"/>
	<g class="st4">
		<path class="st5" d="M51.7,564.7l-21.2-12.2c-0.3-0.2-0.3-0.6,0.1-0.8l21-12.1c0.4-0.2,1-0.2,1.4,0l21.2,12.2
			c0.3,0.2,0.3,0.6-0.1,0.8l-21,12.1C52.6,564.9,52,564.9,51.7,564.7z"/>
	</g>
	<g class="st4">
		<path class="st5" d="M42.3,561.7l-21-12.1c-0.5-0.2-0.4-0.7,0.2-1l6.2-3.6l22.6,13l-6.2,3.6C43.5,561.9,42.7,561.9,42.3,561.7z"/>
	</g>
	<path class="st7" d="M72,545.2V541h-6.8l-15.1-8.7c-0.4-0.2-1-0.2-1.5,0l-15,8.7h-6.8v4.2c0,0.1,0.1,0.2,0.3,0.4l21.7,12.5
		c0.4,0.2,1,0.2,1.5,0l21.5-12.4C71.9,545.5,72,545.3,72,545.2z"/>
	
		<linearGradient id="SVGID_8_" gradientUnits="userSpaceOnUse" x1="67.4496" y1="281.356" x2="18.5099" y2="296.6409" gradientTransform="matrix(1 0 0 -1 0 828)">
		<stop  offset="0" style="stop-color:#C0D6FF"/>
		<stop  offset="0.2978" style="stop-color:#C5DBFF"/>
		<stop  offset="0.6488" style="stop-color:#D3E9FF"/>
		<stop  offset="1" style="stop-color:#E9FFFF"/>
	</linearGradient>
	<path class="st42" d="M48.8,553.9l-21.7-12.5c-0.4-0.2-0.3-0.6,0.1-0.9l21.5-12.4c0.5-0.3,1.1-0.3,1.5-0.1l21.7,12.5
		c0.4,0.2,0.3,0.6-0.1,0.9l-21.5,12.4C49.8,554.1,49.2,554.1,48.8,553.9z"/>
	
		<linearGradient id="SVGID_9_" gradientUnits="userSpaceOnUse" x1="70.8845" y1="290.698" x2="27.3158" y2="283.093" gradientTransform="matrix(1 0 0 -1 0 828)">
		<stop  offset="0" style="stop-color:#2C78F6"/>
		<stop  offset="1" style="stop-color:#00BFE7"/>
	</linearGradient>
	<path class="st43" d="M48.9,552.5l-19.2-11.1c-0.4-0.2-0.3-0.5,0.1-0.8l19-11c0.4-0.2,1-0.2,1.3,0l19.2,11.1
		c0.4,0.2,0.3,0.5-0.1,0.8l-19,11C49.8,552.6,49.2,552.7,48.9,552.5z"/>
	
		<linearGradient id="SVGID_10_" gradientUnits="userSpaceOnUse" x1="69.0815" y1="290.3971" x2="29.1312" y2="283.4391" gradientTransform="matrix(1 0 0 -1 0 828)">
		<stop  offset="0" style="stop-color:#2C78F6"/>
		<stop  offset="1" style="stop-color:#00BFE7"/>
	</linearGradient>
	<path class="st44" d="M48.9,551.5l-17.6-10.2c-0.3-0.2-0.3-0.5,0.1-0.7l17.4-10.1c0.4-0.2,0.9-0.2,1.2,0l17.6,10.2
		c0.3,0.2,0.3,0.5-0.1,0.7l-17.4,10.1C49.8,551.7,49.2,551.7,48.9,551.5z"/>
	<path class="st9" d="M49.1,540.4l-2.1-1.2l1.1-0.7l2.1,1.2L49.1,540.4z"/>
	<path class="st9" d="M52.9,540.2l-2.1,1.2l-1.1-0.7l2.1-1.2L52.9,540.2z"/>
	<path class="st9" d="M48.6,540.6l-1.2,0.7l-1.1-0.7l1.1-0.7L48.6,540.6z"/>
	<path class="st9" d="M52.5,542.9l-1.1,0.7l-3.3-1.9l1.2-0.7L52.5,542.9z"/>
</g>
</svg>
