<?xml version="1.0" encoding="utf-8"?>
<!-- Generator: Adobe Illustrator 24.3.0, SVG Export Plug-In . SVG Version: 6.00 Build 0)  -->
<svg version="1.1" id="Layer_1" xmlns="http://www.w3.org/2000/svg" xmlns:xlink="http://www.w3.org/1999/xlink" x="0px" y="0px"
	 viewBox="0 0 1066 826" style="enable-background:new 0 0 1066 826;" xml:space="preserve">
<style type="text/css">
	.st0{opacity:0.5;fill:none;stroke:#0254D7;stroke-width:0.7;stroke-dasharray:2,2;enable-background:new    ;}
	.st1{fill:#3AA0C7;}
	.st2{opacity:0.31;}
	.st3{fill:#242993;}
	.st4{fill:url(#SVGID_1_);}
	.st5{fill:#EFF1FE;}
	.st6{fill:url(#SVGID_2_);}
	.st7{opacity:0.1;fill:#180D5B;enable-background:new    ;}
	.st8{fill:url(#SVGID_3_);}
	.st9{fill:url(#SVGID_4_);}
	.st10{fill:url(#SVGID_5_);}
	.st11{fill:#FFFFFF;}
	.st12{fill:url(#SVGID_6_);}
	.st13{fill:url(#SVGID_7_);}
	.st14{fill:#FCD1C5;}
	.st15{fill:#E2B1A6;}
	.st16{fill:#485DCE;}
	.st17{fill:#162184;}
	.st18{fill:#3238B9;}
	.st19{fill:#4553C7;}
	.st20{fill:#F0F6FF;}
	.st21{fill:#C4CCD6;}
	.st22{fill:#F2B42A;}
	.st23{fill:#FCE8EE;}
	.st24{fill:#AA9AAC;}
	.st25{fill:#E2C8CF;}
	.st26{fill:#938496;}
	.st27{opacity:0.4;fill:#42E8E0;enable-background:new    ;}
	.st28{opacity:0.6;fill:#42E8E0;enable-background:new    ;}
	.st29{opacity:0.8;fill:#42E8E0;enable-background:new    ;}
	.st30{fill:#42E8E0;}
	.st31{fill:#2C78F6;}
	.st32{fill:url(#SVGID_8_);}
	.st33{fill:url(#SVGID_9_);}
	.st34{fill:url(#SVGID_10_);}
	.st35{fill:url(#SVGID_11_);}
	.st36{fill:url(#SVGID_12_);}
	.st37{opacity:0.2;fill:#242993;enable-background:new    ;}
	.st38{fill:#DD821F;}
	.st39{fill:#FFD85A;}
	.st40{fill:#F9BF30;}
	.st41{fill:url(#SVGID_13_);}
	.st42{fill:url(#SVGID_14_);}
	.st43{fill:url(#SVGID_15_);}
	.st44{fill:#42FFFF;}
</style>
<g>
	<path class="st0" d="M584,550l51.9,28.2c1.4,0.7,1.4,2.7,0,3.5l-84.8,48.6c-1.4,0.8-1.3,2.7,0,3.5l59.6,33.2"/>
	<path class="st1" d="M594.4,602.2l2.4,4.8l-5.4-0.3L594.4,602.2z"/>
	<path class="st0" d="M690,782.2l-130.1-80.9c-1.3-0.8-1.3-2.7,0-3.4l94.2-54.9c0.6-0.4,1.3-0.4,2,0l137.9,74.8
		c1.4,0.7,1.4,2.7,0.1,3.5L692,782.2C691.4,782.6,690.6,782.6,690,782.2z"/>
	<g class="st2">
		<path class="st3" d="M689.1,753.6l-65.3-37.9c-0.9-0.5-0.8-1.5,0.3-2l43.9-25.3c1.1-0.6,2.6-0.7,3.5-0.1l65.3,37.9
			c0.9,0.5,0.8,1.5-0.3,2l-43.9,25.3C691.6,754,690,754.1,689.1,753.6z"/>
	</g>
	
		<linearGradient id="SVGID_1_" gradientUnits="userSpaceOnUse" x1="661.0638" y1="150.7324" x2="699.5096" y2="84.1439" gradientTransform="matrix(1 0 0 -1 0 828)">
		<stop  offset="0" style="stop-color:#C0D6FF"/>
		<stop  offset="0.2978" style="stop-color:#C5DBFF"/>
		<stop  offset="0.6488" style="stop-color:#D3E9FF"/>
		<stop  offset="1" style="stop-color:#E9FFFF"/>
	</linearGradient>
	<path class="st4" d="M690.3,747.1l-73-42.4c-1-0.6-0.9-1.6,0.3-2.3l48.9-22.4c1.1-0.7,2.9-6.6,3.9-5.9l73,42.4
		c1,0.6,0.9,1.6-0.3,2.3l-48.9,28.2C693,747.6,691.3,747.7,690.3,747.1z"/>
	<path class="st5" d="M745.8,713.3l-17.1-1.1l-58.4-34c-1.1-0.6-2.9-0.5-4.1,0.2l-37.8,21.8l-13.5-0.9v3.7c0,0.4,0.2,0.8,0.7,1
		l74.9,43.5c1.1,0.6,2.9,0.5,4.1-0.2l50.3-29c0.6-0.4,1-0.8,1-1.3V713.3z"/>
	
		<linearGradient id="SVGID_2_" gradientUnits="userSpaceOnUse" x1="680.3581" y1="102.4063" x2="680.0782" y2="178.3238" gradientTransform="matrix(1 0 0 -1 0 828)">
		<stop  offset="0" style="stop-color:#F1F4FE"/>
		<stop  offset="0.58" style="stop-color:#F7F9FE"/>
		<stop  offset="1" style="stop-color:#FFFFFF"/>
	</linearGradient>
	<path class="st6" d="M690.4,743.7l-74.9-43.5c-1.1-0.6-0.9-1.6,0.3-2.3l50.3-29c1.2-0.7,3-0.7,4.1-0.2l74.9,43.5
		c1.1,0.6,0.9,1.6-0.3,2.3l-50.3,29C693.3,744.2,691.5,744.3,690.4,743.7z"/>
	<path class="st7" d="M675.2,704h74.5l1.6-6.3L677.3,655c-1.6-0.9-4.3-0.8-6.1,0.2l-42.5,24.5l37.2,21.8
		C668.8,703.1,672,704,675.2,704z"/>
	
		<linearGradient id="SVGID_3_" gradientUnits="userSpaceOnUse" x1="561.6693" y1="113.1272" x2="737.4523" y2="192.6512" gradientTransform="matrix(1 0 0 -1 0 828)">
		<stop  offset="0" style="stop-color:#C0BFF6"/>
		<stop  offset="0.2938" style="stop-color:#C5C4F7"/>
		<stop  offset="0.6399" style="stop-color:#D3D2F9"/>
		<stop  offset="1" style="stop-color:#E9E9FD"/>
	</linearGradient>
	<path class="st8" d="M671.8,591.1l1.8-1c0.2-0.1,0.5-0.1,0.9,0.1l76.4,44.2c0.7,0.5,1.4,1.6,1.4,2.6l-0.1,64.8
		c0,0.6-0.2,0.9-0.5,1.1l-1.8,1l-0.1-6.4l-71.3-41.3c-0.7-0.5-1.4-1.6-1.4-2.6l0.1-59.5c-0.1,0.4-0.2,0.6-0.2,0.6
		C676.9,594.9,671.8,591.1,671.8,591.1z"/>
	
		<linearGradient id="SVGID_4_" gradientUnits="userSpaceOnUse" x1="745.4122" y1="187.017" x2="745.4162" y2="193.444" gradientTransform="matrix(1 0 0 -1 0 828)">
		<stop  offset="0" style="stop-color:#C0BFF6"/>
		<stop  offset="0.2938" style="stop-color:#C5C4F7"/>
		<stop  offset="0.6399" style="stop-color:#D3D2F9"/>
		<stop  offset="1" style="stop-color:#E9E9FD"/>
	</linearGradient>
	<path class="st9" d="M752.2,636.6l-11.3,4.4l-2.3-1.3l12.5-5.1C751.7,635,752.1,635.8,752.2,636.6z"/>
	
		<linearGradient id="SVGID_5_" gradientUnits="userSpaceOnUse" x1="696.0069" y1="154.7804" x2="725.6855" y2="206.1033" gradientTransform="matrix(1 0 0 -1 0 828)">
		<stop  offset="0" style="stop-color:#C0BFF6"/>
		<stop  offset="0.2938" style="stop-color:#C5C4F7"/>
		<stop  offset="0.6399" style="stop-color:#D3D2F9"/>
		<stop  offset="1" style="stop-color:#E9E9FD"/>
	</linearGradient>
	<path class="st10" d="M672.6,659.7l76.4,44.2c0.7,0.5,1.4,0,1.4-1l0.1-64.8c0-1-0.6-2.2-1.4-2.6l-76.4-44.2c-0.7-0.5-1.4,0-1.4,1
		l-0.1,64.8C671.2,658,671.9,659.2,672.6,659.7z"/>
	<path class="st11" d="M749.2,635.4l-76.4-44.2c-0.5-0.3-0.9-0.2-1.1,0.1c0.2-0.1,0.5,0,0.7,0.1l76.4,44.2c0.7,0.5,1.4,1.6,1.4,2.6
		l-0.1,64.8c0,0.4-0.1,0.7-0.3,0.9c0.4-0.1,0.6-0.5,0.6-1.2l0.1-64.8C750.5,637,749.9,635.8,749.2,635.4z"/>
	
		<linearGradient id="SVGID_6_" gradientUnits="userSpaceOnUse" x1="752.9845" y1="182.9649" x2="667.2095" y2="176.8919" gradientTransform="matrix(1 0 0 -1 0 828)">
		<stop  offset="0" style="stop-color:#2C78F6"/>
		<stop  offset="1" style="stop-color:#00BFE7"/>
	</linearGradient>
	<path class="st12" d="M672.4,658.2l76.9,44.5l0.1-64.9l-76.8-44.5L672.4,658.2z"/>
	
		<linearGradient id="SVGID_7_" gradientUnits="userSpaceOnUse" x1="685.6081" y1="185.6615" x2="742.1701" y2="153.0055" gradientTransform="matrix(1 0 0 -1 0 828)">
		<stop  offset="0" style="stop-color:#080545"/>
		<stop  offset="7.487190e-02" style="stop-color:#163D6B"/>
		<stop  offset="0.1539" style="stop-color:#23718E"/>
		<stop  offset="0.2318" style="stop-color:#2E9BAC"/>
		<stop  offset="0.3068" style="stop-color:#37BDC2"/>
		<stop  offset="0.3781" style="stop-color:#3DD5D3"/>
		<stop  offset="0.4442" style="stop-color:#41E3DD"/>
		<stop  offset="0.5" style="stop-color:#42E8E0"/>
		<stop  offset="0.5526" style="stop-color:#41E3DC"/>
		<stop  offset="0.6187" style="stop-color:#3DD3D2"/>
		<stop  offset="0.6919" style="stop-color:#36B9C0"/>
		<stop  offset="0.7704" style="stop-color:#2D96A8"/>
		<stop  offset="0.853" style="stop-color:#226889"/>
		<stop  offset="0.9377" style="stop-color:#143063"/>
		<stop  offset="1" style="stop-color:#080344"/>
	</linearGradient>
	<path class="st13" d="M709.5,668c-0.4,0-0.9-0.1-1.3-0.4l-6.8-4c-1.6-0.9-2.9-3.2-2.9-5v-2c0-1.7-1.2-3.8-2.7-4.7l-6.7-3.9
		c-0.7-0.4-1.3-0.5-1.8-0.2c-0.5,0.3-0.7,0.9-0.7,1.6v12.6c0,0.9-0.3,1.6-0.9,2c-0.6,0.3-1.4,0.3-2.2-0.2l-7.8-4.5l0.2-0.3l7.8,4.5
		c0.7,0.4,1.3,0.5,1.8,0.2c0.5-0.3,0.7-0.9,0.7-1.6v-12.6c0-0.9,0.3-1.6,0.9-2c0.6-0.3,1.4-0.3,2.2,0.2l6.7,3.9
		c1.6,0.9,2.9,3.2,2.9,5v2c0,1.7,1.2,3.8,2.7,4.7l6.8,4c0.7,0.4,1.3,0.5,1.8,0.2c0.5-0.3,0.7-0.9,0.7-1.6v-14.4c0-0.9,0.3-1.6,0.9-2
		c0.6-0.3,1.4-0.3,2.2,0.2l7.6,4.4c0.7,0.4,1.3,0.5,1.8,0.2c0.5-0.3,0.7-0.9,0.7-1.6v-7.4c0-0.9,0.3-1.6,0.9-2
		c0.6-0.3,1.4-0.3,2.2,0.2l7.9,4.5c1.6,0.9,2.9,3.2,2.9,5c0,1.7,1.2,3.8,2.7,4.7l8.7,5.1l-0.2,0.3l-8.7-5.1c-1.6-0.9-2.9-3.2-2.9-5
		c0-1.7-1.2-3.8-2.7-4.7l-7.9-4.5c-0.7-0.4-1.3-0.5-1.8-0.2c-0.5,0.3-0.7,0.9-0.7,1.6v7.4c0,0.9-0.3,1.6-0.9,2
		c-0.6,0.3-1.4,0.3-2.2-0.2l-7.6-4.4c-0.7-0.4-1.3-0.5-1.8-0.2c-0.5,0.3-0.7,0.9-0.7,1.6v14.4c0,0.9-0.3,1.6-0.9,2
		C710.1,668,709.8,668,709.5,668z"/>
	<path class="st14" d="M655.1,660.3c0,0,1,0.2,1.4,0c0.4-0.2,1.4-0.3,2.5,0.1c1.1,0.4,1.1,0.3,1.5,0.4c0.5,0.1,1.2,0.1,1.4,0.2
		c0.2,0.2,0.7,0.5,0.3,1c-0.4,0.6-2,0.1-2.3,0c-0.3-0.1-0.5,0.4-0.4,0.8c0.1,0.4,2.5,3,2.9,3.3c0.4,0.3,2,1.3,2.1,1.8
		c0.1,0.4,0,0.5,0,0.5s0.5,0.4,0.3,0.8c-0.2,0.4-0.9-0.2-1-0.1c0,0,0.1,0.5-0.1,0.5c-0.2,0.1-1.2-0.3-1.4-0.5c0,0-0.1,0.3-0.7,0
		c-0.6-0.3-2.9-1.7-3.2-1.9c-0.3-0.2-1.1-1.1-1.6-1.3c-0.4-0.2-1-1-1.3-1.3c-0.3-0.3-1.7-1-2.3-1.1
		C652.8,663.5,655.1,660.3,655.1,660.3z"/>
	<path class="st15" d="M656.9,665.1c-0.5-1-2.3-1.7-2.3-1.7c0.1-0.8,1.3-3,1.3-3c-0.4,0-0.8-0.1-0.8-0.1s-2.3,3.2-1.8,3.3
		c0.6,0.1,2,0.8,2.3,1.2c0.3,0.3,1,1.1,1.3,1.3c0.4,0.2,1.3,1.1,1.6,1.3c0.3,0.2,2.6,1.6,3.2,1.9c0.6,0.3,0.7,0,0.7,0
		c0.1,0.1,1.2,0.5,1.4,0.5c0.2-0.1,0.1-0.5,0.1-0.5s-0.7-0.4-1.5-0.7C661.6,668.2,657.5,666.1,656.9,665.1z"/>
	<path class="st14" d="M653.4,656.8c0,0,0.2,1.2,0.2,2.1c-0.1,1-2-0.3-2-0.5c0.1-0.2,0.9-1.6,0.9-1.6L653.4,656.8z"/>
	<path class="st16" d="M644.9,627.8c0,0,1.1-0.1,2.4,2.1c1.3,2.1,3.4,9.4,4.6,12.3c0.1,0.2,0.2,0.5,0.2,0.8
		c0.4,2.2,2.1,12.6,2.2,13.8c0,0-1.3,0.9-2.2,1.1l-1.9-0.6l-1.9-18.8l-3-9.9L644.9,627.8z"/>
	<path class="st17" d="M638.9,689.7c0,0-0.3,1.7-0.2,2.1c0.2,0.3,2.5,2.9,2.7,3.2c0.2,0.3,1.4,2.4,3.6,2.9c2.1,0.5,3.6,0.4,3.9-0.6
		c0.3-1-1-2.7-1.6-3.2c-0.6-0.5-3-3.4-3.5-3.9c-0.5-0.4-1.1-0.5-1.1-0.5l-2.8,0.5L638.9,689.7z"/>
	<path class="st17" d="M647.6,684.6c0,0,2.1,0.8,3.3,1.1c1.1,0.3,3.8,2.3,3.7,3.3c-0.1,1-1.3,1.7-2.7,1.6c-1.3-0.1-2.9-1-3.2-1.2
		c-0.2-0.2-1.1-0.7-2.2-1.1c-1.1-0.3-2.9-0.5-3.2-1.1c-0.3-0.6-0.3-1.8-0.3-1.8L647.6,684.6z"/>
	<path class="st3" d="M642.8,684.2c0-0.1,0.1-0.3,0.1-0.3c0.1-0.5,0-2.7,0-2.7l-0.5,0.6c0,0,0.3,2.2,1,5.5c0.2,0.9,0.6,1.7,0.7,2.2
		c0.2,1.4-0.7,1.7-0.7,1.7c-1.7,1.3-3.2,0.5-3.7,0.1c-0.5-0.4-0.7-1.1-1.4-3.5c-0.7-2.4-1.4-7.5-1.2-8.7c0.1-1.1,0.5-4.1,0.5-6.1
		c0-2.1-1.6-8.6-1.6-8.6l6.5-1.3l4.4-2.3l3.4,0.5c0,0,0.4-1.4,0.9,3c0.5,4.5-2.3,12.5-2.3,12.5c-0.7,4-0.9,8.5-1.3,9.1
		c-0.4,0.6-2,2.1-3.5,0.9c-0.3-0.2-0.6-0.4-0.7-0.6L642.8,684.2z"/>
	<path class="st18" d="M642.3,681.8c0,0,2.1-5.8,3.2-11.4c1-5.5,2.7-6.3,3.4-7.3c0,0,1.1,0.5,1.7,0.6c0.1,0,0.1,0,0.2,0
		c0.5,0-2.4,3.6-2.9,4.5c-0.5,0.9-3.4,8.7-3.7,9.8c-0.2,1.1-0.4,8.7-0.2,9.1c0.2,0.5-0.8-0.3-0.8-0.3S642.5,685,642.3,681.8z"/>
	<path class="st18" d="M647.9,661.1l-1.1-0.2l-4.4,2.3l-6.5,1.3c0,0,1.6,6.6,1.6,8.6c0,2.1-0.3,5.1-0.5,6.1
		c-0.2,1.2,0.5,6.3,1.2,8.7c0.3,1,0.5,1.8,0.7,2.3c0.3,1.4,1.3,1.6,1.3,1.6s-2.5-7.9-2.3-12.5c0.2-4.5,0.9-8.3,0.7-9.2
		c0,0,7.4-2.3,8.8-7.1C647.6,662.2,647.8,661.6,647.9,661.1z"/>
	<path class="st19" d="M635.1,628.8c0,0-0.5,0.5-0.6,0.9c-0.1,0.5-0.7,2.1-0.7,2.1s-3.1,4.1-3.6,5.3c-0.6,1.3-0.7,2.2-0.7,2.2
		l8.2,10.1c0,0-2.9,9.9-2.1,13.5c0.8,3.6,1.8,5,3.2,5.4c1.3,0.4,8.2-2.4,8.7-6c0.5-3.6,0.3-4,0.3-4s3.2,0.9,3.4,0.1
		c0.2-0.8-0.4-6.7-0.6-7.5c-0.2-0.9-0.6-10.1-0.6-10.1s-2-8.6-2.1-9c-0.1-0.4-1.3-3.6-2.9-3.9c-1.6-0.2-3.5,2.3-3.5,2.3L635.1,628.8
		z"/>
	<path class="st20" d="M635.5,628.5c0,0-0.3,0.2-0.4,0.6c-0.1,0.3-0.3,1,0.2,1.8c0.6,0.7,5.3,4.6,7.2,7.8c2,3.3,4.3,6.9,4.5,7.6
		c0,0,0.9-5.2,0.1-7.5c-0.8-2.4-3.3-7.2-3.8-7.5c-0.5-0.3-3.8-0.7-3.8-0.7L635.5,628.5z"/>
	<path class="st21" d="M640.3,633.7c0,0-0.2,0.4-0.3,0.7c0,0-1.4-0.7-2-1l2.1,1.4c0,0,0.1-0.7,0.2-0.9c0,0,1.2,0.9,1.4,1.3
		c0.2,0.4,2.4,6,2.4,6l1.1,1.9l0.3-0.5l-1.9-5.2c0,0-1.1-1.6-1.1-1.7c0-0.1-0.7-1.8-0.7-1.8L640.3,633.7z"/>
	<path class="st22" d="M640.3,633.7c0,0,0.7-1.3,2.1-1.3c0,0,0.4,1.6,0.5,2.2c0,0-0.9,0.4-1.2,0.1
		C641.3,634.5,640.3,633.7,640.3,633.7z"/>
	<path class="st22" d="M642.7,634.3c0,0,3.4,4.3,4.7,9.4l-0.2,2.6l-1.8-3.3c0,0-3-7.5-3.7-8.9C640.9,633,642.7,634.3,642.7,634.3z"
		/>
	<path class="st16" d="M636.9,651.5c-0.2,0.9-0.5,2.1-0.7,3.3c0,0,5.1,6.7,10.2,9.4c0.5-0.6,0.8-1.3,0.9-2c0.2-1.9,0.3-2.9,0.3-3.4
		l-5.8-4.4L636.9,651.5z"/>
	<path class="st16" d="M636.6,641.6c0,0,1.5,2,1.9,2.2c0.4,0.2,3.6,5.8,4.3,6.9c0.6,1.1,2.4,2.5,2.4,2.5l-1.6,0.2l-6.4-8.6
		L636.6,641.6z"/>
	<path class="st19" d="M637.5,643.4c-0.6-1.6-1.7-3-2.9-4.1c-1.5-1.3-3.4-2.4-4.4-1.4c-1.8,1.9-1,5.5,1.5,8.9c2.5,3.4,6.6,8.2,7.5,9
		c0.9,0.8,8.6,6.6,13.1,8.8c0.3,0.2,0.7,0.1,0.9-0.3c0.6-1,1.9-3.1,2.4-4c0.1-0.2,0.1-0.4-0.1-0.5c-1.6-1-9.7-6.3-12.1-7.9
		c-0.3-0.2-0.7-0.6-0.9-1c-0.7-1.4-2.5-4.7-4.1-6.4C637.9,644.2,637.6,643.9,637.5,643.4C637.5,643.5,637.5,643.4,637.5,643.4z"/>
	<path class="st16" d="M643.4,629.6l2.8,2.9l-0.7,0.2l0.9,0.5c0,0,2.2,5.3,1.8,11.4c0,0,1.1-4.8-1.3-11.6l-0.7-0.4l0.5-0.2
		L643.4,629.6z"/>
	<path class="st23" d="M635.4,628c0.1,0.1,0.1,0.2,0.1,0.3c0,0.2-0.1,0.7,0,0.9c0.1,0.3,1.8,3.3,5.5,3.3c0,0,0.5-0.6,0.5-0.8
		c0,0,1.5-0.1,2.1-0.6c0.6-0.5,0.2-1.5,0.2-1.5l0.1-1.2c0-0.1,0.1-0.3,0.2-0.3c0.1-0.1,0.3-0.3,0.3-0.5c0.1-0.1-0.1-0.3-0.1-0.5
		c-0.1-0.1-0.1-0.2-0.1-0.3c0.1-0.3,0.1-0.9-0.1-1.7c-0.1-0.2-0.1-0.5,0-0.7c0.1-0.3,0.2-0.9,0.2-1.1c0-0.3-0.5-1.1-0.5-1.4
		c0-0.3-0.5-1.4-0.5-1.4s-2.7-5-7.1-2.8c-4.4,2.2-2.1,6.9-1.6,8.2c0,0,0.5,1.1,0.6,1.3C635.3,627.6,635.3,627.7,635.4,628z"/>
	<path class="st24" d="M643.7,621.3c0.1,0.3-0.1,0.7-0.3,0.9c-0.5,0.5-1.6,1.2-3,1.4c-1,0.1-1.5,0.2-1.8,0.2c-0.2,0-0.3,0.2-0.3,0.3
		c0,0.3-0.1,0.9-0.1,1.3c0,0.2-0.1,0.3-0.1,0.4l-0.3,0.6c-0.1,0.2-0.2,0.3-0.4,0.2h-0.1c-0.2,0-0.3-0.2-0.4-0.3
		c-0.1-0.5-0.3-1-0.8-1.2c-0.2-0.1-0.5-0.2-0.7-0.1c-0.7,0.3-0.5,1-0.5,1s-0.9-1.1-1.3-2.5c-0.4-1.4-0.3-4.1,1.6-5.5
		c1.9-1.4,4.4-1.9,6.4-0.5C643.2,619,643.6,620.5,643.7,621.3z"/>
	<path class="st25" d="M636.5,627.4c-0.1-0.1,0,0.9-1,0.9c0,0.2-0.1,0.7,0,0.9c0.1,0.3,1.8,3.3,5.5,3.3c0,0,0.5-0.6,0.5-0.8
		c0,0-3.3-1.6-3.9-2.4C636.9,628.7,636.6,627.6,636.5,627.4z"/>
	<path class="st21" d="M642.4,632.4c0,0,1,0.1,1.4,0.3c0,0,0.1-0.5-0.1-1.1c0,0,0.3,0.2,0.3,1.4c0,0-1.4-0.5-1.6-0.5L642.4,632.4z"
		/>
	<path class="st16" d="M653.4,663.5c0,0-8.4-4.8-11.3-6.8c-2.8-1.9-10.8-10.1-12.4-13.2c0.4,1,1,2.1,1.8,3.2c2.5,3.4,6.6,8.2,7.5,9
		c0.9,0.8,8.6,6.6,13.1,8.8c0.3,0.2,0.7,0.1,0.9-0.3C653.2,664.1,653.4,663.8,653.4,663.5C653.4,663.6,653.4,663.5,653.4,663.5z"/>
	<path class="st16" d="M634.1,632l3.8,5.5l1-0.3l0.1,1c0,0,4.6,3.4,8,10.5c0,0-4.5-7.4-8.2-9.8l-0.3-1l-0.7,0.2L634.1,632z"/>
	<path class="st26" d="M633.7,624.4c-0.1,0-0.1,0-0.1-0.1c0.5,1.1,1.1,1.9,1.1,1.9s-0.3-0.7,0.5-1c0.3-0.1,0.5-0.1,0.7,0.1
		c0.5,0.2,0.7,0.7,0.8,1.2c0,0.2,0.2,0.3,0.4,0.3h0.1c0.2,0,0.3-0.1,0.4-0.2l0.3-0.6c0.1-0.1,0.1-0.3,0.1-0.4
		c0.1-0.3,0.1-0.9,0.1-1.3C638.2,624.2,635.6,625,633.7,624.4z"/>
	<path class="st27" d="M682.7,627.3l-1.9-1.1v3.6l1.9,1.1V627.3z"/>
	<path class="st28" d="M686.1,635.9l-1.9-1.1v-3l1.9,1.1V635.9z"/>
	<path class="st29" d="M689.4,632.2l-1.9-1.1v2.7l1.9,1.1V632.2z"/>
	<path class="st30" d="M692.8,631.4l-1.9-1.1v5.4l1.9,1.1V631.4z"/>
	<path class="st30" d="M696.2,631l-1.8-1.1v7.7l1.8,1.1V631z"/>
	<path class="st29" d="M699.5,635.3l-1.9-1.1v5.3l1.9,1.1V635.3z"/>
	<path class="st28" d="M702.9,635.9l-1.9-1.1v6.7l1.9,1.1V635.9z"/>
	<path class="st27" d="M706.3,634.9l-1.9-1.1v9.7l1.9,1.1V634.9z"/>
	<path class="st27" d="M739.1,691.2c0.5,0.3,0.8,0.1,0.8-0.3v-19.3c0-0.5-0.3-1-0.8-1.3c-0.5-0.3-0.8-0.1-0.8,0.3V690
		C738.3,690.4,738.6,691,739.1,691.2z"/>
	<path class="st28" d="M736.2,689.6c0.5,0.3,0.8,0.1,0.8-0.3v-12.6c0-0.5-0.3-1-0.8-1.3c-0.5-0.3-0.8-0.1-0.8,0.3v12.6
		C735.3,688.7,735.7,689.3,736.2,689.6z"/>
	<path class="st29" d="M733.2,687.9c0.5,0.3,0.8,0.1,0.8-0.3v-16.9c0-0.5-0.3-1-0.8-1.3c-0.5-0.3-0.8-0.1-0.8,0.3v16.9
		C732.4,687,732.8,687.6,733.2,687.9z"/>
	<path class="st30" d="M730.3,686.2c0.5,0.3,0.8,0.1,0.8-0.3v-10.5c0-0.5-0.3-1-0.8-1.3c-0.5-0.3-0.8-0.1-0.8,0.3v10.5
		C729.5,685.4,729.9,685.9,730.3,686.2z"/>
	<path class="st30" d="M727.4,684.5c0.5,0.3,0.8,0.1,0.8-0.3v-11.5c0-0.5-0.3-1-0.8-1.3c-0.5-0.3-0.8-0.1-0.8,0.3v11.5
		C726.6,683.6,727,684.2,727.4,684.5z"/>
	<path class="st29" d="M724.5,682.8c0.5,0.3,0.8,0.1,0.8-0.3v-7.6c0-0.5-0.3-1-0.8-1.3c-0.5-0.3-0.8-0.1-0.8,0.3v7.6
		C723.7,682,724,682.6,724.5,682.8z"/>
	<path class="st28" d="M721.6,681.1c0.5,0.3,0.8,0.1,0.8-0.3v-9.3c0-0.5-0.3-1-0.8-1.3c-0.5-0.3-0.8-0.1-0.8,0.3v9.3
		C720.7,680.3,721.1,680.9,721.6,681.1z"/>
	<path class="st27" d="M718.7,679.5c0.5,0.3,0.8,0.1,0.8-0.3v-3.4c0-0.5-0.3-1-0.8-1.3c-0.5-0.3-0.8-0.1-0.8,0.3v3.4
		C717.8,678.6,718.2,679.2,718.7,679.5z"/>
	<path class="st1" d="M617.6,732.3l-3.7,5.5l-2.9-6L617.6,732.3z"/>
	<path class="st1" d="M623.8,665.2l-3.9-5.4l6.6-0.6L623.8,665.2z"/>
	<path class="st1" d="M770.5,730.9l4,5.3l-6.6,0.9L770.5,730.9z"/>
	<path class="st31" d="M707.9,803.2c2.3-1.3,3.1-3.6,2.2-5.7l-1.7,1c0.4,1.2-0.1,2.5-1.4,3.2c-1.7,1-3.5,0.2-4.8-2
		c-1.3-2.2-1-4.2,0.6-5.1c1.2-0.7,2.6-0.5,3.5,0.5l1.7-1c-1.4-1.9-3.9-2.4-6.1-1.1c-2.8,1.6-3.3,4.5-1.5,7.7
		C702.2,803.9,705.1,804.8,707.9,803.2z M713.7,799.6l1.7-1l-2.5-4.3c-0.6-1.1-0.4-2.1,0.7-2.8c1-0.6,1.8-0.3,2.5,0.8l2.5,4.4l1.7-1
		l-2.8-4.8c-1-1.8-2.6-2.2-4.1-1.3c-1.1,0.6-1.6,1.6-1.5,2.6l-0.1,0.1l-2.3-4.1l-1.7,1L713.7,799.6z M724.1,792
		c-0.7,0.4-1.5,0.4-1.9-0.3c-0.3-0.6-0.1-1.2,0.8-1.8l1.6-1.1l0.3,0.6C725.5,790.3,725.1,791.4,724.1,792z M724.3,793.6
		c1-0.6,1.5-1.4,1.5-2.4l0.1-0.1l0.6,1l1.6-0.9l-2.9-5.1c-0.9-1.6-2.5-1.9-4.4-0.8c-1.8,1-2.5,2.6-1.9,3.9l1.6-0.9
		c-0.1-0.6,0.2-1.2,1-1.6c0.9-0.5,1.6-0.4,2,0.3l0.4,0.6l-1.8,1.2c-1.7,1.1-2.3,2.5-1.5,3.8C721.4,794.1,722.9,794.4,724.3,793.6z
		 M730.2,790l1.7-1l-2.5-4.3c-0.6-1.1-0.4-2.1,0.6-2.7c1-0.6,1.8-0.3,2.5,0.8l2.5,4.4l1.7-1l-2.8-4.8c-1-1.8-2.5-2.2-4.1-1.3
		c-1.1,0.6-1.6,1.6-1.4,2.6l-0.1,0.1l-0.7-1.2l-1.6,0.9L730.2,790z M738.7,785.1l1.7-1l-2.5-4.3c-0.6-1.1-0.4-2.1,0.6-2.7
		c1-0.6,1.8-0.3,2.5,0.8l2.5,4.4l1.7-1l-2.8-4.8c-1-1.8-2.5-2.2-4.1-1.3c-1.1,0.6-1.6,1.6-1.4,2.6l-0.1,0.1l-0.7-1.2l-1.6,0.9
		L738.7,785.1z M746.7,772.2c1-0.6,2.1-0.3,2.7,0.8l-3.5,2C745.4,773.9,745.7,772.8,746.7,772.2z M750.8,775.4
		c0.1,0.7-0.3,1.3-1.2,1.8c-1.1,0.6-2.3,0.3-3-0.9l-0.1-0.1l5.2-3l-0.3-0.5c-1.3-2.3-3.4-3-5.5-1.8c-2.1,1.2-2.6,3.5-1.2,5.9
		c1.4,2.4,3.5,3.1,5.7,1.8c1.7-1,2.5-2.6,2-4.1L750.8,775.4z M755.4,775.5l1.7-1l-5.9-10.3l-1.7,1L755.4,775.5z M757.4,761.3
		l5.6,9.8l1.7-1l-1.8-3.2l2.1-1.2c2-1.1,2.6-3.3,1.5-5.2c-1.1-2-3.2-2.5-5.2-1.4L757.4,761.3z M760,761.7l1.7-1
		c1.3-0.7,2.3-0.5,3,0.7c0.7,1.2,0.3,2.2-0.9,3l-1.7,1L760,761.7z M773.6,763.4c-0.7,0.4-1.5,0.4-1.9-0.3c-0.3-0.6-0.1-1.2,0.8-1.8
		l1.6-1.1l0.3,0.6C775,761.7,774.6,762.8,773.6,763.4z M773.9,765c1-0.6,1.5-1.4,1.5-2.4l0.1-0.1l0.6,1l1.6-0.9l-2.9-5.1
		c-0.9-1.6-2.5-1.9-4.4-0.8c-1.8,1-2.5,2.6-1.9,3.9l1.6-0.9c-0.1-0.6,0.2-1.2,1-1.6c0.9-0.5,1.6-0.4,2,0.3l0.4,0.6l-1.8,1.2
		c-1.7,1.1-2.3,2.5-1.5,3.8C770.9,765.5,772.5,765.8,773.9,765z M779.8,761.4l1.7-1l-2.5-4.3c-0.6-1-0.2-2.2,0.9-2.8
		c0.3-0.2,0.8-0.4,0.9-0.4l-0.9-1.6c-0.2,0-0.5,0.2-0.7,0.3c-1,0.6-1.4,1.6-1.2,2.4l-0.1,0.1l-0.7-1.2l-1.6,0.9L779.8,761.4z
		 M781.1,748.4l1.1,1.9l-1.2,0.7l0.8,1.3l1.2-0.7l2.3,4c0.8,1.4,1.8,1.6,3.5,0.6c0.3-0.2,0.6-0.4,0.8-0.6l-0.8-1.3
		c-0.2,0.1-0.3,0.2-0.5,0.4c-0.7,0.4-1.2,0.3-1.6-0.5l-2.1-3.6l1.6-0.9l-0.8-1.3l-1.6,0.9l-1.1-1.9L781.1,748.4z M791.3,754.7l1.7-1
		l-2.5-4.3c-0.6-1.1-0.4-2.1,0.6-2.7c1-0.6,1.8-0.3,2.5,0.8l2.5,4.4l1.7-1l-2.8-4.8c-1-1.8-2.5-2.2-4.1-1.3
		c-1.1,0.6-1.6,1.6-1.4,2.6l-0.1,0.1l-0.7-1.2l-1.6,0.9L791.3,754.7z M799.3,741.8c1-0.6,2.1-0.3,2.7,0.8l-3.5,2
		C798,743.5,798.3,742.4,799.3,741.8z M803.5,745c0.1,0.7-0.3,1.3-1.2,1.8c-1.1,0.6-2.3,0.3-3-0.9l-0.1-0.1l5.2-3l-0.3-0.5
		c-1.3-2.3-3.4-3-5.5-1.8c-2.1,1.2-2.6,3.5-1.2,5.9c1.4,2.4,3.5,3.1,5.7,1.8c1.7-1,2.5-2.6,2-4.1L803.5,745z M808,745.1l1.7-1
		l-2.5-4.3c-0.6-1-0.2-2.2,0.9-2.8c0.3-0.2,0.8-0.4,0.9-0.4l-0.9-1.6c-0.2,0-0.5,0.2-0.7,0.3c-1,0.6-1.4,1.6-1.2,2.4l-0.1,0.1
		l-0.7-1.2l-1.6,0.9L808,745.1z"/>
	
		<linearGradient id="SVGID_8_" gradientUnits="userSpaceOnUse" x1="672" y1="45.258" x2="698.089" y2="45.258" gradientTransform="matrix(1 0 0 -1 0 828)">
		<stop  offset="0" style="stop-color:#C0D6FF"/>
		<stop  offset="0.2978" style="stop-color:#C5DBFF"/>
		<stop  offset="0.6488" style="stop-color:#D3E9FF"/>
		<stop  offset="1" style="stop-color:#E9FFFF"/>
	</linearGradient>
	<path class="st32" d="M693.8,781l4.3-5.8l-3.5,12.9l-13,2l-9.5-10.9L693.8,781z"/>
	
		<linearGradient id="SVGID_9_" gradientUnits="userSpaceOnUse" x1="680.2759" y1="58.9805" x2="689.8309" y2="42.4325" gradientTransform="matrix(1 0 0 -1 0 828)">
		<stop  offset="0" style="stop-color:#C0D6FF"/>
		<stop  offset="0.2978" style="stop-color:#C5DBFF"/>
		<stop  offset="0.6488" style="stop-color:#D3E9FF"/>
		<stop  offset="1" style="stop-color:#E9FFFF"/>
	</linearGradient>
	<path class="st33" d="M698.1,775.3l-9.5-5.5l-13,2l-3.5,7.5l9.5,5.5l13-2L698.1,775.3z"/>
	<path class="st11" d="M697.9,775.1l-3.4,7.2l-13,2l-9.3-5.4l-0.1,0.3l9.5,5.5l13-2l3.5-7.5L697.9,775.1z"/>
	
		<linearGradient id="SVGID_10_" gradientUnits="userSpaceOnUse" x1="681.543" y1="41.5065" x2="694.587" y2="41.5065" gradientTransform="matrix(1 0 0 -1 0 828)">
		<stop  offset="0" style="stop-color:#C0D6FF"/>
		<stop  offset="0.2978" style="stop-color:#C5DBFF"/>
		<stop  offset="0.6488" style="stop-color:#D3E9FF"/>
		<stop  offset="1" style="stop-color:#E9FFFF"/>
	</linearGradient>
	<path class="st34" d="M694.6,782.8v5.4l-13,2v-5.4L694.6,782.8z"/>
	
		<linearGradient id="SVGID_11_" gradientUnits="userSpaceOnUse" x1="694.603" y1="46.2585" x2="698.1" y2="46.2585" gradientTransform="matrix(1 0 0 -1 0 828)">
		<stop  offset="0" style="stop-color:#E9FFFF"/>
		<stop  offset="0.3512" style="stop-color:#D3E9FF"/>
		<stop  offset="0.7022" style="stop-color:#C5DBFF"/>
		<stop  offset="1" style="stop-color:#C0D6FF"/>
	</linearGradient>
	<path class="st35" d="M698.1,775.3v5.4l-3.5,7.5v-5.4L698.1,775.3z"/>
	
		<linearGradient id="SVGID_12_" gradientUnits="userSpaceOnUse" x1="672" y1="43.257" x2="681.554" y2="43.257" gradientTransform="matrix(1 0 0 -1 0 828)">
		<stop  offset="0" style="stop-color:#5778FF"/>
		<stop  offset="0.1779" style="stop-color:#5C7DFF"/>
		<stop  offset="0.3876" style="stop-color:#6A8AFF"/>
		<stop  offset="0.6134" style="stop-color:#82A0FF"/>
		<stop  offset="0.849" style="stop-color:#A3BEFF"/>
		<stop  offset="1" style="stop-color:#BCD5FF"/>
	</linearGradient>
	<path class="st36" d="M672,779.3v5.4l9.5,5.5v-5.4L672,779.3z"/>
	<path class="st37" d="M689.1,779.4c-2.2,1.3-5.9,1.3-8.1,0c-2.2-1.3-2.2-3.4,0-4.7c2.2-1.3,5.9-1.3,8.1,0
		C691.4,775.9,691.4,778,689.1,779.4z"/>
	<path class="st38" d="M681.2,775.1l-2.3-1.5l0.3-0.3l0.8,0.2L681.2,775.1z"/>
	<path class="st39" d="M691,759.5l-2.3-1.5l1.3,2.5L691,759.5z"/>
	<path class="st39" d="M690.3,770c2.7-4.3,2.1-9.6-1.5-11.9c-3.5-2.3-8.6-0.6-11.4,3.7c-2.7,4.3-2.1,9.6,1.5,11.9
		C682.5,775.9,687.6,774.2,690.3,770z"/>
	<path class="st39" d="M692.6,771.4c2.7-4.3,2.1-9.6-1.5-11.9c-3.5-2.3-8.6-0.6-11.4,3.7s-2.1,9.6,1.5,11.9
		C684.8,777.3,689.9,775.7,692.6,771.4z"/>
	<path class="st38" d="M678.2,770c0.3,2.1,1.3,4,3.1,5.1c3.5,2.3,8.6,0.6,11.4-3.7c1.3-2.1,1.9-4.5,1.6-6.6L678.2,770z"/>
	<path class="st40" d="M692.3,771.2c2.6-4.1,2-9.1-1.4-11.3c-3.4-2.2-8.2-0.6-10.9,3.5c-2.6,4.1-2,9.1,1.4,11.3
		C684.9,776.9,689.7,775.3,692.3,771.2z"/>
	<path class="st22" d="M691.1,770.5c2.1-3.3,1.6-7.3-1.1-9.1c-2.7-1.7-6.6-0.5-8.7,2.8c-2.1,3.3-1.6,7.3,1.1,9.1
		C685.1,775,689,773.8,691.1,770.5z"/>
	<path class="st39" d="M690,761.4c-0.1-0.1-0.2-0.2-0.3-0.2c2.4,1.8,2.8,5.7,0.8,8.9c-2,3.2-5.7,4.4-8.4,3c0.1,0.1,0.2,0.2,0.3,0.2
		c2.7,1.7,6.6,0.5,8.7-2.8C693.2,767.2,692.7,763.1,690,761.4z"/>
	<path class="st39" d="M687.3,766.4l-1.8,0.6c-0.5,1.3-1.3,3.8-2,5.8c1.5,0.3,3.2-0.2,4.6-1.2L687.3,766.4z"/>
	<path class="st39" d="M689.4,770.3c0.2-0.2,0.3-0.4,0.4-0.6c0.9-1.4,1.3-3,1.1-4.5l-3,1L689.4,770.3z"/>
	<path class="st39" d="M683.5,767.7l-3.4,1.1c0.2,1.2,0.5,2.3,1.3,3L683.5,767.7z"/>
	<path class="st38" d="M681.7,764.9c2.1-3.3,6-4.5,8.7-2.8c0.5,0.3,1,0.8,1.4,1.3c-0.4-0.8-1-1.5-1.8-2c-2.7-1.7-6.6-0.5-8.7,2.8
		c-1.7,2.6-1.7,5.7-0.2,7.8C680,770,680.2,767.2,681.7,764.9z"/>
	<path class="st38" d="M679,773.6c0.5,0.3,1.1,0.6,1.7,0.8c-0.4-0.5-1-1.2-1-1.2l-0.9-1.3l-0.1-0.7l-0.1-1.2l-2.7-1.7
		C676,770.4,677.1,772.4,679,773.6z"/>
	<path class="st38" d="M688.9,758.8l-1.3-0.8c0,0-0.1-0.1,0-0.2v0c0,0,0.1-0.1,0.2,0l1.3,0.8c0,0,0.1,0.1,0,0.2v0
		C689,758.9,689,758.9,688.9,758.8z"/>
	<path class="st38" d="M687.1,758.7l-1.6-1c-0.1,0-0.1-0.1,0-0.2l0-0.1c0-0.1,0.1-0.1,0.2,0l1.6,1c0.1,0,0.1,0.1,0,0.2l0,0.1
		C687.2,758.7,687.2,758.7,687.1,758.7z"/>
	<path class="st38" d="M685.3,758.9l-1.5-1c-0.1,0-0.1-0.1,0-0.2l0.1-0.1c0-0.1,0.1-0.1,0.2,0l1.5,1c0.1,0,0.1,0.1,0,0.2l-0.1,0.1
		C685.4,758.9,685.3,759,685.3,758.9z"/>
	<path class="st38" d="M683.4,759.7l-1.7-1.1c-0.1,0-0.1-0.1,0-0.2l0.1-0.1c0-0.1,0.1-0.1,0.2,0l1.7,1.1c0.1,0,0.1,0.1,0,0.2
		l-0.1,0.1C683.5,759.8,683.5,759.8,683.4,759.7z"/>
	<path class="st38" d="M681.8,760.8l-1.8-1.2c-0.1,0-0.1-0.1,0-0.2l0.1-0.1c0-0.1,0.1-0.1,0.2,0l1.8,1.2c0.1,0,0.1,0.1,0,0.2
		l-0.1,0.1C682,760.8,681.9,760.8,681.8,760.8z"/>
	<path class="st38" d="M680.6,762l-1.8-1.1c-0.1,0-0.1-0.1,0-0.2l0.1-0.1c0-0.1,0.1-0.1,0.2,0l1.8,1.1c0.1,0,0.1,0.1,0,0.2l-0.1,0.1
		C680.7,762,680.7,762,680.6,762z"/>
	<path class="st38" d="M679.5,763.3l-1.8-1.1c-0.1,0-0.1-0.1,0-0.2l0.1-0.1c0-0.1,0.1-0.1,0.2,0l1.8,1.1c0.1,0,0.1,0.1,0,0.2
		l-0.1,0.1C679.7,763.4,679.6,763.4,679.5,763.3z"/>
	<path class="st38" d="M678.7,764.8l-1.7-1.1c-0.1,0-0.1-0.1,0-0.2l0.1-0.1c0-0.1,0.1-0.1,0.2,0l1.7,1.1c0.1,0,0.1,0.1,0,0.2
		l-0.1,0.1C678.8,764.8,678.8,764.9,678.7,764.8z"/>
	<path class="st38" d="M678.1,766.5l-1.7-1.1c-0.1,0-0.1-0.1,0-0.2l0.1-0.1c0-0.1,0.1-0.1,0.2,0l1.7,1.1c0.1,0,0.1,0.1,0,0.2
		l-0.1,0.1C678.3,766.5,678.2,766.5,678.1,766.5z"/>
	<path class="st38" d="M677.9,768.4l-1.8-1.1c-0.1,0-0.1-0.1,0-0.2l0.1-0.1c0-0.1,0.1-0.1,0.2,0l1.8,1.1c0.1,0,0.1,0.1,0,0.2
		l-0.1,0.1C678,768.4,678,768.4,677.9,768.4z"/>
	<path class="st14" d="M685,692.2c0,0-0.4,1.2-0.4,1.6c0.1,0.3,0.9,1.4,0.9,1.5c0.1,0.1,0.8,1,1.6,1.4c0.8,0.5,0.9,0.6,0.9,0.7
		c0.1,0,0.2-0.1,0.2-0.1s0.1-0.9-0.2-1.3c-0.3-0.4,0.2-1,0.2-1l-0.9-2.4L685,692.2z"/>
	<path class="st17" d="M693.8,718.6c0,0-1.4,0.3-2.8,0.4c-1.4,0.1-5.2,0.7-5.1,2.1c0.1,1.4,2,3.3,4.4,3.6c2.5,0.3,5.6-0.4,7.2-0.3
		c1.6,0.1,2.7-1.5,2.1-3C699.1,719.8,693.8,718.6,693.8,718.6z"/>
	<path class="st17" d="M702.1,715c0,0,0.5,0.8,0.2,1.3c-0.3,0.5-1,1.7-3.2,0.5c-2.2-1.2-6.5-2.9-6.5-2.9s-2.5-1.3-2.3-2.8
		c0.2-1.5,2.5-1.3,2.5-1.3L702.1,715z"/>
	<path class="st14" d="M677.5,660.8c0,0-1.4,0-2.1-0.3c-0.6-0.3-2.5-0.9-2.6-1c-0.1-0.1-1.1-0.1-1.6-0.5c0,0-0.5,0.2-0.1,0.7
		c0.4,0.4,1.2,0.6,1.2,0.6l0.7,0.5c0,0-1.5,0.7-1.6,0.8c-0.1,0.1-1.4,1-1.5,1.1c-0.1,0.1-0.7,0.5-0.5,0.9c0,0,0,0.1,0.3,0.2
		c0,0-0.8,0.3-0.6,0.7c0.2,0.4,0.7,0.2,0.7,0.2s0.2,0.7,1.1,0.2c0,0,0.1,0.9,2.2-0.1c0,0,0.9-0.2,1.5-0.2c0.6,0.1,2.4-0.4,3.3-1
		C678.9,663,677.5,660.8,677.5,660.8z"/>
	<path class="st15" d="M674.7,664.6c0.6,0.1,2.4-0.4,3.3-1c0.6-0.5,0.2-1.6-0.2-2.2c-0.5-0.2-0.8-0.4-0.8-0.4s0.1,2.1,0,2.5
		c-0.1,0.3-2,0.7-3.2,0.9c-1.2,0.2-2.9,0.6-2.9,0.6c0.1,0.2,0.5,0.6,2.2-0.1C673.2,664.9,674,664.6,674.7,664.6z"/>
	<path class="st19" d="M694.4,656.7c0,0-3,0.5-4.1,0.9c-1,0.3-9.7,2.1-12.9,2.8c-0.2,0.1-0.3,0.2-0.4,0.4c-0.1,0.2-0.1,0.3,0,0.5
		c0.1,0.3,0.4,4,2.2,3.4c0.5-0.2,2.1-0.5,3.3-0.7c1.3-0.2,6.6-0.6,6.6-0.6l9-5.2L694.4,656.7z"/>
	<path class="st3" d="M687.9,693.4c0,0,0.8,9.9,2.8,13.7c2,3.8,2.5,10.7,2.9,12c0.4,1.3,1.7,3.2,3.8,3.6c2.1,0.4,2.5-1,2.4-1.8
		c-0.1-0.8-0.6-2.2-0.6-3c0-0.9,0.2-1.3,0.3-1.7c0,0,2.4,0.7,2.8-1.1c0,0-0.2-0.5-0.2-0.8c0-0.3,0.3-6.8,0.5-7.6
		c0.1-0.8-0.3-5.1-0.9-7.2c-0.6-2.1-0.3-6.7-0.3-6.7l-6.9-1L687.9,693.4z"/>
	<path class="st19" d="M688.7,693.5c0,0,9.9,4.1,14.9-3.4c0.1-0.2,0.2-0.5,0.2-0.7v-1.8c0-0.2,0.1-0.5,0.1-0.6
		c0.2-0.5,0.2-0.9,0.1-1.4c-0.3-2-1.2-7.4-1.4-8.9c-0.2-1.8,0.9-9.3,2.6-12.4s-2.4-10.4-2.4-10.4s-1-1.7-3-1.1c0,0,2,1.4,0.8,2.8
		c-1.1,1.4-4.4,2.5-4.4,2.5s-6,3-8.1,6.7c0,0-0.7,1.9-0.8,4.4c-0.1,2.5,0.1,8.3-0.1,9.1s-0.5,6.4-0.5,6.6
		C687,684.9,688.7,693.5,688.7,693.5z"/>
	<path class="st19" d="M688.9,675.8c0.2-1.3,0.4-2.6,0.4-3.9c0.1-2.2,0.7-6,4.9-5.3c5.8,1,3.2,9,2.5,10.5c-0.7,1.4-3.3,7.7-3.4,8
		c-0.1,0.3-4.3,8.2-5.7,10c-0.1,0.2-0.3,0.2-0.5,0.1c-0.6-0.5-1.8-1.7-2-2.4c-0.2-0.9,0.7-4.3,0.7-4.3s2.4-8.5,2.6-8.9
		C688.4,679.3,688.5,677.9,688.9,675.8z"/>
	<path class="st23" d="M694,656.9c0,0-0.5-1.1-1.6-1.2c-1.1-0.1-1.7-0.5-1.8-0.9s-0.1-0.9-0.3-1.5c-0.2-0.6-0.5-2.1-0.5-2.1
		c0-0.1-0.8-0.3-0.9-0.6c-0.1-0.3,0.4-1.7,0.3-1.7c-0.1-0.1-0.5-0.9-0.4-1.5c0.1-0.6,0.2-1.5,0.5-2.2c0.3-0.7,2.7-5.3,8.7-2.8
		c6,2.5,1.3,7.5,1.8,10.7c0,0,0.5,0.7-0.5,1.8C698.6,656.1,695.7,656.3,694,656.9z"/>
	<path class="st25" d="M699.5,654.9c1-1.1,0.5-1.8,0.5-1.8c-0.1-0.5-0.1-0.9,0.1-1.4l-2.4,0.4c0,0-3.4-3.2-3.2-1.5
		c0.2,1.7-0.6,2-0.6,2l0.7,0.9c0.2,0.2,0.1,0.5-0.1,0.7c-1,1.7-3.4,1.1-3.4,1.1c0.3,0.2,0.8,0.3,1.5,0.5c1.1,0.1,1.6,1.2,1.6,1.2
		C695.7,656.3,698.6,656.1,699.5,654.9z"/>
	<path class="st24" d="M689.3,643.4c0,0-0.5,1.2,0.2,1.7c0.7,0.5,1.3,1,1.3,1l-0.1,1.6c0,0.2,0.1,0.5,0.2,0.6l0.8,1.3
		c0.2,0.2,0.2,0.6,0.2,0.9v0.6c0,0.2,0.1,0.3,0.3,0.3l0.2,0.1c0.2,0,0.4-0.1,0.4-0.3l0.1-0.9c0,0,0.5-0.7,1.4,0.2l0.9,0.4
		c0.2,0.1,0.5,0.3,0.5,0.6c0.2,0.7,0.7,2,1.1,2.2c0.5,0.3,2.6-0.7,2.9-1.2c0.3-0.5,1-3.6,1.5-5.1c0.5-1.5,0.3-5.2-4.1-6.2
		C692.8,640.3,689.9,642.1,689.3,643.4z"/>
	<path class="st26" d="M699.9,652.6c0.3-0.5,1-3.6,1.5-5.1c0,0-1.7,1.1-4,1.4c-2.2,0.3-6.6-2.3-6.6-2.3v1.2c0,0.2,0.1,0.5,0.2,0.6
		l0.8,1.3c0.2,0.2,0.2,0.6,0.2,0.9v0.6c0,0.2,0.1,0.3,0.3,0.3l0.2,0.1c0.2,0,0.4-0.1,0.4-0.3l0.1-0.9c0,0,0.5-0.7,1.4,0.2l1.3,0.5
		c0,0,0.7,2.4,1.3,2.6C697.5,654.1,699.6,653,699.9,652.6z"/>
	<path class="st16" d="M701,657.5c0,0-2.8,1.6-4.2,2.2c-1.4,0.7-2.9,1.6-2.9,1.6l-0.5-0.5l-0.6,1.4c0,0-2.2,1.3-3.2,2.3
		c-1,1-1.8,2.4-1.9,2.8c0,0,2.7-3.4,4.8-4.4l0.6-0.3l0.3-1.1l0.5,0.6C694,662,700.2,658.4,701,657.5z"/>
	<g class="st2">
		<path class="st3" d="M566.7,719.7l-21.2-12.2c-0.3-0.2-0.3-0.6,0.1-0.8l21-12.1c0.4-0.2,1-0.2,1.4,0l21.2,12.2
			c0.3,0.2,0.3,0.6-0.1,0.8l-21,12.1C567.6,719.9,567,719.9,566.7,719.7z"/>
	</g>
	<g class="st2">
		<path class="st3" d="M557.3,716.7l-21-12.1c-0.5-0.2-0.4-0.7,0.2-1l6.2-3.6l22.6,13l-6.2,3.6C558.5,716.9,557.7,716.9,557.3,716.7
			z"/>
	</g>
	<path class="st5" d="M587,700.2V696h-6.8l-15.1-8.7c-0.4-0.2-1-0.2-1.5,0l-15,8.7h-6.8v4.2c0,0.1,0.1,0.2,0.2,0.4l21.7,12.5
		c0.4,0.2,1,0.2,1.5,0l21.5-12.4C586.9,700.5,587,700.3,587,700.2z"/>
	
		<linearGradient id="SVGID_13_" gradientUnits="userSpaceOnUse" x1="582.45" y1="126.3559" x2="533.51" y2="141.6409" gradientTransform="matrix(1 0 0 -1 0 828)">
		<stop  offset="0" style="stop-color:#C0D6FF"/>
		<stop  offset="0.2978" style="stop-color:#C5DBFF"/>
		<stop  offset="0.6488" style="stop-color:#D3E9FF"/>
		<stop  offset="1" style="stop-color:#E9FFFF"/>
	</linearGradient>
	<path class="st41" d="M563.8,708.9l-21.7-12.5c-0.4-0.2-0.3-0.6,0.1-0.9l21.5-12.4c0.5-0.3,1.1-0.3,1.5-0.1l21.7,12.5
		c0.4,0.2,0.3,0.6-0.1,0.9l-21.5,12.4C564.8,709.1,564.2,709.1,563.8,708.9z"/>
	
		<linearGradient id="SVGID_14_" gradientUnits="userSpaceOnUse" x1="585.8845" y1="135.6979" x2="542.3156" y2="128.093" gradientTransform="matrix(1 0 0 -1 0 828)">
		<stop  offset="0" style="stop-color:#2C78F6"/>
		<stop  offset="1" style="stop-color:#00BFE7"/>
	</linearGradient>
	<path class="st42" d="M563.9,707.5l-19.2-11.1c-0.4-0.2-0.3-0.5,0.1-0.8l19-11c0.4-0.2,1-0.2,1.3,0l19.2,11.1
		c0.4,0.2,0.3,0.5-0.1,0.8l-19,11C564.8,707.6,564.2,707.7,563.9,707.5z"/>
	
		<linearGradient id="SVGID_15_" gradientUnits="userSpaceOnUse" x1="584.0812" y1="135.3971" x2="544.1312" y2="128.4391" gradientTransform="matrix(1 0 0 -1 0 828)">
		<stop  offset="0" style="stop-color:#2C78F6"/>
		<stop  offset="1" style="stop-color:#00BFE7"/>
	</linearGradient>
	<path class="st43" d="M563.9,706.5l-17.6-10.2c-0.3-0.2-0.2-0.5,0.1-0.7l17.4-10.1c0.4-0.2,0.9-0.2,1.2,0l17.6,10.2
		c0.3,0.2,0.2,0.5-0.1,0.7l-17.4,10.1C564.8,706.7,564.2,706.7,563.9,706.5z"/>
	<path class="st44" d="M564.1,695.4l-2.1-1.2l1.1-0.7l2.1,1.2L564.1,695.4z"/>
	<path class="st44" d="M567.9,695.2l-2.1,1.2l-1.1-0.7l2.1-1.2L567.9,695.2z"/>
	<path class="st44" d="M563.6,695.6l-1.2,0.7l-1.1-0.7l1.1-0.7L563.6,695.6z"/>
	<path class="st44" d="M567.5,697.9l-1.1,0.7l-3.3-1.9l1.2-0.7L567.5,697.9z"/>
</g>
</svg>
