<?xml version="1.0" encoding="utf-8"?>
<!-- Generator: Adobe Illustrator 24.3.0, SVG Export Plug-In . SVG Version: 6.00 Build 0)  -->
<svg version="1.1" id="Layer_1" xmlns="http://www.w3.org/2000/svg" xmlns:xlink="http://www.w3.org/1999/xlink" x="0px" y="0px"
	 viewBox="0 0 1066 826" style="enable-background:new 0 0 1066 826;" xml:space="preserve">
<style type="text/css">
	.st0{opacity:0.5;fill:none;stroke:#0254D7;stroke-width:0.7;stroke-dasharray:2,2;enable-background:new    ;}
	.st1{fill:#B7C0EB;}
	.st2{fill:#E4E7FB;}
	.st3{fill:url(#SVGID_1_);}
	.st4{fill:#EFF1FE;}
	.st5{fill:url(#SVGID_2_);}
	.st6{fill:url(#SVGID_3_);}
	.st7{fill:url(#SVGID_4_);}
	.st8{fill:url(#SVGID_5_);}
	.st9{fill:url(#SVGID_6_);}
	.st10{fill:url(#SVGID_7_);}
	.st11{fill:url(#SVGID_8_);}
	.st12{fill:url(#SVGID_9_);}
	.st13{fill:url(#SVGID_10_);}
	.st14{fill:url(#SVGID_11_);}
	.st15{fill:url(#SVGID_12_);}
	.st16{fill:url(#SVGID_13_);}
	.st17{fill:url(#SVGID_14_);}
	.st18{fill:url(#SVGID_15_);}
	.st19{fill:url(#SVGID_16_);}
	.st20{fill:url(#SVGID_17_);}
	.st21{fill:url(#SVGID_18_);}
	.st22{opacity:0.3;}
	.st23{opacity:0.3;fill:url(#SVGID_19_);enable-background:new    ;}
	.st24{opacity:0.3;fill:url(#SVGID_20_);enable-background:new    ;}
	.st25{opacity:0.3;fill:#FFFFFF;enable-background:new    ;}
	.st26{opacity:0.3;fill:url(#SVGID_21_);enable-background:new    ;}
	.st27{opacity:0.3;fill:url(#SVGID_22_);enable-background:new    ;}
	.st28{opacity:0.3;fill:url(#SVGID_23_);enable-background:new    ;}
	.st29{opacity:0.3;fill:url(#SVGID_24_);enable-background:new    ;}
	.st30{opacity:0.3;fill:url(#SVGID_25_);enable-background:new    ;}
	.st31{opacity:0.3;fill:url(#SVGID_26_);enable-background:new    ;}
	.st32{opacity:0.3;fill:url(#SVGID_27_);enable-background:new    ;}
	.st33{opacity:0.3;fill:url(#SVGID_28_);enable-background:new    ;}
	.st34{opacity:0.3;fill:url(#SVGID_29_);enable-background:new    ;}
	.st35{opacity:0.3;fill:url(#SVGID_30_);enable-background:new    ;}
	.st36{opacity:0.3;fill:url(#SVGID_31_);enable-background:new    ;}
	.st37{opacity:0.3;fill:url(#SVGID_32_);enable-background:new    ;}
	.st38{opacity:0.3;fill:url(#SVGID_33_);enable-background:new    ;}
	.st39{opacity:0.3;fill:url(#SVGID_34_);enable-background:new    ;}
	.st40{opacity:0.3;fill:url(#SVGID_35_);enable-background:new    ;}
	.st41{opacity:0.3;fill:url(#SVGID_36_);enable-background:new    ;}
	.st42{opacity:0.3;fill:url(#SVGID_37_);enable-background:new    ;}
	.st43{opacity:0.3;fill:url(#SVGID_38_);enable-background:new    ;}
	.st44{opacity:0.3;fill:url(#SVGID_39_);enable-background:new    ;}
	.st45{opacity:0.3;fill:url(#SVGID_40_);enable-background:new    ;}
	.st46{opacity:0.3;fill:url(#SVGID_41_);enable-background:new    ;}
	.st47{opacity:0.3;fill:url(#SVGID_42_);enable-background:new    ;}
	.st48{opacity:0.3;fill:url(#SVGID_43_);enable-background:new    ;}
	.st49{fill:#3AA0C7;}
	.st50{fill:#2C78F6;}
	.st51{fill:url(#SVGID_44_);}
	.st52{fill:url(#SVGID_45_);}
	.st53{fill:url(#SVGID_46_);}
	.st54{fill:url(#SVGID_47_);}
	.st55{fill:url(#SVGID_48_);}
	.st56{fill:url(#SVGID_49_);}
	.st57{fill:url(#SVGID_50_);}
	.st58{fill:url(#SVGID_51_);}
	.st59{fill:url(#SVGID_52_);}
	.st60{fill:url(#SVGID_53_);}
	.st61{fill:url(#SVGID_54_);}
	.st62{fill:url(#SVGID_55_);}
	.st63{fill:url(#SVGID_56_);}
	.st64{fill:url(#SVGID_57_);}
	.st65{fill:url(#SVGID_58_);}
	.st66{fill:url(#SVGID_59_);}
	.st67{fill:url(#SVGID_60_);}
	.st68{fill:url(#SVGID_61_);}
	.st69{fill:#FFFFFF;}
	.st70{fill:url(#SVGID_62_);}
	.st71{opacity:0.49;fill:#B7C0EB;enable-background:new    ;}
	.st72{fill:url(#SVGID_63_);}
	.st73{fill:url(#SVGID_64_);}
	.st74{fill:url(#SVGID_65_);}
	.st75{fill:url(#SVGID_66_);}
	.st76{fill:url(#SVGID_67_);}
	.st77{fill:url(#SVGID_68_);}
	.st78{opacity:0.2;fill:#242993;enable-background:new    ;}
	.st79{fill:#DD821F;}
	.st80{fill:#FFD85A;}
	.st81{fill:#F9BF30;}
	.st82{fill:#F2B42A;}
	.st83{opacity:0.8;fill:url(#SVGID_69_);enable-background:new    ;}
	.st84{fill:#DDFFFF;}
	.st85{opacity:0.8;fill:url(#SVGID_70_);enable-background:new    ;}
	.st86{opacity:0.31;}
	.st87{fill:#242993;}
	.st88{fill:url(#SVGID_71_);}
	.st89{fill:url(#SVGID_72_);}
	.st90{fill:url(#SVGID_73_);}
	.st91{fill:#42FFFF;}
</style>
<g>
	<path class="st0" d="M834.9,360.1l-113.5-64.7l-3.7-2.1c-2-1.2-2-4.2,0.1-5.3l117.3-61.4c0.9-0.5,1.9-0.5,2.8,0l114.4,58.6
		c2.1,1.1,2.2,4,0.2,5.2L838,360.1C837,360.7,835.9,360.7,834.9,360.1z"/>
	<path class="st1" d="M853.6,143l0.3,109.9L817.6,274l-0.3-109.9L853.6,143z"/>
	<path class="st1" d="M817.6,274l-34.3-20L783,144.1l34.3,20L817.6,274z"/>
	<path class="st2" d="M853.6,142.1l0.3,109.9L817.6,273l-0.3-109.9L853.6,142.1z"/>
	
		<linearGradient id="SVGID_1_" gradientUnits="userSpaceOnUse" x1="829.4712" y1="577.3219" x2="844.6172" y2="574.5659" gradientTransform="matrix(1 0 0 -1 0 828)">
		<stop  offset="0" style="stop-color:#437FEC"/>
		<stop  offset="0.36" style="stop-color:#336CD5"/>
		<stop  offset="1" style="stop-color:#184EAE"/>
	</linearGradient>
	<path class="st3" d="M843.3,238.8l0.1,19.2l-12.7,7.4l-0.1-19.2L843.3,238.8z"/>
	<path class="st4" d="M817.6,273l-34.3-20L783,143.1l34.3,20L817.6,273z"/>
	
		<linearGradient id="SVGID_2_" gradientUnits="userSpaceOnUse" x1="809.7803" y1="664.1912" x2="826.8233" y2="706.6422" gradientTransform="matrix(1 0 0 -1 0 828)">
		<stop  offset="0" style="stop-color:#F1F4FE"/>
		<stop  offset="0.58" style="stop-color:#F7F9FE"/>
		<stop  offset="1" style="stop-color:#FFFFFF"/>
	</linearGradient>
	<path class="st5" d="M785,143.1l34.3-19.9l32.3,18.8L817.3,162L785,143.1z"/>
	
		<linearGradient id="SVGID_3_" gradientUnits="userSpaceOnUse" x1="787.954" y1="659.5363" x2="813.86" y2="659.5363" gradientTransform="matrix(1 0 0 -1 0 828)">
		<stop  offset="0" style="stop-color:#4CD9ED"/>
		<stop  offset="0.54" style="stop-color:#47A6EC"/>
		<stop  offset="1" style="stop-color:#437FEC"/>
	</linearGradient>
	<path class="st6" d="M789.7,164.2l22.4,12.6c1,0.6,1.9,0.1,1.9-1c-0.1-1.2-0.7-2.3-1.8-3l-22.4-12.6c-1-0.5-1.8-0.1-1.9,1
		C788,162.4,788.7,163.5,789.7,164.2z"/>
	
		<linearGradient id="SVGID_4_" gradientUnits="userSpaceOnUse" x1="787.051" y1="650.5363" x2="813.839" y2="650.5363" gradientTransform="matrix(1 0 0 -1 0 828)">
		<stop  offset="0" style="stop-color:#4CD9ED"/>
		<stop  offset="0.54" style="stop-color:#47A6EC"/>
		<stop  offset="1" style="stop-color:#437FEC"/>
	</linearGradient>
	<path class="st7" d="M812,181.8l-23.1-12.6c-1-0.5-1.8-0.1-1.9,1c0.1,1.2,0.8,2.3,1.9,3l23.1,12.6c1,0.5,1.9,0.1,1.9-1
		C813.9,183.5,813.1,182.4,812,181.8z"/>
	
		<linearGradient id="SVGID_5_" gradientUnits="userSpaceOnUse" x1="787.051" y1="641.5363" x2="813.839" y2="641.5363" gradientTransform="matrix(1 0 0 -1 0 828)">
		<stop  offset="0" style="stop-color:#4CD9ED"/>
		<stop  offset="0.54" style="stop-color:#47A6EC"/>
		<stop  offset="1" style="stop-color:#437FEC"/>
	</linearGradient>
	<path class="st8" d="M812,190.8l-23.1-12.6c-1-0.5-1.8-0.1-1.9,1c0.1,1.2,0.8,2.3,1.9,3l23.1,12.6c1,0.5,1.9,0.1,1.9-1
		C813.9,192.5,813.1,191.4,812,190.8z"/>
	
		<linearGradient id="SVGID_6_" gradientUnits="userSpaceOnUse" x1="787.051" y1="629.5363" x2="813.839" y2="629.5363" gradientTransform="matrix(1 0 0 -1 0 828)">
		<stop  offset="0" style="stop-color:#4CD9ED"/>
		<stop  offset="0.54" style="stop-color:#47A6EC"/>
		<stop  offset="1" style="stop-color:#437FEC"/>
	</linearGradient>
	<path class="st9" d="M812,202.8l-23.1-12.6c-1-0.5-1.8-0.1-1.9,1c0.1,1.2,0.8,2.3,1.9,3l23.1,12.6c1,0.5,1.9,0.1,1.9-1
		C813.9,204.5,813.1,203.4,812,202.8z"/>
	
		<linearGradient id="SVGID_7_" gradientUnits="userSpaceOnUse" x1="787.051" y1="620.536" x2="813.839" y2="620.536" gradientTransform="matrix(1 0 0 -1 0 828)">
		<stop  offset="0" style="stop-color:#4CD9ED"/>
		<stop  offset="0.54" style="stop-color:#47A6EC"/>
		<stop  offset="1" style="stop-color:#437FEC"/>
	</linearGradient>
	<path class="st10" d="M812,211.8l-23.1-12.6c-1-0.5-1.8-0.1-1.9,1c0.1,1.2,0.8,2.3,1.9,3l23.1,12.6c1,0.5,1.9,0,1.9-1
		C813.9,213.5,813.1,212.4,812,211.8z"/>
	
		<linearGradient id="SVGID_8_" gradientUnits="userSpaceOnUse" x1="787.051" y1="610.5363" x2="813.839" y2="610.5363" gradientTransform="matrix(1 0 0 -1 0 828)">
		<stop  offset="0" style="stop-color:#4CD9ED"/>
		<stop  offset="0.54" style="stop-color:#47A6EC"/>
		<stop  offset="1" style="stop-color:#437FEC"/>
	</linearGradient>
	<path class="st11" d="M812,221.8l-23.1-12.6c-1-0.5-1.8-0.1-1.9,1c0.1,1.2,0.8,2.3,1.9,3l23.1,12.6c1,0.6,1.9,0.1,1.9-1
		C813.9,223.5,813.1,222.4,812,221.8z"/>
	
		<linearGradient id="SVGID_9_" gradientUnits="userSpaceOnUse" x1="787.051" y1="600.5363" x2="813.839" y2="600.5363" gradientTransform="matrix(1 0 0 -1 0 828)">
		<stop  offset="0" style="stop-color:#4CD9ED"/>
		<stop  offset="0.54" style="stop-color:#47A6EC"/>
		<stop  offset="1" style="stop-color:#437FEC"/>
	</linearGradient>
	<path class="st12" d="M812,231.8l-23.1-12.6c-1-0.5-1.8-0.1-1.9,1c0.1,1.2,0.8,2.3,1.9,3l23.1,12.6c1,0.5,1.9,0.1,1.9-1
		C813.9,233.5,813.1,232.4,812,231.8z"/>
	
		<linearGradient id="SVGID_10_" gradientUnits="userSpaceOnUse" x1="787.051" y1="591.5362" x2="813.839" y2="591.5362" gradientTransform="matrix(1 0 0 -1 0 828)">
		<stop  offset="0" style="stop-color:#4CD9ED"/>
		<stop  offset="0.54" style="stop-color:#47A6EC"/>
		<stop  offset="1" style="stop-color:#437FEC"/>
	</linearGradient>
	<path class="st13" d="M812,240.8l-23.1-12.6c-1-0.5-1.8-0.1-1.9,1c0.1,1.2,0.8,2.3,1.9,3l23.1,12.6c1,0.6,1.9,0.1,1.9-1
		C813.9,242.5,813.1,241.4,812,240.8z"/>
	
		<linearGradient id="SVGID_11_" gradientUnits="userSpaceOnUse" x1="787.051" y1="580.5361" x2="813.839" y2="580.5361" gradientTransform="matrix(1 0 0 -1 0 828)">
		<stop  offset="0" style="stop-color:#4CD9ED"/>
		<stop  offset="0.54" style="stop-color:#47A6EC"/>
		<stop  offset="1" style="stop-color:#437FEC"/>
	</linearGradient>
	<path class="st14" d="M812,251.8l-23.1-12.6c-1-0.5-1.8-0.1-1.9,1c0.1,1.2,0.8,2.3,1.9,3l23.1,12.6c1,0.6,1.9,0.1,1.9-1
		C813.9,253.5,813.1,252.4,812,251.8z"/>
	
		<linearGradient id="SVGID_12_" gradientUnits="userSpaceOnUse" x1="825.01" y1="659.5363" x2="850.973" y2="659.5363" gradientTransform="matrix(1 0 0 -1 0 828)">
		<stop  offset="0" style="stop-color:#437FEC"/>
		<stop  offset="0.36" style="stop-color:#336CD5"/>
		<stop  offset="1" style="stop-color:#184EAE"/>
	</linearGradient>
	<path class="st15" d="M826.7,172.8l22.4-12.6c1-0.5,1.8-0.1,1.8,1c-0.1,1.2-0.7,2.3-1.8,3l-22.4,12.6c-1,0.6-1.8,0.1-1.8-1
		C825,174.5,825.7,173.4,826.7,172.8z"/>
	
		<linearGradient id="SVGID_13_" gradientUnits="userSpaceOnUse" x1="825.01" y1="650.5363" x2="850.973" y2="650.5363" gradientTransform="matrix(1 0 0 -1 0 828)">
		<stop  offset="0" style="stop-color:#437FEC"/>
		<stop  offset="0.36" style="stop-color:#336CD5"/>
		<stop  offset="1" style="stop-color:#184EAE"/>
	</linearGradient>
	<path class="st16" d="M826.7,181.8l22.4-12.6c1-0.5,1.8-0.1,1.8,1c-0.1,1.2-0.7,2.3-1.8,3l-22.4,12.6c-1,0.5-1.8,0.1-1.8-1
		C825,183.5,825.7,182.4,826.7,181.8z"/>
	
		<linearGradient id="SVGID_14_" gradientUnits="userSpaceOnUse" x1="825.01" y1="641.5363" x2="850.973" y2="641.5363" gradientTransform="matrix(1 0 0 -1 0 828)">
		<stop  offset="0" style="stop-color:#437FEC"/>
		<stop  offset="0.36" style="stop-color:#336CD5"/>
		<stop  offset="1" style="stop-color:#184EAE"/>
	</linearGradient>
	<path class="st17" d="M826.7,190.8l22.4-12.6c1-0.5,1.8-0.1,1.8,1c-0.1,1.2-0.7,2.3-1.8,3l-22.4,12.6c-1,0.5-1.8,0.1-1.8-1
		C825,192.5,825.7,191.4,826.7,190.8z"/>
	
		<linearGradient id="SVGID_15_" gradientUnits="userSpaceOnUse" x1="825.01" y1="629.5363" x2="850.973" y2="629.5363" gradientTransform="matrix(1 0 0 -1 0 828)">
		<stop  offset="0" style="stop-color:#437FEC"/>
		<stop  offset="0.36" style="stop-color:#336CD5"/>
		<stop  offset="1" style="stop-color:#184EAE"/>
	</linearGradient>
	<path class="st18" d="M826.7,202.8l22.4-12.6c1-0.5,1.8-0.1,1.8,1c-0.1,1.2-0.7,2.3-1.8,3l-22.4,12.6c-1,0.5-1.8,0.1-1.8-1
		C825,204.5,825.7,203.4,826.7,202.8z"/>
	
		<linearGradient id="SVGID_16_" gradientUnits="userSpaceOnUse" x1="825.01" y1="620.536" x2="850.973" y2="620.536" gradientTransform="matrix(1 0 0 -1 0 828)">
		<stop  offset="0" style="stop-color:#437FEC"/>
		<stop  offset="0.36" style="stop-color:#336CD5"/>
		<stop  offset="1" style="stop-color:#184EAE"/>
	</linearGradient>
	<path class="st19" d="M826.7,211.8l22.4-12.6c1-0.5,1.8-0.1,1.8,1c-0.1,1.2-0.7,2.3-1.8,3l-22.4,12.6c-1,0.5-1.8,0-1.8-1
		C825,213.5,825.7,212.4,826.7,211.8z"/>
	
		<linearGradient id="SVGID_17_" gradientUnits="userSpaceOnUse" x1="825.01" y1="610.5363" x2="850.973" y2="610.5363" gradientTransform="matrix(1 0 0 -1 0 828)">
		<stop  offset="0" style="stop-color:#437FEC"/>
		<stop  offset="0.36" style="stop-color:#336CD5"/>
		<stop  offset="1" style="stop-color:#184EAE"/>
	</linearGradient>
	<path class="st20" d="M826.7,221.8l22.4-12.6c1-0.5,1.8-0.1,1.8,1c-0.1,1.2-0.7,2.3-1.8,3l-22.4,12.6c-1,0.6-1.8,0.1-1.8-1
		C825,223.5,825.7,222.4,826.7,221.8z"/>
	
		<linearGradient id="SVGID_18_" gradientUnits="userSpaceOnUse" x1="825.01" y1="600.5363" x2="850.973" y2="600.5363" gradientTransform="matrix(1 0 0 -1 0 828)">
		<stop  offset="0" style="stop-color:#437FEC"/>
		<stop  offset="0.36" style="stop-color:#336CD5"/>
		<stop  offset="1" style="stop-color:#184EAE"/>
	</linearGradient>
	<path class="st21" d="M826.7,231.8l22.4-12.6c1-0.5,1.8-0.1,1.8,1c-0.1,1.2-0.7,2.3-1.8,3l-22.4,12.6c-1,0.5-1.8,0.1-1.8-1
		C825,233.5,825.7,232.4,826.7,231.8z"/>
	<g class="st22">
		<g class="st22">
			
				<linearGradient id="SVGID_19_" gradientUnits="userSpaceOnUse" x1="787.765" y1="588.077" x2="822.128" y2="588.077" gradientTransform="matrix(1 0 0 -1 0 828)">
				<stop  offset="0" style="stop-color:#C0D6FF"/>
				<stop  offset="0.2978" style="stop-color:#C5DBFF"/>
				<stop  offset="0.6488" style="stop-color:#D3E9FF"/>
				<stop  offset="1" style="stop-color:#E9FFFF"/>
			</linearGradient>
			<path class="st23" d="M816.5,205.4l5.7-7.6l-4.6,81.8l-17.2,2.6L787.8,203L816.5,205.4z"/>
			
				<linearGradient id="SVGID_20_" gradientUnits="userSpaceOnUse" x1="798.6796" y1="638.4821" x2="811.2356" y2="616.7354" gradientTransform="matrix(1 0 0 -1 0 828)">
				<stop  offset="0" style="stop-color:#C0D6FF"/>
				<stop  offset="0.2978" style="stop-color:#C5DBFF"/>
				<stop  offset="0.6488" style="stop-color:#D3E9FF"/>
				<stop  offset="1" style="stop-color:#E9FFFF"/>
			</linearGradient>
			<path class="st24" d="M822.1,197.7l-12.6-7.2l-17.2,2.7l-4.6,9.9l12.6,7.3l17.2-2.7L822.1,197.7z"/>
			<path class="st25" d="M821.8,197.6l-4.4,9.5l-17.2,2.6l-12.2-7l-0.2,0.4l12.6,7.3l17.2-2.7l4.6-9.9L821.8,197.6z"/>
			
				<linearGradient id="SVGID_21_" gradientUnits="userSpaceOnUse" x1="800.366" y1="583.1175" x2="817.522" y2="583.1175" gradientTransform="matrix(1 0 0 -1 0 828)">
				<stop  offset="0" style="stop-color:#C0D6FF"/>
				<stop  offset="0.2978" style="stop-color:#C5DBFF"/>
				<stop  offset="0.6488" style="stop-color:#D3E9FF"/>
				<stop  offset="1" style="stop-color:#E9FFFF"/>
			</linearGradient>
			<path class="st26" d="M817.5,207.6v71.9l-17.2,2.6v-71.8L817.5,207.6z"/>
			
				<linearGradient id="SVGID_22_" gradientUnits="userSpaceOnUse" x1="817.513" y1="589.3925" x2="822.112" y2="589.3925" gradientTransform="matrix(1 0 0 -1 0 828)">
				<stop  offset="0" style="stop-color:#E9FFFF"/>
				<stop  offset="0.3512" style="stop-color:#D3E9FF"/>
				<stop  offset="0.7022" style="stop-color:#C5DBFF"/>
				<stop  offset="1" style="stop-color:#C0D6FF"/>
			</linearGradient>
			<path class="st27" d="M822.1,197.7v71.9l-4.6,9.9v-71.9L822.1,197.7z"/>
			
				<linearGradient id="SVGID_23_" gradientUnits="userSpaceOnUse" x1="787.783" y1="585.4205" x2="800.349" y2="585.4205" gradientTransform="matrix(1 0 0 -1 0 828)">
				<stop  offset="0" style="stop-color:#5778FF"/>
				<stop  offset="0.1779" style="stop-color:#5C7DFF"/>
				<stop  offset="0.3876" style="stop-color:#6A8AFF"/>
				<stop  offset="0.6134" style="stop-color:#82A0FF"/>
				<stop  offset="0.849" style="stop-color:#A3BEFF"/>
				<stop  offset="1" style="stop-color:#BCD5FF"/>
			</linearGradient>
			<path class="st28" d="M787.8,203v71.9l12.6,7.2v-71.8L787.8,203z"/>
		</g>
		<g class="st22">
			
				<linearGradient id="SVGID_24_" gradientUnits="userSpaceOnUse" x1="760.74" y1="566.8225" x2="795.103" y2="566.8225" gradientTransform="matrix(1 0 0 -1 0 828)">
				<stop  offset="0" style="stop-color:#C0D6FF"/>
				<stop  offset="0.2978" style="stop-color:#C5DBFF"/>
				<stop  offset="0.6488" style="stop-color:#D3E9FF"/>
				<stop  offset="1" style="stop-color:#E9FFFF"/>
			</linearGradient>
			<path class="st29" d="M789.4,233.1l5.7-7.6l-4.6,68.8l-17.2,2.7l-12.6-66.1L789.4,233.1z"/>
			
				<linearGradient id="SVGID_25_" gradientUnits="userSpaceOnUse" x1="771.6331" y1="610.7863" x2="784.21" y2="589.0017" gradientTransform="matrix(1 0 0 -1 0 828)">
				<stop  offset="0" style="stop-color:#C0D6FF"/>
				<stop  offset="0.2978" style="stop-color:#C5DBFF"/>
				<stop  offset="0.6488" style="stop-color:#D3E9FF"/>
				<stop  offset="1" style="stop-color:#E9FFFF"/>
			</linearGradient>
			<path class="st30" d="M795.1,225.4l-12.6-7.2l-17.2,2.6l-4.6,9.9l12.6,7.2l17.2-2.6L795.1,225.4z"/>
			<path class="st25" d="M794.7,225.2l-4.5,9.6l-17.2,2.6l-12.2-7l-0.2,0.4l12.6,7.2l17.2-2.6l4.6-9.9L794.7,225.2z"/>
			
				<linearGradient id="SVGID_26_" gradientUnits="userSpaceOnUse" x1="773.318" y1="561.861" x2="790.475" y2="561.861" gradientTransform="matrix(1 0 0 -1 0 828)">
				<stop  offset="0" style="stop-color:#C0D6FF"/>
				<stop  offset="0.2978" style="stop-color:#C5DBFF"/>
				<stop  offset="0.6488" style="stop-color:#D3E9FF"/>
				<stop  offset="1" style="stop-color:#E9FFFF"/>
			</linearGradient>
			<path class="st31" d="M790.5,235.4v58.9l-17.2,2.7V238L790.5,235.4z"/>
			
				<linearGradient id="SVGID_27_" gradientUnits="userSpaceOnUse" x1="790.482" y1="568.1635" x2="795.081" y2="568.1635" gradientTransform="matrix(1 0 0 -1 0 828)">
				<stop  offset="0" style="stop-color:#E9FFFF"/>
				<stop  offset="0.3512" style="stop-color:#D3E9FF"/>
				<stop  offset="0.7022" style="stop-color:#C5DBFF"/>
				<stop  offset="1" style="stop-color:#C0D6FF"/>
			</linearGradient>
			<path class="st32" d="M795.1,225.4v58.9l-4.6,9.9v-58.9L795.1,225.4z"/>
			
				<linearGradient id="SVGID_28_" gradientUnits="userSpaceOnUse" x1="760.74" y1="564.1655" x2="773.306" y2="564.1655" gradientTransform="matrix(1 0 0 -1 0 828)">
				<stop  offset="0" style="stop-color:#5778FF"/>
				<stop  offset="0.1779" style="stop-color:#5C7DFF"/>
				<stop  offset="0.3876" style="stop-color:#6A8AFF"/>
				<stop  offset="0.6134" style="stop-color:#82A0FF"/>
				<stop  offset="0.849" style="stop-color:#A3BEFF"/>
				<stop  offset="1" style="stop-color:#BCD5FF"/>
			</linearGradient>
			<path class="st33" d="M760.7,230.8v58.9l12.6,7.3V238L760.7,230.8z"/>
		</g>
		<g class="st22">
			
				<linearGradient id="SVGID_29_" gradientUnits="userSpaceOnUse" x1="733.715" y1="544.149" x2="768.027" y2="544.149" gradientTransform="matrix(1 0 0 -1 0 828)">
				<stop  offset="0" style="stop-color:#C0D6FF"/>
				<stop  offset="0.2978" style="stop-color:#C5DBFF"/>
				<stop  offset="0.6488" style="stop-color:#D3E9FF"/>
				<stop  offset="1" style="stop-color:#E9FFFF"/>
			</linearGradient>
			<path class="st34" d="M762.4,262.5l5.6-7.6l-4.6,55.3l-17.2,2.6l-12.6-52.6L762.4,262.5z"/>
			
				<linearGradient id="SVGID_30_" gradientUnits="userSpaceOnUse" x1="744.5889" y1="581.3218" x2="757.1664" y2="559.5369" gradientTransform="matrix(1 0 0 -1 0 828)">
				<stop  offset="0" style="stop-color:#C0D6FF"/>
				<stop  offset="0.2978" style="stop-color:#C5DBFF"/>
				<stop  offset="0.6488" style="stop-color:#D3E9FF"/>
				<stop  offset="1" style="stop-color:#E9FFFF"/>
			</linearGradient>
			<path class="st35" d="M768,254.9l-12.6-7.3l-17.2,2.7l-4.6,9.9l12.6,7.2l17.2-2.6L768,254.9z"/>
			<path class="st25" d="M767.7,254.7l-4.5,9.5l-17.2,2.7l-12.2-7.1l-0.2,0.4l12.6,7.2l17.2-2.6l4.6-9.9L767.7,254.7z"/>
			
				<linearGradient id="SVGID_31_" gradientUnits="userSpaceOnUse" x1="746.287" y1="539.1885" x2="763.452" y2="539.1885" gradientTransform="matrix(1 0 0 -1 0 828)">
				<stop  offset="0" style="stop-color:#C0D6FF"/>
				<stop  offset="0.2978" style="stop-color:#C5DBFF"/>
				<stop  offset="0.6488" style="stop-color:#D3E9FF"/>
				<stop  offset="1" style="stop-color:#E9FFFF"/>
			</linearGradient>
			<path class="st36" d="M763.5,264.8v45.3l-17.2,2.6v-45.3L763.5,264.8z"/>
			
				<linearGradient id="SVGID_32_" gradientUnits="userSpaceOnUse" x1="763.452" y1="545.4645" x2="768.051" y2="545.4645" gradientTransform="matrix(1 0 0 -1 0 828)">
				<stop  offset="0" style="stop-color:#E9FFFF"/>
				<stop  offset="0.3512" style="stop-color:#D3E9FF"/>
				<stop  offset="0.7022" style="stop-color:#C5DBFF"/>
				<stop  offset="1" style="stop-color:#C0D6FF"/>
			</linearGradient>
			<path class="st37" d="M768,254.9v45.3l-4.6,9.9v-45.3L768,254.9z"/>
			
				<linearGradient id="SVGID_33_" gradientUnits="userSpaceOnUse" x1="733.715" y1="541.491" x2="746.28" y2="541.491" gradientTransform="matrix(1 0 0 -1 0 828)">
				<stop  offset="0" style="stop-color:#5778FF"/>
				<stop  offset="0.1779" style="stop-color:#5C7DFF"/>
				<stop  offset="0.3876" style="stop-color:#6A8AFF"/>
				<stop  offset="0.6134" style="stop-color:#82A0FF"/>
				<stop  offset="0.849" style="stop-color:#A3BEFF"/>
				<stop  offset="1" style="stop-color:#BCD5FF"/>
			</linearGradient>
			<path class="st38" d="M733.7,260.2v45.3l12.6,7.2v-45.3L733.7,260.2z"/>
		</g>
		<g class="st22">
			
				<linearGradient id="SVGID_34_" gradientUnits="userSpaceOnUse" x1="706.69" y1="525.6005" x2="741.003" y2="525.6005" gradientTransform="matrix(1 0 0 -1 0 828)">
				<stop  offset="0" style="stop-color:#C0D6FF"/>
				<stop  offset="0.2978" style="stop-color:#C5DBFF"/>
				<stop  offset="0.6488" style="stop-color:#D3E9FF"/>
				<stop  offset="1" style="stop-color:#E9FFFF"/>
			</linearGradient>
			<path class="st39" d="M735.4,283.6l5.6-7.6l-4.6,50l-17.2,2.7l-12.6-47.4L735.4,283.6z"/>
			
				<linearGradient id="SVGID_35_" gradientUnits="userSpaceOnUse" x1="717.5643" y1="560.167" x2="730.1291" y2="538.4042" gradientTransform="matrix(1 0 0 -1 0 828)">
				<stop  offset="0" style="stop-color:#C0D6FF"/>
				<stop  offset="0.2978" style="stop-color:#C5DBFF"/>
				<stop  offset="0.6488" style="stop-color:#D3E9FF"/>
				<stop  offset="1" style="stop-color:#E9FFFF"/>
			</linearGradient>
			<path class="st40" d="M741,276.1l-12.6-7.2l-17.2,2.6l-4.6,9.9l12.6,7.2l17.2-2.6L741,276.1z"/>
			<path class="st25" d="M740.7,275.9l-4.5,9.5l-17.2,2.7l-12.2-7.1l-0.2,0.4l12.6,7.2l17.2-2.6l4.6-9.9L740.7,275.9z"/>
			
				<linearGradient id="SVGID_36_" gradientUnits="userSpaceOnUse" x1="719.241" y1="520.641" x2="736.397" y2="520.641" gradientTransform="matrix(1 0 0 -1 0 828)">
				<stop  offset="0" style="stop-color:#C0D6FF"/>
				<stop  offset="0.2978" style="stop-color:#C5DBFF"/>
				<stop  offset="0.6488" style="stop-color:#D3E9FF"/>
				<stop  offset="1" style="stop-color:#E9FFFF"/>
			</linearGradient>
			<path class="st41" d="M736.4,286v40.1l-17.2,2.7v-40.1L736.4,286z"/>
			
				<linearGradient id="SVGID_37_" gradientUnits="userSpaceOnUse" x1="736.421" y1="526.9415" x2="741.02" y2="526.9415" gradientTransform="matrix(1 0 0 -1 0 828)">
				<stop  offset="0" style="stop-color:#E9FFFF"/>
				<stop  offset="0.3512" style="stop-color:#D3E9FF"/>
				<stop  offset="0.7022" style="stop-color:#C5DBFF"/>
				<stop  offset="1" style="stop-color:#C0D6FF"/>
			</linearGradient>
			<path class="st42" d="M741,276.1v40.1l-4.6,9.9V286L741,276.1z"/>
			
				<linearGradient id="SVGID_38_" gradientUnits="userSpaceOnUse" x1="706.69" y1="522.9445" x2="719.255" y2="522.9445" gradientTransform="matrix(1 0 0 -1 0 828)">
				<stop  offset="0" style="stop-color:#5778FF"/>
				<stop  offset="0.1779" style="stop-color:#5C7DFF"/>
				<stop  offset="0.3876" style="stop-color:#6A8AFF"/>
				<stop  offset="0.6134" style="stop-color:#82A0FF"/>
				<stop  offset="0.849" style="stop-color:#A3BEFF"/>
				<stop  offset="1" style="stop-color:#BCD5FF"/>
			</linearGradient>
			<path class="st43" d="M706.7,281.4v40.1l12.6,7.3v-40.1L706.7,281.4z"/>
		</g>
		<g class="st22">
			
				<linearGradient id="SVGID_39_" gradientUnits="userSpaceOnUse" x1="679.666" y1="504.75" x2="713.978" y2="504.75" gradientTransform="matrix(1 0 0 -1 0 828)">
				<stop  offset="0" style="stop-color:#C0D6FF"/>
				<stop  offset="0.2978" style="stop-color:#C5DBFF"/>
				<stop  offset="0.6488" style="stop-color:#D3E9FF"/>
				<stop  offset="1" style="stop-color:#E9FFFF"/>
			</linearGradient>
			<path class="st44" d="M708.4,309.5l5.6-7.6l-4.6,40.1l-17.2,2.6l-12.5-37.4L708.4,309.5z"/>
			
				<linearGradient id="SVGID_40_" gradientUnits="userSpaceOnUse" x1="690.539" y1="534.357" x2="703.1046" y2="512.5938" gradientTransform="matrix(1 0 0 -1 0 828)">
				<stop  offset="0" style="stop-color:#C0D6FF"/>
				<stop  offset="0.2978" style="stop-color:#C5DBFF"/>
				<stop  offset="0.6488" style="stop-color:#D3E9FF"/>
				<stop  offset="1" style="stop-color:#E9FFFF"/>
			</linearGradient>
			<path class="st45" d="M714,301.9l-12.6-7.2l-17.2,2.6l-4.6,9.9l12.5,7.3l17.2-2.7L714,301.9z"/>
			<path class="st25" d="M713.7,301.7l-4.5,9.6l-17.2,2.6l-12.2-7l-0.2,0.4l12.5,7.3l17.2-2.7l4.6-9.9L713.7,301.7z"/>
			
				<linearGradient id="SVGID_41_" gradientUnits="userSpaceOnUse" x1="692.216" y1="499.7885" x2="709.373" y2="499.7885" gradientTransform="matrix(1 0 0 -1 0 828)">
				<stop  offset="0" style="stop-color:#C0D6FF"/>
				<stop  offset="0.2978" style="stop-color:#C5DBFF"/>
				<stop  offset="0.6488" style="stop-color:#D3E9FF"/>
				<stop  offset="1" style="stop-color:#E9FFFF"/>
			</linearGradient>
			<path class="st46" d="M709.4,311.8V342l-17.2,2.6v-30.2L709.4,311.8z"/>
			
				<linearGradient id="SVGID_42_" gradientUnits="userSpaceOnUse" x1="709.39" y1="506.0655" x2="713.989" y2="506.0655" gradientTransform="matrix(1 0 0 -1 0 828)">
				<stop  offset="0" style="stop-color:#E9FFFF"/>
				<stop  offset="0.3512" style="stop-color:#D3E9FF"/>
				<stop  offset="0.7022" style="stop-color:#C5DBFF"/>
				<stop  offset="1" style="stop-color:#C0D6FF"/>
			</linearGradient>
			<path class="st47" d="M714,301.9v30.2l-4.6,9.9v-30.2L714,301.9z"/>
			
				<linearGradient id="SVGID_43_" gradientUnits="userSpaceOnUse" x1="679.666" y1="502.091" x2="692.2321" y2="502.091" gradientTransform="matrix(1 0 0 -1 0 828)">
				<stop  offset="0" style="stop-color:#5778FF"/>
				<stop  offset="0.1779" style="stop-color:#5C7DFF"/>
				<stop  offset="0.3876" style="stop-color:#6A8AFF"/>
				<stop  offset="0.6134" style="stop-color:#82A0FF"/>
				<stop  offset="0.849" style="stop-color:#A3BEFF"/>
				<stop  offset="1" style="stop-color:#BCD5FF"/>
			</linearGradient>
			<path class="st48" d="M679.7,307.2v30.2l12.5,7.2v-30.2L679.7,307.2z"/>
		</g>
	</g>
	<path class="st49" d="M784,257.7l-3.7-5.5l6.7-0.4L784,257.7z"/>
	<path class="st49" d="M896.7,259.8l3.7-5.5l2.9,6L896.7,259.8z"/>
	<path class="st49" d="M908.2,317.8l-3.7,5.6l-3-6L908.2,317.8z"/>
	<path class="st0" d="M770.5,321.5l-106.5,58"/>
	<path class="st49" d="M790.9,331.1l3.3,5.8l-6.7-0.1L790.9,331.1z"/>
	<path class="st50" d="M903.2,351.4l-5.6-9.8l-2,1.2l1.2,8.9l-0.1,0.1l-7.1-5.5l-2,1.2l5.6,9.8l1.6-0.9l-4-6.9l0.1-0.1l6.5,5
		l1.2-0.7l-1.1-8.1l0.1-0.1l4,6.9L903.2,351.4z M907.3,347.4c-0.7,0.4-1.5,0.4-1.9-0.3c-0.3-0.6-0.1-1.2,0.8-1.8l1.6-1.1l0.3,0.6
		C908.7,345.7,908.3,346.8,907.3,347.4z M907.6,349c1-0.6,1.5-1.4,1.5-2.4l0.1-0.1l0.6,1l1.6-0.9l-2.9-5.1c-0.9-1.6-2.5-1.9-4.4-0.8
		c-1.8,1-2.5,2.6-1.9,3.9l1.6-0.9c-0.1-0.6,0.2-1.2,1-1.6c0.9-0.5,1.6-0.4,2,0.3l0.4,0.6l-1.8,1.2c-1.7,1.1-2.3,2.5-1.5,3.8
		C904.6,349.6,906.2,349.9,907.6,349z M913.5,345.5l1.7-1l-2.5-4.3c-0.6-1-0.2-2.1,0.9-2.8c0.3-0.2,0.8-0.4,0.9-0.4l-0.9-1.6
		c-0.2,0-0.5,0.2-0.7,0.3c-1,0.6-1.4,1.6-1.2,2.4l-0.1,0.1l-0.7-1.2l-1.6,0.9L913.5,345.5z M918.6,336.7l-0.1,0.1l-3.4-5.9l-1.7,1
		l5.9,10.3l1.7-1l-1.5-2.6l0.3-0.9l4.2,1.8l2-1.2l-5.6-2.4l1.1-4.9l-1.9,1.1L918.6,336.7z M926.4,329.7c1-0.6,2.1-0.3,2.7,0.8
		l-3.5,2C925.1,331.4,925.4,330.3,926.4,329.7z M930.5,332.9c0.1,0.7-0.3,1.3-1.2,1.8c-1.1,0.6-2.3,0.3-3-0.9l-0.1-0.1l5.2-3
		l-0.3-0.5c-1.3-2.3-3.4-3-5.5-1.8c-2.1,1.2-2.6,3.5-1.2,5.9c1.4,2.4,3.5,3.1,5.7,1.8c1.7-1,2.5-2.6,2-4.1L930.5,332.9z
		 M930.2,323.5l1.1,1.9l-1.2,0.7l0.8,1.3l1.2-0.7l2.3,4c0.8,1.4,1.8,1.6,3.5,0.6c0.3-0.2,0.6-0.4,0.8-0.6l-0.8-1.3
		c-0.2,0.1-0.3,0.2-0.5,0.4c-0.7,0.4-1.2,0.3-1.6-0.5l-2.1-3.6l1.6-0.9l-0.8-1.3l-1.6,0.9l-1.1-1.9L930.2,323.5z M937.2,324.7
		c0.6,1.1,1.7,1.4,3.3,0.9l1.5-0.5c0.8-0.3,1.3-0.2,1.5,0.2c0.3,0.5-0.1,1.3-0.9,1.7c-0.8,0.5-1.5,0.5-2,0l-1.7,1
		c0.9,1.3,2.5,1.4,4.4,0.3c1.8-1.1,2.6-2.8,1.8-4.2c-0.6-1.1-1.6-1.3-3.2-0.8l-1.5,0.5c-0.8,0.3-1.3,0.2-1.6-0.2
		c-0.3-0.5,0.1-1.2,0.8-1.7c0.8-0.5,1.5-0.4,1.9,0l1.6-0.9c-0.9-1.3-2.5-1.4-4.2-0.4C937.1,321.8,936.4,323.4,937.2,324.7z"/>
	<path class="st49" d="M709.3,358.3l-2.8-4.6l5.4-0.2L709.3,358.3z"/>
	<path class="st1" d="M797.6,177l0.3,109.9L761.6,308l-0.3-109.9L797.6,177z"/>
	<path class="st1" d="M761.6,308l-34.3-20L727,178.1l34.3,20L761.6,308z"/>
	<path class="st2" d="M797.6,176.1l0.3,109.9L761.6,307l-0.3-109.9L797.6,176.1z"/>
	
		<linearGradient id="SVGID_44_" gradientUnits="userSpaceOnUse" x1="773.4712" y1="543.3219" x2="788.6172" y2="540.5659" gradientTransform="matrix(1 0 0 -1 0 828)">
		<stop  offset="0" style="stop-color:#437FEC"/>
		<stop  offset="0.36" style="stop-color:#336CD5"/>
		<stop  offset="1" style="stop-color:#184EAE"/>
	</linearGradient>
	<path class="st51" d="M787.3,272.8l0.1,19.2l-12.7,7.4l-0.1-19.2L787.3,272.8z"/>
	<path class="st4" d="M761.6,307l-34.3-20L727,177.1l34.3,20L761.6,307z"/>
	
		<linearGradient id="SVGID_45_" gradientUnits="userSpaceOnUse" x1="753.7803" y1="630.1912" x2="770.8233" y2="672.6422" gradientTransform="matrix(1 0 0 -1 0 828)">
		<stop  offset="0" style="stop-color:#F1F4FE"/>
		<stop  offset="0.58" style="stop-color:#F7F9FE"/>
		<stop  offset="1" style="stop-color:#FFFFFF"/>
	</linearGradient>
	<path class="st52" d="M729,177.1l34.3-19.9l32.3,18.8L761.3,196L729,177.1z"/>
	
		<linearGradient id="SVGID_46_" gradientUnits="userSpaceOnUse" x1="731.954" y1="625.5363" x2="757.86" y2="625.5363" gradientTransform="matrix(1 0 0 -1 0 828)">
		<stop  offset="0" style="stop-color:#4CD9ED"/>
		<stop  offset="0.54" style="stop-color:#47A6EC"/>
		<stop  offset="1" style="stop-color:#437FEC"/>
	</linearGradient>
	<path class="st53" d="M733.7,198.2l22.4,12.6c1,0.6,1.9,0.1,1.9-1c-0.1-1.2-0.7-2.3-1.8-3l-22.4-12.6c-1-0.5-1.8-0.1-1.9,1
		C732,196.4,732.7,197.5,733.7,198.2z"/>
	
		<linearGradient id="SVGID_47_" gradientUnits="userSpaceOnUse" x1="731.051" y1="616.5363" x2="757.839" y2="616.5363" gradientTransform="matrix(1 0 0 -1 0 828)">
		<stop  offset="0" style="stop-color:#4CD9ED"/>
		<stop  offset="0.54" style="stop-color:#47A6EC"/>
		<stop  offset="1" style="stop-color:#437FEC"/>
	</linearGradient>
	<path class="st54" d="M756,215.8l-23.1-12.6c-1-0.5-1.8-0.1-1.9,1c0.1,1.2,0.8,2.3,1.9,3l23.1,12.6c1,0.5,1.9,0.1,1.9-1
		C757.9,217.5,757.1,216.4,756,215.8z"/>
	
		<linearGradient id="SVGID_48_" gradientUnits="userSpaceOnUse" x1="731.051" y1="607.5363" x2="757.839" y2="607.5363" gradientTransform="matrix(1 0 0 -1 0 828)">
		<stop  offset="0" style="stop-color:#4CD9ED"/>
		<stop  offset="0.54" style="stop-color:#47A6EC"/>
		<stop  offset="1" style="stop-color:#437FEC"/>
	</linearGradient>
	<path class="st55" d="M756,224.8l-23.1-12.6c-1-0.5-1.8-0.1-1.9,1c0.1,1.2,0.8,2.3,1.9,3l23.1,12.6c1,0.5,1.9,0.1,1.9-1
		C757.9,226.5,757.1,225.4,756,224.8z"/>
	
		<linearGradient id="SVGID_49_" gradientUnits="userSpaceOnUse" x1="731.051" y1="595.5363" x2="757.839" y2="595.5363" gradientTransform="matrix(1 0 0 -1 0 828)">
		<stop  offset="0" style="stop-color:#4CD9ED"/>
		<stop  offset="0.54" style="stop-color:#47A6EC"/>
		<stop  offset="1" style="stop-color:#437FEC"/>
	</linearGradient>
	<path class="st56" d="M756,236.8l-23.1-12.6c-1-0.5-1.8-0.1-1.9,1c0.1,1.2,0.8,2.3,1.9,3l23.1,12.6c1,0.5,1.9,0.1,1.9-1
		C757.9,238.5,757.1,237.4,756,236.8z"/>
	
		<linearGradient id="SVGID_50_" gradientUnits="userSpaceOnUse" x1="731.051" y1="586.536" x2="757.839" y2="586.536" gradientTransform="matrix(1 0 0 -1 0 828)">
		<stop  offset="0" style="stop-color:#4CD9ED"/>
		<stop  offset="0.54" style="stop-color:#47A6EC"/>
		<stop  offset="1" style="stop-color:#437FEC"/>
	</linearGradient>
	<path class="st57" d="M756,245.8l-23.1-12.6c-1-0.5-1.8-0.1-1.9,1c0.1,1.2,0.8,2.3,1.9,3l23.1,12.6c1,0.5,1.9,0,1.9-1
		C757.9,247.5,757.1,246.4,756,245.8z"/>
	
		<linearGradient id="SVGID_51_" gradientUnits="userSpaceOnUse" x1="731.051" y1="576.5363" x2="757.839" y2="576.5363" gradientTransform="matrix(1 0 0 -1 0 828)">
		<stop  offset="0" style="stop-color:#4CD9ED"/>
		<stop  offset="0.54" style="stop-color:#47A6EC"/>
		<stop  offset="1" style="stop-color:#437FEC"/>
	</linearGradient>
	<path class="st58" d="M756,255.8l-23.1-12.6c-1-0.5-1.8-0.1-1.9,1c0.1,1.2,0.8,2.3,1.9,3l23.1,12.6c1,0.6,1.9,0.1,1.9-1
		C757.9,257.5,757.1,256.4,756,255.8z"/>
	
		<linearGradient id="SVGID_52_" gradientUnits="userSpaceOnUse" x1="731.051" y1="566.5363" x2="757.839" y2="566.5363" gradientTransform="matrix(1 0 0 -1 0 828)">
		<stop  offset="0" style="stop-color:#4CD9ED"/>
		<stop  offset="0.54" style="stop-color:#47A6EC"/>
		<stop  offset="1" style="stop-color:#437FEC"/>
	</linearGradient>
	<path class="st59" d="M756,265.8l-23.1-12.6c-1-0.5-1.8-0.1-1.9,1c0.1,1.2,0.8,2.3,1.9,3l23.1,12.6c1,0.5,1.9,0.1,1.9-1
		C757.9,267.5,757.1,266.4,756,265.8z"/>
	
		<linearGradient id="SVGID_53_" gradientUnits="userSpaceOnUse" x1="731.051" y1="557.5362" x2="757.839" y2="557.5362" gradientTransform="matrix(1 0 0 -1 0 828)">
		<stop  offset="0" style="stop-color:#4CD9ED"/>
		<stop  offset="0.54" style="stop-color:#47A6EC"/>
		<stop  offset="1" style="stop-color:#437FEC"/>
	</linearGradient>
	<path class="st60" d="M756,274.8l-23.1-12.6c-1-0.5-1.8-0.1-1.9,1c0.1,1.2,0.8,2.3,1.9,3l23.1,12.6c1,0.6,1.9,0.1,1.9-1
		C757.9,276.5,757.1,275.4,756,274.8z"/>
	
		<linearGradient id="SVGID_54_" gradientUnits="userSpaceOnUse" x1="731.051" y1="546.5361" x2="757.839" y2="546.5361" gradientTransform="matrix(1 0 0 -1 0 828)">
		<stop  offset="0" style="stop-color:#4CD9ED"/>
		<stop  offset="0.54" style="stop-color:#47A6EC"/>
		<stop  offset="1" style="stop-color:#437FEC"/>
	</linearGradient>
	<path class="st61" d="M756,285.8l-23.1-12.6c-1-0.5-1.8-0.1-1.9,1c0.1,1.2,0.8,2.3,1.9,3l23.1,12.6c1,0.6,1.9,0.1,1.9-1
		C757.9,287.5,757.1,286.4,756,285.8z"/>
	
		<linearGradient id="SVGID_55_" gradientUnits="userSpaceOnUse" x1="769.01" y1="625.5363" x2="794.973" y2="625.5363" gradientTransform="matrix(1 0 0 -1 0 828)">
		<stop  offset="0" style="stop-color:#437FEC"/>
		<stop  offset="0.36" style="stop-color:#336CD5"/>
		<stop  offset="1" style="stop-color:#184EAE"/>
	</linearGradient>
	<path class="st62" d="M770.7,206.8l22.4-12.6c1-0.5,1.8-0.1,1.8,1c-0.1,1.2-0.7,2.3-1.8,3l-22.4,12.6c-1,0.6-1.8,0.1-1.8-1
		C769,208.5,769.7,207.4,770.7,206.8z"/>
	
		<linearGradient id="SVGID_56_" gradientUnits="userSpaceOnUse" x1="769.01" y1="616.5363" x2="794.973" y2="616.5363" gradientTransform="matrix(1 0 0 -1 0 828)">
		<stop  offset="0" style="stop-color:#437FEC"/>
		<stop  offset="0.36" style="stop-color:#336CD5"/>
		<stop  offset="1" style="stop-color:#184EAE"/>
	</linearGradient>
	<path class="st63" d="M770.7,215.8l22.4-12.6c1-0.5,1.8-0.1,1.8,1c-0.1,1.2-0.7,2.3-1.8,3l-22.4,12.6c-1,0.5-1.8,0.1-1.8-1
		C769,217.5,769.7,216.4,770.7,215.8z"/>
	
		<linearGradient id="SVGID_57_" gradientUnits="userSpaceOnUse" x1="769.01" y1="607.5363" x2="794.973" y2="607.5363" gradientTransform="matrix(1 0 0 -1 0 828)">
		<stop  offset="0" style="stop-color:#437FEC"/>
		<stop  offset="0.36" style="stop-color:#336CD5"/>
		<stop  offset="1" style="stop-color:#184EAE"/>
	</linearGradient>
	<path class="st64" d="M770.7,224.8l22.4-12.6c1-0.5,1.8-0.1,1.8,1c-0.1,1.2-0.7,2.3-1.8,3l-22.4,12.6c-1,0.5-1.8,0.1-1.8-1
		C769,226.5,769.7,225.4,770.7,224.8z"/>
	
		<linearGradient id="SVGID_58_" gradientUnits="userSpaceOnUse" x1="769.01" y1="595.5363" x2="794.973" y2="595.5363" gradientTransform="matrix(1 0 0 -1 0 828)">
		<stop  offset="0" style="stop-color:#437FEC"/>
		<stop  offset="0.36" style="stop-color:#336CD5"/>
		<stop  offset="1" style="stop-color:#184EAE"/>
	</linearGradient>
	<path class="st65" d="M770.7,236.8l22.4-12.6c1-0.5,1.8-0.1,1.8,1c-0.1,1.2-0.7,2.3-1.8,3l-22.4,12.6c-1,0.5-1.8,0.1-1.8-1
		C769,238.5,769.7,237.4,770.7,236.8z"/>
	
		<linearGradient id="SVGID_59_" gradientUnits="userSpaceOnUse" x1="769.01" y1="586.536" x2="794.973" y2="586.536" gradientTransform="matrix(1 0 0 -1 0 828)">
		<stop  offset="0" style="stop-color:#437FEC"/>
		<stop  offset="0.36" style="stop-color:#336CD5"/>
		<stop  offset="1" style="stop-color:#184EAE"/>
	</linearGradient>
	<path class="st66" d="M770.7,245.8l22.4-12.6c1-0.5,1.8-0.1,1.8,1c-0.1,1.2-0.7,2.3-1.8,3l-22.4,12.6c-1,0.5-1.8,0-1.8-1
		C769,247.5,769.7,246.4,770.7,245.8z"/>
	
		<linearGradient id="SVGID_60_" gradientUnits="userSpaceOnUse" x1="769.01" y1="576.5363" x2="794.973" y2="576.5363" gradientTransform="matrix(1 0 0 -1 0 828)">
		<stop  offset="0" style="stop-color:#437FEC"/>
		<stop  offset="0.36" style="stop-color:#336CD5"/>
		<stop  offset="1" style="stop-color:#184EAE"/>
	</linearGradient>
	<path class="st67" d="M770.7,255.8l22.4-12.6c1-0.5,1.8-0.1,1.8,1c-0.1,1.2-0.7,2.3-1.8,3l-22.4,12.6c-1,0.6-1.8,0.1-1.8-1
		C769,257.5,769.7,256.4,770.7,255.8z"/>
	
		<linearGradient id="SVGID_61_" gradientUnits="userSpaceOnUse" x1="769.01" y1="566.5363" x2="794.973" y2="566.5363" gradientTransform="matrix(1 0 0 -1 0 828)">
		<stop  offset="0" style="stop-color:#437FEC"/>
		<stop  offset="0.36" style="stop-color:#336CD5"/>
		<stop  offset="1" style="stop-color:#184EAE"/>
	</linearGradient>
	<path class="st68" d="M770.7,265.8l22.4-12.6c1-0.5,1.8-0.1,1.8,1c-0.1,1.2-0.7,2.3-1.8,3l-22.4,12.6c-1,0.5-1.8,0.1-1.8-1
		C769,267.5,769.7,266.4,770.7,265.8z"/>
	<path class="st1" d="M890.7,209.7l0.3,88l-28.8,16.9l-0.3-88L890.7,209.7z"/>
	<path class="st1" d="M862.2,314.6l-27.2-16l-0.2-88l27.2,16L862.2,314.6z"/>
	<path class="st2" d="M890.7,208.9l0.3,88l-28.8,16.9l-0.3-88L890.7,208.9z"/>
	<path class="st1" d="M882.6,286.4l0.1,15.4l-10.1,5.9l-0.1-15.4L882.6,286.4z"/>
	<path class="st4" d="M862.2,313.8l-27.2-16l-0.2-88l27.2,16L862.2,313.8z"/>
	<path class="st69" d="M861.9,225.8l-27.2-16l28.8-16.9l27.2,16L861.9,225.8z"/>
	
		<linearGradient id="SVGID_62_" gradientUnits="userSpaceOnUse" x1="855.8849" y1="601.7219" x2="869.6339" y2="635.6329" gradientTransform="matrix(1 0 0 -1 0 828)">
		<stop  offset="0" style="stop-color:#F1F4FE"/>
		<stop  offset="0.58" style="stop-color:#F7F9FE"/>
		<stop  offset="1" style="stop-color:#FFFFFF"/>
	</linearGradient>
	<path class="st70" d="M836.3,209.8l27.2-15.9l25.6,15.1l-27.2,16L836.3,209.8z"/>
	<path class="st71" d="M838.9,226.7l17.2,9.6c0.8,0.4,1.4,0,1.4-0.7c-0.1-0.9-0.6-1.7-1.3-2.2l-17.2-9.6c-0.8-0.4-1.4,0-1.4,0.7
		C837.6,225.4,838.1,226.2,838.9,226.7z"/>
	<path class="st71" d="M856.1,241.5l-17.2-9.5c-0.8-0.4-1.4,0-1.4,0.7c0.1,0.9,0.6,1.8,1.4,2.2l17.2,9.6c0.8,0.4,1.4,0,1.4-0.7
		C857.4,242.8,856.9,242,856.1,241.5z"/>
	<path class="st71" d="M856.1,247.3l-17.2-9.6c-0.8-0.4-1.4,0-1.4,0.7c0.1,0.9,0.6,1.7,1.4,2.2l17.2,9.6c0.8,0.4,1.4,0,1.4-0.7
		C857.4,248.7,856.9,247.8,856.1,247.3z"/>
	<path class="st71" d="M856.1,256.7l-17.2-9.6c-0.8-0.4-1.4,0-1.4,0.7c0.1,0.9,0.6,1.8,1.4,2.2l17.2,9.6c0.8,0.4,1.4,0,1.4-0.7
		C857.4,258,856.9,257.2,856.1,256.7z"/>
	<path class="st71" d="M856.1,264.9l-17.2-9.6c-0.8-0.4-1.4,0-1.4,0.7c0.1,0.9,0.6,1.8,1.4,2.2l17.2,9.6c0.8,0.4,1.4,0,1.4-0.7
		C857.4,266.2,856.9,265.4,856.1,264.9z"/>
	<path class="st71" d="M856.1,271.9l-17.2-9.5c-0.8-0.4-1.4,0-1.4,0.7c0.1,0.9,0.6,1.8,1.4,2.2l17.2,9.5c0.8,0.4,1.4,0.1,1.4-0.7
		C857.4,273.3,856.9,272.4,856.1,271.9z"/>
	<path class="st71" d="M856.1,280.1l-17.2-9.5c-0.8-0.4-1.4,0-1.4,0.7c0.1,0.9,0.6,1.8,1.4,2.2l17.2,9.5c0.8,0.4,1.4,0.1,1.4-0.7
		C857.4,281.5,856.9,280.6,856.1,280.1z"/>
	<path class="st71" d="M856.1,288.3l-17.2-9.6c-0.8-0.4-1.4,0-1.4,0.7c0.1,0.9,0.6,1.8,1.4,2.2l17.2,9.6c0.8,0.4,1.4,0,1.4-0.7
		C857.4,289.7,856.9,288.8,856.1,288.3z"/>
	<path class="st71" d="M856.1,296.5l-17.2-9.5c-0.8-0.4-1.4-0.1-1.4,0.7c0.1,0.9,0.6,1.8,1.4,2.3l17.2,9.5c0.8,0.4,1.4,0,1.4-0.7
		C857.4,297.9,856.9,297,856.1,296.5z"/>
	<path class="st1" d="M867,233.3l17.2-9.6c0.8-0.4,1.4,0,1.4,0.7c-0.1,0.9-0.6,1.8-1.3,2.3l-17.2,9.6c-0.8,0.4-1.4,0-1.4-0.7
		C865.7,234.6,866.2,233.8,867,233.3z"/>
	<path class="st1" d="M867,241.5l17.2-9.6c0.8-0.4,1.4,0,1.4,0.7c-0.1,0.9-0.6,1.7-1.3,2.2l-17.2,9.6c-0.8,0.4-1.4,0-1.4-0.7
		C865.7,242.8,866.2,242,867,241.5z"/>
	<path class="st1" d="M867,247.3l17.2-9.6c0.8-0.4,1.4,0,1.4,0.7c-0.1,0.9-0.6,1.7-1.3,2.2l-17.2,9.6c-0.8,0.4-1.4,0-1.4-0.7
		C865.7,248.7,866.2,247.8,867,247.3z"/>
	<path class="st1" d="M867,256.7l17.2-9.6c0.8-0.4,1.4,0,1.4,0.7c-0.1,0.9-0.6,1.7-1.3,2.2l-17.2,9.6c-0.8,0.4-1.4,0-1.4-0.7
		C865.7,258,866.2,257.2,867,256.7z"/>
	<path class="st1" d="M867,264.9l17.2-9.6c0.8-0.4,1.4,0,1.4,0.7c-0.1,0.9-0.6,1.7-1.3,2.2l-17.2,9.6c-0.8,0.4-1.4,0-1.4-0.7
		C865.7,266.2,866.2,265.4,867,264.9z"/>
	<path class="st1" d="M867,271.9l17.2-9.5c0.8-0.4,1.4,0,1.4,0.7c-0.1,0.9-0.6,1.7-1.3,2.2l-17.2,9.5c-0.8,0.4-1.4,0.1-1.4-0.7
		C865.7,273.3,866.2,272.4,867,271.9z"/>
	<path class="st1" d="M867,280.1l17.2-9.5c0.8-0.4,1.4,0,1.4,0.7c-0.1,0.9-0.6,1.7-1.3,2.2l-17.2,9.5c-0.8,0.4-1.4,0.1-1.4-0.7
		C865.7,281.5,866.2,280.6,867,280.1z"/>
	<path class="st1" d="M843.8,248.4l0.2,75.1l-24.6,14.4l-0.2-75.2L843.8,248.4z"/>
	<path class="st1" d="M819.4,337.9l-23.2-13.7l-0.2-75.2l23.2,13.7L819.4,337.9z"/>
	<path class="st2" d="M843.8,247.7l0.2,75.2l-24.6,14.4l-0.2-75.2L843.8,247.7z"/>
	<path class="st1" d="M836.9,313.8l0.1,13.2l-8.6,5l-0.1-13.2L836.9,313.8z"/>
	<path class="st4" d="M819.4,337.3l-23.2-13.7l-0.2-75.2l23.2,13.7L819.4,337.3z"/>
	<path class="st69" d="M819.2,262.1L796,248.4l24.6-14.4l23.2,13.7L819.2,262.1z"/>
	
		<linearGradient id="SVGID_63_" gradientUnits="userSpaceOnUse" x1="814.0232" y1="565.4615" x2="825.7612" y2="594.4125" gradientTransform="matrix(1 0 0 -1 0 828)">
		<stop  offset="0" style="stop-color:#F1F4FE"/>
		<stop  offset="0.58" style="stop-color:#F7F9FE"/>
		<stop  offset="1" style="stop-color:#FFFFFF"/>
	</linearGradient>
	<path class="st72" d="M797.3,248.4l23.2-13.6l21.8,12.9l-23.2,13.6L797.3,248.4z"/>
	<path class="st71" d="M799.5,262.9l14.7,8.2c0.6,0.4,1.2,0,1.2-0.6c0-0.8-0.5-1.5-1.1-1.9l-14.7-8.2c-0.6-0.4-1.2,0-1.2,0.6
		C798.4,261.8,798.8,262.5,799.5,262.9z"/>
	<path class="st71" d="M814.2,275.5l-14.7-8.1c-0.6-0.4-1.2,0-1.2,0.6c0,0.8,0.5,1.5,1.2,1.9l14.7,8.2c0.6,0.4,1.2,0,1.2-0.6
		C815.3,276.6,814.9,275.9,814.2,275.5z"/>
	<path class="st71" d="M814.2,280.5l-14.7-8.2c-0.6-0.4-1.2,0-1.2,0.6c0.1,0.8,0.5,1.5,1.2,1.9l14.7,8.2c0.6,0.4,1.2,0,1.2-0.6
		C815.3,281.7,814.9,280.9,814.2,280.5z"/>
	<path class="st71" d="M814.2,288.5l-14.7-8.2c-0.6-0.4-1.2,0-1.2,0.6c0,0.8,0.5,1.5,1.2,1.9l14.7,8.2c0.6,0.4,1.2,0,1.2-0.6
		C815.3,289.7,814.9,288.9,814.2,288.5z"/>
	<path class="st71" d="M814.2,295.5l-14.7-8.2c-0.6-0.4-1.2,0-1.2,0.6c0,0.8,0.5,1.5,1.2,1.9l14.7,8.2c0.6,0.4,1.2,0,1.2-0.6
		C815.3,296.7,814.9,295.9,814.2,295.5z"/>
	<path class="st71" d="M814.2,301.5l-14.7-8.1c-0.6-0.4-1.2,0-1.2,0.6c0,0.8,0.5,1.5,1.2,1.9l14.7,8.1c0.6,0.4,1.2,0.1,1.2-0.6
		C815.3,302.7,814.9,301.9,814.2,301.5z"/>
	<path class="st71" d="M814.2,308.5l-14.7-8.1c-0.6-0.4-1.2,0-1.2,0.6c0,0.8,0.5,1.5,1.2,1.9l14.7,8.1c0.6,0.4,1.2,0.1,1.2-0.6
		C815.3,309.7,814.9,308.9,814.2,308.5z"/>
	<path class="st71" d="M814.2,315.5l-14.7-8.2c-0.6-0.4-1.2,0-1.2,0.6c0,0.8,0.5,1.5,1.2,1.9l14.7,8.2c0.6,0.4,1.2,0,1.2-0.6
		C815.3,316.7,814.9,315.9,814.2,315.5z"/>
	<path class="st71" d="M814.2,322.5l-14.7-8.1c-0.6-0.4-1.2-0.1-1.2,0.6c0,0.8,0.5,1.5,1.2,1.9l14.7,8.1c0.6,0.4,1.2,0,1.2-0.6
		C815.3,323.7,814.9,322.9,814.2,322.5z"/>
	<path class="st1" d="M823.5,268.5l14.7-8.2c0.6-0.4,1.2,0,1.2,0.6c0,0.8-0.5,1.5-1.1,1.9l-14.7,8.2c-0.6,0.4-1.2,0-1.2-0.6
		C822.4,269.7,822.8,268.9,823.5,268.5z"/>
	<path class="st1" d="M823.5,275.5l14.7-8.2c0.6-0.4,1.2,0,1.2,0.6c0,0.8-0.5,1.5-1.1,1.9l-14.7,8.2c-0.6,0.4-1.2,0-1.2-0.6
		C822.4,276.7,822.8,275.9,823.5,275.5z"/>
	<path class="st1" d="M823.5,280.5l14.7-8.2c0.6-0.4,1.2,0,1.2,0.6c0,0.8-0.5,1.5-1.1,1.9l-14.7,8.2c-0.6,0.4-1.2,0-1.2-0.6
		C822.4,281.7,822.8,280.9,823.5,280.5z"/>
	<path class="st1" d="M823.5,288.5l14.7-8.2c0.6-0.4,1.2,0,1.2,0.6c0,0.8-0.5,1.5-1.1,1.9l-14.7,8.2c-0.6,0.4-1.2,0-1.2-0.6
		C822.4,289.7,822.8,288.9,823.5,288.5z"/>
	<path class="st1" d="M823.5,295.5l14.7-8.2c0.6-0.4,1.2,0,1.2,0.6c0,0.8-0.5,1.5-1.1,1.9l-14.7,8.2c-0.6,0.4-1.2,0-1.2-0.6
		C822.4,296.7,822.8,295.9,823.5,295.5z"/>
	<path class="st1" d="M823.5,301.5l14.7-8.1c0.6-0.4,1.2,0,1.2,0.6c0,0.8-0.5,1.5-1.1,1.9l-14.7,8.1c-0.6,0.4-1.2,0.1-1.2-0.6
		C822.4,302.7,822.8,301.9,823.5,301.5z"/>
	<path class="st1" d="M823.5,308.5l14.7-8.1c0.6-0.4,1.2,0,1.2,0.6c0,0.8-0.5,1.5-1.1,1.9l-14.7,8.1c-0.6,0.4-1.2,0.1-1.2-0.6
		C822.4,309.7,822.8,308.9,823.5,308.5z"/>
	
		<linearGradient id="SVGID_64_" gradientUnits="userSpaceOnUse" x1="821.117" y1="466.9075" x2="852.972" y2="466.9075" gradientTransform="matrix(1 0 0 -1 0 828)">
		<stop  offset="0" style="stop-color:#C0D6FF"/>
		<stop  offset="0.2978" style="stop-color:#C5DBFF"/>
		<stop  offset="0.6488" style="stop-color:#D3E9FF"/>
		<stop  offset="1" style="stop-color:#E9FFFF"/>
	</linearGradient>
	<path class="st73" d="M847.8,359l5.2-7l-4.3,15.8l-15.9,2.4l-11.7-13.3L847.8,359z"/>
	
		<linearGradient id="SVGID_65_" gradientUnits="userSpaceOnUse" x1="831.2225" y1="483.6638" x2="842.8885" y2="463.4588" gradientTransform="matrix(1 0 0 -1 0 828)">
		<stop  offset="0" style="stop-color:#C0D6FF"/>
		<stop  offset="0.2978" style="stop-color:#C5DBFF"/>
		<stop  offset="0.6488" style="stop-color:#D3E9FF"/>
		<stop  offset="1" style="stop-color:#E9FFFF"/>
	</linearGradient>
	<path class="st74" d="M853,352l-11.7-6.8l-15.9,2.5l-4.3,9.2l11.7,6.8l15.9-2.5L853,352z"/>
	<path class="st69" d="M852.7,351.8l-4.1,8.8l-15.9,2.5l-11.4-6.6l-0.1,0.3l11.7,6.8l15.9-2.5l4.3-9.2L852.7,351.8z"/>
	
		<linearGradient id="SVGID_66_" gradientUnits="userSpaceOnUse" x1="832.769" y1="462.3275" x2="848.696" y2="462.3275" gradientTransform="matrix(1 0 0 -1 0 828)">
		<stop  offset="0" style="stop-color:#C0D6FF"/>
		<stop  offset="0.2978" style="stop-color:#C5DBFF"/>
		<stop  offset="0.6488" style="stop-color:#D3E9FF"/>
		<stop  offset="1" style="stop-color:#E9FFFF"/>
	</linearGradient>
	<path class="st75" d="M848.7,361.1v6.6l-15.9,2.4v-6.6L848.7,361.1z"/>
	
		<linearGradient id="SVGID_67_" gradientUnits="userSpaceOnUse" x1="848.715" y1="468.129" x2="852.985" y2="468.129" gradientTransform="matrix(1 0 0 -1 0 828)">
		<stop  offset="0" style="stop-color:#E9FFFF"/>
		<stop  offset="0.3512" style="stop-color:#D3E9FF"/>
		<stop  offset="0.7022" style="stop-color:#C5DBFF"/>
		<stop  offset="1" style="stop-color:#C0D6FF"/>
	</linearGradient>
	<path class="st76" d="M853,352v6.6l-4.3,9.2v-6.6L853,352z"/>
	
		<linearGradient id="SVGID_68_" gradientUnits="userSpaceOnUse" x1="821.117" y1="464.4645" x2="832.782" y2="464.4645" gradientTransform="matrix(1 0 0 -1 0 828)">
		<stop  offset="0" style="stop-color:#5778FF"/>
		<stop  offset="0.1779" style="stop-color:#5C7DFF"/>
		<stop  offset="0.3876" style="stop-color:#6A8AFF"/>
		<stop  offset="0.6134" style="stop-color:#82A0FF"/>
		<stop  offset="0.849" style="stop-color:#A3BEFF"/>
		<stop  offset="1" style="stop-color:#BCD5FF"/>
	</linearGradient>
	<path class="st77" d="M821.1,356.9v6.6l11.7,6.7v-6.6L821.1,356.9z"/>
	<path class="st78" d="M842,357c-2.7,1.6-7.2,1.6-9.9,0c-2.7-1.6-2.7-4.1,0-5.7c2.7-1.6,7.2-1.6,9.9,0
		C844.7,352.8,844.7,355.4,842,357z"/>
	<path class="st79" d="M832.4,351.7l-2.8-1.8l0.4-0.4l1,0.2L832.4,351.7z"/>
	<path class="st80" d="M844.4,332.8l-2.8-1.8l1.6,3.1L844.4,332.8z"/>
	<path class="st80" d="M843.5,345.5c3.3-5.2,2.5-11.7-1.8-14.5c-4.3-2.8-10.5-0.8-13.9,4.5c-3.3,5.2-2.5,11.7,1.8,14.5
		C833.9,352.7,840.1,350.7,843.5,345.5z"/>
	<path class="st80" d="M846.3,347.3c3.3-5.2,2.5-11.7-1.8-14.5c-4.3-2.8-10.5-0.8-13.9,4.5c-3.3,5.2-2.5,11.7,1.8,14.5
		C836.8,354.5,843,352.5,846.3,347.3z"/>
	<path class="st79" d="M828.6,345.5c0.3,2.6,1.6,4.8,3.8,6.2c4.3,2.8,10.5,0.8,13.9-4.5c1.6-2.6,2.3-5.5,2-8.1L828.6,345.5z"/>
	<path class="st81" d="M846,347.1c3.2-5,2.4-11.2-1.7-13.8c-4.1-2.6-10.1-0.7-13.2,4.3c-3.2,5-2.4,11.2,1.7,13.8
		C836.8,353.9,842.8,352,846,347.1z"/>
	<path class="st82" d="M844.5,346.1c2.6-4,1.9-9-1.4-11.1c-3.3-2.1-8.1-0.6-10.6,3.4c-2.6,4-1.9,9,1.4,11.1
		C837.2,351.6,841.9,350.1,844.5,346.1z"/>
	<path class="st80" d="M843.1,335c-0.1-0.1-0.3-0.2-0.4-0.2c3,2.3,3.4,7,1,10.8c-2.4,3.9-7,5.4-10.2,3.7c0.1,0.1,0.3,0.2,0.4,0.3
		c3.3,2.1,8.1,0.6,10.6-3.4C847,342.1,846.4,337.1,843.1,335z"/>
	<path class="st79" d="M833,339.2c2.5-4,7.3-5.5,10.6-3.4c0.7,0.4,1.2,1,1.7,1.6c-0.5-1-1.2-1.8-2.2-2.4c-3.3-2.1-8.1-0.6-10.6,3.4
		c-2,3.2-2.1,7-0.3,9.5C830.9,345.5,831.1,342.1,833,339.2z"/>
	<path class="st79" d="M829.6,350c0.7,0.4,1.3,0.7,2,0.9c-0.5-0.6-1.3-1.5-1.3-1.5l-1.1-1.6l-0.1-0.9l-0.1-1.5l-3.3-2.1
		C826,346.1,827.4,348.5,829.6,350z"/>
	<path class="st79" d="M841.8,331.9l-1.5-1c0,0-0.1-0.1,0-0.2v0c0,0,0.1-0.1,0.2,0l1.5,1c0,0,0.1,0.1,0,0.2v0
		C841.9,332,841.8,332,841.8,331.9z"/>
	<path class="st79" d="M839.5,331.7l-1.9-1.2c-0.1,0-0.1-0.1,0-0.2l0-0.1c0-0.1,0.1-0.1,0.2,0l1.9,1.2c0.1,0,0.1,0.1,0,0.2l0,0.1
		C839.7,331.8,839.6,331.8,839.5,331.7z"/>
	<path class="st79" d="M837.3,332l-1.9-1.2c-0.1,0-0.1-0.1,0-0.2l0.1-0.1c0-0.1,0.1-0.1,0.2,0l1.9,1.2c0.1,0,0.1,0.1,0,0.2l-0.1,0.1
		C837.5,332,837.4,332.1,837.3,332z"/>
	<path class="st79" d="M835,333l-2.1-1.3c-0.1,0-0.1-0.1,0-0.2l0.1-0.1c0-0.1,0.1-0.1,0.2,0l2.1,1.3c0.1,0,0.1,0.1,0,0.2l-0.1,0.1
		C835.2,333,835.1,333,835,333z"/>
	<path class="st79" d="M833.1,334.3l-2.2-1.4c-0.1,0-0.1-0.1,0-0.2l0.1-0.1c0-0.1,0.1-0.1,0.2,0l2.2,1.4c0.1,0,0.1,0.1,0,0.2
		l-0.1,0.1C833.3,334.3,833.2,334.3,833.1,334.3z"/>
	<path class="st79" d="M831.6,335.7l-2.2-1.4c-0.1,0-0.1-0.1,0-0.2l0.1-0.1c0-0.1,0.1-0.1,0.2,0l2.2,1.4c0.1,0,0.1,0.1,0,0.2
		l-0.1,0.1C831.8,335.8,831.7,335.8,831.6,335.7z"/>
	<path class="st79" d="M830.3,337.4l-2.2-1.4c-0.1,0-0.1-0.1,0-0.2l0.1-0.1c0-0.1,0.1-0.1,0.2,0l2.2,1.4c0.1,0,0.1,0.1,0,0.2
		l-0.1,0.1C830.6,337.5,830.4,337.5,830.3,337.4z"/>
	<path class="st79" d="M829.3,339.2l-2.1-1.4c-0.1,0-0.1-0.1,0-0.2l0.1-0.1c0-0.1,0.1-0.1,0.2,0l2.1,1.4c0.1,0,0.1,0.1,0,0.2
		l-0.1,0.1C829.5,339.2,829.4,339.3,829.3,339.2z"/>
	<path class="st79" d="M828.6,341.2l-2.1-1.3c-0.1,0-0.1-0.1,0-0.2l0.1-0.1c0-0.1,0.1-0.1,0.2,0l2.1,1.3c0.1,0,0.1,0.1,0,0.2
		l-0.1,0.1C828.8,341.3,828.7,341.3,828.6,341.2z"/>
	<path class="st79" d="M828.3,343.5l-2.2-1.4c-0.1,0-0.1-0.1,0-0.2l0.1-0.1c0-0.1,0.1-0.1,0.2,0l2.2,1.4c0.1,0,0.1,0.1,0,0.2
		l-0.1,0.1C828.5,343.6,828.4,343.6,828.3,343.5z"/>
	<path class="st80" d="M842,339.9c-0.1-1.1-1.1-1.5-2.3-1.6l0-1.5l-0.9,0l0,1.5c-0.2,0-0.5,0-0.7,0l0-1.5l-0.9,0l0,1.5
		c-0.2,0-0.4,0-0.6,0v0l-1.3,0l0,1c0,0,0.7,0,0.7,0c0.4,0,0.5,0.2,0.5,0.4l0,1.7c0,0,0.1,0,0.1,0c0,0-0.1,0-0.1,0l0,2.4
		c0,0.1-0.1,0.3-0.4,0.3c0,0-0.7,0-0.7,0l-0.2,1.1l1.2,0c0.2,0,0.4,0,0.7,0l0,1.6l0.9,0l0-1.5c0.3,0,0.5,0,0.7,0l0,1.5l0.9,0l0-1.5
		c1.6-0.1,2.7-0.5,2.8-1.9c0.1-1.2-0.4-1.7-1.3-1.9C841.7,341.2,842,340.7,842,339.9z M840.7,343.2c0,1.2-2,1-2.6,1l0-2.1
		C838.7,342.1,840.7,342,840.7,343.2z M840.2,340.3c0,1.1-1.7,0.9-2.2,0.9l0-1.9C838.6,339.3,840.2,339.2,840.2,340.3z"/>
	
		<linearGradient id="SVGID_69_" gradientUnits="userSpaceOnUse" x1="863.1867" y1="644.4532" x2="751.4377" y2="628.5142" gradientTransform="matrix(1 0 0 -1 0 828)">
		<stop  offset="0" style="stop-color:#2C78F6"/>
		<stop  offset="1" style="stop-color:#00BFE7"/>
	</linearGradient>
	<path class="st83" d="M758.5,233.6l-0.6-27.2c0-0.4,0.2-0.7,0.5-0.9l98.2-57.1c0.7-0.4,1.5,0.1,1.5,0.8l0.6,25.2
		c0,0.4-0.2,0.7-0.5,0.9L760,234.4C759.4,234.8,758.5,234.3,758.5,233.6z"/>
	<path class="st84" d="M795,205.3l-0.5-0.4c0.1-0.4,0.2-0.8,0.3-1.1c0.1-0.4,0.2-0.7,0.3-1.1c0.1-0.2,0.1-0.4,0.1-0.6
		c0-0.2,0-0.3-0.1-0.4c-0.1-0.1-0.2-0.2-0.4-0.3c-0.2,0-0.3,0-0.5,0.1c-0.1,0.1-0.3,0.2-0.4,0.4c-0.1,0.2-0.2,0.3-0.2,0.5l-0.7-0.2
		c0.1-0.3,0.2-0.6,0.4-0.8c0.2-0.2,0.4-0.4,0.6-0.6c0.2-0.1,0.5-0.2,0.7-0.2c0.2,0,0.5,0,0.7,0.1c0.2,0.1,0.4,0.2,0.5,0.5
		c0.1,0.2,0.2,0.4,0.1,0.7c0,0.3-0.1,0.6-0.2,0.9c-0.1,0.2-0.1,0.5-0.2,0.7c-0.1,0.2-0.2,0.5-0.2,0.7l1.2-0.8l0-0.6l0.7,0l0,1
		L795,205.3z M797.3,198.9c0.2-0.1,0.5-0.2,0.7-0.3c0.2,0,0.5,0,0.7,0.1c0.2,0.1,0.4,0.2,0.5,0.5c0.1,0.1,0.1,0.2,0.1,0.4
		c0,0.1,0,0.3,0,0.4c0,0.1-0.1,0.3-0.2,0.4c0.3-0.1,0.5-0.1,0.7,0c0.2,0.1,0.4,0.2,0.5,0.4c0.2,0.3,0.2,0.5,0.2,0.8
		c0,0.2-0.1,0.5-0.3,0.6c-0.2,0.2-0.4,0.4-0.6,0.5c-0.2,0.1-0.5,0.2-0.7,0.3c-0.3,0.1-0.5,0-0.7,0c-0.2-0.1-0.4-0.3-0.6-0.5
		c-0.1-0.2-0.1-0.4-0.1-0.6c0-0.2,0.1-0.5,0.3-0.7c-0.2,0-0.3,0.1-0.4,0c-0.1,0-0.3-0.1-0.4-0.2c-0.1-0.1-0.2-0.2-0.3-0.3
		c-0.1-0.2-0.2-0.5-0.2-0.7c0-0.2,0.1-0.4,0.3-0.6C796.8,199.2,797,199,797.3,198.9z M797.6,199.4c-0.2,0.1-0.3,0.2-0.3,0.4
		c0,0.1,0,0.3,0.1,0.4c0.1,0.1,0.2,0.2,0.4,0.3c0.2,0,0.3,0,0.5-0.1c0.2-0.1,0.3-0.2,0.3-0.4c0-0.2,0-0.3-0.1-0.5
		c-0.1-0.1-0.2-0.2-0.4-0.3C798,199.3,797.8,199.3,797.6,199.4z M798.6,201c-0.2,0.1-0.3,0.3-0.4,0.5c0,0.2,0,0.3,0.1,0.5
		c0.1,0.2,0.2,0.3,0.4,0.3c0.2,0,0.4,0,0.5-0.1c0.2-0.1,0.3-0.3,0.4-0.4c0.1-0.2,0-0.3-0.1-0.5c-0.1-0.2-0.2-0.2-0.4-0.3
		C799,200.8,798.8,200.9,798.6,201z M801.5,201.3l-0.5-0.4c0.1-0.4,0.2-0.8,0.3-1.1c0.1-0.4,0.2-0.7,0.3-1.1
		c0.1-0.2,0.1-0.4,0.1-0.6c0-0.2,0-0.3-0.1-0.4c-0.1-0.1-0.2-0.2-0.4-0.3c-0.2,0-0.3,0-0.5,0.1c-0.1,0.1-0.3,0.2-0.4,0.4
		c-0.1,0.2-0.2,0.3-0.2,0.5l-0.7-0.2c0.1-0.3,0.2-0.6,0.4-0.8c0.2-0.2,0.4-0.4,0.6-0.6c0.2-0.1,0.5-0.2,0.7-0.2c0.2,0,0.5,0,0.7,0.1
		c0.2,0.1,0.4,0.2,0.5,0.5c0.1,0.2,0.2,0.4,0.1,0.7c0,0.3-0.1,0.6-0.2,0.9c-0.1,0.2-0.1,0.5-0.2,0.7c-0.1,0.2-0.2,0.5-0.2,0.7
		l1.2-0.8l0-0.6l0.7,0l0,1L801.5,201.3z M804.7,199.3l-0.5-0.4c0.1-0.4,0.2-0.8,0.3-1.1c0.1-0.4,0.2-0.7,0.3-1.1
		c0.1-0.2,0.1-0.4,0.1-0.6c0-0.2,0-0.3-0.1-0.4c-0.1-0.1-0.2-0.2-0.4-0.3c-0.2,0-0.3,0-0.5,0.1c-0.1,0.1-0.3,0.2-0.4,0.4
		c-0.1,0.2-0.2,0.3-0.2,0.5l-0.7-0.2c0.1-0.3,0.2-0.6,0.4-0.8c0.2-0.2,0.4-0.4,0.6-0.6c0.2-0.1,0.5-0.2,0.7-0.2c0.2,0,0.5,0,0.7,0.1
		c0.2,0.1,0.4,0.2,0.5,0.5c0.1,0.2,0.2,0.4,0.1,0.7c0,0.3-0.1,0.6-0.2,0.9c-0.1,0.2-0.1,0.5-0.2,0.7c-0.1,0.2-0.2,0.5-0.2,0.7
		l1.2-0.8l0-0.6l0.7,0l0,1L804.7,199.3z M807.9,196.2c0.1-0.1,0.3-0.1,0.4-0.1c0.2,0,0.3,0.1,0.3,0.2s0.1,0.3,0.1,0.4
		c0,0.1-0.1,0.3-0.2,0.3c-0.1,0.1-0.3,0.1-0.4,0.1c-0.2,0-0.3-0.1-0.3-0.2s-0.1-0.3-0.1-0.4C807.6,196.4,807.7,196.3,807.9,196.2z
		 M808.5,192c0.2-0.1,0.5-0.2,0.7-0.3c0.2,0,0.5,0,0.7,0.1c0.2,0.1,0.4,0.2,0.5,0.5c0.1,0.1,0.1,0.2,0.1,0.4c0,0.1,0,0.3,0,0.4
		c0,0.1-0.1,0.3-0.2,0.4c0.3-0.1,0.5-0.1,0.7,0c0.2,0.1,0.4,0.2,0.5,0.4c0.2,0.3,0.2,0.5,0.2,0.8c0,0.2-0.1,0.5-0.3,0.6
		c-0.2,0.2-0.4,0.4-0.6,0.5c-0.2,0.1-0.5,0.2-0.7,0.3c-0.3,0.1-0.5,0-0.7,0c-0.2-0.1-0.4-0.3-0.6-0.5c-0.1-0.2-0.1-0.4-0.1-0.6
		c0-0.2,0.1-0.5,0.3-0.7c-0.2,0-0.3,0.1-0.4,0c-0.1,0-0.3-0.1-0.4-0.2c-0.1-0.1-0.2-0.2-0.3-0.3c-0.1-0.2-0.2-0.5-0.2-0.7
		c0-0.2,0.1-0.4,0.3-0.6C808.1,192.3,808.3,192.1,808.5,192z M808.8,192.5c-0.2,0.1-0.3,0.2-0.3,0.4c0,0.1,0,0.3,0.1,0.4
		c0.1,0.1,0.2,0.2,0.4,0.3c0.2,0,0.3,0,0.5-0.1s0.3-0.2,0.3-0.4c0-0.2,0-0.3-0.1-0.5c-0.1-0.1-0.2-0.2-0.4-0.3
		C809.2,192.4,809,192.4,808.8,192.5z M809.8,194.1c-0.2,0.1-0.3,0.3-0.4,0.5c0,0.2,0,0.3,0.1,0.5c0.1,0.2,0.2,0.3,0.4,0.3
		c0.2,0,0.4,0,0.5-0.1c0.2-0.1,0.3-0.3,0.4-0.4c0.1-0.2,0-0.3-0.1-0.5c-0.1-0.2-0.2-0.2-0.4-0.3C810.2,193.9,810,194,809.8,194.1z
		 M812.1,191.8c0.1-0.1,0.2-0.3,0.3-0.4c0.1-0.1,0.2-0.2,0.3-0.3c0.2-0.1,0.4-0.2,0.7-0.2c0.2,0,0.5,0,0.7,0.1
		c0.2,0.1,0.4,0.3,0.6,0.5c0.3,0.4,0.3,0.8,0.2,1.2c-0.1,0.4-0.4,0.7-0.9,1c-0.2,0.1-0.5,0.2-0.7,0.3c-0.3,0-0.5,0-0.8,0l0.1-0.7
		c0.2,0,0.4,0,0.6,0c0.2,0,0.3-0.1,0.5-0.2c0.3-0.2,0.4-0.3,0.5-0.5c0.1-0.2,0-0.4-0.1-0.6c-0.1-0.2-0.3-0.3-0.5-0.4
		c-0.2,0-0.4,0-0.6,0.1c-0.1,0.1-0.2,0.2-0.3,0.3c-0.1,0.1-0.2,0.3-0.2,0.5l-0.5,0.1l-1.1-1.8l2.2-1.4l0.4,0.6l-1.6,1L812.1,191.8z"
		/>
	<path class="st84" d="M851.5,167.6l0.4-0.3l1.8,3l0.9-0.6l0.4,0.6l-2.5,1.6l-0.4-0.6l1-0.6l-1.2-2l-0.3,1l-0.7-0.2L851.5,167.6z
		 M854.5,165.8l0.4-0.3l1.8,3l0.9-0.6l0.4,0.6l-2.5,1.6l-0.4-0.6l1-0.6l-1.2-2l-0.3,1l-0.7-0.2L854.5,165.8z"/>
	<path class="st84" d="M815.7,181.6l2-1.2l0.3,0.5l-2,1.2L815.7,181.6z M819,181.8l-0.5-0.4c0.1-0.4,0.2-0.8,0.3-1.1
		c0.1-0.4,0.2-0.7,0.3-1.1c0.1-0.2,0.1-0.4,0.1-0.6c0-0.2,0-0.3-0.1-0.4c-0.1-0.1-0.2-0.2-0.4-0.3c-0.2,0-0.3,0-0.5,0.1
		c-0.1,0.1-0.3,0.2-0.4,0.4c-0.1,0.2-0.2,0.3-0.2,0.5l-0.7-0.2c0.1-0.3,0.2-0.6,0.4-0.8c0.2-0.2,0.4-0.4,0.6-0.6
		c0.2-0.1,0.5-0.2,0.7-0.2c0.2,0,0.5,0,0.7,0.1c0.2,0.1,0.4,0.2,0.5,0.5c0.1,0.2,0.2,0.4,0.1,0.7c0,0.3-0.1,0.6-0.2,0.9
		c-0.1,0.2-0.1,0.5-0.2,0.7c-0.1,0.2-0.2,0.5-0.2,0.7l1.2-0.8l0-0.6l0.7,0l0,1L819,181.8z M822.1,178.7c0.1-0.1,0.3-0.1,0.4-0.1
		c0.2,0,0.3,0.1,0.3,0.2c0.1,0.1,0.1,0.3,0.1,0.4c0,0.2-0.1,0.3-0.2,0.3c-0.1,0.1-0.3,0.1-0.4,0.1c-0.2,0-0.3-0.1-0.3-0.2
		c-0.1-0.1-0.1-0.3-0.1-0.4C821.9,178.9,822,178.8,822.1,178.7z M823.4,178.1c0.1,0,0.2,0,0.4-0.1c0.2,0,0.3-0.1,0.5-0.2
		c0.2-0.1,0.3-0.3,0.4-0.5c0.1-0.2,0.1-0.4,0.1-0.6c0-0.2-0.1-0.4-0.2-0.6c-0.1,0.2-0.2,0.4-0.3,0.5c-0.1,0.2-0.3,0.3-0.4,0.4
		c-0.2,0.1-0.4,0.2-0.6,0.2s-0.5,0-0.7-0.1c-0.2-0.1-0.4-0.3-0.6-0.6c-0.1-0.1-0.1-0.3-0.2-0.4c0-0.2-0.1-0.3,0-0.5
		c0-0.2,0.1-0.4,0.2-0.6c0.1-0.2,0.3-0.4,0.6-0.6c1-0.6,1.9-0.3,2.6,1c0.3,0.4,0.4,0.8,0.4,1.2c0,0.4,0,0.7-0.2,1
		c-0.2,0.3-0.4,0.5-0.7,0.7c-0.1,0.1-0.3,0.2-0.4,0.2c-0.2,0-0.3,0.1-0.4,0.1c-0.1,0-0.2,0-0.3,0L823.4,178.1z M822.8,175.2
		c-0.1,0.1-0.2,0.2-0.3,0.3c-0.1,0.1-0.1,0.3-0.1,0.4c0,0.1,0.1,0.3,0.1,0.4c0.1,0.2,0.3,0.3,0.5,0.4c0.2,0,0.4,0,0.5-0.1
		c0.2-0.1,0.3-0.2,0.4-0.4c0.1-0.2,0.2-0.3,0.2-0.5c-0.2-0.3-0.4-0.4-0.5-0.5c-0.2-0.1-0.3-0.1-0.5-0.1
		C823.1,175.1,823,175.1,822.8,175.2z M825.4,172.8c0.2-0.2,0.5-0.2,0.7-0.1c0.2,0.1,0.5,0.3,0.7,0.7s0.3,0.7,0.3,1
		c-0.1,0.2-0.2,0.5-0.5,0.6c-0.2,0.1-0.3,0.2-0.5,0.2c-0.2,0-0.3,0-0.5-0.2c-0.2-0.1-0.3-0.3-0.5-0.6c-0.2-0.3-0.3-0.5-0.3-0.7
		c0-0.2,0-0.4,0.1-0.5C825.1,173,825.2,172.9,825.4,172.8z M827.1,171.7l0.5-0.3l0.7,4.8l-0.5,0.3L827.1,171.7z M825.7,173.3
		c-0.1,0.1-0.1,0.1-0.2,0.3c0,0.1,0.1,0.3,0.2,0.5c0.1,0.2,0.3,0.4,0.4,0.4c0.1,0,0.2,0,0.3,0c0.1-0.1,0.1-0.1,0.2-0.3
		c0-0.1,0-0.3-0.2-0.5c-0.1-0.2-0.3-0.4-0.4-0.4C825.8,173.2,825.7,173.2,825.7,173.3z M828.8,173c0.2-0.2,0.5-0.2,0.7-0.1
		c0.2,0.1,0.5,0.3,0.7,0.7c0.2,0.4,0.3,0.7,0.3,1c-0.1,0.3-0.2,0.5-0.5,0.6c-0.2,0.2-0.5,0.2-0.7,0.1c-0.3-0.1-0.5-0.3-0.7-0.7
		c-0.2-0.3-0.3-0.5-0.3-0.7c0-0.2,0-0.4,0.1-0.5C828.5,173.2,828.6,173.1,828.8,173z M829.1,173.5c-0.1,0.1-0.1,0.1-0.2,0.3
		c0,0.1,0,0.3,0.2,0.5c0.1,0.2,0.3,0.4,0.4,0.4c0.1,0,0.2,0,0.3,0c0.1-0.1,0.1-0.1,0.2-0.2c0-0.1,0-0.3-0.2-0.5
		c-0.1-0.2-0.3-0.4-0.4-0.4C829.3,173.4,829.2,173.4,829.1,173.5z"/>
	<path class="st84" d="M793.3,192.3c0,0-0.1,0-0.3,0.1c-0.1,0-0.3,0.1-0.4,0.2c-0.4,0.2-0.5,0.5-0.6,0.8c0,0.3,0.1,0.7,0.3,1.1
		c0.3,0.4,0.6,0.7,0.9,0.8c0.3,0.1,0.7,0.1,1-0.2c0.1-0.1,0.3-0.2,0.4-0.3c0.1-0.1,0.1-0.2,0.2-0.2l-0.2-0.6l0.7-0.2l0.3,1
		c0,0,0,0.1-0.1,0.2c-0.1,0.1-0.2,0.2-0.3,0.4c-0.1,0.1-0.3,0.3-0.5,0.4c-0.4,0.2-0.7,0.3-1.1,0.4c-0.4,0-0.7-0.1-1-0.2
		c-0.3-0.2-0.6-0.5-0.9-0.9c-0.2-0.4-0.4-0.8-0.4-1.1c0-0.4,0.1-0.7,0.2-1c0.2-0.3,0.4-0.6,0.8-0.8c0.2-0.2,0.5-0.3,0.7-0.3
		c0.2-0.1,0.4-0.1,0.5-0.1c0.1,0,0.2,0,0.2,0l0.7,0.7l-0.5,0.5L793.3,192.3z M795.9,191.5c0.2-0.4,0.4-0.7,0.8-0.9
		c0.1-0.1,0.3-0.2,0.5-0.2l0.6,0.7l-0.5,0.5l-0.3-0.3c-0.1,0.1-0.2,0.2-0.3,0.3c-0.1,0.1-0.2,0.2-0.2,0.3l0.9,1.4l0.6-0.4l0.3,0.5
		l-1.8,1.1l-0.3-0.5l0.5-0.3l-0.9-1.5l-0.7,0.2l-0.2-0.7L795.9,191.5z M800.7,193.9c-0.2,0.1-0.4,0.2-0.6,0.2l-0.2-0.6
		c0.1,0,0.2,0,0.2-0.1c0.1,0,0.1-0.1,0.2-0.1c0.1-0.1,0.2-0.1,0.2-0.2c0-0.1,0.1-0.2,0-0.3c0-0.2,0-0.3-0.1-0.6l-2.4-1.6l-0.4,0.3
		l-0.3-0.5l1.5-0.9l0.3,0.5l-0.3,0.2l1.6,1.1l-0.3-1.9l-0.3,0.2l-0.3-0.6l1.4-0.9l0.3,0.5l-0.5,0.3l0.5,3.3c0.1,0.4,0.1,0.8,0,1
		C801.1,193.5,800.9,193.7,800.7,193.9z M803.4,192l-0.3-0.5l0.5-0.3l-1.7-2.8l-0.7,0.2l-0.2-0.6l1-0.2c0.1-0.2,0.2-0.3,0.3-0.5
		c0.1-0.1,0.2-0.3,0.4-0.3c0.4-0.3,0.8-0.3,1.2-0.2c0.4,0.1,0.7,0.4,1,0.8c0.2,0.3,0.3,0.6,0.3,0.9c0,0.3,0,0.6-0.2,0.8
		c-0.1,0.2-0.3,0.5-0.6,0.6c-0.2,0.1-0.4,0.2-0.6,0.3l0.4,0.7l0.5-0.3l0.3,0.5L803.4,192z M804.1,189.2c0.2-0.1,0.4-0.3,0.4-0.6
		c0-0.2-0.1-0.5-0.2-0.8c-0.2-0.3-0.4-0.5-0.6-0.5c-0.2-0.1-0.4-0.1-0.6,0.1c-0.2,0.1-0.4,0.3-0.5,0.6l0.9,1.5
		C803.7,189.5,803.9,189.4,804.1,189.2z M807.5,187.9c-0.3,0.2-0.6,0.2-0.9,0.2c-0.3-0.1-0.5-0.3-0.8-0.7l-0.7-1.2l-0.5,0.3
		l-0.3-0.5l0.5-0.3l-0.3-0.5l0.5-0.6l0.4,0.7l0.7-0.4l0.3,0.5l-0.7,0.4l0.6,1c0.1,0.2,0.3,0.4,0.4,0.5c0.1,0.1,0.3,0.1,0.4,0
		c0.1-0.1,0.2-0.2,0.3-0.4l0.4,0.4c-0.1,0.1-0.1,0.2-0.2,0.3C807.7,187.7,807.6,187.8,807.5,187.9z M808,183.6
		c0.4-0.3,0.9-0.4,1.3-0.3c0.4,0.1,0.7,0.4,1,0.8c0.3,0.5,0.4,0.9,0.3,1.3c-0.1,0.4-0.4,0.7-0.8,1c-0.4,0.3-0.9,0.3-1.3,0.2
		c-0.4-0.1-0.7-0.4-1-0.8c-0.3-0.5-0.4-0.9-0.3-1.3C807.3,184.2,807.6,183.9,808,183.6z M808.4,184.1c-0.2,0.1-0.4,0.3-0.4,0.6
		c0,0.2,0.1,0.5,0.2,0.8c0.2,0.3,0.4,0.5,0.6,0.6c0.2,0.1,0.4,0,0.7-0.1c0.2-0.2,0.4-0.3,0.4-0.6c0-0.2,0-0.5-0.2-0.8
		c-0.2-0.3-0.4-0.5-0.6-0.6C808.8,183.9,808.6,184,808.4,184.1z"/>
	<path class="st84" d="M761.8,213.6l2-1.2l0.3,0.5l-2,1.2L761.8,213.6z M765,213.8l-0.5-0.4c0.1-0.4,0.2-0.8,0.3-1.1
		s0.2-0.7,0.3-1.1c0.1-0.2,0.1-0.4,0.1-0.6c0-0.2,0-0.3-0.1-0.4c-0.1-0.1-0.2-0.2-0.4-0.3c-0.2,0-0.3,0-0.5,0.1
		c-0.1,0.1-0.3,0.2-0.4,0.4c-0.1,0.2-0.2,0.3-0.2,0.5l-0.7-0.2c0.1-0.3,0.2-0.6,0.4-0.8c0.2-0.2,0.4-0.4,0.6-0.6
		c0.2-0.1,0.5-0.2,0.7-0.2c0.2,0,0.5,0,0.7,0.1c0.2,0.1,0.4,0.2,0.5,0.5c0.1,0.2,0.2,0.4,0.1,0.7c0,0.3-0.1,0.6-0.2,0.9
		c-0.1,0.2-0.1,0.5-0.2,0.7c-0.1,0.2-0.2,0.5-0.2,0.7l1.2-0.8l0-0.6l0.7,0l0,1L765,213.8z M768.2,210.7c0.1-0.1,0.3-0.1,0.4-0.1
		c0.2,0,0.3,0.1,0.3,0.2c0.1,0.1,0.1,0.3,0.1,0.4c0,0.2-0.1,0.3-0.2,0.3c-0.1,0.1-0.3,0.1-0.4,0.1c-0.1,0-0.3-0.1-0.3-0.2
		c-0.1-0.1-0.1-0.3-0.1-0.4C768,210.9,768,210.8,768.2,210.7z M769.5,210.1c0.1,0,0.2,0,0.4-0.1c0.2,0,0.3-0.1,0.5-0.2
		c0.2-0.1,0.3-0.3,0.4-0.5c0.1-0.2,0.1-0.4,0.1-0.6c0-0.2-0.1-0.4-0.2-0.6c-0.1,0.2-0.2,0.4-0.3,0.5c-0.1,0.2-0.3,0.3-0.4,0.4
		c-0.2,0.1-0.4,0.2-0.6,0.2c-0.2,0-0.5,0-0.7-0.1c-0.2-0.1-0.4-0.3-0.6-0.6c-0.1-0.1-0.1-0.3-0.2-0.4c0-0.2-0.1-0.3,0-0.5
		c0-0.2,0.1-0.4,0.2-0.6c0.1-0.2,0.3-0.4,0.6-0.6c1-0.6,1.9-0.3,2.6,1c0.3,0.4,0.4,0.8,0.4,1.2c0,0.4,0,0.7-0.2,1
		c-0.2,0.3-0.4,0.5-0.7,0.7c-0.1,0.1-0.3,0.2-0.4,0.2c-0.2,0-0.3,0.1-0.4,0.1c-0.1,0-0.2,0-0.3,0L769.5,210.1z M768.9,207.2
		c-0.1,0.1-0.2,0.2-0.3,0.3c-0.1,0.1-0.1,0.3-0.1,0.4c0,0.1,0.1,0.3,0.1,0.4c0.1,0.2,0.3,0.3,0.5,0.4c0.2,0,0.4,0,0.5-0.1
		c0.2-0.1,0.3-0.2,0.4-0.4c0.1-0.2,0.2-0.3,0.2-0.5c-0.2-0.3-0.4-0.4-0.5-0.5c-0.2-0.1-0.3-0.1-0.5-0.1
		C769.2,207.1,769,207.1,768.9,207.2z M771.4,204.8c0.2-0.2,0.5-0.2,0.7-0.1c0.2,0.1,0.5,0.3,0.7,0.7c0.2,0.4,0.3,0.7,0.3,1
		c-0.1,0.2-0.2,0.5-0.5,0.6c-0.2,0.1-0.3,0.2-0.5,0.2c-0.2,0-0.3,0-0.5-0.2c-0.2-0.1-0.3-0.3-0.5-0.6c-0.2-0.3-0.3-0.5-0.3-0.7
		c0-0.2,0-0.4,0.1-0.5C771.1,205,771.3,204.9,771.4,204.8z M773.2,203.7l0.5-0.3l0.7,4.8l-0.5,0.3L773.2,203.7z M771.7,205.3
		c-0.1,0.1-0.1,0.1-0.2,0.3c0,0.1,0.1,0.3,0.2,0.5c0.1,0.2,0.3,0.4,0.4,0.4c0.1,0,0.2,0,0.3,0c0.1-0.1,0.1-0.1,0.2-0.3
		c0-0.1,0-0.3-0.2-0.5c-0.1-0.2-0.3-0.4-0.4-0.4C771.9,205.2,771.8,205.2,771.7,205.3z M774.9,205c0.2-0.2,0.5-0.2,0.7-0.1
		c0.2,0.1,0.5,0.3,0.7,0.7c0.2,0.4,0.3,0.7,0.3,1c-0.1,0.3-0.2,0.5-0.5,0.6c-0.2,0.2-0.5,0.2-0.7,0.1c-0.3-0.1-0.5-0.3-0.7-0.7
		c-0.2-0.3-0.3-0.5-0.3-0.7c0-0.2,0-0.4,0.1-0.5C774.6,205.2,774.7,205.1,774.9,205z M775.2,205.5c-0.1,0.1-0.1,0.1-0.2,0.3
		c0,0.1,0,0.3,0.2,0.5c0.1,0.2,0.3,0.4,0.4,0.4c0.1,0,0.2,0,0.3,0c0.1-0.1,0.1-0.1,0.2-0.2c0-0.1,0-0.3-0.2-0.5
		c-0.1-0.2-0.3-0.4-0.4-0.4C775.4,205.4,775.3,205.4,775.2,205.5z"/>
	<path class="st84" d="M817.6,190.2l2-1.2l0.3,0.5l-2,1.2L817.6,190.2z M820.2,185.9c0.2-0.1,0.5-0.2,0.7-0.3c0.2,0,0.5,0,0.7,0.1
		c0.2,0.1,0.4,0.2,0.5,0.5c0.1,0.1,0.1,0.2,0.1,0.4c0,0.1,0,0.3,0,0.4c0,0.1-0.1,0.3-0.2,0.4c0.3-0.1,0.5-0.1,0.7,0
		c0.2,0.1,0.4,0.2,0.5,0.4c0.2,0.3,0.2,0.5,0.2,0.8c0,0.2-0.1,0.5-0.3,0.7c-0.2,0.2-0.4,0.4-0.6,0.5c-0.2,0.1-0.5,0.2-0.7,0.3
		c-0.3,0.1-0.5,0-0.7,0c-0.2-0.1-0.4-0.3-0.6-0.5c-0.1-0.2-0.2-0.4-0.1-0.6c0-0.2,0.1-0.5,0.3-0.7c-0.2,0-0.3,0.1-0.4,0
		c-0.1,0-0.3-0.1-0.4-0.2c-0.1-0.1-0.2-0.2-0.3-0.3c-0.1-0.2-0.2-0.5-0.2-0.7c0-0.2,0.1-0.4,0.3-0.6
		C819.8,186.2,820,186,820.2,185.9z M820.6,186.4c-0.2,0.1-0.3,0.2-0.3,0.4c0,0.1,0,0.3,0.1,0.4c0.1,0.1,0.2,0.2,0.4,0.3
		c0.2,0,0.3,0,0.5-0.1c0.2-0.1,0.3-0.2,0.3-0.4c0-0.2,0-0.3-0.1-0.5c-0.1-0.1-0.2-0.2-0.4-0.3C820.9,186.3,820.8,186.3,820.6,186.4z
		 M821.5,188c-0.2,0.1-0.3,0.3-0.4,0.5c0,0.2,0,0.3,0.1,0.5c0.1,0.2,0.2,0.3,0.4,0.3c0.2,0,0.4,0,0.5-0.1c0.2-0.1,0.3-0.3,0.4-0.4
		c0.1-0.2,0-0.3-0.1-0.5c-0.1-0.2-0.2-0.2-0.4-0.3C821.9,187.8,821.7,187.8,821.5,188z M823.8,185.7c0.1-0.1,0.2-0.3,0.3-0.4
		s0.2-0.2,0.3-0.3c0.2-0.1,0.4-0.2,0.7-0.2c0.2,0,0.5,0,0.7,0.1c0.2,0.1,0.4,0.3,0.6,0.5c0.3,0.4,0.3,0.8,0.2,1.2
		c-0.1,0.4-0.4,0.7-0.9,1c-0.2,0.1-0.5,0.2-0.7,0.3c-0.3,0-0.5,0-0.8,0l0.1-0.7c0.2,0,0.4,0,0.6,0c0.2,0,0.3-0.1,0.5-0.2
		c0.3-0.2,0.4-0.3,0.5-0.5c0.1-0.2,0-0.4-0.1-0.6c-0.1-0.2-0.3-0.3-0.5-0.4c-0.2,0-0.4,0-0.6,0.1c-0.1,0.1-0.2,0.2-0.3,0.3
		c-0.1,0.1-0.2,0.3-0.2,0.5l-0.5,0.1l-1.1-1.8l2.2-1.4l0.4,0.6l-1.6,1L823.8,185.7z M827.5,185.3c0.1-0.1,0.3-0.1,0.4-0.1
		s0.3,0.1,0.3,0.2c0.1,0.1,0.1,0.3,0.1,0.4c0,0.2-0.1,0.3-0.2,0.3c-0.1,0.1-0.3,0.1-0.4,0.1c-0.2,0-0.3-0.1-0.3-0.2
		c-0.1-0.1-0.1-0.3-0.1-0.4C827.3,185.5,827.4,185.3,827.5,185.3z M829.7,181.1c-0.1,0-0.2,0-0.4,0.1c-0.2,0-0.3,0.1-0.4,0.2
		c-0.2,0.1-0.4,0.3-0.4,0.5c-0.1,0.2-0.1,0.4-0.1,0.6c0,0.2,0.1,0.4,0.2,0.6c0.1-0.2,0.2-0.4,0.3-0.5c0.1-0.2,0.3-0.3,0.5-0.4
		c0.2-0.1,0.4-0.2,0.6-0.2c0.2,0,0.4,0,0.7,0.1c0.2,0.1,0.4,0.3,0.6,0.6c0.1,0.1,0.1,0.3,0.2,0.4c0,0.2,0.1,0.3,0,0.5
		c0,0.2-0.1,0.4-0.2,0.6c-0.1,0.2-0.3,0.4-0.6,0.6c-0.5,0.3-1,0.4-1.4,0.2c-0.4-0.2-0.8-0.6-1.2-1.2c-0.2-0.4-0.4-0.7-0.4-1.1
		c0-0.4,0-0.7,0.2-1c0.1-0.3,0.4-0.6,0.7-0.8c0.1-0.1,0.3-0.1,0.4-0.2c0.2,0,0.3-0.1,0.4-0.1c0.1,0,0.2,0,0.3,0L829.7,181.1z
		 M829.5,182.8c-0.2,0.1-0.3,0.2-0.4,0.4c-0.1,0.2-0.2,0.3-0.2,0.5c0.2,0.3,0.4,0.4,0.5,0.5c0.2,0.1,0.3,0.1,0.5,0.1
		c0.1,0,0.3-0.1,0.4-0.1c0.2-0.1,0.3-0.2,0.3-0.3c0.1-0.1,0.1-0.3,0.1-0.4c0-0.1-0.1-0.2-0.1-0.3c-0.1-0.2-0.3-0.4-0.5-0.4
		C829.9,182.6,829.7,182.6,829.5,182.8z M831.8,180.7c0.1-0.1,0.2-0.3,0.3-0.4s0.2-0.2,0.3-0.3c0.2-0.1,0.4-0.2,0.7-0.2
		c0.2,0,0.5,0,0.7,0.1c0.2,0.1,0.4,0.3,0.6,0.5c0.3,0.4,0.3,0.8,0.2,1.2c-0.1,0.4-0.4,0.7-0.9,1c-0.2,0.1-0.5,0.2-0.7,0.3
		c-0.3,0-0.5,0-0.8,0l0.1-0.7c0.2,0,0.4,0,0.6,0c0.2,0,0.3-0.1,0.5-0.2c0.3-0.2,0.4-0.3,0.5-0.5c0.1-0.2,0-0.4-0.1-0.6
		c-0.1-0.2-0.3-0.3-0.5-0.4c-0.2,0-0.4,0-0.6,0.1c-0.1,0.1-0.2,0.2-0.3,0.3c-0.1,0.1-0.2,0.3-0.2,0.5l-0.5,0.1l-1.1-1.8l2.2-1.4
		l0.4,0.6l-1.6,1L831.8,180.7z"/>
	
		<linearGradient id="SVGID_70_" gradientUnits="userSpaceOnUse" x1="757.659" y1="619.6602" x2="718.656" y2="616.8262" gradientTransform="matrix(1 0 0 -1 0 828)">
		<stop  offset="0" style="stop-color:#2C78F6"/>
		<stop  offset="1" style="stop-color:#00BFE7"/>
	</linearGradient>
	<path class="st85" d="M755.5,206.1l0.5,26.1c0,0.8-0.8,1.3-1.5,0.9l-33-19.8c-0.3-0.2-0.5-0.5-0.5-0.9v-25.2c0-0.8,0.8-1.3,1.5-0.9
		l32.5,18.8C755.3,205.4,755.5,205.7,755.5,206.1z"/>
	<path class="st84" d="M760.7,224.2l2-1.2l0.3,0.5l-2,1.2L760.7,224.2z M763.3,219.9c0.2-0.1,0.5-0.2,0.7-0.3c0.2,0,0.5,0,0.7,0.1
		c0.2,0.1,0.4,0.2,0.5,0.5c0.1,0.1,0.1,0.2,0.1,0.4c0,0.1,0,0.3,0,0.4c0,0.1-0.1,0.3-0.2,0.4c0.3-0.1,0.5-0.1,0.7,0
		c0.2,0.1,0.4,0.2,0.5,0.4c0.2,0.3,0.2,0.5,0.2,0.8c0,0.2-0.1,0.5-0.3,0.7c-0.2,0.2-0.4,0.4-0.6,0.5c-0.2,0.1-0.5,0.2-0.7,0.3
		c-0.3,0.1-0.5,0-0.7,0c-0.2-0.1-0.4-0.3-0.6-0.5c-0.1-0.2-0.2-0.4-0.1-0.6c0-0.2,0.1-0.5,0.3-0.7c-0.2,0-0.3,0.1-0.4,0
		c-0.1,0-0.3-0.1-0.4-0.2c-0.1-0.1-0.2-0.2-0.3-0.3c-0.1-0.2-0.2-0.5-0.2-0.7c0-0.2,0.1-0.4,0.3-0.6
		C762.9,220.2,763.1,220,763.3,219.9z M763.7,220.4c-0.2,0.1-0.3,0.2-0.3,0.4c0,0.1,0,0.3,0.1,0.4c0.1,0.1,0.2,0.2,0.4,0.3
		c0.2,0,0.3,0,0.5-0.1c0.2-0.1,0.3-0.2,0.3-0.4c0-0.2,0-0.3-0.1-0.5c-0.1-0.1-0.2-0.2-0.4-0.3C764,220.3,763.8,220.3,763.7,220.4z
		 M764.6,222c-0.2,0.1-0.3,0.3-0.4,0.5c0,0.2,0,0.3,0.1,0.5c0.1,0.2,0.2,0.3,0.4,0.3c0.2,0,0.4,0,0.5-0.1c0.2-0.1,0.3-0.3,0.4-0.4
		c0.1-0.2,0-0.3-0.1-0.5c-0.1-0.2-0.2-0.2-0.4-0.3C765,221.8,764.8,221.8,764.6,222z M766.9,219.7c0.1-0.1,0.2-0.3,0.3-0.4
		c0.1-0.1,0.2-0.2,0.3-0.3c0.2-0.1,0.4-0.2,0.7-0.2c0.2,0,0.5,0,0.7,0.1c0.2,0.1,0.4,0.3,0.6,0.5c0.3,0.4,0.3,0.8,0.2,1.2
		c-0.1,0.4-0.4,0.7-0.9,1c-0.2,0.1-0.5,0.2-0.7,0.3c-0.3,0-0.5,0-0.8,0l0.1-0.7c0.2,0,0.4,0,0.6,0c0.2,0,0.3-0.1,0.5-0.2
		c0.2-0.2,0.4-0.3,0.5-0.5c0.1-0.2,0-0.4-0.1-0.6c-0.1-0.2-0.3-0.3-0.5-0.4c-0.2,0-0.4,0-0.6,0.1c-0.1,0.1-0.2,0.2-0.3,0.3
		c-0.1,0.1-0.2,0.3-0.2,0.5l-0.5,0.1l-1.1-1.8l2.2-1.4l0.4,0.6l-1.6,1L766.9,219.7z M770.6,219.3c0.1-0.1,0.3-0.1,0.4-0.1
		s0.3,0.1,0.3,0.2c0.1,0.1,0.1,0.3,0.1,0.4c0,0.2-0.1,0.3-0.2,0.3c-0.1,0.1-0.3,0.1-0.4,0.1c-0.2,0-0.3-0.1-0.3-0.2
		c-0.1-0.1-0.1-0.3-0.1-0.4C770.4,219.5,770.5,219.3,770.6,219.3z M772.8,215.1c-0.1,0-0.2,0-0.4,0.1c-0.2,0-0.3,0.1-0.4,0.2
		c-0.2,0.1-0.4,0.3-0.4,0.5c-0.1,0.2-0.1,0.4-0.1,0.6c0,0.2,0.1,0.4,0.2,0.6c0.1-0.2,0.2-0.4,0.3-0.5c0.1-0.2,0.3-0.3,0.5-0.4
		c0.2-0.1,0.4-0.2,0.6-0.2c0.2,0,0.4,0,0.7,0.1c0.2,0.1,0.4,0.3,0.6,0.6c0.1,0.1,0.1,0.3,0.2,0.4c0,0.2,0.1,0.3,0,0.5
		c0,0.2-0.1,0.4-0.2,0.6c-0.1,0.2-0.3,0.4-0.6,0.6c-0.5,0.3-1,0.4-1.4,0.2c-0.4-0.2-0.8-0.6-1.2-1.2c-0.2-0.4-0.4-0.7-0.4-1.1
		c0-0.4,0-0.7,0.2-1c0.1-0.3,0.4-0.6,0.7-0.8c0.1-0.1,0.3-0.1,0.4-0.2c0.2,0,0.3-0.1,0.4-0.1c0.1,0,0.2,0,0.3,0L772.8,215.1z
		 M772.6,216.8c-0.2,0.1-0.3,0.2-0.4,0.4c-0.1,0.2-0.2,0.3-0.2,0.5c0.2,0.3,0.4,0.4,0.5,0.5c0.2,0.1,0.3,0.1,0.5,0.1
		c0.1,0,0.3-0.1,0.4-0.1c0.2-0.1,0.3-0.2,0.3-0.3c0.1-0.1,0.1-0.3,0.1-0.4c0-0.1-0.1-0.2-0.1-0.3c-0.1-0.2-0.3-0.4-0.5-0.4
		C773,216.6,772.8,216.6,772.6,216.8z M774.9,214.7c0.1-0.1,0.2-0.3,0.3-0.4c0.1-0.1,0.2-0.2,0.3-0.3c0.2-0.1,0.4-0.2,0.7-0.2
		c0.2,0,0.5,0,0.7,0.1c0.2,0.1,0.4,0.3,0.6,0.5c0.3,0.4,0.3,0.8,0.2,1.2c-0.1,0.4-0.4,0.7-0.9,1c-0.2,0.1-0.5,0.2-0.7,0.3
		c-0.3,0-0.5,0-0.8,0l0.1-0.7c0.2,0,0.4,0,0.6,0c0.2,0,0.3-0.1,0.5-0.2c0.3-0.2,0.4-0.3,0.5-0.5c0.1-0.2,0-0.4-0.1-0.6
		c-0.1-0.2-0.3-0.3-0.5-0.4c-0.2,0-0.4,0-0.6,0.1c-0.1,0.1-0.2,0.2-0.3,0.3c-0.1,0.1-0.2,0.3-0.2,0.5l-0.5,0.1l-1.1-1.8l2.2-1.4
		l0.4,0.6l-1.6,1L774.9,214.7z"/>
	<path class="st84" d="M852.6,162.4c-0.1,0.2-0.2,0.3-0.2,0.5c-0.1,0.1-0.2,0.3-0.3,0.4c-0.1,0.1-0.3,0.3-0.5,0.4
		c-0.4,0.2-0.7,0.3-1.1,0.3c-0.4,0-0.7-0.1-1-0.3c-0.3-0.2-0.6-0.5-0.8-0.9c-0.2-0.4-0.4-0.8-0.4-1.1c0-0.4,0.1-0.7,0.2-1
		c0.2-0.3,0.5-0.6,0.8-0.8c0.2-0.1,0.5-0.2,0.7-0.3c0.2-0.1,0.5-0.1,0.7-0.1l0.7,0.7l-0.5,0.5l-0.5-0.5c-0.2,0-0.5,0.1-0.7,0.2
		c-0.2,0.1-0.3,0.3-0.5,0.5c-0.1,0.2-0.2,0.4-0.1,0.7c0,0.3,0.1,0.5,0.3,0.8c0.2,0.4,0.5,0.7,0.9,0.8c0.3,0.1,0.7,0.1,1-0.1
		c0.1-0.1,0.3-0.2,0.3-0.3c0.1-0.1,0.2-0.2,0.2-0.3l-0.4-0.6l-0.8,0.5l-0.3-0.5l1.4-0.8L852.6,162.4z M855.3,161.1
		c-0.2,0.3-0.4,0.6-0.7,0.7c-0.4,0.2-0.7,0.3-1,0.3c-0.3,0-0.5-0.2-0.7-0.5c-0.3-0.6-0.1-1.1,0.6-1.5l0.7-0.4
		c-0.1-0.2-0.3-0.4-0.5-0.4c-0.2-0.1-0.3,0-0.5,0.1c-0.2,0.1-0.3,0.2-0.4,0.4l0.1,0.3l-0.6,0.3l-0.3-0.7c0.1-0.2,0.3-0.3,0.4-0.4
		c0.2-0.1,0.3-0.2,0.5-0.4c0.4-0.2,0.7-0.3,1.1-0.2c0.3,0.1,0.6,0.3,0.9,0.7l0.6,1l0.6-0.1l0.1,0.7L855.3,161.1z M853.8,160.6
		c-0.3,0.2-0.4,0.4-0.2,0.6c0.1,0.2,0.4,0.3,0.7,0.1c0.2-0.1,0.4-0.3,0.5-0.5l-0.3-0.5L853.8,160.6z M855.1,157.7l1.2-0.7l1.3,2.1
		l0.5-0.3l0.3,0.5l-1.7,1l-0.3-0.5l0.5-0.3l-1-1.6l-0.5,0.3L855.1,157.7z M855.1,156c0.1-0.1,0.2-0.1,0.4-0.1c0.1,0,0.2,0.1,0.3,0.2
		c0.1,0.1,0.1,0.2,0.1,0.4c0,0.1-0.1,0.2-0.2,0.3c-0.1,0.1-0.2,0.1-0.4,0.1c-0.1,0-0.2-0.1-0.3-0.2c-0.1-0.1-0.1-0.2-0.1-0.4
		C854.9,156.1,855,156,855.1,156z"/>
	<path class="st84" d="M739.6,204.9l2,1.1l-0.3,0.6l-2-1.1L739.6,204.9z M741.1,207.9l0.1-0.6c0.4-0.1,0.8-0.2,1.1-0.3
		c0.4-0.1,0.7-0.2,1.1-0.3c0.2-0.1,0.4-0.1,0.5-0.2c0.1-0.1,0.2-0.2,0.3-0.3c0.1-0.1,0.1-0.3,0-0.4c-0.1-0.1-0.2-0.3-0.4-0.4
		c-0.2-0.1-0.3-0.1-0.5-0.1c-0.2,0-0.4,0-0.6,0.1l-0.2-0.7c0.3-0.1,0.6-0.1,0.9-0.1c0.3,0,0.5,0.1,0.8,0.2c0.2,0.1,0.4,0.3,0.6,0.5
		c0.1,0.2,0.2,0.4,0.3,0.6c0,0.2,0,0.4-0.1,0.7c-0.1,0.2-0.3,0.4-0.5,0.5c-0.2,0.1-0.5,0.2-0.8,0.3c-0.2,0.1-0.5,0.1-0.7,0.2
		c-0.3,0.1-0.5,0.1-0.7,0.2l1.3,0.7l0.5-0.3l0.4,0.6l-0.9,0.5L741.1,207.9z M745.3,209c0.1,0.1,0.2,0.2,0.3,0.3c0,0.2,0,0.3,0,0.4
		c-0.1,0.1-0.2,0.2-0.3,0.3c-0.1,0-0.3,0-0.4,0c-0.1-0.1-0.2-0.2-0.3-0.3c0-0.1,0-0.3,0-0.4c0.1-0.1,0.2-0.2,0.3-0.3
		C745,208.9,745.2,208.9,745.3,209z M746.5,209.8c0,0.1,0.1,0.2,0.3,0.3s0.3,0.2,0.4,0.3c0.2,0.1,0.4,0.2,0.6,0.1
		c0.2,0,0.4-0.1,0.5-0.2c0.2-0.1,0.3-0.3,0.4-0.5c-0.2,0-0.4,0-0.6,0c-0.2,0-0.4-0.1-0.6-0.2c-0.2-0.1-0.4-0.3-0.5-0.4
		c-0.2-0.2-0.2-0.4-0.3-0.6c0-0.2,0.1-0.5,0.2-0.9c0.1-0.1,0.2-0.2,0.3-0.4c0.1-0.1,0.3-0.2,0.4-0.3c0.2-0.1,0.4-0.1,0.6-0.1
		c0.2,0,0.5,0.1,0.8,0.3c1,0.5,1.2,1.4,0.5,2.7c-0.2,0.4-0.5,0.8-0.8,1c-0.3,0.2-0.6,0.3-1,0.3c-0.3,0-0.7-0.1-1-0.2
		c-0.1-0.1-0.3-0.2-0.4-0.3c-0.1-0.1-0.2-0.2-0.3-0.3c-0.1-0.1-0.1-0.2-0.2-0.2L746.5,209.8z M748.7,207.8c-0.2-0.1-0.3-0.1-0.4-0.1
		c-0.1,0-0.3,0.1-0.4,0.2c-0.1,0.1-0.2,0.2-0.2,0.3c-0.1,0.2-0.1,0.4-0.1,0.6c0.1,0.2,0.2,0.3,0.4,0.4c0.2,0.1,0.4,0.1,0.6,0.2
		c0.2,0,0.4,0,0.5-0.1c0.1-0.3,0.2-0.6,0.2-0.7c0-0.2,0-0.3-0.1-0.4C749,208,748.9,207.9,748.7,207.8z M752.1,208.7
		c0.3,0.1,0.4,0.3,0.5,0.6c0.1,0.2,0,0.6-0.2,1c-0.2,0.4-0.4,0.7-0.7,0.7c-0.2,0.1-0.5,0-0.8-0.1c-0.2-0.1-0.3-0.2-0.4-0.3
		c-0.1-0.1-0.1-0.3-0.1-0.5c0-0.2,0.1-0.4,0.2-0.7c0.1-0.3,0.3-0.5,0.5-0.6c0.2-0.1,0.3-0.2,0.5-0.2
		C751.8,208.6,751.9,208.6,752.1,208.7z M753.9,209.7l0.5,0.3l-3.8,3.1l-0.6-0.3L753.9,209.7z M751.8,209.2c-0.1,0-0.2,0-0.3,0
		c-0.1,0-0.2,0.2-0.3,0.4c-0.1,0.2-0.2,0.4-0.2,0.5c0,0.1,0.1,0.2,0.2,0.2c0.1,0,0.2,0,0.3,0s0.2-0.2,0.4-0.4
		c0.1-0.2,0.2-0.4,0.2-0.5C752,209.4,751.9,209.3,751.8,209.2z M753.7,211.8c0.3,0.1,0.4,0.3,0.5,0.6c0.1,0.2,0,0.6-0.2,1
		c-0.2,0.4-0.4,0.7-0.7,0.7c-0.2,0.1-0.5,0.1-0.8-0.1c-0.3-0.1-0.4-0.3-0.5-0.6c-0.1-0.2,0-0.6,0.2-1c0.1-0.3,0.3-0.5,0.5-0.6
		c0.2-0.1,0.3-0.2,0.5-0.2S753.5,211.7,753.7,211.8z M753.4,212.3c-0.1,0-0.2,0-0.3,0c-0.1,0-0.2,0.2-0.3,0.4
		c-0.1,0.2-0.2,0.4-0.2,0.5c0,0.1,0.1,0.2,0.2,0.2c0.1,0,0.2,0,0.3,0c0.1,0,0.2-0.2,0.4-0.4c0.1-0.2,0.2-0.4,0.2-0.5
		C753.6,212.4,753.5,212.3,753.4,212.3z"/>
	<path class="st84" d="M721.9,197.7c0.1,0.1,0.2,0.2,0.3,0.3c0,0.2,0,0.3,0,0.4c-0.1,0.1-0.2,0.2-0.3,0.3c-0.1,0-0.3,0-0.4,0
		c-0.1-0.1-0.2-0.2-0.3-0.3c0-0.1,0-0.3,0-0.4c0.1-0.1,0.2-0.2,0.3-0.3C721.7,197.6,721.8,197.7,721.9,197.7z M723.1,198.5
		c0.1,0.1,0.1,0.2,0.3,0.3c0.1,0.1,0.3,0.2,0.4,0.3c0.2,0.1,0.4,0.2,0.6,0.1c0.2,0,0.4-0.1,0.5-0.2c0.2-0.1,0.3-0.3,0.4-0.5
		c-0.2,0-0.4,0-0.6,0c-0.2,0-0.4-0.1-0.6-0.2c-0.2-0.1-0.4-0.3-0.5-0.4c-0.2-0.2-0.2-0.4-0.3-0.6c0-0.2,0.1-0.5,0.2-0.9
		c0.1-0.1,0.2-0.2,0.3-0.4c0.1-0.1,0.3-0.2,0.4-0.3c0.2-0.1,0.4-0.1,0.6-0.1c0.2,0,0.5,0.1,0.8,0.3c1,0.5,1.2,1.4,0.5,2.7
		c-0.2,0.4-0.5,0.8-0.8,1c-0.3,0.2-0.6,0.3-1,0.3c-0.3,0-0.7-0.1-1-0.2c-0.1-0.1-0.3-0.2-0.4-0.3c-0.1-0.1-0.2-0.2-0.3-0.3
		c-0.1-0.1-0.1-0.2-0.2-0.2L723.1,198.5z M725.3,196.6c-0.2-0.1-0.3-0.1-0.4-0.1c-0.1,0-0.3,0.1-0.4,0.2c-0.1,0.1-0.2,0.2-0.2,0.3
		c-0.1,0.2-0.1,0.4-0.1,0.6c0.1,0.2,0.2,0.3,0.4,0.4c0.2,0.1,0.4,0.1,0.6,0.2c0.2,0,0.4,0,0.5-0.1c0.1-0.3,0.2-0.5,0.2-0.7
		c0-0.2,0-0.3-0.1-0.5C725.6,196.7,725.5,196.6,725.3,196.6z M728.7,197.5c0.3,0.1,0.4,0.3,0.5,0.6c0.1,0.2,0,0.6-0.2,1
		c-0.2,0.4-0.4,0.7-0.7,0.7c-0.2,0.1-0.5,0-0.8-0.1c-0.2-0.1-0.3-0.2-0.4-0.3c-0.1-0.1-0.1-0.3-0.1-0.5c0-0.2,0.1-0.4,0.2-0.7
		c0.1-0.3,0.3-0.5,0.5-0.6c0.2-0.1,0.3-0.2,0.5-0.2C728.4,197.3,728.5,197.4,728.7,197.5z M730.5,198.4l0.5,0.3l-3.8,3.1l-0.6-0.3
		L730.5,198.4z M728.4,198c-0.1,0-0.2,0-0.3,0c-0.1,0-0.2,0.2-0.3,0.4c-0.1,0.2-0.2,0.4-0.2,0.5c0,0.1,0.1,0.2,0.2,0.2
		c0.1,0,0.2,0.1,0.3,0c0.1,0,0.2-0.2,0.4-0.4c0.1-0.2,0.2-0.4,0.2-0.5C728.6,198.1,728.5,198,728.4,198z M730.3,200.5
		c0.3,0.1,0.4,0.3,0.5,0.6c0.1,0.2,0,0.6-0.2,1c-0.2,0.4-0.4,0.7-0.7,0.7c-0.2,0.1-0.5,0.1-0.8-0.1c-0.3-0.1-0.4-0.3-0.5-0.6
		c-0.1-0.2,0-0.6,0.2-1c0.1-0.3,0.3-0.5,0.4-0.6c0.2-0.1,0.3-0.2,0.5-0.2C730,200.4,730.1,200.4,730.3,200.5z M730,201
		c-0.1,0-0.2-0.1-0.3,0c-0.1,0-0.2,0.2-0.3,0.4c-0.1,0.2-0.2,0.4-0.2,0.5c0,0.1,0.1,0.2,0.2,0.2c0.1,0,0.2,0,0.3,0
		c0.1,0,0.2-0.2,0.4-0.4c0.1-0.2,0.2-0.4,0.2-0.5C730.2,201.2,730.1,201.1,730,201z"/>
	<path class="st84" d="M737.2,215l2,1.1l-0.3,0.6l-2-1.1L737.2,215z M742.2,215c0.2,0.1,0.4,0.3,0.6,0.5c0.2,0.2,0.3,0.4,0.3,0.6
		c0,0.2,0,0.5-0.1,0.7c-0.1,0.1-0.1,0.2-0.2,0.3c-0.1,0.1-0.2,0.1-0.4,0.2c-0.1,0-0.3,0-0.4,0c0.2,0.2,0.3,0.4,0.4,0.7
		c0,0.2,0,0.4-0.1,0.6c-0.1,0.3-0.3,0.5-0.5,0.6c-0.2,0.1-0.4,0.1-0.7,0.1c-0.3,0-0.5-0.1-0.7-0.2c-0.2-0.1-0.5-0.3-0.6-0.5
		c-0.2-0.2-0.3-0.4-0.3-0.6c0-0.2,0-0.5,0.1-0.8c0.1-0.2,0.2-0.3,0.4-0.4c0.2-0.1,0.5-0.1,0.8-0.1c-0.1-0.1-0.2-0.2-0.2-0.4
		c0-0.1-0.1-0.3-0.1-0.4c0-0.1,0-0.3,0.1-0.4c0.1-0.2,0.3-0.4,0.5-0.5c0.2-0.1,0.4-0.1,0.7-0.1C741.8,214.8,742,214.9,742.2,215z
		 M741.9,215.6c-0.2-0.1-0.4-0.1-0.5-0.1c-0.1,0-0.3,0.1-0.3,0.3c-0.1,0.1-0.1,0.3-0.1,0.5c0,0.2,0.2,0.3,0.4,0.4
		c0.2,0.1,0.4,0.1,0.5,0.1c0.2-0.1,0.3-0.2,0.4-0.3c0.1-0.1,0.1-0.3,0-0.4C742.3,215.8,742.1,215.7,741.9,215.6z M741.1,217.2
		c-0.2-0.1-0.4-0.1-0.6-0.1c-0.2,0.1-0.3,0.2-0.4,0.3c-0.1,0.2-0.1,0.3,0,0.5c0.1,0.2,0.2,0.3,0.4,0.4c0.2,0.1,0.4,0.1,0.6,0.1
		c0.2,0,0.3-0.1,0.4-0.3c0.1-0.2,0.1-0.3,0-0.5C741.5,217.5,741.3,217.3,741.1,217.2z M744.3,218c0.2,0,0.3,0,0.4,0
		c0.1,0,0.3,0.1,0.4,0.1c0.2,0.1,0.4,0.3,0.5,0.5c0.1,0.2,0.2,0.4,0.2,0.7c0,0.2,0,0.5-0.2,0.8c-0.2,0.4-0.5,0.7-0.9,0.8
		c-0.4,0.1-0.8,0-1.3-0.2c-0.2-0.1-0.4-0.3-0.6-0.5c-0.2-0.2-0.3-0.4-0.4-0.7l0.7-0.2c0.1,0.2,0.2,0.4,0.3,0.5
		c0.1,0.1,0.3,0.3,0.4,0.3c0.3,0.1,0.5,0.2,0.7,0.1c0.2-0.1,0.4-0.2,0.5-0.4c0.1-0.2,0.1-0.4,0.1-0.6c-0.1-0.2-0.2-0.4-0.4-0.5
		c-0.1-0.1-0.3-0.1-0.5-0.1c-0.2,0-0.3,0-0.5,0.1l-0.3-0.4l1-1.9l2.3,1.2l-0.3,0.6l-1.6-0.9L744.3,218z M746.5,221
		c0.1,0.1,0.2,0.2,0.3,0.3c0,0.2,0,0.3,0,0.4c-0.1,0.1-0.2,0.2-0.3,0.3c-0.1,0-0.3,0-0.4,0c-0.1-0.1-0.2-0.2-0.3-0.3
		c0-0.1,0-0.3,0-0.4c0.1-0.1,0.2-0.2,0.3-0.3C746.2,220.9,746.4,220.9,746.5,221z M751.2,220.8c-0.1-0.1-0.1-0.2-0.3-0.3
		c-0.1-0.1-0.2-0.2-0.4-0.3c-0.2-0.1-0.4-0.2-0.6-0.1c-0.2,0-0.4,0.1-0.6,0.3c-0.2,0.1-0.3,0.3-0.4,0.5c0.2,0,0.4,0,0.6,0
		c0.2,0,0.4,0.1,0.6,0.2c0.2,0.1,0.4,0.3,0.5,0.4c0.2,0.2,0.2,0.4,0.3,0.6c0,0.2,0,0.5-0.2,0.8c-0.1,0.1-0.2,0.2-0.3,0.4
		s-0.3,0.2-0.4,0.3c-0.2,0.1-0.4,0.1-0.6,0.1c-0.2,0-0.5-0.1-0.8-0.2c-0.5-0.3-0.8-0.6-0.9-1.1c-0.1-0.5,0.1-1,0.4-1.6
		c0.2-0.4,0.4-0.7,0.7-0.9c0.3-0.2,0.6-0.4,1-0.4c0.4,0,0.7,0,1.1,0.2c0.1,0.1,0.3,0.2,0.4,0.3c0.1,0.1,0.2,0.2,0.3,0.3
		c0.1,0.1,0.1,0.2,0.2,0.2L751.2,220.8z M749.7,221.4c-0.2-0.1-0.3-0.1-0.5-0.2c-0.2,0-0.4,0-0.5,0.1c-0.1,0.3-0.2,0.5-0.2,0.7
		c0,0.2,0.1,0.3,0.1,0.4c0.1,0.1,0.2,0.2,0.3,0.3c0.2,0.1,0.3,0.1,0.4,0.1c0.1,0,0.3-0.1,0.4-0.1c0.1-0.1,0.2-0.2,0.2-0.3
		c0.1-0.2,0.2-0.4,0.1-0.6C750,221.6,749.9,221.5,749.7,221.4z M752.6,222.4c0.2,0,0.3,0,0.4,0c0.1,0,0.3,0.1,0.4,0.1
		c0.2,0.1,0.4,0.3,0.5,0.5c0.1,0.2,0.2,0.4,0.2,0.7c0,0.2,0,0.5-0.2,0.8c-0.2,0.4-0.5,0.7-0.9,0.8c-0.4,0.1-0.8,0-1.3-0.2
		c-0.2-0.1-0.4-0.3-0.6-0.5c-0.2-0.2-0.3-0.4-0.4-0.7l0.7-0.2c0.1,0.2,0.2,0.4,0.3,0.5c0.1,0.1,0.3,0.3,0.4,0.3
		c0.3,0.1,0.5,0.2,0.7,0.1c0.2-0.1,0.4-0.2,0.5-0.4c0.1-0.2,0.1-0.4,0.1-0.6c-0.1-0.2-0.2-0.4-0.4-0.5c-0.1-0.1-0.3-0.1-0.5-0.1
		c-0.2,0-0.3,0-0.5,0.1l-0.3-0.4l1-1.9l2.3,1.2l-0.3,0.6l-1.6-0.9L752.6,222.4z"/>
	<path class="st84" d="M722.6,206.8c0.2,0,0.3,0,0.4,0c0.1,0,0.3,0.1,0.4,0.1c0.2,0.1,0.4,0.3,0.5,0.5c0.1,0.2,0.2,0.4,0.2,0.7
		c0,0.2,0,0.5-0.2,0.8c-0.2,0.4-0.5,0.7-0.9,0.8c-0.4,0.1-0.8,0-1.3-0.2c-0.2-0.1-0.4-0.3-0.6-0.5c-0.2-0.2-0.3-0.4-0.4-0.7l0.7-0.2
		c0.1,0.2,0.2,0.4,0.3,0.5c0.1,0.1,0.3,0.3,0.4,0.3c0.3,0.1,0.5,0.2,0.7,0.1c0.2-0.1,0.4-0.2,0.5-0.4c0.1-0.2,0.1-0.4,0.1-0.6
		c-0.1-0.2-0.2-0.4-0.4-0.5c-0.1-0.1-0.3-0.1-0.5-0.1c-0.2,0-0.3,0-0.5,0.1l-0.3-0.4l1-1.9l2.3,1.2l-0.3,0.6l-1.6-0.9L722.6,206.8z
		 M724.9,209.8c0.1,0.1,0.2,0.2,0.3,0.3c0,0.2,0,0.3,0,0.4c-0.1,0.1-0.2,0.2-0.3,0.3c-0.1,0-0.3,0-0.4,0c-0.1-0.1-0.2-0.2-0.3-0.3
		c0-0.1,0-0.3,0-0.4c0.1-0.1,0.2-0.2,0.3-0.3C724.6,209.7,724.7,209.7,724.9,209.8z M729.5,209.6c-0.1-0.1-0.1-0.2-0.3-0.3
		c-0.1-0.1-0.2-0.2-0.4-0.3c-0.2-0.1-0.4-0.2-0.6-0.1c-0.2,0-0.4,0.1-0.6,0.3c-0.2,0.1-0.3,0.3-0.4,0.5c0.2,0,0.4-0.1,0.6,0
		c0.2,0,0.4,0.1,0.6,0.2c0.2,0.1,0.4,0.3,0.5,0.4c0.2,0.2,0.2,0.4,0.3,0.6c0,0.2,0,0.5-0.2,0.8c-0.1,0.1-0.2,0.2-0.3,0.4
		c-0.1,0.1-0.3,0.2-0.4,0.3c-0.2,0.1-0.4,0.1-0.6,0.1c-0.2,0-0.5-0.1-0.8-0.2c-0.5-0.3-0.8-0.6-0.9-1.1c-0.1-0.5,0.1-1,0.4-1.6
		c0.2-0.4,0.4-0.7,0.7-0.9c0.3-0.2,0.6-0.4,1-0.4c0.4,0,0.7,0,1.1,0.2c0.1,0.1,0.3,0.2,0.4,0.3c0.1,0.1,0.2,0.2,0.3,0.3
		c0.1,0.1,0.1,0.2,0.2,0.2L729.5,209.6z M728,210.2c-0.2-0.1-0.3-0.1-0.5-0.2c-0.2,0-0.4,0-0.5,0.1c-0.1,0.3-0.2,0.5-0.2,0.7
		s0.1,0.3,0.1,0.4c0.1,0.1,0.2,0.2,0.3,0.3c0.2,0.1,0.3,0.1,0.4,0.1c0.1,0,0.3-0.1,0.4-0.1c0.1-0.1,0.2-0.2,0.2-0.3
		c0.1-0.2,0.2-0.4,0.1-0.6C728.4,210.5,728.2,210.3,728,210.2z M730.9,211.2c0.2,0,0.3,0,0.4,0c0.1,0,0.3,0.1,0.4,0.1
		c0.2,0.1,0.4,0.3,0.5,0.5c0.1,0.2,0.2,0.4,0.2,0.7c0,0.2,0,0.5-0.2,0.8c-0.2,0.4-0.5,0.7-0.9,0.8c-0.4,0.1-0.8,0-1.3-0.2
		c-0.2-0.1-0.4-0.3-0.6-0.5c-0.2-0.2-0.3-0.4-0.4-0.7l0.7-0.2c0.1,0.2,0.2,0.4,0.3,0.5c0.1,0.1,0.3,0.3,0.4,0.3
		c0.3,0.1,0.5,0.2,0.7,0.1c0.2-0.1,0.4-0.2,0.5-0.4c0.1-0.2,0.1-0.4,0.1-0.6c-0.1-0.2-0.2-0.3-0.4-0.5c-0.1-0.1-0.3-0.1-0.5-0.1
		c-0.2,0-0.3,0-0.5,0.1l-0.3-0.4l1-1.9l2.3,1.2l-0.3,0.6l-1.6-0.9L730.9,211.2z"/>
	<g class="st86">
		<path class="st87" d="M953.7,308.7l-21.2-12.2c-0.3-0.2-0.3-0.6,0.1-0.8l21-12.1c0.4-0.2,1-0.2,1.4,0l21.2,12.2
			c0.3,0.2,0.3,0.6-0.1,0.8l-21,12.1C954.6,308.9,954,308.9,953.7,308.7z"/>
	</g>
	<g class="st86">
		<path class="st87" d="M944.3,305.7l-21-12.1c-0.5-0.2-0.4-0.7,0.2-1l6.2-3.6l22.6,13l-6.2,3.6
			C945.5,305.9,944.7,305.9,944.3,305.7z"/>
	</g>
	<path class="st4" d="M974,289.2V285h-6.8l-15.1-8.7c-0.4-0.2-1-0.2-1.5,0.1l-15,8.7h-6.8v4.2c0,0.1,0.1,0.2,0.2,0.4l21.7,12.5
		c0.4,0.2,1,0.2,1.5-0.1l21.5-12.4C973.9,289.5,974,289.3,974,289.2z"/>
	
		<linearGradient id="SVGID_71_" gradientUnits="userSpaceOnUse" x1="969.45" y1="537.3559" x2="920.51" y2="552.6409" gradientTransform="matrix(1 0 0 -1 0 828)">
		<stop  offset="0" style="stop-color:#C0D6FF"/>
		<stop  offset="0.2978" style="stop-color:#C5DBFF"/>
		<stop  offset="0.6488" style="stop-color:#D3E9FF"/>
		<stop  offset="1" style="stop-color:#E9FFFF"/>
	</linearGradient>
	<path class="st88" d="M950.8,297.9l-21.7-12.5c-0.4-0.2-0.3-0.6,0.1-0.9l21.5-12.4c0.5-0.3,1.1-0.3,1.5-0.1l21.7,12.5
		c0.4,0.2,0.3,0.6-0.1,0.9l-21.5,12.4C951.8,298.1,951.2,298.1,950.8,297.9z"/>
	
		<linearGradient id="SVGID_72_" gradientUnits="userSpaceOnUse" x1="972.8845" y1="546.6979" x2="929.3156" y2="539.093" gradientTransform="matrix(1 0 0 -1 0 828)">
		<stop  offset="0" style="stop-color:#2C78F6"/>
		<stop  offset="1" style="stop-color:#00BFE7"/>
	</linearGradient>
	<path class="st89" d="M950.9,296.5l-19.2-11.1c-0.4-0.2-0.3-0.5,0.1-0.8l19-11c0.4-0.2,1-0.2,1.3-0.1l19.2,11.1
		c0.4,0.2,0.3,0.5-0.1,0.8l-19,11C951.8,296.6,951.2,296.7,950.9,296.5z"/>
	
		<linearGradient id="SVGID_73_" gradientUnits="userSpaceOnUse" x1="971.0812" y1="546.3971" x2="931.1312" y2="539.4391" gradientTransform="matrix(1 0 0 -1 0 828)">
		<stop  offset="0" style="stop-color:#2C78F6"/>
		<stop  offset="1" style="stop-color:#00BFE7"/>
	</linearGradient>
	<path class="st90" d="M950.9,295.5l-17.6-10.2c-0.3-0.2-0.2-0.5,0.1-0.7l17.4-10.1c0.4-0.2,0.9-0.2,1.2,0l17.6,10.2
		c0.3,0.2,0.2,0.5-0.1,0.7l-17.4,10.1C951.8,295.7,951.2,295.7,950.9,295.5z"/>
	<path class="st91" d="M951.1,284.4l-2.1-1.2l1.1-0.7l2.1,1.2L951.1,284.4z"/>
	<path class="st91" d="M954.9,284.2l-2.1,1.2l-1.1-0.7l2.1-1.2L954.9,284.2z"/>
	<path class="st91" d="M950.6,284.6l-1.2,0.7l-1.1-0.7l1.1-0.7L950.6,284.6z"/>
	<path class="st91" d="M954.5,286.9l-1.1,0.7l-3.3-1.9l1.2-0.7L954.5,286.9z"/>
</g>
</svg>
