<?xml version="1.0" encoding="utf-8"?>
<!-- Generator: Adobe Illustrator 24.3.0, SVG Export Plug-In . SVG Version: 6.00 Build 0)  -->
<svg version="1.1" id="Layer_1" xmlns="http://www.w3.org/2000/svg" xmlns:xlink="http://www.w3.org/1999/xlink" x="0px" y="0px"
	 viewBox="0 0 1066 826" style="enable-background:new 0 0 1066 826;" xml:space="preserve">
<style type="text/css">
	.st0{fill:url(#SVGID_1_);}
	.st1{fill:#FFFFFF;}
	.st2{fill:url(#SVGID_2_);}
	.st3{fill:url(#SVGID_3_);}
	.st4{fill:url(#SVGID_4_);}
	.st5{opacity:0.5;fill:none;stroke:#0254D7;stroke-width:0.7;stroke-dasharray:2,2;enable-background:new    ;}
	.st6{opacity:0.3;fill:#FFFFFF;enable-background:new    ;}
	.st7{opacity:0.32;fill:#4553C7;enable-background:new    ;}
	.st8{fill:#3AA0C7;}
	.st9{fill:#2C78F6;}
	.st10{opacity:0.31;}
	.st11{fill:#242993;}
	.st12{fill:url(#SVGID_5_);}
	.st13{fill:#EFF1FE;}
	.st14{fill:url(#SVGID_6_);}
	.st15{fill:url(#SVGID_7_);}
	.st16{opacity:0.5;fill:#4AC8ED;enable-background:new    ;}
	.st17{fill:url(#SVGID_8_);}
	.st18{fill:url(#SVGID_9_);}
	.st19{fill:url(#SVGID_10_);}
	.st20{fill:url(#SVGID_11_);}
	.st21{opacity:0.5;}
	.st22{opacity:0.5;fill:#42E8E0;enable-background:new    ;}
	.st23{opacity:0.502;fill:#42E8E0;enable-background:new    ;}
	.st24{opacity:0.6;fill:#CFF9F7;enable-background:new    ;}
	.st25{fill:url(#SVGID_12_);}
	.st26{opacity:0.3;}
	.st27{opacity:0.3;fill:url(#SVGID_13_);enable-background:new    ;}
	.st28{opacity:0.3;fill:url(#SVGID_14_);enable-background:new    ;}
	.st29{opacity:0.3;fill:url(#SVGID_15_);enable-background:new    ;}
	.st30{opacity:0.3;fill:url(#SVGID_16_);enable-background:new    ;}
	.st31{opacity:0.3;fill:url(#SVGID_17_);enable-background:new    ;}
	.st32{fill:url(#SVGID_18_);}
	.st33{fill:#162184;}
	.st34{fill:#485DCE;}
	.st35{fill:#C6BBA3;}
	.st36{fill:#D8D0BC;}
	.st37{fill:#FCE8EE;}
	.st38{fill:#4553C7;}
	.st39{fill:#F9F8F7;}
	.st40{fill:#E2C8CF;}
	.st41{fill:#FFCDDC;}
	.st42{fill:#AA9AAC;}
	.st43{fill:#E9E5D9;}
	.st44{fill:#F2B42A;}
	.st45{fill:#0C163F;}
	.st46{fill:#1D346D;}
	.st47{opacity:0.2;fill:#242993;enable-background:new    ;}
	.st48{fill:#DD821F;}
	.st49{fill:#FFD85A;}
	.st50{fill:#F9BF30;}
	.st51{fill:url(#SVGID_19_);}
	.st52{fill:url(#SVGID_20_);}
	.st53{fill:url(#SVGID_21_);}
	.st54{fill:#42FFFF;}
</style>
<g>
	
		<linearGradient id="SVGID_1_" gradientUnits="userSpaceOnUse" x1="270" y1="31.258" x2="296.089" y2="31.258" gradientTransform="matrix(1 0 0 -1 0 828)">
		<stop  offset="0" style="stop-color:#C0D6FF"/>
		<stop  offset="0.2978" style="stop-color:#C5DBFF"/>
		<stop  offset="0.6488" style="stop-color:#D3E9FF"/>
		<stop  offset="1" style="stop-color:#E9FFFF"/>
	</linearGradient>
	<path class="st0" d="M291.8,795l4.3-5.8l-3.5,12.9l-13,2l-9.5-10.9L291.8,795z"/>
	<path class="st1" d="M295.9,789.1l-3.4,7.2l-13,2l-9.3-5.4l-0.1,0.3l9.5,5.5l13-2l3.5-7.5L295.9,789.1z"/>
	
		<linearGradient id="SVGID_2_" gradientUnits="userSpaceOnUse" x1="279.543" y1="27.5065" x2="292.587" y2="27.5065" gradientTransform="matrix(1 0 0 -1 0 828)">
		<stop  offset="0" style="stop-color:#C0D6FF"/>
		<stop  offset="0.2978" style="stop-color:#C5DBFF"/>
		<stop  offset="0.6488" style="stop-color:#D3E9FF"/>
		<stop  offset="1" style="stop-color:#E9FFFF"/>
	</linearGradient>
	<path class="st2" d="M292.6,796.8v5.4l-13,2v-5.4L292.6,796.8z"/>
	
		<linearGradient id="SVGID_3_" gradientUnits="userSpaceOnUse" x1="292.603" y1="32.2585" x2="296.1" y2="32.2585" gradientTransform="matrix(1 0 0 -1 0 828)">
		<stop  offset="0" style="stop-color:#E9FFFF"/>
		<stop  offset="0.3512" style="stop-color:#D3E9FF"/>
		<stop  offset="0.7022" style="stop-color:#C5DBFF"/>
		<stop  offset="1" style="stop-color:#C0D6FF"/>
	</linearGradient>
	<path class="st3" d="M296.1,789.3v5.4l-3.5,7.5v-5.4L296.1,789.3z"/>
	
		<linearGradient id="SVGID_4_" gradientUnits="userSpaceOnUse" x1="270" y1="29.257" x2="279.554" y2="29.257" gradientTransform="matrix(1 0 0 -1 0 828)">
		<stop  offset="0" style="stop-color:#5778FF"/>
		<stop  offset="0.1779" style="stop-color:#5C7DFF"/>
		<stop  offset="0.3876" style="stop-color:#6A8AFF"/>
		<stop  offset="0.6134" style="stop-color:#82A0FF"/>
		<stop  offset="0.849" style="stop-color:#A3BEFF"/>
		<stop  offset="1" style="stop-color:#BCD5FF"/>
	</linearGradient>
	<path class="st4" d="M270,793.3v5.4l9.5,5.5v-5.4L270,793.3z"/>
	<g>
		<path class="st5" d="M433.9,704.8l-115.8-85.7c-1-0.7-2.2-0.8-3.3-0.2l-145.5,82.4c-1.8,1-2.1,3.6-0.4,4.9l112,91.4
			c1,0.8,2.3,0.9,3.4,0.3l149.3-88.1C435.5,708.7,435.6,706.1,433.9,704.8z"/>
		<path class="st5" d="M377,675l76.2-42.6c2-1.1,2.1-3.9,0.2-5.1L401,593.1c-1.9-1.2-1.8-4,0.1-5.1l95.4-56.5"/>
		<path class="st6" d="M349.6,650.2h-9.8c-0.1,0-0.3-0.1-0.3-0.3v-5.7c0-0.1,0.1-0.3,0.3-0.3h9.8c0.1,0,0.3,0.1,0.3,0.3v5.7
			C349.9,650.1,349.7,650.2,349.6,650.2z M340.1,649.7h9.3v-5.1h-9.3V649.7z"/>
		<path class="st7" d="M292.7,661.7l-3.5-2v-0.6l3.5,2V661.7z"/>
		<path class="st7" d="M291.9,662.5l-2.7-1.6v-0.5l2.7,1.6V662.5z"/>
		<path class="st7" d="M291.1,663.4l-1.9-1.1v-0.6l1.9,1.1V663.4z"/>
		<path class="st8" d="M443.4,560.2l2.4,4.8l-5.4-0.3L443.4,560.2z"/>
		<path class="st8" d="M409.4,654.2l2.4,4.8l-5.4-0.3L409.4,654.2z"/>
		<path class="st9" d="M309.5,810.5l5.9,9.6l1.7-1l-1.9-3.2l2.1-1.3c1.9-1.2,2.5-3.3,1.4-5.2c-1.2-1.9-3.3-2.5-5.2-1.3L309.5,810.5z
			 M312.1,810.9l1.7-1c1.2-0.8,2.3-0.5,3,0.6c0.7,1.1,0.4,2.2-0.9,3l-1.7,1L312.1,810.9z M324.2,814.8l1.7-1l-2.6-4.2
			c-0.6-1-0.3-2.1,0.8-2.8c0.3-0.2,0.7-0.4,0.9-0.4l-0.9-1.5c-0.2,0-0.5,0.2-0.7,0.3c-0.9,0.6-1.4,1.6-1.2,2.4l-0.1,0.1l-0.7-1.1
			l-1.6,1L324.2,814.8z M332.9,809.6c2.2-1.3,2.6-3.6,1.2-5.9c-1.4-2.4-3.6-3-5.8-1.7c-2.2,1.3-2.6,3.6-1.2,5.9
			C328.5,810.3,330.7,811,332.9,809.6z M332.1,808.3c-1.2,0.7-2.4,0.2-3.3-1.3c-0.9-1.5-0.8-2.8,0.3-3.5c1.1-0.7,2.3-0.2,3.3,1.3
			C333.4,806.3,333.2,807.5,332.1,808.3z M338.5,806l1.6-1l-3.6-5.9l1.6-1l-0.8-1.3l-1.6,1l-0.4-0.7c-0.4-0.7-0.3-1.2,0.5-1.7
			c0.2-0.1,0.4-0.3,0.6-0.3l-0.7-1.2c-0.3,0.1-0.6,0.3-1,0.5c-1.6,1-1.9,2.2-1,3.6l0.5,0.8l-1.2,0.7l0.8,1.3l1.2-0.7L338.5,806z
			 M342.4,795.2c1-0.6,2.1-0.3,2.8,0.8l-3.4,2.1C341.2,797,341.4,795.8,342.4,795.2z M346.6,798.3c0.1,0.7-0.3,1.3-1.1,1.8
			c-1.1,0.7-2.3,0.3-3-0.9l-0.1-0.1l5.1-3.1l-0.3-0.5c-1.4-2.3-3.5-2.9-5.6-1.7c-2.1,1.3-2.5,3.6-1.1,5.9c1.4,2.3,3.6,3,5.7,1.7
			c1.7-1,2.4-2.6,1.9-4.1L346.6,798.3z M347.8,793.2c0.7,1.1,1.7,1.3,3.3,0.8l1.5-0.5c0.8-0.3,1.3-0.2,1.5,0.2
			c0.3,0.5,0,1.3-0.9,1.8c-0.8,0.5-1.5,0.5-2,0.1l-1.6,1c0.9,1.3,2.6,1.3,4.4,0.2c1.8-1.1,2.5-2.8,1.7-4.2c-0.7-1.1-1.7-1.3-3.3-0.7
			l-1.5,0.5c-0.8,0.3-1.3,0.2-1.6-0.2c-0.3-0.5,0-1.2,0.8-1.7c0.8-0.5,1.5-0.4,1.9,0l1.6-0.9c-0.9-1.3-2.5-1.4-4.2-0.3
			C347.7,790.3,347,791.9,347.8,793.2z M355.2,788.7c0.7,1.1,1.7,1.3,3.3,0.8l1.5-0.5c0.8-0.3,1.3-0.2,1.5,0.2
			c0.3,0.5,0,1.3-0.9,1.8c-0.8,0.5-1.5,0.5-2,0.1l-1.6,1c0.9,1.3,2.6,1.3,4.4,0.2c1.8-1.1,2.5-2.8,1.7-4.2c-0.7-1.1-1.7-1.3-3.3-0.7
			l-1.5,0.5c-0.8,0.3-1.3,0.2-1.6-0.2c-0.3-0.5,0-1.2,0.8-1.7c0.8-0.5,1.5-0.4,1.9,0l1.6-0.9c-0.9-1.3-2.5-1.4-4.2-0.3
			C355,785.8,354.4,787.4,355.2,788.7z M366.1,789.2l1.6-1l-4.4-7.3l-1.6,1L366.1,789.2z M361.7,780.2c0.5-0.3,0.7-1,0.4-1.6
			c-0.3-0.6-1-0.7-1.6-0.4c-0.5,0.3-0.7,1-0.4,1.6C360.5,780.4,361.2,780.6,361.7,780.2z M373,785.2c2.2-1.3,2.6-3.6,1.2-5.9
			c-1.4-2.4-3.6-3-5.8-1.7c-2.2,1.3-2.6,3.6-1.2,5.9C368.7,785.9,370.8,786.5,373,785.2z M372.2,783.8c-1.2,0.7-2.4,0.2-3.3-1.3
			c-0.9-1.5-0.8-2.8,0.3-3.5c1.1-0.7,2.3-0.2,3.3,1.3C373.5,781.8,373.3,783.1,372.2,783.8z M378.1,781.9l1.7-1l-2.6-4.2
			c-0.7-1.1-0.4-2.1,0.5-2.7c1-0.6,1.8-0.3,2.5,0.8l2.6,4.3l1.7-1l-2.9-4.7c-1.1-1.7-2.5-2.2-4.2-1.2c-1.1,0.7-1.5,1.6-1.4,2.6
			l-0.1,0.1l-0.7-1.2l-1.6,1L378.1,781.9z M388.3,774.1c-0.7,0.4-1.5,0.4-1.9-0.2c-0.4-0.6-0.1-1.2,0.8-1.8l1.6-1.1l0.4,0.6
			C389.6,772.4,389.3,773.5,388.3,774.1z M388.6,775.7c1-0.6,1.5-1.5,1.5-2.4l0.1-0.1l0.6,1l1.6-1l-3-5c-0.9-1.5-2.6-1.8-4.4-0.7
			c-1.7,1.1-2.4,2.6-1.8,4l1.6-1c-0.1-0.6,0.2-1.2,1-1.6c0.9-0.5,1.6-0.4,2.1,0.3l0.4,0.6l-1.8,1.3c-1.7,1.2-2.2,2.6-1.4,3.9
			C385.6,776.3,387.2,776.6,388.6,775.7z M394.4,772l1.7-1l-6.2-10.1l-1.7,1L394.4,772z M400,765c1.2,1.7,3.3,1.9,5.5,0.6
			c2.3-1.4,3.1-3.5,1.9-5.3c-0.9-1.5-2.2-1.8-4.4-1l-1.3,0.4c-1.4,0.5-2.1,0.4-2.5-0.3c-0.5-0.8-0.1-1.8,1-2.5
			c1.1-0.6,2.1-0.6,2.8,0.2l1.6-1c-1.1-1.6-3.3-1.9-5.3-0.6c-2.2,1.3-2.9,3.3-1.8,5.1c0.9,1.4,2.2,1.8,4.2,1.1l1.4-0.5
			c1.4-0.5,2.2-0.4,2.6,0.3c0.5,0.8,0,1.9-1.1,2.6c-1.2,0.7-2.4,0.7-3-0.1L400,765z M405.8,752.6l1.1,1.8l-1.2,0.7l0.8,1.3l1.2-0.7
			l2.4,4c0.9,1.4,1.9,1.6,3.5,0.6c0.3-0.2,0.6-0.4,0.8-0.6l-0.8-1.3c-0.2,0.1-0.3,0.2-0.5,0.4c-0.7,0.4-1.2,0.3-1.6-0.4l-2.2-3.6
			l1.6-1l-0.8-1.3l-1.6,1l-1.1-1.8L405.8,752.6z M416.2,758.7l1.7-1l-2.6-4.2c-0.6-1-0.3-2.1,0.8-2.8c0.3-0.2,0.7-0.4,0.9-0.4
			l-0.9-1.5c-0.2,0-0.5,0.2-0.7,0.3c-0.9,0.6-1.4,1.6-1.2,2.4l-0.1,0.1l-0.7-1.1l-1.6,1L416.2,758.7z M423.6,752.6
			c-0.7,0.4-1.5,0.4-1.9-0.2c-0.4-0.6-0.1-1.2,0.8-1.8l1.6-1.1l0.4,0.6C425,750.9,424.6,752,423.6,752.6z M423.9,754.2
			c1-0.6,1.5-1.5,1.5-2.4l0.1-0.1l0.6,1l1.6-1l-3-5c-0.9-1.5-2.6-1.8-4.4-0.7c-1.7,1.1-2.4,2.6-1.8,4l1.6-1c-0.1-0.6,0.2-1.2,1-1.6
			c0.9-0.5,1.6-0.4,2.1,0.3l0.4,0.6l-1.8,1.3c-1.7,1.2-2.2,2.6-1.4,3.9C421,754.8,422.5,755,423.9,754.2z M424.7,741.1l1.1,1.8
			l-1.2,0.7l0.8,1.3l1.2-0.7l2.4,4c0.9,1.4,1.9,1.6,3.5,0.6c0.3-0.2,0.6-0.4,0.8-0.6l-0.8-1.3c-0.2,0.1-0.3,0.2-0.5,0.4
			c-0.7,0.4-1.2,0.3-1.6-0.4l-2.2-3.6l1.6-1L429,741l-1.6,1l-1.1-1.8L424.7,741.1z M434.4,739.2c1-0.6,2.1-0.3,2.8,0.8l-3.4,2.1
			C433.1,741,433.4,739.8,434.4,739.2z M438.6,742.3c0.1,0.7-0.3,1.3-1.1,1.8c-1.1,0.7-2.3,0.3-3-0.9l-0.1-0.1l5.1-3.1l-0.3-0.5
			c-1.4-2.3-3.5-2.9-5.6-1.7c-2.1,1.3-2.5,3.6-1.1,5.9c1.4,2.3,3.6,3,5.7,1.7c1.7-1,2.4-2.6,1.9-4.1L438.6,742.3z M445.3,739
			c-1.2,0.7-2.3,0.2-3.2-1.2c-0.8-1.4-0.7-2.7,0.4-3.4c1.1-0.7,2.4-0.2,3.2,1.2C446.6,737,446.5,738.3,445.3,739z M447.9,743.2
			c2.1-1.3,2.8-3.2,1.8-4.9l-4.5-7.3l-1.6,1l0.7,1.2l-0.1,0.1c-0.9-0.5-2.1-0.5-3,0.1c-1.9,1.1-2.1,3.3-0.8,5.5
			c1.3,2.2,3.4,2.9,5.2,1.8c1-0.6,1.5-1.5,1.5-2.6l0.1-0.1l0.8,1.4c0.6,0.9,0.2,1.8-0.9,2.5c-0.9,0.6-1.7,0.6-2.1,0.2l-1.7,1
			C444.3,744.3,446,744.3,447.9,743.2z M451.8,737.1l1.6-1l-4.4-7.3l-1.6,1L451.8,737.1z M447.4,728c0.5-0.3,0.7-1,0.4-1.6
			c-0.3-0.6-1-0.7-1.6-0.4c-0.5,0.3-0.7,1-0.4,1.6C446.1,728.2,446.8,728.4,447.4,728z M452.1,729.7c0.7,1.1,1.7,1.3,3.3,0.8
			l1.5-0.5c0.8-0.3,1.3-0.2,1.5,0.2c0.3,0.5,0,1.3-0.9,1.8c-0.8,0.5-1.5,0.5-2,0.1l-1.6,1c0.9,1.2,2.6,1.3,4.4,0.2
			c1.8-1.1,2.5-2.8,1.7-4.2c-0.7-1.1-1.7-1.3-3.3-0.7l-1.5,0.5c-0.8,0.3-1.3,0.2-1.6-0.2c-0.3-0.5,0-1.2,0.8-1.7
			c0.8-0.5,1.5-0.4,1.9,0l1.6-0.9c-0.9-1.3-2.5-1.4-4.2-0.3C452,726.7,451.3,728.4,452.1,729.7z M457.9,720.8l1.1,1.8l-1.2,0.7
			l0.8,1.3l1.2-0.7l2.4,4c0.9,1.4,1.9,1.6,3.5,0.6c0.3-0.2,0.6-0.4,0.8-0.6l-0.8-1.3c-0.2,0.1-0.3,0.2-0.5,0.4
			c-0.7,0.4-1.2,0.3-1.6-0.4l-2.2-3.6l1.6-1l-0.8-1.3l-1.6,1l-1.1-1.8L457.9,720.8z"/>
		<g class="st10">
			<path class="st11" d="M323.1,760.1l-51.4-29.8c-0.7-0.4-0.6-1.1,0.2-1.6l34.5-19.9c0.8-0.5,2.1-0.5,2.8-0.1l51.4,29.8
				c0.7,0.4,0.6,1.1-0.2,1.6L325.9,760C325.1,760.4,323.8,760.5,323.1,760.1z"/>
		</g>
		
			<linearGradient id="SVGID_5_" gradientUnits="userSpaceOnUse" x1="301.0714" y1="127.9348" x2="331.3188" y2="75.5463" gradientTransform="matrix(1 0 0 -1 0 828)">
			<stop  offset="0" style="stop-color:#C0D6FF"/>
			<stop  offset="0.2978" style="stop-color:#C5DBFF"/>
			<stop  offset="0.6488" style="stop-color:#D3E9FF"/>
			<stop  offset="1" style="stop-color:#E9FFFF"/>
		</linearGradient>
		<path class="st12" d="M324,755l-57.4-33.4c-0.8-0.5-0.7-1.2,0.2-1.8l38.4-17.6c0.9-0.5,2.3-5.2,3.1-4.7l57.4,33.3
			c0.8,0.5,0.7,1.2-0.2,1.8l-38.4,22.2C326.2,755.4,324.8,755.4,324,755z"/>
		<path class="st13" d="M367.7,728.4l-13.5-0.9l-46-26.7c-0.8-0.5-2.3-0.4-3.2,0.1l-29.7,17.2l-10.6-0.7v2.9c0,0.3,0.2,0.6,0.6,0.8
			l58.9,34.2c0.8,0.5,2.3,0.4,3.2-0.1l39.6-22.8c0.5-0.3,0.8-0.7,0.8-1V728.4z"/>
		
			<linearGradient id="SVGID_6_" gradientUnits="userSpaceOnUse" x1="316.2517" y1="89.9156" x2="316.0318" y2="149.6435" gradientTransform="matrix(1 0 0 -1 0 828)">
			<stop  offset="0" style="stop-color:#F1F4FE"/>
			<stop  offset="0.58" style="stop-color:#F7F9FE"/>
			<stop  offset="1" style="stop-color:#FFFFFF"/>
		</linearGradient>
		<path class="st14" d="M324.2,752.3l-58.9-34.2c-0.8-0.5-0.7-1.3,0.2-1.8l39.6-22.8c0.9-0.6,2.4-0.6,3.2-0.1l58.9,34.2
			c0.8,0.5,0.7,1.3-0.2,1.8l-39.6,22.8C326.4,752.7,325,752.8,324.2,752.3z"/>
		
			<linearGradient id="SVGID_7_" gradientUnits="userSpaceOnUse" x1="373.295" y1="152.7158" x2="378.474" y2="151.5548" gradientTransform="matrix(1 0 0 -1 0 828)">
			<stop  offset="0.17" style="stop-color:#437FEC"/>
			<stop  offset="0.47" style="stop-color:#336CD5"/>
			<stop  offset="1" style="stop-color:#184EAE"/>
		</linearGradient>
		<path class="st15" d="M373.1,669.5c1.6,0.4,3.1,0.8,4.6,1.3V682c-1.5-0.4-3.1-0.8-4.6-1.3V669.5z"/>
		<path class="st16" d="M362.4,670c1.7,0.3,3.3,0.7,5,1v8.3c-1.6-0.4-3.3-0.7-5-1V670z"/>
		
			<linearGradient id="SVGID_8_" gradientUnits="userSpaceOnUse" x1="351.2681" y1="159.3407" x2="357.1931" y2="158.1987" gradientTransform="matrix(1 0 0 -1 0 828)">
			<stop  offset="0.17" style="stop-color:#437FEC"/>
			<stop  offset="0.47" style="stop-color:#336CD5"/>
			<stop  offset="1" style="stop-color:#184EAE"/>
		</linearGradient>
		<path class="st17" d="M351,661c1.7,0.2,3.5,0.5,5.2,0.8v15.5c-1.7-0.3-3.5-0.5-5.2-0.8V661z"/>
		<path class="st16" d="M339,651.1c1.9,0.1,3.7,0.3,5.5,0.5v24.2c-1.8-0.2-3.7-0.4-5.5-0.5V651.1z"/>
		<path class="st16" d="M326.6,656.3c1.9,0,3.8,0.1,5.7,0.2v18.4c-1.9-0.1-3.8-0.1-5.7-0.2V656.3z"/>
		
			<linearGradient id="SVGID_9_" gradientUnits="userSpaceOnUse" x1="314.1833" y1="172.3566" x2="320.8403" y2="171.7556" gradientTransform="matrix(1 0 0 -1 0 828)">
			<stop  offset="0.17" style="stop-color:#437FEC"/>
			<stop  offset="0.47" style="stop-color:#336CD5"/>
			<stop  offset="1" style="stop-color:#184EAE"/>
		</linearGradient>
		<path class="st18" d="M314,637c1.9-0.1,3.8-0.1,5.7-0.2v37.9c-1.9,0-3.8,0.1-5.7,0.2V637z"/>
		
			<linearGradient id="SVGID_10_" gradientUnits="userSpaceOnUse" x1="301.999" y1="168.2422" x2="308.357" y2="167.5752" gradientTransform="matrix(1 0 0 -1 0 828)">
			<stop  offset="0.17" style="stop-color:#437FEC"/>
			<stop  offset="0.47" style="stop-color:#336CD5"/>
			<stop  offset="1" style="stop-color:#184EAE"/>
		</linearGradient>
		<path class="st19" d="M301.8,644.8c1.8-0.2,3.7-0.3,5.5-0.5v30.9c-1.9,0.1-3.7,0.3-5.5,0.5V644.8z"/>
		
			<linearGradient id="SVGID_11_" gradientUnits="userSpaceOnUse" x1="290.3334" y1="172.5645" x2="296.4464" y2="172.1195" gradientTransform="matrix(1 0 0 -1 0 828)">
			<stop  offset="0.17" style="stop-color:#437FEC"/>
			<stop  offset="0.47" style="stop-color:#336CD5"/>
			<stop  offset="1" style="stop-color:#184EAE"/>
		</linearGradient>
		<path class="st20" d="M290.2,634.7c1.7-0.2,3.5-0.5,5.2-0.7v42.5c-1.7,0.2-3.5,0.5-5.2,0.7V634.7z"/>
		<g class="st21">
			<path class="st22" d="M230.3,659.9c0.8-0.9,1.7-1.8,2.8-2.6v42.5c-1,0.8-1.9,1.7-2.8,2.6V659.9z"/>
			<path class="st22" d="M225.9,680.4c0.6-1,1.3-1.9,2-2.8v27.5c-0.7,0.9-1.4,1.9-2,2.8V680.4z"/>
			<path class="st23" d="M222,712.5l0.1,0.1l0.1-2.8l-0.1-0.1V712.5z M222,720.7v-42.5c0-0.3,0-0.5,0-0.8c0.1-1.9,0.4-3.8,1-5.7
				v42.5c-0.6,1.9-0.9,3.8-1,5.7C222,720.1,222,720.4,222,720.7z"/>
			<path class="st22" d="M222,712.5L222,712.5l0.1-2.7l-0.1-0.2V712.5z"/>
			<path class="st22" d="M254,644.7C253.9,644.7,253.9,644.7,254,644.7C253.9,644.7,253.9,644.7,254,644.7z M254.6,644.4
				C254.6,644.4,254.6,644.4,254.6,644.4C254.6,644.4,254.6,644.4,254.6,644.4C254.6,644.4,254.6,644.4,254.6,644.4L254.6,644.4z"/>
			<path class="st24" d="M254.3,644.5c4.7-2,8.2-0.8,9.5-0.4c-5.5,11.9-6,13.2-9.5,21.6c-5.3-6.2-6.2-7.2-9.9-11.8
				C245.5,652.2,248.6,646.9,254.3,644.5z"/>
			
				<linearGradient id="SVGID_12_" gradientUnits="userSpaceOnUse" x1="239.7193" y1="161.5005" x2="273.6513" y2="162.9496" gradientTransform="matrix(1 0 0 -1 0 828)">
				<stop  offset="0" style="stop-color:#5761D7"/>
				<stop  offset="7.257640e-02" style="stop-color:#5472D8"/>
				<stop  offset="0.2791" style="stop-color:#4E9CDB"/>
				<stop  offset="0.4801" style="stop-color:#49BDDD"/>
				<stop  offset="0.6715" style="stop-color:#45D5DF"/>
				<stop  offset="0.8493" style="stop-color:#43E3E0"/>
				<stop  offset="1" style="stop-color:#42E8E0"/>
			</linearGradient>
			<path class="st25" d="M254.9,644.3c14.6-4.4,23.2,12.1,14.7,28c-7.2,13.5-24.8,23.3-29.5,9.1c-2.7-8.3-0.5-28.8,13.3-36.5
				c-3.7,1.9-6.4,4.6-9.1,9.1c5.1,6.2,5.5,6.8,9.9,11.8c5.2-12.3,5.6-13.3,9.5-21.6C260.8,643.1,258.1,643.2,254.9,644.3z
				 M253.9,644.7c-0.1,0.1-0.2,0.1-0.3,0.2C253.7,644.8,253.8,644.8,253.9,644.7z M254.6,644.4c0.1-0.1,0.2-0.1,0.2-0.1
				C254.8,644.3,254.7,644.3,254.6,644.4z M254.3,644.5c-0.1,0.1-0.2,0.1-0.4,0.1C254.1,644.6,254.2,644.6,254.3,644.5z
				 M254.3,644.5c0.1-0.1,0.2-0.1,0.3-0.1C254.5,644.5,254.4,644.5,254.3,644.5z"/>
		</g>
		<g class="st21">
			<path class="st22" d="M288,749.1c-4,1-7.6,2-30.8-22.9c-2.9-2.9-2.9-2.9-17.9,3.1c-1.7,0.4-4.3,1-11.4-15.9
				c-2.2-5-5.8-0.9-5.9-0.8v-2.9c1.3-0.7,1.3-0.8,3.2-1.3c0.4-0.1,0.7-0.1,1,0.1c0.5,0.2,1,0.8,1.9,2.7c4.1,8.7,4.1,8.7,7,13.5
				c1.7,2.6,1.7,2.6,15.8-3c1-0.2,2.9-0.8,6,1.6c8.5,6.8,15.4,15.2,23.8,22.1c3.1,2.2,5,3.6,43.6-13l1.3,2.2
				C320.2,736.9,303.4,744.2,288,749.1z"/>
			<path class="st23" d="M288,749.1c-4.4,1.3-7.2-1.4-8.2-2.2c-8-6.8-15.1-15.1-23.1-21.8c-2.4-2-3.8-1.2-4.7-1
				c-15,5.9-15,5.9-17.4,2.3c-4.4-7.8-4.6-8.5-6.6-13.3c-0.5-1.1-2-2.8-2.8-2.7c-3.4,1-2.9,1.6-3.2,2v-2.9c4-1.6,4.4-1.7,6,2
				c7.4,15.7,8.7,15.4,10.4,15c15.8-6.3,15.6-5.9,19.6-1.7c7,7.3,21,21.4,25.3,22.5c1.3,0.2,3.4,0,4.7-0.4
				c15.2-5.1,21.3-8.3,36.3-14.8l1.3,2.2c-5.5,2.4-22.2,9-37.6,13.8L288,749.1z M335.7,766.2v-42.5c-4.7,0.2-9.5,0.4-14.3,0.4
				c-55.2-0.4-99.3-20.9-99.3-45.9v42.5c0,25,44.1,45.4,99.3,45.9C326.2,766.6,331,766.5,335.7,766.2z"/>
		</g>
		<g class="st26">
			
				<linearGradient id="SVGID_13_" gradientUnits="userSpaceOnUse" x1="362" y1="91.292" x2="388.089" y2="91.292" gradientTransform="matrix(1 0 0 -1 0 828)">
				<stop  offset="0" style="stop-color:#C0D6FF"/>
				<stop  offset="0.2978" style="stop-color:#C5DBFF"/>
				<stop  offset="0.6488" style="stop-color:#D3E9FF"/>
				<stop  offset="1" style="stop-color:#E9FFFF"/>
			</linearGradient>
			<path class="st27" d="M383.8,735l4.3-5.8l-3.5,12.9l-13,2l-9.5-10.9L383.8,735z"/>
			
				<linearGradient id="SVGID_14_" gradientUnits="userSpaceOnUse" x1="370.2682" y1="105.0088" x2="379.8222" y2="88.4607" gradientTransform="matrix(1 0 0 -1 0 828)">
				<stop  offset="0" style="stop-color:#C0D6FF"/>
				<stop  offset="0.2978" style="stop-color:#C5DBFF"/>
				<stop  offset="0.6488" style="stop-color:#D3E9FF"/>
				<stop  offset="1" style="stop-color:#E9FFFF"/>
			</linearGradient>
			<path class="st28" d="M388.1,729.2l-9.5-5.5l-13,2l-3.5,7.5l9.5,5.5l13-2L388.1,729.2z"/>
			<path class="st6" d="M387.9,729.1l-3.4,7.2l-13,2l-9.3-5.4l-0.1,0.3l9.5,5.5l13-2l3.5-7.5L387.9,729.1z"/>
			
				<linearGradient id="SVGID_15_" gradientUnits="userSpaceOnUse" x1="371.543" y1="87.5395" x2="384.587" y2="87.5395" gradientTransform="matrix(1 0 0 -1 0 828)">
				<stop  offset="0" style="stop-color:#C0D6FF"/>
				<stop  offset="0.2978" style="stop-color:#C5DBFF"/>
				<stop  offset="0.6488" style="stop-color:#D3E9FF"/>
				<stop  offset="1" style="stop-color:#E9FFFF"/>
			</linearGradient>
			<path class="st29" d="M384.6,736.7v5.4l-13,2v-5.4L384.6,736.7z"/>
			
				<linearGradient id="SVGID_16_" gradientUnits="userSpaceOnUse" x1="384.603" y1="92.2925" x2="388.1" y2="92.2925" gradientTransform="matrix(1 0 0 -1 0 828)">
				<stop  offset="0" style="stop-color:#E9FFFF"/>
				<stop  offset="0.3512" style="stop-color:#D3E9FF"/>
				<stop  offset="0.7022" style="stop-color:#C5DBFF"/>
				<stop  offset="1" style="stop-color:#C0D6FF"/>
			</linearGradient>
			<path class="st30" d="M388.1,729.2v5.4l-3.5,7.5v-5.4L388.1,729.2z"/>
			
				<linearGradient id="SVGID_17_" gradientUnits="userSpaceOnUse" x1="362" y1="89.271" x2="371.554" y2="89.271" gradientTransform="matrix(1 0 0 -1 0 828)">
				<stop  offset="0" style="stop-color:#5778FF"/>
				<stop  offset="0.1779" style="stop-color:#5C7DFF"/>
				<stop  offset="0.3876" style="stop-color:#6A8AFF"/>
				<stop  offset="0.6134" style="stop-color:#82A0FF"/>
				<stop  offset="0.849" style="stop-color:#A3BEFF"/>
				<stop  offset="1" style="stop-color:#BCD5FF"/>
			</linearGradient>
			<path class="st31" d="M362,733.3v5.4l9.5,5.5v-5.4L362,733.3z"/>
		</g>
		
			<linearGradient id="SVGID_18_" gradientUnits="userSpaceOnUse" x1="278.2759" y1="44.9805" x2="287.8309" y2="28.4325" gradientTransform="matrix(1 0 0 -1 0 828)">
			<stop  offset="0" style="stop-color:#C0D6FF"/>
			<stop  offset="0.2978" style="stop-color:#C5DBFF"/>
			<stop  offset="0.6488" style="stop-color:#D3E9FF"/>
			<stop  offset="1" style="stop-color:#E9FFFF"/>
		</linearGradient>
		<path class="st32" d="M296.1,789.3l-9.5-5.5l-13,2l-3.5,7.5l9.5,5.5l13-2L296.1,789.3z"/>
		<path class="st11" d="M320,705.7c-0.2-2.9-0.9-4.5-0.9-4.9c0-0.1,0.2-1.5,0.4-3.4l-1.6-15.1h-2.1l-3.5,0c0,0.2,1.9,35.1,1.9,35.1
			s0,0,0.1,0.1c0.3,0.2,0.9,0.6,1.6,0.7c1,0.2,2.3,0.2,3.7-0.9C319.6,717.4,320.1,708.7,320,705.7z"/>
		<path class="st11" d="M326.1,704.9c0-0.3,0.8-4,0.8-7.7c0-6.8-1.1-14.3-1.1-14.3l-3.1-0.3l-1.2-0.4l-3.7,0l0.2,2.1l-2.4-0.4
			c0,0,0.3,3.7,0.8,5.1c0.5,1.2,1.8,0.8,2.5,3l0.6,5.4l2.7,25.4c0.1,0.1,0.3,0.2,0.4,0.3c0.5,0.3,1.2,0.4,1.8,0.4
			c0.9,0,1.8-0.3,2.3-0.5c0.2,0,0.3-0.1,0.3-0.1C328,707.3,326.1,705.2,326.1,704.9z"/>
		<path class="st33" d="M324.4,723.5c-0.6,0-1.3,0-1.8-0.4l-0.4,1.5l-0.2,0.6c0,0-0.8,2.3-0.4,3.8c0.1,0.6,0.4,1.1,1,1.2
			c1.4,0.5,2.9-0.5,3.6-1.2c0.4-0.3,0.6-0.8,0.6-1.2l0-4.8C326.2,723.3,325.3,723.5,324.4,723.5z"/>
		<path class="st33" d="M319.6,717.4c-1.4,1.1-2.7,1.2-3.7,0.9c-0.8-0.2-1.4-0.6-1.6-0.7c-0.4,1.2-1.7,2.4-2.7,3.2
			c-0.8,0.6-2,1.3-2.4,1.9c-0.1,0.2-0.1,0.4-0.1,0.5c0.3,0.7,1.6,1,4,0.5c2.5-0.6,3.5-2.1,3.5-2.1c0.7,0.4,2.6-0.4,3-1
			C320,720,319.6,717.4,319.6,717.4z"/>
		<path class="st34" d="M317.4,659.7c1-1.9-0.7-4.2-2.7-3.7c-0.8,0.2-1.7,0.7-2.3,1.8c-2.1,3.4-1.8,12.9-2.5,13.4
			c-0.6,0.6-9.8,0.7-9.8,0.7s0.7,3.7,0.7,3.8c0,0,7.9,1.7,11.6,0.6C315.1,675.5,315.9,662.8,317.4,659.7z"/>
		<path class="st35" d="M302.1,668.3l4.2,11.6l-4.1-2.5l-4.9-11.4L302.1,668.3z"/>
		<path class="st35" d="M306,680.1l0.3-0.2l-0.9-1L306,680.1z"/>
		<path class="st35" d="M297.3,666l-0.3,0.2l0.9,0.6L297.3,666z"/>
		<path class="st36" d="M301.9,668.5l4.2,11.6l-4.1-2.5l-4.9-11.3L301.9,668.5z"/>
		<path class="st37" d="M301.7,672.3c0,0,1.4,2.6,0.4,3.7c-0.4,0.5-2.2-0.4-2.2-0.4l-0.9-2.5c-0.1-0.4,0.1-0.8,0.5-0.8
			C300.3,672.2,301.4,672.1,301.7,672.3z"/>
		<path class="st38" d="M312.7,658.5c-0.7,2.2-0.9,5-0.9,9.9c0.1,5.9,0.2,18.5,0.2,18.5l2.2,1.5c0,0,0-1.8,0-4.2c0-3.2,0-7.5,0-10.1
			c-0.5-4.3-0.4-13.7-0.4-13.7l1.1-0.6l-0.8-0.8c0.6-0.9,1.4-1.6,2.4-2l1.2-0.5c-0.5-0.2-3.1-1.4-4.3,0.3c-0.2,0.3-0.4,0.6-0.4,0.9
			c0,0,0,0,0,0.1c0,0,0,0.1-0.1,0.2C312.8,658.1,312.8,658.3,312.7,658.5z"/>
		<path class="st34" d="M313.8,660.4c0,0-0.2,9.5,0.4,13.7c0-0.4,0-0.7,0-1.1c0.2-3.9,0.3-6.6,1.2-9.8c0.4-1.3,0.8-2.6,1.3-3.8
			c0.5-1.5,1-2.7,1.2-3c0,0,0,0-0.1,0l-1.2,0.5c-1,0.4-1.8,1.2-2.4,2l0.8,0.8L313.8,660.4z"/>
		<path class="st39" d="M314.2,682.1c0,0.7,0,1.4,0,2.1c1.3,0.4,3.1,0.8,5.1,0.7c0-0.7-0.1-1.3-0.1-2c0-0.9,0-1.8,0-2.7
			c0-0.4-0.5-3.6-0.3-7.8c0.2-4.5,1.8-8.3,3-10.4c0.6-1.2,0.9-2.4,1-3.3c0,0,0,0,0,0l0.1-0.5c-0.7,0.9-3.1,2.2-4.5,1.8
			c-1.8-0.4-1.6-0.5-1.6-0.5c-0.4,1.2-0.9,2.5-1.3,3.8c-0.9,3.2-1,5.9-1.2,9.8c0,0.3,0,0.6,0,1.1
			C314.2,676.2,314.2,679.3,314.2,682.1z"/>
		<path class="st34" d="M322.8,658.7c-0.1,0.9-0.4,2.2-1,3.4c-1.1,2.1-2.7,5.9-3,10.4c-0.2,4.2,0.3,7.4,0.3,7.8
			c0-1.9,0.1-3.8,0.4-5.7c0.7-5.1,3.9-8.9,3.9-8.9l-1-1.8l1.6,1c0,0,1-4.4,0.7-5.6c0-0.2-0.2-0.5-0.3-0.6c-0.5-0.8-1.4-1.1-1.4-1.1
			S322.9,657.9,322.8,658.7z"/>
		<path class="st38" d="M319.5,686.9c0.1,1.3,0.4,2.7,0.6,4.2c0,0,2.5,0.8,5,0.1c2.5-0.7,2.2-1.1,2.2-1.1s-1.1-7-1.3-8.7
			c-0.2-1.7,4.9-17,3.4-19.1c-1.5-2.2-5-3.7-5-3.7h0c0.1,0.2,0.2,0.4,0.3,0.6c0.3,1.2-0.7,5.6-0.7,5.6l-1.6-1l1,1.8
			c0,0-3.2,3.8-3.9,8.9c-0.3,1.9-0.4,3.7-0.4,5.7C319.1,682.3,319.2,684.5,319.5,686.9z"/>
		<path class="st37" d="M327.4,687.9c0,0-0.4,0.3-0.9,0.9c-0.4,0.6-1.1,3.1-0.3,3.3c0.4,0.1,0.8-1.6,0.9-1.6
			c0.6,0.1-0.8,3.8-0.2,4.1c0.6,0.2,2.5-1.9,2.9-2.6c0.4-0.6,0.9-4.5,0.9-4.5L327.4,687.9z"/>
		<path class="st34" d="M329.9,663.1c-0.7-2.2-3.7-2.5-4.8-0.5c-0.4,0.8-0.6,1.8-0.3,3.2c1.1,4.1,2.9,9.5,2.8,10.4
			c0,0.9-0.5,10.3-0.7,11.3c-0.1,1.1,3.4,1,3.9,0.5c0.5-0.6,1.1-11.4,1.1-13.4C332,673.2,331.1,666.6,329.9,663.1z"/>
		<path class="st37" d="M317.4,659.3c0,0,0-0.1,0-0.2c0-0.2,0-0.4,0-0.6c0,0,0-0.5,0-0.5l-0.1-0.3c0,0,0.1,0,0.2,0s0.2,0,0.4,0
			c1.4-0.2,3.5-0.9,4.3-2.5c0,0,1.2-1.5,1.2-1.5l-0.7,2.8c0,0.1,0.1,0.4,0.1,0.5c0,0.9-0.7,1.3-1.3,1.8c-0.6,0.4-1.3,0.7-1.9,0.9
			c-0.5,0.2-1.3,0.4-1.7,0C317.5,659.5,317.4,659.5,317.4,659.3z"/>
		<path class="st37" d="M315.2,653.5c0,0.9,0.1,1.7,0.2,2.3c0.1,0.7,0.3,1.2,0.5,1.5c0.1,0.2,0.3,0.3,0.5,0.4c0.1,0,0.4,0,0.8,0
			c0,0,0.1,0,0.2,0s0.2,0,0.4,0c1.4-0.2,3.5-0.9,4.3-2.5c0.2-0.2,2.3-1.9,1.1-2.8c-1.1-0.8-1.8,1.5-1.8,1.5l0-0.6
			c0.5-2.2-0.4-2.5-0.8-2.8c0,0-0.1-1.2-0.1-1.2c-0.2-0.2-0.6,0.2-2.5-0.5c-0.6-0.2-1.4,0.4-1.8,0.1c0,0-0.1,0.3-0.2,0.6
			C315.4,650.3,315.1,651.7,315.2,653.5z M319.5,654.5c0.5-1.4,0.7-2.8,0.5-3.4c0,0,0-0.1-0.1-0.1c0,0,0,0.1,0.1,0.1
			C320.2,651.7,320,653,319.5,654.5z M316.5,650c0.4,0.2,0.9,0.4,1.4,0.5c0.7,0.1,1.4,0.3,1.8,0.5c-0.4-0.2-1.1-0.4-1.8-0.5
			C317.4,650.4,316.9,650.2,316.5,650z"/>
		<path class="st40" d="M317.2,657.7c1.1,0,2.4-0.4,3.4-1c0,0-0.3,1.7-3.2,2.1L317.2,657.7z"/>
		<path class="st41" d="M321.8,653.6c0.1-0.2,0.5-0.8,0.8-0.8c0.3,0,0.4,0.4,0.4,0.6c0,0.3-0.4,1-0.9,1.1c-0.2,0-0.5-0.1-0.4-0.3
			c0-0.1,0.2-0.1,0.2-0.2C321.9,653.9,321.9,653.6,321.8,653.6z"/>
		<path class="st41" d="M322.7,654.4c-0.6,0.7-1,0.8-1.4,0.6c0,0,0,0.6,0.5,0.6C322.5,655.5,322.7,654.4,322.7,654.4z"/>
		<path class="st42" d="M320,649.5c-0.4-0.3-3.1-0.7-4.3,0l-0.2,0.6c0,0-0.6-1.1,0.2-2.1c0.8-1.1,2.8-2.2,5.3-1.8
			c2.6,0.4,2.8,1.2,2.8,2.1c0,0,1.1,0.6,1.1,2.2c0,1.6-0.7,3-1.2,3.7c-0.5,0.8-1.2,2.3-1.2,2.3s0-1.2,0.2-1.7c0.2-0.5,0.9-1.1,0.6-2
			c-0.3-0.9-1.3-0.5-1.6,0.1c-0.3,0.6-0.4,1-0.5,1c-0.1,0-0.1-0.5-0.1-1.2C321,652,320.1,650.7,320,649.5z"/>
		<path class="st43" d="M322.5,656.9c0,0,0-0.2,0-0.2l0.2,0l0.3,0.7c0,0,0.1,2.7-3.4,4.3l-1-2.4
			C318.5,659.5,321.2,658.6,322.5,656.9z"/>
		<path class="st43" d="M317.4,659.1l-1,1.3c0,0,0.1-1.3,0.4-1.9c0.3-0.6,0.4-0.6,0.4-0.6L317.4,659.1z"/>
		<path class="st44" d="M318.5,659.5l-1.2-0.3l-0.4,0.5l0.3,0.5c0,0-2.5,9-2.6,18.5l0.9,1.5l1.4-1.4c0,0-0.3-5.8,0-10.2
			c0.3-4.5,0.9-8.2,0.9-8.2l0.9-0.2L318.5,659.5z"/>
		<path class="st45" d="M314.2,682.1c0,0.7,0,1.4,0,2.1c0.2,0,0.5,0.1,0.7,0.2c0.8,0.2,1.8,0.4,2.8,0.5c0.5,0,1,0,1.5,0
			c0-0.2,0-0.4,0-0.6c0-0.3,0-0.6,0-0.8c0-0.2,0-0.4,0-0.6c-0.4,0-0.9,0-1.4,0c-1-0.1-2-0.3-2.8-0.5
			C314.6,682.2,314.4,682.1,314.2,682.1z"/>
		<path class="st46" d="M314.9,682.3v2c0.8,0.2,1.8,0.4,2.8,0.5v-2C316.7,682.7,315.7,682.6,314.9,682.3z"/>
		<path class="st47" d="M287.1,793.4c-2.2,1.3-5.9,1.3-8.1,0c-2.2-1.3-2.2-3.4,0-4.7c2.2-1.3,5.9-1.3,8.1,0
			C289.4,789.9,289.4,792,287.1,793.4z"/>
		<path class="st48" d="M279.2,789.1l-2.3-1.5l0.3-0.3l0.8,0.2L279.2,789.1z"/>
		<path class="st49" d="M289,773.5l-2.3-1.5l1.3,2.5L289,773.5z"/>
		<path class="st49" d="M288.3,784c2.7-4.3,2.1-9.6-1.5-11.9c-3.5-2.3-8.6-0.6-11.4,3.7c-2.7,4.3-2.1,9.6,1.5,11.9
			C280.5,789.9,285.6,788.2,288.3,784z"/>
		<path class="st49" d="M290.6,785.4c2.7-4.3,2.1-9.6-1.5-11.9c-3.5-2.3-8.6-0.6-11.4,3.7s-2.1,9.6,1.5,11.9
			C282.8,791.3,287.9,789.7,290.6,785.4z"/>
		<path class="st48" d="M276.2,784c0.3,2.1,1.3,4,3.1,5.1c3.5,2.3,8.6,0.6,11.4-3.7c1.3-2.1,1.9-4.5,1.6-6.6L276.2,784z"/>
		<path class="st50" d="M290.3,785.2c2.6-4.1,2-9.1-1.4-11.3c-3.4-2.2-8.2-0.6-10.9,3.5c-2.6,4.1-2,9.1,1.4,11.3
			C282.9,790.9,287.7,789.3,290.3,785.2z"/>
		<path class="st44" d="M289.1,784.5c2.1-3.3,1.6-7.3-1.1-9.1c-2.7-1.7-6.6-0.5-8.7,2.8c-2.1,3.3-1.6,7.3,1.1,9.1
			C283.1,789,287,787.8,289.1,784.5z"/>
		<path class="st49" d="M288,775.4c-0.1-0.1-0.2-0.2-0.3-0.2c2.4,1.8,2.8,5.7,0.8,8.9c-2,3.2-5.7,4.4-8.4,3c0.1,0.1,0.2,0.2,0.3,0.2
			c2.7,1.7,6.6,0.5,8.7-2.8C291.2,781.2,290.7,777.1,288,775.4z"/>
		<path class="st49" d="M285.3,780.4l-1.8,0.6c-0.5,1.3-1.3,3.8-2,5.8c1.5,0.3,3.2-0.2,4.6-1.2L285.3,780.4z"/>
		<path class="st49" d="M287.4,784.3c0.2-0.2,0.3-0.4,0.4-0.6c0.9-1.4,1.3-3,1.1-4.5l-3,1L287.4,784.3z"/>
		<path class="st49" d="M281.5,781.7l-3.4,1.1c0.2,1.2,0.5,2.3,1.3,3L281.5,781.7z"/>
		<path class="st48" d="M279.7,778.9c2.1-3.3,6-4.5,8.7-2.8c0.5,0.3,1,0.8,1.4,1.3c-0.4-0.8-1-1.5-1.8-2c-2.7-1.7-6.6-0.5-8.7,2.8
			c-1.7,2.6-1.7,5.7-0.2,7.8C278,784,278.2,781.2,279.7,778.9z"/>
		<path class="st48" d="M277,787.6c0.5,0.3,1.1,0.6,1.7,0.8c-0.4-0.5-1-1.2-1-1.2l-0.9-1.3l-0.1-0.7l-0.1-1.2l-2.7-1.7
			C274,784.4,275.1,786.4,277,787.6z"/>
		<path class="st48" d="M286.9,772.8l-1.3-0.8c0,0-0.1-0.1,0-0.2v0c0,0,0.1-0.1,0.2,0l1.3,0.8c0,0,0.1,0.1,0,0.2v0
			C287,772.9,287,772.9,286.9,772.8z"/>
		<path class="st48" d="M285.1,772.7l-1.6-1c-0.1,0-0.1-0.1,0-0.2l0-0.1c0-0.1,0.1-0.1,0.2,0l1.6,1c0.1,0,0.1,0.1,0,0.2l0,0.1
			C285.2,772.7,285.2,772.7,285.1,772.7z"/>
		<path class="st48" d="M283.3,772.9l-1.5-1c-0.1,0-0.1-0.1,0-0.2l0.1-0.1c0-0.1,0.1-0.1,0.2,0l1.5,1c0.1,0,0.1,0.1,0,0.2l-0.1,0.1
			C283.4,772.9,283.3,773,283.3,772.9z"/>
		<path class="st48" d="M281.4,773.7l-1.7-1.1c-0.1,0-0.1-0.1,0-0.2l0.1-0.1c0-0.1,0.1-0.1,0.2,0l1.7,1.1c0.1,0,0.1,0.1,0,0.2
			l-0.1,0.1C281.5,773.8,281.5,773.8,281.4,773.7z"/>
		<path class="st48" d="M279.9,774.8l-1.8-1.2c-0.1,0-0.1-0.1,0-0.2l0.1-0.1c0-0.1,0.1-0.1,0.2,0l1.8,1.2c0.1,0,0.1,0.1,0,0.2
			l-0.1,0.1C280,774.8,279.9,774.8,279.9,774.8z"/>
		<path class="st48" d="M278.6,776l-1.8-1.1c-0.1,0-0.1-0.1,0-0.2l0.1-0.1c0-0.1,0.1-0.1,0.2,0l1.8,1.1c0.1,0,0.1,0.1,0,0.2
			l-0.1,0.1C278.7,776,278.7,776,278.6,776z"/>
		<path class="st48" d="M277.5,777.3l-1.8-1.1c-0.1,0-0.1-0.1,0-0.2l0.1-0.1c0-0.1,0.1-0.1,0.2,0l1.8,1.1c0.1,0,0.1,0.1,0,0.2
			l-0.1,0.1C277.7,777.4,277.6,777.4,277.5,777.3z"/>
		<path class="st48" d="M276.7,778.8l-1.7-1.1c-0.1,0-0.1-0.1,0-0.2l0.1-0.1c0-0.1,0.1-0.1,0.2,0l1.7,1.1c0.1,0,0.1,0.1,0,0.2
			l-0.1,0.1C276.8,778.8,276.8,778.9,276.7,778.8z"/>
		<path class="st48" d="M276.1,780.5l-1.7-1.1c-0.1,0-0.1-0.1,0-0.2l0.1-0.1c0-0.1,0.1-0.1,0.2,0l1.7,1.1c0.1,0,0.1,0.1,0,0.2
			l-0.1,0.1C276.3,780.5,276.2,780.5,276.1,780.5z"/>
		<path class="st48" d="M275.9,782.4l-1.8-1.1c-0.1,0-0.1-0.1,0-0.2l0.1-0.1c0-0.1,0.1-0.1,0.2,0l1.8,1.1c0.1,0,0.1,0.1,0,0.2
			l-0.1,0.1C276,782.4,276,782.4,275.9,782.4z"/>
		<g class="st10">
			<path class="st11" d="M431.7,727.7l-21.2-12.2c-0.3-0.2-0.3-0.6,0.1-0.8l21-12.1c0.4-0.2,1-0.2,1.4,0l21.2,12.2
				c0.3,0.2,0.3,0.6-0.1,0.8l-21,12.1C432.6,727.9,432,727.9,431.7,727.7z"/>
		</g>
		<g class="st10">
			<path class="st11" d="M422.3,724.7l-21-12.1c-0.5-0.2-0.4-0.7,0.1-1l6.2-3.6l22.6,13l-6.2,3.6
				C423.5,724.9,422.7,724.9,422.3,724.7z"/>
		</g>
		<path class="st13" d="M452,708.2V704h-6.8l-15.1-8.7c-0.3-0.2-1-0.2-1.5,0l-15,8.7h-6.8v4.2c0,0.1,0.1,0.2,0.2,0.4l21.7,12.5
			c0.4,0.2,1,0.2,1.5,0l21.5-12.4C451.9,708.5,452,708.3,452,708.2z"/>
		
			<linearGradient id="SVGID_19_" gradientUnits="userSpaceOnUse" x1="447.45" y1="118.3559" x2="398.51" y2="133.6409" gradientTransform="matrix(1 0 0 -1 0 828)">
			<stop  offset="0" style="stop-color:#C0D6FF"/>
			<stop  offset="0.2978" style="stop-color:#C5DBFF"/>
			<stop  offset="0.6488" style="stop-color:#D3E9FF"/>
			<stop  offset="1" style="stop-color:#E9FFFF"/>
		</linearGradient>
		<path class="st51" d="M428.8,716.9l-21.7-12.5c-0.4-0.2-0.3-0.6,0.1-0.9l21.5-12.4c0.5-0.3,1.1-0.3,1.5-0.1l21.7,12.5
			c0.4,0.2,0.3,0.6-0.1,0.9l-21.5,12.4C429.8,717.1,429.2,717.1,428.8,716.9z"/>
		
			<linearGradient id="SVGID_20_" gradientUnits="userSpaceOnUse" x1="450.8845" y1="127.6979" x2="407.3155" y2="120.093" gradientTransform="matrix(1 0 0 -1 0 828)">
			<stop  offset="0" style="stop-color:#2C78F6"/>
			<stop  offset="1" style="stop-color:#00BFE7"/>
		</linearGradient>
		<path class="st52" d="M428.9,715.5l-19.2-11.1c-0.4-0.2-0.3-0.5,0.1-0.8l19-11c0.4-0.2,1-0.2,1.3,0l19.2,11.1
			c0.4,0.2,0.3,0.5-0.1,0.8l-19,11C429.8,715.6,429.2,715.7,428.9,715.5z"/>
		
			<linearGradient id="SVGID_21_" gradientUnits="userSpaceOnUse" x1="449.0812" y1="127.3971" x2="409.1312" y2="120.4391" gradientTransform="matrix(1 0 0 -1 0 828)">
			<stop  offset="0" style="stop-color:#2C78F6"/>
			<stop  offset="1" style="stop-color:#00BFE7"/>
		</linearGradient>
		<path class="st53" d="M428.9,714.5l-17.6-10.2c-0.3-0.2-0.2-0.5,0.1-0.7l17.4-10.1c0.4-0.2,0.9-0.2,1.2,0l17.6,10.2
			c0.3,0.2,0.2,0.5-0.1,0.7l-17.4,10.1C429.8,714.7,429.2,714.7,428.9,714.5z"/>
		<path class="st54" d="M429.1,703.4l-2.1-1.2l1.1-0.7l2.1,1.2L429.1,703.4z"/>
		<path class="st54" d="M432.9,703.2l-2.1,1.2l-1.1-0.7l2.1-1.2L432.9,703.2z"/>
		<path class="st54" d="M428.6,703.6l-1.2,0.7l-1.1-0.7l1.1-0.7L428.6,703.6z"/>
		<path class="st54" d="M432.5,705.9l-1.1,0.7l-3.3-1.9l1.2-0.7L432.5,705.9z"/>
	</g>
</g>
</svg>
