<?xml version="1.0" encoding="utf-8"?>
<!-- Generator: Adobe Illustrator 24.3.0, SVG Export Plug-In . SVG Version: 6.00 Build 0)  -->
<svg version="1.1" id="Layer_1" xmlns="http://www.w3.org/2000/svg" xmlns:xlink="http://www.w3.org/1999/xlink" x="0px" y="0px"
	 viewBox="0 0 1066 826" style="enable-background:new 0 0 1066 826;" xml:space="preserve">
<style type="text/css">
	.st0{opacity:0.5;fill:none;stroke:#0254D7;stroke-width:0.7;stroke-dasharray:2,2;enable-background:new    ;}
	.st1{fill:#3AA0C7;}
	.st2{fill:#2C78F6;}
	.st3{opacity:0.4;}
	.st4{opacity:5.000000e-02;}
	.st5{fill:#FCFCFE;}
	.st6{opacity:0.1;}
	.st7{fill:#F8F9FD;}
	.st8{opacity:0.14;}
	.st9{fill:#F5F6FC;}
	.st10{opacity:0.19;}
	.st11{fill:#F1F3FB;}
	.st12{opacity:0.24;}
	.st13{fill:#EEF0FA;}
	.st14{opacity:0.29;}
	.st15{fill:#EAEDF9;}
	.st16{opacity:0.33;}
	.st17{fill:#E7EAF8;}
	.st18{opacity:0.38;}
	.st19{fill:#E4E7F7;}
	.st20{opacity:0.43;}
	.st21{fill:#E0E4F6;}
	.st22{opacity:0.48;}
	.st23{fill:#DDE1F5;}
	.st24{opacity:0.52;}
	.st25{fill:#D9DEF5;}
	.st26{opacity:0.57;}
	.st27{fill:#D6DBF4;}
	.st28{opacity:0.62;}
	.st29{fill:#D2D8F3;}
	.st30{opacity:0.67;}
	.st31{fill:#CFD5F2;}
	.st32{opacity:0.71;}
	.st33{fill:#CCD2F1;}
	.st34{opacity:0.76;}
	.st35{fill:#C8CFF0;}
	.st36{opacity:0.81;}
	.st37{fill:#C5CCEF;}
	.st38{opacity:0.86;}
	.st39{fill:#C1C9EE;}
	.st40{opacity:0.9;}
	.st41{fill:#BEC6ED;}
	.st42{opacity:0.95;}
	.st43{fill:#BAC3EC;}
	.st44{fill:#B7C0EB;}
	.st45{fill:#E4E7FB;}
	.st46{fill:#EFF1FE;}
	.st47{fill:#FFFFFF;}
	.st48{fill:url(#SVGID_1_);}
	.st49{fill:url(#SVGID_2_);}
	.st50{opacity:0.4;fill:none;enable-background:new    ;}
	.st51{fill:url(#SVGID_3_);}
	.st52{fill:url(#SVGID_4_);}
	.st53{fill:#5FEFC0;}
	.st54{fill:#A28EF4;}
	.st55{fill:url(#SVGID_5_);}
	.st56{fill:url(#SVGID_6_);}
	.st57{fill:url(#SVGID_7_);}
	.st58{fill:url(#SVGID_8_);}
	.st59{fill:url(#SVGID_9_);}
	.st60{fill:url(#SVGID_10_);}
	.st61{fill:url(#SVGID_11_);}
	.st62{fill:url(#SVGID_12_);}
	.st63{fill:url(#SVGID_13_);}
	.st64{fill:url(#SVGID_14_);}
	.st65{fill:#CCCCCC;}
	.st66{fill:#C7C7C7;}
	.st67{fill:#C2C2C2;}
	.st68{fill:#BDBDBD;}
	.st69{fill:#B8B8B8;}
	.st70{fill:#B3B3B3;}
	.st71{fill:#ADADAD;}
	.st72{fill:#A8A8A8;}
	.st73{fill:#A3A3A3;}
	.st74{fill:#9E9E9E;}
	.st75{fill:#858585;}
	.st76{fill:#8A8A8A;}
	.st77{fill:#8F8F8F;}
	.st78{fill:#949494;}
	.st79{fill:#999999;}
	.st80{fill:url(#SVGID_15_);}
	.st81{fill:url(#SVGID_16_);}
	.st82{fill:url(#SVGID_17_);}
	.st83{fill:url(#SVGID_18_);}
	.st84{fill:#437FEC;}
	.st85{fill:#F1F4FE;}
	.st86{opacity:0.12;}
	.st87{fill:#242993;}
	.st88{fill-rule:evenodd;clip-rule:evenodd;fill:#F4F7FF;}
	.st89{fill:url(#SVGID_19_);}
	.st90{fill:url(#SVGID_20_);}
	.st91{fill:url(#SVGID_21_);}
	.st92{fill:url(#SVGID_22_);}
	.st93{fill:url(#SVGID_23_);}
	.st94{fill:url(#SVGID_24_);}
	.st95{fill:url(#SVGID_25_);}
	.st96{fill:url(#SVGID_26_);}
	.st97{fill:url(#SVGID_27_);}
	.st98{fill:url(#SVGID_28_);}
	.st99{fill:url(#SVGID_29_);}
	.st100{fill:url(#SVGID_30_);}
	.st101{fill:url(#SVGID_31_);}
	.st102{fill:url(#SVGID_32_);}
	.st103{opacity:0.31;}
	.st104{fill:url(#SVGID_33_);}
	.st105{fill:url(#SVGID_34_);}
	.st106{fill:url(#SVGID_35_);}
	.st107{fill:#42FFFF;}
</style>
<g>
	<path class="st0" d="M522.3,98l217,116"/>
	<path class="st1" d="M625,153.4l-5.3-0.9l3.4-4.1L625,153.4z"/>
	<path class="st0" d="M452,209l22,15"/>
	<path class="st2" d="M475.8,200.5c-2.8,1.6-3.5,4.6-1.7,7.8c1.8,3.2,4.7,4.1,7.6,2.5c2.8-1.6,3.5-4.6,1.7-7.8
		C481.5,199.8,478.6,198.8,475.8,200.5z M476.6,202c1.7-1,3.6-0.2,4.9,1.9c1.3,2.2,1,4.2-0.8,5.2c-1.8,1-3.6,0.2-4.9-1.9
		C474.6,205,474.9,203,476.6,202z M498.2,200.8l-5.6-9.8l-2,1.2l1.2,8.9l-0.1,0.1l-7.1-5.5l-2,1.2l5.6,9.8l1.6-0.9l-4-6.9l0.1-0.1
		l6.5,5l1.2-0.7l-1.1-8.1l0.1-0.1l4,6.9L498.2,200.8z M498.7,197.1c1.1,1.7,3.2,2,5.5,0.7c2.4-1.4,3.2-3.4,2.1-5.3
		c-0.9-1.5-2.2-1.8-4.4-1.1l-1.3,0.4c-1.4,0.4-2.1,0.3-2.5-0.3c-0.5-0.8,0-1.8,1.1-2.5c1.1-0.6,2.1-0.5,2.8,0.3l1.7-1
		c-1-1.6-3.2-2-5.3-0.8c-2.2,1.3-3,3.3-1.9,5c0.8,1.5,2.2,1.9,4.2,1.2l1.4-0.4c1.4-0.4,2.2-0.3,2.6,0.4c0.5,0.8,0,1.9-1.2,2.6
		c-1.2,0.7-2.4,0.7-3-0.2L498.7,197.1z"/>
	<path class="st0" d="M425.3,222.4l-70.7-43.2l-5.9-4c-1.2-0.8-1.2-2.7,0.1-3.4l81.1-46.2c0.6-0.4,1.4-0.3,2,0l74.3,46.1
		c1.3,0.8,1.3,2.6,0,3.4l-78.8,47.3C426.8,222.8,426,222.8,425.3,222.4z"/>
	<g class="st3">
		<g class="st4">
			<g class="st4">
				<path class="st5" d="M394.8,174.6c-2.3-1.4-2.3-3.6,0-4.9l44.1-25.4c2.3-1.3,6.1-1.3,8.4,0l44.4,25.5c2.3,1.3,2.3,3.5,0,4.9
					l-44.1,25.6c-2.3,1.3-6.1,1.3-8.4,0L394.8,174.6z"/>
			</g>
		</g>
		<g class="st6">
			<g class="st6">
				<path class="st7" d="M394.1,174.6c-2.3-1.3-2.3-3.5,0-4.9l44.1-25.2c2.3-1.3,6.1-1.3,8.4,0l44.4,25.3c2.3,1.3,2.3,3.5,0,4.9
					l-44.1,25.6c-2.3,1.3-6.1,1.3-8.4,0L394.1,174.6z"/>
			</g>
		</g>
		<g class="st8">
			<g class="st8">
				<path class="st9" d="M393.3,174.7c-2.3-1.3-2.3-3.5,0-4.9l44.1-25.1c2.3-1.3,6.1-1.3,8.4,0l44.4,25.1c2.3,1.3,2.3,3.5,0,4.9
					l-44.1,25.6c-2.3,1.3-6.1,1.3-8.4,0L393.3,174.7z"/>
			</g>
		</g>
		<g class="st10">
			<g class="st10">
				<path class="st11" d="M392.6,174.7c-2.3-1.3-2.3-3.5,0-4.9l44.1-24.9c2.3-1.3,6.1-1.3,8.4,0l44.4,24.9c2.3,1.3,2.3,3.5,0,4.9
					l-44.1,25.6c-2.3,1.3-6.1,1.3-8.4,0L392.6,174.7z"/>
			</g>
		</g>
		<g class="st12">
			<g class="st12">
				<path class="st13" d="M391.8,174.7c-2.3-1.3-2.3-3.5,0-4.9l44.1-24.7c2.3-1.3,6.1-1.3,8.4,0l44.4,24.7c2.3,1.3,2.3,3.5,0,4.9
					l-44.1,25.6c-2.3,1.3-6.1,1.3-8.4,0L391.8,174.7z"/>
			</g>
		</g>
		<g class="st14">
			<g class="st14">
				<path class="st15" d="M391.1,174.7c-2.3-1.4-2.3-3.6,0-4.9l44.1-24.5c2.3-1.3,6.1-1.3,8.4,0l44.4,24.5c2.3,1.3,2.3,3.5,0,4.9
					l-44.1,25.6c-2.3,1.3-6.1,1.3-8.4,0L391.1,174.7z"/>
			</g>
		</g>
		<g class="st16">
			<g class="st16">
				<path class="st17" d="M390.3,174.7c-2.3-1.3-2.3-3.5,0-4.9l44.1-24.3c2.3-1.3,6.1-1.3,8.4,0l44.4,24.3c2.3,1.3,2.3,3.5,0,4.9
					l-44.1,25.6c-2.3,1.3-6.1,1.3-8.4,0L390.3,174.7z"/>
			</g>
		</g>
		<g class="st18">
			<g class="st18">
				<path class="st19" d="M389.6,174.7c-2.3-1.3-2.3-3.5,0-4.9l44.1-24.1c2.3-1.3,6.1-1.3,8.4,0l44.4,24.1c2.3,1.3,2.3,3.5,0,4.9
					l-44.1,25.6c-2.3,1.3-6.1,1.3-8.4,0L389.6,174.7z"/>
			</g>
		</g>
		<g class="st20">
			<g class="st20">
				<path class="st21" d="M388.8,174.7c-2.3-1.3-2.3-3.5,0-4.9l44.1-23.9c2.3-1.3,6.1-1.3,8.4,0l44.4,23.9c2.3,1.3,2.3,3.5,0,4.9
					l-44.1,25.6c-2.3,1.3-6.1,1.3-8.4,0L388.8,174.7z"/>
			</g>
		</g>
		<g class="st22">
			<g class="st22">
				<path class="st23" d="M388.1,174.7c-2.3-1.4-2.3-3.6,0-4.9l44.1-23.7c2.3-1.3,6.1-1.3,8.4,0l44.4,23.7c2.3,1.3,2.3,3.5,0,4.9
					l-44.1,25.6c-2.3,1.3-6.1,1.3-8.4,0L388.1,174.7z"/>
			</g>
		</g>
		<g class="st24">
			<g class="st24">
				<path class="st25" d="M387.3,174.7c-2.3-1.4-2.3-3.6,0-4.9l44.1-23.5c2.3-1.3,6.1-1.3,8.4,0l44.4,23.5c2.3,1.3,2.3,3.5,0,4.9
					l-44.1,25.6c-2.3,1.3-6.1,1.3-8.4,0L387.3,174.7z"/>
			</g>
		</g>
		<g class="st26">
			<g class="st26">
				<path class="st27" d="M386.6,174.7c-2.3-1.3-2.3-3.5,0-4.9l44.1-23.4c2.3-1.3,6.1-1.3,8.4,0l44.4,23.4c2.3,1.3,2.3,3.5,0,4.9
					l-44.1,25.6c-2.3,1.3-6.1,1.3-8.4,0L386.6,174.7z"/>
			</g>
		</g>
		<g class="st28">
			<g class="st28">
				<path class="st29" d="M385.8,174.7c-2.3-1.3-2.3-3.5,0-4.9l44.1-23.2c2.3-1.3,6.1-1.3,8.4,0l44.4,23.2c2.3,1.3,2.3,3.5,0,4.9
					l-44.1,25.6c-2.3,1.3-6.1,1.3-8.4,0L385.8,174.7z"/>
			</g>
		</g>
		<g class="st30">
			<g class="st30">
				<path class="st31" d="M385.1,174.7c-2.3-1.3-2.3-3.5,0-4.9l44.1-23c2.3-1.3,6.1-1.3,8.4,0l44.4,23c2.3,1.3,2.3,3.5,0,4.9
					l-44.1,25.6c-2.3,1.3-6.1,1.3-8.4,0L385.1,174.7z"/>
			</g>
		</g>
		<g class="st32">
			<g class="st32">
				<path class="st33" d="M384.3,174.7c-2.3-1.4-2.3-3.6,0-4.9l44.1-22.8c2.3-1.3,6.1-1.3,8.4,0l44.4,22.8c2.3,1.3,2.3,3.5,0,4.9
					l-44.1,25.6c-2.3,1.3-6.1,1.3-8.4,0L384.3,174.7z"/>
			</g>
		</g>
		<g class="st34">
			<g class="st34">
				<path class="st35" d="M383.6,174.7c-2.3-1.4-2.3-3.6,0-4.9l44.1-22.6c2.3-1.3,6.1-1.3,8.4,0l44.4,22.6c2.3,1.3,2.3,3.5,0,4.9
					l-44.1,25.6c-2.3,1.3-6.1,1.3-8.4,0L383.6,174.7z"/>
			</g>
		</g>
		<g class="st36">
			<g class="st36">
				<path class="st37" d="M382.8,174.7c-2.3-1.3-2.3-3.5,0-4.9l44.1-22.4c2.3-1.3,6.1-1.3,8.4,0l44.4,22.4c2.3,1.3,2.3,3.5,0,4.9
					l-44.1,25.6c-2.3,1.3-6.1,1.3-8.4,0L382.8,174.7z"/>
			</g>
		</g>
		<g class="st38">
			<g class="st38">
				<path class="st39" d="M382,174.7c-2.3-1.3-2.3-3.5,0-4.9l44.1-22.2c2.3-1.3,6.1-1.3,8.4,0l44.4,22.2c2.3,1.3,2.3,3.5,0,4.9
					l-44.1,25.6c-2.3,1.3-6.1,1.3-8.4,0L382,174.7z"/>
			</g>
		</g>
		<g class="st40">
			<g class="st40">
				<path class="st41" d="M381.3,174.7c-2.3-1.4-2.3-3.6,0-4.9l44.1-22c2.3-1.3,6.1-1.3,8.4,0l44.4,22c2.3,1.3,2.3,3.5,0,4.9
					l-44.1,25.6c-2.3,1.3-6.1,1.3-8.4,0L381.3,174.7z"/>
			</g>
		</g>
		<g class="st42">
			<g class="st42">
				<path class="st43" d="M380.5,174.7c-2.3-1.4-2.3-3.6,0-4.9l44.1-21.8c2.3-1.3,6.1-1.3,8.4,0l44.4,21.8c2.3,1.3,2.3,3.5,0,4.9
					l-44.1,25.6c-2.3,1.3-6.1,1.3-8.4,0L380.5,174.7z"/>
			</g>
		</g>
		<g class="st3">
			<path class="st44" d="M379.8,174.7c-2.3-1.3-2.3-3.6,0-4.9l44.1-21.6c2.3-1.3,6.1-1.3,8.4,0l44.4,21.6c2.3,1.4,2.3,3.6,0,4.9
				l-44.1,25.6c-2.3,1.3-6.1,1.3-8.4,0L379.8,174.7z"/>
		</g>
	</g>
	<path class="st44" d="M379.8,174.6c-2.3-1.3-2.3-3.5,0-4.9l44.1,4.3c2.3-1.3,6.1-1.3,8.4,0l44.4-4.2c2.3,1.3,2.3,3.5,0,4.9
		l-44.1,25.6c-2.3,1.3-6.1,1.3-8.4,0L379.8,174.6z"/>
	<path class="st45" d="M478.5,169.6c0,0.1,0,0.1,0,0.2c0,0,0,0.1,0,0.1c0,0.1,0,0.1-0.1,0.2c0,0,0,0.1-0.1,0.1s-0.1,0.1-0.1,0.2
		c0,0.1-0.1,0.2-0.2,0.2c0,0,0,0,0,0c-0.1,0.1-0.1,0.2-0.2,0.2l0,0.1c-0.1,0.1-0.2,0.2-0.2,0.2c-0.1,0.1-0.1,0.1-0.2,0.2l-0.2,0.1
		c-0.1,0-0.1,0.1-0.2,0.1l-0.2,0.1l-44.1,25.6l-0.1,1.7l44.1-25.6c0,0,0,0,0.1,0c0.1,0,0.1-0.1,0.2-0.1l0.2-0.1
		c0.1,0,0.1-0.1,0.2-0.1l0.2-0.2l0,0c0.1-0.1,0.1-0.1,0.2-0.2c0,0,0,0,0-0.1c0,0,0.1-0.1,0.1-0.1c0,0,0.1-0.1,0.1-0.1c0,0,0,0,0,0
		c0-0.1,0.1-0.1,0.1-0.2c0,0,0,0,0,0c0-0.1,0.1-0.1,0.1-0.2c0-0.1,0-0.1,0-0.1c0,0,0,0,0,0c0-0.1,0-0.1,0.1-0.2c0,0,0-0.1,0-0.1v0
		c0-0.1,0-0.1,0-0.2c0-0.1,0-0.1,0-0.1v-0.1l0.1-1.7C478.5,169.5,478.5,169.6,478.5,169.6z"/>
	<path class="st46" d="M379.8,171.9c-1.2-0.7-1.8-1.6-1.8-2.5l-0.1,1.7c0,0.9,0.6,1.8,1.8,2.5l44.4,25.6l0.1-1.7L379.8,171.9z"/>
	<path class="st47" d="M476.7,167c2.3,1.3,2.3,3.5,0,4.9l-44.1,25.6c-2.3,1.3-6.1,1.3-8.4,0l-44.4-25.6c-2.3-1.4-2.3-3.5,0-4.9
		l44.1-25.6c2.3-1.3,6.1-1.3,8.4,0L476.7,167z"/>
	
		<linearGradient id="SVGID_1_" gradientUnits="userSpaceOnUse" x1="428.2534" y1="625.736" x2="428.2534" y2="683.845" gradientTransform="matrix(1 0 0 -1 0 828)">
		<stop  offset="0" style="stop-color:#F1F4FE"/>
		<stop  offset="0.58" style="stop-color:#F7F9FE"/>
		<stop  offset="1" style="stop-color:#FFFFFF"/>
	</linearGradient>
	<path class="st48" d="M379.8,169.9c-2.3-1.3-2.3-3.5,0-4.9l44.1-25.6c2.3-1.3,6.1-1.3,8.4,0l44.4,25.7c2.3,1.3,2.3,3.5,0,4.9
		l-44.1,25.6c-2.3,1.3-6.1,1.3-8.4,0L379.8,169.9z"/>
	
		<linearGradient id="SVGID_2_" gradientUnits="userSpaceOnUse" x1="423.64" y1="629.3495" x2="433.171" y2="629.3495" gradientTransform="matrix(1 0 0 -1 0 828)">
		<stop  offset="0" style="stop-color:#EFF1FE"/>
		<stop  offset="1" style="stop-color:#E4E7FB"/>
	</linearGradient>
	<path class="st49" d="M432,199.5c0.2-0.1,0.9-0.5,1.1-0.6v-1.7c-0.2,0.1-0.8,0.4-1,0.5l-0.2,0.1c-0.1,0.1-0.3,0.1-0.5,0.2
		c-0.1,0-0.1,0-0.2,0.1c-0.1,0-0.2,0.1-0.3,0.1l-0.2,0.1l-0.3,0.1l-0.2,0c-0.2,0-0.5,0.1-0.7,0.1l-0.2,0l-0.4,0h-0.3
		c-0.1,0-0.2,0-0.3,0c-0.1,0-0.2,0-0.3,0c-0.1,0-0.2,0-0.3,0c-0.1,0-0.2,0-0.3,0c-0.1,0-0.2,0-0.3,0l-0.3,0l-0.3-0.1
		c-0.1,0-0.2,0-0.2,0l-0.4-0.1l-0.2-0.1c-0.2-0.1-0.4-0.1-0.6-0.2c-0.1,0-0.2-0.1-0.3-0.1c-0.1,0-0.1,0-0.2-0.1
		c-0.2-0.1-1-0.5-1.1-0.6v1.8c0.1,0.1,0.9,0.5,1,0.6l0.1,0.1c0.1,0,0.2,0.1,0.3,0.1h0c0.2,0.1,0.4,0.1,0.6,0.2h0.1l0.2,0
		c0.1,0,0.2,0.1,0.3,0.1l0.1,0c0.1,0,0.1,0,0.2,0l0.3,0.1c0,0,0.1,0,0.1,0l0.2,0l0.3,0h0.2c0,0,0.1,0,0.1,0c0.1,0,0.2,0,0.3,0
		c0.1,0,0.1,0,0.2,0h0.6c0,0,0.1,0,0.1,0l0.4,0c0.1,0,0.1,0,0.2,0h0c0.2,0,0.5-0.1,0.7-0.1h0c0.1,0,0.1,0,0.2,0l0.3-0.1l0.2-0.1
		l0.3-0.1l0.1,0l0.1,0c0.2-0.1,0.3-0.1,0.5-0.2L432,199.5z"/>
	<g>
		<g class="st3">
			<rect x="431.8" y="189.7" class="st50" width="0.1" height="0.1"/>
			<rect x="432.2" y="190" class="st50" width="0.1" height="0.1"/>
			<rect x="431.8" y="190.2" class="st50" width="0.1" height="0.1"/>
		</g>
		<g class="st3">
			<rect x="430.8" y="189.8" class="st50" width="0.1" height="0.1"/>
			<rect x="431" y="190.2" class="st50" width="0.1" height="0.1"/>
			<rect x="430.8" y="190" class="st50" width="0.1" height="0.1"/>
		</g>
		<g class="st3">
			<rect x="430" y="190.6" class="st50" width="0.1" height="0.1"/>
			<rect x="430.5" y="190.6" class="st50" width="0.1" height="0.1"/>
			<rect x="430" y="191.2" class="st50" width="0.1" height="0.1"/>
		</g>
	</g>
	<g>
		<g class="st3">
			<rect x="392.5" y="167" class="st50" width="0.1" height="0.1"/>
			<rect x="392.9" y="167.2" class="st50" width="0.1" height="0.1"/>
			<rect x="392.5" y="167.4" class="st50" width="0.1" height="0.1"/>
		</g>
		<g class="st3">
			<rect x="391.6" y="167.1" class="st50" width="0.1" height="0.1"/>
			<rect x="391.7" y="167.4" class="st50" width="0.1" height="0.1"/>
			<rect x="391.6" y="167.2" class="st50" width="0.1" height="0.1"/>
		</g>
		<g class="st3">
			<rect x="390.7" y="167.8" class="st50" width="0.1" height="0.1"/>
			<rect x="391.2" y="167.8" class="st50" width="0.1" height="0.1"/>
			<rect x="390.7" y="168.4" class="st50" width="0.1" height="0.1"/>
		</g>
	</g>
	<g>
		<g class="st3">
			<rect x="392.5" y="167" class="st50" width="0.1" height="0.1"/>
			<rect x="392.9" y="167.2" class="st50" width="0.1" height="0.1"/>
			<rect x="392.5" y="167.4" class="st50" width="0.1" height="0.1"/>
		</g>
		<g class="st3">
			<rect x="391.6" y="167.1" class="st50" width="0.1" height="0.1"/>
			<rect x="391.7" y="167.4" class="st50" width="0.1" height="0.1"/>
			<rect x="391.6" y="167.2" class="st50" width="0.1" height="0.1"/>
		</g>
		<g class="st3">
			<rect x="390.7" y="167.8" class="st50" width="0.1" height="0.1"/>
			<rect x="391.2" y="167.8" class="st50" width="0.1" height="0.1"/>
			<rect x="390.7" y="168.4" class="st50" width="0.1" height="0.1"/>
		</g>
	</g>
	<path class="st44" d="M453.5,159.8C453.5,159.8,453.4,159.7,453.5,159.8c-0.1-0.1-0.1-0.1-0.1-0.2s0-0.1,0-0.1c0,0,0.1-0.1,0.1-0.1
		l3.3-1.9c0.1,0,0.2-0.1,0.3-0.1c0.1,0,0.2,0,0.3,0.1l3.3,1.9c0,0,0.1,0,0.1,0.1c0,0,0,0.1,0,0.1c0,0,0,0.1,0,0.1
		c0,0-0.1,0.1-0.1,0.1l-3.3,1.9c-0.1,0.1-0.2,0.1-0.3,0.1c-0.1,0-0.2,0-0.3-0.1L453.5,159.8z"/>
	<path class="st45" d="M461,157.1L461,157.1L461,157.1L461,157.1L461,157.1L461,157.1L461,157.1l-3.4,2v2.4l3.3-1.9h0l0,0v0v0
		L461,157.1C460.9,157.1,461,157,461,157.1z"/>
	<path class="st46" d="M453.5,157.2C453.5,157.2,453.4,157.2,453.5,157.2c-0.1-0.1-0.1-0.1-0.1-0.2v2.4c0,0,0,0.1,0,0.1
		c0,0,0.1,0.1,0.1,0.1l3.3,1.9v-2.4L453.5,157.2z"/>
	<path class="st47" d="M460.8,156.9C460.9,156.9,460.9,156.9,460.8,156.9c0.1,0.1,0.1,0.1,0.1,0.2s0,0.1,0,0.1c0,0-0.1,0.1-0.1,0.1
		l-3.3,1.9c-0.1,0.1-0.2,0.1-0.3,0.1c-0.1,0-0.2,0-0.3-0.1l-3.3-1.9c0,0-0.1,0-0.1-0.1c0,0,0-0.1,0-0.1s0-0.1,0-0.1
		c0,0,0.1-0.1,0.1-0.1l3.3-1.9c0.1-0.1,0.2-0.1,0.3-0.1c0.1,0,0.2,0,0.3,0.1L460.8,156.9z"/>
	
		<linearGradient id="SVGID_3_" gradientUnits="userSpaceOnUse" x1="457.1655" y1="668.919" x2="457.1655" y2="673.287" gradientTransform="matrix(1 0 0 -1 0 828)">
		<stop  offset="0" style="stop-color:#F1F4FE"/>
		<stop  offset="0.58" style="stop-color:#F7F9FE"/>
		<stop  offset="1" style="stop-color:#FFFFFF"/>
	</linearGradient>
	<path class="st51" d="M453.5,157.1C453.5,157.1,453.5,157,453.5,157.1c-0.1-0.1-0.1-0.1-0.1-0.2s0-0.1,0-0.1c0,0,0-0.1,0.1-0.1
		l3.3-1.9c0.1-0.1,0.2-0.1,0.3-0.1c0.1,0,0.2,0,0.3,0.1l3.3,1.9c0,0,0.1,0,0.1,0.1c0,0,0,0.1,0,0.1c0,0,0,0.1,0,0.1
		c0,0,0,0.1-0.1,0.1l-3.3,1.9c-0.1,0-0.2,0.1-0.3,0.1c-0.1,0-0.2,0-0.3-0.1L453.5,157.1z"/>
	
		<linearGradient id="SVGID_4_" gradientUnits="userSpaceOnUse" x1="589.094" y1="667.67" x2="590.489" y2="667.67" gradientTransform="matrix(1 0 0 -1 0 828)">
		<stop  offset="0" style="stop-color:#EFF1FE"/>
		<stop  offset="1" style="stop-color:#E4E7FB"/>
	</linearGradient>
	<path class="st52" d="M457.5,161.6L457.5,161.6l0.1-2.4l-0.1,0h0h0h0h0h0h-0.2h0h0l0,0h0l-0.1,0v2.4l0.1,0h0l0,0h0h0.2h0H457.5
		L457.5,161.6L457.5,161.6L457.5,161.6z"/>
	<path class="st44" d="M456,159.2l-0.2-0.1c-0.1,0-0.1,0-0.1,0.1c0,0,0,0.1,0,0.1c0,0,0,0.1,0.1,0.1l0.2,0.1c0.1,0,0.1,0,0.1-0.1
		C456.1,159.4,456.1,159.3,456,159.2C456,159.3,456,159.2,456,159.2z"/>
	<path class="st44" d="M456,159.6l-0.2-0.1c-0.1,0-0.1,0-0.1,0.1c0,0,0,0.1,0,0.1c0,0,0,0.1,0.1,0.1l0.2,0.1c0.1,0,0.1,0,0.1-0.1
		C456.1,159.7,456.1,159.7,456,159.6C456,159.6,456,159.6,456,159.6z"/>
	<path class="st53" d="M456,159.9l-0.2-0.1c-0.1,0-0.1,0-0.1,0.1c0,0,0,0.1,0,0.1c0,0,0,0.1,0.1,0.1l0.2,0.1c0.1,0,0.1,0,0.1-0.1
		C456.1,160.1,456.1,160,456,159.9C456,160,456,160,456,159.9z"/>
	<path class="st44" d="M456,160.3l-0.2-0.1c-0.1,0-0.1,0-0.1,0.1c0,0,0,0.1,0,0.1c0,0,0,0.1,0.1,0.1l0.2,0.1c0.1,0,0.1,0,0.1-0.1
		C456.1,160.4,456.1,160.4,456,160.3C456,160.3,456,160.3,456,160.3z"/>
	<path class="st54" d="M456.5,159.5l-0.2-0.1c-0.1,0-0.1,0-0.1,0.1c0,0,0,0.1,0,0.1c0,0,0,0.1,0.1,0.1l0.2,0.1c0.1,0,0.1,0,0.1-0.1
		C456.6,159.6,456.6,159.6,456.5,159.5C456.5,159.5,456.5,159.5,456.5,159.5z"/>
	<path class="st44" d="M456.5,159.8l-0.2-0.1c-0.1,0-0.1,0-0.1,0.1c0,0,0,0.1,0,0.1c0,0,0,0.1,0.1,0.1l0.2,0.1c0.1,0,0.1,0,0.1-0.1
		C456.6,160,456.6,159.9,456.5,159.8C456.5,159.9,456.5,159.9,456.5,159.8z"/>
	<path class="st44" d="M456.5,160.2l-0.2-0.1c-0.1,0-0.1,0-0.1,0.1c0,0,0,0.1,0,0.1s0,0.1,0.1,0.1l0.2,0.1c0.1,0,0.1,0,0.1-0.1
		C456.6,160.3,456.6,160.3,456.5,160.2C456.5,160.2,456.5,160.2,456.5,160.2z"/>
	<path class="st44" d="M456.5,160.6l-0.2-0.1c-0.1,0-0.1,0-0.1,0.1c0,0,0,0.1,0,0.1c0,0,0,0.1,0.1,0.1l0.2,0.1c0.1,0,0.1,0,0.1-0.1
		C456.6,160.7,456.6,160.7,456.5,160.6C456.5,160.6,456.5,160.6,456.5,160.6z"/>
	
		<linearGradient id="SVGID_5_" gradientUnits="userSpaceOnUse" x1="717.013" y1="669.4432" x2="727.03" y2="669.4432" gradientTransform="matrix(1 0 0 -1 0 828)">
		<stop  offset="0" style="stop-color:#4CD9ED"/>
		<stop  offset="0.54" style="stop-color:#47A6EC"/>
		<stop  offset="1" style="stop-color:#437FEC"/>
	</linearGradient>
	<path class="st55" d="M455.4,158.9l-1.7-1c-0.1,0-0.1,0-0.1,0.1c0,0,0,0.1,0,0.1c0,0,0,0.1,0.1,0.1l1.7,1c0.1,0,0.1,0,0.1-0.1
		C455.5,159.1,455.4,159,455.4,158.9C455.4,159,455.4,159,455.4,158.9z"/>
	
		<linearGradient id="SVGID_6_" gradientUnits="userSpaceOnUse" x1="717.013" y1="668.9412" x2="727.03" y2="668.9412" gradientTransform="matrix(1 0 0 -1 0 828)">
		<stop  offset="0" style="stop-color:#4CD9ED"/>
		<stop  offset="0.54" style="stop-color:#47A6EC"/>
		<stop  offset="1" style="stop-color:#437FEC"/>
	</linearGradient>
	<path class="st56" d="M455.4,159.4l-1.7-1c-0.1,0-0.1,0-0.1,0.1c0,0,0,0.1,0,0.1c0,0,0,0.1,0.1,0.1l1.7,1c0.1,0,0.1,0,0.1-0.1
		C455.5,159.6,455.4,159.5,455.4,159.4C455.4,159.5,455.4,159.5,455.4,159.4z"/>
	
		<linearGradient id="SVGID_7_" gradientUnits="userSpaceOnUse" x1="717.013" y1="668.4374" x2="727.03" y2="668.4374" gradientTransform="matrix(1 0 0 -1 0 828)">
		<stop  offset="0" style="stop-color:#4CD9ED"/>
		<stop  offset="0.54" style="stop-color:#47A6EC"/>
		<stop  offset="1" style="stop-color:#437FEC"/>
	</linearGradient>
	<path class="st57" d="M455.4,159.9l-1.7-1c-0.1,0-0.1,0-0.1,0.1c0,0,0,0.1,0,0.1c0,0,0,0.1,0.1,0.1l1.7,1c0.1,0,0.1,0,0.1-0.1
		C455.5,160.1,455.4,160,455.4,159.9C455.4,160,455.4,160,455.4,159.9z"/>
	
		<linearGradient id="SVGID_8_" gradientUnits="userSpaceOnUse" x1="459.1485" y1="9768.8799" x2="459.1485" y2="9747.7402" gradientTransform="matrix(1 0 0 -1 0 828)">
		<stop  offset="0" style="stop-color:#4CD9ED"/>
		<stop  offset="0.18" style="stop-color:#4BD3ED"/>
		<stop  offset="0.42" style="stop-color:#4AC3ED"/>
		<stop  offset="0.68" style="stop-color:#47A9EC"/>
		<stop  offset="0.97" style="stop-color:#4384EC"/>
		<stop  offset="1" style="stop-color:#437FEC"/>
	</linearGradient>
	<path class="st58" d="M460.2,159.5l-2.1,1.2v-1.5l2.1-1.2V159.5z"/>
	<g>
		<g class="st3">
			<rect x="459.4" y="158.8" class="st50" width="0.1" height="0.1"/>
			<rect x="459.7" y="159" class="st50" width="0.1" height="0.1"/>
			<rect x="459.4" y="159.1" class="st50" width="0.1" height="0.1"/>
		</g>
		<g class="st3">
			<rect x="458.8" y="158.9" class="st50" width="0.1" height="0.1"/>
			<rect x="458.9" y="159.1" class="st50" width="0.1" height="0.1"/>
			<rect x="458.8" y="159" class="st50" width="0.1" height="0.1"/>
		</g>
		<g class="st3">
			<rect x="458.2" y="159.4" class="st50" width="0.1" height="0.1"/>
			<rect x="458.6" y="159.4" class="st50" width="0.1" height="0.1"/>
			<rect x="458.2" y="159.7" class="st50" width="0.1" height="0.1"/>
		</g>
	</g>
	<g>
		<g class="st3">
			<rect x="459.4" y="158.8" class="st50" width="0.1" height="0.1"/>
			<rect x="459.7" y="159" class="st50" width="0.1" height="0.1"/>
			<rect x="459.4" y="159.1" class="st50" width="0.1" height="0.1"/>
		</g>
		<g class="st3">
			<rect x="458.8" y="158.9" class="st50" width="0.1" height="0.1"/>
			<rect x="458.9" y="159.1" class="st50" width="0.1" height="0.1"/>
			<rect x="458.8" y="159" class="st50" width="0.1" height="0.1"/>
		</g>
		<g class="st3">
			<rect x="458.2" y="159.4" class="st50" width="0.1" height="0.1"/>
			<rect x="458.6" y="159.4" class="st50" width="0.1" height="0.1"/>
			<rect x="458.2" y="159.7" class="st50" width="0.1" height="0.1"/>
		</g>
	</g>
	
		<linearGradient id="SVGID_9_" gradientUnits="userSpaceOnUse" x1="866.89" y1="671.104" x2="889.385" y2="671.104" gradientTransform="matrix(1 0 0 -1 0 828)">
		<stop  offset="0" style="stop-color:#4CD9ED"/>
		<stop  offset="0.54" style="stop-color:#47A6EC"/>
		<stop  offset="1" style="stop-color:#437FEC"/>
	</linearGradient>
	<path class="st59" d="M457.2,157.7c0,0-0.1,0-0.1,0l-1.2-0.7c0,0,0,0,0,0c0,0,0,0,0-0.1c0,0,0,0,0-0.1c0,0,0,0,0,0l1.2-0.7
		c0,0,0.1,0,0.1,0c0,0,0.1,0,0.1,0l1.2,0.7c0,0,0,0,0,0c0,0,0,0,0,0.1c0,0,0,0,0,0.1c0,0,0,0,0,0l-1.2,0.7
		C457.3,157.7,457.2,157.7,457.2,157.7z M457.2,156.1c0,0-0.1,0-0.1,0l-1.2,0.7c0,0,0,0,0,0c0,0,0,0,0,0c0,0,0,0,0,0l1.2,0.7
		c0,0,0.1,0,0.1,0c0,0,0.1,0,0.1,0l1.2-0.7c0,0,0,0,0,0c0,0,0,0,0,0l-1.2-0.7C457.2,156.1,457.2,156.1,457.2,156.1L457.2,156.1z"/>
	
		<linearGradient id="SVGID_10_" gradientUnits="userSpaceOnUse" x1="456.8906" y1="671.5104" x2="457.4419" y2="670.7136" gradientTransform="matrix(1 0 0 -1 0 828)">
		<stop  offset="0" style="stop-color:#5FEFC0"/>
		<stop  offset="0.13" style="stop-color:#5CECC6"/>
		<stop  offset="1" style="stop-color:#4CD9ED"/>
	</linearGradient>
	<path class="st60" d="M456.4,156.9C456.4,156.9,456.4,156.9,456.4,156.9C456.3,156.9,456.3,156.9,456.4,156.9
		C456.3,156.9,456.3,156.9,456.4,156.9C456.4,156.9,456.4,156.9,456.4,156.9l0.7-0.5c0,0,0,0,0.1,0c0,0,0,0,0.1,0l0.7,0.4
		c0,0,0,0.1,0,0.1l-0.7,0.4c0,0,0,0-0.1,0c0,0,0,0-0.1,0L456.4,156.9z"/>
	<path class="st44" d="M408.4,169.3c-1-0.6-1-1.5,0-2.1l18.9,0.1c0.6-0.3,1.2-0.4,1.8-0.4c0.6,0,1.2,0.1,1.8,0.4l19-0.1
		c1,0.6,1,1.5,0,2.1L431,180.2c-0.6,0.3-1.2,0.4-1.8,0.4c-0.6,0-1.2-0.1-1.8-0.4L408.4,169.3z"/>
	<path class="st45" d="M450.5,164.9C450.5,165,450.5,165,450.5,164.9c0,0.1,0,0.1,0,0.1c0,0,0,0.1,0,0.1c0,0,0,0,0,0.1
		c0,0,0,0.1,0,0.1l-0.1,0.1c0,0-0.1,0.1-0.1,0.1l0,0c0,0-0.1,0.1-0.1,0.1c0,0-0.1,0-0.1,0.1l-0.1,0.1l-0.1,0.1l-0.1,0.1l-18.9,11
		l0,2.5l18.8-11l0,0l0.1,0l0.1-0.1l0.1-0.1l0.1-0.1l0.1-0.1c0,0,0,0,0,0c0,0,0,0,0-0.1c0,0,0,0,0,0c0,0,0,0,0,0s0,0,0,0
		c0,0,0-0.1,0.1-0.1v0c0,0,0-0.1,0-0.1l0.1-0.1c0,0,0,0,0,0c0,0,0-0.1,0-0.1c0,0,0,0,0,0v-0.1c0,0,0,0,0-0.1v0L450.5,164.9
		C450.5,164.9,450.5,164.9,450.5,164.9z"/>
	<path class="st46" d="M408.4,165.9c-0.2-0.1-0.4-0.2-0.5-0.4c-0.1-0.2-0.2-0.4-0.2-0.6l0,2.5c0,0.2,0.1,0.4,0.2,0.6
		c0.1,0.2,0.3,0.3,0.5,0.4l19,11l0-2.5L408.4,165.9z"/>
	<path class="st47" d="M449.8,163.8c1,0.6,1,1.5,0,2.1L431,176.9c-0.6,0.3-1.2,0.4-1.8,0.4c-0.6,0-1.2-0.1-1.8-0.4l-19-11
		c-1-0.6-1-1.5,0-2.1l18.9-11c0.6-0.3,1.2-0.4,1.8-0.4c0.6,0,1.2,0.1,1.8,0.4L449.8,163.8z"/>
	
		<linearGradient id="SVGID_11_" gradientUnits="userSpaceOnUse" x1="429.0884" y1="651.548" x2="429.0884" y2="676.419" gradientTransform="matrix(1 0 0 -1 0 828)">
		<stop  offset="0" style="stop-color:#F1F4FE"/>
		<stop  offset="0.58" style="stop-color:#F7F9FE"/>
		<stop  offset="1" style="stop-color:#FFFFFF"/>
	</linearGradient>
	<path class="st61" d="M408.4,165.1c-1-0.6-1-1.5,0-2.1l18.9-11c0.6-0.3,1.2-0.4,1.8-0.4c0.6,0,1.2,0.1,1.8,0.4l19,11
		c1,0.6,1,1.5,0,2.1L431,176c-0.6,0.3-1.2,0.4-1.8,0.4c-0.6,0-1.2-0.1-1.8-0.4L408.4,165.1z"/>
	
		<linearGradient id="SVGID_12_" gradientUnits="userSpaceOnUse" x1="410.257" y1="663.954" x2="447.905" y2="663.954" gradientTransform="matrix(1 0 0 -1 0 828)">
		<stop  offset="0" style="stop-color:#437FEC"/>
		<stop  offset="0.63" style="stop-color:#55C8CF"/>
		<stop  offset="1" style="stop-color:#5FEFC0"/>
	</linearGradient>
	<path class="st62" d="M429.1,175c-0.6,0-1.1-0.1-1.6-0.4l-16.6-9.6c-0.2-0.1-0.4-0.2-0.5-0.4c-0.1-0.2-0.2-0.4-0.2-0.6
		c0-0.2,0.1-0.4,0.2-0.6c0.1-0.2,0.3-0.3,0.5-0.4l16.5-9.6c0.5-0.3,1-0.4,1.6-0.4c0.6,0,1.1,0.1,1.6,0.4l16.6,9.6
		c0.2,0.1,0.4,0.2,0.5,0.4c0.1,0.2,0.2,0.4,0.2,0.6c0,0.2-0.1,0.4-0.2,0.6c-0.1,0.2-0.3,0.3-0.5,0.4l-16.5,9.6
		C430.3,174.8,429.7,175,429.1,175z M429,153.2c-0.5,0-1.1,0.1-1.5,0.4l-16.5,9.6c-0.2,0.1-0.3,0.2-0.5,0.3
		c-0.1,0.2-0.2,0.3-0.2,0.5s0.1,0.4,0.2,0.5c0.1,0.2,0.3,0.3,0.5,0.3l16.6,9.6c0.5,0.2,1,0.4,1.6,0.4c0.5,0,1.1-0.1,1.6-0.4
		l16.5-9.6c0.2-0.1,0.3-0.2,0.4-0.3c0.1-0.2,0.2-0.3,0.2-0.5c0-0.2-0.1-0.4-0.2-0.5c-0.1-0.2-0.3-0.3-0.4-0.4l-16.6-9.6
		C430.1,153.3,429.6,153.2,429,153.2L429,153.2z"/>
	
		<linearGradient id="SVGID_13_" gradientUnits="userSpaceOnUse" x1="398.402" y1="649.8394" x2="446.137" y2="649.8394" gradientTransform="matrix(1 0 0 -1 0 828)">
		<stop  offset="0" style="stop-color:#EFF1FE"/>
		<stop  offset="1" style="stop-color:#E4E7FB"/>
	</linearGradient>
	<path class="st63" d="M430.7,179.4c0.1,0,0.4-0.2,0.5-0.3v-2.4c-0.1,0-0.4,0.2-0.4,0.2l-0.1,0c-0.1,0-0.1,0.1-0.2,0.1l-0.1,0
		c0,0-0.1,0-0.1,0l-0.1,0l-0.1,0h-0.1c-0.1,0-0.2,0-0.3,0h-0.1h-0.2H429h-0.1h-0.1h-0.1l-0.1,0l-0.1,0l-0.1,0l-0.2,0l-0.1,0
		c-0.1,0-0.2-0.1-0.3-0.1c0,0-0.1,0-0.1-0.1l-0.1,0c-0.1,0-0.4-0.2-0.5-0.3v2.5c0.1,0,0.4,0.2,0.4,0.2l0.1,0l0.1,0h0
		c0.1,0,0.2,0.1,0.3,0.1h0l0.1,0c0.1,0,0.1,0,0.2,0h0h0.1l0.1,0h0.1h0.1h0.1h0.1h0.1c0,0,0.1,0,0.1,0h0.1h0.3h0h0.2h0.1
		c0.1,0,0.2,0,0.3,0h0l0.1,0l0.1,0l0.1,0l0.1,0h0h0L430.7,179.4L430.7,179.4z"/>
	<path class="st44" d="M440.1,156c-0.8-1.8-1.8-3.5-2.8-5.2c-0.1-0.2-0.4-0.3-0.7-0.1c-0.1,0.1-0.3,0.2-0.4,0.3
		c-0.4,0.5-0.5,1.1-0.3,1.4c1,1.7,2,3.5,2.8,5.3c1.3,2.8,1.7,4.1,1.8,5c0.1,0.7-0.1,1.6-1,2.1l-10.1,5.8c-0.1,0.1-0.2,0.1-0.3,0.2
		c0,0,0.1-0.1,0.1-0.1l-13.3-7.7l-0.2,0.2l-0.1,0.2l0,0.1l-0.1,0.1c0,0,0,0,0,0.1c0,0-0.1,0.2-0.1,0.3c0,0,0,0.1,0,0.1
		c0,0.1,0,0.1,0,0.2c0,0.1,0,0.2,0,0.3c0,0.1,0.1,0.2,0.2,0.2l13.3,7.7c0.2,0,0.4,0,0.6-0.1l11-6.3c0.7-0.4,1.2-1,1.4-1.7
		C442.3,163.3,442.5,161.2,440.1,156z"/>
	<path class="st46" d="M415.9,162.7c0,0-0.1,0.1-0.1,0.1l-0.1,0.1l-0.1,0.1l0,0.1l0,0.1l0,0.1c0,0,0,0,0,0.1c0,0,0,0,0,0.1
		c0,0,0,0,0,0.1c0,0,0,0,0,0.1c0,0,0,0.1,0,0.1c0,0,0,0.1,0,0.1c0,0,0,0.1,0,0.1c0,0.1,0,0.1,0,0.2c0,0.1,0,0.2,0,0.3
		c0,0.1,0.1,0.2,0.2,0.2l13.3,7.7c-0.1-0.1-0.1-0.1-0.2-0.2c0-0.1-0.1-0.2,0-0.3c0-0.1,0-0.1,0-0.2c0,0,0-0.1,0-0.1c0,0,0-0.1,0-0.1
		c0,0,0-0.1,0-0.1c0-0.1,0-0.1,0.1-0.1l0-0.1l0-0.1l0-0.1l0-0.1c0,0,0,0,0-0.1l0.1-0.1c0,0,0-0.1,0.1-0.1c0,0,0.1-0.1,0.2-0.2
		L415.9,162.7z"/>
	
		<linearGradient id="SVGID_14_" gradientUnits="userSpaceOnUse" x1="2340.8179" y1="-7406.6665" x2="2261.498" y2="-7070.8667" gradientTransform="matrix(1 0 0 -1 0 828)">
		<stop  offset="0" style="stop-color:#F1F4FE"/>
		<stop  offset="0.58" style="stop-color:#F7F9FE"/>
		<stop  offset="1" style="stop-color:#FFFFFF"/>
	</linearGradient>
	<path class="st64" d="M427.1,155.2c0,0.1,0,0.2,0,0.3l0,0.1l0,0.1c0,0,0,0.1,0,0.1c0,0,0,0.1,0,0.1l0,0.1c0,0.1,0,0.1-0.1,0.1
		l0,0.1l0,0.1l-0.1,0.1l-0.1,0.1c0,0-0.2,0.2-0.2,0.2l13.3,7.7l0.2-0.2l0.1-0.1l0.1-0.1l0-0.1c0,0,0,0,0-0.1l0-0.1c0,0,0,0,0-0.1
		c0,0,0,0,0-0.1l0-0.1l0-0.1l0-0.1c0,0,0-0.1,0-0.1c0,0,0-0.2,0-0.3L427.1,155.2z"/>
	<path class="st46" d="M440.4,163l-13.3-7.7c0-0.2,0-0.5,0-0.7c-0.1-1-0.4-2.2-1.8-5c-0.8-1.8-1.8-3.6-2.8-5.3l13.3,7.7
		c1,1.7,2,3.5,2.8,5.3c1.3,2.8,1.7,4.1,1.8,5C440.4,162.6,440.4,162.8,440.4,163z"/>
	<path class="st65" d="M436.6,150.3l-13.3-7.7c0,0,0.1,0,0.1-0.1l13.3,7.7C436.6,150.3,436.6,150.3,436.6,150.3z"/>
	<path class="st66" d="M436.7,150.2l-13.3-7.7c0,0,0.1,0,0.1,0L436.7,150.2L436.7,150.2z"/>
	<path class="st67" d="M436.8,150.2l-13.3-7.7h0.1L436.8,150.2L436.8,150.2L436.8,150.2z"/>
	<path class="st68" d="M436.8,150.2l-13.3-7.7c0,0,0,0,0.1,0L436.8,150.2L436.8,150.2z"/>
	<path class="st69" d="M436.9,150.2l-13.3-7.7h0.1L436.9,150.2L436.9,150.2z"/>
	<path class="st70" d="M437,150.2l-13.3-7.7h0L437,150.2L437,150.2z"/>
	<path class="st71" d="M437,150.2l-13.3-7.7h0L437,150.2L437,150.2z"/>
	<path class="st72" d="M437.1,150.2l-13.3-7.7h0L437.1,150.2L437.1,150.2z"/>
	<path class="st73" d="M437.1,150.2l-13.3-7.7h0L437.1,150.2L437.1,150.2L437.1,150.2z"/>
	<path class="st74" d="M437.1,150.2l-13.3-7.7L437.1,150.2z"/>
	<path class="st45" d="M436.6,150.3c0.3-0.2,0.6-0.1,0.7,0.1c1,1.7,2,3.4,2.8,5.2c2.5,5.2,2.2,7.3,1.7,8.5c-0.3,0.7-0.8,1.3-1.4,1.7
		l-11,6.3c-0.4,0.3-0.8,0.1-0.8-0.5c0-0.3,0.1-0.6,0.2-0.8c0.1-0.2,0.3-0.4,0.6-0.6l10.1-5.8c0.9-0.5,1-1.4,1-2.1
		c-0.1-1-0.4-2.2-1.8-5c-0.8-1.8-1.8-3.6-2.8-5.3c-0.2-0.3-0.1-1,0.3-1.4C436.3,150.5,436.4,150.4,436.6,150.3z"/>
	<path class="st75" d="M435.9,152.1l-13.3-7.7c-0.1-0.2-0.1-0.3-0.1-0.5l13.3,7.7C435.7,151.7,435.8,151.9,435.9,152.1L435.9,152.1z
		"/>
	<path class="st76" d="M435.8,151.5l-13.3-7.7c0,0,0-0.1,0-0.1l13.3,7.7C435.8,151.5,435.8,151.5,435.8,151.5L435.8,151.5z"/>
	<path class="st77" d="M435.8,151.4l-13.3-7.7c0,0,0-0.1,0-0.1L435.8,151.4L435.8,151.4L435.8,151.4z"/>
	<path class="st78" d="M435.8,151.3l-13.3-7.7c0,0,0-0.1,0-0.1L435.8,151.3C435.8,151.3,435.8,151.3,435.8,151.3z"/>
	<path class="st79" d="M435.8,151.2l-13.3-7.7l0-0.1L435.8,151.2L435.8,151.2L435.8,151.2z"/>
	<path class="st74" d="M435.9,151.2l-13.3-7.7c0,0,0,0,0-0.1L435.9,151.2C435.9,151.1,435.9,151.1,435.9,151.2L435.9,151.2z"/>
	<path class="st73" d="M435.9,151.1l-13.3-7.7l0-0.1L435.9,151.1C435.9,151,435.9,151.1,435.9,151.1z"/>
	<path class="st72" d="M435.9,151l-13.3-7.7c0,0,0,0,0-0.1L435.9,151L435.9,151L435.9,151z"/>
	<path class="st71" d="M436,151l-13.3-7.7c0,0,0,0,0-0.1L436,151L436,151z"/>
	<path class="st70" d="M436,150.9l-13.3-7.7l0-0.1L436,150.9L436,150.9L436,150.9z"/>
	<path class="st69" d="M436,150.8l-13.3-7.7l0-0.1L436,150.8L436,150.8z"/>
	<path class="st68" d="M436.1,150.7l-13.3-7.7l0.1-0.1L436.1,150.7L436.1,150.7z"/>
	<path class="st67" d="M436.1,150.7l-13.3-7.7c0,0,0,0,0-0.1c0,0,0,0,0,0L436.1,150.7L436.1,150.7
		C436.2,150.6,436.1,150.6,436.1,150.7L436.1,150.7z"/>
	<path class="st66" d="M436.2,150.6l-13.3-7.7l0.1-0.1L436.2,150.6C436.3,150.5,436.2,150.6,436.2,150.6L436.2,150.6z"/>
	<path class="st65" d="M436.3,150.5l-13.3-7.7c0.1-0.1,0.2-0.2,0.3-0.2l13.3,7.7C436.5,150.4,436.4,150.4,436.3,150.5L436.3,150.5z"
		/>
	
		<linearGradient id="SVGID_15_" gradientUnits="userSpaceOnUse" x1="16884.5" y1="718.3131" x2="26333.5996" y2="718.3131" gradientTransform="matrix(1 0 0 -1 0 828)">
		<stop  offset="0" style="stop-color:#F1F4FE"/>
		<stop  offset="0.58" style="stop-color:#F7F9FE"/>
		<stop  offset="1" style="stop-color:#FFFFFF"/>
	</linearGradient>
	<path class="st80" d="M409.6,95.3l-0.1-0.1l-0.1,0h0l-0.1-0.1l-0.1,0h0c0,0,0,0,0,0c0,0-0.1,0-0.1,0h0h0l-0.1,0l-0.2,0h0h-0.1h-0.1
		h-0.1h-0.2l-0.1,0c0,0-0.1,0-0.1,0c-0.1,0-0.1,0-0.2,0l-1.8,0.4c0.1,0,0.2,0,0.2,0h0.1l0.2,0h0.2h0.1c0.1,0,0.1,0,0.2,0
		c0.1,0,0.2,0,0.2,0h0c0.1,0,0.1,0,0.2,0.1l0.1,0c0.1,0,0.1,0.1,0.2,0.1c0,0,0,0,0,0c0.1,0,0.2,0.1,0.2,0.1l53.7,28.6l1.8-0.5
		L409.6,95.3z"/>
	<path class="st45" d="M463.9,130.3l-1,37.5c0,0.2-0.1,0.3-0.1,0.5v0c0,0.1-0.1,0.3-0.2,0.4c0,0,0,0,0,0c-0.1,0.1-0.1,0.2-0.2,0.4
		l0,0c-0.1,0.1-0.1,0.2-0.2,0.3l-0.1,0.1c0,0.1-0.1,0.1-0.2,0.2l-0.1,0.1c-0.1,0-0.1,0.1-0.2,0.1c0,0-0.1,0.1-0.1,0.1
		c-0.1,0-0.1,0.1-0.2,0.1c0,0-0.1,0-0.1,0.1c-0.1,0.1-0.2,0.1-0.4,0.1l1.8-0.5c0.1,0,0.2-0.1,0.4-0.1l0.1-0.1c0.1,0,0.1-0.1,0.2-0.1
		l0.1-0.1l0.2-0.1l0.1-0.1c0,0,0.1-0.1,0.1-0.1l0,0l0.1-0.1c0,0,0.1-0.1,0.1-0.1l0.1-0.1l0,0l0,0l0.1-0.2l0.1-0.1c0,0,0,0,0,0v0
		l0.1-0.2c0-0.1,0-0.1,0.1-0.2v0c0,0,0,0,0,0c0,0,0-0.1,0-0.1c0,0,0-0.1,0-0.2l0-0.2l1.1-37.5L463.9,130.3z"/>
	<path class="st44" d="M438.7,157.3c-0.8-1.8-1.8-3.6-2.8-5.3l-13.3-7.7c1,1.7,2,3.5,2.8,5.3c0.3,0.6,0.6,1.4,0.8,1.8l13.3,7.8
		C439.3,158.8,438.9,157.8,438.7,157.3z"/>
	<path class="st46" d="M461.5,124.4c1.8,1,2.8,3.7,2.4,5.9l-1,37.5c-0.5,2.2-2.3,3.2-4,2.2l-53.3-30.8c-1.8-1-2.8-3.7-2.4-5.9
		l0.6-35.3c0.5-2.2,2.3-3.2,4-2.2L461.5,124.4z"/>
	
		<linearGradient id="SVGID_16_" gradientUnits="userSpaceOnUse" x1="465.2791" y1="700.255" x2="400.9762" y2="694.6578" gradientTransform="matrix(1 0 0 -1 0 828)">
		<stop  offset="0" style="stop-color:#2C78F6"/>
		<stop  offset="1" style="stop-color:#00BFE7"/>
	</linearGradient>
	<path class="st81" d="M405.4,132.9c-0.3-0.2-0.8-1.2-0.6-2c0,0,0-31.7,0.2-32.5c0.4-1.9,2.8-1.1,2.8-1.1l52.9,28.1
		c1.5,1,2,1.7,2,4.4c0,0-0.3,30.8-0.7,32.2c-0.6,2.8-2.9,1.9-2.9,1.9L405.4,132.9z"/>
	
		<linearGradient id="SVGID_17_" gradientUnits="userSpaceOnUse" x1="462.2574" y1="703.8705" x2="465.6464" y2="697.9965" gradientTransform="matrix(1 0 0 -1 0 828)">
		<stop  offset="0" style="stop-color:#FFFFFF"/>
		<stop  offset="0.73" style="stop-color:#ECEEFC"/>
		<stop  offset="1" style="stop-color:#E4E7FB"/>
	</linearGradient>
	<path class="st82" d="M465.8,128.9c0-0.1,0-0.1,0-0.2s0-0.1,0-0.2v0c0-0.1,0-0.1,0-0.2s0-0.1,0-0.2c0-0.1,0,0,0,0v0
		c0-0.1,0-0.2,0-0.3c0,0,0-0.1,0-0.1c0,0,0-0.1,0-0.1l0-0.1c0-0.1,0-0.1,0-0.2l0-0.1v0c0,0,0-0.1,0-0.1c0,0-0.1-0.2-0.1-0.3
		c0,0,0,0,0-0.1c0,0,0-0.1,0-0.1c0-0.1-0.1-0.2-0.1-0.3l-0.1-0.2c0-0.1-0.1-0.2-0.1-0.3c0,0,0-0.1,0-0.1l0,0
		c-0.1-0.1-0.1-0.3-0.2-0.4l0,0c-0.1-0.1-0.1-0.2-0.2-0.3c0,0,0,0,0,0l-0.1,0c0,0-0.1-0.1-0.1-0.1l-0.1-0.1l0,0l0,0l-0.2-0.2
		l-0.1-0.1l0,0l0,0l-0.1-0.1l-0.1-0.1h0l0,0l-0.1-0.1l-0.1-0.1l-1.8,0.5c0.1,0.1,0.2,0.1,0.3,0.2l0,0c0.1,0.1,0.2,0.1,0.3,0.2
		c0,0,0,0,0,0c0.1,0.1,0.2,0.2,0.3,0.2l0,0c0.1,0.1,0.1,0.2,0.2,0.2c0,0,0,0,0.1,0.1c0.1,0.1,0.1,0.2,0.2,0.3l0,0
		c0.1,0.1,0.2,0.3,0.2,0.4c0,0,0,0.1,0.1,0.1c0.1,0.1,0.1,0.2,0.1,0.3l0.1,0.2c0,0.1,0.1,0.2,0.1,0.3s0,0.1,0.1,0.2
		c0,0.1,0.1,0.2,0.1,0.3c0,0,0,0.1,0,0.2c0,0,0,0.1,0,0.1c0,0.1,0,0.2,0.1,0.3c0,0,0,0.1,0,0.1c0,0.1,0,0.2,0.1,0.4c0,0,0,0,0,0
		c0,0.1,0,0.3,0,0.4v0c0,0.1,0,0.3,0,0.4v0c0,0.1,0,0.3,0,0.4c0,0,0,0,0,0c0,0.1,0,0.3-0.1,0.4l1.8-0.5l0-0.2c0-0.1,0-0.1,0-0.2
		v-0.1c0,0,0,0,0,0v-0.1c0-0.1,0-0.1,0-0.2C465.7,129,465.7,129,465.8,128.9L465.8,128.9L465.8,128.9z"/>
	
		<linearGradient id="SVGID_18_" gradientUnits="userSpaceOnUse" x1="9649.9199" y1="664.5265" x2="7997.29" y2="664.5265" gradientTransform="matrix(1 0 0 -1 0 828)">
		<stop  offset="0" style="stop-color:#F1F4FE"/>
		<stop  offset="0.58" style="stop-color:#F7F9FE"/>
		<stop  offset="1" style="stop-color:#FFFFFF"/>
	</linearGradient>
	<path class="st83" d="M429.1,170.5l-13.3-7.7c0.1-0.1,0.2-0.2,0.3-0.2l10.1-5.8c0.2-0.1,0.3-0.2,0.4-0.3l13.3,7.7
		c-0.1,0.1-0.3,0.2-0.4,0.3l-10.1,5.8C429.3,170.4,429.2,170.4,429.1,170.5L429.1,170.5z"/>
	<g>
		<g>
			<g>
				<g>
					<path class="st84" d="M444.3,123.7c-0.3-0.2-0.7-0.3-1.1-0.2c-1.1,0.3-1.5,1.6-1.8,2.9c-0.1,0.4-0.2,0.8-0.3,1.1
						c0,0.1-0.1,0.3-0.1,0.4c-0.4,1.1-0.7,2.3-1.7,2.6c-0.6,0.1-1.3,0-1.9-0.4c-0.2-0.1-0.4-0.3-0.6-0.4c-0.8-0.7-1.5-1.6-1.9-2.6
						c-0.4-1.1-0.8-2.2-1.1-3.3c-0.1-0.3-0.2-0.6-0.2-0.8c-0.1-0.2-0.1-0.3-0.2-0.6c-0.6-2.2-1.4-4.9-3.1-6.6
						c-0.2-0.2-0.5-0.4-0.8-0.6c-2.4-1.4-3.9,1.9-4.2,2.6c-0.3,0.7-0.9,1.8-1.7,2.1c-0.8,0.3-1.7,0.1-2.6-0.4
						c-1.6-0.9-3.4-2.8-4.9-4.5c-0.4-0.4-0.8-0.8-1.1-1.2c-0.4-0.4-0.8-0.8-1.3-1.1c-0.4-0.3-0.9-0.4-1.4-0.5
						c-2.7-0.1-4.3,3.9-4.5,4.3l0.1,0.1c0.7-1.4,2.7-5.1,5.8-3.3c0.5,0.3,0.9,0.6,1.3,1.1c1.7,1.8,3.9,4.4,6,5.6
						c0.9,0.5,1.8,0.7,2.5,0.4c0.8-0.3,1.3-1.2,1.6-2.1c0.7-1.6,2.2-3.9,4.3-2.7c0.3,0.2,0.6,0.4,0.8,0.6c1.9,1.9,2.7,4.9,3.3,7.3
						c0.3,1.4,0.8,2.8,1.3,4.1c0.5,1.2,1.3,2.3,2.5,2.9c0.5,0.4,1.2,0.5,1.8,0.4c1.1-0.3,1.4-1.8,1.8-3c0.5-1.5,0.6-3.7,2.1-4.1
						c0.4-0.1,0.8,0,1.1,0.2c1,0.6,2,2.1,2.7,3.3c1.2,2,2.3,4.1,3.4,6.1c1.8,3.3,3.7,6.7,5.6,9.9c0.2,0.3,0.5,0.9,0.8,1.5l0.6,0.3
						c-0.4-0.6-0.8-1.2-1.2-1.9c-0.1-0.2-0.2-0.4-0.3-0.6c-2-3.3-3.8-6.7-5.6-10l-0.2-0.3c-1.1-1.9-2.1-3.9-3.2-5.7
						C446.1,125.7,445.2,124.3,444.3,123.7L444.3,123.7z"/>
				</g>
				<g>
					<path class="st85" d="M444.3,126.8c-0.3-0.3-0.8-0.4-1.2-0.3c-1.2,0.3-1.5,2.2-1.9,3.9c-0.1,0.5-0.2,1-0.3,1.4l-0.1,0.6
						c-0.3,1.4-0.7,3-1.7,3.3c-0.6,0.1-1.2,0-1.8-0.5c-0.2-0.2-0.4-0.3-0.6-0.5c-0.8-0.9-1.4-1.9-1.8-3.2c-0.4-1.4-0.8-2.8-1-4.2
						c-0.1-0.4-0.2-0.7-0.2-1.1c0-0.2-0.1-0.5-0.2-0.7c-0.6-2.9-1.4-6.5-3.3-8.8c-0.3-0.3-0.5-0.6-0.9-0.8c-2.5-1.9-4,2.5-4.3,3.5
						c-0.3,1-0.8,2.2-1.6,2.6c-0.7,0.4-1.6,0.1-2.5-0.6c-1.6-1.2-3.3-3.6-4.8-5.7c-0.4-0.6-0.8-1.1-1.1-1.5c-0.4-0.5-0.9-1-1.4-1.4
						c-0.5-0.4-1-0.6-1.5-0.6c-2.9-0.2-4.5,5.4-4.6,5.7l0.2,0.2v0c0.2-0.5,1.8-5.7,4.5-5.5c0.5,0,1,0.2,1.4,0.6
						c0.5,0.4,0.9,0.8,1.3,1.4c0.4,0.5,0.7,1,1.1,1.5c1.5,2.1,3.3,4.5,4.9,5.8c0.9,0.7,1.8,1,2.6,0.6c0.8-0.4,1.4-1.7,1.7-2.7
						c0.3-1,1.8-5.2,4.2-3.4c0.3,0.2,0.6,0.5,0.8,0.8c1.8,2.2,2.5,5.7,3.1,8.6c0.1,0.2,0.1,0.5,0.2,0.7c0.1,0.4,0.1,0.7,0.2,1.1
						c0.3,1.4,0.6,2.9,1,4.3c0.4,1.3,1.1,2.5,2,3.4c0.2,0.2,0.4,0.4,0.6,0.5c0.5,0.5,1.2,0.6,1.9,0.5c1-0.3,1.4-1.9,1.7-3.4
						c0-0.2,0.1-0.4,0.1-0.6c0.1-0.5,0.2-0.9,0.3-1.4c0.3-1.7,0.7-3.5,1.8-3.8c0.4-0.1,0.7,0,1.1,0.3c0.9,0.7,1.9,2.6,2.6,4.2
						c1.1,2.5,2.1,5,3.2,7.4l0.2,0.5c1.8,4.2,3.7,8.6,5.6,12.9c0.1,0.2,0.2,0.4,0.3,0.7c0.3,0.9,0.7,1.7,1.2,2.5
						c0.1,0.2,0.2,0.3,0.3,0.4v-0.3c-0.4-0.3-1-1.8-1.3-2.7c-0.1-0.3-0.2-0.6-0.3-0.7c-2-4.3-3.8-8.6-5.6-12.9l-0.2-0.5
						c-1.1-2.5-2.1-5-3.2-7.4C446.3,129.5,445.3,127.6,444.3,126.8L444.3,126.8z"/>
				</g>
			</g>
		</g>
	</g>
	<g class="st86">
		<ellipse class="st87" cx="514.5" cy="112.5" rx="50.5" ry="29.5"/>
	</g>
	<path class="st88" d="M512.5,17.3c32.6,0,58.9,26.4,58.9,58.9c0,32.6-26.4,58.9-58.9,58.9c-32.6,0-58.9-26.4-58.9-58.9
		C453.5,43.7,479.9,17.3,512.5,17.3z"/>
	<path class="st45" d="M480,27.1c-0.1,0.1-0.1,0.3-0.2,0.4c-0.1,0.1-0.1,0.2-0.3,0.2C479.6,27.5,479.8,27.3,480,27.1L480,27.1
		c-0.5,0.3-1,0.6-1.4,0.9c-0.1,0.1-0.1,0.2-0.1,0.3c-0.1,0-0.2,0-0.3,0c-2.2,1.5-4.2,3.2-6.1,5c0.3-0.1,0.6-0.2,0.9-0.4
		c0,0.4,0.7-0.1,1-0.3c0.1-0.1,0.3-0.4,0.2-0.5c-0.1-0.1-0.5,0.4-0.7,0.4c0.4-0.8,1.1-1.2,1.9-1.7c0.5-0.3,1.7-1.3,2.3-1.4
		c-0.1,0.1-0.3,0.2-0.2,0.3c0.2,0.2-0.4,0.2-0.4,0.3c-0.3,0.3-0.5,0.5-0.9,0.7c-0.5,0.2-1.7,0.5-1.7,1.2c0.4,0.1,0.6-0.3,1-0.1
		c-0.3,0.2-0.4,0.5-0.5,0.9c0.3,0,0.4,0.1,0.6,0.2c0.2,0,0.2,0.8,0.5,0.3c0.3-0.4,0.5-1,0.5-1.5c0.2,0.2,0.2,0.5,0.1,0.7
		c0.3,0.1,1.3-0.8,1.5-1.1c0.3-0.4,0.6-1.4,1.1-1.4c-0.4,0.7,0.4,0.2,0.6,0.1c0.4-0.3,0.8-0.5,1.1-0.7c0.6-0.4,0.9-0.4,0.9-1.2
		c0-0.3,0.9-0.6,1.1-0.8c0.3-0.3,0.5-0.6,0.9-0.9c0.1-0.1,0.7-0.3,0.7-0.4c0-0.3-0.8-0.1-1,0.1c-0.3,0.3-1.2,0.5-1.6,0.6
		c-0.1,0.1-0.6,0.3-0.6,0.2c-0.2-0.3-0.4-0.2-0.6-0.1c-0.1,0.1-0.3,0.2-0.4,0.3C480.1,27,480,27.1,480,27.1z"/>
	<path class="st45" d="M482,30.2c-0.1,0.5,0.1,1,0.2,1.5c0.1,0.3,0.8,0.3,0.9-0.1c0.1-0.3,0.6-0.5,0.4-0.8c-0.1-0.2-0.9-0.3-1.1-0.2
		C482.5,30.3,482.3,30,482,30.2z"/>
	<path class="st45" d="M501.7,27.8c-1.2,0.1-2.9,0.1-4,0.5c0-0.1,0-0.1,0-0.2c-0.3-0.2-0.9-0.5-1.2-1.1c-0.1-0.2-0.9-0.2-0.8-0.4
		c0-0.3-0.8-0.2-1-0.2c0,0.1-0.1,0.3,0,0.4c-0.1-0.6-0.8-0.4-1.2-0.5c0,0.1-0.1,0.2-0.1,0.3c-0.3-0.2-0.4,0.4-0.4,0.6
		c-0.1-0.2-0.2-0.5-0.4-0.6c-0.3-0.2-0.4,0.2-0.6,0.3c0,0.1,0,0.2,0,0.3c0.1,0.1,0.1,0.1,0.1,0.2c0-0.1-0.1-0.1-0.1-0.2
		c-0.3-0.1-0.5-0.3-0.7-0.1c-1-0.9-1,1.9-0.9,2.4c-0.1,0-0.3-0.1-0.4-0.1c0.1-0.4,0.4-1.2,0.1-1.6c-0.1-0.2-0.5-0.4-0.6-0.1
		c-0.2,0.4,0.2,0.3,0.3,0.5c-0.6-0.2-0.6,0.2-0.9,0.5c-0.3,0.3-0.5,0.1-0.3,0.8c-0.4-0.2-0.4,0.5-0.4,0.8c0.5-0.1,1.1-0.3,1.6-0.3
		c-0.3,0.3-1.1,0.5-1.5,0.7c-0.6,0.2-1.1,0.5-1.7,0.9c-0.5,0.3-0.5,0.6-1.1,0.8c-0.5,0.2-1,0.5-1.4,0.9c-0.8,0.6-1.2,1.3-1.7,2.1
		c-0.2,0.2-0.6,1.1-0.7,1.4c0,0,0.1,0.8-0.1,0.7c0.1,0.1,0.7-0.2,0.9-0.2c-0.4,1,1.1,0.8,1.4,0.2c0.2-0.4,0.9-0.9,1.2-1.2
		c0.9-0.8,1.9-1.4,2.8-2.1c0.6-0.5,1.2-0.8,2.1-0.9c0.5-0.1,2-0.5,2.3-0.9c0.4-0.5,1.6-0.8,2.2-0.9c1-0.2,2.1-0.4,3-0.6
		c1-0.3,2.1-0.4,2.7-1.2c0.6-0.7,2-0.5,2.6-1.1c0.5,0.4,0.9-0.4,1.4-0.4c0.3,0,1.5-0.2,1.5-0.4C504.5,27.5,503.1,27.7,501.7,27.8z"
		/>
	<path class="st45" d="M501,31.9c-0.6-0.1-1,0.2-1.6,0.2c-0.4-0.1-1.1,0.1-1.4,0.4c0-0.1,0-0.2,0-0.3c-0.3-0.2-1.1-0.3-1.4,0.1
		c-0.1,0.1-0.9,0.5-0.4,0.6c-0.2,0-0.3,0.1-0.3,0.3c0,0.3,0.5,0.2,0.6,0.3c-0.2,0-0.7,0.2-0.5,0.5c0.1,0.2,0.8,0,1.1,0
		c-0.2,0.6,1.1,0.2,1.6,0.1c0.6-0.2,1.4-0.4,2.1-0.6c0.4-0.1,0.6-0.6,0.8-0.7C501.9,32.6,501.6,31.6,501,31.9z"/>
	<path class="st45" d="M483.6,29.7c-1.1-0.2-0.7,0.6-0.1,1C484.2,31,484.3,29.2,483.6,29.7z"/>
	
		<radialGradient id="SVGID_19_" cx="-28.5122" cy="1618.4756" r="1" gradientTransform="matrix(59.4483 0 0 -59.4483 2206.7268 96292.5391)" gradientUnits="userSpaceOnUse">
		<stop  offset="0.4759" style="stop-color:#04B3EC"/>
		<stop  offset="0.7548" style="stop-color:#04B1EA"/>
		<stop  offset="0.8754" style="stop-color:#04ACE3"/>
		<stop  offset="0.9652" style="stop-color:#04A3D6"/>
		<stop  offset="1" style="stop-color:#049DCF"/>
	</radialGradient>
	<path class="st89" d="M552.7,113.2c-0.4,0.1-0.6,0.4-0.9,0.6c-0.2,0.2-0.5,0.3-0.8,0.5c-0.5,0.5-1.1,1-1.8,1.2
		c-0.9,0.4-1.6,0.4-2.4,1c-0.3,0.3-0.4,0.3-0.6,0.7c-0.3,0.5-0.2,0.7-0.6,1c-0.5,0.4-1.1,0.6-1.6,1.1c0.1-0.1-0.4,0.8-0.4,0.7
		c0.1,0.7,1,0.4,1.5,0.3c1.6-0.4,2.4-1.5,3.7-2.2c0.4-0.3,0.9-0.6,1.2-1c0.2-0.2,0.4-0.3,0.5-0.5c0.3-0.3,0.6-0.4,0.8-0.6
		c0.2-0.2,0.2-0.5,0.5-0.5c0.4-0.1,0.6-0.4,0.7-0.8c0.1-0.3,0.4-0.6,0.5-1C553.2,113.6,553.2,112.9,552.7,113.2z"/>
	<path class="st45" d="M486.5,30.6c0.1-0.5-0.4-0.3-0.3-0.8c0-0.4-0.6-0.4-0.8-0.2c-0.2,0.5,0,0.9-0.1,1.2c-0.4-0.3-0.5,0.5-0.7,0.7
		C485.1,31.6,486.5,31,486.5,30.6z"/>
	<path class="st45" d="M460.9,85.5c-0.1-0.6-0.4-0.7-0.3,0c0,0.3-0.3,1.2,0.2,1C460.8,86.1,461,86,460.9,85.5z"/>
	<path class="st45" d="M461.6,91.4c0.1-0.9,0.2-1.9-0.1-2.9c-0.1-0.4-0.3-0.7-0.2-1.2c0-0.3-0.1-1.5-0.5-0.8
		c-0.1,0.8,0.4,1.8,0.5,2.5C461.4,89.5,461,91.4,461.6,91.4z"/>
	
		<radialGradient id="SVGID_20_" cx="-28.5122" cy="1618.4756" r="1" gradientTransform="matrix(59.4495 0 0 -59.4482 2206.7686 96292.3828)" gradientUnits="userSpaceOnUse">
		<stop  offset="0.4759" style="stop-color:#04B3EC"/>
		<stop  offset="0.7548" style="stop-color:#04B1EA"/>
		<stop  offset="0.8754" style="stop-color:#04ACE3"/>
		<stop  offset="0.9652" style="stop-color:#04A3D6"/>
		<stop  offset="1" style="stop-color:#049DCF"/>
	</radialGradient>
	<path class="st90" d="M462.1,89.9c0,0.1,0.2,1.1,0.4,0.6C462.6,90.3,462.3,89.8,462.1,89.9z"/>
	<path class="st45" d="M471.2,34.3c0,0.1-0.1,0.1-0.1,0.2c0.1-0.1,0.2,0,0.4-0.1c-0.4,0.3-1,0.8-1.1,1.2c-0.2,0.4-0.9,0.7-1.2,1.1
		c-0.6,0.9-1.1,2-1.9,2.8c-0.4,0.4-0.8,0.8-1.2,1.1c-0.6,0.5-0.6,0.9-1.1,1.5c-0.3,0.4-0.4,0.6-0.6,1c-0.2,0.6-0.8,0.8-1,1.4
		c0-0.1,0.1-0.4,0.1-0.5c0.2-0.3,0.4-0.3,0.5-0.6c0.2-0.3,0.2-0.5,0.3-0.8c0.1-0.2,0.2-0.4,0.2-0.6c-6.9,9.7-11,21.5-11,34.2
		c0,0.1,0,0.1,0,0.2c0.1,0.2,0.3,0.3,0.4,0.3c0.3-0.1,0.4-1.4,0.4-1.7c0.1-1.5-0.2-3,0-4.4c0.1-0.7,0.2-2.3,0.8-2.7
		c0.3-0.2,0.4-0.6,0.5-1c0.1-0.4,0.4-0.6,0.5-0.9c0.1-0.4,0.4-0.5,0.5-0.8c0.2-0.3,0.2-0.5,0.3-0.8c0.5-0.7,0.3-1.6,0.5-2.3
		c0.2-0.6,0.7-1.2,0.9-1.9c0.1-0.6,0.7-1.3,0.9-2c0.2-0.5,0.3-0.5,0.7-0.9c0.3-0.2,0.4-0.6,0.6-0.8c0.2-0.2,1.6-1.2,0.8-1.6
		c0.4-0.6,0.5-1.2,1-1.8c0.4-0.5,0.9-0.9,1.5-1.1c-0.2,0.3-0.6,1.5,0.2,1.3c0.2-0.1,0.5-0.8,0.6-0.9c0.5-0.6,1.5-0.9,1.9-1.5
		c0.3-0.4,0.7-0.6,0.9-0.9c0.1-0.2,0.2-0.6,0.1-0.8c-0.1-0.1,0.2-0.4,0.2-0.5c-0.1-0.7-0.4-0.2-0.6,0.2c-0.2,0.3-0.4,0.6-0.7,0.9
		c0.3-0.3,0.4-0.6-0.1-0.7c-0.3,0,0.1-0.9-0.3-0.4c0.2-0.6,0.6-1,0.9-1.6c0.4-0.7,0-1.3-0.7-0.8c0.3-0.4,0.8-1.4,1.4-1.2
		c-0.4,0.4,0.2,1.6,0.8,1.1c0.3-0.3,0.1-1.1-0.3-1.2c0-0.1,0-0.1,0-0.1c0.7-0.1,1.7,0,2.1-0.6c0.3-0.4,0.8-1,1.2-1
		c-0.6,0.9-1.3,1.7-1.9,2.5c-0.3,0.4-0.9,0.9-1,1.5c-0.3,1.2,1-0.1,1.4,0.5c-0.5-0.2-0.9,1-0.4,1c0.3,0.1,0.8-0.6,0.9-0.9
		c-0.2,0.9,0.5,0.9,0.9,0.2c0.2-0.3,0.9-1.5,0.4-1.7c-0.1,0.1-0.1,0.1-0.1,0.1c0.1-0.1,0.1-0.1,0.1-0.1c0.4-0.2,0.5-1,0.5-1.4
		c0-0.9-0.5-0.3-0.9-0.1c0.4-0.2,0.3-0.5,0.2-0.7c-0.2-0.4,0.4-0.3,0.4-0.4c0.3-0.3,0.7-1,0.5-1.4c0.4,0.4,0.4-0.3,0.5-0.5
		c0.1-0.3,0.4-0.6,0.5-1c0.2-0.4-0.3-0.9,0-1.2c0.3-0.5-0.3-0.8-0.4-1.2c-0.1-0.6,0.2-0.6,0.5-1.1c0.2-0.3,0.3-0.8,0.4-1.1
		c0.2-0.4,0.5-0.8,0.6-1.2c0.1-0.4,0.6-0.8,0.6-1.3c-0.4,0.1-1.1,0.8-1.4,1.1c-0.3,0.5-1,1-1.5,1.3c0.1-0.6,0.7-1.2,1.1-1.7
		c0.2,0.2,0.6,0.1,0.7-0.2c0.1-0.2-0.2-0.2-0.1-0.5c-0.1,0-0.2-0.1-0.3,0c0.2-0.3,0.2-0.6,0.3-0.9c-0.5-0.2-0.2,0.2-0.4,0.3
		c-0.3,0.1-0.6,0-0.9,0.1c-0.2,0.1-0.4,0.1-0.6,0.1c-0.3,0.3-0.6,0.6-1,1C471.1,34.4,471.1,34.4,471.2,34.3z"/>
	<path class="st45" d="M460.2,85.2c0,0.1-0.1,0.1-0.1,0.2C459.9,86.4,461.1,85.4,460.2,85.2z"/>
	<path class="st45" d="M458.3,84c0,0.2-0.1,1.3,0.5,0.9c0.3-0.2,0.6,0.5,0.8,0.1C459.8,84.7,458.7,83.4,458.3,84z"/>
	<path class="st45" d="M460.1,84.4c-0.2,0.3,0.1,0.7,0.2,0.8C460.3,85,460.3,84.1,460.1,84.4z"/>
	<path class="st45" d="M455.7,79.8c0.1,0,0.2-0.1,0.2-0.1c0.1,0,0.3,0.3,0.3,0.3c0.1-0.3,0.1-0.8-0.2-0.6c0-0.4-0.3-0.9-0.4-1.3
		c0,0,0,0,0-0.1c0-0.1-0.1-0.2-0.1-0.3c0-0.4-0.1-1.5-0.5-1.6c0,0.2,0,0.3-0.2,0.3c-0.4,0-0.2,0.1-0.3,0.3c-0.2,0.4,0,0.6,0,1.1
		c0,0.4,0.3,0.7,0.3,0.1c0-0.4-0.2-0.7-0.1-1.1c0.1-0.1,0.2-0.1,0.3-0.2c0,0.4,0.4,0.8,0.3,1.3c0.2,0.6,0.1,1,0.4,1.5
		C455.8,79.6,455.5,79.8,455.7,79.8z"/>
	<path class="st45" d="M454.7,74.5c-0.5,0.2-0.3,1.1,0.2,0.6c0,0.3,0,0.6-0.1,0.9C455.3,75.9,455.4,74.1,454.7,74.5z"/>
	<path class="st45" d="M456.5,84.3c0.1,0.1,0.1,0.3,0.1,0.3c0.2,0.1,0.1,0.2,0.3,0.3c-0.2-0.6,0.4-0.3,0.5-0.6
		c0.1-0.3,0.5,0.4,0.6,0.4c0.1-0.8-0.1-1.5-0.6-2.1c-0.2-0.3-0.4-0.3-0.8-0.5l-0.1,0.1c-0.1,0.2-0.1-0.1-0.2-0.2
		c-0.2-0.1-0.2-0.6-0.4-0.1c-0.2,0.4,0.2,0.6,0.1,1c-0.1,0.3-0.8,0.3-0.4,0.8c0.3,0.4,0.3,0.3,0.6,0.5
		C456.3,84.3,456.4,84.2,456.5,84.3z"/>
	<path class="st45" d="M480.9,124.7c-0.2-0.4-0.2-0.7-0.4-1.1c0.1,0.1,0.2,0.1,0.3,0.1c-0.1-0.2-0.3-0.2-0.4-0.5
		c-0.2-0.2-0.2-0.5-0.3-0.8c-0.2-0.4-0.6-1.1-0.4-1.5c0.3-0.4,0.2-1,0.4-1.5c0.3-0.6,0.4-1,0.4-1.8c0-0.5-0.4-1-0.6-1.5
		c-0.2-0.3-0.4-0.6-0.4-1c-0.1-0.4-0.8-0.5-1.1-0.7c-1-0.7-1.5-1.9-2.5-2.6c-0.3-0.2-0.8-0.4-1.1-0.5c-0.4-0.2-0.6-0.4-1-0.5
		c-0.2-0.1-0.5,0.2-0.5-0.1c-0.1-0.2-0.1-0.3-0.2-0.4c-0.1-0.2-0.3-0.5-0.5-0.6c-0.4-0.2-0.5-0.6-0.9-0.8c-0.1-0.1-1-0.5-1-0.5
		c-0.3-0.4-0.3-0.5-0.8-0.7c-0.3-0.2-0.8-0.5-0.8,0.2c-0.1,0-0.1,0-0.1,0c0.3-0.9,0.6-2.2-0.3-2.9c-0.4-0.4-0.5-1.3-0.8-1.8
		s-0.6-1.4-1-1.7c-0.5-0.4-1-1.1-1.7-1.3c-0.8-0.2-1-0.6-1.4-1.2c-0.2-0.3-0.2,0-0.3-0.4c0-0.1-0.1-0.1-0.1-0.2
		c-0.1-0.1-0.1-0.2-0.2-0.3c-0.1-0.3-0.3-0.5-0.4-0.8c-0.2-0.3-0.4-0.5-0.6-0.7c-0.3-0.2-0.2-0.8-0.4-1c0,0,0-0.9,0.1-1
		c0.3-0.8-0.2-0.4-0.6-0.4c-0.2,0-0.8-0.2-0.8-0.3c0-0.2,0-0.5-0.3-0.4c-0.3,0.1-0.1,0.7-0.2,1c-0.2-0.1-0.2-0.4-0.4-0.5
		c-0.3-0.2-0.7-0.2-0.9-0.4c-0.1-0.1-0.2-0.6-0.3-0.9c-0.1-0.2-0.4-0.1-0.4-0.5c0.2,0.1,0.4,0.1,0.5,0.1c0.1-0.6-0.3-0.6-0.6-0.9
		c0,0.1,0,0.1,0,0.2c-0.1,0-0.1,0-0.1,0c0.1-0.3-0.3-0.7-0.3-0.4c0,0.4,0,0.9,0.1,1.3c-0.6,0,0.2-1.5-0.5-1.5
		c-0.4,0-0.2,0.6-0.5,0.8c-0.2,0.1-0.5,0.1-0.5,0.4c-0.1,0.3-0.1,0.8-0.2,1.2c4.2,13.6,13.1,25.1,25,32.5c0.1-0.1,0.1-0.1,0.1-0.1
		c0.1-0.3-0.2-0.4-0.2-0.8C480.9,125.1,481,124.8,480.9,124.7z"/>
	<path class="st45" d="M456.1,81.4c0.3-0.1,0.3-1.1,0-1C456.1,80.4,455.6,81.6,456.1,81.4z"/>
	<path class="st45" d="M454.4,83.1c0,0.2,0,0.4,0,0.6c0.1,0.2,0.8,1.1,0.9,0.4C455.4,83.4,455,83.2,454.4,83.1z"/>
	<path class="st45" d="M454.7,79.8c-0.3-0.2-0.3-0.8-0.5-1c-0.1-0.2-0.4-0.4-0.6-0.5c0,0.6,0.1,1.1,0.1,1.7c0.2,0.2,0.5,0.3,0.6,0.5
		c0,0,0.4,1.2,0.4,1.1c-0.4,1,1.6,1.1,1.2,0C455.6,80.9,455.2,80.1,454.7,79.8z"/>
	<path class="st45" d="M502.6,41.3c0.4-0.6,0.6-1.2,0.5-1.9c0.4-0.3,0.6-0.6,0.8-1c0.1,0.1,0.3,0.1,0.4,0.1v0.1
		c-0.3,0.1-0.3,0.3-0.2,0.6c0.5-0.1,0.9-0.3,1.1-0.9c0.1,0.4,0.1,0.9,0.2,1.4c-1.3-0.1-1.8,0.2-1.1,0.9v0.3c-1,0.4-1.5,0.8-0.2,1
		c0.1,0.1,0.2,0.2,0.3,0.2c-1.1,0.6-2.4,1.5-0.9,1.9c1-0.5,2.1-0.8,3.2-0.9c0.2,0.1,0.4,0.1,0.6,0.1l0.1-0.2
		c1.5,0.1,2.6-0.3,2.1-1.5c0.9-1,0.7-1.6-0.7-1.9c-0.2-0.3-0.3-0.6-0.4-0.9c-0.6-0.7-1.2-1.3-1.9-1.9c0.8-1,1.1-1.7-0.6-1.6
		c0.2-0.1,0.3-0.3,0.5-0.3c-0.1-0.3,0.1-0.5,0.3-0.6v-0.1c-0.1-0.1-0.2-0.1-0.2-0.3c-0.2-0.1-0.4,0-0.5,0.1
		c-0.3,0.4-0.9,0.6-1.4,0.8c-0.1,0-0.2,0.1-0.3,0.1c-0.9-0.2-1.5,0.4-1.6,1.5c0.4,0.1,0.6-0.1,0.7-0.4l0.1,0.3
		c-0.3,0.1-0.5,0.3-0.5,0.6c0.2,0.1,0.4,0.1,0.5,0l0.1,0.2c-0.3,0.1-0.4,0.3-0.3,0.5c0.2,0.1,0.4,0.1,0.5,0.1v0.2
		c-0.9-0.3-1.8-0.2-2.5,0.5v0.3c-1-0.2-1.5,0.1-1.4,0.8c-0.2,0.1-0.3,0.3-0.2,0.5c0.1,0.1,0.2,0.1,0.3,0.1l0.1,0.2
		c-0.2,0.2-0.4,0.4-0.5,0.7c-0.2,0.1-0.4,0.1-0.5,0.2c-0.1,0.3-0.1,0.6,0.1,1C500.1,42,501.3,41.8,502.6,41.3z M503.9,35L504,35
		c-0.1,0.1-0.1,0.1-0.2,0.2C503.7,35.1,503.8,35,503.9,35z M503.6,37.8l0.2,0.2l-0.1,0.2c-0.1,0-0.2-0.1-0.2-0.2L503.6,37.8z"/>
	<path class="st45" d="M544.5,26.8c-0.5,0.1-1,0.1-1.2,0v0.2c0.9,0.4,1.8,0.9,2.6,1.3c-1.3-0.3-2.7-0.6-4-0.9
		c0.4,0.3,0.9,0.6,1.4,0.8c-1.4-0.4-3-0.4-4.3,0.2l0.2,0.1l-0.1,0.1c-0.3,0-0.6-0.1-0.9-0.3v-0.1h0.3c-0.6-0.6-1.7-0.9-2.6-0.8v0.2
		c0.7,0.3,1.3,0.6,1.9,1.1c-1.3-0.3-2.1-0.1-1.3,1c-0.9-0.5-1.9-0.6-2.4-0.2c0.1,0.1,0.2,0.1,0.2,0.2l-0.6-0.2
		c0.1-0.1,0.1-0.1,0.2-0.1c0-0.1,0-0.2-0.1-0.3c-0.3,0-0.5,0-0.8,0c-0.1-0.2-0.1-0.3-0.2-0.5l-0.2-0.1h0.1l0.2,0.1
		c7-1.2-1.4-1.9-4.5-2.3c0.1-0.1,0.1-0.1,0.1-0.2c-2.8-0.7-5.9-0.6-8.5,0.3c-0.4-0.1-0.9-0.1-1.2,0.2v0.2c-0.5-0.1-0.9,0.2-1,0.6
		c0.5-0.2,0.9-0.2,1.4-0.1c-0.6,0.3-1.2,0.8-1.6,1.1v0.3l0.2,0.1c-0.3,0-0.6,0.1-0.8,0.3l0.2,0.1c-0.7,0.4-1.4,0.6-2.1,0.8
		c-0.3-0.1-0.4,0-0.4,0.3l0.2,0.1c-0.8,0.2-1.5,0.4-2.3,0.8c0,0.3,0,0.6,0,0.9c-0.2,0.5,0,1.2,0.4,1.8c-0.2,0.6,0.2,1,0.9,1l0.1,0.2
		c1.3,0,2.4-0.3,3.5-1c0.4,0.5,0.6,0.9,0.7,1.5c0.4,0.4,0.8,0.7,1.2,0.9v0.2c-0.6,0-1,0.2-1.2,0.6c0,0.2-0.1,0.3-0.1,0.5
		c0-0.2,0-0.4,0.1-0.5c0-0.5-0.2-0.8-0.7-1c-0.5-1.7-1.3-0.7-2.1,0.9l-0.2,0.1c-0.1,0.4,0.1,0.6,0.5,0.6c-0.1,0.2-0.1,0.3,0,0.5
		l0.2,0.1c-0.6,0.6-2.5,1.6-3.9,2.1v0.6c-1.4,1.1-2.6,2.2-3.6,3.3c-0.4,0.1-0.7-0.1-0.8-0.4c-0.4-0.1-0.8-0.1-1.1,0
		c0,0.4,0.1,0.8,0.2,1.1c-1.5-0.4-2.8-0.3-2.9,1.2c0.2,0.1,0.3,0.2,0.2,0.3c0.6-0.1,1.3,0.1,1.7,0.6h0.3c-0.1,0.7,0.2,1,0.9,1
		c-0.2,0.4-0.2,0.8-0.1,1.2h-0.2c-0.1,0.8-0.2,1.5-0.3,2.2c-0.5-0.1-1,0-1.4,0.1c-0.8-0.2-1.6-0.2-2.4,0c-0.9-0.5-2.2-0.5-3.1,0.3
		c-0.4-0.1-0.6,0.1-0.9,0.3c0.3,1.2,0.3,2.5,0.2,3.7c-0.7,0.9-1,1.9-0.8,3l0.3-0.1c0.1,0.5,0.1,1.3-0.1,1.9c0.8,0.2,1.5,0.2,2.4-0.1
		c0.2,0.6,0.4,1.1,0.9,1.6c-1,1.9-2.3,3.6-3.9,4.8h0.2c-0.3,1.8-1,3.5-2.2,4.8c-4.1,1.9-7,6.3-6.5,10.8l0.2-0.1
		c0.3,2.6,0.5,6.2,0.5,8.4c2.1,4.4,7.8,5.6,13.3,4.2c3.2-0.8,6-0.5,6.3,1.2c2.3,0,1,3.1,3.4,3.9c1.3,1.1,3.5,1.8,4.7,1.7
		c-0.3,1.3,0.2,1.6,1.4,1.9c-0.4,0.6-0.6,1.5-0.8,2.2l0.2-0.4c1.2,0.5,2,2.4,2.4,3c0.8,1.2,0.3,1.8,2.8,2.8c1.2,1.4-2.2,1.8-1.6,3
		c0.3,0.4,0.6,1,0.2,1.4c-3.3,3.7,0.5,6.1-0.1,6.7c0.4,0.7,1,1.3,1.7,1.9c-0.1,1,1.3,0.9,2.5,0.5c2.4-0.4,1.8-1.2,3.8-1.8
		c0.9-0.3,4.3-0.1,5.3-0.4c0.6-0.5,1.1-0.9,1.7-1.2c3.1-4,2.4-6.1,4.1-5.9c2.6-1,4.9-3.4,7.1-6.2c1.2-1.7-1.1-4.2,0.9-5.6
		c1-0.7,1.9-2.2,3.4-3c1-0.5,2.5-0.4,3.6-1.2c1.2-1,3.1-0.9,3.8-2.3c1.4-1.5,2.2-3.6,1.9-5.2h-0.5c-1.7,0.8-3.6,1.5-5.4,2.1h-0.3
		l-0.2-0.1c-0.5-0.5-0.7-0.9-0.5-1.4c-0.2-0.6,1-0.8,1.4-0.8c2.2-1.2,4.5-2.4,7-3.7c0.2-0.3,0.1-0.8,0.4-1c0.2-0.2,0.6-0.2,0.9-0.3
		c0.5-0.2,1.6-0.4,1.6-1.1c0-0.4,0-0.4,0.4-0.4c0.6-0.1,0.4-0.4,0.6-0.8c0.3-0.3,1-0.3,1.1-0.7c0.1-1.2,0.6-2.3,1.4-3.5
		c0.1-0.3,0.3-0.6,0.2-0.9c-0.1-0.3-0.3-0.2-0.4-0.4c-0.1-0.3-0.3-0.9-0.5-1.1c-0.4-0.3-1,0-1.4-0.4c-0.4-0.4-0.4-1.1-0.5-1.7
		c-0.1-0.3,0.1-1.2-0.2-1.4c-0.4-0.1-0.7,0.9-0.8,1.1c-0.3,0.3-0.4,0.6-0.6,1c-0.1,0.2-0.1,0.5-0.3,0.5c-0.3,0.1-0.4,0.2-0.4,0.5
		c-0.4-0.2-1-0.3-1.4,0.1c-0.3,0.3-0.3-0.3-0.6-0.3c0.1-0.5,0.2-1.6-0.1-2.1c-0.4-0.6-0.8-0.2-0.9,0.3c-0.5-0.4-0.3-1.5-0.8-2
		c-0.4-0.5-0.9-1-1.1-1.6c-0.2-0.3-0.3-0.6-0.3-0.9c-0.1-0.4,0.1-0.6,0.5-0.7c0.1,0,0.6-0.1,0.7,0c0.2,0.2,0.2,0.4,0.4,0.6
		c0.4,0.4,0.5,1.2,0.8,1.7s0.6,0.2,0.9,0.5c0.2,0.2,0.4,0.1,0.4,0.3c0.1,0.2,0.1,0.3,0.2,0.4c0.1,0.1,0.6,0.5,0.8,0.6
		c0.2,0.1,0.6-0.1,0.8,0.1c0.1,0.1,0.2,0.2,0.2,0.2c0.6,0.1,0.9-0.8,1.7-0.9c0.2,0.5,0.3,1,0.4,1.5c0.2,0.6,1.1,0.1,1.4,0.5
		c0.1,0.1,1.6,0.3,3.2,0.4c0-0.1,0-0.2,0-0.3C571.4,55.5,560.7,37.3,544.5,26.8z M513,33C513.2,32.8,512.9,33.1,513,33L513,33z
		 M546.4,28.4C546.3,28.6,546.6,28.3,546.4,28.4L546.4,28.4z M544.4,28.3C544.2,28.5,544.5,28.2,544.4,28.3L544.4,28.3z M544.1,28.3
		C544,28.4,544.2,28,544.1,28.3L544.1,28.3z M543.6,28C543.4,28.2,543.7,27.8,543.6,28L543.6,28z M542.6,48.1
		c0.8-0.1,1.3-0.3,2.1-0.5c-0.1,0.2-0.2,0.3-0.4,0.2c0.3,0.5,0.3,1,0.1,1.6c-0.5-0.3-1.1-0.3-1.7-0.1
		C542.1,48.9,542.1,48.5,542.6,48.1z M541.9,28.1C542.1,27.9,541.8,28.2,541.9,28.1L541.9,28.1z M536.4,52.1c0.6-0.3,0.7-1,0.5-1.7
		c0.7-0.2,0.9-0.6,0.6-1.3c0.4-0.2,0.6-0.6,0.7-1l0.2-0.1c0.6,0.4,1.3,0.7,1.9,0.8c3.1,1.1,12.9,3.6,4.5,5.7
		c-0.2-0.5-0.5-0.6-0.9-0.3c-0.2-0.1-0.3-0.2-0.3-0.4c-1.5-0.3-2.9-0.1-3.8,1l-0.2,0.1c-0.6-0.3-1.3-0.3-1.9-0.1v-0.2
		c-0.2-0.2-0.4-0.3-0.6-0.3C536.5,53.6,536.3,52.9,536.4,52.1z M518.9,38.3l-0.1-0.2c0.3-0.1,0.5-0.3,0.4-0.6
		c1.8,0.2,3.1-0.4,3.6-1.9h-0.4c0.1-0.4,0.2-0.8,0.2-1.2c1.5-0.9,1.2-1.6-0.4-2.2c0-0.4,0-0.8-0.1-1.1c0.9-0.5,1.6-0.9,2.4-1.5
		c0-0.2-0.1-0.3-0.2-0.4c0.4-0.6,1.1-0.6,1.8-0.3l-0.1,0.1c-0.2,0.4-0.6,0.9-1.1,1.2c-0.4-0.2-0.7-0.2-0.7,0.3l0.2,0.1
		c0,0.5,0.2,0.9,0.6,1c-0.1,0.4-0.1,0.8,0.2,1.1c0.2,0.1,0.4,0.1,0.6,0.1c1.5,0.3,3.6,0.5,5.2,0.5l-0.3,0.1c0,0.1,0,0.2,0,0.4
		c-1.2-0.6-2.5-0.5-3.3,0.3c-0.5-0.2-1-0.1-1,0.3c-0.1,0.4,0,0.7,0.2,0.9c-0.3,0.1-0.3,0.3-0.3,0.5c-0.1,0.6-0.2,1.3-0.2,1.9
		l-0.5,0.1c-0.1,0.2-0.2,0.3-0.3,0.4c-1.6-0.5-3.2-0.2-4.4,0.9c-0.1-0.2-0.2-0.4-0.4-0.5c0.1-0.5-0.2-0.7-0.8-0.6
		c-0.2,0.2-0.8,0.5-1.2,0.6l-0.2-0.2L518.9,38.3z M529.9,59C529.8,59.1,530,58.8,529.9,59L529.9,59z M529.7,58.6
		C529.6,58.7,529.8,58.4,529.7,58.6L529.7,58.6z M533.1,66.8c-3-1.4-4.3,0.1-4.5,3.1c-0.9-1-2.2-1.6-3.5-1.6c-1-1.9-2.9-2.8-5.3-2.6
		c-0.2-0.3-0.3-0.6-0.4-0.9c-0.3-0.2-0.6-0.2-0.8,0.1c-0.2-0.5,0.2-1,0.8-1.4c0-0.7-0.2-1.3-0.6-1.8l0.2-0.1
		c0.2-0.4,0.3-0.7,0.2-1.2c-0.1-0.1-0.2-0.1-0.2-0.2c-0.2,0-0.4,0.1-0.5,0.3c-1.1-0.7-2.6-0.6-3.9,0c-0.5-0.4-1.2-0.3-1.8,0.2
		c-0.6-0.4-1.5-0.4-2.1,0c-1.3-0.1-2.7,0.4-3.6,1.3c-1.7,0.8-3,1-5,0.9c-0.1-0.3-0.3-0.6-0.4-0.9c1.2-0.4,2.9-1.1,3.9-1.6
		c0.9-0.3,1.4-0.8,1.6-1.8c1-1.9,2.4-4.5,4-6.9c1.9,0.7,3.5,0.3,5-1.1v-0.2c0.9,0.2,1.5,0.7,1.6,1.6c-0.8,0.8,0.2,0.7,0.9,0.7v0.2
		c-0.3-0.1-0.4,0.1-0.2,0.3c0.2,0,0.5,0,0.7,0c0.4,0.6,1,1.2,1.7,1.6c2.3,0.7,3.6,2.4,3.6,4.7h0.4c0.9-1,1.1-2.1,0.4-3.1
		c0.1-0.5,0.3-0.6,0.8-0.4l0.1,0.4c1.8-0.4-0.2-1.6-1.7-2.4c0.1-0.2,0.1-0.5-0.1-0.7c-1.6-0.7-2.9-1.7-4.2-2.9
		c-0.2-0.8,0.1-1.3,0.7-1.6L521,49c-0.1,0.5,0,0.8,0.3,1.1c0.3,0.1,0.4,0.1,0.5-0.1c1.8,1.5,3.7,2.9,5.7,4.1
		c-0.1,0.7-0.1,1.4,0.1,2.1c0.2,0.1,0.3,0.2,0.5,0.2v0.1c-0.2,0.6,0.3,1.1,1.1,1.5c-0.1,1.5,0.7,2.6,2.1,3.2
		c0.1,0.1,0.2,0.3,0.2,0.4c1.1,0.8,1.4,0.2,1-1.2c0.6,0.1,0.3-0.5,0.1-0.7c0.2,0.3,0.6,0.2,0.8-0.1c0,0.1,0.1,1.1,0.3,1.1
		c0.1,0.1,0.2-0.9,0.2-0.9c0.3,0.4,0.5,0.1,0.5,0.7c-0.1,0.3,0,0.4,0.3,0.4c0.5,0.1,0.6-0.2,0.5-0.7c-0.3-0.4-0.8-0.9-1.2-1.1
		c-0.5-0.3-0.7-0.8-1-1.4c-0.4-0.7-1.2-0.9-1.5-1.7c0.6,0.8,2.3,0.3,1.6-0.5c0.5,0.3,0.6,0,0.9-0.3c0.1,0.1,0.2,0.1,0.3,0.1
		c-0.4,0.3,0,0.4-0.4,0.7c-0.2,0.1-0.3,0.3-0.1,0.5c0.5,0.4,0.6-0.1,0.9,0c0.9,0.2-0.5,1.3,0.8,1.5c-0.3-0.1-0.6,0-0.6,0.4
		c-0.1,0.6,0.4,0.7,0.9,0.9c-0.4,0.2-0.6,0.4-0.5,0.9c0.4,0.2,0.5-0.2,0.9-0.2c0.6,0.1,0.3,1.5,0.9,1.2c0.6,2.3,0.8-0.3,1.5,0.1
		c0.4,0.7,1.1,0.9,1.9,0.5c0.2-0.2,0.2-0.4,0.1-0.7c1.5,0.9,2.9,1.1,4.2,0c0.2,0.2,0.5,0.3,0.8,0.3c-0.1,0.2,0,0.4,0.2,0.5
		C544.8,69.3,540,70.1,533.1,66.8z M531.9,61.4C531.9,61.7,531.8,60.9,531.9,61.4L531.9,61.4z M553.6,90.9c-0.2-0.3-0.4-0.5-0.6-0.8
		c-0.2-0.3-0.5-0.5-0.8-0.8c-0.4-0.4-1.2-0.8-1.3-1.3c-0.1-1-0.4-1.7-0.8-2.5c-0.1-0.3-0.6-0.6-0.9-0.8c-0.4-0.2-0.3-1.1-0.3-1.5
		c0-0.8-0.1-1.9-0.4-2.6c-0.1-0.2-0.4-0.4-0.6-0.6c-0.3-0.4-0.8-0.3-0.8-0.9c0-0.3,0.4-0.4,0.2-0.9c-0.1-0.1-0.3-0.2-0.3-0.3
		c-0.2-0.3-0.3-0.5-0.5-0.8c-0.6-1.2-1.4-2.7-1.6-3.8c0.3,0.4,0.9,0.2,0.8-0.4c0.7,0,0.9,1.1,1.3,1.5c0.3,0.3,0.4,0.6,0.5,1
		c0.1,0.3,0.4,0.5,0.6,0.8c0.2,0.5,0.2,1,0.5,1.5c0.3,0.4,0.4,0.3,0.8,0.5c1.5,1.1,0.3,3.5,1.6,4.6c0.3,0.3,0.6,0.4,0.9,0.6
		c0.4,0.4,0.3,0.9,0.5,1.4c0.3,0.7,0.7,1.3,1.1,2.1c0.2,0.3,0.8,1.1,0.4,1.5c-0.3,0.4-0.1,0.5,0.1,1c0.2,0.8,0.1,1.6,0.3,2.3
		C553.7,91.6,553.8,91.2,553.6,90.9z M554.2,91.9C554.1,92,554.4,91.7,554.2,91.9L554.2,91.9z M554.7,48.7c0.3-0.3,0.6-0.5,1-0.6
		c0.2,0.3,0.5,0.4,0.8,0.3c0.1-0.1,0.1-0.1,0.2-0.2c0.5,0.3,0.8,0.9,0.7,1.6c-1-0.3-1.3,0.1-0.9,1H556c0.6,1.2,1.6,2.2,2.8,2.9
		c0.3,1.4,1,2.9,1.8,3.8c0.5,0.9,1,2.2,1.5,3.5h-1v0.2c-0.3-0.1-0.6-0.1-1-0.1c-0.2-0.2-0.5-0.4-0.8-0.5c-0.6-0.5-1.2-1-1.7-1.6
		l-0.1-0.4c0.2-0.5,0.3-1.3,0.1-1.9c-0.3-0.6-2-3.7-3.1-5.2l-0.4-0.1c-0.1-0.3-0.4-0.6-0.7-0.7c0-0.4,0-0.8,0.1-1.2
		C554,49.5,554.5,49.2,554.7,48.7z"/>
	
		<linearGradient id="SVGID_21_" gradientUnits="userSpaceOnUse" x1="580.7518" y1="760.0078" x2="441.6108" y2="743.2314" gradientTransform="matrix(1 0 0 -1 0 828)">
		<stop  offset="0" style="stop-color:#2C78F6"/>
		<stop  offset="1" style="stop-color:#00BFE7"/>
	</linearGradient>
	<path class="st91" d="M453.3,29.9c-1.1,1.4-1.8,2.9-2.2,4.6c-0.4,1.7-0.4,3.5-0.3,5.2c0.3,3.5,1.3,7,2.6,10.3
		c2.7,6.6,6.6,12.7,10.9,18.5c4.3,5.7,9.2,11.1,14.3,16.2c5.1,5.1,10.5,9.8,16.2,14.3c11.3,8.9,23.6,16.6,36.8,22.3
		c6.6,2.8,13.5,5.1,20.5,6.2c3.5,0.5,7.1,0.7,10.6,0.2c1.7-0.3,3.5-0.8,5-1.6c1.6-0.8,3-1.8,4-3.2c1.1-1.4,1.8-3,2.2-4.6
		c0.4-1.7,0.4-3.5,0.3-5.2c-0.3-3.5-1.4-7-2.7-10.3c-2.8-6.6-6.6-12.7-11-18.4c-8.7-11.5-19.2-21.5-30.5-30.4
		c-5.7-4.4-11.6-8.5-17.8-12.3c-6.2-3.7-12.5-7.1-19.1-9.9c-6.6-2.8-13.5-5.1-20.5-6.2c-3.5-0.5-7.1-0.6-10.6-0.1
		c-1.7,0.3-3.4,0.8-5,1.6C455.6,27.6,454.3,28.6,453.3,29.9z M452.1,29.1c1.2-1.5,2.8-2.7,4.4-3.5c1.7-0.8,3.5-1.4,5.4-1.6
		c3.7-0.5,7.3-0.3,11,0.2c7.2,1.1,14.1,3.6,20.7,6.5s13,6.3,19.2,10.2c6.2,3.8,12,8,17.7,12.4c5.7,4.4,11.1,9.2,16.3,14.3
		c5.2,5,10.1,10.4,14.5,16.2c4.4,5.7,8.4,11.9,11.2,18.6c1.4,3.3,2.5,6.9,2.8,10.5c0.2,1.8,0.1,3.7-0.3,5.5
		c-0.4,1.8-1.2,3.6-2.3,5.1c-1.2,1.5-2.7,2.7-4.4,3.5c-1.7,0.8-3.5,1.4-5.3,1.6c-3.7,0.6-7.3,0.4-10.9-0.2
		c-3.6-0.5-7.1-1.5-10.6-2.5c-3.5-1.1-6.8-2.4-10.2-3.9c-6.6-2.9-13-6.4-19.1-10.2c-6.2-3.8-12-7.9-17.8-12.4
		c-5.7-4.4-11.2-9.1-16.4-14.2c-5.2-5-10-10.4-14.5-16.2c-4.4-5.7-8.4-11.8-11.3-18.5c-1.4-3.3-2.5-6.9-2.9-10.6
		c-0.2-1.8-0.1-3.7,0.3-5.6C450.1,32.4,450.9,30.6,452.1,29.1z"/>
	
		<linearGradient id="SVGID_22_" gradientUnits="userSpaceOnUse" x1="544.1465" y1="752.6354" x2="488.1496" y2="750.7891" gradientTransform="matrix(1 0 0 -1 0 828)">
		<stop  offset="0" style="stop-color:#2C78F6"/>
		<stop  offset="1" style="stop-color:#00BFE7"/>
	</linearGradient>
	<path class="st92" d="M540.8,55.1c-0.7-7.2-1.8-14.3-3.5-21.3c-0.9-3.5-1.8-7-3.1-10.4c-1.2-3.4-2.6-6.8-4.4-9.9
		c-1.7-3.2-3.8-6.3-6.4-8.8c-1.4-1.3-2.8-2.4-4.5-3.2c-1.7-0.8-3.5-1.4-5.4-1.4c-1.9,0-3.8,0.4-5.5,1.2c-1.7,0.8-3.2,1.9-4.6,3.1
		c-2.7,2.5-4.9,5.5-6.6,8.6c-1.4,2.4-2.6,5-3.7,7.6c0.3-0.1,0.6-0.2,1-0.3c1-2.4,2.2-4.6,3.5-6.9c1.8-3.1,3.9-6,6.6-8.4
		c1.3-1.2,2.8-2.2,4.4-2.9c1.6-0.7,3.3-1.1,5-1.1c1.7,0,3.5,0.5,5,1.2c1.6,0.8,3,1.8,4.3,3c2.6,2.4,4.6,5.4,6.4,8.5
		c1.7,3.1,3.2,6.4,4.4,9.8c1.2,3.3,2.3,6.8,3.1,10.3c1.7,7,2.9,14.1,3.6,21.3c0.8,7.2,1,14.4,1,21.6c-0.1,7.2-0.6,14.4-1.5,21.6
		c-0.9,7.1-2.3,14.2-4.2,21.2c-1,3.5-2.1,6.9-3.4,10.2c-1.3,3.4-2.8,6.6-4.6,9.7c-1.8,3.1-3.9,6-6.6,8.4c-1.3,1.2-2.8,2.2-4.4,3
		c-1.6,0.8-3.3,1.1-5.1,1.1s-3.5-0.5-5-1.2c-1.6-0.8-3-1.8-4.3-3.1c-2.6-2.4-4.6-5.5-6.3-8.6c-1.3-2.3-2.4-4.8-3.4-7.3
		c-0.3-0.1-0.5-0.2-0.8-0.3c1,2.7,2.2,5.3,3.6,7.9c1.7,3.2,3.8,6.2,6.4,8.8c1.3,1.2,2.8,2.4,4.5,3.2c1.7,0.8,3.5,1.3,5.3,1.4
		c1.9,0,3.7-0.4,5.4-1.2c1.7-0.8,3.2-1.8,4.5-3.1c2.7-2.5,4.9-5.5,6.6-8.6c1.8-3.1,3.4-6.4,4.6-9.8c1.3-3.4,2.4-6.8,3.3-10.3
		c1.9-7,3.2-14.1,4.1-21.2c0.9-7.2,1.4-14.4,1.5-21.6C541.7,69.5,541.5,62.3,540.8,55.1z"/>
	
		<linearGradient id="SVGID_23_" gradientUnits="userSpaceOnUse" x1="580.6754" y1="760.0234" x2="441.9584" y2="743.2888" gradientTransform="matrix(1 0 0 -1 0 828)">
		<stop  offset="0" style="stop-color:#2C78F6"/>
		<stop  offset="1" style="stop-color:#00BFE7"/>
	</linearGradient>
	<path class="st93" d="M575.3,112.8c-0.3-3.7-1.4-7.2-2.8-10.5c-1.1-2.7-2.4-5.3-3.9-7.8c-0.1,0.3-0.2,0.5-0.3,0.8
		c1.3,2.3,2.5,4.8,3.6,7.2c1.3,3.3,2.4,6.8,2.7,10.3c0.2,1.8,0.1,3.6-0.3,5.3c-0.4,1.7-1.1,3.4-2.2,4.7c-1.1,1.4-2.5,2.5-4.1,3.2
		c-1.6,0.8-3.3,1.3-5,1.6c-3.5,0.5-7.1,0.4-10.7-0.2c-3.6-0.5-7-1.4-10.5-2.5c-3.4-1.1-6.8-2.3-10.1-3.8c-6.6-2.9-13-6.3-19.1-10
		c-6.2-3.8-12-7.9-17.7-12.3c-5.7-4.4-11.1-9.2-16.2-14.3c-5.1-5.1-9.9-10.4-14.3-16.2c-2.2-2.9-4.2-5.8-6.1-8.9s-3.6-6.3-4.9-9.6
		c-1.4-3.3-2.4-6.8-2.7-10.3c-0.2-1.8-0.1-3.5,0.3-5.2s1.1-3.3,2.2-4.6c1.1-1.4,2.4-2.4,4-3.2c1.6-0.8,3.2-1.3,5-1.6
		c3.5-0.6,7.1-0.4,10.6,0.1c2.5,0.4,5,0.9,7.5,1.6c0.3-0.2,0.6-0.4,0.9-0.5c-2.7-0.8-5.5-1.4-8.2-1.8c-3.6-0.5-7.3-0.8-10.9-0.2
		c-1.8,0.3-3.6,0.8-5.3,1.6c-1.7,0.8-3.2,2-4.4,3.5c-1.1,1.5-1.9,3.2-2.3,5.1c-0.4,1.8-0.4,3.7-0.3,5.5c0.3,3.7,1.5,7.2,2.8,10.5
		c1.4,3.3,3.1,6.5,5,9.6c1.9,3.1,4,6.1,6.2,8.9c4.4,5.7,9.3,11.1,14.4,16.2c5.2,5,10.6,9.8,16.3,14.2c5.7,4.4,11.6,8.6,17.7,12.4
		c6.2,3.8,12.5,7.2,19.1,10.1c3.3,1.5,6.7,2.8,10.2,3.8c3.5,1.1,7,2,10.5,2.5c3.6,0.5,7.2,0.8,10.9,0.2c1.8-0.3,3.6-0.8,5.2-1.6
		c1.7-0.8,3.2-2,4.3-3.5c1.1-1.5,1.9-3.2,2.3-5C575.4,116.5,575.4,114.7,575.3,112.8z"/>
	
		<linearGradient id="SVGID_24_" gradientUnits="userSpaceOnUse" x1="584.4893" y1="788.3503" x2="436.1113" y2="712.6705" gradientTransform="matrix(1 0 0 -1 0 828)">
		<stop  offset="0" style="stop-color:#2C78F6"/>
		<stop  offset="1" style="stop-color:#00BFE7"/>
	</linearGradient>
	<path class="st94" d="M595.1,74.7c-0.5-0.8-1.2-1.5-1.9-2.1c-1.4-1.2-3-2.2-4.7-3c-3.3-1.6-6.8-2.9-10.3-3.9
		c-2.6-0.8-5.3-1.5-8.1-2.1c0.1,0.2,0.1,0.4,0.2,0.6c2.6,0.6,5.2,1.2,7.7,2c3.5,1,7,2.3,10.2,3.9c1.6,0.8,3.2,1.7,4.5,2.9
		c0.6,0.6,1.3,1.2,1.7,2c0.4,0.8,0.8,1.6,0.7,2.4c0,0.8-0.3,1.7-0.8,2.4c-0.5,0.7-1.1,1.4-1.8,1.9c-1.4,1.1-3,2-4.6,2.8
		c-3.3,1.6-6.8,2.6-10.3,3.6c-7.1,1.9-14.3,3.1-21.6,4c-7.3,0.9-14.6,1.5-21.9,1.8c-7.3,0.4-14.6,0.5-22,0.4
		c-7.3-0.1-14.6-0.4-21.9-1c-7.3-0.5-14.6-1.4-21.8-2.4c-7.2-1.1-14.4-2.5-21.5-4.6c-3.5-1-7-2.3-10.2-3.9c-1.6-0.8-3.2-1.7-4.5-2.9
		c-0.6-0.6-1.2-1.2-1.7-1.9c-0.4-0.7-0.7-1.5-0.7-2.3s0.3-1.6,0.8-2.3c0.5-0.7,1.1-1.4,1.8-1.9c1.4-1.1,3-2,4.6-2.8
		c3.3-1.6,6.8-2.6,10.3-3.6c2.5-0.7,5.1-1.3,7.8-1.8c0.1-0.3,0.1-0.5,0.2-0.8c-2.8,0.5-5.5,1.1-8.2,1.8c-3.6,0.9-7.1,2.1-10.5,3.6
		c-1.7,0.8-3.4,1.7-4.8,2.9c-0.8,0.6-1.4,1.3-1.9,2.1c-0.3,0.4-0.5,0.9-0.6,1.4c-0.1,0.2-0.2,0.5-0.2,0.8c-0.1,0.2-0.1,0.5-0.1,0.8
		c0,1,0.3,2.1,0.9,2.9c0.5,0.8,1.2,1.5,1.9,2.2c1.5,1.2,3.1,2.2,4.7,3c3.4,1.6,6.8,2.9,10.4,3.9c7.1,2.1,14.3,3.4,21.6,4.5
		c7.2,1.1,14.6,1.8,21.9,2.3c7.3,0.5,14.6,0.8,22,0.9c7.3,0.1,14.7,0,22-0.3c7.3-0.3,14.6-0.9,21.9-1.8c7.3-0.9,14.5-2.1,21.7-3.9
		c3.6-1,7.1-2.1,10.4-3.6c1.7-0.8,3.3-1.7,4.8-2.9c0.7-0.6,1.4-1.3,1.9-2.1c0.5-0.8,0.9-1.8,0.9-2.8C596,76.5,595.6,75.5,595.1,74.7
		z"/>
	
		<linearGradient id="SVGID_25_" gradientUnits="userSpaceOnUse" x1="491.2702" y1="735.6797" x2="485.2782" y2="735.0764" gradientTransform="matrix(1 0 0 -1 0 828)">
		<stop  offset="0" style="stop-color:#2C78F6"/>
		<stop  offset="1" style="stop-color:#00BFE7"/>
	</linearGradient>
	<path class="st95" d="M491,92.6c0,1.5-1.2,2.7-2.7,2.7c-1.5,0-2.7-1.2-2.7-2.7s1.2-2.7,2.7-2.7C489.8,89.9,491,91.1,491,92.6z"/>
	
		<linearGradient id="SVGID_26_" gradientUnits="userSpaceOnUse" x1="454.3131" y1="785.6036" x2="448.3201" y2="785.0003" gradientTransform="matrix(1 0 0 -1 0 828)">
		<stop  offset="0" style="stop-color:#2C78F6"/>
		<stop  offset="1" style="stop-color:#00BFE7"/>
	</linearGradient>
	<path class="st96" d="M451.4,45.4c1.5,0,2.7-1.2,2.7-2.7c0-1.5-1.2-2.7-2.7-2.7c-1.5,0-2.7,1.2-2.7,2.7
		C448.7,44.2,449.9,45.4,451.4,45.4z"/>
	
		<linearGradient id="SVGID_27_" gradientUnits="userSpaceOnUse" x1="537.8441" y1="707.5827" x2="531.8521" y2="706.9797" gradientTransform="matrix(1 0 0 -1 0 828)">
		<stop  offset="0" style="stop-color:#2C78F6"/>
		<stop  offset="1" style="stop-color:#00BFE7"/>
	</linearGradient>
	<path class="st97" d="M537.6,120.7c0,1.5-1.2,2.7-2.7,2.7c-1.5,0-2.7-1.2-2.7-2.7c0-1.5,1.2-2.7,2.7-2.7
		C536.4,118,537.6,119.2,537.6,120.7z"/>
	
		<linearGradient id="SVGID_28_" gradientUnits="userSpaceOnUse" x1="543.5172" y1="735.1387" x2="537.5251" y2="734.5355" gradientTransform="matrix(1 0 0 -1 0 828)">
		<stop  offset="0" style="stop-color:#2C78F6"/>
		<stop  offset="1" style="stop-color:#00BFE7"/>
	</linearGradient>
	<path class="st98" d="M543.3,93.2c0,1.5-1.2,2.7-2.7,2.7c-1.5,0-2.7-1.2-2.7-2.7c0-1.5,1.2-2.7,2.7-2.7
		C542.1,90.5,543.3,91.7,543.3,93.2z"/>
	
		<linearGradient id="SVGID_29_" gradientUnits="userSpaceOnUse" x1="580.6555" y1="760.0261" x2="441.9054" y2="743.2769" gradientTransform="matrix(1 0 0 -1 0 828)">
		<stop  offset="0" style="stop-color:#2C78F6"/>
		<stop  offset="1" style="stop-color:#00BFE7"/>
	</linearGradient>
	<path class="st99" d="M575,34.3c-0.4-1.8-1.2-3.6-2.3-5.1c-1.2-1.5-2.7-2.6-4.4-3.5c-1.7-0.8-3.5-1.3-5.3-1.6
		c-3.6-0.5-7.3-0.3-10.9,0.2c-3.6,0.5-7.1,1.5-10.6,2.5c-3.5,1.1-6.8,2.4-10.2,3.8c-6.6,2.9-13,6.3-19.1,10.1
		c-6.2,3.8-12,7.9-17.7,12.4c-5.7,4.4-11.2,9.2-16.3,14.2c-5.1,5.1-10,10.4-14.4,16.2c-2.2,2.9-4.3,5.8-6.2,8.9
		c-1.9,3.1-3.6,6.3-5,9.6s-2.5,6.9-2.8,10.5c-0.2,1.8-0.1,3.7,0.3,5.5c0.4,1.8,1.1,3.6,2.3,5c1.1,1.5,2.6,2.6,4.3,3.5
		c1.7,0.8,3.5,1.3,5.2,1.6c3.6,0.5,7.3,0.3,10.9-0.2c2.8-0.4,5.6-1.1,8.3-1.9c-0.2-0.2-0.4-0.3-0.7-0.4c-2.5,0.7-5.1,1.3-7.7,1.7
		c-3.6,0.5-7.1,0.7-10.7,0.2c-1.7-0.3-3.5-0.8-5-1.6c-1.6-0.8-3-1.9-4.1-3.2c-1.1-1.4-1.8-3-2.2-4.7c-0.4-1.7-0.4-3.5-0.3-5.3
		c0.3-3.6,1.4-7,2.7-10.3c1.4-3.3,3.1-6.5,4.9-9.6c1.9-3.1,3.9-6.1,6.1-8.9c4.4-5.7,9.2-11.1,14.3-16.2c5.1-5.1,10.6-9.8,16.2-14.3
		c5.7-4.4,11.6-8.5,17.8-12.3c6.2-3.7,12.5-7.1,19.1-10c3.3-1.4,6.7-2.7,10.1-3.7c3.4-1.1,6.9-1.9,10.5-2.4
		c3.5-0.5,7.1-0.7,10.6-0.1c1.7,0.3,3.5,0.8,5,1.6c1.6,0.8,3,1.9,4,3.2c1.1,1.4,1.8,3,2.2,4.6c0.4,1.7,0.4,3.5,0.3,5.2
		c-0.3,3.5-1.4,7-2.7,10.3c-1,2.4-2.2,4.8-3.5,7.1c0.1,0.3,0.2,0.6,0.3,0.9c1.5-2.5,2.8-5,3.9-7.7c1.4-3.3,2.5-6.9,2.8-10.5
		C575.4,38,575.4,36.1,575,34.3z"/>
	
		<linearGradient id="SVGID_30_" gradientUnits="userSpaceOnUse" x1="575.4502" y1="798.5714" x2="569.4582" y2="797.9681" gradientTransform="matrix(1 0 0 -1 0 828)">
		<stop  offset="0" style="stop-color:#2C78F6"/>
		<stop  offset="1" style="stop-color:#00BFE7"/>
	</linearGradient>
	<path class="st100" d="M572.5,32.4c1.5,0,2.7-1.2,2.7-2.7c0-1.5-1.2-2.7-2.7-2.7s-2.7,1.2-2.7,2.7C569.8,31.2,571,32.4,572.5,32.4z
		"/>
	
		<linearGradient id="SVGID_31_" gradientUnits="userSpaceOnUse" x1="539.2491" y1="800.2468" x2="533.2571" y2="799.6437" gradientTransform="matrix(1 0 0 -1 0 828)">
		<stop  offset="0" style="stop-color:#2C78F6"/>
		<stop  offset="1" style="stop-color:#00BFE7"/>
	</linearGradient>
	<path class="st101" d="M539,28c0,1.5-1.2,2.7-2.7,2.7c-1.5,0-2.7-1.2-2.7-2.7c0-1.5,1.2-2.7,2.7-2.7C537.8,25.3,539,26.5,539,28z"
		/>
	
		<linearGradient id="SVGID_32_" gradientUnits="userSpaceOnUse" x1="454.3122" y1="722.5502" x2="448.3212" y2="721.9473" gradientTransform="matrix(1 0 0 -1 0 828)">
		<stop  offset="0" style="stop-color:#2C78F6"/>
		<stop  offset="1" style="stop-color:#00BFE7"/>
	</linearGradient>
	<path class="st102" d="M454.1,105.7c0,1.5-1.2,2.7-2.7,2.7c-1.5,0-2.7-1.2-2.7-2.7c0-1.5,1.2-2.7,2.7-2.7
		C452.8,103,454.1,104.2,454.1,105.7z"/>
	<g class="st103">
		<path class="st87" d="M353.7,193.7l-21.2-12.2c-0.3-0.2-0.3-0.6,0.1-0.8l21-12.1c0.4-0.2,1-0.2,1.4-0.1l21.2,12.2
			c0.3,0.2,0.3,0.6-0.1,0.8l-21,12.1C354.6,193.9,354,193.9,353.7,193.7z"/>
	</g>
	<g class="st103">
		<path class="st87" d="M344.3,190.7l-21-12.1c-0.5-0.2-0.4-0.7,0.1-1l6.2-3.6l22.6,13l-6.2,3.6
			C345.5,190.9,344.7,190.9,344.3,190.7z"/>
	</g>
	<path class="st46" d="M374,174.2V170h-6.8l-15.1-8.7c-0.3-0.2-1-0.2-1.5,0.1l-15,8.7h-6.8v4.2c0,0.2,0.1,0.2,0.2,0.4l21.7,12.5
		c0.4,0.2,1,0.2,1.5,0l21.5-12.4C373.9,174.5,374,174.3,374,174.2z"/>
	
		<linearGradient id="SVGID_33_" gradientUnits="userSpaceOnUse" x1="369.45" y1="652.3559" x2="320.51" y2="667.6409" gradientTransform="matrix(1 0 0 -1 0 828)">
		<stop  offset="0" style="stop-color:#C0D6FF"/>
		<stop  offset="0.2978" style="stop-color:#C5DBFF"/>
		<stop  offset="0.6488" style="stop-color:#D3E9FF"/>
		<stop  offset="1" style="stop-color:#E9FFFF"/>
	</linearGradient>
	<path class="st104" d="M350.8,182.9l-21.7-12.5c-0.4-0.2-0.3-0.6,0.1-0.9l21.5-12.4c0.5-0.3,1.1-0.3,1.5-0.1l21.7,12.5
		c0.4,0.2,0.3,0.6-0.1,0.9l-21.5,12.4C351.8,183.1,351.2,183.1,350.8,182.9z"/>
	
		<linearGradient id="SVGID_34_" gradientUnits="userSpaceOnUse" x1="372.8845" y1="661.6979" x2="329.3155" y2="654.093" gradientTransform="matrix(1 0 0 -1 0 828)">
		<stop  offset="0" style="stop-color:#2C78F6"/>
		<stop  offset="1" style="stop-color:#00BFE7"/>
	</linearGradient>
	<path class="st105" d="M350.9,181.5l-19.2-11.1c-0.4-0.2-0.3-0.5,0.1-0.8l19-11c0.4-0.2,1-0.2,1.3-0.1l19.2,11.1
		c0.4,0.2,0.3,0.5-0.1,0.8l-19,11C351.8,181.6,351.2,181.7,350.9,181.5z"/>
	
		<linearGradient id="SVGID_35_" gradientUnits="userSpaceOnUse" x1="371.0812" y1="661.3971" x2="331.1312" y2="654.4391" gradientTransform="matrix(1 0 0 -1 0 828)">
		<stop  offset="0" style="stop-color:#2C78F6"/>
		<stop  offset="1" style="stop-color:#00BFE7"/>
	</linearGradient>
	<path class="st106" d="M350.9,180.5l-17.6-10.2c-0.3-0.2-0.2-0.5,0.1-0.7l17.4-10.1c0.4-0.2,0.9-0.2,1.2-0.1l17.6,10.2
		c0.3,0.2,0.2,0.5-0.1,0.7l-17.4,10.1C351.8,180.7,351.2,180.7,350.9,180.5z"/>
	<path class="st107" d="M351.1,169.4l-2.1-1.2l1.1-0.7l2.1,1.2L351.1,169.4z"/>
	<path class="st107" d="M354.9,169.2l-2.1,1.2l-1.1-0.7l2.1-1.2L354.9,169.2z"/>
	<path class="st107" d="M350.6,169.6l-1.2,0.7l-1.1-0.7l1.1-0.7L350.6,169.6z"/>
	<path class="st107" d="M354.5,171.9l-1.1,0.7l-3.3-1.9l1.2-0.7L354.5,171.9z"/>
</g>
</svg>
