<?xml version="1.0" encoding="utf-8"?>
<!-- Generator: Adobe Illustrator 24.3.0, SVG Export Plug-In . SVG Version: 6.00 Build 0)  -->
<svg version="1.1" id="Layer_1" xmlns="http://www.w3.org/2000/svg" xmlns:xlink="http://www.w3.org/1999/xlink" x="0px" y="0px"
	 viewBox="0 0 1066 826" style="enable-background:new 0 0 1066 826;" xml:space="preserve">
<style type="text/css">
	.st0{opacity:0.31;}
	.st1{fill:#242993;}
	.st2{fill:#3AA0C7;}
	.st3{opacity:0.5;}
	.st4{opacity:0.1;}
	.st5{opacity:0.1;fill:#FFFFFF;enable-background:new    ;}
	.st6{opacity:0.3;}
	.st7{opacity:0.3;fill:#FFFFFF;enable-background:new    ;}
	.st8{opacity:0.2;}
	.st9{opacity:0.2;fill:#FFFFFF;enable-background:new    ;}
	.st10{opacity:0.1;fill:#4CEAF5;enable-background:new    ;}
	.st11{fill:url(#SVGID_1_);}
	.st12{fill:url(#SVGID_2_);}
	.st13{fill:url(#SVGID_3_);}
	.st14{opacity:0.1;fill:#4CE9F4;enable-background:new    ;}
	.st15{fill:#D3FFFF;}
	.st16{fill:#B7C0EB;}
	.st17{fill:#F2F5FF;}
	.st18{opacity:0.3;fill:#4CEAF5;enable-background:new    ;}
	.st19{opacity:0.4;}
	.st20{opacity:0.4;fill:#FFFFFF;enable-background:new    ;}
	.st21{fill:#A9D0E5;}
	.st22{fill:#F1F4FE;}
	.st23{fill-rule:evenodd;clip-rule:evenodd;fill:#2781F5;}
	.st24{fill:#2781F5;}
</style>
<g>
	<g class="st0">
		<ellipse class="st1" cx="544" cy="496" rx="125" ry="60"/>
	</g>
	<path class="st2" d="M560,337.7l-3.7-5.5l6.7-0.4L560,337.7z"/>
	<path class="st2" d="M457.6,364.5l-3.7,5.5l-2.9-6L457.6,364.5z"/>
	<g class="st3">
		<g class="st3">
			<g class="st3">
				<g class="st3">
					<g class="st4">
						<path class="st5" d="M576,221.9c0.7,0.2,1.5,0.2,2.2,0.4c-0.3-6.2-5-11-11.8-12.2v2C572,213,575.8,216.9,576,221.9z"/>
						<path class="st5" d="M559.1,255.5c0.4-0.4,1-1,1.4-1.4c-0.5-0.3-1.2-0.9-2.1-1.9c-4.7-5.5-1.2-13.3,7.9-12.5v-2
							c-8.2-0.9-12.1,4.6-12.4,8.6C553.8,248.8,554.7,252.3,559.1,255.5z"/>
						<path class="st5" d="M558.6,279.9c-5-5.6-1.5-13.6,7.7-12.8v-2c-8.7-0.8-11.8,4.8-12.3,7.9c-0.2,1.3-0.1,2.7,0.4,4
							c3.1,9,18.8,12.9,23.1,3.4c-0.7-0.3-1.5-0.7-2.1-1C571.7,286.6,562.2,284.1,558.6,279.9z"/>
					</g>
					<g class="st6">
						<path class="st7" d="M591.2,289.6c3.1,0.8,6.1,1.7,9,2.7l0.1-40.7c-2.9-1-5.9-1.9-9-2.7L591.2,289.6z"/>
						<path class="st7" d="M602.1,293c2.9,1,5.7,2.1,8.4,3.2l0.2-73.5c-2.7-1.2-5.5-2.2-8.4-3.2L602.1,293z"/>
						<path class="st7" d="M612.4,297.1c2.7,1.2,5.2,2.4,7.7,3.7l0.2-52.9c-2.5-1.3-5.1-2.5-7.7-3.7L612.4,297.1z"/>
						<path class="st7" d="M621.9,234.8l-0.2,66.9c1.1,0.6,2.1,1.2,3.2,1.7c1.3,0.7,2.7,1.6,3.9,2.3l0.2-66.9
							c-1.2-0.8-2.6-1.6-3.9-2.3C624.1,235.9,623,235.3,621.9,234.8z"/>
						<path class="st7" d="M630.3,306.8c2.2,1.4,4.3,3,6.3,4.5l0.1-35.1c-2-1.6-4.1-3.1-6.3-4.5L630.3,306.8z"/>
						<path class="st7" d="M638.1,312.3c1.9,1.6,3.8,3.2,5.5,4.9l0.2-60.3c-1.7-1.7-3.6-3.3-5.5-4.9L638.1,312.3z"/>
						<path class="st7" d="M644.7,318.4c1.7,1.7,3.2,3.4,4.7,5.2l0.2-45.4c-1.4-1.7-3-3.5-4.7-5.2L644.7,318.4z"/>
						<path class="st7" d="M650.4,324.8c1.4,1.8,2.7,3.7,3.7,5.5l0.2-66.2c-1.1-1.8-2.3-3.7-3.7-5.5L650.4,324.8z"/>
						<path class="st7" d="M654.9,331.6c1.1,1.9,2,3.8,2.7,5.7l0.1-24.9c-0.7-1.9-1.7-3.9-2.7-5.7L654.9,331.6z"/>
						<path class="st7" d="M658.2,323.5l-0.1,15.2c0.7,2,1.3,4,1.7,6l0.1-15.2C659.4,327.5,658.8,325.5,658.2,323.5z"/>
						<path class="st7" d="M558.8,224.8c-5.1-5.6-1.2-13.1,6.6-12.9c0.3,0,0.7,0.1,1,0.1v-2c-11.2-1-15.6,9.1-9.6,15.8
							c6.2,6.8,20.7,7.2,21.4-3.6c-0.7-0.2-1.5-0.2-2.2-0.4C575.5,230.7,563.7,230.4,558.8,224.8z"/>
						<path class="st7" d="M566.3,237.8v2c9.4,1.7,12.5,11.3,6.8,15.2c-2.8,2-8.1,2.3-12.6-0.8l-1.4,1.4c9.5,6.4,21,1.7,18.9-7.6
							C577.6,246.5,575.6,239.4,566.3,237.8z"/>
						<path class="st7" d="M566.2,265.2v2c8.1,1.4,10.7,8.1,9.1,12.3c0.7,0.3,1.5,0.7,2.1,1C579.5,275.4,576,266.9,566.2,265.2z"/>
					</g>
				</g>
			</g>
		</g>
	</g>
	<g class="st8">
		<path class="st9" d="M434.2,350.6v0.2c9.6-28.5,49-50.8,98.7-55.5v-0.2C483.2,299.9,443.9,322.2,434.2,350.6z"/>
		<path class="st9" d="M435.1,319.1c0,0.1,0,0.2,0,0.2c0.7-1.7,1.5-3.4,2.3-5.1c0-0.1,0-0.2,0-0.2
			C436.5,315.7,435.7,317.4,435.1,319.1z"/>
		<path class="st9" d="M434.3,329.8c0,0.1-0.1,0.1-0.1,0.2v1.1c0-0.1,0-0.1,0.1-0.2V329.8z"/>
		<path class="st9" d="M434.2,350.3V337c0,0.1,0,0.1-0.1,0.2L434.2,350.3C434.2,350.4,434.2,350.4,434.2,350.3z"/>
		<path class="st9" d="M438.6,309.1v-3.2c0,0.1-0.1,0.1-0.1,0.2v3.2C438.5,309.2,438.6,309.1,438.6,309.1z"/>
		<path class="st9" d="M438.5,341.1v-11.6c0,0.1-0.1,0.1-0.1,0.2v11.6C438.5,341.2,438.5,341.1,438.5,341.1z"/>
		<path class="st9" d="M444.9,332.4v-5.2c0,0.1-0.1,0.1-0.1,0.2v5.2C444.8,332.4,444.9,332.4,444.9,332.4z"/>
		<path class="st9" d="M453,302.5c0.1-0.1,0.1-0.1,0.2-0.1v-4.1c-0.1,0.1-0.1,0.1-0.2,0.1V302.5z"/>
		<path class="st9" d="M453.2,292.1v-8.2c-0.1,0.1-0.1,0.1-0.2,0.2v8.2C453.1,292.2,453.2,292.1,453.2,292.1z"/>
		<path class="st9" d="M533,206.9c-5.4,0.6-10.7,1.2-15.9,2.2c-0.1,0-0.2,0-0.2,0.1c-5.2,0.9-10.1,2.1-15,3.4
			c-0.1,0-0.2,0.1-0.2,0.1c-4.8,1.3-9.5,2.8-13.9,4.5c-0.1,0-0.2,0.1-0.2,0.1c-4.4,1.7-8.6,3.5-12.7,5.5c-0.1,0-0.2,0.1-0.2,0.1
			c-4,2-7.8,4.1-11.3,6.4c-0.1,0-0.1,0.1-0.2,0.1c-3.5,2.2-6.8,4.7-9.8,7.1c-0.1,0.1-0.1,0.1-0.2,0.2c-3,2.5-5.7,5.2-8.1,7.9
			c0,0.1-0.1,0.1-0.1,0.2c-2.4,2.7-4.5,5.6-6.2,8.6c0,0.1-0.1,0.1-0.1,0.2c-1.7,2.9-3.2,6-4.2,9.1c0,0.1,0,0.1-0.1,0.2l-0.2,55.8
			c-0.6,2-0.8,5.2-0.6,6.7c0.2-0.2,0.2-0.3,0.4-0.6c-0.4,1.9-0.6,4.5-0.4,5.7c0.2,0,0.3-0.1,0.5-0.1c0-0.1,0.1-0.2,0.2-0.3
			c0.4-1.4,0.7-3,0.8-4.8c0.7-2.7,1.7-6.4,2.6-9.1c0.2,0,0.3,0.1,0.5,0.1c1.2-1.3,1.7-3.9,1.7-5.7c0-0.2,0-0.5,0-0.7
			c1.2-3.2,2.7-7.5,4-10.6c0.6,0,0.7,0,1-0.4v5c-1.8,2.1-3.5,4.2-4.9,6.5c0,0.1,0,0.2,0,0.2c1.5-2.2,3.1-4.4,4.9-6.5v14.5
			c-1.8,2.1-3.5,4.3-5,6.5c-0.2-1.5-0.2-1.5-0.6-1.8c-0.4,0.2-0.5,0.2-0.7,0.5v-8c0,0.1-0.1,0.1-0.1,0.2v8c-0.6,1.2-0.9,2.4-1.2,4.3
			c-0.7,1.1-1.7,2.6-2.3,3.7c0-0.2-0.1-0.7-0.1-0.9c-0.2-0.1-0.3-0.1-0.4-0.2c-0.1,0.2-0.2,0.4-0.2,0.6c-0.6,2-0.8,5.4-0.6,6.8
			c0.2-0.1,0.4-0.3,0.5-0.6c0.2-0.4,0.4-1.2,0.6-2.6v0.1c0.7-1.8,1.5-3.6,2.4-5.3c0.2,0.2,0.3,0.6,0.5,0.7c0.3-0.1,0.7-0.3,0.8-0.6
			c0.3-0.6,0.7-1.3,1.1-3.2c1.1-0.3,2.5-0.7,3.6-1.1c-0.2,1.8,0.2,2.1,0.7,2.4c0.3-0.1,0.7-0.3,0.9-0.6c1.2-1.6,1.9-3.7,1.7-5.7
			c1.1-2.6,2.4-6.1,3.5-8.6c1-0.9,2-1.7,3-2.7v14.2c0.1-0.1,0.1-0.1,0.2-0.2v-14.2c3-2.5,6.2-4.9,9.8-7.1v14.2
			c0.1,0,0.1-0.1,0.2-0.1V303c3.5-2.2,7.3-4.4,11.3-6.4v14.2c0.1,0,0.2-0.1,0.2-0.1v-14.2c4-2,8.2-3.8,12.7-5.5v14.2
			c0.1,0,0.2-0.1,0.2-0.1V291c4.4-1.7,9.1-3.2,13.9-4.5v14.2c0.1,0,0.2-0.1,0.2-0.1v-14.2c4.8-1.3,9.8-2.4,15-3.4v14.2
			c0.1,0,0.2,0,0.2-0.1v-14.2c5.2-0.9,10.5-1.7,15.9-2.2V295c0.1,0,0.2,0,0.2,0l0.2-88C533.2,206.9,533.1,206.9,533,206.9z
			 M433.9,336.2c-0.2-0.4-0.1-2.7,0.3-3.8c0,0,0-0.1,0.1-0.2c0,0.1,0,0.1-0.1,0.2v3.5C434.1,336,434,336.4,433.9,336.2z
			 M434.3,335.7v-3.4c0.1-0.2,0.2-0.3,0.2-0.2C434.8,332.4,434.6,334.4,434.3,335.7z M434.8,334.4L434.8,334.4
			c0.1-0.3,0.1-0.8,0.2-1.4l1.7-2.9C436,331.5,435.4,332.9,434.8,334.4z M438.5,324.8v2c-0.2,0.4-0.4,0.7-0.7,1.2
			C437.7,327.1,438,325.6,438.5,324.8z M438.5,326.9c0.2-0.3,0.4-0.7,0.6-1c-0.1,0.7-0.3,1.6-0.6,2.2V326.9z M437.9,328.3
			L437.9,328.3c0.2-0.5,0.4-0.8,0.7-1.2v1.2C438,329,437.9,328.5,437.9,328.3z M439.2,325.6c-0.2,0.3-0.4,0.7-0.6,1v-2
			c0.2-0.3,0.5-0.3,0.6,0.2C439.2,325,439.2,325.3,439.2,325.6z M487.8,217.3c4.4-1.7,9.1-3.2,13.9-4.5v14.5
			c-4.8,1.3-9.5,2.8-13.9,4.5V217.3z M501.6,227.5v5.7c0.1,0,0.2-0.1,0.2-0.1v-5.8c3.3-0.9,6.8-1.7,10.3-2.5
			c-2.5,2.5-5.8,5.9-8.3,8.5c-0.3-0.2-1.1-0.5-2.3-0.2c-1.7,0.6-3,1.9-3.3,3.7c-2.6,0.7-5.1,1.6-7.5,2.4c-0.3-1.7-1.7-2.1-3-1.6
			v-5.7C492.2,230.4,496.8,228.9,501.6,227.5z M501.6,242c-0.7,0.2-1.2,0.3-1.9,0.5c0.1-0.8,0.7-1.7,1.9-2.1V242z M501.6,242.2v1.7
			c-1.1,0.2-1.8-0.2-1.9-1.2C500.3,242.6,500.9,242.4,501.6,242.2z M501.8,242.2c0.6-0.2,1.1-0.3,1.7-0.4c-0.1,1.2-1,1.9-1.7,2.2
			V242.2z M501.8,241.9v-1.5c0.8-0.2,1.6,0.3,1.7,1.1C502.9,241.7,502.4,241.8,501.8,241.9z M499.1,240.7c-0.9,1.2-1,2.2-1,2.5v0.2
			c-2.5,1.6-5.9,3.7-8.3,5.4c-0.8-0.5-1.3-0.5-2.4-0.2c-1.4,0.7-2.3,1.6-2.9,3.1l-2.8-2.6c1.9-0.8,3.8-1.6,5.7-2.3v1.7
			c0.1,0,0.2-0.1,0.2-0.1v-1.7c3.4-1.2,6.9-2.4,10.5-3.5c0-0.1,0-0.2,0-0.2c-3.6,1.1-7.1,2.2-10.5,3.5v-2.5c-0.1,0-0.2,0.1-0.2,0.1
			v2.5c-2,0.7-4,1.6-5.9,2.4l-1.2-1.1c1.4-1.2,3.3-2.9,4.7-4.1c1.7,1.3,4.6-0.3,5.5-3c2.5-0.9,5.1-1.7,7.7-2.5
			c0.5,1,1.3,1.3,2.4,1.2C500.1,239.8,499.6,240.2,499.1,240.7z M487.4,253.4c-1.6,0.5-2.2-0.8-1.5-2.2c0.2-0.3,0.7-1,1.5-1.3V253.4
			z M487.7,249.8c1.2-0.2,1.9,0.7,1.3,2c-0.2,0.6-0.7,1.2-1.4,1.4L487.7,249.8z M474.7,250.6c0.7-0.2,1.2,0.1,1.4,0.8
			c-0.5,0.2-0.9,0.4-1.4,0.7V250.6z M474.5,252.1c-0.5,0.2-1.1,0.5-1.6,0.8c0.1-0.9,0.7-1.9,1.6-2.3V252.1z M474.5,252.4v1.7
			c-0.9,0.4-1.6,0.1-1.6-0.9C473.5,252.9,474,252.6,474.5,252.4z M474.7,252.2c0.5-0.2,0.9-0.4,1.4-0.7c-0.1,1.2-0.8,2-1.4,2.4
			V252.2z M474.8,249.1V246c-0.1,0-0.2,0.1-0.2,0.1v3.2c-0.7,0.3-1.2,0.8-1.7,1.6l-0.6-0.1c0.4-1.3,1.1-3.1,1.5-4.4
			c0.7-0.2,0.9-0.2,1.7-0.7l2.9,2.7c-0.4,0.3-0.9,0.8-1.3,1.2C476.2,248.7,475.3,248.9,474.8,249.1z M474.8,241.2
			c1.1-0.4,1.7,0.3,1.4,1.7c-0.2,0.7-0.6,1.2-0.7,1.3l-0.7,0.2V241.2z M474.5,244.4c-0.2,0.1-0.7,0.2-0.9,0.3
			c-1.1-0.5-0.5-2.7,0.9-3.5V244.4z M479,249l0.7,0.7c-0.8,0.3-1.6,0.7-2.4,1.1c0-0.1,0-0.2,0-0.2L479,249z M489.3,241
			c-0.2,0.8-0.9,1.4-1.6,1.7v-3.5C488.8,238.8,489.7,239.7,489.3,241z M487.6,242.7C487.5,242.7,487.6,242.7,487.6,242.7
			L487.6,242.7z M487.4,242.7c-0.7,0.2-1.2,0.1-1.5-0.5c-0.4-0.8,0.2-2.3,1.5-3V242.7z M501.6,238.2c-1.7,0.4-2.4-1-1.6-2.2
			c0.2-0.3,0.7-0.9,1.6-1.2V238.2z M501.8,234.6c1.3-0.2,2.2,0.9,1.4,2.2c-0.1,0.2-0.6,0.8-1.4,1.2V234.6z M474.8,222.8
			c4-2,8.2-3.8,12.7-5.5v14.5c-4.4,1.7-8.6,3.5-12.7,5.5V222.8z M474.8,237.5c4-2,8.2-3.8,12.7-5.5v5.7c-0.8,0.3-1.6,0.9-2.2,1.7
			c-0.5,0.7-1.1,1.8-0.8,3.2l-5,4.3c-0.9-0.8-2.1-1.9-3-2.7c2.2-3.2,0.6-5.2-1.2-4.8c-0.2,0.1-0.4,0.2-0.7,0.2h0.1V237.5z
			 M463.3,229.3c3.5-2.2,7.3-4.4,11.3-6.4v14.5c-4,2-7.8,4.1-11.3,6.4V229.3z M474.5,237.7v2.2c0,0,0.1,0,0.1-0.1
			c-2.8,1.7-3.5,5-2,6.2l-1.5,4.4c-1.7-0.3-3.9-0.7-5.6-1c0.2-2.6-1.2-2.7-2.3-2.2v-3.3C466.8,241.7,470.5,239.6,474.5,237.7z
			 M462.5,281c-1.2,0.7-1.6-0.3-1.2-1.6c0.3-1.2,1.2-2,1.8-2.2v3.2C462.8,280.7,462.7,280.9,462.5,281z M463.1,277.2
			c0.2,0,0.4,0.2,0.6,0.3c0.3,0.7,0,1.8-0.6,2.7V277.2z M463.1,280.3C463.1,280.3,463.1,280.4,463.1,280.3
			C463.1,280.4,463.1,280.3,463.1,280.3z M463.1,275.7v-2.3c0.2-0.2,0.6-0.3,0.8-0.6L463.1,275.7z M463.1,273.2v-14.5
			c2.1-1.3,4.2-2.6,6.5-3.8c-1.5,4.5-3.5,10.7-5.6,17.7C463.8,272.8,463.5,273,463.1,273.2z M463.2,258.5v-4.9
			c-0.1,0-0.2,0.1-0.2,0.2v4.9c-0.9,0.6-1.9,1.2-2.8,1.8c0.6-1.9,1.3-4.5,1.9-6.4c0.5-0.2,0.5-0.2,0.9-0.4c0.4-0.3,1.3-0.9,2.1-2.6
			c1.7,0.2,3.8,0.7,5.5,0.9l-0.8,2.5C467.6,255.9,465.3,257.1,463.2,258.5z M464.4,250.2c-0.2,0.7-0.6,1.5-1.2,2v-3.4
			C464.1,248.3,464.6,249,464.4,250.2z M463.1,252.3c-1.2,0.7-1.7-0.3-1.2-1.6c0.2-0.6,0.6-1.4,1.3-1.9L463.1,252.3z M453.3,236.6
			c3-2.5,6.2-4.9,9.8-7.2v14.5c-3.5,2.2-6.8,4.7-9.8,7.1V236.6z M453.3,251.3c3-2.5,6.2-4.9,9.8-7.1v3.3c-2.2,1.7-3.2,5-1.8,6.4
			c-0.7,2.2-1.5,5.2-2.2,7.4c-2.1,1.5-4,3-5.8,4.5V251.3z M445.1,244.7c2.4-2.7,5.1-5.4,8.1-7.9v14.5c-3,2.5-5.7,5.2-8.1,7.9V244.7z
			 M445.1,259.4c2.4-2.7,5.1-5.4,8.1-7.9v14.5c-3,2.5-5.7,5.2-8.1,7.9V259.4z M438.8,253.4c1.7-2.9,3.8-5.8,6.2-8.6v14.5
			c-2.4,2.7-4.5,5.6-6.2,8.6V253.4z M438.7,268c1.7-2.9,3.8-5.8,6.2-8.6v14.5c-2.4,2.7-4.5,5.6-6.2,8.6V268z M434.5,262.6
			c1.1-3.1,2.5-6.2,4.2-9.1V268c-1.7,2.9-3.2,6-4.2,9.1V262.6z M434.5,277.3c1.1-3.1,2.5-6.2,4.2-9.1v14.5c-1.7,2.9-3.2,6-4.2,9.1
			V277.3z M434.4,292c1.1-3.1,2.5-6.2,4.2-9.1v14.5c-1.7,2.9-3.2,6-4.2,9.1V292z M434.4,306.7c1.1-3.1,2.5-6.2,4.2-9.1v2.2l0.1-0.2
			v-2.2v-0.2v-14.5c1.7-2.9,3.8-5.8,6.2-8.6v9.1l0.1-0.2V274c2.4-2.7,5.1-5.4,8.1-7.9v11.6l0.2-0.1V266c1.8-1.5,3.7-3,5.7-4.5
			c-2,7.1-2.4,8.7-4.3,16c-0.4-0.2-0.8-0.4-1.7,0.2c-1,0.9-1.5,2-1.9,3.7c-1.3,0.8-3.1,1.9-4.4,2.8c-0.2-2.5-1.4-1.5-1.7-1.1
			c-1.3,1.7-1.8,4.4-1.6,5.9l-1.2,2.7c-1.3,1.7-2.6,3.6-3.7,5.4v0.2c1-1.7,2.2-3.4,3.4-5.1c-0.7,2.1-1.9,4.8-2.6,7
			c-0.2,0-0.3,0-0.4,0c-0.2,0.2-0.3,0.4-0.5,0.6c-1.2,2.2-1.3,5.1-1.1,6.3c-2.6,10.2-2.7,10.6-3.2,11.9L434.4,306.7z M453.3,279
			c0.5-0.3,0.9-0.1,1,0.7c-0.3,0.2-0.7,0.6-1,0.8V279z M453.1,280.7c-0.4,0.3-0.7,0.7-1.2,1c0.1-0.8,0.5-1.9,1.2-2.5V280.7z
			 M453.1,280.9v1.7c-0.7,0.5-1.2,0.2-1.2-0.7C452.3,281.6,452.7,281.2,453.1,280.9z M453.3,280.7c0.3-0.3,0.7-0.6,1.1-0.8
			c0,1.2-0.6,2.2-1.1,2.6V280.7z M449.4,283.9c-1.1,1.1-2.2,2.2-3.2,3.2c0.2-0.4,0.2-0.8,0.4-1.3L449.4,283.9z M444,287.6
			c-0.1-1,0.3-2.2,0.8-2.8v3.5C444.4,288.6,444.1,288.4,444,287.6z M445,284.6c0.7-0.7,1,0,1,0.7c0,0.7-0.2,2-1,2.8V284.6z
			 M438.5,304.8c-0.4,0.6-0.6,0.3-0.7,0c-0.2-0.7,0.1-2.6,0.7-3.5V304.8z M438.6,301.1c0.2-0.3,0.5-0.3,0.6,0.2
			c0.2,0.7-0.2,2.4-0.6,3.3V301.1z M434.3,321.2v-1.7c0.1-0.2,0.2-0.3,0.2-0.2c0.1,0.2,0.1,0.7,0.1,0.8
			C434.6,320.5,434.5,320.8,434.3,321.2z M434.7,320.4c0,0.8-0.2,1.9-0.4,2.6v-1.5C434.4,321.1,434.6,320.7,434.7,320.4z M434,323.5
			c-0.2-0.4,0-2.7,0.3-3.8c0,0,0-0.1,0.1-0.2c0,0.1,0,0.1-0.1,0.2v3.5C434.2,323.3,434.1,323.6,434,323.5z M434.3,328.4v-3.5
			c0,0.1,0,0.1-0.1,0.2v3.5c-0.1,0.2-0.2,0.3-0.2,0.2c-0.2-0.4,0-2.9,0.3-3.8c0.1-0.2,0.2-0.6,0.3-0.3
			C434.9,325,434.7,327.1,434.3,328.4z M438.1,314.2c-0.2-0.2-0.2-0.7-0.2-0.8c0.2-0.3,0.4-0.7,0.6-1v1.7
			C438.4,314.2,438.2,314.3,438.1,314.2z M438.6,310.4c0.4-0.7,0.6-0.2,0.7,0c0,0.1,0,0.2,0.1,0.4c-0.2,0.4-0.5,0.7-0.7,1.2V310.4z
			 M438,313.2c0.1-0.9,0.2-1.9,0.6-2.5v1.5C438.3,312.4,438.1,312.7,438,313.2z M438.6,313.9v-1.7c0.2-0.4,0.5-0.7,0.7-1.2
			C439.3,312.2,439,313.3,438.6,313.9z M443.4,298.2c-1.2,3.2-2.7,7.3-3.8,10.5c-0.2,0-0.3-0.1-0.4-0.2c-1.7,1.5-1.7,5.7-1.7,5.8
			c0,0.2,0,0.5,0,0.7c-0.7,2.6-1.7,6-2.4,8.6c0-0.2-0.1-0.3-0.1-0.5c-0.1,0-0.2-0.1-0.4-0.1c0.3-1.2,0.5-2.6,0.5-3.9
			c0-0.5,0-0.7-0.1-1.2c0.7-3.4,1.9-8,2.8-11.3c0.5-0.2,0.5-0.2,0.7-0.6c0.9-1.8,1.5-4.3,1.2-6.1c1.1-2.8,2.5-6.7,3.7-9.5
			c0.2-0.2,0.3-0.3,0.4-0.5c0.6-0.1,0.7-0.2,1-0.5v2.6c0-0.1,0.1-0.1,0.1-0.2v-2.6c0.2-0.2,0.7-1,1.2-2.2c0,0.1-0.1,0.2-0.1,0.2
			c1.2-1.4,2.7-2.7,4.1-4.2c0.2-0.2,0.6-0.3,0.8-0.5c0.2,2,1.2,1.7,2.1,1.1c1.9-1.8,2.2-4.2,2.2-4.9v-0.3c2.2-8,2.7-10.1,4.9-18
			c0.9-0.7,1.9-1.3,2.9-1.9v14.5c-2.7,1.7-5.3,3.7-7.7,5.6c0,0.1,0,0.2,0,0.2c2.4-1.9,5-3.7,7.7-5.6v2.3c-2.8,1.6-3.4,5.2-2.6,6.4
			c-1.7,2.8-3.9,6.6-5.6,9.6c-0.5-0.2-0.8-0.4-1.7,0.2c-0.5,0.5-1,1-1.7,2.6c-1.5-0.1-3.5-0.1-5-0.2c0.4-2.3-0.1-2.7-0.7-3.1
			c-0.3,0.1-0.7,0.3-1,0.6C443.6,293.9,443.1,296.5,443.4,298.2z M453,295.5v1.5c-0.5,0.3-0.9,0.1-1-0.7
			C452.3,296.1,452.7,295.9,453,295.5z M452,296.2c0-1.2,0.6-2.2,1-2.6v1.7C452.7,295.6,452.3,295.9,452,296.2z M453.2,295.4
			c0.4-0.3,0.7-0.7,1.2-1c-0.1,0.8-0.5,1.8-1.2,2.5V295.4z M453.2,295.2v-1.7c0.7-0.5,1.2-0.2,1.2,0.7
			C454,294.5,453.6,294.9,453.2,295.2z M445,293.4c0.7-0.7,1,0,1,0.7c0,0.7-0.2,2-1,2.8V293.4z M444,296.4c-0.1-1,0.3-2.2,0.8-2.8
			v3.5C444.4,297.4,444.1,297.2,444,296.4z M443.9,325.5c-0.1-0.8,0.3-2.2,0.9-3v3.5C444.1,326.6,443.9,326,443.9,325.5z
			 M444.9,325.7v-3.4c0.4-0.4,0.8-0.2,0.8,0.6C445.8,323.8,445.4,325,444.9,325.7z M446.2,320.6c-0.3-0.2-0.7-0.3-1.3,0.4
			c-0.3,0.4-0.8,1.1-1.3,2.7c-1.1,0.2-2.6,0.7-3.6,1c1.5-2.2,3.1-4.4,4.9-6.5v2.7c0,0,0.1-0.1,0.1-0.2v-2.7c1.2-1.3,2.5-2.7,3.8-4
			C447.9,316.1,446.9,318.7,446.2,320.6z M448.9,313.7c-1.4,1.3-2.7,2.7-4,4.2v-14.5c1.9-2.2,3.9-4.2,6.2-6.2c0-0.1,0-0.2,0-0.2
			c-2.2,2-4.2,4.1-6.2,6.2v-5c0.5-0.7,0.7-1,1.2-2.2c1.5,0,3.5,0.1,5,0.1c0,0.2-0.1,0.6-0.1,0.7c0.1,2.2,1.3,1.8,2.1,1.3
			c1.9-1.9,2.2-4.2,2.2-4.9c0-0.2,0-0.5-0.1-0.7c1.7-3,4.1-7.1,5.9-10c3-0.2,4.8-5.6,3.1-6.8c0,0-0.1,0-0.1-0.1l1.2-3.7
			c2.7-1.6,5.4-3.2,8.2-4.6c0.3-0.3,0.6-0.5,1-0.7c0.1,0,0.2-0.1,0.2-0.1c-0.1,0-0.2,0.1-0.2,0.1c-3,1.7-3.7,5.7-1.7,6.4
			c-3.9,8.1-3.9,8.1-5.8,12.3c-1.3,0.7-2.6,1.6-3.8,2.3v-6.2c-0.1,0.1-0.1,0.1-0.2,0.2v6.1c-2.7,1.7-5.2,3.6-7.6,5.4
			c0,0.1,0,0.2,0,0.2c2.4-1.9,4.9-3.7,7.6-5.4v2.5c0.1,0,0.1-0.1,0.2-0.1V288c1.2-0.7,2.4-1.5,3.7-2.2c-0.7,1.4-1.5,3.3-2.2,4.7
			c-2-0.8-4.1,2.1-4.3,4.9v0.1c-1.7,2-4,4.7-5.6,6.8c-0.4-0.3-0.8-0.7-1.7,0.2c-2.1,2.1-2.2,5-1.9,6.1L448.9,313.7z M474.5,271.8
			c-1.3,0.6-1.9-0.6-1.4-1.9c0.2-0.3,0.5-1.2,1.4-1.7V271.8z M474.7,268.2c1.1-0.3,1.7,0.6,1.2,1.9c-0.2,0.7-0.7,1.2-1.2,1.6V268.2z
			 M462.8,295.7c-1.2,0.7-1.7-0.3-1.2-1.6c0.2-0.9,0.8-1.7,1.4-2v3.5C462.9,295.6,462.8,295.7,462.8,295.7z M463.1,292
			c0.3-0.2,0.7-0.1,0.9,0.2c0.5,0.8-0.1,2.4-0.9,3.2V292z M453,307.4c-0.9,0.7-1.2,0-1.2-1.1c0.1-0.7,0.5-1.8,1.2-2.4V307.4z
			 M453.2,303.8c0.7-0.4,1.1,0,1.1,1c-0.1,0.8-0.5,1.8-1.1,2.4V303.8z M462.9,302.8c-3.5,2.2-6.8,4.7-9.8,7.1v-1.2
			c-0.1,0.1-0.1,0.1-0.2,0.2v1.2c-1,0.8-1.9,1.7-2.8,2.5c0.4-1,1-2.3,1.5-3.3c0.4,0.1,0.7,0.1,1.3-0.4c1.7-1.6,2.2-3.9,2.2-5.4
			c1.7-2,3.8-4.7,5.5-6.7c0.7,0.9,1.5,0.7,2.3,0.2V302.8z M474.4,296.3c-4,2-7.8,4.1-11.3,6.4v-5.8l-0.1,0.1c1.1-0.7,2-2.3,2.2-3.7
			c0.2-0.9,0.1-1.4,0-1.7c0.9-2,2.1-4.6,3-6.6c2-1.2,4.1-2.2,6.2-3.3L474.4,296.3z M487.3,290.7c-4.4,1.7-8.6,3.5-12.7,5.5v-14.5
			c4-2,8.2-3.8,12.7-5.5V290.7z M501.5,286.1c-4.8,1.3-9.5,2.8-13.9,4.5v-14.5c4.4-1.7,9.1-3.2,13.9-4.5V286.1z M532.8,265.8
			c-4.2,0.4-8.2,0.9-12.2,1.6c0,0.1,0,0.2,0,0.2c4-0.7,8.1-1.2,12.1-1.6v14.5c-5.4,0.5-10.7,1.2-15.9,2.2v-11.4c-0.1,0-0.2,0-0.2,0
			v11.4c-5.2,0.9-10.1,2.1-15,3.4v-14.5c3.7-1,7.6-1.9,11.6-2.7c0-0.1,0-0.2,0-0.2c-4,0.8-7.8,1.7-11.6,2.7v-7
			c-0.1,0-0.2,0.1-0.2,0.1v7c-4.8,1.3-9.5,2.8-13.9,4.5v-1.5c-0.1,0-0.2,0.1-0.2,0.1v1.5c-4.4,1.7-8.6,3.5-12.7,5.5V273
			c-0.1,0-0.2,0.1-0.2,0.1v8.5c-2.1,1-4.1,2.1-6.1,3.2c5.4-11.3,5.4-11.3,6.1-11.6c0.7-0.4,1.5-0.8,2.3-2.4c2.3,0.3,5.3,0.7,7.6,1
			c-0.6,3.2,2.1,3.6,4.1,2.2c1.4-1,2.3-2.7,2.2-4c2.4-1.8,5.7-4.2,8.1-6c0.5,0.3,1.2,0.9,2.7,0.5c0.8-0.2,1.2-0.5,2.1-1.2
			c3,1.3,7,3.2,10,4.5c-0.2,0.5-0.2,0.7-0.2,1.1c0.3,2.7,2.7,2.6,3.7,2.4c2.2-0.6,3.5-1.8,3.7-3.7c-0.2-2.7-2.9-2.6-3.7-2.5
			c-1.2,0.2-1.8,0.7-2.6,1.4c-2.9-1.3-6.9-3.2-9.8-4.5c1.2-2.7-0.7-4.3-3-3.7c-3.8,1.4-3.3,4.6-3.3,4.6c-2.4,1.7-5.6,4.1-8,5.9
			c-1.7-1.7-4.1-0.1-5.2,1.5c-2.3-0.3-5.4-0.7-7.7-1.1c0.2-2.3-1.1-2.9-2.4-2.5c0.2-0.1,0.3-0.1,0.5-0.1c3.8-1.8,7.7-3.6,11.9-5.1
			v6.7c0.1,0,0.2-0.1,0.2-0.1v-6.7c4.4-1.7,9.1-3.2,13.9-4.5v1.2c0.1,0,0.2-0.1,0.2-0.1v-1.2c4.8-1.3,9.8-2.4,15-3.4V265
			c0.1,0,0.2,0,0.2-0.1v-11.6c5.2-0.9,10.5-1.7,15.9-2.2L532.8,265.8z M489.1,271.4c-0.2,0.8-0.9,1.3-1.6,1.7v-3.5
			C488.8,269.2,489.6,270.1,489.1,271.4z M487.5,273.1c-0.1,0-0.1,0-0.2,0.1C487.4,273.1,487.5,273.1,487.5,273.1z M487.3,273.1
			c-0.7,0.2-1.2,0.1-1.5-0.5c-0.4-0.8,0.2-2.3,1.5-3V273.1z M503.1,261.8c-0.3,0.5-0.8,0.9-1.4,1.2v-3.4
			C503.1,259.4,503.9,260.5,503.1,261.8z M501.5,263.1c-1.7,0.4-2.3-1-1.6-2.2c0.2-0.3,0.7-0.9,1.6-1.2V263.1z M516.9,268.2
			c0.7-0.1,1.4-0.2,2.1-0.3c-0.1,1-0.9,1.8-2.1,2.1V268.2z M516.9,267.9v-1.5c1.3-0.2,1.9,0.5,2.1,1.2
			C518.3,267.7,517.7,267.8,516.9,267.9z M516.7,268c-0.6,0.1-1.2,0.2-1.7,0.3c0.2-0.9,0.9-1.6,1.7-1.8V268z M516.7,268.2v1.7
			c-0.8,0.1-1.7-0.3-1.8-1.4C515.5,268.4,516.1,268.3,516.7,268.2z M532.9,236.3c-5.4,0.5-10.7,1.2-15.9,2.2v-14.4
			c-0.1,0-0.2,0-0.2,0v14.4c-4,0.7-8,1.6-11.8,2.6c0,0.1,0,0.2,0,0.2c3.8-1,7.7-1.8,11.8-2.5v1.7c0.1,0,0.2,0,0.2-0.1v-1.7
			c5.2-0.9,10.5-1.7,15.9-2.2v14.5c-5.4,0.5-10.7,1.2-15.9,2.2v-6.5c-0.1,0-0.2,0-0.2,0v6.5c-5.2,0.9-10.1,2.1-15,3.4v-11.4
			c-0.1,0-0.2,0.1-0.2,0.1v11.4c-4.8,1.3-9.5,2.8-13.9,4.5v-6.5c-0.1,0-0.2,0.1-0.2,0.1v6.5c-4.4,1.7-8.6,3.5-12.7,5.5v-11.4
			c-0.1,0-0.2,0.1-0.2,0.1v11.4c-3.2,1.6-6.2,3.2-9.1,5c1.5-4.7,3.2-10.5,5.7-17.7c0.2-0.1,0.5-0.2,0.7-0.3c0-0.1,0-0.2,0-0.2
			c-0.2,0.1-0.4,0.2-0.6,0.3l0.6-1.7c0.1,0,0.2,0.1,0.3,0.1c-0.1,0.3-0.2,0.8-0.2,1.5c0.1,1.7,1.2,2.4,2.8,1.7
			c1.1-0.6,2.8-2.2,2.9-4.5c0.8-0.4,1.7-0.7,2.6-1.2c6,5.4,6,5.4,7.4,5c2.6-1.2,3.5-3.5,3.1-5.1c2.4-1.6,5.7-3.7,8.1-5.2
			c0.5,0.6,1.1,1.2,3,0.8c1.4-0.5,2.1-1.1,2.8-2.1c2.7,0.2,6.3,0.6,9.1,0.9c0.2,2.7,2.6,2.7,3.7,2.6c4.2-1.1,4.3-4.6,2.7-5.7
			c-0.9-0.6-1.8-0.5-2.6-0.5c-1.7,0.4-2.4,1.1-3.2,2.2c-2.7-0.2-6.2-0.7-8.9-0.9c0-0.2,0.1-0.4,0.1-0.6c-0.2-1.7-1.4-2.4-2.7-2.3
			c1.2-0.6,2.2-1.5,2.6-2.5c0.3-1.1,0.1-1.8-0.1-2.1c2.9-3,6.8-7,9.7-9.9c0.6-0.1,1.2-0.2,1.7-0.3c-0.1,0-0.1,0-0.1,0
			c0.2,0,0.6,0,0.9-0.1c0.4-0.1,0.8-0.2,1.2-0.4c-0.2,0.1-0.2,0.1-0.4,0.2c4.9-0.8,10-1.6,15-2.1L532.9,236.3z M517,241.8
			c1.8-0.2,2.6,1.2,1.7,2.4c-0.4,0.6-1,0.9-1.7,1.1V241.8z M516.8,245.4c-1.5,0.1-2.3-1.2-1.4-2.5c0.4-0.5,0.9-0.8,1.4-0.9V245.4z
			 M517.1,222.8v-3.5c1.8-0.2,2.6,1.2,1.7,2.4C518.4,222.2,517.9,222.6,517.1,222.8z M516.9,222.8c-1.5,0.1-2.3-1.2-1.4-2.5
			c0.4-0.5,0.9-0.8,1.4-0.9V222.8z M515.1,224c0.2,0.1,0.4,0.1,0.6,0.2h-0.1c0,0,0,0-0.1,0c-0.2,0.1-0.5,0.1-0.7,0.2
			C514.9,224.2,515,224,515.1,224z M533,221.6c-4.9,0.5-9.6,1.1-14.3,1.9c2.3-1.2,2.8-4,1.1-5.2c-0.7-0.5-1.6-0.7-2.6-0.5
			c-2.9,0.6-4.6,3.5-3.2,5.3l-1.5,1.5c-3.7,0.7-7.1,1.6-10.6,2.5v-14.5c4.8-1.3,9.8-2.4,15-3.4v8.6c0.1,0,0.2,0,0.2-0.1v-8.6
			c5.2-0.9,10.5-1.7,15.9-2.2V221.6z"/>
	</g>
	<path class="st10" d="M660.4,256c-3.7-13.5-14.5-26.4-32.6-36.8c-21.6-12.5-49.5-19-77.9-19.6v99.6c28.3,0.6,56.3,7.1,77.9,19.6
		c18,10.4,28.8,23.4,32.6,36.8V256z"/>
	<path class="st10" d="M463.3,219c-17.9,10.3-28.7,23.1-32.5,36.5v99.6c3.8-13.4,14.6-26.2,32.5-36.5c21.6-12.5,49.5-19,77.9-19.6
		v-99.6C512.9,200.1,484.8,206.6,463.3,219z"/>
	
		<linearGradient id="SVGID_1_" gradientUnits="userSpaceOnUse" x1="545.9045" y1="341.0962" x2="544.7015" y2="565.0071" gradientTransform="matrix(1 0 0 -1 0 828)">
		<stop  offset="0" style="stop-color:#F1F4FE"/>
		<stop  offset="0.58" style="stop-color:#F7F9FE"/>
		<stop  offset="1" style="stop-color:#FFFFFF"/>
	</linearGradient>
	<path class="st11" d="M639.4,340.3c-25.9-15-59.9-22.4-93.8-22.4c-33.9,0-67.8,7.5-93.8,22.4c-25.9,15-38.8,34.5-38.8,54.1v70.4
		c0,19.6,13,39.2,38.8,54.1c25.9,15,59.9,22.4,93.8,22.4c33.9,0,67.8-7.5,93.8-22.4c25.9-15,38.8-34.5,38.8-54.1v-70.4
		C678.2,374.9,665.2,355.3,639.4,340.3z"/>
	
		<linearGradient id="SVGID_2_" gradientUnits="userSpaceOnUse" x1="545.3452" y1="394.3319" x2="544.7812" y2="547.7159" gradientTransform="matrix(1 0 0 -1 0 828)">
		<stop  offset="0" style="stop-color:#DEE6FF"/>
		<stop  offset="0.58" style="stop-color:#EBF1FF"/>
		<stop  offset="1" style="stop-color:#EEF3FF"/>
	</linearGradient>
	<path class="st12" d="M545.2,317.9c-33.9,0-67.8,7.5-93.8,22.4c-25.9,15-38.8,34.5-38.8,54.1c0,19.6,13,39.2,38.8,54.1
		c25.9,15,59.9,22.4,93.8,22.4s67.8-7.5,93.8-22.4c25.9-15,38.8-34.5,38.8-54.1c0-19.6-13-39.2-38.8-54.1
		C613.1,325.4,579.1,317.9,545.2,317.9z"/>
	
		<linearGradient id="SVGID_3_" gradientUnits="userSpaceOnUse" x1="681.6038" y1="464.0545" x2="403.9478" y2="415.6475" gradientTransform="matrix(1 0 0 -1 0 828)">
		<stop  offset="0" style="stop-color:#2C78F6"/>
		<stop  offset="1" style="stop-color:#00BFE7"/>
	</linearGradient>
	<path class="st13" d="M545.2,314c-32.7,0-65.3,7.2-90.3,21.6c-24.9,14.4-37.4,33.3-37.4,52.1c0,18.9,12.5,37.7,37.4,52.1
		c24.9,14.4,57.6,21.6,90.3,21.6c32.7,0,65.3-7.2,90.3-21.6c24.9-14.4,37.4-33.3,37.4-52.1c0-18.9-12.5-37.7-37.4-52.1
		C610.6,321.2,577.9,314,545.2,314z"/>
	<g class="st4">
		<path class="st14" d="M545.2,456c-31.6,0-61.3-7.1-83.7-20c-22.9-13.2-35.4-30.9-35.4-49.9c0-19,12.6-36.7,35.4-49.9
			c22.4-13,52.1-20,83.7-20c31.6,0,61.3,7.1,83.7,20c22.9,13.2,35.4,30.9,35.4,49.9c0,19-12.6,36.7-35.4,49.9
			C606.6,448.8,576.8,456,545.2,456z M545.2,321.5c-30.7,0-59.4,6.9-81.1,19.4c-21.1,12.2-32.8,28.3-32.8,45.2
			c0,17,11.6,33.1,32.8,45.2c21.6,12.5,50.4,19.4,81.1,19.4c30.7,0,59.4-6.9,81.1-19.4c21.1-12.2,32.8-28.3,32.8-45.2
			c0-17-11.6-33.1-32.8-45.2C604.6,328.4,575.9,321.5,545.2,321.5z"/>
	</g>
	<path class="st15" d="M545.2,453.7c-31.2,0-60.5-7-82.6-19.8c-22.1-12.8-34.3-29.8-34.3-48c0-18.1,12.2-35.2,34.3-48
		c22-12.7,51.4-19.8,82.6-19.8s60.5,7,82.6,19.8c22.1,12.8,34.3,29.8,34.3,48c0,18.1-12.2,35.2-34.3,48
		C605.7,446.8,576.5,453.7,545.2,453.7z M545.2,319.2c-31,0-60.2,7-82.1,19.6c-21.9,12.6-33.9,29.3-33.9,47.1
		c0,17.8,12.1,34.6,33.9,47.1c21.9,12.6,51.1,19.6,82.1,19.6c31,0,60.2-7,82.1-19.6c21.9-12.6,33.9-29.3,33.9-47.1
		c0-17.8-12.1-34.6-33.9-47.1C605.5,326.2,576.3,319.2,545.2,319.2z"/>
	<path class="st16" d="M636.7,284.7c-2.9-8.7-13.7-23.4-20.5-26.4c0,0-2.7-8-14.1-7.6c0,0-1.5-4.4-11.5-4.7c-5,0.2-9.4,1.9-9.4,1.9
		c-7.4-2.6-17.7,2.6-17.7,2.6c-7-1.6-18.9,6.8-18.9,6.8c-7.5,1-7.2,7.2-7.2,7.2s-11.6-1.7-11.2,12.1c0,0-10.3,0.9-11,13.1
		c0,0-8.1,3.7-6.3,13.3c0,0-6.6,4.9-11.1,15c-4.7,10.5-9.1,24-6.2,34.3c0,0-5.2,15.5,0.9,26.5c1.6,2.8,3.3,5,5.2,6.7
		c0,0,4.2,4.7,11.5,7.1c0,0,4.7,11.3,22.3,13.3s31.8-2.5,40-8.6c8.2-6.2,7.3-15.7,7.3-15.7s13.9-5.2,18.1-11c0,0,7.6-3.4,14-9.7
		c6.4-6.3,11.2-16.5,12.6-22.4c1.5-5.9-0.6-8.5-0.6-8.5s10.8-9.6,13.3-17.6c2.5-8,1.4-11.6,1.4-11.6S639.6,293.5,636.7,284.7z"/>
	<path class="st16" d="M492.6,378.7c-6.1-11-0.9-26.5-0.9-26.5c-3-10.2,1.5-23.8,6.2-34.3c4.5-10.1,11.1-15,11.1-15
		c-1.8-9.6,6.3-13.3,6.3-13.3c0.7-12.1,11-13.1,11-13.1c-0.4-13.7,11.2-12.1,11.2-12.1s-0.2-6.2,7.2-7.2c0,0,11.9-8.4,18.9-6.8
		c0,0,10.3-5.2,17.7-2.6c0,0,4.4-1.7,9.4-1.9c0,0-3.1-2.6-8.6-2.7c0,0-9.7-5.7-17-1.8c0,0-12.3-3.2-20.6,2.9c0,0-8.8-2.5-15.5,1.7
		c0,0-11.2-3.4-18.7,4.6c0,0-14.5-3.2-20.7,13.5c0,0-15.5-0.3-21,15.9c0,0-11.3,14-6.4,33.4c0,0-4.7,18.9,2.2,30
		c0,0-1.3,6.2,2.8,9.8c0,0-1.3,14,15.5,21.3c0,0,4.8,10.3,14.9,11.1C495.9,383.7,494.1,381.6,492.6,378.7z"/>
	<path class="st17" d="M626.7,280.2c2.2,1.8,7.4,3.2,8.1,7c0.6,3.2,1.9,8.4,3.2,10.4c0.3-2.9,0.4-7.6-1.3-12.8
		c-2.9-8.7-13.7-23.4-20.5-26.4c0,0-6.8,1.9-14.5,0c0,0,5,0.3,13.2-2.4c-1.7-2.3-5.5-5.5-12.7-5.2c0,0-1.5-4.4-11.5-4.7
		c-5,0.2-9.4,1.9-9.4,1.9c-5.2-1.8-11.8,0.2-15.3,1.6c13.1,1.2,17.6,8.1,17.6,8.1c-6.2-6.2-20-7.1-20-7.1
		c-5.4-1.2-13.7,3.6-17.2,5.7c13.6-2.2,25.4,6.3,30.3,7.7c2.7,0.7,7.3,3.1,11.1,5.2c6.2-1.8,4.9-7.7,4.9-7.7s2.6,6.4-3.7,8.4
		c3.1,1.7,5.3,3.1,5.3,3.1s-5.6-1.8-8.1-3.1s-6.2-3.6-9.6-4.5c-3.6-1-7.7-3.1-9.6-3.9c-2-0.8-9.2-5.7-24.1-3.7
		c-4.5,1.2-5.4,4.7-5.6,6.2c2.3,0.4,5.1,0.8,7.8,0.8c0,0-6.2,0.9-10.4,0c-3.2,0.3-8.5,2.2-8.7,10.7c3.8,1.1,12.8,0.7,16,0.3
		c3.4-0.4,5.9-1.9,14.5-1.7c7.1,0.2,11.9,3.2,13.3,4.4c0.8-1.3,1.4-2.7,1.7-3.8c0.4-1.3,0.5-2.3,0.5-2.3s0.2,1,0.2,2.5
		c-0.1,1.5-0.6,3.5-1.7,5.2c-1.1,1.7-2.7,3-4,3.7c-1.2,0.7-2.2,1.1-2.2,1.1s0.7-0.6,1.8-1.6c1-1,2.2-2.3,3.2-3.8
		c-1.4-0.9-8.4-5.1-17.8-3.7c-10.6,1.5-22.1,2.5-25.6,1.2c0,0-10.3,0.9-11,13.1c17.5,8.1,30.6,4.3,37.1,4.1c6.2-0.2,18,2,27.9,9.2
		c8.4-3.2,4-15.9,4-15.9c-0.2-1.2,0.6-7.3,9.6-4.9c0,0-8.1-0.1-7.8,3.7c0.2,3.8,1.8,7.6,0.2,12.7c-1.2,3.7-3.1,5.2-4.1,5.8
		c9.8,8.6,8.6,37.1,8.6,37.1s-1.3-15.1-2.4-19.5c-1-4.4-2.7-14-9.2-18.3c-6.5-4.3-16.5-8.1-22.7-8.1c-5.9,0-9,0.2-14.7,0.5
		c9.5,10.1-3.6,25.6-7,29.3c-2.5,2.8-5.9,9.1-5.9,9.1s1.7-4.9,3.7-8.5c-13.2-1.2-22.1,3.6-22.1,3.6s7.3-6.2,22.5-4.9
		c0,0,7-6.6,9.1-12.9s2.1-12.5-3-15.6c-6.8,0.1-19.7-0.7-25.2-5.6c-2.2,1.7-6.2,5.5-4.8,12.4c0,0-6.6,4.9-11.1,15
		c-4.3,9.6-8.5,22-6.7,31.8c4.3,0.8,11,1,11,1s-4,1.4-10.4,1.4c0,0-5.2,15.5,0.9,26.5c1.6,2.8,3.3,5,5.2,6.7c0,0,4.2,4.7,11.5,7.1
		c0,0,11.8,3.8,31.1,1.2c-12.1-7.7,0.5-18.9,5.2-24.4c-1.2-1.2-4.2-2.9-8.6-3.7c-4.8-0.8-9.5-0.3-10.8-0.2c-0.2,2.5-1.4,4.7-1.4,4.7
		s-0.1-2.6,0.2-5.2c0.1-1.2,0.2-2.5,0.3-3.5c0.1-0.9,0-1.6,0-1.6s0.3,0.6,0.6,1.6c0.2,0.7,0.3,1.7,0.3,2.7
		c2.1-0.3,11.5-1.3,20.5,3.4c0.1-0.2,0.2-0.4,0.2-0.6c1.8-4.2,2.2-24.8,2.2-24.8s0.2,9.1,0,15.3c-0.2,6.2-0.9,9.2-1.9,11.1
		c-0.9,1.9-4.1,5.3-6.3,8.1c-2.2,2.8-5.2,6.6-3.7,10.7c1.2,3.3,6.1,4.7,7.7,5.2h0.1c14.5-2.7,21.3-5.1,24.3-6.4
		c1.2-0.7,2.1-1.1,2.1-1.1s-0.5,0.4-2.1,1.1c-3,1.6-8.7,4.4-13.5,5.6c-6.7,1.7-15.9,3.8-24.4,4.2c-6.3,0.3-15-0.3-20.8-1
		c2.6,3.5,8.6,9.1,20.5,10.6c7.4,0.8,14.1,0.5,20.1-0.6c5.2-4.2,6.1-10.6,6.1-10.6s2.7,6-3.6,10.1c7.1-1.6,13.1-4.4,17.4-7.6
		c7-5.3,7.4-13,7.3-15.1l-0.2-0.1c-3.7-0.8-6.8-3.2-9-5.3c-1.9-1.9-3.1-3.6-3.2-3.7v-0.1c-9.3-19.2,7.3-48.9,8.1-50.1
		c0.1-0.1,0.1-0.2,0.2-0.2c-1.3-2-2.8-3.9-4.4-5.7c-9.1,12.1-18.2,12.6-18.2,12.6s9.3-2.7,17-14c-2.4-2.6-5.1-4.7-7.7-5.9
		c0,0,6.6,1.1,14.5,12.5c7.8,11.4,8.1,16.7,8.1,16.7s-3.3-7.6-8.4-15.1c-1.3,2.4-12.3,23.1-10.3,40.2c2.2,2.8,9.8,2.7,14.7,1.1
		c4.9-1.7,12.2-10,12.2-10s-9.4,16.9-26.6,11.1c0.2,0.7,0.3,1.5,0.5,2.2c1.4,3.4,5.2,9.6,15,12.3c4.1-1.7,12.8-5.8,16-10.1
		c0,0,7.6-3.4,14-9.7c1.3-1.2,2.5-2.7,3.7-4.2c-10.1-3.4-13.9-9.3-13.9-9.3s9.4,6.8,15,7.7c3.9-5.7,6.8-12.2,7.9-16.5
		c0.6-2.2,0.6-4,0.4-5.3c-9.2,5.2-18.2,3.7-18.2,3.7c10.8-0.7,17.2-6.8,17.2-6.8s0.7-0.7,1.9-1.7c-0.2-0.1-0.2-0.3-0.2-0.5
		c2.1-24.7-13.9-36.6-15-37.5c-0.2,0.2-0.5,0.5-0.7,0.7c-1.1,0.9-2,1.1-2,1.1s0.7-0.5,1.5-1.6c0.7-1,1.3-2.6,1.6-4.2
		c0.6-3.2,0.2-6.8,0.2-6.8s0.4,0.8,0.7,2.1c0.3,1.2,0.6,3.1,0.3,5c-0.2,1-0.6,2-1.1,2.8c0.7,0.5,4.9,3.7,8.8,9.8
		c3.8-5.9,0.7-16.5,0.7-16.5s4.6,9.8,0.2,18.3c1.6,2.8,3.1,6.2,4.2,10.1c2.2,5.7,2.2,12.7,2,15.9c3.4-3.5,8.4-9.3,10-14.4
		c2.5-8,1.4-11.6,1.4-11.6s-1.7-5.2-2.7-10.9c-0.5-3.2-2.4-4.3-4.9-5.8c0.9,2.2,3.1,7.8,2.6,12.9c-0.7,6.5-3.5,6.9-3.5,6.9
		s6.8-5.2-1.6-21.4c-1.2-0.9-2.6-2.2-3.9-3.8c-5.3-6.7-18.5-8.6-18.5-8.6s7.1,0,12.7,2.7C623.3,275.2,624.4,278.4,626.7,280.2z
		 M508.9,353c-0.3,2.2-0.6,4.6-0.6,7.1c0,7.6,6,18.5,5.1,22.4l0.1-0.1c9.5,3.2,12.7,1.6,12.7,1.6s0.2,1-5.8,0.8
		c-4.5-0.1-7.1-0.7-8.1-1c-0.2,0.1-0.4,0.1-0.6,0.1c-5.7,0.3-14.4-2.3-14.4-2.3s11.6,1.2,13.3,0.8c1.7-0.4,1.7-2,1.4-3.7
		c-0.2-1.7-3.7-10.6-4.5-13.9c-0.7-3.3-0.7-7.6,0.6-12.7c1.2-5.2,3.6-9.6,3.6-9.6s-1.5,3.7-2.5,9.1c2.3-1.2,8.1-3.7,13.9-3.8
		c7.5-0.2,13.5,1.9,13.5,1.9S523,346,508.9,353z M586.6,349.6c-0.9,0.8-2.3,1.7-3.8,2.2c-3.1,1-6.3,0.7-6.3,0.7s3-0.9,5.9-1.9
		c1.5-0.5,2.9-1,3.9-1.5c1-0.5,1.7-0.9,1.7-0.9S587.5,348.7,586.6,349.6z M609.2,319c1.2-0.3,2.5-0.5,3.5-0.4c1.4,0,2.3,0.2,2.3,0.2
		s-1,0.2-2.3,0.4c-1.3,0.3-3.1,0.8-4.8,1.6c-1.7,0.7-3.3,1.5-4.5,2.2c-1.2,0.7-2,1.3-2,1.3s0.5-0.8,1.6-1.8c1-1,2.6-2.1,4.3-2.8
		c-1-12.8-11.2-30.5-11.2-30.5S607.1,303.8,609.2,319z"/>
	<path class="st17" d="M495.7,385.2c0-0.2,0.1-0.4,0-0.7c-0.4-1.1-6.3-5.5-6.9-15.2c-0.6-9.7,1.5-16.7,1.5-16.7l-1.9-0.5l1.9-0.9
		c0,0-0.5-2.2-0.6-6c-10.6-0.7-16.7,5.5-16.7,5.5s4.9-7,16.7-7.2c0-1.5,0.2-3.2,0.4-5.2c1-8.1,4.7-18.9,8.8-25.7
		c2.6-4.2,5.2-7.2,6.8-8.8c0.2-1.6-2.5-2.9-6.6-3.2c-4.6-0.3-7.9,2.3-10.5,5.6c-2.6,3.3-4,8.5-5.5,11.5c-1.5,3.1-4.2,6.1-7,7.7
		c-2.7,1.7-5.6,2.6-5.6,2.6c12.7-6,11.7-17,18.3-24.4c-2.2-0.3-7.4-1.2-11.4-4.7c-4.6-4.1-5.3-12.1-5.3-12.1s0.2,1.1,0.8,2.8
		c1.4,4.2,5.3,11.7,17.3,12.6c6.2-5.6,13.6-2.4,16.9-0.6c-0.2-1.2-0.5-4.2,0.7-6.7c1.6-3.1,5.1-5.8,5.1-5.8l-0.6-1.8l1.9,1
		c0,0,0.5-9.2,8.6-12c-7.6-2.8-12.2-6.1-16-9c-1-0.7-1.7-1.6-2.4-2.4c-1.6,1.6-2.6,5.7-2.6,5.7s0.1-4.2,1.9-6.8
		c-1.5-2.6-1.2-4.9-1.2-4.9c1,8.4,17.3,15,22.4,16.9c0,0,0-5.3,3.7-8.9c2-1.9,4.2-2.7,5.8-3c-7.7-7-19-8-19-8
		c4.4-0.2,8.6,1,12.3,2.5c0.5-1.4,0.7-4.4,0.7-4.4s0.6,2.9,0.1,4.7c4,1.8,7.1,3.9,8.5,4.9c0,0,0.8-4.1,3.2-5.7
		c2.3-1.6,4.3-1.4,4.3-1.4l0.3-1.2l0.4,0.8c0,0,4-2.7,8.1-4.7c-0.6-3.7-5.1-6-5.1-6s5.5,2.1,6,5.6c0.7-0.3,1.5-0.6,2.2-0.8
		c4.8-1.5,7.5-0.8,7.5-0.8s5.2-2.9,11.2-3.2c6.1-0.2,6.2,0.7,6.2,0.7l0.4-1.3l1,0.4c0,0,3.2-1,7.9-0.7c0.2,0.1,0.2,0.2,0.2,0.2
		s-3.1-2.6-8.6-2.7c0,0-9.7-5.7-17-1.8c0,0-4.2,3.7-1.8,6.7c0,0-2.9-2.3,0.5-7c0.6,0.1,1,0.2,1.2,0.2c-1.1-0.2-12.6-2.9-20.5,2.9
		c0,0-8-2.2-14.5,1.2c1.6,0.7,3.7,1.9,5.9,3.6c2.6,2,3.7,4.9,3.7,4.9c-2.4-5.2-10.6-7.9-10.6-7.9s-11.2-3.4-18.7,4.6
		c0,0-13.1-2.8-19.7,11c0.4,4.1,0.3,8.9,4.6,15.9c3.5,5.8,9,7.1,9.7,7.2h0.1c0,0,0,0-0.1,0c-3.6-0.6-6.3-2.2-8.4-4.2
		c-2.2,5.2-8.1,8.6-8.1,8.6s6.8-7.6,6.9-9.8l0.1,0.1c-5.5-6.2-5.9-15.4-5.9-15.4s-15.5-0.3-21,15.9c0,0-11.3,14-6.4,33.4
		c0,0,9.7,1.1,13.8-3.6c0,0-2.8,5.7-14.1,5c0-0.1,0-0.2,0.1-0.3c-0.8,4-3.2,18.1,1.7,27.7c2.6-2.9,5.8-3.2,5.8-3.2s-4.2,1.6-5.2,4.5
		c0,0-1.3,6.2,2.8,9.8c0,0-1.3,14,15.5,21.3c0,0-2.1-10.5,1.9-14.4c0,0-3.1,4.7-0.2,17.2c2.1,3,6.2,7.3,12.2,8.2
		C496.4,385.3,496.1,385.3,495.7,385.2z"/>
	<path class="st18" d="M660.4,277.2c-3.7,13.5-14.5,26.4-32.6,36.8c-21.6,12.5-49.5,19-77.9,19.6v99.6c28.3-0.6,56.3-7.1,77.9-19.6
		c18-10.4,28.8-23.4,32.6-36.8V277.2z"/>
	<path class="st18" d="M463.3,314.1c-17.9-10.3-28.7-23.1-32.5-36.5v99.6c3.8,13.4,14.6,26.2,32.5,36.5c21.6,12.5,49.5,19,77.9,19.6
		v-99.6C512.9,333.1,484.8,326.5,463.3,314.1z"/>
	<g class="st8">
		<path class="st9" d="M557.3,347.9c0.8-0.1,1.7-0.2,2.6-0.2v-2.1c-0.8,0.1-1.7,0.2-2.6,0.2V347.9z"/>
		<path class="st9" d="M560.3,347.7c0.8-0.1,1.7-0.2,2.6-0.2v-2.1c-0.8,0.1-1.7,0.2-2.6,0.2V347.7z"/>
		<path class="st9" d="M563.4,347.4c0.8-0.1,1.7-0.2,2.6-0.2v-2.1c-0.8,0.1-1.7,0.2-2.6,0.2V347.4z"/>
		<path class="st9" d="M566.4,347.1c0.8-0.1,1.7-0.2,2.5-0.3v-2.1c-0.8,0.1-1.7,0.2-2.5,0.3V347.1z"/>
		<path class="st9" d="M569.3,346.7c0.8-0.1,1.7-0.2,2.5-0.3v-2.1c-0.8,0.1-1.7,0.2-2.5,0.3V346.7z"/>
		<path class="st9" d="M572.3,346.2c0.8-0.1,1.7-0.2,2.5-0.4v-2.1c-0.8,0.2-1.7,0.2-2.5,0.4V346.2z"/>
		<path class="st9" d="M575.2,345.8c0.8-0.2,1.7-0.2,2.5-0.4v-2.1c-0.8,0.2-1.7,0.2-2.5,0.4V345.8z"/>
		<path class="st9" d="M578.1,345.3c0.8-0.2,1.7-0.3,2.4-0.4v-2.1c-0.8,0.2-1.6,0.3-2.4,0.4V345.3z"/>
		<path class="st9" d="M580.9,344.7c0.8-0.2,1.6-0.3,2.4-0.5v-2.1c-0.8,0.2-1.6,0.3-2.4,0.5V344.7z"/>
		<path class="st9" d="M583.8,342.1v2.1c0.8-0.2,1.6-0.3,2.4-0.5v-2.1C585.4,341.8,584.5,341.9,583.8,342.1z"/>
		<path class="st9" d="M557.3,350.3c0.8-0.1,1.7-0.2,2.6-0.2V348c-0.8,0.1-1.7,0.2-2.6,0.2V350.3z"/>
		<path class="st9" d="M560.3,350.1c0.8-0.1,1.7-0.2,2.6-0.2v-2.1c-0.8,0.1-1.7,0.2-2.6,0.2V350.1z"/>
		<path class="st9" d="M563.4,349.8c0.8-0.1,1.7-0.2,2.6-0.2v-2.1c-0.8,0.1-1.7,0.2-2.6,0.2V349.8z"/>
		<path class="st9" d="M566.4,349.5c0.8-0.1,1.7-0.2,2.5-0.3v-2.1c-0.8,0.1-1.7,0.2-2.5,0.3V349.5z"/>
		<path class="st9" d="M569.3,349.1c0.8-0.1,1.7-0.2,2.5-0.3v-2.1c-0.8,0.1-1.7,0.2-2.5,0.3V349.1z"/>
		<path class="st9" d="M572.3,348.7c0.8-0.1,1.7-0.2,2.5-0.4v-2.1c-0.8,0.2-1.7,0.2-2.5,0.4V348.7z"/>
		<path class="st9" d="M575.2,348.2c0.8-0.2,1.7-0.2,2.5-0.4v-2.1c-0.8,0.2-1.7,0.2-2.5,0.4V348.2z"/>
		<path class="st9" d="M578,347.7c0.8-0.2,1.7-0.3,2.4-0.4v-2.1c-0.8,0.2-1.6,0.3-2.4,0.4V347.7z"/>
		<path class="st9" d="M580.9,347.2c0.8-0.2,1.6-0.3,2.4-0.5v-2.1c-0.8,0.2-1.6,0.3-2.4,0.5V347.2z"/>
		<path class="st9" d="M583.8,346.6c0.8-0.2,1.6-0.3,2.4-0.5V344c-0.7,0.2-1.6,0.3-2.4,0.5V346.6z"/>
		<path class="st9" d="M557.3,352.8c0.8-0.1,1.7-0.2,2.6-0.2v-2.1c-0.8,0.1-1.7,0.2-2.6,0.2V352.8z"/>
		<path class="st9" d="M563.3,352.2c0.8-0.1,1.7-0.2,2.6-0.2v-2.1c-0.8,0.1-1.7,0.2-2.6,0.2V352.2z"/>
		<path class="st9" d="M566.3,351.9c0.8-0.1,1.7-0.2,2.5-0.3v-2.1c-0.8,0.1-1.7,0.2-2.5,0.3V351.9z"/>
		<path class="st9" d="M569.3,351.6c0.8-0.1,1.7-0.2,2.5-0.3v-2.1c-0.8,0.1-1.7,0.2-2.5,0.3V351.6z"/>
		<path class="st9" d="M572.3,351.1c0.8-0.1,1.7-0.2,2.5-0.4v-2.1c-0.8,0.2-1.7,0.2-2.5,0.4V351.1z"/>
		<path class="st9" d="M575.2,350.6c0.8-0.2,1.7-0.2,2.5-0.4v-2.1c-0.8,0.2-1.7,0.2-2.5,0.4V350.6z"/>
		<path class="st9" d="M580.9,349.7c0.8-0.2,1.6-0.3,2.4-0.5v-2.1c-0.8,0.2-1.6,0.3-2.4,0.5V349.7z"/>
		<path class="st9" d="M583.8,349.1c0.8-0.2,1.6-0.3,2.4-0.5v-2.1c-0.7,0.2-1.6,0.3-2.4,0.5V349.1z"/>
		<path class="st9" d="M557.3,355.2c0.8-0.1,1.7-0.2,2.6-0.2v-2.1c-0.8,0.1-1.7,0.2-2.6,0.2V355.2z"/>
		<path class="st9" d="M563.3,354.6c0.8-0.1,1.7-0.2,2.6-0.2v-2.1c-0.8,0.1-1.7,0.2-2.6,0.2V354.6z"/>
		<path class="st9" d="M569.3,354c0.8-0.1,1.7-0.2,2.5-0.3v-2.1c-0.8,0.1-1.7,0.2-2.5,0.3V354z"/>
		<path class="st9" d="M572.3,353.6c0.8-0.1,1.7-0.2,2.5-0.4v-2.1c-0.8,0.2-1.7,0.2-2.5,0.4V353.6z"/>
		<path class="st9" d="M575.2,353.1c0.8-0.2,1.7-0.2,2.5-0.4v-2.1c-0.8,0.2-1.7,0.2-2.5,0.4V353.1z"/>
		<path class="st9" d="M580.9,352.1c0.8-0.2,1.6-0.3,2.4-0.5v-2.1c-0.8,0.2-1.6,0.3-2.4,0.5V352.1z"/>
		<path class="st9" d="M583.8,351.5c0.8-0.2,1.6-0.3,2.4-0.5v-2.1c-0.7,0.2-1.6,0.3-2.4,0.5V351.5z"/>
		<path class="st9" d="M557.3,357.6c0.8-0.1,1.7-0.2,2.6-0.2v-2.1c-0.8,0.1-1.7,0.2-2.6,0.2V357.6z"/>
		<path class="st9" d="M563.3,357.1c0.8-0.1,1.7-0.2,2.6-0.2v-2.1c-0.8,0.1-1.7,0.2-2.6,0.2V357.1z"/>
		<path class="st9" d="M569.3,356.4c0.8-0.1,1.7-0.2,2.5-0.3V354c-0.8,0.1-1.7,0.2-2.5,0.3V356.4z"/>
		<path class="st9" d="M575.1,355.6c0.8-0.2,1.7-0.2,2.5-0.4v-2.1c-0.8,0.2-1.7,0.2-2.5,0.4V355.6z"/>
		<path class="st9" d="M580.9,354.5c0.8-0.2,1.6-0.3,2.4-0.5v-2.1c-0.8,0.2-1.6,0.3-2.4,0.5V354.5z"/>
		<path class="st9" d="M557.3,360.1c0.8-0.1,1.7-0.2,2.6-0.2v-2.1c-0.8,0.1-1.7,0.2-2.6,0.2V360.1z"/>
		<path class="st9" d="M569.3,358.8c0.8-0.1,1.7-0.2,2.5-0.3v-2.1c-0.8,0.1-1.7,0.2-2.5,0.3V358.8z"/>
		<path class="st9" d="M575.1,358c0.8-0.2,1.7-0.2,2.5-0.4v-2.1c-0.8,0.2-1.7,0.2-2.5,0.4V358z"/>
		<path class="st9" d="M580.9,356.9c0.8-0.2,1.6-0.3,2.4-0.5v-2.1c-0.8,0.2-1.6,0.3-2.4,0.5V356.9z"/>
		<path class="st9" d="M575.1,360.4c0.8-0.2,1.7-0.2,2.5-0.4v-2.1c-0.8,0.2-1.7,0.2-2.5,0.4V360.4z"/>
		<path class="st9" d="M575.1,362.8c0.8-0.2,1.7-0.2,2.5-0.4v-2.1c-0.8,0.2-1.7,0.2-2.5,0.4V362.8z"/>
		<path class="st9" d="M557.3,374.8c0.8-0.1,1.7-0.2,2.6-0.2v-2.1c-0.8,0.1-1.7,0.2-2.6,0.2V374.8z"/>
		<path class="st9" d="M560.2,374.6c0.8-0.1,1.7-0.2,2.6-0.2v-2.1c-0.8,0.1-1.7,0.2-2.6,0.2V374.6z"/>
		<path class="st9" d="M563.3,374.3c0.8-0.1,1.7-0.2,2.6-0.2v-2.1c-0.8,0.1-1.7,0.2-2.6,0.2V374.3z"/>
		<path class="st9" d="M566.3,373.9c0.8-0.1,1.7-0.2,2.5-0.3v-2.1c-0.8,0.1-1.7,0.2-2.5,0.3V373.9z"/>
		<path class="st9" d="M569.2,373.5c0.8-0.1,1.7-0.2,2.5-0.3v-2.1c-0.8,0.1-1.7,0.2-2.5,0.3V373.5z"/>
		<path class="st9" d="M572.2,373.1c0.8-0.1,1.7-0.2,2.5-0.4v-2.1c-0.8,0.2-1.7,0.2-2.5,0.4V373.1z"/>
		<path class="st9" d="M575.1,372.7c0.8-0.2,1.7-0.2,2.5-0.4v-2.1c-0.8,0.2-1.7,0.2-2.5,0.4V372.7z"/>
		<path class="st9" d="M578,372.2c0.8-0.2,1.7-0.3,2.4-0.4v-2.1c-0.8,0.2-1.6,0.3-2.4,0.4V372.2z"/>
		<path class="st9" d="M580.9,371.7c0.8-0.2,1.6-0.3,2.4-0.5v-2.1c-0.8,0.2-1.6,0.3-2.4,0.5V371.7z"/>
		<path class="st9" d="M583.7,371.1c0.8-0.2,1.6-0.3,2.4-0.5v-2.1c-0.7,0.2-1.6,0.3-2.4,0.5V371.1z"/>
		<path class="st9" d="M557.3,377.3c0.8-0.1,1.7-0.2,2.6-0.2v-2.1c-0.8,0.1-1.7,0.2-2.6,0.2V377.3z"/>
		<path class="st9" d="M560.2,377c0.8-0.1,1.7-0.2,2.6-0.2v-2.1c-0.8,0.1-1.7,0.2-2.6,0.2V377z"/>
		<path class="st9" d="M563.3,376.7c0.8-0.1,1.7-0.2,2.6-0.2v-2.1c-0.8,0.1-1.7,0.2-2.6,0.2V376.7z"/>
		<path class="st9" d="M566.3,376.3c0.8-0.1,1.7-0.2,2.5-0.3v-2.1c-0.8,0.1-1.7,0.2-2.5,0.3V376.3z"/>
		<path class="st9" d="M569.2,376c0.8-0.1,1.7-0.2,2.5-0.3v-2.1c-0.8,0.1-1.7,0.2-2.5,0.3V376z"/>
		<path class="st9" d="M572.2,375.6c0.8-0.1,1.7-0.2,2.5-0.4v-2.1c-0.8,0.2-1.7,0.2-2.5,0.4V375.6z"/>
		<path class="st9" d="M575.1,375.1c0.8-0.2,1.7-0.2,2.5-0.4v-2.1c-0.8,0.2-1.7,0.2-2.5,0.4V375.1z"/>
		<path class="st9" d="M578,374.6c0.8-0.2,1.7-0.3,2.4-0.4v-2.1c-0.8,0.2-1.6,0.3-2.4,0.4V374.6z"/>
		<path class="st9" d="M580.9,374.1c0.8-0.2,1.6-0.3,2.4-0.5v-2.1c-0.8,0.2-1.6,0.3-2.4,0.5V374.1z"/>
		<path class="st9" d="M583.7,373.5c0.8-0.2,1.6-0.3,2.4-0.5v-2.1c-0.7,0.2-1.6,0.3-2.4,0.5V373.5z"/>
		<path class="st9" d="M557.3,379.7c0.8-0.1,1.7-0.2,2.6-0.2v-2.1c-0.8,0.1-1.7,0.2-2.6,0.2V379.7z"/>
		<path class="st9" d="M560.2,379.4c0.8-0.1,1.7-0.2,2.6-0.2v-2.1c-0.8,0.1-1.7,0.2-2.6,0.2V379.4z"/>
		<path class="st9" d="M563.3,379.2c0.8-0.1,1.7-0.2,2.6-0.2v-2.1c-0.8,0.1-1.7,0.2-2.6,0.2V379.2z"/>
		<path class="st9" d="M566.3,378.8c0.8-0.1,1.7-0.2,2.5-0.3v-2.1c-0.8,0.1-1.7,0.2-2.5,0.3V378.8z"/>
		<path class="st9" d="M569.2,378.4c0.8-0.1,1.7-0.2,2.5-0.3V376c-0.8,0.1-1.7,0.2-2.5,0.3V378.4z"/>
		<path class="st9" d="M572.2,378c0.8-0.1,1.7-0.2,2.5-0.4v-2.1c-0.8,0.2-1.7,0.2-2.5,0.4V378z"/>
		<path class="st9" d="M575.1,377.5c0.8-0.2,1.7-0.2,2.5-0.4V375c-0.8,0.2-1.7,0.2-2.5,0.4V377.5z"/>
		<path class="st9" d="M578,377c0.8-0.2,1.7-0.3,2.4-0.4v-2.1c-0.8,0.2-1.6,0.3-2.4,0.4V377z"/>
		<path class="st9" d="M580.9,376.5c0.8-0.2,1.6-0.3,2.4-0.5v-2.1c-0.8,0.2-1.6,0.3-2.4,0.5V376.5z"/>
		<path class="st9" d="M583.7,375.9c0.8-0.2,1.6-0.3,2.4-0.5v-2.1c-0.7,0.2-1.6,0.3-2.4,0.5V375.9z"/>
		<path class="st9" d="M557.3,382.1c0.8-0.1,1.7-0.2,2.6-0.2v-2.1c-0.8,0.1-1.7,0.2-2.6,0.2V382.1z"/>
		<path class="st9" d="M563.2,381.6c0.8-0.1,1.7-0.2,2.6-0.2v-2.1c-0.8,0.1-1.7,0.2-2.6,0.2V381.6z"/>
		<path class="st9" d="M566.2,381.2c0.8-0.1,1.7-0.2,2.5-0.3v-2.1c-0.8,0.1-1.7,0.2-2.5,0.3V381.2z"/>
		<path class="st9" d="M572.2,380.4c0.8-0.1,1.7-0.2,2.5-0.4v-2.1c-0.8,0.2-1.7,0.2-2.5,0.4V380.4z"/>
		<path class="st9" d="M575.1,380c0.8-0.2,1.7-0.2,2.5-0.4v-2.1c-0.8,0.2-1.7,0.2-2.5,0.4V380z"/>
		<path class="st9" d="M578,379.5c0.8-0.2,1.7-0.3,2.4-0.4V377c-0.8,0.2-1.6,0.3-2.4,0.4V379.5z"/>
		<path class="st9" d="M580.9,378.9c0.8-0.2,1.6-0.3,2.4-0.5v-2.1c-0.8,0.2-1.6,0.3-2.4,0.5V378.9z"/>
		<path class="st9" d="M583.7,378.3c0.8-0.2,1.6-0.3,2.4-0.5v-2.1c-0.7,0.2-1.6,0.3-2.4,0.5V378.3z"/>
		<path class="st9" d="M557.2,384.6c0.8-0.1,1.7-0.2,2.6-0.2v-2.1c-0.8,0.1-1.7,0.2-2.6,0.2V384.6z"/>
		<path class="st9" d="M563.2,384c0.8-0.1,1.7-0.2,2.6-0.2v-2.1c-0.8,0.1-1.7,0.2-2.6,0.2V384z"/>
		<path class="st9" d="M572.2,382.8c0.8-0.1,1.7-0.2,2.5-0.4v-2.1c-0.8,0.2-1.7,0.2-2.5,0.4V382.8z"/>
		<path class="st9" d="M575.1,382.4c0.8-0.2,1.7-0.2,2.5-0.4v-2.1c-0.8,0.2-1.7,0.2-2.5,0.4V382.4z"/>
		<path class="st9" d="M580.9,381.4c0.8-0.2,1.6-0.3,2.4-0.5v-2.1c-0.8,0.2-1.6,0.3-2.4,0.5V381.4z"/>
		<path class="st9" d="M583.7,380.8c0.8-0.2,1.6-0.3,2.4-0.5v-2.1c-0.7,0.2-1.6,0.3-2.4,0.5V380.8z"/>
		<path class="st9" d="M557.2,387c0.8-0.1,1.7-0.2,2.6-0.2v-2.1c-0.8,0.1-1.7,0.2-2.6,0.2V387z"/>
		<path class="st9" d="M572.1,385.3c0.8-0.1,1.7-0.2,2.5-0.4v-2.1c-0.8,0.2-1.7,0.2-2.5,0.4V385.3z"/>
		<path class="st9" d="M580.8,383.8c0.8-0.2,1.6-0.3,2.4-0.5v-2.1c-0.8,0.2-1.6,0.3-2.4,0.5V383.8z"/>
		<path class="st9" d="M583.6,383.2c0.8-0.2,1.6-0.3,2.4-0.5v-2.1c-0.7,0.2-1.6,0.3-2.4,0.5V383.2z"/>
		<path class="st9" d="M572.1,387.7c0.8-0.1,1.7-0.2,2.5-0.4v-2.1c-0.8,0.2-1.7,0.2-2.5,0.4V387.7z"/>
		<path class="st9" d="M580.8,386.2c0.8-0.2,1.6-0.3,2.4-0.5v-2.1c-0.8,0.2-1.6,0.3-2.4,0.5V386.2z"/>
		<path class="st9" d="M583.6,385.6c0.8-0.2,1.6-0.3,2.4-0.5v-2.1c-0.7,0.2-1.6,0.3-2.4,0.5V385.6z"/>
		<path class="st9" d="M580.8,388.6c0.8-0.2,1.6-0.3,2.4-0.5v-2.1c-0.8,0.2-1.6,0.3-2.4,0.5V388.6z"/>
		<path class="st9" d="M557.2,402.4c0.8-0.1,1.7-0.2,2.6-0.2V400c-0.8,0.1-1.7,0.2-2.6,0.2V402.4z"/>
		<path class="st9" d="M560.2,402.1c0.8-0.1,1.7-0.2,2.6-0.2v-2.1c-0.8,0.1-1.7,0.2-2.6,0.2V402.1z"/>
		<path class="st9" d="M563.2,401.9c0.8-0.1,1.7-0.2,2.6-0.2v-2.1c-0.8,0.1-1.7,0.2-2.6,0.2V401.9z"/>
		<path class="st9" d="M566.2,401.4c0.8-0.1,1.7-0.2,2.5-0.3V399c-0.8,0.1-1.7,0.2-2.5,0.3V401.4z"/>
		<path class="st9" d="M569.1,401.1c0.8-0.1,1.7-0.2,2.5-0.3v-2.1c-0.8,0.1-1.7,0.2-2.5,0.3V401.1z"/>
		<path class="st9" d="M572.1,400.7c0.8-0.1,1.7-0.2,2.5-0.4v-2.1c-0.8,0.2-1.7,0.2-2.5,0.4V400.7z"/>
		<path class="st9" d="M575,400.2c0.8-0.2,1.7-0.2,2.5-0.4v-2.1c-0.8,0.2-1.7,0.2-2.5,0.4V400.2z"/>
		<path class="st9" d="M578,399.7c0.8-0.2,1.7-0.3,2.4-0.4v-2.1c-0.8,0.2-1.6,0.3-2.4,0.4V399.7z"/>
		<path class="st9" d="M580.8,399.2c0.8-0.2,1.6-0.3,2.4-0.5v-2.1c-0.8,0.2-1.6,0.3-2.4,0.5V399.2z"/>
		<path class="st9" d="M583.6,398.6c0.8-0.2,1.6-0.3,2.4-0.5V396c-0.8,0.2-1.6,0.3-2.4,0.5V398.6z"/>
		<path class="st9" d="M557.2,404.8c0.8-0.1,1.7-0.2,2.6-0.2v-2.1c-0.8,0.1-1.7,0.2-2.6,0.2V404.8z"/>
		<path class="st9" d="M560.2,404.5c0.8-0.1,1.7-0.2,2.6-0.2v-2.1c-0.8,0.1-1.7,0.2-2.6,0.2V404.5z"/>
		<path class="st9" d="M563.2,404.3c0.8-0.1,1.7-0.2,2.6-0.2v-2.1c-0.8,0.1-1.7,0.2-2.6,0.2V404.3z"/>
		<path class="st9" d="M566.2,403.9c0.8-0.1,1.7-0.2,2.5-0.3v-2.1c-0.8,0.1-1.7,0.2-2.5,0.3V403.9z"/>
		<path class="st9" d="M572.1,403.1c0.8-0.1,1.7-0.2,2.5-0.4v-2.1c-0.8,0.2-1.7,0.2-2.5,0.4V403.1z"/>
		<path class="st9" d="M575,402.7c0.8-0.2,1.7-0.2,2.5-0.4v-2.1c-0.8,0.2-1.7,0.2-2.5,0.4V402.7z"/>
		<path class="st9" d="M578,402.2c0.8-0.2,1.7-0.3,2.4-0.4v-2.1c-0.8,0.2-1.6,0.3-2.4,0.4V402.2z"/>
		<path class="st9" d="M580.8,401.6c0.8-0.2,1.6-0.3,2.4-0.5V399c-0.8,0.2-1.6,0.3-2.4,0.5V401.6z"/>
		<path class="st9" d="M583.6,401c0.8-0.2,1.6-0.3,2.4-0.5v-2.1c-0.8,0.2-1.6,0.3-2.4,0.5V401z"/>
		<path class="st9" d="M557.2,407.3c0.8-0.1,1.7-0.2,2.6-0.2v-2.1c-0.8,0.1-1.7,0.2-2.6,0.2V407.3z"/>
		<path class="st9" d="M560.2,407c0.8-0.1,1.7-0.2,2.6-0.2v-2.1c-0.8,0.1-1.7,0.2-2.6,0.2V407z"/>
		<path class="st9" d="M563.2,406.7c0.8-0.1,1.7-0.2,2.6-0.2v-2.1c-0.8,0.1-1.7,0.2-2.6,0.2V406.7z"/>
		<path class="st9" d="M566.2,406.3c0.8-0.1,1.7-0.2,2.5-0.3v-2.1c-0.8,0.1-1.7,0.2-2.5,0.3V406.3z"/>
		<path class="st9" d="M575,405.1c0.8-0.2,1.7-0.2,2.5-0.4v-2.1c-0.8,0.2-1.7,0.2-2.5,0.4V405.1z"/>
		<path class="st9" d="M577.9,404.6c0.8-0.2,1.7-0.3,2.4-0.4v-2.1c-0.8,0.2-1.6,0.3-2.4,0.4V404.6z"/>
		<path class="st9" d="M580.8,404.1c0.8-0.2,1.6-0.3,2.4-0.5v-2.1c-0.8,0.2-1.6,0.3-2.4,0.5V404.1z"/>
		<path class="st9" d="M583.6,403.5c0.8-0.2,1.6-0.3,2.4-0.5v-2.1c-0.8,0.2-1.6,0.3-2.4,0.5V403.5z"/>
		<path class="st9" d="M557.2,409.7c0.8-0.1,1.7-0.2,2.6-0.2v-2.1c-0.8,0.1-1.7,0.2-2.6,0.2V409.7z"/>
		<path class="st9" d="M560.2,409.4c0.8-0.1,1.7-0.2,2.6-0.2v-2.1c-0.8,0.1-1.7,0.2-2.6,0.2V409.4z"/>
		<path class="st9" d="M566.2,408.8c0.8-0.1,1.7-0.2,2.5-0.3v-2.1c-0.8,0.1-1.7,0.2-2.5,0.3V408.8z"/>
		<path class="st9" d="M575,407.5c0.8-0.2,1.7-0.2,2.5-0.4V405c-0.8,0.2-1.7,0.2-2.5,0.4V407.5z"/>
		<path class="st9" d="M580.8,406.5c0.8-0.2,1.6-0.3,2.4-0.5v-2.1c-0.8,0.2-1.6,0.3-2.4,0.5V406.5z"/>
		<path class="st9" d="M557.2,412.1c0.8-0.1,1.7-0.2,2.6-0.2v-2.1c-0.8,0.1-1.7,0.2-2.6,0.2V412.1z"/>
		<path class="st9" d="M560.2,411.8c0.8-0.1,1.7-0.2,2.6-0.2v-2.1c-0.8,0.1-1.7,0.2-2.6,0.2V411.8z"/>
		<path class="st9" d="M566.2,411.3c0.8-0.1,1.7-0.2,2.5-0.3v-2.1c-0.8,0.1-1.7,0.2-2.5,0.3V411.3z"/>
		<path class="st9" d="M575,409.9c0.8-0.2,1.7-0.2,2.5-0.4v-2.1c-0.8,0.2-1.7,0.2-2.5,0.4V409.9z"/>
		<path class="st9" d="M580.8,408.9c0.8-0.2,1.6-0.3,2.4-0.5v-2.1c-0.8,0.2-1.6,0.3-2.4,0.5V408.9z"/>
		<path class="st9" d="M560.2,414.2c0.8-0.1,1.7-0.2,2.6-0.2v-2.1c-0.8,0.1-1.7,0.2-2.6,0.2V414.2z"/>
		<path class="st9" d="M560.2,416.7c0.8-0.1,1.7-0.2,2.6-0.2v-2.1c-0.8,0.1-1.7,0.2-2.6,0.2V416.7z"/>
	</g>
	<g class="st19">
		<path class="st20" d="M560.3,352.6c0.8-0.1,1.7-0.2,2.6-0.2v-2.1c-0.8,0.1-1.7,0.2-2.6,0.2V352.6z"/>
		<path class="st20" d="M578,350.1c0.8-0.2,1.7-0.3,2.4-0.4v-2.1c-0.8,0.2-1.6,0.3-2.4,0.4V350.1z"/>
		<path class="st20" d="M560.3,355c0.8-0.1,1.7-0.2,2.6-0.2v-2.1c-0.8,0.1-1.7,0.2-2.6,0.2V355z"/>
		<path class="st20" d="M566.3,354.3c0.8-0.1,1.7-0.2,2.5-0.3v-2.1c-0.8,0.1-1.7,0.2-2.5,0.3V354.3z"/>
		<path class="st20" d="M578,352.6c0.8-0.2,1.7-0.3,2.4-0.4v-2.1c-0.8,0.2-1.6,0.3-2.4,0.4V352.6z"/>
		<path class="st20" d="M560.3,357.4c0.8-0.1,1.7-0.2,2.6-0.2v-2.1c-0.8,0.1-1.7,0.2-2.6,0.2V357.4z"/>
		<path class="st20" d="M566.3,356.8c0.8-0.1,1.7-0.2,2.5-0.3v-2.1c-0.8,0.1-1.7,0.2-2.5,0.3V356.8z"/>
		<path class="st20" d="M572.2,356c0.8-0.1,1.7-0.2,2.5-0.4v-2.1c-0.8,0.2-1.7,0.2-2.5,0.4V356z"/>
		<path class="st20" d="M578,355.1c0.8-0.2,1.7-0.3,2.4-0.4v-2.1c-0.8,0.2-1.6,0.3-2.4,0.4V355.1z"/>
		<path class="st20" d="M583.8,351.8v2.1c0.8-0.2,1.6-0.3,2.4-0.5v-2.1C585.4,351.5,584.5,351.6,583.8,351.8z"/>
		<path class="st20" d="M560.3,359.8c0.8-0.1,1.7-0.2,2.6-0.2v-2.1c-0.8,0.1-1.7,0.2-2.6,0.2V359.8z"/>
		<path class="st20" d="M563.3,359.5c0.8-0.1,1.7-0.2,2.6-0.2v-2.1c-0.8,0.1-1.7,0.2-2.6,0.2V359.5z"/>
		<path class="st20" d="M566.3,359.2c0.8-0.1,1.7-0.2,2.5-0.3v-2.1c-0.8,0.1-1.7,0.2-2.5,0.3V359.2z"/>
		<path class="st20" d="M572.2,358.4c0.8-0.1,1.7-0.2,2.5-0.4v-2.1c-0.8,0.2-1.7,0.2-2.5,0.4V358.4z"/>
		<path class="st20" d="M578,357.5c0.8-0.2,1.7-0.3,2.4-0.4V355c-0.8,0.2-1.6,0.3-2.4,0.4V357.5z"/>
		<path class="st20" d="M583.7,356.4c0.8-0.2,1.6-0.3,2.4-0.5v-2.1c-0.7,0.2-1.6,0.3-2.4,0.5V356.4z"/>
		<path class="st20" d="M557.3,362.5c0.8-0.1,1.7-0.2,2.6-0.2v-2.1c-0.8,0.1-1.7,0.2-2.6,0.2V362.5z"/>
		<path class="st20" d="M560.3,362.3c0.8-0.1,1.7-0.2,2.6-0.2V360c-0.8,0.1-1.7,0.2-2.6,0.2V362.3z"/>
		<path class="st20" d="M563.3,362c0.8-0.1,1.7-0.2,2.6-0.2v-2.1c-0.8,0.1-1.7,0.2-2.6,0.2V362z"/>
		<path class="st20" d="M566.3,361.6c0.8-0.1,1.7-0.2,2.5-0.3v-2.1c-0.8,0.1-1.7,0.2-2.5,0.3V361.6z"/>
		<path class="st20" d="M569.3,361.3c0.8-0.1,1.7-0.2,2.5-0.3v-2.1c-0.8,0.1-1.7,0.2-2.5,0.3V361.3z"/>
		<path class="st20" d="M572.2,360.9c0.8-0.1,1.7-0.2,2.5-0.4v-2.1c-0.8,0.2-1.7,0.2-2.5,0.4V360.9z"/>
		<path class="st20" d="M578,359.9c0.8-0.2,1.7-0.3,2.4-0.4v-2.1c-0.8,0.2-1.6,0.3-2.4,0.4V359.9z"/>
		<path class="st20" d="M580.9,359.4c0.8-0.2,1.6-0.3,2.4-0.5v-2.1c-0.8,0.2-1.6,0.3-2.4,0.5V359.4z"/>
		<path class="st20" d="M583.7,358.8c0.8-0.2,1.6-0.3,2.4-0.5v-2.1c-0.7,0.2-1.6,0.3-2.4,0.5V358.8z"/>
		<path class="st20" d="M557.3,364.9c0.8-0.1,1.7-0.2,2.6-0.2v-2.1c-0.8,0.1-1.7,0.2-2.6,0.2V364.9z"/>
		<path class="st20" d="M560.3,364.7c0.8-0.1,1.7-0.2,2.6-0.2v-2.1c-0.8,0.1-1.7,0.2-2.6,0.2V364.7z"/>
		<path class="st20" d="M563.3,364.4c0.8-0.1,1.7-0.2,2.6-0.2V362c-0.8,0.1-1.7,0.2-2.6,0.2V364.4z"/>
		<path class="st20" d="M566.3,364c0.8-0.1,1.7-0.2,2.5-0.3v-2.1c-0.8,0.1-1.7,0.2-2.5,0.3V364z"/>
		<path class="st20" d="M569.3,363.7c0.8-0.1,1.7-0.2,2.5-0.3v-2.1c-0.8,0.1-1.7,0.2-2.5,0.3V363.7z"/>
		<path class="st20" d="M572.2,363.3c0.8-0.1,1.7-0.2,2.5-0.4v-2.1c-0.8,0.2-1.7,0.2-2.5,0.4V363.3z"/>
		<path class="st20" d="M578,362.3c0.8-0.2,1.7-0.3,2.4-0.4v-2.1c-0.8,0.2-1.6,0.3-2.4,0.4V362.3z"/>
		<path class="st20" d="M580.9,361.8c0.8-0.2,1.6-0.3,2.4-0.5v-2.1c-0.8,0.2-1.6,0.3-2.4,0.5V361.8z"/>
		<path class="st20" d="M583.7,361.2c0.8-0.2,1.6-0.3,2.4-0.5v-2.1c-0.7,0.2-1.6,0.3-2.4,0.5V361.2z"/>
		<path class="st20" d="M557.3,367.4c0.8-0.1,1.7-0.2,2.6-0.2V365c-0.8,0.1-1.7,0.2-2.6,0.2V367.4z"/>
		<path class="st20" d="M560.3,367.1c0.8-0.1,1.7-0.2,2.6-0.2v-2.1c-0.8,0.1-1.7,0.2-2.6,0.2V367.1z"/>
		<path class="st20" d="M563.3,366.9c0.8-0.1,1.7-0.2,2.6-0.2v-2.1c-0.8,0.1-1.7,0.2-2.6,0.2V366.9z"/>
		<path class="st20" d="M566.3,366.5c0.8-0.1,1.7-0.2,2.5-0.3v-2.1c-0.8,0.1-1.7,0.2-2.5,0.3V366.5z"/>
		<path class="st20" d="M569.3,366.1c0.8-0.1,1.7-0.2,2.5-0.3v-2.1c-0.8,0.1-1.7,0.2-2.5,0.3V366.1z"/>
		<path class="st20" d="M572.2,365.7c0.8-0.1,1.7-0.2,2.5-0.4v-2.1c-0.8,0.2-1.7,0.2-2.5,0.4V365.7z"/>
		<path class="st20" d="M575.1,365.3c0.8-0.2,1.7-0.2,2.5-0.4v-2.1c-0.8,0.2-1.7,0.2-2.5,0.4V365.3z"/>
		<path class="st20" d="M578,364.8c0.8-0.2,1.7-0.3,2.4-0.4v-2.1c-0.8,0.2-1.6,0.3-2.4,0.4V364.8z"/>
		<path class="st20" d="M580.9,364.2c0.8-0.2,1.6-0.3,2.4-0.5v-2.1c-0.8,0.2-1.6,0.3-2.4,0.5V364.2z"/>
		<path class="st20" d="M583.7,363.6c0.8-0.2,1.6-0.3,2.4-0.5V361c-0.7,0.2-1.6,0.3-2.4,0.5V363.6z"/>
		<path class="st20" d="M557.3,369.9c0.8-0.1,1.7-0.2,2.6-0.2v-2.1c-0.8,0.1-1.7,0.2-2.6,0.2V369.9z"/>
		<path class="st20" d="M560.3,369.5c0.8-0.1,1.7-0.2,2.6-0.2v-2.1c-0.8,0.1-1.7,0.2-2.6,0.2V369.5z"/>
		<path class="st20" d="M563.3,369.3c0.8-0.1,1.7-0.2,2.6-0.2v-2.1c-0.8,0.1-1.7,0.2-2.6,0.2V369.3z"/>
		<path class="st20" d="M566.3,368.9c0.8-0.1,1.7-0.2,2.5-0.3v-2.1c-0.8,0.1-1.7,0.2-2.5,0.3V368.9z"/>
		<path class="st20" d="M569.3,368.5c0.8-0.1,1.7-0.2,2.5-0.3v-2.1c-0.8,0.1-1.7,0.2-2.5,0.3V368.5z"/>
		<path class="st20" d="M572.2,368.1c0.8-0.1,1.7-0.2,2.5-0.4v-2.1c-0.8,0.2-1.7,0.2-2.5,0.4V368.1z"/>
		<path class="st20" d="M575.1,367.7c0.8-0.2,1.7-0.2,2.5-0.4v-2.1c-0.8,0.2-1.7,0.2-2.5,0.4V367.7z"/>
		<path class="st20" d="M578,367.2c0.8-0.2,1.7-0.3,2.4-0.4v-2.1c-0.8,0.2-1.6,0.3-2.4,0.4V367.2z"/>
		<path class="st20" d="M580.9,366.6c0.8-0.2,1.6-0.3,2.4-0.5V364c-0.8,0.2-1.6,0.3-2.4,0.5V366.6z"/>
		<path class="st20" d="M583.7,366.1c0.8-0.2,1.6-0.3,2.4-0.5v-2.1c-0.7,0.2-1.6,0.3-2.4,0.5V366.1z"/>
		<path class="st20" d="M560.2,381.8c0.8-0.1,1.7-0.2,2.6-0.2v-2.1c-0.8,0.1-1.7,0.2-2.6,0.2V381.8z"/>
		<path class="st20" d="M569.2,380.8c0.8-0.1,1.7-0.2,2.5-0.3v-2.1c-0.8,0.1-1.7,0.2-2.5,0.3V380.8z"/>
		<path class="st20" d="M560.2,384.3c0.8-0.1,1.7-0.2,2.6-0.2V382c-0.8,0.1-1.7,0.2-2.6,0.2V384.3z"/>
		<path class="st20" d="M566.2,383.7c0.8-0.1,1.7-0.2,2.5-0.3v-2.1c-0.8,0.1-1.7,0.2-2.5,0.3V383.7z"/>
		<path class="st20" d="M569.2,383.2c0.8-0.1,1.7-0.2,2.5-0.3v-2.1c-0.8,0.1-1.7,0.2-2.5,0.3V383.2z"/>
		<path class="st20" d="M578,381.9c0.8-0.2,1.7-0.3,2.4-0.4v-2.1c-0.8,0.2-1.6,0.3-2.4,0.4V381.9z"/>
		<path class="st20" d="M560.2,386.7c0.8-0.1,1.7-0.2,2.6-0.2v-2.1c-0.8,0.1-1.7,0.2-2.6,0.2V386.7z"/>
		<path class="st20" d="M563.2,386.4c0.8-0.1,1.7-0.2,2.6-0.2v-2.1c-0.8,0.1-1.7,0.2-2.6,0.2V386.4z"/>
		<path class="st20" d="M566.2,386.1c0.8-0.1,1.7-0.2,2.5-0.3v-2.1c-0.8,0.1-1.7,0.2-2.5,0.3V386.1z"/>
		<path class="st20" d="M569.2,385.7c0.8-0.1,1.7-0.2,2.5-0.3v-2.1c-0.8,0.1-1.7,0.2-2.5,0.3V385.7z"/>
		<path class="st20" d="M575,384.8c0.8-0.2,1.7-0.2,2.5-0.4v-2.1c-0.8,0.2-1.7,0.2-2.5,0.4V384.8z"/>
		<path class="st20" d="M578,384.3c0.8-0.2,1.7-0.3,2.4-0.4v-2.1c-0.8,0.2-1.6,0.3-2.4,0.4V384.3z"/>
		<path class="st20" d="M557.2,389.4c0.8-0.1,1.7-0.2,2.6-0.2v-2.1c-0.8,0.1-1.7,0.2-2.6,0.2V389.4z"/>
		<path class="st20" d="M560.2,389.1c0.8-0.1,1.7-0.2,2.6-0.2v-2.1c-0.8,0.1-1.7,0.2-2.6,0.2V389.1z"/>
		<path class="st20" d="M563.2,388.9c0.8-0.1,1.7-0.2,2.6-0.2v-2.1c-0.8,0.1-1.7,0.2-2.6,0.2V388.9z"/>
		<path class="st20" d="M566.2,388.6c0.8-0.1,1.7-0.2,2.5-0.3v-2.1c-0.8,0.1-1.7,0.2-2.5,0.3V388.6z"/>
		<path class="st20" d="M569.2,388.1c0.8-0.1,1.7-0.2,2.5-0.3v-2.1c-0.8,0.1-1.7,0.2-2.5,0.3V388.1z"/>
		<path class="st20" d="M575,387.3c0.8-0.2,1.7-0.2,2.5-0.4v-2.1c-0.8,0.2-1.7,0.2-2.5,0.4V387.3z"/>
		<path class="st20" d="M578,386.8c0.8-0.2,1.7-0.3,2.4-0.4v-2.1c-0.8,0.2-1.6,0.3-2.4,0.4V386.8z"/>
		<path class="st20" d="M557.2,391.8c0.8-0.1,1.7-0.2,2.6-0.2v-2.1c-0.8,0.1-1.7,0.2-2.6,0.2V391.8z"/>
		<path class="st20" d="M560.2,391.5c0.8-0.1,1.7-0.2,2.6-0.2v-2.1c-0.8,0.1-1.7,0.2-2.6,0.2V391.5z"/>
		<path class="st20" d="M563.2,391.3c0.8-0.1,1.7-0.2,2.6-0.2V389c-0.8,0.1-1.7,0.2-2.6,0.2V391.3z"/>
		<path class="st20" d="M566.2,391c0.8-0.1,1.7-0.2,2.5-0.3v-2.1c-0.8,0.1-1.7,0.2-2.5,0.3V391z"/>
		<path class="st20" d="M569.2,390.6c0.8-0.1,1.7-0.2,2.5-0.3v-2.1c-0.8,0.1-1.7,0.2-2.5,0.3V390.6z"/>
		<path class="st20" d="M572.1,390.1c0.8-0.1,1.7-0.2,2.5-0.4v-2.1c-0.8,0.2-1.7,0.2-2.5,0.4V390.1z"/>
		<path class="st20" d="M575,389.7c0.8-0.2,1.7-0.2,2.5-0.4v-2.1c-0.8,0.2-1.7,0.2-2.5,0.4V389.7z"/>
		<path class="st20" d="M578,389.2c0.8-0.2,1.7-0.3,2.4-0.4v-2.1c-0.8,0.2-1.6,0.3-2.4,0.4V389.2z"/>
		<path class="st20" d="M583.6,388.1c0.8-0.2,1.6-0.3,2.4-0.5v-2.1c-0.7,0.2-1.6,0.3-2.4,0.5V388.1z"/>
		<path class="st20" d="M557.2,394.3c0.8-0.1,1.7-0.2,2.6-0.2V392c-0.8,0.1-1.7,0.2-2.6,0.2V394.3z"/>
		<path class="st20" d="M560.2,394c0.8-0.1,1.7-0.2,2.6-0.2v-2.1c-0.8,0.1-1.7,0.2-2.6,0.2V394z"/>
		<path class="st20" d="M563.2,393.7c0.8-0.1,1.7-0.2,2.6-0.2v-2.1c-0.8,0.1-1.7,0.2-2.6,0.2V393.7z"/>
		<path class="st20" d="M566.2,393.4c0.8-0.1,1.7-0.2,2.5-0.3V391c-0.8,0.1-1.7,0.2-2.5,0.3V393.4z"/>
		<path class="st20" d="M569.2,393c0.8-0.1,1.7-0.2,2.5-0.3v-2.1c-0.8,0.1-1.7,0.2-2.5,0.3V393z"/>
		<path class="st20" d="M572.1,392.6c0.8-0.1,1.7-0.2,2.5-0.4v-2.1c-0.8,0.2-1.7,0.2-2.5,0.4V392.6z"/>
		<path class="st20" d="M575,392.1c0.8-0.2,1.7-0.2,2.5-0.4v-2.1c-0.8,0.2-1.7,0.2-2.5,0.4V392.1z"/>
		<path class="st20" d="M578,391.6c0.8-0.2,1.7-0.3,2.4-0.4v-2.1c-0.8,0.2-1.6,0.3-2.4,0.4V391.6z"/>
		<path class="st20" d="M580.8,391.1c0.8-0.2,1.6-0.3,2.4-0.5v-2.1c-0.8,0.2-1.6,0.3-2.4,0.5V391.1z"/>
		<path class="st20" d="M583.6,390.6c0.8-0.2,1.6-0.3,2.4-0.5V388c-0.7,0.2-1.6,0.3-2.4,0.5V390.6z"/>
		<path class="st20" d="M557.2,396.7c0.8-0.1,1.7-0.2,2.6-0.2v-2.1c-0.8,0.1-1.7,0.2-2.6,0.2V396.7z"/>
		<path class="st20" d="M560.2,396.5c0.8-0.1,1.7-0.2,2.6-0.2v-2.1c-0.8,0.1-1.7,0.2-2.6,0.2V396.5z"/>
		<path class="st20" d="M563.2,396.1c0.8-0.1,1.7-0.2,2.6-0.2v-2.1c-0.8,0.1-1.7,0.2-2.6,0.2V396.1z"/>
		<path class="st20" d="M566.2,395.8c0.8-0.1,1.7-0.2,2.5-0.3v-2.1c-0.8,0.1-1.7,0.2-2.5,0.3V395.8z"/>
		<path class="st20" d="M569.2,395.5c0.8-0.1,1.7-0.2,2.5-0.3V393c-0.8,0.1-1.7,0.2-2.5,0.3V395.5z"/>
		<path class="st20" d="M572.1,395c0.8-0.1,1.7-0.2,2.5-0.4v-2.1c-0.8,0.2-1.7,0.2-2.5,0.4V395z"/>
		<path class="st20" d="M575,394.5c0.8-0.2,1.7-0.2,2.5-0.4V392c-0.8,0.2-1.7,0.2-2.5,0.4V394.5z"/>
		<path class="st20" d="M578,394c0.8-0.2,1.7-0.3,2.4-0.4v-2.1c-0.8,0.2-1.6,0.3-2.4,0.4V394z"/>
		<path class="st20" d="M580.8,393.5c0.8-0.2,1.6-0.3,2.4-0.5V391c-0.8,0.2-1.6,0.3-2.4,0.5V393.5z"/>
		<path class="st20" d="M583.6,393c0.8-0.2,1.6-0.3,2.4-0.5v-2.1c-0.7,0.2-1.6,0.3-2.4,0.5V393z"/>
		<path class="st20" d="M569.1,403.5c0.8-0.1,1.7-0.2,2.5-0.3v-2.1c-0.8,0.1-1.7,0.2-2.5,0.3V403.5z"/>
		<path class="st20" d="M569.1,405.9c0.8-0.1,1.7-0.2,2.5-0.3v-2.1c-0.8,0.1-1.7,0.2-2.5,0.3V405.9z"/>
		<path class="st20" d="M572.1,405.5c0.8-0.1,1.7-0.2,2.5-0.4V403c-0.8,0.2-1.7,0.2-2.5,0.4V405.5z"/>
		<path class="st20" d="M563.2,409.1c0.8-0.1,1.7-0.2,2.6-0.2v-2.1c-0.8,0.1-1.7,0.2-2.6,0.2V409.1z"/>
		<path class="st20" d="M569.1,408.4c0.8-0.1,1.7-0.2,2.5-0.3V406c-0.8,0.1-1.7,0.2-2.5,0.3V408.4z"/>
		<path class="st20" d="M572.1,408c0.8-0.1,1.7-0.2,2.5-0.4v-2.1c-0.8,0.2-1.7,0.2-2.5,0.4V408z"/>
		<path class="st20" d="M577.9,407c0.8-0.2,1.7-0.3,2.4-0.4v-2.1c-0.8,0.2-1.6,0.3-2.4,0.4V407z"/>
		<path class="st20" d="M583.6,405.9c0.8-0.2,1.6-0.3,2.4-0.5v-2.1c-0.8,0.2-1.6,0.3-2.4,0.5V405.9z"/>
		<path class="st20" d="M563.2,411.6c0.8-0.1,1.7-0.2,2.6-0.2v-2.1c-0.8,0.1-1.7,0.2-2.6,0.2V411.6z"/>
		<path class="st20" d="M569.1,410.8c0.8-0.1,1.7-0.2,2.5-0.3v-2.1c-0.8,0.1-1.7,0.2-2.5,0.3V410.8z"/>
		<path class="st20" d="M572.1,410.4c0.8-0.1,1.7-0.2,2.5-0.4v-2.1c-0.8,0.2-1.7,0.2-2.5,0.4V410.4z"/>
		<path class="st20" d="M577.9,409.4c0.8-0.2,1.7-0.3,2.4-0.4v-2.1c-0.8,0.2-1.6,0.3-2.4,0.4V409.4z"/>
		<path class="st20" d="M583.6,408.3c0.8-0.2,1.6-0.3,2.4-0.5v-2.1c-0.8,0.2-1.6,0.3-2.4,0.5V408.3z"/>
		<path class="st20" d="M557.1,414.5c0.8-0.1,1.7-0.2,2.6-0.2v-2.1c-0.8,0.1-1.7,0.2-2.6,0.2V414.5z"/>
		<path class="st20" d="M563.2,414c0.8-0.1,1.7-0.2,2.6-0.2v-2.1c-0.8,0.1-1.7,0.2-2.6,0.2V414z"/>
		<path class="st20" d="M566.2,413.7c0.8-0.1,1.7-0.2,2.5-0.3v-2.1c-0.8,0.1-1.7,0.2-2.5,0.3V413.7z"/>
		<path class="st20" d="M569.1,413.2c0.8-0.1,1.7-0.2,2.5-0.3v-2.1c-0.8,0.1-1.7,0.2-2.5,0.3V413.2z"/>
		<path class="st20" d="M572.1,412.8c0.8-0.1,1.7-0.2,2.5-0.4v-2.1c-0.8,0.2-1.7,0.2-2.5,0.4V412.8z"/>
		<path class="st20" d="M575,412.4c0.8-0.2,1.7-0.2,2.5-0.4v-2.1c-0.8,0.2-1.7,0.2-2.5,0.4V412.4z"/>
		<path class="st20" d="M577.9,411.9c0.8-0.2,1.7-0.3,2.4-0.4v-2.1c-0.8,0.2-1.6,0.3-2.4,0.4V411.9z"/>
		<path class="st20" d="M580.8,411.3c0.8-0.2,1.6-0.3,2.4-0.5v-2.1c-0.8,0.2-1.6,0.3-2.4,0.5V411.3z"/>
		<path class="st20" d="M583.6,410.8c0.8-0.2,1.6-0.3,2.4-0.5v-2.1c-0.8,0.2-1.6,0.3-2.4,0.5V410.8z"/>
		<path class="st20" d="M557.1,417c0.8-0.1,1.7-0.2,2.6-0.2v-2.1c-0.8,0.1-1.7,0.2-2.6,0.2V417z"/>
		<path class="st20" d="M563.2,416.4c0.8-0.1,1.7-0.2,2.6-0.2v-2.1c-0.8,0.1-1.7,0.2-2.6,0.2V416.4z"/>
		<path class="st20" d="M566.2,416.1c0.8-0.1,1.7-0.2,2.5-0.3v-2.1c-0.8,0.1-1.7,0.2-2.5,0.3V416.1z"/>
		<path class="st20" d="M569.1,415.7c0.8-0.1,1.7-0.2,2.5-0.3v-2.1c-0.8,0.1-1.7,0.2-2.5,0.3V415.7z"/>
		<path class="st20" d="M572.1,415.2c0.8-0.1,1.7-0.2,2.5-0.4v-2.1c-0.8,0.2-1.7,0.2-2.5,0.4V415.2z"/>
		<path class="st20" d="M575,414.8c0.8-0.2,1.7-0.2,2.5-0.4v-2.1c-0.8,0.2-1.7,0.2-2.5,0.4V414.8z"/>
		<path class="st20" d="M577.9,414.3c0.8-0.2,1.7-0.3,2.4-0.4v-2.1c-0.8,0.2-1.6,0.3-2.4,0.4V414.3z"/>
		<path class="st20" d="M580.7,413.8c0.8-0.2,1.6-0.3,2.4-0.5v-2.1c-0.8,0.2-1.6,0.3-2.4,0.5V413.8z"/>
		<path class="st20" d="M583.5,413.2c0.8-0.2,1.6-0.3,2.4-0.5v-2.1c-0.8,0.2-1.6,0.3-2.4,0.5V413.2z"/>
		<path class="st20" d="M557.1,419.4c0.8-0.1,1.7-0.2,2.6-0.2v-2.1c-0.8,0.1-1.7,0.2-2.6,0.2V419.4z"/>
		<path class="st20" d="M560.2,419.1c0.8-0.1,1.7-0.2,2.6-0.2v-2.1c-0.8,0.1-1.7,0.2-2.6,0.2V419.1z"/>
		<path class="st20" d="M563.2,418.8c0.8-0.1,1.7-0.2,2.6-0.2v-2.1c-0.8,0.1-1.7,0.2-2.6,0.2V418.8z"/>
		<path class="st20" d="M566.2,418.5c0.8-0.1,1.7-0.2,2.5-0.3v-2.1c-0.8,0.1-1.7,0.2-2.5,0.3V418.5z"/>
		<path class="st20" d="M569.1,418.2c0.8-0.1,1.7-0.2,2.5-0.3v-2.1c-0.8,0.1-1.7,0.2-2.5,0.3V418.2z"/>
		<path class="st20" d="M572.1,417.7c0.8-0.1,1.7-0.2,2.5-0.4v-2.1c-0.8,0.2-1.7,0.2-2.5,0.4V417.7z"/>
		<path class="st20" d="M575,417.2c0.8-0.2,1.7-0.2,2.5-0.4v-2.1c-0.8,0.2-1.7,0.2-2.5,0.4V417.2z"/>
		<path class="st20" d="M577.9,416.7c0.8-0.2,1.7-0.3,2.4-0.4v-2.1c-0.8,0.2-1.6,0.3-2.4,0.4V416.7z"/>
		<path class="st20" d="M580.7,416.2c0.8-0.2,1.6-0.3,2.4-0.5v-2.1c-0.8,0.2-1.6,0.3-2.4,0.5V416.2z"/>
		<path class="st20" d="M583.5,415.7c0.8-0.2,1.6-0.3,2.4-0.5v-2.1c-0.8,0.2-1.6,0.3-2.4,0.5V415.7z"/>
		<path class="st20" d="M557.1,421.8c0.8-0.1,1.7-0.2,2.6-0.2v-2.1c-0.8,0.1-1.7,0.2-2.6,0.2V421.8z"/>
		<path class="st20" d="M560.2,421.6c0.8-0.1,1.7-0.2,2.6-0.2v-2.1c-0.8,0.1-1.7,0.2-2.6,0.2V421.6z"/>
		<path class="st20" d="M563.2,421.3c0.8-0.1,1.7-0.2,2.6-0.2V419c-0.8,0.1-1.7,0.2-2.6,0.2V421.3z"/>
		<path class="st20" d="M566.2,421c0.8-0.1,1.7-0.2,2.5-0.3v-2.1c-0.8,0.1-1.7,0.2-2.5,0.3V421z"/>
		<path class="st20" d="M569.1,420.6c0.8-0.1,1.7-0.2,2.5-0.3v-2.1c-0.8,0.1-1.7,0.2-2.5,0.3V420.6z"/>
		<path class="st20" d="M572.1,420.1c0.8-0.1,1.7-0.2,2.5-0.4v-2.1c-0.8,0.2-1.7,0.2-2.5,0.4V420.1z"/>
		<path class="st20" d="M575,419.7c0.8-0.2,1.7-0.2,2.5-0.4v-2.1c-0.8,0.2-1.7,0.2-2.5,0.4V419.7z"/>
		<path class="st20" d="M577.9,419.2c0.8-0.2,1.7-0.3,2.4-0.4v-2.1c-0.8,0.2-1.6,0.3-2.4,0.4V419.2z"/>
		<path class="st20" d="M580.7,418.7c0.8-0.2,1.6-0.3,2.4-0.5v-2.1c-0.8,0.2-1.6,0.3-2.4,0.5V418.7z"/>
		<path class="st20" d="M583.5,418.1c0.8-0.2,1.6-0.3,2.4-0.5v-2.1c-0.8,0.2-1.6,0.3-2.4,0.5V418.1z"/>
		<path class="st20" d="M557.1,424.2c0.8-0.1,1.7-0.2,2.6-0.2v-2.1c-0.8,0.1-1.7,0.2-2.6,0.2V424.2z"/>
		<path class="st20" d="M560.2,424c0.8-0.1,1.7-0.2,2.6-0.2v-2.1c-0.8,0.1-1.7,0.2-2.6,0.2V424z"/>
		<path class="st20" d="M563.2,423.7c0.8-0.1,1.7-0.2,2.6-0.2v-2.1c-0.8,0.1-1.7,0.2-2.6,0.2V423.7z"/>
		<path class="st20" d="M566.2,423.4c0.8-0.1,1.7-0.2,2.5-0.3V421c-0.8,0.1-1.7,0.2-2.5,0.3V423.4z"/>
		<path class="st20" d="M569.1,423c0.8-0.1,1.7-0.2,2.5-0.3v-2.1c-0.8,0.1-1.7,0.2-2.5,0.3V423z"/>
		<path class="st20" d="M572.1,422.6c0.8-0.1,1.7-0.2,2.5-0.4v-2.1c-0.8,0.2-1.7,0.2-2.5,0.4V422.6z"/>
		<path class="st20" d="M575,422.1c0.8-0.2,1.7-0.2,2.5-0.4v-2.1c-0.8,0.2-1.7,0.2-2.5,0.4V422.1z"/>
		<path class="st20" d="M577.9,421.6c0.8-0.2,1.7-0.3,2.4-0.4v-2.1c-0.8,0.2-1.6,0.3-2.4,0.4V421.6z"/>
		<path class="st20" d="M580.7,421.1c0.8-0.2,1.6-0.3,2.4-0.5v-2.1c-0.8,0.2-1.6,0.3-2.4,0.5V421.1z"/>
		<path class="st20" d="M583.5,420.5c0.8-0.2,1.6-0.3,2.4-0.5v-2.1c-0.8,0.2-1.6,0.3-2.4,0.5V420.5z"/>
	</g>
	<g class="st19">
		<path class="st20" d="M634.8,334.6c0.6-0.3,1.1-0.7,1.7-1.1v3.2l2.3-4.8c0.5-0.3,1-0.7,1.5-1.1v-5.2c-1.7,1.3-3.6,2.6-5.4,3.8
			L634.8,334.6z"/>
		<path class="st20" d="M641,339c0.5-0.4,1-0.7,1.5-1.2v3.2l2.1-4.9c0.4-0.4,0.9-0.7,1.3-1.2v-5.2c-1.6,1.4-3.2,2.7-4.9,4.1V339z"/>
		<path class="st20" d="M646.8,319.6v5.2c0.4-0.4,0.9-0.8,1.3-1.2v3.2l1.8-5c0.4-0.4,0.7-0.8,1.2-1.2v-5.2
			C649.8,316.8,648.3,318.2,646.8,319.6z"/>
		<path class="st20" d="M651.8,341.3c0.4-0.4,0.7-0.8,1.2-1.3v3.2l1.6-5.1c0.3-0.4,0.7-0.8,1-1.3v-5.2c-1.2,1.6-2.4,3.1-3.7,4.6
			V341.3z"/>
		<path class="st20" d="M656.1,323.9v5.2c0.3-0.4,0.7-0.9,0.9-1.3v3.2l1.3-5.2c0.2-0.4,0.6-0.9,0.8-1.3v-5.2
			C658.3,320.7,657.3,322.3,656.1,323.9z"/>
		<path class="st20" d="M627.6,355c0.6-0.3,1.2-0.7,1.7-1v3.2l2.5-4.7c0.6-0.3,1.1-0.7,1.7-1v-5.2c-1.9,1.2-3.9,2.4-6,3.6L627.6,355
			z"/>
		<path class="st20" d="M620,349.8c0.7-0.3,1.2-0.6,1.9-0.9v3.2l2.7-4.6c0.6-0.3,1.2-0.7,1.7-0.9v-5.2c-2.1,1.2-4.2,2.2-6.4,3.2
			V349.8z"/>
		<path class="st20" d="M611.9,356.6c0.7-0.2,1.3-0.6,2.1-0.8v3.2l2.9-4.4c0.7-0.2,1.2-0.6,1.9-0.8v-5.2c-2.2,1-4.5,2-6.9,3V356.6z"
			/>
		<path class="st20" d="M603.2,356.1c0.7-0.2,1.4-0.5,2.2-0.7v3.2l3.1-4.2c0.7-0.2,1.3-0.5,2-0.7v-5.2c-2.4,0.9-4.8,1.8-7.3,2.7
			L603.2,356.1z"/>
		<path class="st20" d="M594.8,346.1c0.7-0.2,1.5-0.4,2.2-0.7v3.2l3.2-4.2c0.7-0.2,1.4-0.4,2.2-0.7v-5.2c-2.5,0.8-5.1,1.6-7.6,2.3
			V346.1z"/>
		<path class="st20" d="M594.7,378.5c2.2-0.6,4.3-1.2,6.5-1.9l0.1-28.6c-2.2,0.7-4.3,1.3-6.5,1.9L594.7,378.5z"/>
		<path class="st20" d="M603.7,382.3c2.1-0.7,4.2-1.4,6.2-2.2l0.1-22c-2,0.7-4.1,1.5-6.2,2.2L603.7,382.3z"/>
		<path class="st20" d="M612.3,387.8c2-0.8,3.9-1.7,5.8-2.5l0.1-26.9c-1.9,0.8-3.8,1.7-5.8,2.5L612.3,387.8z"/>
		<path class="st20" d="M620.4,368.9c1.8-0.9,3.7-1.8,5.4-2.7l0.1-15.8c-1.7,0.9-3.6,1.9-5.4,2.7L620.4,368.9z"/>
		<path class="st20" d="M627.9,382.1c1.7-1,3.4-2,5-3l0.1-23.2c-1.7,1-3.3,2-5,3L627.9,382.1z"/>
		<path class="st20" d="M635,367.1c1.6-1.1,3.1-2.2,4.6-3.2l0.1-28.6c-1.5,1.1-3,2.2-4.6,3.2L635,367.1z"/>
		<path class="st20" d="M641.3,371.4c1.4-1.2,2.8-2.2,4.2-3.5l0.1-28.6c-1.3,1.2-2.7,2.3-4.2,3.5L641.3,371.4z"/>
		<path class="st20" d="M647.1,328.1l-0.1,28.6c1.2-1.2,2.5-2.4,3.7-3.7l0.1-28.6C649.6,325.7,648.4,326.9,647.1,328.1z"/>
		<path class="st20" d="M652,362.3c1.1-1.2,2.2-2.5,3.2-3.8l0.1-17.6c-1,1.3-2,2.6-3.2,3.8L652,362.3z"/>
		<path class="st20" d="M656.3,361.5c0.9-1.3,1.8-2.7,2.6-4l0.1-28.6c-0.8,1.3-1.7,2.7-2.6,4L656.3,361.5z"/>
	</g>
	<g class="st8">
		<path class="st9" d="M594.7,410.7v6.6c2.2-0.6,4.3-1.2,6.5-1.9v-6.6l-3.2-1.7L594.7,410.7z"/>
		<path class="st9" d="M603.6,407.8v6.6c2.1-0.7,4.2-1.4,6.2-2.2v-6.6l-3.1-1.6L603.6,407.8z"/>
		<path class="st9" d="M612.2,404.7v6.6c2-0.8,3.9-1.7,5.8-2.5v-6.6l-2.8-1.4L612.2,404.7z"/>
		<path class="st9" d="M620.4,401.1v6.6c1.8-0.9,3.7-1.8,5.4-2.7v-6.6l-2.7-1.2L620.4,401.1z"/>
		<path class="st9" d="M627.8,397.2v6.6c1.7-1,3.4-2,5-3v-6.6l-2.5-1.2L627.8,397.2z"/>
		<path class="st9" d="M634.8,393v6.6c1.6-1.1,3.1-2.2,4.6-3.2v-6.6l-2.2-1.1L634.8,393z"/>
		<path class="st9" d="M641.1,388.3v6.6c1.4-1.2,2.8-2.2,4.2-3.4v-6.6l-2-0.9L641.1,388.3z"/>
		<path class="st9" d="M646.9,383.5v6.6c1.2-1.2,2.5-2.4,3.7-3.7v-6.6l-1.7-0.8L646.9,383.5z"/>
		<path class="st9" d="M651.9,378.3v6.6c1.1-1.2,2.2-2.5,3.2-3.8v-6.6l-1.5-0.7L651.9,378.3z"/>
		<path class="st9" d="M656.2,372.9v6.6c0.9-1.3,1.8-2.7,2.6-4v-6.6l-1.2-0.7L656.2,372.9z"/>
		<path class="st9" d="M594.6,407.1c2.2-0.6,4.3-1.2,6.5-1.9l0.1-28.6c-2.2,0.7-4.3,1.3-6.5,1.9L594.6,407.1z"/>
		<path class="st9" d="M603.6,404.4c2.1-0.7,4.2-1.4,6.2-2.2l0.1-22c-2,0.7-4.1,1.5-6.2,2.2L603.6,404.4z"/>
		<path class="st9" d="M612.3,401.1c2-0.8,3.9-1.7,5.8-2.5v-13.3c-1.9,0.8-3.8,1.7-5.8,2.5V401.1z"/>
		<path class="st9" d="M620.4,397.5c1.8-0.9,3.7-1.8,5.4-2.7l0.1-28.6c-1.7,0.9-3.6,1.9-5.4,2.7L620.4,397.5z"/>
		<path class="st9" d="M627.9,393.6c1.7-1,3.4-2,5-3v-11.6c-1.7,1-3.3,2-5,3V393.6z"/>
		<path class="st9" d="M634.9,389.3c1.6-1.1,3.1-2.2,4.6-3.2l0.1-22.2c-1.5,1.1-3,2.2-4.6,3.2L634.9,389.3z"/>
		<path class="st9" d="M641.2,384.7c1.4-1.2,2.8-2.2,4.2-3.5v-13.3c-1.3,1.2-2.7,2.3-4.2,3.5V384.7z"/>
		<path class="st9" d="M647,356.7l-0.1,23.2c1.2-1.2,2.5-2.4,3.7-3.7l0.1-23.2C649.5,354.3,648.3,355.5,647,356.7z"/>
		<path class="st9" d="M651.9,374.7c1.1-1.2,2.2-2.5,3.2-3.8v-12.4c-1,1.3-2,2.6-3.2,3.8V374.7z"/>
		<path class="st9" d="M656.3,361.5v7.7c0.9-1.3,1.8-2.7,2.6-4v-7.7C658.1,358.9,657.2,360.2,656.3,361.5z"/>
	</g>
	<path class="st21" d="M493.9,353.8c-0.3,0-0.7-0.1-1-0.3c-1.2-0.7-2.1-2.3-2.1-3.7c0-1,0.5-1.6,1.2-1.6c0.3,0,0.7,0.1,1,0.3
		c1.2,0.7,2.1,2.3,2.1,3.7C495.2,353.1,494.7,353.8,493.9,353.8z M492.1,348.4c-0.7,0-1.1,0.5-1.1,1.4c0,1.2,0.9,2.8,2,3.5
		c0.3,0.2,0.6,0.2,0.9,0.2c0.7,0,1.1-0.5,1.1-1.4c0-1.2-0.9-2.8-2-3.5C492.6,348.5,492.3,348.4,492.1,348.4z"/>
	<path class="st21" d="M493.3,353.5h-0.2v16.5h0.2V353.5z"/>
	<path class="st21" d="M460.9,334.8c-0.3,0-0.7-0.1-1-0.3c-1.2-0.7-2.1-2.3-2.1-3.7c0-1,0.5-1.6,1.2-1.6c0.3,0,0.7,0.1,1,0.3
		c1.2,0.7,2.1,2.3,2.1,3.7C462.2,334.2,461.7,334.8,460.9,334.8z M459.1,329.5c-0.7,0-1.1,0.5-1.1,1.4c0,1.2,0.9,2.8,2,3.5
		c0.3,0.2,0.6,0.2,0.9,0.2c0.7,0,1.1-0.5,1.1-1.4c0-1.2-0.9-2.8-2-3.5C459.7,329.5,459.3,329.5,459.1,329.5z"/>
	<path class="st21" d="M460.3,334.5h-0.2V351h0.2V334.5z"/>
	<path class="st21" d="M516.6,351.2c-0.3,0-0.7-0.1-1-0.3c-1.2-0.7-2.1-2.3-2.1-3.7c0-1,0.5-1.6,1.2-1.6c0.3,0,0.7,0.1,1,0.3
		c1.2,0.7,2.1,2.3,2.1,3.7C517.8,350.6,517.4,351.2,516.6,351.2z M514.8,345.9c-0.7,0-1.1,0.5-1.1,1.4c0,1.2,0.9,2.8,2,3.5
		c0.3,0.2,0.6,0.2,0.9,0.2c0.7,0,1.1-0.5,1.1-1.4c0-1.2-0.9-2.8-2-3.5C515.4,346,515,345.9,514.8,345.9z"/>
	<path class="st21" d="M516.1,351h-0.2v16.5h0.2V351z"/>
	<g class="st8">
		<path class="st9" d="M521.1,390c-3.4,3.1-3.4,3.1-12.9-3.4c-4.1-2.8-7,2.2-10.7,1.7c-1.6-0.2-2.6-1.6-6-8.2
			c-4-7.8-8.6-16.6-14-19.3c-3.3-1.2-6.2-1.9-15.2,0.3c-7.7,1.9-9.5,2.1-11.7-0.2c-2.4-2.4-2.8-6.5-6.3-8.1c-1.6,1.4-1.7,3.8-3.4,5
			c-2.1-0.8-2.7-3-4.7-17c-0.9-6.4-1.9-13.6-3.9-17.6c-0.1,0-0.2,0-0.2,0V359c4.4,16.2,17.8,30.8,37,41.9
			c17.6,10.2,40.3,17.5,65.6,20.6v-40.2C532.6,379.5,530.9,381.1,521.1,390z"/>
	</g>
	<path class="st21" d="M517.8,392.2c-1.7,0-4.1-1.6-9.6-5.4c-2.3-1.6-4.2-0.6-6.2,0.4c-1.4,0.7-2.9,1.5-4.5,1.2
		c-1.7-0.2-2.7-1.7-6.2-8.3c-4-7.8-8.6-16.6-13.9-19.2c-3.2-1.2-6.1-1.8-15.1,0.3c-7.8,1.9-9.6,2.1-12-0.2c-1-1-1.7-2.2-2.3-3.5
		c-1-1.8-1.9-3.6-3.8-4.5c-0.7,0.6-1,1.4-1.4,2.2c-0.5,1-1,2.1-2,2.7l-0.1,0.1h-0.1c-2.2-0.8-2.8-3.1-4.7-17.1
		c-0.8-6.3-1.8-13.5-3.8-17.5H432V323h0.3l0.1,0.1c2.1,4.1,3.1,11.3,3.9,17.7c1.8,13.6,2.5,16,4.4,16.8c0.8-0.6,1.2-1.5,1.7-2.5
		c0.4-0.8,0.8-1.7,1.6-2.4l0.1-0.1l0.1,0.1c2.2,1,3.2,2.9,4.2,4.7c0.7,1.2,1.2,2.4,2.2,3.3c2.2,2.2,3.9,2,11.6,0.2
		c9.1-2.2,12.1-1.6,15.4-0.3c5.5,2.7,10.1,11.6,14,19.4c3.3,6.5,4.3,7.9,5.8,8.1c1.5,0.2,2.8-0.5,4.2-1.2c2-1.1,4.1-2.2,6.6-0.4
		c9.3,6.4,9.3,6.4,12.6,3.4c10-9,11.7-10.6,13.9-8.8l-0.2,0.3c-1.8-1.6-3.6,0-13.3,8.8C519.8,391.5,518.9,392.2,517.8,392.2z"/>
	<g class="st8">
		<path class="st9" d="M515.8,367.3c-2.4,0.4-2.4,0.4-6.2,4.1c-16.4,15.5-29.8-0.8-34.2-6.2c-6.7-8.1-11-13.4-15.9-14.2
			c-6.9-1.2-7,7.2-11.6,9.3c-1-0.6-2.3-1.5-2.9-2.5c-2.5-4.1-3.2-8.8-5.4-13c-1.7-3.1-4.7-5.1-6.2-8.2c-0.7-1.4-1.1-3.8-1.4-6.3
			v27.2c4,16.9,17.5,32,37.4,43.4c17.5,10.1,40.1,17.5,65.2,20.5v-29.6C524.8,386.5,524.6,373.4,515.8,367.3z"/>
	</g>
	<path class="st21" d="M534.6,392c-5.3-2.8-7.9-8-10.4-12.9c-2.2-4.3-4.4-8.7-8.5-11.6c-2.2,0.4-2.2,0.4-6,4
		c-4.9,4.7-10.1,6.9-15.2,6.6c-9.3-0.6-16.3-9.1-19.3-12.7c-6.6-8-11-13.3-15.7-14.1c-4.1-0.7-5.7,1.9-7.3,4.7
		c-1.1,1.8-2.2,3.7-4.1,4.6l-0.1,0.1l-0.1-0.1c-1-0.6-2.3-1.6-3-2.6c-1.3-2.2-2.2-4.6-3-6.9c-0.7-2-1.4-4.2-2.5-6.1
		c-0.7-1.4-1.9-2.7-3-3.9c-1.2-1.3-2.4-2.7-3.2-4.4c-0.6-1.2-1.1-3.3-1.4-6.4l0.4-0.1c0.3,3.1,0.8,5.2,1.4,6.3c0.8,1.6,2,3,3.2,4.3
		c1.1,1.2,2.2,2.5,3,3.9c1.1,1.9,1.8,4.1,2.5,6.2c0.8,2.3,1.7,4.7,2.9,6.8c0.6,0.9,1.7,1.7,2.7,2.3c1.7-0.8,2.7-2.7,3.8-4.4
		c1.7-2.8,3.4-5.7,7.7-4.9c5,0.9,9.3,6.2,16,14.3c3,3.6,9.9,12,19,12.6c5.1,0.3,10.1-1.8,14.9-6.4c3.9-3.7,3.9-3.7,6.3-4.2h0.1
		l0.1,0.1c4.2,2.9,6.5,7.5,8.6,11.8c2.5,4.9,5,9.9,10.2,12.7L534.6,392z"/>
	<g class="st8">
		<path class="st9" d="M534.3,403.2c-0.1-0.2-12.9-13.3-21.4-4.2c-5.2,5.5-8.6-4-12.1-14.1c-4.2-12-4.7-12.7-7.4-15.3
			c-2.3,0.2-2.7,0.2-6.1,3.9c-4.7,5.2-10.6,11.6-18.6,3.7c-1.6-1.6-1.6-1.6-15.7-25.3c-2.3-3.9-4-6.6-6.2-8.1
			c-2-1.2-3.2,2.2-5.2,0.9c-0.5-0.3-1.1-0.9-1.3-1.4c-3.3-6-5.3-13.9-8.1-28.9v45.8c9.7,30.6,49.2,54.3,102.6,61.2v-17.8
			C534.6,403.5,534.5,403.4,534.3,403.2z"/>
	</g>
	<path class="st21" d="M534.5,403.8c-0.1-0.2-0.2-0.2-0.3-0.4c-0.1-0.1-7-7.2-14-7.4c-2.7-0.1-5.2,1-7.2,3.1
		c-1.2,1.3-2.5,1.9-3.7,1.6c-3.5-0.7-6.1-8-8.7-15.7c-4.2-11.8-4.7-12.6-7.3-15.1c-2.2,0.2-2.6,0.2-5.9,3.8
		c-3.2,3.4-6.7,7.3-11.1,7.5c-2.6,0.1-5.2-1.2-7.7-3.7c-1.7-1.6-1.7-1.6-15.8-25.3c-2.3-3.8-4-6.7-6.1-8c-0.9-0.6-1.6-0.1-2.3,0.5
		c-0.8,0.6-1.7,1.2-2.9,0.4c-0.5-0.3-1.1-1-1.4-1.5c-3.5-6.3-5.5-14.7-8.1-29l0.4-0.1c2.7,14.2,4.7,22.6,8.1,28.8
		c0.2,0.5,0.8,1.1,1.2,1.4c0.9,0.6,1.6,0.2,2.4-0.4c0.8-0.6,1.7-1.2,2.8-0.5c2.2,1.4,3.9,4.2,6.2,8.1c14.1,23.7,14.1,23.7,15.7,25.2
		c2.6,2.5,5,3.7,7.5,3.7c4.2-0.1,7.7-3.9,10.8-7.3c3.4-3.7,3.8-3.8,6.2-4h0.1l0.1,0.1c2.7,2.6,3.2,3.3,7.5,15.4
		c2.7,7.6,5.2,14.7,8.4,15.5c1.1,0.2,2.2-0.2,3.3-1.5c2.2-2.2,4.7-3.3,7.7-3.2c7.2,0.2,14.1,7.4,14.1,7.5c0.2,0.2,0.2,0.2,0.3,0.4
		L534.5,403.8z"/>
	<path class="st22" d="M448,510.6V461c84.6,46.8,165.2,19.8,195-5v36C561.7,559.7,479.1,532.6,448,510.6z"/>
	<path class="st23" d="M586,504.3c0.2,3.1,0.3,6.2,0.5,9.2c0.1,2.2-0.5,3.5-2.7,3.4c-2.6-0.2-5.1,0.4-7.7-0.4
		c-3.6-1.1-6-4.1-6.3-8.4c-0.4-4.5-0.5-9-0.8-13.4c-0.1-1.3-0.1-2.6,1.3-2.7c1.6-0.1,1.8,1.3,1.9,2.7c0.3,4.1,0.4,8.2,0.7,12.3
		c0.3,3.9,2.2,6.2,5.2,6.2c3.1,0,4.8-2.4,4.6-6.5c-0.2-4-0.4-8-0.7-12c-0.1-1.4,0-2.8,1.5-2.8c1.5,0,1.7,1.5,1.8,2.8
		C585.7,497.8,585.8,501.1,586,504.3"/>
	<path class="st23" d="M625.3,500.8c-3.7-0.1-6.7-2.2-7.9-5.5c-0.4-1.2-0.7-2.5,0.5-3.2c1.2-0.6,1.9,0.3,2.5,1.5
		c1.7,3.1,5,4.3,7.7,2.7c1-0.6,1.9-1.5,1.8-3c0-1.6-0.9-2.6-2.1-3.1c-0.9-0.4-1.9-0.6-2.8-0.7c-1.8-0.2-3.5-0.9-4.9-2.2
		c-2.9-2.7-3.1-7.1-0.4-10c3.1-3.3,8.7-2.8,11.5,1.1c0.3,0.4,0.6,0.9,0.8,1.4c0.5,1.3,0.9,2.6-0.5,3.4c-1.2,0.7-1.9-0.4-2.4-1.6
		c-1.1-2.8-3.2-3.1-5.3-2.7c-1.4,0.3-2.5,1.2-2.5,3.1c0,1.8,1.1,2.6,2.4,3.2c0.4,0.2,0.8,0.2,1.2,0.3c0.4,0.1,0.8,0.1,1.2,0.1
		c4.2,0.7,7.5,4.2,7.4,8C633.3,497.6,629.6,500.9,625.3,500.8z"/>
	<path class="st23" d="M609.6,494.7c0.1,3.8,0.2,7.6,0.4,11.5c0.1,1.4-0.3,2.7-1.5,2.7c-1.2,0-1.5-1.4-1.6-2.6
		c-0.3-7.8-0.5-15.6-0.7-23.4c0-1.1,0.3-2.2,1.4-2.2c1.3,0,1.6,1.1,1.7,2.4C609.4,486.9,609.5,490.8,609.6,494.7"/>
	<path class="st23" d="M481.3,495.5c0-3.7,0-7.4,0-11.1c0-1.2,0.1-2.4,1.4-2.4c1.3,0,1.6,1.2,1.6,2.4c0,7.6,0,15.2-0.1,22.8
		c0,1.2-0.5,2.4-1.6,2.3c-1.2-0.1-1.4-1.4-1.4-2.6C481.3,503,481.3,499.3,481.3,495.5"/>
	<path class="st23" d="M595.8,497.1c-0.1-3.6-0.2-7.3-0.3-10.9c0-1.2-0.2-2.7,1.3-2.8c1.5-0.1,1.6,1.4,1.7,2.6
		c0.3,7.6,0.5,15.2,0.7,22.9c0,1.3-0.2,2.7-1.5,2.7c-1.4-0.1-1.5-1.6-1.5-2.8C596,504.9,595.9,501,595.8,497.1"/>
	<path class="st23" d="M504.9,506.7c-1.7,0.7-3.3,1.5-5.1,1.1c-4.9-0.9-7.2-4.7-6.9-11c0.3-5.3,3.1-8.4,7.9-8.3
		c1.7,0,3.4,0.2,5.2,0.2c1.5,0,2.3,0.8,2.3,2.5c-0.1,5.5,0,11.1-0.3,16.6c-0.2,4.1-2.5,6.8-5.6,7.7c-2.8,0.8-6.5-0.9-8.2-3.7
		c-0.5-0.9-1.2-1.9-0.5-2.8c1.4-2.1,2.2-0.4,3.1,0.9c1.4,2.1,3.3,2.7,5.4,1.9C504.2,511.1,505,509.3,504.9,506.7L504.9,506.7z
		 M500.5,492.1c-2.8-0.1-4.5,2-4.6,5.8c-0.1,3.7,1.8,6.4,4.6,6.5c2.7,0.1,4.6-2.2,4.6-5.8C505.1,494.6,503.4,492.2,500.5,492.1z"/>
	<path class="st23" d="M544.8,496.1c4.9-3.1,8.2-3.1,11.3,0.1c3.7,3.7,5,10.1,3.3,15.7c-1.6,5.1-4.9,7.8-9.6,7.6
		c-1.8,0-3.7-0.2-5.5-0.2c-1.7,0-2.6-0.9-2.7-2.8c-0.1-8.2-0.1-16.4-0.1-24.6c0-1.3,0.4-2.5,1.7-2.4c1.2,0.1,1.5,1.2,1.6,2.4
		C544.8,493.2,544.8,494.5,544.8,496.1L544.8,496.1z M551,515.5c3.2,0,5.9-4,5.9-8.9c0-0.2,0-0.4,0-0.6c-0.2-4.7-2.9-8.4-6.1-8.5
		c-3.1-0.1-5.7,3.5-5.9,7.9c0,0.2,0,0.4,0,0.6C544.8,511.1,547.7,515.5,551,515.5"/>
	<path class="st23" d="M470.8,494.4c-0.4,10.8,0.6,9.1-9.3,8.5c-5.7-0.3-9.8-4.5-11-11c-1.2-6.6,1.4-14.1,5.8-16.8
		c5.5-3.2,11.6,0.3,13.8,7.8C471.2,486.7,470.9,490.5,470.8,494.4z M461.1,478.3c-3.6-0.4-6.9,3.7-7.2,9c-0.4,5.5,2.5,10.6,6.2,11.1
		c3.6,0.4,7-4.2,7.2-9.8C467.4,483.2,464.7,478.7,461.1,478.3z"/>
	<path class="st23" d="M515.9,506.7c0-3.2,0.8-5.9,2.2-8.4c3.7-6.1,11.1-5.7,14.5,0.8c2.8,5.3,2.3,12.8-1.1,17.4
		c-4.3,5.9-12.2,3.7-14.8-4C516.1,510.6,515.7,508.5,515.9,506.7z M525.7,497.7c-3.3-0.4-6.1,3-6.6,8c-0.4,4.8,2.2,9.5,5.5,10
		c3.2,0.5,6.2-3.4,6.5-8.4C531.4,502.4,529,498.1,525.7,497.7z"/>
	<path class="st24" d="M631.5,468.1c0-0.6,0.1-1.1,0.3-1.6c0.2-0.5,0.6-0.9,1.1-1.2c0.5-0.3,1-0.4,1.5-0.4c0.5,0,1.1,0.1,1.5,0.4
		c0.5,0.3,0.9,0.7,1.1,1.2c0.3,0.5,0.4,1,0.5,1.6c0,0.6-0.1,1.1-0.3,1.6c-0.2,0.5-0.6,0.9-1,1.2c-0.5,0.3-1,0.4-1.5,0.4
		c-0.6,0-1.1-0.1-1.6-0.4c-0.5-0.3-0.9-0.7-1.1-1.2C631.6,469.2,631.5,468.6,631.5,468.1z M632,468.1c0,0.5,0.2,0.9,0.4,1.4
		c0.2,0.4,0.6,0.7,1,1c0.4,0.2,0.8,0.4,1.3,0.4c0.5,0,0.9-0.1,1.3-0.4c0.4-0.2,0.7-0.6,0.9-1c0.2-0.4,0.3-0.9,0.3-1.3
		c0-0.5-0.1-0.9-0.4-1.3c-0.2-0.4-0.6-0.7-1-1c-0.4-0.2-0.8-0.4-1.3-0.4c-0.5,0-0.9,0.1-1.3,0.4c-0.4,0.2-0.7,0.6-0.9,1
		C632,467.1,631.9,467.6,632,468.1z M633.9,468.4l0.1,1.4l-0.6,0l-0.1-3.6l1.2,0c0.4,0,0.8,0.1,1,0.3c0.2,0.2,0.4,0.5,0.4,0.8
		c0,0.3-0.2,0.6-0.5,0.8c0.4,0.1,0.5,0.4,0.6,0.9l0,0.3c0,0.2,0,0.4,0.1,0.5l0,0.1l-0.6,0c0-0.1-0.1-0.3-0.1-0.5c0-0.3,0-0.4,0-0.5
		c-0.1-0.3-0.2-0.4-0.6-0.4H633.9z M633.9,467.9h0.7c0.2,0,0.4-0.1,0.5-0.1c0.1-0.1,0.2-0.2,0.2-0.4c0-0.2-0.1-0.4-0.2-0.4
		c-0.1-0.1-0.3-0.1-0.6-0.1h-0.6L633.9,467.9z"/>
</g>
</svg>
