<svg width="24" height="34" viewBox="0 0 24 34" fill="none" xmlns="http://www.w3.org/2000/svg">
<path fill-rule="evenodd" clip-rule="evenodd" d="M23 34C23.5523 34 24 33.5523 24 33V5.37433C24 4.82205 23.5523 4.37433 23 4.37433H18.6763C18.1241 4.37433 17.6763 4.82205 17.6763 5.37433V5.44145C17.6763 5.81759 17.3599 6.12407 16.9686 6.12407H7.03141C6.64013 6.12407 6.32366 5.81759 6.32366 5.44145V5.37433C6.32366 4.82205 5.87595 4.37433 5.32366 4.37433H0.999999C0.447714 4.37433 0 4.82205 0 5.37433V33C0 33.5523 0.447715 34 1 34H23ZM7.73627 3.75883C7.73627 4.31111 8.18399 4.75883 8.73627 4.75883H15.2637C15.816 4.75883 16.2637 4.31111 16.2637 3.75883V3.6246C16.2637 3.07232 15.816 2.6246 15.2637 2.6246H14.7101C14.3217 2.6246 14.0053 2.31812 14.0053 1.94198C14.0053 1.40474 13.7813 0.920336 13.4194 0.569352C13.4187 0.568734 13.4184 0.567883 13.4184 0.566996C13.4184 0.566103 13.418 0.56525 13.4174 0.564632C13.0549 0.216921 12.5547 0 12 0C11.4476 0 10.9441 0.217324 10.5816 0.568385C10.2191 0.919446 9.99473 1.40424 9.99473 1.94198C9.99473 2.31812 9.67826 2.6246 9.28986 2.6246H8.73627C8.18399 2.6246 7.73627 3.07232 7.73627 3.6246V3.75883ZM10.1069 11.1754H20.047C20.4354 11.1754 20.7519 11.4791 20.7519 11.8581C20.7519 12.2342 20.4354 12.5407 20.047 12.5407H10.1069C9.71853 12.5407 9.40206 12.2342 9.40206 11.8581C9.40206 11.4791 9.71853 11.1754 10.1069 11.1754ZM10.1069 16.6448H20.047C20.4354 16.6448 20.7519 16.9485 20.7519 17.3274C20.7519 17.7035 20.4354 18.01 20.047 18.01H10.1069C9.71853 18.01 9.40206 17.7035 9.40206 17.3274C9.40206 16.9485 9.71853 16.6448 10.1069 16.6448ZM3.41501 27.7784C3.66531 27.4887 4.10837 27.4524 4.4047 27.6948C4.73219 27.9607 5.21138 27.9196 5.48882 27.6018L6.04747 26.9621C6.30065 26.6723 6.74371 26.6361 7.04004 26.8813C7.33925 27.1237 7.37665 27.5555 7.12347 27.8425L5.61017 29.5699C5.36274 29.8569 4.91968 29.8931 4.62335 29.6507L3.50132 28.7369C3.20499 28.4945 3.16471 28.0654 3.41501 27.7784ZM3.41501 22.3063C3.66531 22.0193 4.10837 21.9831 4.4047 22.2255C4.73209 22.4913 5.21118 22.4499 5.48817 22.132L6.04747 21.49C6.30065 21.203 6.74371 21.1668 7.04004 21.4119C7.33925 21.6543 7.37665 22.0834 7.12347 22.3732L5.61017 24.1006C5.36274 24.3848 4.91968 24.421 4.62335 24.1814L3.50132 23.2648C3.20499 23.0252 3.16471 22.5933 3.41501 22.3063ZM7.04004 10.4733C7.33925 10.7157 7.37665 11.1476 7.12347 11.4346L5.61017 13.162C5.36274 13.449 4.91968 13.4852 4.62335 13.2428L3.50132 12.3289C3.20499 12.0865 3.16471 11.6575 3.41501 11.3705C3.66531 11.0807 4.10837 11.0445 4.4047 11.2869C4.73209 11.5527 5.21118 11.5113 5.48817 11.1933L6.04747 10.5513C6.30065 10.2644 6.74371 10.2281 7.04004 10.4733ZM3.41501 16.837C3.66531 16.55 4.10837 16.5138 4.4047 16.7562C4.73209 17.022 5.21118 16.9806 5.48817 16.6627L6.04747 16.0207C6.30065 15.7337 6.74371 15.6975 7.04004 15.9426C7.33925 16.185 7.37665 16.6169 7.12347 16.9039L5.61017 18.6313C5.36274 18.9155 4.91968 18.9545 4.62335 18.7121L3.50132 17.7955C3.20499 17.5558 3.16471 17.1268 3.41501 16.837ZM10.1069 22.1113H20.047C20.4354 22.1113 20.7519 22.4178 20.7519 22.7967C20.7519 23.1728 20.4354 23.4793 20.047 23.4793H10.1069C9.71853 23.4793 9.40206 23.1728 9.40206 22.7967C9.40206 22.4178 9.71853 22.1113 10.1069 22.1113ZM9.40206 28.266C9.40206 27.8871 9.71853 27.5834 10.1069 27.5834H20.047C20.4354 27.5834 20.7519 27.8871 20.7519 28.266C20.7519 28.6421 20.4354 28.9486 20.047 28.9486H10.1069C9.71853 28.9486 9.40206 28.6421 9.40206 28.266Z" fill="url(#paint0_linear)"/>
<defs>
<linearGradient id="paint0_linear" x1="24" y1="1.17456e-05" x2="-9.61192" y2="2.14466" gradientUnits="userSpaceOnUse">
<stop stop-color="#2C78F6"/>
<stop offset="1" stop-color="#00BFE7"/>
</linearGradient>
</defs>
</svg>
