<svg width="26" height="25" viewBox="0 0 26 25" fill="none" xmlns="http://www.w3.org/2000/svg">
<path d="M11.7864 0.851871C15.8691 -1.03252 20.7124 0.294779 23.2694 3.98954L25.025 3.7682L23.3516 10.4623L18.4475 4.58561L20.0949 4.38465C18.1257 1.84377 14.9802 0.506459 11.7864 0.851871Z" fill="url(#paint0_linear)"/>
<path d="M13.7495 23.5166C9.66825 25.4035 4.82534 24.0802 2.26836 20.379L0.512695 20.6003L2.18433 13.9062L7.08803 19.7858L5.4425 19.9867C7.40984 22.5269 10.5554 23.8624 13.7495 23.5166Z" fill="url(#paint1_linear)"/>
<path d="M12.7699 6.73697C12.7699 10.2647 9.91146 13.1207 6.38404 13.1207C2.85805 13.1207 0 10.2647 0 6.73697C0 3.21134 2.85769 0.348999 6.38404 0.348999C9.91146 0.348999 12.7699 3.21134 12.7699 6.73697ZM5.26163 4.18679C5.21336 4.38452 5.1869 4.58548 5.1869 4.78679V6.04722H4.04482V6.81206H5.1869V8.84341C5.1869 9.47702 4.67629 9.98334 4.04482 9.98334V10.8647H8.31277V9.98334H5.81836C6.03755 9.64794 6.15412 9.2514 6.15412 8.84341V6.81206H7.83326V6.04722H6.15412V4.78679C6.15412 4.70598 6.1602 4.62553 6.17236 4.54936C6.30108 3.76092 7.04482 3.22564 7.83362 3.35866L8.1962 2.44721C6.90501 2.11539 5.59131 2.89561 5.26163 4.18679Z" fill="url(#paint2_linear)"/>
<path d="M25.5373 17.6331C25.5373 21.1591 22.6796 24.019 19.1515 24.019C15.6262 24.019 12.7678 21.1591 12.7678 17.6331C12.7678 14.1036 15.6262 11.2473 19.1515 11.2473C22.6796 11.2473 25.5373 14.1032 25.5373 17.6331ZM19.13 16.6816C18.9609 16.6774 18.7921 16.6538 18.6309 16.6069C18.4864 16.5672 18.3495 16.5064 18.225 16.4199C18.1063 16.3395 18.0059 16.2354 17.929 16.1145C17.871 16.0141 17.8403 15.9029 17.8403 15.7927C17.8403 15.6762 17.871 15.5678 17.929 15.4709C18.0059 15.3501 18.1063 15.246 18.225 15.1656C18.3495 15.079 18.4861 15.0118 18.6309 14.9721C18.8 14.9281 18.9774 14.9038 19.1519 14.9038C19.3292 14.9038 19.5037 14.9281 19.675 14.9721C19.8194 15.0118 19.9564 15.079 20.0815 15.1656C20.1395 15.1992 20.1938 15.2492 20.2442 15.2996L21.8029 14.5956C21.6584 14.361 21.4811 14.1536 21.2722 13.9727C20.9908 13.731 20.6687 13.544 20.319 13.4195C20.0933 13.3384 19.8581 13.2826 19.6206 13.2483V12.7595H18.6856V13.2483C18.4482 13.2826 18.2129 13.3384 17.9858 13.4195C17.6379 13.544 17.314 13.731 17.0347 13.9727C16.759 14.2073 16.5355 14.5016 16.3768 14.8277C16.2316 15.1294 16.1576 15.4548 16.1576 15.7927C16.1576 16.1246 16.2316 16.456 16.3768 16.7578C16.5352 17.0839 16.7587 17.3718 17.0347 17.6128C17.314 17.848 17.6383 18.0415 17.9858 18.1623C18.3538 18.2907 18.7399 18.3633 19.1304 18.3633C19.3135 18.3633 19.4962 18.3869 19.675 18.4373C19.8194 18.4777 19.9564 18.5378 20.0815 18.6243C20.2003 18.7048 20.3007 18.8095 20.3747 18.9336C20.4355 19.0305 20.4656 19.141 20.4656 19.2522C20.4656 19.3688 20.4355 19.4771 20.3747 19.5733C20.3007 19.6942 20.2003 19.7989 20.0815 19.879C19.9564 19.9656 19.8198 20.0321 19.675 20.0725C19.5037 20.1165 19.3292 20.1401 19.1519 20.1401C18.9774 20.1401 18.8 20.1165 18.6309 20.0725C18.4864 20.0321 18.3495 19.9656 18.225 19.879C18.1664 19.8447 18.1099 19.7946 18.0616 19.7442L16.503 20.4483C16.646 20.6836 16.8248 20.891 17.0343 21.0719C17.3136 21.3136 17.6379 21.5006 17.9855 21.625C18.2125 21.7055 18.4478 21.762 18.6852 21.7963V22.2851H19.6203V21.7963C19.8577 21.762 20.093 21.7055 20.3186 21.625C20.6687 21.5006 20.9905 21.3136 21.2719 21.0719C21.5472 20.8366 21.7707 20.5427 21.9291 20.2169C22.0743 19.9151 22.1483 19.5898 22.1483 19.2519C22.1483 18.9193 22.0743 18.5879 21.9291 18.2904C21.7707 17.9607 21.5472 17.6728 21.2719 17.4375C20.9905 17.1958 20.6683 17.0031 20.3186 16.8822C19.9442 16.7474 19.5498 16.6813 19.1515 16.6813C19.144 16.6816 19.1376 16.6816 19.13 16.6816Z" fill="url(#paint3_linear)"/>
<defs>
<linearGradient id="paint0_linear" x1="11.9512" y1="1.70016" x2="21.6837" y2="11.1932" gradientUnits="userSpaceOnUse">
<stop stop-color="#06B5E9"/>
<stop offset="1" stop-color="#2682F4"/>
</linearGradient>
<linearGradient id="paint1_linear" x1="0.677489" y1="15.6068" x2="10.4121" y2="25.0985" gradientUnits="userSpaceOnUse">
<stop stop-color="#06B5E9"/>
<stop offset="1" stop-color="#2682F4"/>
</linearGradient>
<linearGradient id="paint2_linear" x1="0.15898" y1="2.42444" x2="11.6516" y2="11.2821" gradientUnits="userSpaceOnUse">
<stop stop-color="#06B5E9"/>
<stop offset="1" stop-color="#2682F4"/>
</linearGradient>
<linearGradient id="paint3_linear" x1="12.9268" y1="13.3228" x2="24.4194" y2="22.1801" gradientUnits="userSpaceOnUse">
<stop stop-color="#06B5E9"/>
<stop offset="1" stop-color="#2682F4"/>
</linearGradient>
</defs>
</svg>
