<svg width="27" height="27" viewBox="0 0 27 27" fill="none" xmlns="http://www.w3.org/2000/svg">
<path d="M16.1425 13.2135C19.8773 13.2135 22.9153 10.2497 22.9153 6.60675C22.9153 2.96381 19.8773 0 16.1425 0C12.4077 0 9.36914 2.96381 9.36914 6.60675C9.36914 10.2497 12.4077 13.2135 16.1425 13.2135ZM15.3403 2.72334V2.54391C15.3403 2.11149 15.6992 1.76149 16.1425 1.76149C16.5853 1.76149 16.9446 2.11149 16.9446 2.54391V2.72438C17.8992 2.92416 18.6174 3.75353 18.6174 4.74355C18.6174 5.17544 18.258 5.52597 17.8152 5.52597C17.3719 5.52597 17.0131 5.17544 17.0131 4.74355C17.0131 4.46762 16.7826 4.2428 16.4997 4.2428H15.7804C15.4976 4.2428 15.2671 4.46762 15.2671 4.74355C15.2671 4.9016 15.3446 5.05182 15.4751 5.14571L16.1425 5.62768L17.7639 6.79818C18.2965 7.18261 18.6174 7.79759 18.6217 8.44439V8.4517C18.6254 9.00356 18.4088 9.52413 18.011 9.91691C17.7158 10.2085 17.3468 10.4041 16.9446 10.4865V10.6696C16.9446 11.102 16.5853 11.452 16.1425 11.452C15.6992 11.452 15.3403 11.102 15.3403 10.6696V10.4891C14.9489 10.4077 14.589 10.22 14.2981 9.93934C13.8954 9.55178 13.6719 9.03434 13.6687 8.48247C13.666 8.05057 14.0227 7.69796 14.4655 7.69536H14.4708C14.9114 7.69536 15.2703 8.04275 15.273 8.47308C15.274 8.74312 15.4968 8.9707 15.789 8.9707C16.2322 8.96809 16.0671 8.96903 16.5072 8.96653C16.7919 8.96434 17.0195 8.73895 17.0174 8.46213V8.45482C17.0163 8.29834 16.9387 8.14916 16.8093 8.05579L16.1425 7.57434L14.5205 6.40384C13.9836 6.01576 13.6628 5.39504 13.6628 4.74355C13.6628 3.75144 14.3831 2.92155 15.3403 2.72334Z" fill="url(#paint0_linear)"/>
<path d="M5.16798 16.9726C4.96236 16.6249 4.50562 16.5039 4.14695 16.7057L0.373739 18.8302C0.0164608 19.0319 -0.106108 19.4776 0.100152 19.8266L3.95657 26.3415C4.16299 26.6899 4.61968 26.8096 4.9776 26.6084L8.75082 24.4834C9.10863 24.2821 9.23072 23.8364 9.0244 23.4875L5.16798 16.9726Z" fill="url(#paint1_linear)"/>
<path d="M26.7883 15.6722C26.4252 15.1803 25.7225 15.0692 25.2188 15.4234C23.6904 16.4974 20.7556 18.5598 20.5224 18.7241C20.415 18.8133 20.3021 18.8942 20.1845 18.9656C19.723 19.2489 19.1877 19.4001 18.6288 19.4001H14.7865C14.3437 19.4001 13.9844 19.0501 13.9844 18.6177C13.9844 18.1848 14.3443 17.8353 14.7865 17.8353H18.8957C19.4994 17.8353 19.9829 17.345 19.9577 16.755C19.9342 16.1953 19.4444 15.7614 18.87 15.7614H15.7422C15.5304 15.5428 15.2983 15.3425 15.0496 15.1636C14.1945 14.5486 13.1378 14.1851 11.994 14.1851C9.96026 14.1851 7.93671 15.4348 7.09766 17.103L10.379 22.6461H16.5342C17.7427 22.6461 18.9331 22.3446 19.9807 21.7568C20.3438 21.5533 20.7326 21.3087 21.154 21.0135C22.9198 19.7762 26.53 17.2057 26.5327 17.2041C27.0375 16.8505 27.152 16.1641 26.7883 15.6722Z" fill="url(#paint2_linear)"/>
<defs>
<linearGradient id="paint0_linear" x1="22.9153" y1="4.56472e-06" x2="4.0289" y2="1.75016" gradientUnits="userSpaceOnUse">
<stop stop-color="#2C78F6"/>
<stop offset="1" stop-color="#00BFE7"/>
</linearGradient>
<linearGradient id="paint1_linear" x1="9.1247" y1="16.6079" x2="-3.6214" y2="17.649" gradientUnits="userSpaceOnUse">
<stop stop-color="#2C78F6"/>
<stop offset="1" stop-color="#00BFE7"/>
</linearGradient>
<linearGradient id="paint2_linear" x1="27.0009" y1="14.1851" x2="0.223663" y2="19.8787" gradientUnits="userSpaceOnUse">
<stop stop-color="#2C78F6"/>
<stop offset="1" stop-color="#00BFE7"/>
</linearGradient>
</defs>
</svg>
