<svg width="19" height="18" viewBox="0 0 19 18" fill="none" xmlns="http://www.w3.org/2000/svg">
<path d="M16.7083 0H2.29167C1.02083 0 0 0.918158 0 2.06117V11.5238C0 12.6668 1.02083 13.585 2.29167 13.585H4.4375V17.0328C4.4375 17.7073 5.33333 18.0446 5.875 17.5762L10.5 13.585H16.7083C17.9792 13.585 19 12.6668 19 11.5238V2.06117C19 0.918158 17.9792 0 16.7083 0ZM5.6875 9.65002C5.39583 9.78119 5.1875 9.46264 5.14583 9.38769C5.02083 9.16284 5.02083 8.97546 5.08333 8.93798C5.66667 8.63818 6.4375 8.16973 6.70833 7.70128L6.875 7.42021L6.52083 7.38274C5.5 7.30779 4.72917 6.53953 4.72917 5.64011C4.72917 4.66574 5.60417 3.87875 6.6875 3.87875C7.77083 3.87875 8.64583 4.66574 8.64583 5.64011C8.66667 7.83245 7.04167 9.03167 5.6875 9.65002ZM11.2708 9.65002C10.9792 9.78119 10.7708 9.46264 10.7292 9.38769C10.6042 9.16284 10.6042 8.97546 10.6667 8.93798C11.25 8.63818 12.0208 8.16973 12.2917 7.70128L12.4583 7.42021L12.1042 7.38274C11.0833 7.30779 10.3125 6.53953 10.3125 5.64011C10.3125 4.66574 11.1875 3.87875 12.2708 3.87875C13.3542 3.87875 14.2292 4.66574 14.2292 5.64011C14.25 7.83245 12.625 9.03167 11.2708 9.65002Z" fill="url(#paint0_linear)"/>
<defs>
<linearGradient id="paint0_linear" x1="19" y1="6.14699e-06" x2="-7.47116" y2="2.555" gradientUnits="userSpaceOnUse">
<stop stop-color="#2C78F6"/>
<stop offset="1" stop-color="#00BFE7"/>
</linearGradient>
</defs>
</svg>
