<svg width="14" height="18" viewBox="0 0 14 18" fill="none" xmlns="http://www.w3.org/2000/svg">
<path d="M13.6411 8.04285C13.1585 9.27912 11.9455 10.8479 8.87152 11.2865C9.27125 11.8581 9.75372 12.164 9.7399 13.3604V17.6677C8.8577 17.8804 7.93404 18 6.98292 18C6.0318 18 5.15408 17.8804 4.27189 17.6677V13.3071C4.27189 12.124 4.73605 11.7916 5.09431 11.2865C2.02035 10.8477 0.807352 9.27912 0.3247 8.04285C-0.323082 6.39426 0.0215402 4.34702 1.15197 3.04428C1.17944 3.01763 1.2209 2.95116 1.20708 2.91134C0.683144 1.39587 1.31729 0.13294 1.34493 0C1.93761 0.172752 2.03417 -0.172925 3.95024 0.957062L4.28104 1.14332C4.41889 1.22294 4.37761 1.1698 4.51546 1.1698C5.31491 0.957062 6.15582 0.837451 6.98292 0.837451C7.82383 0.837451 8.65093 0.957062 9.49166 1.1698L9.58823 1.18313C9.58823 1.18313 9.61569 1.18313 9.6848 1.14332C12.0695 -0.252724 11.9868 0.19941 12.6346 0C12.6484 0.13294 13.2825 1.40902 12.7588 2.91134C12.6898 3.11075 14.8265 4.99839 13.6411 8.04285Z" fill="#2C78F6"/>
</svg>
