<svg width="29" height="29" viewBox="0 0 29 29" fill="none" xmlns="http://www.w3.org/2000/svg">
<path d="M27.8969 11.9711L26.7203 10.6135C26.2075 10.0101 25.8756 9.25595 25.8153 8.44141L25.6645 6.66149C25.5136 4.82124 24.0354 3.34301 22.1951 3.19217L20.4152 3.04133C19.6308 2.98099 18.8465 2.67931 18.2431 2.13628L16.8855 0.95973C15.4676 -0.246993 13.386 -0.246993 11.9681 0.95973L10.6106 2.13628C10.0072 2.64914 9.25302 2.98099 8.43848 3.04133L6.65857 3.19217C4.81831 3.34301 3.34008 4.82124 3.18924 6.66149L3.0384 8.44141C2.97806 9.22578 2.67638 10.0101 2.13336 10.6135L0.9568 11.9711C-0.249923 13.389 -0.249923 15.4706 0.9568 16.8885L2.13336 18.246C2.64621 18.8494 2.97806 19.6036 3.0384 20.4181L3.18924 22.198C3.34008 24.0383 4.81831 25.5165 6.65857 25.6674L8.43848 25.8182C9.22285 25.8786 10.0072 26.1802 10.6106 26.7233L11.9681 27.8696C13.386 29.0764 15.4676 29.0764 16.8855 27.8696L18.2431 26.7233C18.8465 26.2104 19.6007 25.8786 20.4152 25.8182L22.1951 25.6674C24.0354 25.5165 25.5136 24.0383 25.6645 22.198L25.8153 20.4181C25.8756 19.6338 26.1773 18.8494 26.7203 18.246L27.8969 16.8885C29.1036 15.4706 29.1036 13.3588 27.8969 11.9711ZM14.4721 22.3489C10.0977 22.3489 6.53789 18.7891 6.53789 14.4147C6.53789 10.0403 10.0977 6.48049 14.4721 6.48049C18.8465 6.48049 22.4063 10.0403 22.4063 14.4147C22.4063 18.7891 18.8465 22.3489 14.4721 22.3489Z" fill="#1899EF"/>
<path d="M18.9369 12.3632L16.7346 11.9409C16.5234 11.9107 16.3123 11.7599 16.2218 11.5789L15.1357 9.58777C14.834 9.07491 14.11 9.07491 13.8083 9.58777L12.7223 11.5487C12.6016 11.7297 12.4206 11.8805 12.2094 11.9107L10.0071 12.3331C9.43394 12.4537 9.19259 13.1476 9.58478 13.6001L11.1233 15.2594C11.2742 15.4102 11.3345 15.6516 11.3345 15.8627L11.063 18.0952C11.0027 18.6985 11.606 19.1209 12.1189 18.8795L14.1703 17.9443C14.3815 17.8538 14.5927 17.8538 14.8039 17.9443L16.8553 18.8795C17.3983 19.1209 18.0017 18.6985 17.9112 18.0952L17.6397 15.8627C17.6095 15.6516 17.6698 15.4102 17.8508 15.2594L19.3894 13.6001C19.7514 13.1778 19.5402 12.4537 18.9369 12.3632Z" fill="#1899EF"/>
</svg>
