<svg width="28" height="28" viewBox="0 0 28 28" fill="none" xmlns="http://www.w3.org/2000/svg">
<path d="M26.8793 11.1141L25.9414 11.0466C25.7664 11.0352 25.5988 10.9717 25.4601 10.8643C25.3214 10.7569 25.218 10.6105 25.1631 10.4439C24.9631 9.81632 24.7101 9.20687 24.4068 8.62216C24.3272 8.46542 24.2964 8.28842 24.3183 8.114C24.3403 7.93958 24.4139 7.77573 24.5299 7.64359L25.1463 6.93129C25.3462 6.70056 25.4513 6.40266 25.4404 6.09757C25.4294 5.79248 25.3033 5.50286 25.0874 5.28704L22.7111 2.91072C22.4953 2.69484 22.2057 2.56871 21.9006 2.55771C21.5956 2.54671 21.2977 2.65165 21.0669 2.85143L20.3542 3.46825C20.222 3.58419 20.0582 3.65788 19.8838 3.67982C19.7093 3.70175 19.5323 3.67093 19.3756 3.59132C18.791 3.28803 18.1817 3.03502 17.5542 2.83502C17.3876 2.78015 17.2412 2.67673 17.1338 2.53804C17.0265 2.39936 16.963 2.23174 16.9516 2.05671L16.8841 1.11879C16.8616 0.814702 16.7249 0.530373 16.5015 0.322862C16.278 0.115352 15.9844 1.60297e-05 15.6795 0H12.3186C12.0138 2.27294e-05 11.7202 0.115371 11.4968 0.32289C11.2735 0.530408 11.1369 0.814734 11.1144 1.11879L11.0466 2.05671C11.0352 2.23174 10.9717 2.39936 10.8643 2.53804C10.7569 2.67673 10.6105 2.78015 10.4439 2.83502C9.81644 3.03502 9.20712 3.28803 8.62253 3.59132C8.46579 3.67093 8.2888 3.70175 8.11438 3.67982C7.93995 3.65788 7.7761 3.58419 7.64396 3.46825L6.93129 2.85143C6.70047 2.65165 6.40256 2.54671 6.0975 2.55771C5.79244 2.56871 5.50286 2.69484 5.28704 2.91072L2.91072 5.28704C2.69481 5.50286 2.56869 5.79248 2.55776 6.09757C2.54683 6.40266 2.65189 6.70056 2.8518 6.93129L3.46825 7.64396C3.58419 7.7761 3.65788 7.93995 3.67982 8.11438C3.70175 8.2888 3.67093 8.46579 3.59132 8.62253C3.28803 9.20712 3.03502 9.81644 2.83502 10.4439C2.78015 10.6105 2.67673 10.7569 2.53804 10.8643C2.39936 10.9717 2.23174 11.0352 2.05671 11.0466L1.11879 11.1141C0.814702 11.1366 0.530373 11.2732 0.322862 11.4967C0.115352 11.7201 1.60297e-05 12.0137 0 12.3186V15.6795C2.27294e-05 15.9844 0.115371 16.278 0.32289 16.5013C0.530408 16.7247 0.814734 16.8613 1.11879 16.8837L2.05671 16.9516C2.23174 16.963 2.39936 17.0265 2.53804 17.1338C2.67673 17.2412 2.78015 17.3876 2.83502 17.5542C3.03502 18.1817 3.28803 18.791 3.59132 19.3756C3.67093 19.5323 3.70175 19.7093 3.67982 19.8838C3.65788 20.0582 3.58419 20.222 3.46825 20.3542L2.8518 21.0669C2.65189 21.2976 2.54683 21.5955 2.55776 21.9006C2.56869 22.2057 2.69481 22.4953 2.91072 22.7111L5.28704 25.0874C5.50286 25.3033 5.79248 25.4294 6.09757 25.4404C6.40266 25.4513 6.70056 25.3462 6.93129 25.1463L7.64396 24.5299C7.7761 24.4139 7.93995 24.3403 8.11438 24.3183C8.2888 24.2964 8.46579 24.3272 8.62253 24.4068C9.20712 24.7101 9.81644 24.9631 10.4439 25.1631C10.6105 25.218 10.7569 25.3214 10.8643 25.4601C10.9717 25.5988 11.0352 25.7664 11.0466 25.9414L11.1144 26.8793C11.1364 27.1837 11.2728 27.4685 11.4962 27.6764C11.7196 27.8843 12.0135 27.9999 12.3186 28H15.6795C15.9847 28 16.2786 27.8844 16.5021 27.6765C16.7255 27.4686 16.862 27.1838 16.8841 26.8793L16.9516 25.9414C16.963 25.7664 17.0265 25.5988 17.1338 25.4601C17.2412 25.3214 17.3876 25.218 17.5542 25.1631C18.1817 24.9631 18.791 24.7101 19.3756 24.4068C19.5323 24.3272 19.7093 24.2964 19.8838 24.3183C20.0582 24.3403 20.222 24.4139 20.3542 24.5299L21.0669 25.1463C21.2976 25.3462 21.5955 25.4513 21.9006 25.4404C22.2057 25.4294 22.4953 25.3033 22.7111 25.0874L25.0874 22.7111C25.3033 22.4953 25.4294 22.2057 25.4404 21.9006C25.4513 21.5955 25.3462 21.2976 25.1463 21.0669L24.5299 20.3542C24.4139 20.222 24.3403 20.0582 24.3183 19.8838C24.2964 19.7093 24.3272 19.5323 24.4068 19.3756C24.7101 18.791 24.9631 18.1817 25.1631 17.5542C25.218 17.3876 25.3214 17.2412 25.4601 17.1338C25.5988 17.0265 25.7664 16.963 25.9414 16.9516L26.8793 16.8837C27.1837 16.8617 27.4685 16.7253 27.6764 16.5019C27.8843 16.2785 27.9999 15.9847 28 15.6795V12.3186C28 12.0134 27.8844 11.7195 27.6765 11.4961C27.4686 11.2726 27.1838 11.1361 26.8793 11.1141ZM14.5823 19.9898V22.3665H13.1279V19.9574C12.0979 19.7577 11.1213 19.3437 10.2616 18.7424C10.1134 18.6258 10.0163 18.4564 9.9906 18.2697C9.96492 18.083 10.0127 17.8936 10.1238 17.7414C10.235 17.5892 10.4009 17.486 10.5866 17.4537C10.7723 17.4214 10.9632 17.4624 11.1193 17.568C11.132 17.577 12.5085 18.5645 13.854 18.5645C16.5943 18.5645 16.5943 17.4412 16.5943 17.0183C16.5943 15.5728 14.3567 15.0791 14.3328 15.0724C14.309 15.0656 14.2955 15.0638 14.275 15.0582L13.4087 14.8068C13.006 14.7237 9.93487 14.0065 9.93487 11.525C9.93487 9.65666 11.474 8.5416 13.1264 8.28987V5.8621H14.5808V8.29323C15.4313 8.41969 16.2542 8.68941 17.0146 9.09093C17.1752 9.18917 17.2914 9.34583 17.3389 9.528C17.3864 9.71016 17.3615 9.90364 17.2693 10.0678C17.1771 10.2319 17.0249 10.354 16.8447 10.4083C16.6644 10.4625 16.4701 10.4448 16.3027 10.3589C15.5413 9.95847 14.7008 9.73128 13.8413 9.69358C12.8933 9.69358 11.3893 10.1914 11.3893 11.528C11.3893 12.8986 13.6936 13.3815 13.7171 13.386C13.7406 13.3904 13.7623 13.3957 13.7835 13.402L14.6551 13.6549C15.028 13.7373 18.0487 14.4843 18.0487 17.0194C18.0502 18.0599 17.5762 19.7545 14.5823 19.9902V19.9898Z" fill="#1899EF"/>
</svg>
