<svg width="27" height="27" viewBox="0 0 27 27" fill="none" xmlns="http://www.w3.org/2000/svg">
<path d="M25.757 25.4945C25.9022 25.4945 26.0199 25.6122 26.0199 25.7574C26.0199 25.9026 25.9022 26.0203 25.757 26.0203H1.24239C1.0972 26.0203 0.979492 25.9026 0.979492 25.7574C0.979492 25.6122 1.0972 25.4945 1.24239 25.4945C1.93988 25.4945 2.50529 24.9291 2.50529 24.2316V19.5779C2.50529 18.576 3.31751 17.7638 4.31943 17.7638C5.32135 17.7638 6.13356 18.576 6.13356 19.5779V24.2316C6.13356 24.9291 6.69898 25.4945 7.39646 25.4945C8.09395 25.4945 8.65937 24.9291 8.65937 24.2316V14.9751C8.65937 13.9872 9.4602 13.1864 10.4481 13.1864C11.4359 13.1864 12.2368 13.9872 12.2368 14.9751V24.2316C12.2368 24.9291 12.8022 25.4945 13.4997 25.4945C14.1972 25.4945 14.7626 24.9291 14.7626 24.2316V18.0267C14.7626 17.0388 15.5634 16.238 16.5513 16.238C17.5392 16.238 18.34 17.0388 18.34 18.0267V24.2316C18.34 24.9291 18.9054 25.4945 19.6029 25.4945C20.3004 25.4945 20.8658 24.9291 20.8658 24.2316V11.9489C20.8658 10.947 21.678 10.1348 22.6799 10.1348C23.6818 10.1348 24.4941 10.947 24.4941 11.9489V24.2316C24.4941 24.9291 25.0595 25.4945 25.757 25.4945Z" fill="#1899EF" stroke="white"/>
<path d="M25.7571 6.58319C26.1784 6.58319 26.52 6.24163 26.52 5.82029V3.53159C26.52 1.84623 25.1537 0.47998 23.4684 0.47998H21.1288C20.7075 0.47998 20.3659 0.821543 20.3659 1.24288C20.3659 1.66422 20.7075 2.00578 21.1288 2.00578H21.4019C22.3266 2.00578 22.7881 3.12529 22.1319 3.7769L18.6955 7.1896C17.5101 8.36678 15.5959 8.36346 14.4147 7.18219L13.5011 6.2686C11.8137 4.58124 9.07907 4.57766 7.3873 6.26061L1.24541 12.3705C0.946143 12.6682 0.94551 13.1523 1.244 13.4508C1.54131 13.7481 2.02313 13.7488 2.32132 13.4524L7.38748 8.416C9.07931 6.7341 11.813 6.73813 13.4999 8.425L14.0838 9.00893C15.4478 10.3729 17.6583 10.3763 19.0264 9.01639L23.2418 4.82641C23.8902 4.18193 24.9942 4.64119 24.9942 5.55538V5.82029C24.9942 6.24163 25.3357 6.58319 25.7571 6.58319Z" fill="#1899EF"/>
</svg>
