<svg width="27" height="26" viewBox="0 0 27 26" fill="none" xmlns="http://www.w3.org/2000/svg">
<path d="M21.8421 1.5778C21.8421 0.865655 21.265 0.288574 20.5528 0.288574H6.34275C5.6347 0.288574 5.05762 0.865655 5.05762 1.5778V4.29949H21.8421V1.5778ZM7.06717 3.01845C6.66608 3.01845 6.34275 2.69512 6.34275 2.29403C6.34275 1.89294 6.66608 1.56961 7.06717 1.56961C7.46826 1.56961 7.79159 1.89294 7.79159 2.29403C7.79159 2.69512 7.46826 3.01845 7.06717 3.01845ZM9.34684 3.01845C8.94575 3.01845 8.62242 2.69512 8.62242 2.29403C8.62242 1.89294 8.94575 1.56961 9.34684 1.56961C9.74384 1.56961 10.0672 1.89294 10.0672 2.29403C10.0672 2.69512 9.74384 3.01845 9.34684 3.01845ZM11.6224 3.01845C11.2254 3.01845 10.9021 2.69512 10.9021 2.29403C10.9021 1.89294 11.2254 1.56961 11.6224 1.56961C12.0235 1.56961 12.3468 1.89294 12.3468 2.29403C12.3468 2.69512 12.0235 3.01845 11.6224 3.01845Z" fill="#1899EF"/>
<path d="M13.4492 14.4674C14.6086 14.4674 15.5485 13.5263 15.5485 12.3655C15.5485 11.2047 14.6086 10.2637 13.4492 10.2637C12.2898 10.2637 11.3499 11.2047 11.3499 12.3655C11.3499 13.5263 12.2898 14.4674 13.4492 14.4674Z" fill="#1899EF"/>
<path d="M24.1094 12.7752C24.2813 13.2909 24.7724 13.6675 25.3454 13.6675C26.0616 13.6675 26.6469 13.0822 26.6469 12.3659C26.6469 11.6456 26.0616 11.0603 25.3454 11.0603C24.7724 11.0603 24.2813 11.4369 24.1094 11.9567H21.842V9.73837H23.3686C23.4832 9.73837 23.5937 9.68926 23.6715 9.60331L24.8215 8.32231C24.9811 8.39598 25.1612 8.43691 25.3454 8.43691C26.0616 8.43691 26.6469 7.85165 26.6469 7.13132C26.6469 6.41508 26.0616 5.82982 25.3454 5.82982C24.6292 5.82982 24.0439 6.41508 24.0439 7.13132C24.0439 7.36461 24.1053 7.58562 24.2158 7.77388L23.1844 8.91986H21.842V5.11768H5.05754V8.91986H3.71102L2.67964 7.77798C2.79424 7.58971 2.85563 7.3687 2.85563 7.13132C2.85563 6.41508 2.27036 5.82982 1.55004 5.82982C0.833801 5.82982 0.248535 6.41508 0.248535 7.13132C0.248535 7.85165 0.833801 8.43691 1.55004 8.43691C1.7383 8.43691 1.91838 8.39598 2.078 8.32641L3.22807 9.60335C3.30583 9.6893 3.41634 9.73841 3.53094 9.73841H5.05754V11.9567H2.79014C2.61825 11.4369 2.12712 11.0604 1.55004 11.0604C0.833801 11.0604 0.248535 11.6457 0.248535 12.366C0.248535 13.0822 0.833801 13.6675 1.55004 13.6675C2.12712 13.6675 2.61825 13.291 2.79014 12.7752H5.05754V14.9894H3.53094C3.41634 14.9894 3.30583 15.0386 3.22807 15.1245L2.07391 16.4055C1.91429 16.336 1.7383 16.295 1.55004 16.295C0.833801 16.295 0.248535 16.8762 0.248535 17.5965C0.248535 18.3169 0.833801 18.898 1.55004 18.898C2.27036 18.898 2.85563 18.3169 2.85563 17.5965C2.85563 17.3592 2.79424 17.1381 2.67964 16.9499L3.71102 15.808H5.05754V19.1436C5.05754 19.8558 5.63462 20.4328 6.34267 20.4328H10.0057V21.9226L8.85972 22.954C8.67145 22.8435 8.45044 22.7821 8.21716 22.7821C7.49683 22.7821 6.91156 23.3673 6.91156 24.0836C6.91156 24.7998 7.49683 25.3851 8.21716 25.3851C8.93748 25.3851 9.51866 24.7998 9.51866 24.0836C9.51866 23.8994 9.47773 23.7234 9.40815 23.5638L10.6892 22.4096C10.7751 22.3319 10.8243 22.2214 10.8243 22.1068V20.4328H13.0384V22.8476C12.5228 23.0195 12.1462 23.5106 12.1462 24.0836C12.1462 24.7998 12.7315 25.3851 13.4477 25.3851C14.168 25.3851 14.7533 24.7998 14.7533 24.0836C14.7533 23.5106 14.3768 23.0195 13.857 22.8476V20.4328H16.0753V22.1068C16.0753 22.2214 16.1244 22.3319 16.2103 22.4096L17.4914 23.5597C17.4177 23.7193 17.3768 23.8994 17.3768 24.0836C17.3768 24.7998 17.962 25.3851 18.6824 25.3851C19.3986 25.3851 19.9839 24.7998 19.9839 24.0836C19.9839 23.3673 19.3986 22.7821 18.6824 22.7821C18.4491 22.7821 18.2281 22.8435 18.0398 22.954L16.8938 21.9226V20.4328H20.5528C21.2649 20.4328 21.842 19.8557 21.842 19.1436V15.808H23.1844L24.2158 16.954C24.1053 17.1422 24.0439 17.3632 24.0439 17.5965C24.0439 18.3169 24.6292 18.898 25.3454 18.898C26.0616 18.898 26.6469 18.3169 26.6469 17.5965C26.6469 16.8762 26.0616 16.295 25.3454 16.295C25.1612 16.295 24.9852 16.336 24.8256 16.4055L23.6715 15.1245C23.5937 15.0386 23.4832 14.9894 23.3686 14.9894H21.842V12.7752H24.1094V12.7752ZM18.9566 12.722L17.3072 12.9594C17.2663 13.2459 17.1926 13.5201 17.0903 13.782L18.3959 14.8093L18.0398 15.4314L16.4927 14.8134C16.3167 15.0344 16.1121 15.235 15.8911 15.411L16.5132 16.958L15.8911 17.3182L14.8638 16.0085C14.6019 16.1108 14.3277 16.1845 14.0453 16.2295C14.0453 16.2295 14.0453 16.2295 14.0412 16.2295L13.8079 17.8789H13.0916L12.8543 16.2295C12.5678 16.1845 12.2935 16.1108 12.0316 16.0085L11.0043 17.3182L10.3863 16.958L11.0043 15.411C10.7833 15.235 10.5828 15.0344 10.4027 14.8134L8.85972 15.4314L8.49956 14.8093L9.80924 13.782C9.70693 13.5201 9.63326 13.2459 9.58823 12.9594L7.94294 12.722V12.0058L9.58823 11.7684C9.63326 11.486 9.70693 11.2077 9.80924 10.9498L8.49956 9.91845L8.85972 9.29635L10.4027 9.91845C10.5828 9.69744 10.7834 9.49281 11.0043 9.31272L10.3863 7.76975L11.0043 7.40959L12.0316 8.71927C12.2936 8.61695 12.5678 8.54328 12.8543 8.49826L13.0916 6.84888H13.8079L14.0412 8.49826C14.3277 8.54328 14.6019 8.61695 14.8638 8.71927L15.8911 7.40959L16.5132 7.76975L15.8911 9.31272C16.1162 9.49281 16.3167 9.69744 16.4927 9.91845L18.0398 9.29635L18.3959 9.91845L17.0903 10.9457C17.1926 11.2077 17.2663 11.4819 17.3072 11.7684C17.3072 11.7725 18.9566 12.0058 18.9566 12.0058V12.722Z" fill="#1899EF"/>
</svg>
