<svg width="27" height="27" viewBox="0 0 27 27" fill="none" xmlns="http://www.w3.org/2000/svg">
<path d="M13.8448 9.22862C12.9318 9.22862 12.0393 9.49936 11.2802 10.0066C10.5211 10.5138 9.9294 11.2348 9.58001 12.0783C9.23063 12.9218 9.13921 13.8499 9.31733 14.7454C9.49545 15.6408 9.9351 16.4634 10.5807 17.109C11.2263 17.7545 12.0488 18.1942 12.9443 18.3723C13.8397 18.5504 14.7679 18.459 15.6114 18.1096C16.4549 17.7602 17.1758 17.1686 17.683 16.4094C18.1903 15.6503 18.461 14.7578 18.461 13.8448C18.4596 12.6209 17.9728 11.4476 17.1074 10.5822C16.242 9.7168 15.0687 9.23 13.8448 9.22862ZM13.9725 13.4642C15.3599 13.9295 15.6512 14.6279 15.6512 15.1319C15.6512 15.8855 15.0691 16.4775 14.2462 16.6207V17.2568H13.4434V16.6111C13.0653 16.5519 12.7191 16.3643 12.4632 16.0797C12.2073 15.7952 12.0573 15.4312 12.0384 15.0489H12.8413C12.8413 15.4841 13.3061 15.8516 13.8563 15.8516C14.3492 15.8516 14.8483 15.6044 14.8483 15.1318C14.8483 14.656 14.0573 14.3393 13.7171 14.2252C12.3297 13.7599 12.0384 13.0615 12.0384 12.5576C12.0384 11.8039 12.6205 11.2119 13.4434 11.0687V10.4328H14.2462V11.0783C14.6243 11.1375 14.9705 11.3252 15.2264 11.6097C15.4823 11.8943 15.6323 12.2583 15.6512 12.6406H14.8483C14.8483 12.2054 14.3835 11.8378 13.8333 11.8378C13.3404 11.8378 12.8413 12.085 12.8413 12.5576C12.8413 13.0334 13.6323 13.3501 13.9725 13.4642ZM18.4708 3.47859C18.4708 2.94878 18.6279 2.43086 18.9222 1.99034C19.2166 1.54981 19.635 1.20647 20.1244 1.00372C20.6139 0.800965 21.1525 0.747916 21.6722 0.851278C22.1918 0.954639 22.6691 1.20977 23.0437 1.5844C23.4184 1.95904 23.6735 2.43635 23.7769 2.95599C23.8802 3.47562 23.8272 4.01423 23.6244 4.50372C23.4217 4.9932 23.0783 5.41157 22.6378 5.70592C22.1973 6.00027 21.6794 6.15737 21.1496 6.15737C20.7978 6.15737 20.4494 6.08809 20.1244 5.95346C19.7994 5.81884 19.5041 5.62153 19.2554 5.37278C19.0066 5.12403 18.8093 4.82872 18.6747 4.50372C18.5401 4.17871 18.4708 3.83037 18.4708 3.47859ZM26.8898 10.685C26.8898 12.1113 22.2979 12.2794 21.15 12.2794C20.8021 12.2794 20.1383 12.2649 19.3788 12.2041C19.1356 11.3845 18.7135 10.6292 18.1431 9.99254C17.5726 9.35588 16.8679 8.85378 16.0798 8.52245C16.711 7.57275 17.6129 6.83451 18.6686 6.40338C19.3604 6.99279 20.2396 7.3165 21.1486 7.3165C22.0575 7.3165 22.9367 6.99279 23.6285 6.40338C25.5621 7.21795 26.8898 8.91959 26.8898 10.685ZM6.54004 15.4093C7.06985 15.4093 7.58777 15.5664 8.02829 15.8608C8.46882 16.1551 8.81217 16.5735 9.01492 17.063C9.21767 17.5525 9.27072 18.0911 9.16736 18.6107C9.064 19.1304 8.80887 19.6077 8.43423 19.9823C8.0596 20.3569 7.58228 20.6121 7.06265 20.7154C6.54302 20.8188 6.0044 20.7657 5.51492 20.563C5.02543 20.3602 4.60707 20.0169 4.31272 19.5764C4.01837 19.1359 3.86126 18.6179 3.86126 18.0881C3.86126 17.7363 3.93055 17.388 4.06517 17.063C4.19979 16.738 4.39711 16.4427 4.64586 16.1939C4.8946 15.9452 5.18991 15.7479 5.51492 15.6132C5.83992 15.4786 6.18826 15.4093 6.54004 15.4093ZM0.799805 25.2956C0.799805 23.5277 2.12639 21.8267 4.05985 21.0125C4.75156 21.6024 5.63091 21.9265 6.54002 21.9264C7.44913 21.9264 8.32847 21.6024 9.02016 21.0124C10.9536 21.8266 12.2803 23.5277 12.2803 25.2956C12.2803 26.7211 7.68806 26.8898 6.54004 26.8898C5.39195 26.8898 0.799805 26.7211 0.799805 25.2956ZM22.5695 18.425H20.8024C20.7736 18.425 20.7455 18.4164 20.7215 18.4004C20.6976 18.3844 20.6789 18.3617 20.6679 18.3351C20.6569 18.3085 20.654 18.2792 20.6596 18.251C20.6652 18.2227 20.6791 18.1968 20.6994 18.1764L23.5683 15.3076C23.6226 15.2533 23.6963 15.2228 23.7732 15.2228C23.85 15.2228 23.9238 15.2533 23.9781 15.3076L26.8468 18.1764C26.8672 18.1968 26.8811 18.2227 26.8867 18.251C26.8923 18.2792 26.8894 18.3085 26.8784 18.3351C26.8674 18.3617 26.8488 18.3844 26.8248 18.4004C26.8009 18.4164 26.7727 18.425 26.7439 18.425H24.9648C24.7526 20.1389 23.9436 21.7233 22.6798 22.9003C21.416 24.0773 19.778 24.7716 18.0534 24.8615C19.3697 24.3726 20.5064 23.4953 21.3129 22.3459C22.1194 21.1964 22.5576 19.8291 22.5695 18.425ZM9.63625 2.82991C8.31994 3.31879 7.18323 4.19607 6.37673 5.34551C5.57023 6.49496 5.13201 7.86231 5.12011 9.26642H6.88718C6.91598 9.26642 6.94413 9.27495 6.96807 9.29095C6.99202 9.30695 7.01068 9.32968 7.02171 9.35629C7.03273 9.38289 7.03562 9.41217 7.03 9.44041C7.02438 9.46865 7.01052 9.4946 6.99016 9.51496L4.12135 12.3838C4.067 12.4381 3.99329 12.4686 3.91643 12.4686C3.83957 12.4686 3.76585 12.4381 3.7115 12.3838L0.84276 9.51497C0.822397 9.49462 0.808528 9.46868 0.802907 9.44044C0.797286 9.4122 0.800165 9.38293 0.81118 9.35632C0.822196 9.32972 0.840853 9.30698 0.864792 9.29098C0.888731 9.27498 0.916877 9.26644 0.945671 9.26643H2.72485C2.93702 7.55251 3.74598 5.96804 5.00981 4.79106C6.27363 3.61407 7.91158 2.91974 9.63625 2.82991Z" fill="#1899EF"/>
</svg>
