<svg width="26" height="27" viewBox="0 0 26 27" fill="none" xmlns="http://www.w3.org/2000/svg">
<path d="M1.6748 8.7597L13.2197 0.104492L24.7647 8.7597H1.6748Z" fill="#1899EF"/>
<path d="M14.0127 10.2358H12.4272V22.5242H14.0127V10.2358Z" fill="#1899EF"/>
<path d="M24.8335 8.76025H1.60596V10.8575H24.8335V8.76025Z" fill="#1899EF"/>
<path d="M25.7061 24.0967H0.734375V26.1945H25.7061V24.0967Z" fill="#1899EF"/>
<path d="M24.8335 21.9517H1.60596V24.0492H24.8335V21.9517Z" fill="#1899EF"/>
<path d="M23.3854 10.7607H3.0542V12.858H23.3854V10.7607Z" fill="#1899EF"/>
<path d="M14.0124 10.2358H12.4272V22.5242H14.0124V10.2358Z" fill="#1899EF"/>
<path d="M14.0124 11.0957H12.4272V23.3838H14.0124V11.0957Z" fill="#1899EF"/>
<path d="M18.0793 11.4824H16.4937V23.7705H18.0793V11.4824Z" fill="#1899EF"/>
<path d="M22.1452 11.8096H20.5601V24.0977H22.1452V11.8096Z" fill="#1899EF"/>
<path d="M9.94604 11.4824H8.36035V23.7705H9.94604V11.4824Z" fill="#1899EF"/>
<path d="M5.47116 11.4824H3.88574V23.7705H5.47116V11.4824Z" fill="#1899EF"/>
</svg>
