<svg width="21" height="28" viewBox="0 0 21 28" fill="none" xmlns="http://www.w3.org/2000/svg">
<path d="M19.3894 7.31209H16.8911V6.47933C16.8911 2.93461 13.7341 0.199658 10.229 0.70983C7.39694 1.11601 5.23242 3.5584 5.23242 6.47933V10.6198C5.23242 11.0683 4.88756 11.4542 4.43948 11.475C3.96126 11.4973 3.5669 11.1164 3.5669 10.6431V7.57233C3.5669 7.42863 3.45036 7.31209 3.30666 7.31209H1.0686C0.608658 7.31209 0.23584 7.68491 0.23584 8.14486V24.8001C0.23584 26.1799 1.35435 27.2984 2.73413 27.2984H17.7239C19.1037 27.2984 20.2222 26.1799 20.2222 24.8001V8.14486C20.2222 7.68491 19.8493 7.31209 19.3894 7.31209ZM5.64881 15.2234C5.64881 14.3047 6.39621 13.5578 7.31433 13.5578C8.23246 13.5578 8.97986 14.3047 8.97986 15.2234C8.97986 16.142 8.23246 16.8889 7.31433 16.8889C6.39621 16.8889 5.64881 16.142 5.64881 15.2234ZM7.31382 22.7182C6.6297 22.7182 6.22909 21.9246 6.65697 21.3744L12.4863 13.8795C12.7689 13.5162 13.292 13.4511 13.6548 13.7332C14.0181 14.0158 14.0831 14.5389 13.801 14.9017L7.9717 22.3966C7.80775 22.6078 7.56208 22.7182 7.31382 22.7182ZM13.1437 22.7182C12.2256 22.7182 11.4782 21.9713 11.4782 21.0527C11.4782 20.1341 12.2256 19.3872 13.1437 19.3872C14.0618 19.3872 14.8092 20.1341 14.8092 21.0527C14.8092 21.9713 14.0618 22.7182 13.1437 22.7182ZM14.353 11.475C13.9049 11.4541 13.56 11.0683 13.56 10.6198V7.57233C13.56 7.42863 13.4435 7.31209 13.2998 7.31209H6.8979V6.47933C6.8979 4.1861 8.76345 2.3155 11.0617 2.3155C13.357 2.3155 15.2255 4.18308 15.2255 6.47933V10.6431C15.2256 11.1164 14.8312 11.4972 14.353 11.475Z" fill="#1899EF"/>
</svg>
