<svg width="17" height="27" viewBox="0 0 17 27" fill="none" xmlns="http://www.w3.org/2000/svg">
<path d="M2.38389 12.1954C2.62047 12.504 3.02084 12.576 3.32566 12.3548L5.65507 10.6937L7.04725 10.9406V11.6143L2.79336 16.1965C2.64777 16.3508 2.56587 16.5668 2.56587 16.793V16.9473C2.56587 17.3999 2.89345 17.7702 3.29381 17.7702H13.1119C13.3257 17.7702 13.5259 17.6673 13.6624 17.4822C15.7962 14.6794 16.4149 11.532 15.323 8.25607C13.8671 3.90529 11.2466 2.78417 8.71697 1.69905C7.68875 1.25677 6.62414 0.804207 5.66872 0.125363C5.41394 -0.0546335 5.09092 -0.0392053 4.84979 0.161362C4.60866 0.36193 4.49946 0.706495 4.57681 1.03049L5.28655 4.10072L0.827919 8.95548C0.550392 9.2589 0.527644 9.75261 0.782422 10.0817L2.38389 12.1954Z" fill="#1899EF"/>
<path d="M13.7262 19.5034H2.74342C1.2284 19.5034 0 20.8971 0 22.6045V25.4999C0 25.9525 0.327573 26.3228 0.72794 26.3228H15.7462C16.1466 26.3228 16.4742 25.9525 16.4742 25.4999V22.6045C16.4742 20.892 15.2412 19.5034 13.7262 19.5034Z" fill="#1899EF"/>
</svg>
