<svg width="31" height="25" viewBox="0 0 31 25" fill="none" xmlns="http://www.w3.org/2000/svg">
<path d="M27.4196 19.5683C27.3486 19.4991 27.2354 19.4991 27.1644 19.5683L27.077 19.6536C27.0296 19.6998 26.9494 19.6846 26.9024 19.6379L25.6035 18.3711C25.5292 18.2985 25.4283 18.2578 25.3232 18.2578C25.218 18.2578 25.1172 18.2986 25.0429 18.3711C24.9685 18.4436 24.9268 18.542 24.9268 18.6445C24.9268 18.7471 24.9685 18.8455 25.0429 18.918L26.3417 20.185C26.389 20.2303 26.4038 20.3103 26.3569 20.356L26.2656 20.4451C26.1938 20.5151 26.1938 20.6307 26.2656 20.7008L29.5127 23.8681C29.5887 23.9422 29.679 24.001 29.7783 24.0412C29.8776 24.0813 29.984 24.1019 30.0915 24.1019C30.199 24.1019 30.3054 24.0813 30.4047 24.0412C30.504 24.001 30.5942 23.9422 30.6702 23.8681C30.7462 23.794 30.8065 23.706 30.8477 23.6091C30.8888 23.5122 30.91 23.4084 30.91 23.3036C30.91 23.1987 30.8888 23.0949 30.8477 22.9981C30.8065 22.9012 30.7462 22.8132 30.6702 22.7391L27.4196 19.5683Z" fill="url(#paint0_linear)"/>
<path d="M15.9632 9.93896L14.3969 11.8117C14.3321 11.8893 14.239 11.9394 14.1371 11.9514C14.0353 11.9634 13.9326 11.9364 13.8507 11.8762L11.3305 10.02L8.80415 13.0492C8.73979 13.1265 8.64733 13.1766 8.54602 13.1891C8.44472 13.2015 8.34239 13.1754 8.26035 13.1161L6.82315 12.0771L5.2034 14.6953C5.16102 14.7647 5.09753 14.8195 5.02173 14.8521C4.94594 14.8847 4.86163 14.8934 4.78052 14.8771L2.93974 14.496L1.74609 16.6932H15.2768C14.9921 15.9824 14.8453 15.2261 14.8439 14.463C14.8426 12.9123 15.453 11.4207 16.5486 10.297L15.9632 9.93896Z" fill="url(#paint1_linear)"/>
<path d="M15.6594 17.4659H1.34648C1.23576 17.4603 1.13117 17.4146 1.0532 17.3377C0.975241 17.2609 0.929536 17.1583 0.925053 17.0503V13.3187L0.856202 13.2929L0.925053 13.1198V0H0V18.3682H16.3196C16.0719 18.0459 15.8504 17.7881 15.6594 17.4659Z" fill="url(#paint2_linear)"/>
<path d="M2.81396 13.6637L4.67067 14.0553L6.36947 11.3113C6.39801 11.2652 6.43613 11.2254 6.48137 11.1944C6.52661 11.1635 6.57798 11.1422 6.63218 11.1317C6.68638 11.1213 6.74221 11.122 6.7961 11.1339C6.84999 11.1458 6.90075 11.1685 6.94511 11.2006L8.42804 12.2738L10.9565 9.24242C11.0213 9.16476 11.1144 9.11464 11.2164 9.10262C11.3183 9.0906 11.421 9.11761 11.5029 9.17797L14.0235 11.0342L15.5696 9.18557C15.6307 9.11255 15.717 9.06379 15.8123 9.04845C15.9077 9.03312 16.0055 9.05227 16.0873 9.1023L17.1538 9.75401C18.2485 8.89219 19.6132 8.42271 21.02 8.42398C21.2823 8.42394 21.5444 8.44011 21.8046 8.47238V3.20264L19.817 5.2525C19.7533 5.31816 19.6681 5.35999 19.5761 5.37074C19.4841 5.38149 19.3912 5.36047 19.3134 5.31135L17.1641 3.95328L14.9676 6.47452C14.9131 6.53717 14.8394 6.58122 14.7575 6.60028C14.6755 6.61935 14.5894 6.61243 14.5117 6.58054L13.7127 6.25256L12.2229 8.35624C12.1897 8.40315 12.1462 8.44232 12.0957 8.47094C12.0451 8.49955 11.9887 8.51691 11.9304 8.52177C11.8722 8.52663 11.8136 8.51887 11.7588 8.49904C11.704 8.47922 11.6544 8.44782 11.6135 8.40709L9.37965 6.1836L8.35251 9.70535C8.33574 9.76296 8.30548 9.81597 8.26412 9.86022C8.22275 9.90447 8.17142 9.93875 8.11416 9.96035C8.05691 9.98195 7.99529 9.99028 7.93416 9.9847C7.87304 9.97911 7.81408 9.95975 7.76193 9.92815L7.13422 9.54842L5.66867 11.3594C5.63311 11.4028 5.58849 11.4384 5.53777 11.4637C5.48704 11.489 5.43139 11.5035 5.37449 11.5062C5.31759 11.5089 5.26075 11.4997 5.20774 11.4794C5.15474 11.459 5.10678 11.4279 5.06706 11.3881L3.21854 9.52097L1.71777 13.2648V15.0258L2.36789 13.8597C2.41121 13.785 2.47782 13.7257 2.55804 13.6905C2.63826 13.6552 2.7279 13.6458 2.81396 13.6637Z" fill="url(#paint3_linear)"/>
<path d="M15.6367 14.447C15.6367 15.4856 15.9524 16.5008 16.5439 17.3644C17.1354 18.2279 17.9762 18.901 18.9599 19.2984C19.9435 19.6959 21.026 19.7999 22.0703 19.5973C23.1146 19.3947 24.0738 18.8946 24.8267 18.1603C25.5796 17.4259 26.0923 16.4903 26.3001 15.4717C26.5078 14.4531 26.4012 13.3973 25.9937 12.4378C25.5863 11.4783 24.8962 10.6582 24.0109 10.0812C23.1256 9.50423 22.0848 9.19628 21.02 9.19629C19.5928 9.19788 18.2245 9.75158 17.2153 10.7359C16.2061 11.7203 15.6384 13.0549 15.6367 14.447ZM25.5242 14.447C25.5241 15.3159 25.2599 16.1653 24.765 16.8878C24.27 17.6102 23.5665 18.1733 22.7435 18.5058C21.9205 18.8382 21.0149 18.9252 20.1412 18.7557C19.2675 18.5861 18.4649 18.1677 17.835 17.5532C17.2052 16.9388 16.7762 16.156 16.6024 15.3038C16.4287 14.4516 16.5179 13.5682 16.8588 12.7655C17.1997 11.9627 17.777 11.2766 18.5177 10.7939C19.2584 10.3111 20.1292 10.0535 21.02 10.0535C22.2143 10.0548 23.3592 10.5181 24.2036 11.3418C25.048 12.1654 25.5229 13.2822 25.5242 14.447Z" fill="url(#paint4_linear)"/>
<path d="M21.0203 18.0665C23.07 18.0665 24.7316 16.4458 24.7316 14.4466C24.7316 12.4474 23.07 10.8267 21.0203 10.8267C18.9707 10.8267 17.3091 12.4474 17.3091 14.4466C17.3091 16.4458 18.9707 18.0665 21.0203 18.0665Z" fill="url(#paint5_linear)"/>
<defs>
<linearGradient id="paint0_linear" x1="30.91" y1="18.2578" x2="22.5678" y2="19.0298" gradientUnits="userSpaceOnUse">
<stop stop-color="#2C78F6"/>
<stop offset="1" stop-color="#00BFE7"/>
</linearGradient>
<linearGradient id="paint1_linear" x1="16.5486" y1="9.93897" x2="-3.48063" y2="13.9068" gradientUnits="userSpaceOnUse">
<stop stop-color="#2C78F6"/>
<stop offset="1" stop-color="#00BFE7"/>
</linearGradient>
<linearGradient id="paint2_linear" x1="16.3196" y1="6.34544e-06" x2="-6.48192" y2="1.83121" gradientUnits="userSpaceOnUse">
<stop stop-color="#2C78F6"/>
<stop offset="1" stop-color="#00BFE7"/>
</linearGradient>
<linearGradient id="paint3_linear" x1="21.8046" y1="3.20264" x2="-5.79067" y2="7.44046" gradientUnits="userSpaceOnUse">
<stop stop-color="#2C78F6"/>
<stop offset="1" stop-color="#00BFE7"/>
</linearGradient>
<linearGradient id="paint4_linear" x1="26.4035" y1="9.19629" x2="11.3922" y2="10.5874" gradientUnits="userSpaceOnUse">
<stop stop-color="#2C78F6"/>
<stop offset="1" stop-color="#00BFE7"/>
</linearGradient>
<linearGradient id="paint5_linear" x1="24.7316" y1="10.8267" x2="14.383" y2="11.7857" gradientUnits="userSpaceOnUse">
<stop stop-color="#2C78F6"/>
<stop offset="1" stop-color="#00BFE7"/>
</linearGradient>
</defs>
</svg>
