<svg width="14" height="14" viewBox="0 0 14 14" fill="none" xmlns="http://www.w3.org/2000/svg">
<g clip-path="url(#clip0)">
<mask id="path-1-outside-1" maskUnits="userSpaceOnUse" x="-1" y="-1" width="16" height="16" fill="black">
<rect fill="white" x="-1" y="-1" width="16" height="16"/>
<path d="M5.17536 0.729858H4.24645C4.17346 0.729858 4.11374 0.789573 4.11374 0.862559V1.79147C4.11374 1.86446 4.17346 1.92417 4.24645 1.92417H5.17536C5.24834 1.92417 5.30806 1.86446 5.30806 1.79147V0.862559C5.30806 0.789573 5.24834 0.729858 5.17536 0.729858ZM4.4455 12.0758H3.51659C3.4436 12.0758 3.38389 12.1355 3.38389 12.2085V13.1374C3.38389 13.2104 3.4436 13.2701 3.51659 13.2701H4.4455C4.51848 13.2701 4.5782 13.2104 4.5782 13.1374V12.2085C4.5782 12.1355 4.51848 12.0758 4.4455 12.0758ZM13.1374 8.69194H12.2085C12.1355 8.69194 12.0758 8.75166 12.0758 8.82465V9.75356C12.0758 9.82654 12.1355 9.88626 12.2085 9.88626H13.1374C13.2104 9.88626 13.2701 9.82654 13.2701 9.75356V8.82465C13.2701 8.75166 13.2104 8.69194 13.1374 8.69194ZM1.79147 4.11374H0.862559C0.789573 4.11374 0.729858 4.17346 0.729858 4.24645V5.17536C0.729858 5.24834 0.789573 5.30806 0.862559 5.30806H1.79147C1.86446 5.30806 1.92417 5.24834 1.92417 5.17536V4.24645C1.92417 4.17346 1.86446 4.11374 1.79147 4.11374ZM1.79147 6.76777H0.862559C0.789573 6.76777 0.729858 6.82749 0.729858 6.90047V7.82938C0.729858 7.90237 0.789573 7.96209 0.862559 7.96209H1.79147C1.86446 7.96209 1.92417 7.90237 1.92417 7.82938V6.90047C1.92417 6.82749 1.86446 6.76777 1.79147 6.76777ZM1.79147 9.4218H0.862559C0.789573 9.4218 0.729858 9.48152 0.729858 9.5545V10.4834C0.729858 10.5564 0.789573 10.6161 0.862559 10.6161H1.79147C1.86446 10.6161 1.92417 10.5564 1.92417 10.4834V9.5545C1.92417 9.48152 1.86446 9.4218 1.79147 9.4218ZM1.79147 12.0758H0.862559C0.789573 12.0758 0.729858 12.1355 0.729858 12.2085V13.1374C0.729858 13.2104 0.789573 13.2701 0.862559 13.2701H1.79147C1.86446 13.2701 1.92417 13.2104 1.92417 13.1374V12.2085C1.92417 12.1355 1.86446 12.0758 1.79147 12.0758ZM7.09953 12.0758H6.17062C6.09763 12.0758 6.03791 12.1355 6.03791 12.2085V13.1374C6.03791 13.2104 6.09763 13.2701 6.17062 13.2701H7.09953C7.17251 13.2701 7.23223 13.2104 7.23223 13.1374V12.2085C7.23223 12.1355 7.17251 12.0758 7.09953 12.0758ZM9.75356 12.0758H8.82465C8.75166 12.0758 8.69194 12.1355 8.69194 12.2085V13.1374C8.69194 13.2104 8.75166 13.2701 8.82465 13.2701H9.75356C9.82654 13.2701 9.88626 13.2104 9.88626 13.1374V12.2085C9.88626 12.1355 9.82654 12.0758 9.75356 12.0758ZM12.0758 7.36493C12.0758 7.43791 12.1355 7.49763 12.2085 7.49763H13.1374C13.2104 7.49763 13.2701 7.43791 13.2701 7.36493V4.54502C13.2701 2.43839 11.5616 0.729858 9.45498 0.729858H6.63507C6.56209 0.729858 6.50237 0.789573 6.50237 0.862559V1.79147C6.50237 1.86446 6.56209 1.92417 6.63507 1.92417H9.45498C10.9031 1.92417 12.0758 3.09692 12.0758 4.54502V7.36493ZM2.52133 0H0.132701C0.0597156 0 0 0.0597156 0 0.132701V2.52133C0 2.59431 0.0597156 2.65403 0.132701 2.65403H2.52133C2.59431 2.65403 2.65403 2.59431 2.65403 2.52133V0.132701C2.65403 0.0597156 2.59431 0 2.52133 0ZM1.72512 1.68531C1.72512 1.70687 1.70687 1.72512 1.68531 1.72512H0.96872C0.947156 1.72512 0.92891 1.70687 0.92891 1.68531V0.96872C0.92891 0.947156 0.947156 0.92891 0.96872 0.92891H1.68531C1.70687 0.92891 1.72512 0.947156 1.72512 0.96872V1.68531ZM13.8673 11.346H11.4787C11.4057 11.346 11.346 11.4057 11.346 11.4787V13.8673C11.346 13.9403 11.4057 14 11.4787 14H13.8673C13.9403 14 14 13.9403 14 13.8673V11.4787C14 11.4057 13.9403 11.346 13.8673 11.346ZM13.0711 13.0313C13.0711 13.0528 13.0528 13.0711 13.0313 13.0711H12.3147C12.2931 13.0711 12.2749 13.0528 12.2749 13.0313V12.3147C12.2749 12.2931 12.2931 12.2749 12.3147 12.2749H13.0313C13.0528 12.2749 13.0711 12.2931 13.0711 12.3147V13.0313Z"/>
</mask>
<path d="M5.17536 0.729858H4.24645C4.17346 0.729858 4.11374 0.789573 4.11374 0.862559V1.79147C4.11374 1.86446 4.17346 1.92417 4.24645 1.92417H5.17536C5.24834 1.92417 5.30806 1.86446 5.30806 1.79147V0.862559C5.30806 0.789573 5.24834 0.729858 5.17536 0.729858ZM4.4455 12.0758H3.51659C3.4436 12.0758 3.38389 12.1355 3.38389 12.2085V13.1374C3.38389 13.2104 3.4436 13.2701 3.51659 13.2701H4.4455C4.51848 13.2701 4.5782 13.2104 4.5782 13.1374V12.2085C4.5782 12.1355 4.51848 12.0758 4.4455 12.0758ZM13.1374 8.69194H12.2085C12.1355 8.69194 12.0758 8.75166 12.0758 8.82465V9.75356C12.0758 9.82654 12.1355 9.88626 12.2085 9.88626H13.1374C13.2104 9.88626 13.2701 9.82654 13.2701 9.75356V8.82465C13.2701 8.75166 13.2104 8.69194 13.1374 8.69194ZM1.79147 4.11374H0.862559C0.789573 4.11374 0.729858 4.17346 0.729858 4.24645V5.17536C0.729858 5.24834 0.789573 5.30806 0.862559 5.30806H1.79147C1.86446 5.30806 1.92417 5.24834 1.92417 5.17536V4.24645C1.92417 4.17346 1.86446 4.11374 1.79147 4.11374ZM1.79147 6.76777H0.862559C0.789573 6.76777 0.729858 6.82749 0.729858 6.90047V7.82938C0.729858 7.90237 0.789573 7.96209 0.862559 7.96209H1.79147C1.86446 7.96209 1.92417 7.90237 1.92417 7.82938V6.90047C1.92417 6.82749 1.86446 6.76777 1.79147 6.76777ZM1.79147 9.4218H0.862559C0.789573 9.4218 0.729858 9.48152 0.729858 9.5545V10.4834C0.729858 10.5564 0.789573 10.6161 0.862559 10.6161H1.79147C1.86446 10.6161 1.92417 10.5564 1.92417 10.4834V9.5545C1.92417 9.48152 1.86446 9.4218 1.79147 9.4218ZM1.79147 12.0758H0.862559C0.789573 12.0758 0.729858 12.1355 0.729858 12.2085V13.1374C0.729858 13.2104 0.789573 13.2701 0.862559 13.2701H1.79147C1.86446 13.2701 1.92417 13.2104 1.92417 13.1374V12.2085C1.92417 12.1355 1.86446 12.0758 1.79147 12.0758ZM7.09953 12.0758H6.17062C6.09763 12.0758 6.03791 12.1355 6.03791 12.2085V13.1374C6.03791 13.2104 6.09763 13.2701 6.17062 13.2701H7.09953C7.17251 13.2701 7.23223 13.2104 7.23223 13.1374V12.2085C7.23223 12.1355 7.17251 12.0758 7.09953 12.0758ZM9.75356 12.0758H8.82465C8.75166 12.0758 8.69194 12.1355 8.69194 12.2085V13.1374C8.69194 13.2104 8.75166 13.2701 8.82465 13.2701H9.75356C9.82654 13.2701 9.88626 13.2104 9.88626 13.1374V12.2085C9.88626 12.1355 9.82654 12.0758 9.75356 12.0758ZM12.0758 7.36493C12.0758 7.43791 12.1355 7.49763 12.2085 7.49763H13.1374C13.2104 7.49763 13.2701 7.43791 13.2701 7.36493V4.54502C13.2701 2.43839 11.5616 0.729858 9.45498 0.729858H6.63507C6.56209 0.729858 6.50237 0.789573 6.50237 0.862559V1.79147C6.50237 1.86446 6.56209 1.92417 6.63507 1.92417H9.45498C10.9031 1.92417 12.0758 3.09692 12.0758 4.54502V7.36493ZM2.52133 0H0.132701C0.0597156 0 0 0.0597156 0 0.132701V2.52133C0 2.59431 0.0597156 2.65403 0.132701 2.65403H2.52133C2.59431 2.65403 2.65403 2.59431 2.65403 2.52133V0.132701C2.65403 0.0597156 2.59431 0 2.52133 0ZM1.72512 1.68531C1.72512 1.70687 1.70687 1.72512 1.68531 1.72512H0.96872C0.947156 1.72512 0.92891 1.70687 0.92891 1.68531V0.96872C0.92891 0.947156 0.947156 0.92891 0.96872 0.92891H1.68531C1.70687 0.92891 1.72512 0.947156 1.72512 0.96872V1.68531ZM13.8673 11.346H11.4787C11.4057 11.346 11.346 11.4057 11.346 11.4787V13.8673C11.346 13.9403 11.4057 14 11.4787 14H13.8673C13.9403 14 14 13.9403 14 13.8673V11.4787C14 11.4057 13.9403 11.346 13.8673 11.346ZM13.0711 13.0313C13.0711 13.0528 13.0528 13.0711 13.0313 13.0711H12.3147C12.2931 13.0711 12.2749 13.0528 12.2749 13.0313V12.3147C12.2749 12.2931 12.2931 12.2749 12.3147 12.2749H13.0313C13.0528 12.2749 13.0711 12.2931 13.0711 12.3147V13.0313Z" fill="#2C78F6"/>
<path d="M5.17536 0.729858H4.24645C4.17346 0.729858 4.11374 0.789573 4.11374 0.862559V1.79147C4.11374 1.86446 4.17346 1.92417 4.24645 1.92417H5.17536C5.24834 1.92417 5.30806 1.86446 5.30806 1.79147V0.862559C5.30806 0.789573 5.24834 0.729858 5.17536 0.729858ZM4.4455 12.0758H3.51659C3.4436 12.0758 3.38389 12.1355 3.38389 12.2085V13.1374C3.38389 13.2104 3.4436 13.2701 3.51659 13.2701H4.4455C4.51848 13.2701 4.5782 13.2104 4.5782 13.1374V12.2085C4.5782 12.1355 4.51848 12.0758 4.4455 12.0758ZM13.1374 8.69194H12.2085C12.1355 8.69194 12.0758 8.75166 12.0758 8.82465V9.75356C12.0758 9.82654 12.1355 9.88626 12.2085 9.88626H13.1374C13.2104 9.88626 13.2701 9.82654 13.2701 9.75356V8.82465C13.2701 8.75166 13.2104 8.69194 13.1374 8.69194ZM1.79147 4.11374H0.862559C0.789573 4.11374 0.729858 4.17346 0.729858 4.24645V5.17536C0.729858 5.24834 0.789573 5.30806 0.862559 5.30806H1.79147C1.86446 5.30806 1.92417 5.24834 1.92417 5.17536V4.24645C1.92417 4.17346 1.86446 4.11374 1.79147 4.11374ZM1.79147 6.76777H0.862559C0.789573 6.76777 0.729858 6.82749 0.729858 6.90047V7.82938C0.729858 7.90237 0.789573 7.96209 0.862559 7.96209H1.79147C1.86446 7.96209 1.92417 7.90237 1.92417 7.82938V6.90047C1.92417 6.82749 1.86446 6.76777 1.79147 6.76777ZM1.79147 9.4218H0.862559C0.789573 9.4218 0.729858 9.48152 0.729858 9.5545V10.4834C0.729858 10.5564 0.789573 10.6161 0.862559 10.6161H1.79147C1.86446 10.6161 1.92417 10.5564 1.92417 10.4834V9.5545C1.92417 9.48152 1.86446 9.4218 1.79147 9.4218ZM1.79147 12.0758H0.862559C0.789573 12.0758 0.729858 12.1355 0.729858 12.2085V13.1374C0.729858 13.2104 0.789573 13.2701 0.862559 13.2701H1.79147C1.86446 13.2701 1.92417 13.2104 1.92417 13.1374V12.2085C1.92417 12.1355 1.86446 12.0758 1.79147 12.0758ZM7.09953 12.0758H6.17062C6.09763 12.0758 6.03791 12.1355 6.03791 12.2085V13.1374C6.03791 13.2104 6.09763 13.2701 6.17062 13.2701H7.09953C7.17251 13.2701 7.23223 13.2104 7.23223 13.1374V12.2085C7.23223 12.1355 7.17251 12.0758 7.09953 12.0758ZM9.75356 12.0758H8.82465C8.75166 12.0758 8.69194 12.1355 8.69194 12.2085V13.1374C8.69194 13.2104 8.75166 13.2701 8.82465 13.2701H9.75356C9.82654 13.2701 9.88626 13.2104 9.88626 13.1374V12.2085C9.88626 12.1355 9.82654 12.0758 9.75356 12.0758ZM12.0758 7.36493C12.0758 7.43791 12.1355 7.49763 12.2085 7.49763H13.1374C13.2104 7.49763 13.2701 7.43791 13.2701 7.36493V4.54502C13.2701 2.43839 11.5616 0.729858 9.45498 0.729858H6.63507C6.56209 0.729858 6.50237 0.789573 6.50237 0.862559V1.79147C6.50237 1.86446 6.56209 1.92417 6.63507 1.92417H9.45498C10.9031 1.92417 12.0758 3.09692 12.0758 4.54502V7.36493ZM2.52133 0H0.132701C0.0597156 0 0 0.0597156 0 0.132701V2.52133C0 2.59431 0.0597156 2.65403 0.132701 2.65403H2.52133C2.59431 2.65403 2.65403 2.59431 2.65403 2.52133V0.132701C2.65403 0.0597156 2.59431 0 2.52133 0ZM1.72512 1.68531C1.72512 1.70687 1.70687 1.72512 1.68531 1.72512H0.96872C0.947156 1.72512 0.92891 1.70687 0.92891 1.68531V0.96872C0.92891 0.947156 0.947156 0.92891 0.96872 0.92891H1.68531C1.70687 0.92891 1.72512 0.947156 1.72512 0.96872V1.68531ZM13.8673 11.346H11.4787C11.4057 11.346 11.346 11.4057 11.346 11.4787V13.8673C11.346 13.9403 11.4057 14 11.4787 14H13.8673C13.9403 14 14 13.9403 14 13.8673V11.4787C14 11.4057 13.9403 11.346 13.8673 11.346ZM13.0711 13.0313C13.0711 13.0528 13.0528 13.0711 13.0313 13.0711H12.3147C12.2931 13.0711 12.2749 13.0528 12.2749 13.0313V12.3147C12.2749 12.2931 12.2931 12.2749 12.3147 12.2749H13.0313C13.0528 12.2749 13.0711 12.2931 13.0711 12.3147V13.0313Z" stroke="#2C78F6" stroke-width="0.8" mask="url(#path-1-outside-1)"/>
</g>
<defs>
<clipPath id="clip0">
<rect width="14" height="14" fill="white"/>
</clipPath>
</defs>
</svg>
