<svg width="1439" height="322" viewBox="0 0 1439 322" fill="none" xmlns="http://www.w3.org/2000/svg">
<g opacity="0.15">
<mask id="mask0" mask-type="alpha" maskUnits="userSpaceOnUse" x="-1" y="0" width="1440" height="322">
<rect x="-1" width="1440" height="322" fill="#FF0A0A"/>
</mask>
<g mask="url(#mask0)">
<path d="M1429.33 341.964C876.119 541.847 840.997 80.5267 -1.59424 451.022" stroke="white" stroke-width="3" stroke-miterlimit="10" stroke-linecap="round" stroke-linejoin="round" stroke-dasharray="1 1"/>
<path d="M1431.35 326.575C861.331 543.185 819.823 64.4678 -3.27466 422.92" stroke="#F8FAFD" stroke-width="2.9355" stroke-miterlimit="10" stroke-linecap="round" stroke-linejoin="round" stroke-dasharray="1 1"/>
<path d="M1433.2 311.353C846.543 544.69 798.649 48.2428 -4.78687 394.819" stroke="#F2F5FB" stroke-width="2.871" stroke-miterlimit="10" stroke-linecap="round" stroke-linejoin="round" stroke-dasharray="1 1"/>
<path d="M1435.21 296.132C831.755 546.196 777.475 32.1861 -6.29907 366.886" stroke="#EBF0F9" stroke-width="2.8065" stroke-miterlimit="10" stroke-linecap="round" stroke-linejoin="round" stroke-dasharray="1 1"/>
<path d="M1437.23 280.912C816.967 547.535 756.301 16.1295 -7.97949 338.786" stroke="#E5EBF7" stroke-width="2.7419" stroke-miterlimit="10" stroke-linecap="round" stroke-linejoin="round" stroke-dasharray="1 1"/>
<path d="M1439.08 265.691C802.178 549.04 735.127 0.0717054 -9.65991 310.852" stroke="#DEE6F5" stroke-width="2.6774" stroke-miterlimit="10" stroke-linecap="round" stroke-linejoin="round" stroke-dasharray="1 1"/>
<path d="M1441.1 250.302C787.39 550.378 714.121 -16.1541 -11.1726 282.751" stroke="#D8E1F3" stroke-width="2.6129" stroke-miterlimit="10" stroke-linecap="round" stroke-linejoin="round" stroke-dasharray="1 1"/>
<path d="M1443.11 235.08C772.602 551.883 692.947 -32.211 -12.6851 254.651" stroke="#D1DCF1" stroke-width="2.5484" stroke-miterlimit="10" stroke-linecap="round" stroke-linejoin="round" stroke-dasharray="1 1"/>
<path d="M1444.96 219.859C757.813 553.389 671.773 -48.2684 -14.3657 226.717" stroke="#CBD6EF" stroke-width="2.4839" stroke-miterlimit="10" stroke-linecap="round" stroke-linejoin="round" stroke-dasharray="1 1"/>
<path d="M1446.98 204.638C743.025 554.894 650.599 -64.3266 -15.8782 198.616" stroke="#C4D1ED" stroke-width="2.4194" stroke-miterlimit="10" stroke-linecap="round" stroke-linejoin="round" stroke-dasharray="1 1"/>
<path d="M1448.83 189.25C728.237 556.232 629.425 -80.5513 -17.5586 170.516" stroke="#BECCEB" stroke-width="2.3548" stroke-miterlimit="10" stroke-linecap="round" stroke-linejoin="round" stroke-dasharray="1 1"/>
<path d="M1450.84 174.028C713.449 557.737 608.251 -96.6091 -19.071 142.582" stroke="#B7C7E9" stroke-width="2.2903" stroke-miterlimit="10" stroke-linecap="round" stroke-linejoin="round" stroke-dasharray="1 1"/>
<path d="M1452.86 158.806C698.661 559.242 587.077 -112.667 -20.7515 114.481" stroke="#B0C2E7" stroke-width="2.2258" stroke-miterlimit="10" stroke-linecap="round" stroke-linejoin="round" stroke-dasharray="1 1"/>
<path d="M1454.71 143.585C683.873 560.581 565.903 -128.724 -22.4319 86.5476" stroke="#AABDE5" stroke-width="2.1613" stroke-miterlimit="10" stroke-linecap="round" stroke-linejoin="round" stroke-dasharray="1 1"/>
<path d="M1456.72 128.198C669.084 562.087 544.729 -144.948 -23.9441 58.448" stroke="#A3B8E3" stroke-width="2.0968" stroke-miterlimit="10" stroke-linecap="round" stroke-linejoin="round" stroke-dasharray="1 1"/>
<path d="M1458.74 112.976C654.296 563.424 523.555 -161.007 -25.4568 30.3462" stroke="#9DB3E1" stroke-width="2.0323" stroke-miterlimit="10" stroke-linecap="round" stroke-linejoin="round" stroke-dasharray="1 1"/>
<path d="M1460.59 97.7546C639.34 564.929 502.381 -177.064 -27.1372 2.41285" stroke="#96AEDE" stroke-width="1.9677" stroke-miterlimit="10" stroke-linecap="round" stroke-linejoin="round" stroke-dasharray="1 1"/>
<path d="M1462.61 82.5339C624.72 566.435 481.375 -193.288 -28.6497 -25.6874" stroke="#90A9DC" stroke-width="1.9032" stroke-miterlimit="10" stroke-linecap="round" stroke-linejoin="round" stroke-dasharray="1 1"/>
<path d="M1464.45 67.3127C609.932 567.774 460.201 -209.346 -30.3301 -53.621" stroke="#89A4DA" stroke-width="1.8387" stroke-miterlimit="10" stroke-linecap="round" stroke-linejoin="round" stroke-dasharray="1 1"/>
<path d="M1466.47 51.9236C595.143 569.279 439.027 -225.404 -31.8428 -81.7223" stroke="#839FD8" stroke-width="1.7742" stroke-miterlimit="10" stroke-linecap="round" stroke-linejoin="round" stroke-dasharray="1 1"/>
<path d="M1468.49 36.7022C580.187 570.783 417.853 -241.462 -33.5232 -109.823" stroke="#7C9AD6" stroke-width="1.7097" stroke-miterlimit="10" stroke-linecap="round" stroke-linejoin="round" stroke-dasharray="1 1"/>
<path d="M1470.34 21.4813C565.399 572.122 396.679 -257.686 -35.0354 -137.756" stroke="#7595D4" stroke-width="1.6452" stroke-miterlimit="10" stroke-linecap="round" stroke-linejoin="round" stroke-dasharray="1 1"/>
<path d="M1472.35 6.25973C550.611 573.627 375.505 -273.744 -36.7158 -165.857" stroke="#6F90D2" stroke-width="1.5806" stroke-miterlimit="10" stroke-linecap="round" stroke-linejoin="round" stroke-dasharray="1 1"/>
<path d="M1474.37 -9.12874C535.823 575.133 354.331 -289.802 -38.2283 -193.791" stroke="#688BD0" stroke-width="1.5161" stroke-miterlimit="10" stroke-linecap="round" stroke-linejoin="round" stroke-dasharray="1 1"/>
<path d="M1476.22 -24.3495C521.034 576.471 333.157 -305.859 -39.9087 -221.891" stroke="#6285CE" stroke-width="1.4516" stroke-miterlimit="10" stroke-linecap="round" stroke-linejoin="round" stroke-dasharray="1 1"/>
<path d="M1478.23 -39.5701C506.246 577.977 311.983 -322.083 -41.4211 -249.991" stroke="#5B80CC" stroke-width="1.3871" stroke-miterlimit="10" stroke-linecap="round" stroke-linejoin="round" stroke-dasharray="1 1"/>
<path d="M1480.08 -54.7919C491.458 579.483 290.809 -338.141 -43.1016 -277.925" stroke="#557BCA" stroke-width="1.3226" stroke-miterlimit="10" stroke-linecap="round" stroke-linejoin="round" stroke-dasharray="1 1"/>
<path d="M1482.1 -70.1806C476.67 580.82 269.635 -354.366 -44.6143 -306.026" stroke="#4E76C8" stroke-width="1.2581" stroke-miterlimit="10" stroke-linecap="round" stroke-linejoin="round" stroke-dasharray="1 1"/>
<path d="M1484.12 -85.4021C461.882 582.326 248.629 -370.424 -46.2947 -334.127" stroke="#4871C6" stroke-width="1.1935" stroke-miterlimit="10" stroke-linecap="round" stroke-linejoin="round" stroke-dasharray="1 1"/>
<path d="M1485.96 -100.623C447.093 583.831 227.455 -386.481 -47.8074 -362.06" stroke="#416CC4" stroke-width="1.129" stroke-miterlimit="10" stroke-linecap="round" stroke-linejoin="round" stroke-dasharray="1 1"/>
<path d="M1487.98 -115.845C432.305 585.169 206.281 -402.54 -49.4878 -390.162" stroke="#3B67C2" stroke-width="1.0645" stroke-miterlimit="10" stroke-linecap="round" stroke-linejoin="round" stroke-dasharray="1 1"/>
<path d="M1490 -131.065C417.517 586.675 185.107 -418.596 -51 -418.095" stroke="#ACC7FF" stroke-miterlimit="10" stroke-linecap="round" stroke-linejoin="round" stroke-dasharray="1 1"/>
</g>
</g>
</svg>
