<svg width="1440" height="320" viewBox="0 0 1440 320" fill="none" xmlns="http://www.w3.org/2000/svg">
<g opacity="0.3">
<mask id="mask0" mask-type="alpha" maskUnits="userSpaceOnUse" x="0" y="0" width="1440" height="320">
<rect width="1440" height="320" rx="4" fill="#EAF3FF"/>
</mask>
<g mask="url(#mask0)">
<path d="M1435.33 148.2C882.119 348.083 846.997 -113.237 4.40576 257.258" stroke="#DEE6F5" stroke-width="2.6774" stroke-miterlimit="10" stroke-linecap="round" stroke-linejoin="round" stroke-dasharray="1 1"/>
<path d="M1437.35 132.81C867.331 349.42 825.823 -129.296 2.72559 229.155" stroke="#DEE6F5" stroke-width="2.6774" stroke-miterlimit="10" stroke-linecap="round" stroke-linejoin="round" stroke-dasharray="1 1"/>
<path d="M1439.2 117.588C852.543 350.925 804.649 -145.522 1.21338 201.054" stroke="#DEE6F5" stroke-width="2.6774" stroke-miterlimit="10" stroke-linecap="round" stroke-linejoin="round" stroke-dasharray="1 1"/>
<path d="M1441.21 102.368C837.754 352.43 783.475 -161.577 -0.299316 173.121" stroke="#DEE6F5" stroke-width="2.6774" stroke-miterlimit="10" stroke-linecap="round" stroke-linejoin="round" stroke-dasharray="1 1"/>
<path d="M1443.23 87.1479C822.967 353.77 762.301 -177.635 -1.97949 145.022" stroke="#E5EBF7" stroke-width="2.7419" stroke-miterlimit="10" stroke-linecap="round" stroke-linejoin="round" stroke-dasharray="1 1"/>
<path d="M1445.08 71.9259C808.178 355.275 741.127 -193.693 -3.66016 117.088" stroke="#DEE6F5" stroke-width="2.6774" stroke-miterlimit="10" stroke-linecap="round" stroke-linejoin="round" stroke-dasharray="1 1"/>
<path d="M1447.1 56.5369C793.39 356.613 720.121 -209.919 -5.17236 88.9866" stroke="#D8E1F3" stroke-width="2.6129" stroke-miterlimit="10" stroke-linecap="round" stroke-linejoin="round" stroke-dasharray="1 1"/>
<path d="M1449.11 41.3155C778.602 358.119 698.947 -225.977 -6.68506 60.8857" stroke="#D1DCF1" stroke-width="2.5484" stroke-miterlimit="10" stroke-linecap="round" stroke-linejoin="round" stroke-dasharray="1 1"/>
<path d="M1450.96 26.095C763.813 359.625 677.773 -242.034 -8.36572 32.953" stroke="#CBD6EF" stroke-width="2.4839" stroke-miterlimit="10" stroke-linecap="round" stroke-linejoin="round" stroke-dasharray="1 1"/>
<path d="M1452.98 10.8726C749.025 361.128 656.599 -258.092 -9.87842 4.85101" stroke="#C4D1ED" stroke-width="2.4194" stroke-miterlimit="10" stroke-linecap="round" stroke-linejoin="round" stroke-dasharray="1 1"/>
<path d="M1454.83 -4.5156C734.237 362.467 635.425 -274.316 -11.5586 -23.2495" stroke="#BECCEB" stroke-width="2.3548" stroke-miterlimit="10" stroke-linecap="round" stroke-linejoin="round" stroke-dasharray="1 1"/>
<path d="M1456.84 -19.7362C719.449 363.973 614.251 -290.373 -13.0708 -51.1822" stroke="#B7C7E9" stroke-width="2.2903" stroke-miterlimit="10" stroke-linecap="round" stroke-linejoin="round" stroke-dasharray="1 1"/>
<path d="M1458.86 -34.9592C704.661 365.478 593.077 -306.433 -14.7515 -79.2849" stroke="#B0C2E7" stroke-width="2.2258" stroke-miterlimit="10" stroke-linecap="round" stroke-linejoin="round" stroke-dasharray="1 1"/>
<path d="M1460.71 -50.179C689.873 366.815 571.903 -322.488 -16.4316 -107.217" stroke="#AABDE5" stroke-width="2.1613" stroke-miterlimit="10" stroke-linecap="round" stroke-linejoin="round" stroke-dasharray="1 1"/>
<path d="M1462.72 -65.566C675.085 368.323 550.729 -338.712 -17.9438 -135.316" stroke="#A3B8E3" stroke-width="2.0968" stroke-miterlimit="10" stroke-linecap="round" stroke-linejoin="round" stroke-dasharray="1 1"/>
<path d="M1464.74 -80.7892C660.296 369.66 529.555 -354.772 -19.4565 -163.419" stroke="#9DB3E1" stroke-width="2.0323" stroke-miterlimit="10" stroke-linecap="round" stroke-linejoin="round" stroke-dasharray="1 1"/>
<path d="M1466.59 -96.0111C645.34 371.163 508.381 -370.829 -21.1372 -191.353" stroke="#96AEDE" stroke-width="1.9677" stroke-miterlimit="10" stroke-linecap="round" stroke-linejoin="round" stroke-dasharray="1 1"/>
<path d="M1468.61 -111.231C630.719 372.671 487.375 -387.053 -22.6499 -219.452" stroke="#90A9DC" stroke-width="1.9032" stroke-miterlimit="10" stroke-linecap="round" stroke-linejoin="round" stroke-dasharray="1 1"/>
<path d="M1470.45 -126.452C615.932 374.01 466.201 -403.111 -24.3301 -247.386" stroke="#89A4DA" stroke-width="1.8387" stroke-miterlimit="10" stroke-linecap="round" stroke-linejoin="round" stroke-dasharray="1 1"/>
<path d="M1472.47 -141.84C601.143 375.515 445.027 -419.168 -25.8428 -275.486" stroke="#839FD8" stroke-width="1.7742" stroke-miterlimit="10" stroke-linecap="round" stroke-linejoin="round" stroke-dasharray="1 1"/>
<path d="M1474.49 -157.062C586.187 377.019 423.853 -435.226 -27.5234 -303.588" stroke="#7C9AD6" stroke-width="1.7097" stroke-miterlimit="10" stroke-linecap="round" stroke-linejoin="round" stroke-dasharray="1 1"/>
<path d="M1476.34 -172.284C571.399 378.357 402.679 -451.451 -29.0356 -331.521" stroke="#7595D4" stroke-width="1.6452" stroke-miterlimit="10" stroke-linecap="round" stroke-linejoin="round" stroke-dasharray="1 1"/>
<path d="M1478.35 -187.504C556.611 379.864 381.505 -467.508 -30.7158 -359.622" stroke="#6F90D2" stroke-width="1.5806" stroke-miterlimit="10" stroke-linecap="round" stroke-linejoin="round" stroke-dasharray="1 1"/>
<path d="M1480.37 -202.893C541.823 381.367 360.331 -483.565 -32.228 -387.555" stroke="#688BD0" stroke-width="1.5161" stroke-miterlimit="10" stroke-linecap="round" stroke-linejoin="round" stroke-dasharray="1 1"/>
</g>
</g>
</svg>
