<svg width="16" height="16" version="1.1" id="Layer_1" xmlns="http://www.w3.org/2000/svg" xmlns:xlink="http://www.w3.org/1999/xlink" x="0px" y="0px"
	 viewBox="0 0 16 16" style="enable-background:new 0 0 16 16;" xml:space="preserve">
<style type="text/css">
	.st0{fill:#2C78F6;}
</style>
<rect x="0.3" y="5.3" class="st0" width="3.3" height="10.6"/>
<path class="st0" d="M16,9.2V16h-3.3v-5.6c0-1.5-0.6-2.4-1.8-2.4c-1.3,0-2,0.9-2,2.4V16H5.7V5.3h3.2v1.4c0,0,1-1.8,3.2-1.8
	C14.3,5,16,6.4,16,9.2z"/>
<path class="st0" d="M3.9,2c0,1.1-0.9,2-1.9,2c-1.1,0-2-0.9-2-2c0-1.1,0.9-2,2-2C3,0,3.9,0.9,3.9,2z"/>
</svg>
