<svg width="16" height="16" viewBox="0 0 16 16" fill="none" xmlns="http://www.w3.org/2000/svg">
<mask id="path-1-outside-1" maskUnits="userSpaceOnUse" x="0" y="0" width="16" height="16" fill="black">
<rect fill="white" width="16" height="16"/>
<path d="M13.6875 11.6458V10.625C13.6875 10.5448 13.7531 10.4792 13.8333 10.4792H14.8542C14.9344 10.4792 15 10.5448 15 10.625V11.6458C15 11.726 14.9344 11.7917 14.8542 11.7917H13.8333C13.7531 11.7917 13.6875 11.726 13.6875 11.6458ZM1 11.6823L1 10.6615C1 10.5812 1.06562 10.5156 1.14583 10.5156H2.16667C2.24687 10.5156 2.3125 10.5812 2.3125 10.6615L2.3125 11.6823C2.3125 11.7625 2.24687 11.8281 2.16667 11.8281H1.14583C1.06562 11.8281 1 11.7625 1 11.6823ZM5.48438 1.14583V2.16667C5.48438 2.24687 5.41875 2.3125 5.33854 2.3125H4.31771C4.2375 2.3125 4.17188 2.24687 4.17188 2.16667V1.14583C4.17188 1.06562 4.2375 1 4.31771 1H5.33854C5.41875 1 5.48438 1.06562 5.48438 1.14583ZM2.3125 1.14583V2.16667C2.3125 2.24687 2.24687 2.3125 2.16667 2.3125H1.14583C1.06562 2.3125 1 2.24687 1 2.16667V1.14583C1 1.06562 1.06562 1 1.14583 1L2.16667 1C2.24687 1 2.3125 1.06562 2.3125 1.14583ZM13.6875 14.8542V13.8333C13.6875 13.7531 13.7531 13.6875 13.8333 13.6875H14.8542C14.9344 13.6875 15 13.7531 15 13.8333V14.8542C15 14.9344 14.9344 15 14.8542 15H13.8333C13.7531 15 13.6875 14.9344 13.6875 14.8542ZM10.5156 14.8542V13.8333C10.5156 13.7531 10.5812 13.6875 10.6615 13.6875H11.6823C11.7625 13.6875 11.8281 13.7531 11.8281 13.8333V14.8542C11.8281 14.9344 11.7625 15 11.6823 15H10.6615C10.5812 15 10.5156 14.9344 10.5156 14.8542ZM7.34375 14.8542V13.8333C7.34375 13.7531 7.40937 13.6875 7.48958 13.6875H8.51042C8.59062 13.6875 8.65625 13.7531 8.65625 13.8333V14.8542C8.65625 14.9344 8.59062 15 8.51042 15H7.48958C7.40937 15 7.34375 14.9344 7.34375 14.8542ZM4.17188 14.8542V13.8333C4.17188 13.7531 4.2375 13.6875 4.31771 13.6875H5.33854C5.41875 13.6875 5.48438 13.7531 5.48438 13.8333V14.8542C5.48438 14.9344 5.41875 15 5.33854 15H4.31771C4.2375 15 4.17188 14.9344 4.17188 14.8542ZM1 14.8542V13.8333C1 13.7531 1.06562 13.6875 1.14583 13.6875H2.16667C2.24687 13.6875 2.3125 13.7531 2.3125 13.8333V14.8542C2.3125 14.9344 2.24687 15 2.16667 15H1.14583C1.06562 15 1 14.9344 1 14.8542ZM1 8.51042V7.48958C1 7.40937 1.06562 7.34375 1.14583 7.34375H2.16667C2.24687 7.34375 2.3125 7.40937 2.3125 7.48958V8.51042C2.3125 8.59062 2.24687 8.65625 2.16667 8.65625H1.14583C1.06562 8.65625 1 8.59062 1 8.51042ZM2.3125 4.31771V5.33854C2.3125 5.41875 2.24687 5.48438 2.16667 5.48438H1.14583C1.06562 5.48438 1 5.41875 1 5.33854V4.31771C1 4.2375 1.06562 4.17188 1.14583 4.17188H2.16667C2.24687 4.17188 2.3125 4.2375 2.3125 4.31771ZM13.6875 8.51042V5.19271C13.6875 3.6013 12.3987 2.3125 10.8073 2.3125H7.48958C7.40937 2.3125 7.34375 2.24687 7.34375 2.16667V1.14583C7.34375 1.06562 7.40937 1 7.48958 1L10.8073 1C13.1224 1 15 2.8776 15 5.19271V8.51042C15 8.59062 14.9344 8.65625 14.8542 8.65625H13.8333C13.7531 8.65625 13.6875 8.59062 13.6875 8.51042Z"/>
</mask>
<path d="M13.6875 11.6458V10.625C13.6875 10.5448 13.7531 10.4792 13.8333 10.4792H14.8542C14.9344 10.4792 15 10.5448 15 10.625V11.6458C15 11.726 14.9344 11.7917 14.8542 11.7917H13.8333C13.7531 11.7917 13.6875 11.726 13.6875 11.6458ZM1 11.6823L1 10.6615C1 10.5812 1.06562 10.5156 1.14583 10.5156H2.16667C2.24687 10.5156 2.3125 10.5812 2.3125 10.6615L2.3125 11.6823C2.3125 11.7625 2.24687 11.8281 2.16667 11.8281H1.14583C1.06562 11.8281 1 11.7625 1 11.6823ZM5.48438 1.14583V2.16667C5.48438 2.24687 5.41875 2.3125 5.33854 2.3125H4.31771C4.2375 2.3125 4.17188 2.24687 4.17188 2.16667V1.14583C4.17188 1.06562 4.2375 1 4.31771 1H5.33854C5.41875 1 5.48438 1.06562 5.48438 1.14583ZM2.3125 1.14583V2.16667C2.3125 2.24687 2.24687 2.3125 2.16667 2.3125H1.14583C1.06562 2.3125 1 2.24687 1 2.16667V1.14583C1 1.06562 1.06562 1 1.14583 1L2.16667 1C2.24687 1 2.3125 1.06562 2.3125 1.14583ZM13.6875 14.8542V13.8333C13.6875 13.7531 13.7531 13.6875 13.8333 13.6875H14.8542C14.9344 13.6875 15 13.7531 15 13.8333V14.8542C15 14.9344 14.9344 15 14.8542 15H13.8333C13.7531 15 13.6875 14.9344 13.6875 14.8542ZM10.5156 14.8542V13.8333C10.5156 13.7531 10.5812 13.6875 10.6615 13.6875H11.6823C11.7625 13.6875 11.8281 13.7531 11.8281 13.8333V14.8542C11.8281 14.9344 11.7625 15 11.6823 15H10.6615C10.5812 15 10.5156 14.9344 10.5156 14.8542ZM7.34375 14.8542V13.8333C7.34375 13.7531 7.40937 13.6875 7.48958 13.6875H8.51042C8.59062 13.6875 8.65625 13.7531 8.65625 13.8333V14.8542C8.65625 14.9344 8.59062 15 8.51042 15H7.48958C7.40937 15 7.34375 14.9344 7.34375 14.8542ZM4.17188 14.8542V13.8333C4.17188 13.7531 4.2375 13.6875 4.31771 13.6875H5.33854C5.41875 13.6875 5.48438 13.7531 5.48438 13.8333V14.8542C5.48438 14.9344 5.41875 15 5.33854 15H4.31771C4.2375 15 4.17188 14.9344 4.17188 14.8542ZM1 14.8542V13.8333C1 13.7531 1.06562 13.6875 1.14583 13.6875H2.16667C2.24687 13.6875 2.3125 13.7531 2.3125 13.8333V14.8542C2.3125 14.9344 2.24687 15 2.16667 15H1.14583C1.06562 15 1 14.9344 1 14.8542ZM1 8.51042V7.48958C1 7.40937 1.06562 7.34375 1.14583 7.34375H2.16667C2.24687 7.34375 2.3125 7.40937 2.3125 7.48958V8.51042C2.3125 8.59062 2.24687 8.65625 2.16667 8.65625H1.14583C1.06562 8.65625 1 8.59062 1 8.51042ZM2.3125 4.31771V5.33854C2.3125 5.41875 2.24687 5.48438 2.16667 5.48438H1.14583C1.06562 5.48438 1 5.41875 1 5.33854V4.31771C1 4.2375 1.06562 4.17188 1.14583 4.17188H2.16667C2.24687 4.17188 2.3125 4.2375 2.3125 4.31771ZM13.6875 8.51042V5.19271C13.6875 3.6013 12.3987 2.3125 10.8073 2.3125H7.48958C7.40937 2.3125 7.34375 2.24687 7.34375 2.16667V1.14583C7.34375 1.06562 7.40937 1 7.48958 1L10.8073 1C13.1224 1 15 2.8776 15 5.19271V8.51042C15 8.59062 14.9344 8.65625 14.8542 8.65625H13.8333C13.7531 8.65625 13.6875 8.59062 13.6875 8.51042Z" fill="#2C78F6"/>
<path d="M13.6875 11.6458V10.625C13.6875 10.5448 13.7531 10.4792 13.8333 10.4792H14.8542C14.9344 10.4792 15 10.5448 15 10.625V11.6458C15 11.726 14.9344 11.7917 14.8542 11.7917H13.8333C13.7531 11.7917 13.6875 11.726 13.6875 11.6458ZM1 11.6823L1 10.6615C1 10.5812 1.06562 10.5156 1.14583 10.5156H2.16667C2.24687 10.5156 2.3125 10.5812 2.3125 10.6615L2.3125 11.6823C2.3125 11.7625 2.24687 11.8281 2.16667 11.8281H1.14583C1.06562 11.8281 1 11.7625 1 11.6823ZM5.48438 1.14583V2.16667C5.48438 2.24687 5.41875 2.3125 5.33854 2.3125H4.31771C4.2375 2.3125 4.17188 2.24687 4.17188 2.16667V1.14583C4.17188 1.06562 4.2375 1 4.31771 1H5.33854C5.41875 1 5.48438 1.06562 5.48438 1.14583ZM2.3125 1.14583V2.16667C2.3125 2.24687 2.24687 2.3125 2.16667 2.3125H1.14583C1.06562 2.3125 1 2.24687 1 2.16667V1.14583C1 1.06562 1.06562 1 1.14583 1L2.16667 1C2.24687 1 2.3125 1.06562 2.3125 1.14583ZM13.6875 14.8542V13.8333C13.6875 13.7531 13.7531 13.6875 13.8333 13.6875H14.8542C14.9344 13.6875 15 13.7531 15 13.8333V14.8542C15 14.9344 14.9344 15 14.8542 15H13.8333C13.7531 15 13.6875 14.9344 13.6875 14.8542ZM10.5156 14.8542V13.8333C10.5156 13.7531 10.5812 13.6875 10.6615 13.6875H11.6823C11.7625 13.6875 11.8281 13.7531 11.8281 13.8333V14.8542C11.8281 14.9344 11.7625 15 11.6823 15H10.6615C10.5812 15 10.5156 14.9344 10.5156 14.8542ZM7.34375 14.8542V13.8333C7.34375 13.7531 7.40937 13.6875 7.48958 13.6875H8.51042C8.59062 13.6875 8.65625 13.7531 8.65625 13.8333V14.8542C8.65625 14.9344 8.59062 15 8.51042 15H7.48958C7.40937 15 7.34375 14.9344 7.34375 14.8542ZM4.17188 14.8542V13.8333C4.17188 13.7531 4.2375 13.6875 4.31771 13.6875H5.33854C5.41875 13.6875 5.48438 13.7531 5.48438 13.8333V14.8542C5.48438 14.9344 5.41875 15 5.33854 15H4.31771C4.2375 15 4.17188 14.9344 4.17188 14.8542ZM1 14.8542V13.8333C1 13.7531 1.06562 13.6875 1.14583 13.6875H2.16667C2.24687 13.6875 2.3125 13.7531 2.3125 13.8333V14.8542C2.3125 14.9344 2.24687 15 2.16667 15H1.14583C1.06562 15 1 14.9344 1 14.8542ZM1 8.51042V7.48958C1 7.40937 1.06562 7.34375 1.14583 7.34375H2.16667C2.24687 7.34375 2.3125 7.40937 2.3125 7.48958V8.51042C2.3125 8.59062 2.24687 8.65625 2.16667 8.65625H1.14583C1.06562 8.65625 1 8.59062 1 8.51042ZM2.3125 4.31771V5.33854C2.3125 5.41875 2.24687 5.48438 2.16667 5.48438H1.14583C1.06562 5.48438 1 5.41875 1 5.33854V4.31771C1 4.2375 1.06562 4.17188 1.14583 4.17188H2.16667C2.24687 4.17188 2.3125 4.2375 2.3125 4.31771ZM13.6875 8.51042V5.19271C13.6875 3.6013 12.3987 2.3125 10.8073 2.3125H7.48958C7.40937 2.3125 7.34375 2.24687 7.34375 2.16667V1.14583C7.34375 1.06562 7.40937 1 7.48958 1L10.8073 1C13.1224 1 15 2.8776 15 5.19271V8.51042C15 8.59062 14.9344 8.65625 14.8542 8.65625H13.8333C13.7531 8.65625 13.6875 8.59062 13.6875 8.51042Z" stroke="#2C78F6" stroke-width="0.8" mask="url(#path-1-outside-1)"/>
</svg>
