<svg width="32" height="24" viewBox="0 0 32 24" fill="none" xmlns="http://www.w3.org/2000/svg">
<path d="M4.99677 19.4698V4.36044C4.99677 3.74716 4.4996 3.25 3.88632 3.25C3.27304 3.25 2.77588 3.74716 2.77588 4.36044V19.4698C2.77588 20.083 3.27304 20.5802 3.88632 20.5802C4.4996 20.5802 4.99677 20.083 4.99677 19.4698Z" fill="url(#paint0_linear)"/>
<path d="M1.66571 18.6632V5.16489C1.66571 4.70491 1.29283 4.33203 0.832855 4.33203C0.372882 4.33203 0 4.70491 0 5.16489V18.6632C0 19.1232 0.372882 19.4961 0.832855 19.4961C1.29283 19.4961 1.66571 19.1232 1.66571 18.6632Z" fill="url(#paint1_linear)"/>
<path d="M7.77307 21.3719V2.45782C7.77307 1.99787 7.4002 1.625 6.94025 1.625C6.48029 1.625 6.10742 1.99787 6.10742 2.45782V21.3719C6.10742 21.8318 6.48029 22.2047 6.94025 22.2047C7.4002 22.2047 7.77307 21.8318 7.77307 21.3719Z" fill="url(#paint2_linear)"/>
<path d="M28.3167 19.4697V4.36047C28.3167 3.74718 27.8195 3.25 27.2062 3.25C26.5929 3.25 26.0957 3.74718 26.0957 4.36047V19.4697C26.0957 20.083 26.5929 20.5802 27.2062 20.5802C27.8195 20.5802 28.3167 20.083 28.3167 19.4697Z" fill="url(#paint3_linear)"/>
<path d="M31.093 18.6632V5.16489C31.093 4.70491 30.7201 4.33203 30.2601 4.33203C29.8001 4.33203 29.4272 4.70491 29.4272 5.16489V18.6632C29.4272 19.1232 29.8001 19.4961 30.2601 19.4961C30.7201 19.4961 31.093 19.1232 31.093 18.6632Z" fill="url(#paint4_linear)"/>
<path d="M22.2087 22.746V22.7411V1.08314V1C22.2087 0.447715 21.761 0 21.2087 0H9.8833C9.33102 0 8.8833 0.447715 8.8833 1V22.8291C8.8833 23.3814 9.33102 23.8291 9.8833 23.8291H21.2087C21.761 23.8291 22.2087 23.3814 22.2087 22.8291V22.7508V22.746ZM11.1042 3.79099H13.8803C14.187 3.79099 14.4356 4.03346 14.4356 4.33256C14.4356 4.63167 14.187 4.87413 13.8803 4.87413H11.1042C10.7976 4.87413 10.549 4.63167 10.549 4.33256C10.549 4.03346 10.7976 3.79099 11.1042 3.79099ZM16.6565 20.0381H11.1042C10.7976 20.0381 10.549 19.7956 10.549 19.4965C10.549 19.1974 10.7976 18.955 11.1042 18.955H16.6565C16.9631 18.955 17.2117 19.1974 17.2117 19.4965C17.2117 19.7956 16.9631 20.0381 16.6565 20.0381ZM19.9878 17.8718H11.1042C10.7976 17.8718 10.549 17.6294 10.549 17.3303C10.549 17.0312 10.7976 16.7887 11.1042 16.7887H19.9878C20.2945 16.7887 20.5431 17.0312 20.5431 17.3303C20.5431 17.6294 20.2945 17.8718 19.9878 17.8718ZM19.9878 15.7055H11.1042C10.7976 15.7055 10.549 15.4631 10.549 15.164C10.549 14.8649 10.7976 14.6224 11.1042 14.6224H19.9878C20.2945 14.6224 20.5431 14.8649 20.5431 15.164C20.5431 15.4631 20.2945 15.7055 19.9878 15.7055ZM19.9878 13.5393H11.1042C10.7976 13.5393 10.549 13.2968 10.549 12.9977C10.549 12.6986 10.7976 12.4561 11.1042 12.4561H19.9878C20.2945 12.4561 20.5431 12.6986 20.5431 12.9977C20.5431 13.2968 20.2945 13.5393 19.9878 13.5393ZM19.9878 11.373H11.1042C10.7976 11.373 10.549 11.1305 10.549 10.8314C10.549 10.5323 10.7976 10.2898 11.1042 10.2898H19.9878C20.2945 10.2898 20.5431 10.5323 20.5431 10.8314C20.5431 11.1305 20.2945 11.373 19.9878 11.373ZM19.9878 9.2067H11.1042C10.7976 9.2067 10.549 8.96423 10.549 8.66513C10.549 8.36603 10.7976 8.12356 11.1042 8.12356H19.9878C20.2945 8.12356 20.5431 8.36603 20.5431 8.66513C20.5431 8.96423 20.2945 9.2067 19.9878 9.2067ZM19.9878 7.04042H11.1042C10.7976 7.04042 10.549 6.79795 10.549 6.49885C10.549 6.19974 10.7976 5.95728 11.1042 5.95728H19.9878C20.2945 5.95728 20.5431 6.19974 20.5431 6.49885C20.5431 6.79795 20.2945 7.04042 19.9878 7.04042Z" fill="url(#paint5_linear)"/>
<path d="M24.985 21.3719V2.45786C24.985 1.99788 24.6122 1.625 24.1522 1.625C23.6922 1.625 23.3193 1.99788 23.3193 2.45785V21.3719C23.3193 21.8318 23.6922 22.2047 24.1522 22.2047C24.6122 22.2047 24.985 21.8318 24.985 21.3719Z" fill="url(#paint6_linear)"/>
<defs>
<linearGradient id="paint0_linear" x1="4.99677" y1="3.25001" x2="1.87418" y2="3.28618" gradientUnits="userSpaceOnUse">
<stop stop-color="#2C78F6"/>
<stop offset="1" stop-color="#00BFE7"/>
</linearGradient>
<linearGradient id="paint1_linear" x1="1.66571" y1="4.33204" x2="-0.676378" y2="4.35529" gradientUnits="userSpaceOnUse">
<stop stop-color="#2C78F6"/>
<stop offset="1" stop-color="#00BFE7"/>
</linearGradient>
<linearGradient id="paint2_linear" x1="7.77307" y1="1.62501" x2="5.43096" y2="1.64214" gradientUnits="userSpaceOnUse">
<stop stop-color="#2C78F6"/>
<stop offset="1" stop-color="#00BFE7"/>
</linearGradient>
<linearGradient id="paint3_linear" x1="28.3167" y1="3.25001" x2="25.194" y2="3.28618" gradientUnits="userSpaceOnUse">
<stop stop-color="#2C78F6"/>
<stop offset="1" stop-color="#00BFE7"/>
</linearGradient>
<linearGradient id="paint4_linear" x1="31.093" y1="4.33204" x2="28.7509" y2="4.35529" gradientUnits="userSpaceOnUse">
<stop stop-color="#2C78F6"/>
<stop offset="1" stop-color="#00BFE7"/>
</linearGradient>
<linearGradient id="paint5_linear" x1="22.2087" y1="8.23197e-06" x2="3.51828" y2="0.944772" gradientUnits="userSpaceOnUse">
<stop stop-color="#2C78F6"/>
<stop offset="1" stop-color="#00BFE7"/>
</linearGradient>
<linearGradient id="paint6_linear" x1="24.985" y1="1.62501" x2="22.6429" y2="1.64214" gradientUnits="userSpaceOnUse">
<stop stop-color="#2C78F6"/>
<stop offset="1" stop-color="#00BFE7"/>
</linearGradient>
</defs>
</svg>
