<svg width="24" height="23" viewBox="0 0 24 23" fill="none" xmlns="http://www.w3.org/2000/svg">
<path d="M5.10588 22.7L0 17.6746L3.65688 14.0044C4.39997 13.259 5.33593 12.74 6.35762 12.5067C7.3793 12.2734 8.44542 12.3352 9.4339 12.6852L10.2378 12.9701H15.1777C15.3862 12.9703 15.5925 13.0128 15.7844 13.0949C15.9763 13.1771 16.15 13.2973 16.295 13.4485C16.4401 13.5996 16.5536 13.7786 16.6289 13.9748C16.7042 14.1711 16.7398 14.3806 16.7334 14.5909C16.7102 15.0073 16.5285 15.3985 16.2261 15.6828C15.9238 15.967 15.5244 16.1222 15.1113 16.116H12.1469C11.9865 16.116 11.8327 16.1803 11.7193 16.2948C11.6059 16.4093 11.5422 16.5646 11.5422 16.7265C11.5422 16.8885 11.6059 17.0437 11.7193 17.1582C11.8327 17.2727 11.9865 17.3371 12.1469 17.3371H15.1161C15.8425 17.3398 16.542 17.0596 17.069 16.5547C17.596 16.0499 17.9099 15.3594 17.9453 14.6269C17.9453 14.6149 17.9453 14.6005 17.9453 14.5885L20.3713 11.8592C20.5322 11.6765 20.7294 11.53 20.95 11.4294C21.1707 11.3287 21.4098 11.2761 21.652 11.275C22.0169 11.2727 22.3711 11.3998 22.6527 11.6341C22.8193 11.773 22.9567 11.9441 23.0567 12.1374C23.1567 12.3307 23.2174 12.5423 23.235 12.7597C23.2527 12.977 23.2271 13.1958 23.1597 13.403C23.0923 13.6102 22.9844 13.8016 22.8425 13.9661L17.682 19.9228C17.3211 20.3406 16.8757 20.6756 16.3759 20.9052C15.876 21.1349 15.3332 21.2537 14.784 21.2539H6.53828L5.10588 22.7ZM15.7279 11.2295C15.8186 11.3496 15.9356 11.447 16.0697 11.514C16.2038 11.581 16.3514 11.6158 16.501 11.6158C16.6506 11.6158 16.7982 11.581 16.9323 11.514C17.0664 11.447 17.1834 11.3496 17.2741 11.2295L19.6457 8.07161C19.731 7.95875 19.7834 7.82403 19.7969 7.68268C19.8105 7.54133 19.7845 7.39898 19.7221 7.27172C19.6597 7.14446 19.5633 7.03735 19.4438 6.96251C19.3242 6.88767 19.1863 6.84807 19.0457 6.84818H18.0235L17.8931 2.40699C17.8894 2.219 17.8128 2.03998 17.6798 1.90838C17.5467 1.77677 17.3679 1.70307 17.1817 1.70311H15.8204C15.6342 1.70307 15.4553 1.77677 15.3223 1.90838C15.1893 2.03998 15.1127 2.219 15.1089 2.40699L14.9738 6.84818H13.9445C13.8039 6.84807 13.666 6.88767 13.5464 6.96251C13.4269 7.03735 13.3305 7.14446 13.2681 7.27172C13.2056 7.39898 13.1797 7.54133 13.1932 7.68268C13.2068 7.82403 13.2592 7.95875 13.3445 8.07161L15.7279 11.2295ZM7.60783 4.76525H8.6347L8.77462 9.19447C8.77462 9.38497 8.84958 9.56766 8.983 9.70235C9.11642 9.83705 9.29738 9.91273 9.48607 9.91273H10.845C11.0312 9.91276 11.21 9.83907 11.3431 9.70746C11.4761 9.57585 11.5527 9.39683 11.5564 9.20884L11.6868 4.76765H12.7137C12.8544 4.76777 12.9923 4.72817 13.1118 4.65332C13.2313 4.57848 13.3278 4.47138 13.3902 4.34411C13.4526 4.21685 13.4785 4.0745 13.465 3.93315C13.4515 3.7918 13.3991 3.65709 13.3137 3.54423L10.9422 0.386313C10.8514 0.266211 10.7345 0.168868 10.6004 0.101864C10.4663 0.034859 10.3187 0 10.1691 0C10.0195 0 9.87185 0.034859 9.73776 0.101864C9.60366 0.168868 9.48669 0.266211 9.39596 0.386313L7.02444 3.54423C6.94065 3.6558 6.88897 3.78854 6.87506 3.92785C6.86116 4.06716 6.88558 4.20764 6.94563 4.33385C7.00569 4.46006 7.09906 4.5671 7.21546 4.64321C7.33187 4.71932 7.46682 4.76155 7.60546 4.76525H7.60783Z" fill="url(#paint0_linear)"/>
<defs>
<linearGradient id="paint0_linear" x1="23.2405" y1="7.84192e-06" x2="-9.16273" y2="2.99873" gradientUnits="userSpaceOnUse">
<stop stop-color="#2C78F6"/>
<stop offset="1" stop-color="#00BFE7"/>
</linearGradient>
</defs>
</svg>
