<svg width="35" height="32" viewBox="0 0 35 32" fill="none" xmlns="http://www.w3.org/2000/svg">
<path d="M12.6296 2.07907C12.8762 2.07907 13.0736 2.26388 13.0736 2.49489V11.8276C13.0736 12.0586 12.8762 12.2434 12.6296 12.2434H2.66405C2.41738 12.2434 2.22004 12.0586 2.22004 11.8276V2.49489C2.22004 2.26388 2.41738 2.07907 2.66405 2.07907H12.6296ZM12.6296 0H2.66405C1.18402 0 0 1.10884 0 2.49489V11.8276C0 13.2137 1.18402 14.3225 2.66405 14.3225H12.6296C14.1096 14.3225 15.2936 13.2137 15.2936 11.8276V2.49489C15.2936 1.15504 14.1096 0 12.6296 0ZM31.3766 14.3225H21.4111C19.931 14.3225 18.747 13.2137 18.747 11.8276V2.49489C18.747 1.10884 19.931 0 21.4111 0H31.3766C32.8566 0 34.0406 1.10884 34.0406 2.49489V11.8276C34.0406 13.2137 32.8566 14.3225 31.3766 14.3225ZM12.6296 19.6357C12.8762 19.6357 13.0736 19.8205 13.0736 20.0515V29.3842C13.0736 29.6152 12.8762 29.8 12.6296 29.8H2.66405C2.41738 29.8 2.22004 29.6152 2.22004 29.3842V20.0515C2.22004 19.8205 2.41738 19.6357 2.66405 19.6357H12.6296ZM12.6296 17.6028H2.66405C1.18402 17.6028 0 18.7116 0 20.0977V29.4304C0 30.8165 1.18402 31.9253 2.66405 31.9253H12.6296C14.1096 31.9253 15.2936 30.8165 15.2936 29.4304V20.0515C15.2936 18.7116 14.1096 17.6028 12.6296 17.6028ZM31.3766 19.6357C31.6233 19.6357 31.8206 19.8205 31.8206 20.0515V29.3842C31.8206 29.6152 31.6233 29.8 31.3766 29.8H21.4111C21.1644 29.8 20.9671 29.6152 20.9671 29.3842V20.0515C20.9671 19.8205 21.1644 19.6357 21.4111 19.6357H31.3766ZM31.3766 17.6028H21.4111C19.931 17.6028 18.747 18.7116 18.747 20.0977V29.4304C18.747 30.8165 19.931 31.9253 21.4111 31.9253H31.3766C32.8566 31.9253 34.0406 30.8165 34.0406 29.4304V20.0515C34.0406 18.7116 32.8566 17.6028 31.3766 17.6028Z" fill="url(#paint0_linear)"/>
<defs>
<linearGradient id="paint0_linear" x1="34.0407" y1="1.10289e-05" x2="-13.3867" y2="4.57112" gradientUnits="userSpaceOnUse">
<stop stop-color="#2C78F6"/>
<stop offset="1" stop-color="#00BFE7"/>
</linearGradient>
</defs>
</svg>
