<svg width="20" height="23" viewBox="0 0 20 23" fill="none" xmlns="http://www.w3.org/2000/svg">
<path d="M11.8177 10.07L16.713 3.60721L17.0023 5.63285C17.0747 6.13926 17.5087 6.5251 18.0151 6.5251C18.0634 6.5251 18.1116 6.5251 18.1598 6.5251C18.7145 6.45275 19.1244 5.92223 19.028 5.36759L18.4251 0.882241C18.3528 0.327602 17.8222 -0.0823496 17.2676 0.0141095L12.7581 0.616979C12.2035 0.689323 11.7935 1.21985 11.89 1.77449C11.9623 2.32913 12.4929 2.73908 13.0475 2.64262L15.0731 2.35324L10.8048 8.02022L7.11527 5.2229C6.65709 4.88529 6.00599 4.95764 5.66838 5.41582L0.60428 12.1438C0.266673 12.602 0.339017 13.2531 0.797198 13.5907C0.990116 13.7354 1.20715 13.8078 1.42418 13.8078C1.73767 13.8078 2.05117 13.6631 2.24408 13.3978L6.70532 7.5138L10.3949 10.3111C10.8289 10.6246 11.48 10.5282 11.8177 10.07Z" fill="url(#paint0_linear)"/>
<path d="M4.12363 16.1714H0.819902C0.361721 16.1714 0 16.5331 0 16.9913V22.0795C0 22.5377 0.361721 22.8994 0.819902 22.8994H4.12363C4.58181 22.8994 4.94353 22.5377 4.94353 22.0795V16.9913C4.94353 16.5331 4.58181 16.1714 4.12363 16.1714Z" fill="url(#paint1_linear)"/>
<path d="M11.5513 12.8667H8.22347C7.76529 12.8667 7.40356 13.2284 7.40356 13.6866V22.0785C7.40356 22.5367 7.76529 22.8984 8.22347 22.8984H11.5272C11.9854 22.8984 12.3471 22.5367 12.3471 22.0785V13.6866C12.3712 13.2284 11.9854 12.8667 11.5513 12.8667Z" fill="url(#paint2_linear)"/>
<path d="M18.9552 9.56201H15.6514C15.1933 9.56201 14.8315 9.92373 14.8315 10.3819V22.0535C14.8315 22.5116 15.1933 22.8734 15.6514 22.8734H18.9552C19.4133 22.8734 19.7751 22.5116 19.7751 22.0535V10.406C19.7751 9.94785 19.4133 9.56201 18.9552 9.56201Z" fill="url(#paint3_linear)"/>
<defs>
<linearGradient id="paint0_linear" x1="19.0421" y1="4.77001e-06" x2="-6.79569" y2="3.15424" gradientUnits="userSpaceOnUse">
<stop stop-color="#2C78F6"/>
<stop offset="1" stop-color="#00BFE7"/>
</linearGradient>
<linearGradient id="paint1_linear" x1="4.94353" y1="16.1714" x2="-1.97752" y2="16.6311" gradientUnits="userSpaceOnUse">
<stop stop-color="#2C78F6"/>
<stop offset="1" stop-color="#00BFE7"/>
</linearGradient>
<linearGradient id="paint2_linear" x1="12.3482" y1="12.8667" x2="5.40885" y2="13.1759" gradientUnits="userSpaceOnUse">
<stop stop-color="#2C78F6"/>
<stop offset="1" stop-color="#00BFE7"/>
</linearGradient>
<linearGradient id="paint3_linear" x1="19.7751" y1="9.56202" x2="12.8313" y2="9.79511" gradientUnits="userSpaceOnUse">
<stop stop-color="#2C78F6"/>
<stop offset="1" stop-color="#00BFE7"/>
</linearGradient>
</defs>
</svg>
