<svg width="25" height="35" viewBox="0 0 25 35" fill="none" xmlns="http://www.w3.org/2000/svg">
<path d="M3.48748 15.783C3.83357 16.1823 4.41927 16.2755 4.86519 15.9893L8.27287 13.8395L10.3095 14.159V15.0309L4.08649 20.9611C3.87351 21.1607 3.75371 21.4403 3.75371 21.7331V21.9328C3.75371 22.5185 4.23291 22.9977 4.8186 22.9977H19.1814C19.4943 22.9977 19.7871 22.8646 19.9868 22.625C23.1083 18.9977 24.0134 14.9244 22.4161 10.6848C20.2863 5.05412 16.4526 3.6032 12.7521 2.19886C11.2479 1.62648 9.69052 1.04078 8.29284 0.162242C7.92013 -0.0707052 7.44758 -0.0507384 7.09483 0.208831C6.74208 0.4684 6.58235 0.914327 6.69549 1.33363L7.73377 5.30704L1.21126 11.5899C0.805265 11.9826 0.771987 12.6216 1.1447 13.0475L3.48748 15.783Z" fill="url(#paint0_linear)"/>
<path d="M20.08 25.2407H4.01334C1.79702 25.2407 0 27.0444 0 29.2541V33.0012C0 33.5869 0.479205 34.0661 1.0649 34.0661H23.0351C23.6208 34.0661 24.1 33.5869 24.1 33.0012V29.2541C24.1 27.0377 22.2963 25.2407 20.08 25.2407Z" fill="url(#paint1_linear)"/>
<defs>
<linearGradient id="paint0_linear" x1="23.1903" y1="7.94475e-06" x2="-7.93647" y2="2.72894" gradientUnits="userSpaceOnUse">
<stop stop-color="#2C78F6"/>
<stop offset="1" stop-color="#00BFE7"/>
</linearGradient>
<linearGradient id="paint1_linear" x1="24.1" y1="25.2407" x2="-7.8431" y2="33.1255" gradientUnits="userSpaceOnUse">
<stop stop-color="#2C78F6"/>
<stop offset="1" stop-color="#00BFE7"/>
</linearGradient>
</defs>
</svg>
