<svg width="24" height="26" viewBox="0 0 24 26" fill="none" xmlns="http://www.w3.org/2000/svg">
<path d="M3.49843 22.4976C2.96482 22.4976 2.44318 22.3394 1.9995 22.0429C1.55581 21.7464 1.21 21.3251 1.00579 20.8321C0.801584 20.3391 0.748154 19.7966 0.852258 19.2732C0.956362 18.7499 1.21332 18.2691 1.59065 17.8918C1.96797 17.5145 2.44871 17.2575 2.97208 17.1534C3.49544 17.0493 4.03792 17.1027 4.53092 17.3069C5.02392 17.5111 5.44529 17.857 5.74175 18.3006C6.03822 18.7443 6.19645 19.266 6.19645 19.7996C6.19645 20.5151 5.9122 21.2014 5.40622 21.7074C4.90025 22.2133 4.21399 22.4976 3.49843 22.4976Z" fill="url(#paint0_linear)"/>
<path d="M20.4575 8.62162C19.9239 8.62162 19.4022 8.46339 18.9585 8.16692C18.5149 7.87046 18.169 7.44909 17.9648 6.95609C17.7606 6.46309 17.7072 5.92061 17.8113 5.39725C17.9154 4.87388 18.1724 4.39314 18.5497 4.01582C18.927 3.63849 19.4078 3.38153 19.9311 3.27743C20.4545 3.17333 20.997 3.22675 21.49 3.43096C21.983 3.63517 22.4043 3.98098 22.7008 4.42467C22.9973 4.86835 23.1555 5.38999 23.1555 5.92361C23.1555 6.63916 22.8712 7.32542 22.3653 7.83139C21.8593 8.33737 21.173 8.62162 20.4575 8.62162Z" fill="url(#paint1_linear)"/>
<path d="M3.88368 9.0074C3.88368 8.59851 4.04611 8.20637 4.33524 7.91724C4.62437 7.62811 5.01652 7.46568 5.42541 7.46568H8.6399L6.64722 9.45836L8.82876 11.6399L13.4539 7.01472C13.5973 6.87154 13.711 6.7015 13.7886 6.51434C13.8662 6.32718 13.9061 6.12656 13.9061 5.92395C13.9061 5.72135 13.8662 5.52073 13.7886 5.33356C13.711 5.1464 13.5973 4.97637 13.4539 4.83318L8.82876 0.208008L6.64722 2.38955L8.6399 4.38223H5.42541C4.19873 4.38223 3.0223 4.86952 2.15491 5.73691C1.28753 6.6043 0.800232 7.78073 0.800232 9.0074V12.8617H3.88368V9.0074Z" fill="url(#paint2_linear)"/>
<path d="M20.0717 16.7161C20.0717 17.125 19.9093 17.5172 19.6202 17.8063C19.3311 18.0954 18.9389 18.2579 18.53 18.2579H15.3155L17.3082 16.2652L15.1267 14.0836L10.5015 18.7088C10.3581 18.852 10.2444 19.022 10.1668 19.2092C10.0893 19.3964 10.0493 19.597 10.0493 19.7996C10.0493 20.0022 10.0893 20.2028 10.1668 20.39C10.2444 20.5771 10.3581 20.7472 10.5015 20.8903L15.1267 25.5155L17.3082 23.334L15.3155 21.3413H18.53C19.7567 21.3413 20.9331 20.854 21.8005 19.9866C22.6679 19.1192 23.1552 17.9428 23.1552 16.7161V12.8618H20.0717V16.7161Z" fill="url(#paint3_linear)"/>
<defs>
<linearGradient id="paint0_linear" x1="6.19645" y1="17.1016" x2="0.212184" y2="17.704" gradientUnits="userSpaceOnUse">
<stop stop-color="#2C78F6"/>
<stop offset="1" stop-color="#00BFE7"/>
</linearGradient>
<linearGradient id="paint1_linear" x1="23.1555" y1="3.22559" x2="17.1712" y2="3.82806" gradientUnits="userSpaceOnUse">
<stop stop-color="#2C78F6"/>
<stop offset="1" stop-color="#00BFE7"/>
</linearGradient>
<linearGradient id="paint2_linear" x1="13.9061" y1="0.20801" x2="-0.61786" y2="1.72248" gradientUnits="userSpaceOnUse">
<stop stop-color="#2C78F6"/>
<stop offset="1" stop-color="#00BFE7"/>
</linearGradient>
<linearGradient id="paint3_linear" x1="23.1552" y1="12.8618" x2="8.63122" y2="14.3763" gradientUnits="userSpaceOnUse">
<stop stop-color="#2C78F6"/>
<stop offset="1" stop-color="#00BFE7"/>
</linearGradient>
</defs>
</svg>
