<svg width="28" height="34" viewBox="0 0 28 34" fill="none" xmlns="http://www.w3.org/2000/svg">
<path d="M28 4.78691L23.8767 0C23.8767 0 21.3835 1.97365 18.7945 1.97365C16.2052 1.974 14.0002 0 14.0002 0C14.0002 0 11.7948 1.97365 9.20581 1.97365C6.61649 1.97365 4.12367 0 4.12367 0L0 4.78691C0 4.78691 2.12634 5.97096 2.12634 8.73244C2.12634 11.4936 0.191966 12.1395 0.191966 18.0115C0.191966 28.9669 14.0002 34 14.0002 34C14.0002 34 27.8084 28.9669 27.8084 18.0118C27.8084 12.1398 25.874 11.4939 25.874 8.73279C25.8737 5.97095 28 4.78691 28 4.78691ZM11.0382 23.1837L11.0368 23.1823L11.0355 23.1837L6.70615 18.7271L8.46566 16.9162L11.0372 19.5625L19.535 10.8163L21.2945 12.6276L11.0382 23.1837Z" fill="url(#paint0_linear)"/>
<defs>
<linearGradient id="paint0_linear" x1="28" y1="1.17456e-05" x2="-11.1566" y2="2.91484" gradientUnits="userSpaceOnUse">
<stop stop-color="#2C78F6"/>
<stop offset="1" stop-color="#00BFE7"/>
</linearGradient>
</defs>
</svg>
