<svg width="16" height="13" viewBox="0 0 16 13" fill="none" xmlns="http://www.w3.org/2000/svg">
<path d="M15.1571 1.97782C14.6214 2.2151 14.0452 2.3756 13.4409 2.44727C14.0579 2.07798 14.5314 1.49367 14.7549 0.79627C14.1776 1.1384 13.5378 1.3866 12.8576 1.52038C12.3125 0.940513 11.536 0.578125 10.6761 0.578125C9.02631 0.578125 7.68825 1.91482 7.68825 3.56293C7.68825 3.79688 7.71477 4.0246 7.76602 4.24319C5.28287 4.11875 3.08114 2.93053 1.60738 1.12416C1.35024 1.5649 1.20273 2.07798 1.20273 2.6249C1.20273 3.6602 1.7306 4.57419 2.53188 5.10931C2.04233 5.09395 1.58131 4.95973 1.17866 4.73557C1.17844 4.74826 1.17844 4.76095 1.17844 4.77341C1.17844 6.21962 2.20878 7.42588 3.57536 7.6999C3.32491 7.76846 3.06042 7.80474 2.78835 7.80474C2.59538 7.80474 2.40843 7.78626 2.22616 7.75154C2.6063 8.93709 3.7095 9.8001 5.01726 9.82436C3.9945 10.625 2.70635 11.1021 1.30612 11.1021C1.06547 11.1021 0.827047 11.088 0.59375 11.0602C1.91532 11.9074 3.48623 12.4014 5.17346 12.4014C10.6692 12.4014 13.6747 7.85327 13.6747 3.90862C13.6747 3.77929 13.6718 3.65041 13.666 3.52264C14.2502 3.10193 14.7567 2.57638 15.1571 1.97782Z" fill="#2C78F6"/>
</svg>
